<?xml version="1.0" encoding="UTF-8"?>
<svg id="_레이어_2" data-name="레이어 2" xmlns="http://www.w3.org/2000/svg" xmlns:xlink="http://www.w3.org/1999/xlink" viewBox="0 0 458.7 45.86">
  <defs>
    <style>
      .cls-1 {
        fill: url(#linear-gradient-2);
      }

      .cls-2 {
        fill: #4c4c4e;
      }

      .cls-3 {
        fill: #102b53;
      }

      .cls-4 {
        fill: url(#linear-gradient);
      }

      .cls-5 {
        fill: none;
        stroke: #4c4c4e;
        stroke-miterlimit: 10;
        stroke-width: .22px;
      }
    </style>
    <linearGradient id="linear-gradient" x1=".39" y1="22.68" x2="76.3" y2="22.68" gradientUnits="userSpaceOnUse">
      <stop offset="0" stop-color="#e0026e"/>
      <stop offset=".61" stop-color="#543964"/>
      <stop offset="1" stop-color="#133a5f"/>
    </linearGradient>
    <linearGradient id="linear-gradient-2" x1=".39" y1="22.6" x2="76.3" y2="22.6" xlink:href="#linear-gradient"/>
  </defs>
  <g id="Layer_1" data-name="Layer 1">
    <g>
      <g>
        <path class="cls-2" d="m196.12,2.1h9.67c.7,0,1.22.19,1.56.58.34.39.53.92.57,1.6h3.53V1.71h2.38c.84,0,1.53.67,1.53,1.5v10.06c0,.97-.19,1.77-.57,2.37s-.87,1.09-1.48,1.43c.38.5.68,1.04.92,1.64.23.6.35,1.25.35,1.94,0,.9-.18,1.71-.55,2.44-.37.73-.87,1.35-1.5,1.86-.61.51-1.33.91-2.16,1.19-.83.28-1.7.41-2.61.41s-1.82-.14-2.65-.41-1.56-.66-2.17-1.16c-.63-.51-1.12-1.14-1.48-1.86-.36-.73-.54-1.55-.54-2.47s.18-1.72.54-2.45c.36-.74.85-1.36,1.48-1.88.61-.51,1.33-.91,2.17-1.2.84-.28,1.72-.43,2.65-.43.54,0,1.07.05,1.59.15.52.1,1.01.24,1.48.43.22-.26.37-.56.47-.9.1-.34.15-.67.15-.98v-.66h-4.72v-3.03h4.72v-2.37h-4.02c-.66,2.1-1.85,3.9-3.56,5.41-1.71,1.51-3.8,2.84-6.28,4l-1.59-2.95c.99-.5,1.92-1.02,2.8-1.56.88-.54,1.67-1.14,2.37-1.78.68-.62,1.26-1.3,1.72-2.03.47-.73.78-1.52.94-2.39.05-.33.05-.56-.01-.68-.06-.12-.24-.18-.53-.18h-7.2v-3.09Zm13.72,16.44c-.52-.55-1.21-.83-2.08-.83s-1.57.28-2.12.83c-.55.55-.82,1.26-.82,2.12s.27,1.58.82,2.1c.55.51,1.25.77,2.12.77s1.55-.26,2.08-.77c.52-.52.78-1.21.78-2.1s-.26-1.57-.78-2.12Z"/>
        <path class="cls-2" d="m239.56,15.86h-9.05v1.49h4.61c.57,0,1.03.2,1.37.61.34.4.49.91.46,1.52l-.32,6.54h-3.67v-4.77c0-.26-.06-.45-.19-.59-.13-.14-.31-.21-.57-.21h-11.94v-3.09h6.36v-1.49h-8.62v-3.01h21.56v3.01Zm-2.94-12.98v6.61c-.7.44-1.55.84-2.56,1.19-1.01.35-2.01.52-3.02.52h-6.74c-.52,0-1.01-.03-1.46-.1-.45-.06-.84-.21-1.16-.43-.34-.22-.6-.52-.78-.91-.18-.39-.27-.9-.27-1.54V1.38h2.36c.84,0,1.53.67,1.53,1.5v.76h8.22V1.38h2.36c.84,0,1.53.67,1.53,1.5Zm-5.15,5.3c.43-.08.85-.23,1.27-.43v-1.3h-8.22v1.1c0,.31.06.52.18.61.12.09.34.14.66.14h4.77c.47,0,.92-.04,1.35-.12Z"/>
        <path class="cls-2" d="m248.37,1.49c.34.66.57,1.31.7,1.96.13.64.2,1.29.22,1.93,0,.35-.02.7-.07,1.05-.04.35-.11.69-.2,1.02.57.07,1.13.23,1.66.48.53.25.99.62,1.39,1.12.49.63.99,1.32,1.52,2.1.53.77,1.01,1.49,1.44,2.15l-2.61,2.01c-.54-.79-1.06-1.54-1.56-2.25-.5-.71-.92-1.29-1.24-1.75-.27-.33-.53-.58-.79-.76-.26-.17-.58-.3-.96-.37-.63,1.03-1.42,2.01-2.37,2.95-.95.94-2.05,1.78-3.29,2.54l-2.02-2.73c1.74-1.16,3.05-2.37,3.91-3.64.86-1.27,1.29-2.56,1.29-3.89,0-.42-.05-.9-.15-1.43-.1-.53-.24-.97-.42-1.3l3.56-1.19Zm-3.54,23.63c-.49-.4-.74-1.14-.74-2.21v-6.09h2.95c.53,0,.95.42.95.94v4.22c0,.28.04.46.13.55.09.09.28.14.57.14h6.41c.77,0,1.63-.04,2.57-.11.63-.05,1.25-.16,1.87-.33.51-.14,1.04.15,1.17.65l.51,1.94c-1.33.46-2.45.73-3.37.8-.92.07-1.8.11-2.64.11h-8.03c-1.08,0-1.86-.2-2.36-.61Zm18.53-14.31h-3.34v7.23h-3.91V1.71h2.38c.84,0,1.53.67,1.53,1.5v4.49h3.34v3.12Z"/>
        <path class="cls-2" d="m284.88,14.51h-3.91v-5.21h-3.21c-.38,1.42-1.17,2.5-2.37,3.25-1.2.75-2.55,1.13-4.04,1.13-.92,0-1.78-.12-2.59-.36-.81-.24-1.52-.61-2.13-1.1-.59-.51-1.06-1.15-1.41-1.92-.35-.76-.53-1.67-.53-2.72,0-.96.18-1.81.53-2.55s.83-1.37,1.44-1.89c.61-.51,1.32-.91,2.13-1.19.81-.28,1.66-.41,2.56-.41.77,0,1.52.11,2.24.32.72.21,1.37.52,1.94.92.57.4,1.07.9,1.48,1.48.41.58.7,1.24.86,1.97h3.1V1.71h2.38c.84,0,1.53.67,1.53,1.5v11.3Zm-11.43-9.03c-.49-.58-1.19-.87-2.1-.87s-1.59.29-2.09.87c-.49.58-.74,1.28-.74,2.11,0,.88.25,1.6.74,2.16.49.56,1.19.84,2.09.84s1.62-.28,2.1-.84c.49-.56.73-1.28.73-2.16,0-.83-.24-1.53-.73-2.11Zm10.39,10.27c.53,0,.95.42.95.94v8.19c-.04.4-.19.69-.46.87-.27.17-.64.26-1.1.26h-10.97c-1.13,0-2.04-.24-2.72-.72-.68-.48-1.02-1.3-1.02-2.45v-7.09h2.95c.53,0,.95.42.95.94v1.27h8.54v-2.21h2.87Zm-2.87,7.28v-2.1h-8.54v1.32c0,.28.05.47.15.59.1.12.28.18.55.18h7.84Z"/>
        <path class="cls-2" d="m298.6,4.16c1.19.34,2.17.89,2.96,1.64.81.75,1.41,1.74,1.82,2.96.4,1.22.61,2.72.61,4.48,0,1.88-.19,3.45-.57,4.72s-.96,2.3-1.75,3.09c-.77.79-1.76,1.36-2.96,1.7-1.2.34-2.62.51-4.26.51h-2.05c-1.38,0-2.38-.28-3-.83-.62-.55-.93-1.54-.93-2.98V7.46c0-1.42.31-2.4.93-2.96.62-.56,1.62-.84,3-.84h2.08c1.56,0,2.94.17,4.12.51Zm.03,14.41c.81-1.03,1.21-2.79,1.21-5.29,0-1.27-.1-2.32-.3-3.14-.2-.83-.5-1.49-.92-1.99-.43-.5-.98-.85-1.66-1.05-.67-.2-1.5-.3-2.47-.3h-.75c-.52,0-.87.11-1.04.32-.17.21-.26.53-.26.95v10.78c0,.44.08.76.26.97.17.2.52.3,1.04.3h.75c1.94,0,3.31-.51,4.12-1.54Z"/>
        <path class="cls-2" d="m304.46,23.26l6.2-9.82-6.2-9.79h3.52c.66,0,1.27.33,1.62.88l3.35,5.29,3.91-6.18h3.21c.6,0,.96.65.65,1.14l-5.47,8.65,6.2,9.82h-4.55l-3.93-6.2-3.93,6.2h-4.55Z"/>
        <path class="cls-2" d="m337.92,5.21h2.24V1.71h2.38c.84,0,1.53.67,1.53,1.5v11.77h-3.91v-1.57h-2.64v-3.03h2.64v-2.12h-2.64v-1.76h-1.46c.27.42.49.87.65,1.35.16.48.24.97.24,1.49,0,.81-.17,1.55-.5,2.23-.33.68-.78,1.26-1.33,1.74-.56.5-1.2.88-1.94,1.14-.74.27-1.5.4-2.29.4-.84,0-1.63-.13-2.37-.4-.74-.27-1.38-.64-1.94-1.12-.54-.5-.97-1.08-1.29-1.75-.32-.67-.49-1.42-.49-2.25,0-.53.08-1.03.23-1.5.15-.47.36-.91.63-1.34h-1.83v-2.81h5.2c.07-.22.12-.48.13-.77.02-.29,0-.57-.03-.83-.04-.17-.08-.34-.12-.51-.04-.17-.09-.34-.15-.51l3.75-1.05c.11.35.19.7.26,1.06.06.36.09.71.09,1.06-.02.28-.06.55-.12.81-.06.27-.15.51-.26.73h3.81c.84,0,1.53.67,1.53,1.5v.05Zm5.19,10.67c.53,0,.95.42.95.94v8.05c-.04.4-.19.69-.46.87-.27.17-.64.26-1.1.26h-11c-1.13,0-2.04-.24-2.72-.72-.68-.48-1.02-1.3-1.02-2.45v-6.95h2.95c.53,0,.95.42.95.94v1.13h8.49v-2.07h2.95Zm-10.45-8.3c-.43-.46-1.02-.69-1.78-.69s-1.35.23-1.79.69c-.44.46-.66,1.04-.66,1.74,0,.74.22,1.33.66,1.78.44.45,1.04.68,1.79.68s1.35-.22,1.78-.68c.43-.45.65-1.04.65-1.78s-.22-1.28-.65-1.74Zm7.49,15.44v-2.1h-8.49v1.32c0,.28.05.47.15.59.1.12.28.18.55.18h7.79Z"/>
        <path class="cls-2" d="m366.7,14.51h-3.91v-5.21h-3.21c-.38,1.42-1.17,2.5-2.37,3.25-1.2.75-2.55,1.13-4.04,1.13-.92,0-1.78-.12-2.59-.36-.81-.24-1.52-.61-2.13-1.1-.59-.51-1.06-1.15-1.41-1.92-.35-.76-.53-1.67-.53-2.72,0-.96.18-1.81.53-2.55s.83-1.37,1.44-1.89c.61-.51,1.32-.91,2.13-1.19.81-.28,1.66-.41,2.56-.41.77,0,1.52.11,2.24.32.72.21,1.37.52,1.94.92.57.4,1.07.9,1.48,1.48.41.58.7,1.24.86,1.97h3.1V1.71h2.38c.84,0,1.53.67,1.53,1.5v11.3Zm-11.43-9.03c-.49-.58-1.19-.87-2.1-.87s-1.59.29-2.09.87c-.49.58-.74,1.28-.74,2.11,0,.88.25,1.6.74,2.16.49.56,1.19.84,2.09.84s1.62-.28,2.1-.84c.49-.56.73-1.28.73-2.16,0-.83-.24-1.53-.73-2.11Zm10.39,10.27c.53,0,.95.42.95.94v8.19c-.04.4-.19.69-.46.87-.27.17-.64.26-1.1.26h-10.97c-1.13,0-2.04-.24-2.72-.72-.68-.48-1.02-1.3-1.02-2.45v-7.09h2.95c.53,0,.95.42.95.94v1.27h8.54v-2.21h2.87Zm-2.87,7.28v-2.1h-8.54v1.32c0,.28.05.47.15.59.1.12.28.18.55.18h7.84Z"/>
        <path class="cls-2" d="m368.88,17.4c1.06-.77,2.04-1.61,2.94-2.52.9-.91,1.69-1.82,2.37-2.74.68-.92,1.26-1.83,1.72-2.73.47-.9.81-1.74,1.02-2.51.05-.2.05-.39-.01-.58-.06-.18-.23-.28-.5-.28h-6.82v-3.12h9.43c1.01,0,1.64.3,1.9.91.26.61.34,1.38.23,2.32-.11.85-.36,1.76-.77,2.74-.4.98-.93,1.99-1.58,3.02.57.09,1.08.3,1.51.63s.84.73,1.21,1.19c.43.63.89,1.31,1.39,2.05.49.74.98,1.5,1.47,2.27l-2.64,2.07c-.56-.92-1.1-1.78-1.64-2.58-.54-.8-.98-1.42-1.32-1.86-.14-.15-.27-.29-.39-.44-.12-.15-.24-.28-.36-.41-.14-.11-.29-.21-.44-.3-.15-.09-.33-.17-.53-.22-.86,1.05-1.82,2.06-2.87,3.05-1.05.98-2.18,1.89-3.38,2.72l-1.94-2.67Zm16.63,6.87V1.99h2.36c.84,0,1.53.67,1.53,1.5v20.78h-3.88Z"/>
        <path class="cls-2" d="m391.98,11.78h6.85c.54,0,1.16-.01,1.86-.04.7-.03,1.42-.09,2.16-.18.74-.09,1.48-.22,2.22-.39.75-.17,1.44-.39,2.09-.66l.51,2.73c-.97.48-2.1.81-3.38.99-1.28.18-2.53.29-3.73.33v3.03h-3.91v-3.03h-4.66v-2.79Zm11.78-2.37c-1.1.86-2.62,1.3-4.58,1.3s-3.56-.44-4.64-1.31c-1.08-.87-1.62-2.03-1.62-3.46s.54-2.56,1.62-3.45c1.08-.88,2.62-1.32,4.64-1.32s3.49.44,4.58,1.32c1.1.88,1.64,2.03,1.64,3.45s-.55,2.61-1.64,3.47Zm-5.45,9.1c.53,0,.95.42.95.94v2.48c0,.28.05.47.15.58.1.11.29.17.58.17h6.52c1.04,0,2.04-.09,3-.28.64-.12,1.28-.27,1.9-.44.5-.14,1.03.13,1.17.63l.55,1.91c-.93.33-1.88.62-2.84.87-.96.25-2.13.37-3.52.37h-8.41c-.99,0-1.75-.24-2.28-.72-.53-.48-.79-1.14-.79-1.99v-4.52h3.01Zm2.69-14.01c-.44-.35-1.05-.52-1.82-.52s-1.41.18-1.85.52c-.44.35-.66.83-.66,1.43s.22,1.08.66,1.43c.44.35,1.06.52,1.85.52s1.38-.17,1.82-.52c.44-.35.66-.83.66-1.43s-.22-1.08-.66-1.43Zm11.2,15.14h-3.85v-1.88h-4.18v-2.7h4.18V1.71h2.33c.84,0,1.53.67,1.53,1.5v16.43Z"/>
        <path class="cls-2" d="m421.49,1.52c.32.66.53,1.22.62,1.68.09.46.13,1.01.13,1.65v.58c0,.48-.03.93-.08,1.37-.05.43-.13.84-.22,1.23.45.07.84.23,1.17.45.33.23.65.59.96,1.09.39.74.78,1.48,1.16,2.25.38.76.75,1.53,1.13,2.3l-2.72,1.65c-.45-.9-.86-1.71-1.23-2.43-.37-.72-.7-1.32-.98-1.82-.11-.15-.21-.28-.3-.4-.09-.12-.19-.23-.3-.34-.65,1.16-1.42,2.16-2.33,2.99-.91.84-1.79,1.53-2.65,2.08l-1.94-2.73c1.42-.99,2.55-2.1,3.38-3.32.84-1.22,1.25-2.65,1.25-4.29v-.63c0-.42-.03-.81-.09-1.16-.06-.35-.18-.69-.36-1.02l3.4-1.19Zm-1.79,23.61c-.49-.4-.74-1.14-.74-2.21v-6.09h2.95c.53,0,.95.42.95.94v4.19c0,.28.04.46.13.57.09.1.28.15.57.15h6.68c.77,0,1.63-.04,2.57-.11.63-.05,1.25-.16,1.87-.33.51-.14,1.04.15,1.17.65l.51,1.94c-1.33.46-2.45.73-3.37.8-.92.07-1.8.11-2.64.11h-8.3c-1.08,0-1.86-.2-2.36-.61Zm4.81-18.97h2.88V1.71h2.03c.84,0,1.53.67,1.53,1.5v14.28h-3.56v-8.22h-2.88v-3.12Zm11.59,11.61h-3.58V1.71h2.06c.84,0,1.53.67,1.53,1.5v14.55Z"/>
        <path class="cls-2" d="m453.15,18.56c-.38.2-.97.39-1.78.55-.81.17-1.72.3-2.72.41-.99.11-2.02.19-3.1.25-1.08.06-2.07.06-2.96.03-1.06-.02-1.91-.27-2.55-.76-.64-.49-.96-1.4-.96-2.74V2.92h10.57c.84,0,1.53.67,1.53,1.5v1.62h-8.19v3.31h6.68v3.12h-6.68v3.25c0,.28.07.5.22.68.14.17.35.26.62.26.54.04,1.25.03,2.13-.01.88-.05,1.77-.12,2.67-.23.88-.09,1.69-.2,2.44-.33.75-.13,1.26-.27,1.55-.41l.54,2.9Zm5.5,5.68h-3.91v-11.78h-3.83v-3.12h3.83V1.99h2.38c.84,0,1.53.67,1.53,1.5v20.76Z"/>
      </g>
      <g>
        <g>
          <path class="cls-2" d="m200.84,37.04h2.58c.25,0,.45.04.59.11.14.07.25.17.33.3.07.13.11.28.13.47.02.19.03.39.03.62v3.12c-.46.48-.97.78-1.52.91s-1.08.19-1.56.19c-1.53,0-2.7-.42-3.51-1.25-.81-.83-1.22-2.05-1.22-3.67s.39-2.89,1.18-3.78c.79-.89,1.97-1.34,3.55-1.34.65,0,1.19.07,1.61.2.25.08.5.17.75.27.31.13.49.47.39.79l-.29,1c-.43-.2-.84-.35-1.22-.47-.38-.11-.79-.17-1.21-.17-.95,0-1.65.31-2.11.94-.45.63-.68,1.48-.68,2.55,0,.46.05.89.16,1.29.1.4.27.75.49,1.05.22.3.51.53.86.7.35.17.76.26,1.24.26.16,0,.37-.02.62-.05.25-.04.46-.1.64-.2v-2.29h-1.83v-1.54Z"/>
          <path class="cls-2" d="m211.58,44.3c-.18.37-.42.67-.71.89-.29.23-.63.39-1.01.5-.38.11-.77.16-1.18.16-.37,0-.73,0-1.09-.02-.35-.01-.64-.03-.86-.05v-1.63c.36.04.69.06.98.06.29,0,.61,0,.97,0s.64-.1.89-.29c.26-.19.39-.55.39-1.06v-.79c-.21.22-.48.37-.82.47-.34.1-.64.15-.91.15-.76,0-1.37-.2-1.83-.59-.46-.39-.69-1.05-.69-1.96v-4.32h1.23c.37,0,.67.29.67.66v3.22c0,.52.07.89.22,1.11s.44.33.88.33c.32,0,.59-.1.82-.3.23-.2.37-.37.42-.53v-4.48h1.22c.37,0,.67.29.67.66v6.44c0,.53-.09.98-.27,1.35Z"/>
          <path class="cls-2" d="m217.41,41.03c.39-.08.76-.21,1.11-.39l.45,1.34c-.32.22-.71.39-1.17.53-.46.14-.92.2-1.37.2-.58,0-1.09-.05-1.52-.16-.44-.11-.8-.3-1.08-.57-.29-.27-.51-.63-.65-1.09-.14-.46-.21-1.03-.21-1.73,0-1.3.28-2.22.84-2.75.56-.53,1.37-.8,2.41-.8s1.73.22,2.21.66c.48.44.73,1.02.76,1.75,0,.38-.04.69-.16.93-.11.24-.28.44-.49.58-.22.14-.47.24-.76.29-.29.05-.61.07-.96.07h-1.92c0,.45.1.77.31.96.21.19.62.28,1.23.28.26,0,.59-.04.98-.12Zm-2.14-3.51c-.22.23-.33.53-.34.9h1.88c.18,0,.31-.05.38-.15.07-.1.1-.23.1-.39,0-.21-.1-.38-.28-.51-.18-.13-.44-.2-.78-.2-.41,0-.73.12-.95.35Z"/>
          <path class="cls-2" d="m225.52,36.47c.59.57.88,1.46.88,2.68s-.28,2.05-.84,2.66c-.56.61-1.36.91-2.4.91s-1.86-.3-2.42-.91c-.56-.61-.84-1.49-.84-2.66s.3-2.11.89-2.68c.59-.57,1.38-.85,2.37-.85s1.77.28,2.36.85Zm-3.4,4.17c.19.34.54.51,1.04.51s.84-.17,1.04-.51c.2-.34.3-.83.3-1.48s-.1-1.17-.29-1.48c-.19-.31-.54-.47-1.03-.47s-.86.16-1.06.47c-.19.31-.29.81-.29,1.48s.1,1.14.29,1.48Z"/>
          <path class="cls-2" d="m231.65,42.54v-4.51c0-.29-.05-.5-.15-.64-.1-.14-.26-.21-.49-.21-.28,0-.57.08-.88.24-.31.16-.56.34-.74.54v4.59h-1.89v-6.69h1.74l.1.47c.23-.19.5-.35.8-.49.3-.14.67-.21,1.11-.21.76,0,1.33.17,1.71.51.38.34.57.86.57,1.56v4.85h-1.89Z"/>
          <path class="cls-2" d="m238.65,43.94c.26-.19.39-.55.39-1.06v-.37c-.28.07-.55.12-.78.16-.24.03-.54.05-.91.05-.96,0-1.65-.29-2.07-.87-.42-.58-.63-1.45-.63-2.59,0-.49.03-.95.1-1.38s.2-.81.39-1.14c.19-.33.45-.6.78-.79.33-.19.77-.3,1.3-.32.53,0,.94.07,1.24.22.3.16.51.31.62.47l.12-.46h1.06c.37,0,.67.29.67.66v6.44c0,.53-.09.98-.27,1.35-.18.37-.42.67-.71.89-.29.23-.63.39-1.01.5-.38.11-.77.16-1.18.16-.37,0-.73,0-1.09-.02-.35-.01-.64-.03-.86-.05v-1.63c.36.04.69.06.98.06.29,0,.61,0,.97,0s.64-.1.89-.29Zm-.08-2.85c.23-.04.39-.07.47-.09v-2.99c-.1-.18-.27-.36-.49-.54-.22-.18-.5-.27-.84-.27-.32,0-.59.16-.82.49-.22.33-.34.81-.34,1.43s.09,1.13.26,1.49c.17.36.51.54,1,.54.27,0,.52-.02.75-.05Z"/>
          <path class="cls-2" d="m242.16,32.62h1.23c.37,0,.67.29.67.66v2.51c.28-.05.53-.1.76-.13.23-.03.53-.05.91-.05,1.01,0,1.72.3,2.13.91.41.61.62,1.48.62,2.62,0,.49-.05.94-.14,1.37-.1.42-.25.8-.45,1.12-.21.32-.48.57-.8.77-.33.19-.72.3-1.18.3-.54.02-.97-.05-1.3-.2-.33-.15-.55-.31-.65-.47l-.09.5h-1.69v-9.92Zm2.37,4.63c-.24.05-.4.08-.47.09v3.05c.1.19.27.36.49.51.22.15.51.23.86.23.31,0,.58-.17.81-.51.23-.34.34-.83.34-1.46,0-.24-.02-.48-.06-.72-.04-.23-.11-.45-.2-.64-.1-.18-.24-.33-.4-.45-.16-.12-.36-.18-.6-.18-.28,0-.53.02-.77.07Z"/>
          <path class="cls-2" d="m254.82,35.84c.37,0,.67.29.67.66v4.25c0,.14.02.25.06.33.04.07.12.11.24.11.05,0,.12,0,.2-.02s.18-.04.28-.07l.21,1.18c-.18.14-.38.24-.6.33-.22.08-.44.12-.67.12-.35,0-.64-.06-.85-.18-.21-.12-.37-.29-.47-.49-.29.23-.6.4-.93.54-.34.13-.7.2-1.09.2-.77,0-1.34-.17-1.72-.51s-.56-.86-.56-1.56v-4.85h1.23c.37,0,.67.29.67.66v3.86c0,.3.05.51.14.65.09.14.26.2.49.2.27,0,.53-.06.8-.19.26-.13.49-.28.69-.47v-4.7h1.23Z"/>
          <path class="cls-2" d="m258.92,40.55v1.99h-1.87v-9.9h1.2c.37,0,.67.29.67.66v4.94l2.31-2.38h2.27l-2.63,2.71c.34.14.6.33.8.6.19.26.39.56.58.91l1.35,2.48h-1.85l-.98-1.79c-.07-.12-.14-.23-.2-.34-.06-.11-.14-.21-.21-.3-.07-.09-.15-.17-.24-.24-.09-.07-.2-.14-.32-.19l-.86.87Z"/>
          <path class="cls-2" d="m269.67,42.54h-1.93v-9.63h1.26c.37,0,.67.29.67.66v8.98Z"/>
          <path class="cls-2" d="m275.44,42.54v-4.51c0-.29-.05-.5-.15-.64-.1-.14-.26-.21-.49-.21-.28,0-.57.08-.88.24-.31.16-.56.34-.74.54v4.59h-1.89v-6.69h1.74l.1.47c.23-.19.5-.35.8-.49.3-.14.67-.21,1.11-.21.76,0,1.33.17,1.71.51.38.34.57.86.57,1.56v4.85h-1.89Z"/>
          <path class="cls-2" d="m284.74,42.54h-1.68l-.09-.5c-.11.16-.33.32-.67.47-.33.15-.76.22-1.29.2-.47,0-.86-.11-1.19-.3-.33-.19-.6-.45-.8-.77-.21-.33-.36-.7-.45-1.12-.09-.42-.14-.88-.14-1.37,0-1.14.2-2.01.61-2.62.41-.61,1.12-.91,2.14-.91.37,0,.67.02.9.05.23.03.49.07.77.13v-3.17h1.23c.37,0,.67.29.67.66v9.26Zm-3.75-5.17c-.16.12-.29.27-.38.45-.1.19-.17.4-.21.64-.03.23-.05.47-.05.72,0,.63.11,1.12.34,1.46.22.34.5.51.82.51.34,0,.62-.08.85-.23.23-.15.4-.33.5-.51v-3.05c-.08-.02-.24-.05-.48-.09-.24-.05-.5-.07-.76-.07-.25,0-.46.06-.62.18Z"/>
          <path class="cls-2" d="m291.22,35.84c.37,0,.67.29.67.66v4.25c0,.14.02.25.06.33.04.07.12.11.24.11.05,0,.12,0,.2-.02s.18-.04.28-.07l.21,1.18c-.18.14-.38.24-.6.33-.22.08-.44.12-.67.12-.35,0-.64-.06-.85-.18-.21-.12-.37-.29-.47-.49-.29.23-.6.4-.93.54-.34.13-.7.2-1.09.2-.77,0-1.34-.17-1.72-.51s-.56-.86-.56-1.56v-4.85h1.23c.37,0,.67.29.67.66v3.86c0,.3.05.51.14.65.09.14.26.2.49.2.27,0,.53-.06.8-.19.26-.13.49-.28.69-.47v-4.7h1.23Z"/>
          <path class="cls-2" d="m296.96,41.02c.16-.06.25-.2.25-.42,0-.13-.05-.23-.16-.31-.1-.08-.23-.15-.39-.22-.16-.05-.3-.1-.44-.15-.14-.05-.28-.09-.41-.12-.14-.05-.28-.09-.43-.13-.15-.04-.3-.09-.45-.14-.49-.14-.85-.36-1.07-.66-.22-.31-.33-.73-.33-1.26,0-.41.08-.74.23-1s.36-.46.62-.6c.27-.15.58-.26.93-.31.35-.05.73-.08,1.14-.08.17,0,.37.02.58.05.22.03.43.07.65.13.22.05.42.12.62.18.2.07.37.14.52.21l-.3,1.5c-.36-.14-.75-.26-1.16-.35-.41-.09-.8-.14-1.16-.14-.31,0-.52.03-.64.1-.11.07-.17.18-.17.35s.06.28.19.35.32.15.58.23c.36.13.7.25,1.02.36.32.11.67.25,1.06.4.34.14.58.35.73.64.15.29.22.6.22.92,0,.41-.08.75-.25,1.02-.16.28-.38.5-.66.67-.27.16-.58.28-.93.35s-.71.11-1.08.11c-.13,0-.25,0-.37,0-.12,0-.23-.02-.33-.03-.45-.05-.86-.13-1.24-.24-.38-.12-.72-.27-1.02-.46l.35-1.49c.19.1.4.19.62.26.22.08.45.15.67.21.22.05.44.1.65.13.21.03.38.05.53.05.38,0,.65-.03.82-.09Z"/>
          <path class="cls-2" d="m302.54,37.29v3.41c0,.17.03.29.1.35.07.06.16.09.29.09.11,0,.24-.02.38-.07.14-.05.29-.11.45-.2l.44,1.15c-.17.18-.43.34-.77.47-.34.14-.69.2-1.04.2-.64,0-1.08-.16-1.34-.48-.25-.32-.38-.77-.38-1.33v-3.6h-1.02v-1.54h1.02v-2.21l1.06-.22c.41-.08.8.23.8.64v1.78h1.45v1.54h-1.45Z"/>
          <path class="cls-2" d="m305.3,42.54v-6.69h1.72l.1.5c.21-.23.45-.41.72-.53.27-.12.55-.18.82-.18.16,0,.33.02.54.07.2.05.4.13.58.26v1.63c-.28-.12-.52-.21-.74-.26-.22-.06-.42-.09-.62-.09-.24,0-.47.05-.67.14-.21.08-.39.21-.56.39v4.77h-1.89Z"/>
          <path class="cls-2" d="m316.23,44.3c-.18.37-.42.67-.71.89-.29.23-.63.39-1.01.5-.38.11-.77.16-1.18.16-.37,0-.73,0-1.09-.02-.35-.01-.64-.03-.86-.05v-1.63c.36.04.69.06.98.06.29,0,.61,0,.97,0s.64-.1.89-.29c.26-.19.39-.55.39-1.06v-.79c-.21.22-.48.37-.82.47-.34.1-.64.15-.91.15-.76,0-1.37-.2-1.83-.59-.46-.39-.69-1.05-.69-1.96v-4.32h1.23c.37,0,.67.29.67.66v3.22c0,.52.07.89.22,1.11s.44.33.88.33c.32,0,.59-.1.82-.3.23-.2.37-.37.42-.53v-4.48h1.22c.37,0,.67.29.67.66v6.44c0,.53-.09.98-.27,1.35Z"/>
          <path class="cls-2" d="m325.91,33.16c.57.17,1.05.44,1.43.81.39.37.68.86.88,1.46.19.6.29,1.33.29,2.2,0,.92-.09,1.69-.27,2.32-.18.62-.46,1.13-.84,1.52-.37.39-.85.67-1.43.83-.58.17-1.26.25-2.05.25h-.99c-.67,0-1.15-.14-1.45-.41-.3-.27-.45-.76-.45-1.46v-5.89c0-.7.15-1.18.45-1.46.3-.28.78-.41,1.45-.41h1c.75,0,1.41.08,1.98.25Zm.01,7.08c.39-.51.58-1.37.58-2.6,0-.62-.05-1.14-.14-1.54-.1-.41-.24-.73-.44-.98-.21-.24-.47-.42-.8-.51-.32-.1-.72-.15-1.19-.15h-.36c-.25,0-.42.05-.5.16-.08.1-.12.26-.12.47v5.3c0,.22.04.37.12.47.08.1.25.15.5.15h.36c.93,0,1.59-.25,1.98-.76Z"/>
          <path class="cls-2" d="m329.21,42.54l2.98-4.82-2.98-4.81h2.2l1.88,3.03,1.88-3.03h2.2l-2.98,4.81,2.98,4.82h-2.19l-1.89-3.05-1.89,3.05h-2.19Z"/>
          <path class="cls-2" d="m348.7,42.06c-.37.23-.78.4-1.24.51s-.98.17-1.57.17c-1.53,0-2.68-.44-3.45-1.31-.77-.87-1.16-2.08-1.16-3.62,0-1.63.38-2.88,1.15-3.77.77-.89,1.92-1.33,3.46-1.33.36,0,.68.02.94.05.26.04.5.09.72.15.22.05.41.12.6.21.18.09.38.18.58.28l-.45,1.57c-.39-.2-.77-.35-1.15-.47-.38-.11-.78-.17-1.2-.17-.89,0-1.56.32-2,.95-.45.63-.67,1.48-.67,2.53s.25,1.87.75,2.45c.5.57,1.13.86,1.89.86.36,0,.76-.05,1.19-.16.43-.1.83-.26,1.19-.47l.43,1.57Z"/>
          <path class="cls-2" d="m355.05,36.47c.59.57.88,1.46.88,2.68s-.28,2.05-.84,2.66c-.56.61-1.36.91-2.4.91s-1.86-.3-2.42-.91c-.56-.61-.84-1.49-.84-2.66s.3-2.11.89-2.68c.59-.57,1.38-.85,2.37-.85s1.77.28,2.36.85Zm-3.4,4.17c.19.34.54.51,1.04.51s.84-.17,1.04-.51c.2-.34.3-.83.3-1.48s-.1-1.17-.29-1.48c-.19-.31-.54-.47-1.03-.47s-.86.16-1.06.47c-.19.31-.29.81-.29,1.48s.1,1.14.29,1.48Z"/>
          <path class="cls-2" d="m362.38,36.47c.59.57.88,1.46.88,2.68s-.28,2.05-.84,2.66c-.56.61-1.36.91-2.4.91s-1.86-.3-2.42-.91c-.56-.61-.84-1.49-.84-2.66s.3-2.11.89-2.68c.59-.57,1.38-.85,2.37-.85s1.77.28,2.36.85Zm-3.4,4.17c.19.34.54.51,1.04.51s.84-.17,1.04-.51c.2-.34.3-.83.3-1.48s-.1-1.17-.29-1.48c-.19-.31-.54-.47-1.03-.47s-.86.16-1.06.47c-.19.31-.29.81-.29,1.48s.1,1.14.29,1.48Z"/>
          <path class="cls-2" d="m364.37,35.84h1.72l.12.46c.1-.15.31-.31.61-.47.3-.16.72-.23,1.26-.22.53.02.96.12,1.29.32.33.19.59.46.78.79.19.33.32.7.4,1.14.07.43.11.89.11,1.38,0,1.15-.21,2.01-.63,2.59-.42.58-1.11.87-2.07.87-.38,0-.69-.02-.93-.05-.24-.03-.49-.08-.77-.16v2.75h-1.89v-9.42Zm4.11,4.76c.17-.36.26-.86.26-1.49s-.11-1.1-.34-1.43c-.23-.33-.5-.49-.81-.49-.35,0-.63.09-.84.27-.22.18-.38.36-.48.54v2.99c.08.03.23.06.46.09.23.04.48.05.76.05.49,0,.83-.18,1-.54Z"/>
          <path class="cls-2" d="m376.08,41.03c.39-.08.76-.21,1.11-.39l.45,1.34c-.32.22-.71.39-1.17.53-.46.14-.92.2-1.37.2-.58,0-1.09-.05-1.52-.16-.44-.11-.8-.3-1.08-.57-.29-.27-.51-.63-.65-1.09-.14-.46-.21-1.03-.21-1.73,0-1.3.28-2.22.84-2.75.56-.53,1.37-.8,2.41-.8s1.73.22,2.21.66c.48.44.73,1.02.76,1.75,0,.38-.04.69-.16.93-.11.24-.28.44-.49.58-.22.14-.47.24-.76.29-.29.05-.61.07-.96.07h-1.92c0,.45.1.77.31.96.21.19.62.28,1.23.28.26,0,.59-.04.98-.12Zm-2.14-3.51c-.22.23-.33.53-.34.9h1.88c.18,0,.31-.05.38-.15.07-.1.1-.23.1-.39,0-.21-.1-.38-.28-.51-.18-.13-.44-.2-.78-.2-.41,0-.73.12-.95.35Z"/>
          <path class="cls-2" d="m378.96,42.54v-6.69h1.72l.1.5c.21-.23.45-.41.72-.53.27-.12.55-.18.82-.18.16,0,.33.02.54.07.2.05.4.13.58.26v1.63c-.28-.12-.52-.21-.74-.26-.22-.06-.42-.09-.62-.09-.24,0-.47.05-.67.14-.21.08-.39.21-.56.39v4.77h-1.89Z"/>
          <path class="cls-2" d="m389.76,40.68c0,.15.01.28.05.37.03.09.12.14.28.14.08,0,.16,0,.23-.03.08-.02.16-.05.26-.08l.19,1.19c-.16.13-.35.23-.6.32-.24.09-.48.13-.71.13-.27,0-.51-.05-.73-.14-.22-.09-.39-.23-.52-.42-.28.17-.59.31-.95.41-.35.1-.76.15-1.22.15-.8,0-1.37-.21-1.7-.62-.33-.41-.5-.91-.5-1.51,0-.8.16-1.36.52-1.67.35-.31.9-.51,1.63-.59.17-.02.34-.03.49-.04.16,0,.31-.02.45-.03.16,0,.31-.01.45-.01s.3,0,.47-.01v-.27c0-.24-.08-.43-.23-.56-.15-.13-.41-.2-.77-.2-.21,0-.4.01-.58.03-.18.02-.35.05-.52.09-.17.03-.35.06-.52.11-.18.05-.37.09-.56.14l-.26-1.5c.28-.07.52-.14.73-.19.21-.05.4-.09.57-.12.18-.04.36-.06.54-.08.18-.02.38-.03.6-.03.54,0,1,.04,1.37.12.37.08.67.21.89.39.22.17.39.4.49.68.1.28.15.62.15,1.03v2.83Zm-1.89-1.02c-.31,0-.6.02-.86.04-.26.02-.53.04-.78.07-.24.04-.39.14-.45.3-.06.16-.09.33-.08.49,0,.17.04.32.12.45.08.13.27.19.58.19.23,0,.47-.03.71-.09.24-.06.49-.22.77-.46v-.98Z"/>
          <path class="cls-2" d="m393.86,37.29v3.41c0,.17.03.29.1.35.07.06.16.09.29.09.11,0,.24-.02.38-.07.14-.05.29-.11.45-.2l.44,1.15c-.17.18-.43.34-.77.47-.34.14-.69.2-1.04.2-.64,0-1.08-.16-1.34-.48-.25-.32-.38-.77-.38-1.33v-3.6h-1.02v-1.54h1.02v-2.21l1.06-.22c.41-.08.8.23.8.64v1.78h1.45v1.54h-1.45Z"/>
          <path class="cls-2" d="m399.66,41.09c.14-.05.29-.11.44-.2l.44,1.15c-.17.18-.43.34-.76.47-.34.14-.68.2-1.04.2-.64,0-1.08-.16-1.34-.48-.25-.32-.38-.77-.38-1.33v-3.55h-.67v-1.5h1.9c.37,0,.67.29.67.66v4.21c0,.17.03.29.09.35.06.06.15.09.27.09.11,0,.24-.02.38-.07Zm-2.76-6.39v-1.94h1.35c.37,0,.67.29.67.66v1.28h-2.02Z"/>
          <path class="cls-2" d="m406.61,36.47c.59.57.88,1.46.88,2.68s-.28,2.05-.84,2.66c-.56.61-1.36.91-2.4.91s-1.86-.3-2.42-.91c-.56-.61-.84-1.49-.84-2.66s.3-2.11.89-2.68c.59-.57,1.38-.85,2.37-.85s1.77.28,2.36.85Zm-3.4,4.17c.19.34.54.51,1.04.51s.84-.17,1.04-.51c.2-.34.3-.83.3-1.48s-.1-1.17-.29-1.48c-.19-.31-.54-.47-1.03-.47s-.86.16-1.06.47c-.19.31-.29.81-.29,1.48s.1,1.14.29,1.48Z"/>
          <path class="cls-2" d="m412.74,42.54v-4.51c0-.29-.05-.5-.15-.64-.1-.14-.26-.21-.49-.21-.28,0-.57.08-.88.24-.31.16-.56.34-.74.54v4.59h-1.89v-6.69h1.74l.1.47c.23-.19.5-.35.8-.49.3-.14.67-.21,1.11-.21.76,0,1.33.17,1.71.51.38.34.57.86.57,1.56v4.85h-1.89Z"/>
          <path class="cls-2" d="m426.47,42.06c-.37.23-.78.4-1.24.51s-.98.17-1.57.17c-1.53,0-2.68-.44-3.45-1.31-.77-.87-1.16-2.08-1.16-3.62,0-1.63.38-2.88,1.15-3.77.77-.89,1.92-1.33,3.46-1.33.36,0,.68.02.94.05.26.04.5.09.72.15.22.05.41.12.6.21.18.09.38.18.58.28l-.45,1.57c-.39-.2-.77-.35-1.15-.47-.38-.11-.78-.17-1.2-.17-.89,0-1.56.32-2,.95-.45.63-.67,1.48-.67,2.53s.25,1.87.75,2.45c.5.57,1.13.86,1.89.86.36,0,.76-.05,1.19-.16.43-.1.83-.26,1.19-.47l.43,1.57Z"/>
          <path class="cls-2" d="m431.66,41.03c.39-.08.76-.21,1.11-.39l.45,1.34c-.32.22-.71.39-1.17.53-.46.14-.92.2-1.37.2-.58,0-1.09-.05-1.52-.16-.44-.11-.8-.3-1.08-.57-.29-.27-.51-.63-.65-1.09-.14-.46-.21-1.03-.21-1.73,0-1.3.28-2.22.84-2.75.56-.53,1.37-.8,2.41-.8s1.73.22,2.21.66c.48.44.73,1.02.76,1.75,0,.38-.04.69-.16.93-.11.24-.28.44-.49.58-.22.14-.47.24-.76.29-.29.05-.61.07-.96.07h-1.92c0,.45.1.77.31.96.21.19.62.28,1.23.28.26,0,.59-.04.98-.12Zm-2.14-3.51c-.22.23-.33.53-.34.9h1.88c.18,0,.31-.05.38-.15.07-.1.1-.23.1-.39,0-.21-.1-.38-.28-.51-.18-.13-.44-.2-.78-.2-.41,0-.73.12-.95.35Z"/>
          <path class="cls-2" d="m438.69,42.54v-4.51c0-.29-.05-.5-.15-.64-.1-.14-.26-.21-.49-.21-.28,0-.57.08-.88.24-.31.16-.56.34-.74.54v4.59h-1.89v-6.69h1.74l.1.47c.23-.19.5-.35.8-.49.3-.14.67-.21,1.11-.21.76,0,1.33.17,1.71.51.38.34.57.86.57,1.56v4.85h-1.89Z"/>
          <path class="cls-2" d="m444.45,37.29v3.41c0,.17.03.29.1.35.07.06.16.09.29.09.11,0,.24-.02.38-.07.14-.05.29-.11.45-.2l.44,1.15c-.17.18-.43.34-.77.47-.34.14-.69.2-1.04.2-.64,0-1.08-.16-1.34-.48-.25-.32-.38-.77-.38-1.33v-3.6h-1.02v-1.54h1.02v-2.21l1.06-.22c.41-.08.8.23.8.64v1.78h1.45v1.54h-1.45Z"/>
          <path class="cls-2" d="m451.33,41.03c.39-.08.76-.21,1.11-.39l.45,1.34c-.32.22-.71.39-1.17.53-.46.14-.92.2-1.37.2-.58,0-1.09-.05-1.52-.16-.44-.11-.8-.3-1.08-.57-.29-.27-.51-.63-.65-1.09-.14-.46-.21-1.03-.21-1.73,0-1.3.28-2.22.84-2.75.56-.53,1.37-.8,2.41-.8s1.73.22,2.21.66c.48.44.73,1.02.76,1.75,0,.38-.04.69-.16.93-.11.24-.28.44-.49.58-.22.14-.47.24-.76.29-.29.05-.61.07-.96.07h-1.92c0,.45.1.77.31.96.21.19.62.28,1.23.28.26,0,.59-.04.98-.12Zm-2.14-3.51c-.22.23-.33.53-.34.9h1.88c.18,0,.31-.05.38-.15.07-.1.1-.23.1-.39,0-.21-.1-.38-.28-.51-.18-.13-.44-.2-.78-.2-.41,0-.73.12-.95.35Z"/>
          <path class="cls-2" d="m454.22,42.54v-6.69h1.72l.1.5c.21-.23.45-.41.72-.53.27-.12.55-.18.82-.18.16,0,.33.02.54.07.2.05.4.13.58.26v1.63c-.28-.12-.52-.21-.74-.26-.22-.06-.42-.09-.62-.09-.24,0-.47.05-.67.14-.21.08-.39.21-.56.39v4.77h-1.89Z"/>
        </g>
        <g>
          <path class="cls-5" d="m200.84,37.04h2.58c.25,0,.45.04.59.11.14.07.25.17.33.3.07.13.11.28.13.47.02.19.03.39.03.62v3.12c-.46.48-.97.78-1.52.91s-1.08.19-1.56.19c-1.53,0-2.7-.42-3.51-1.25-.81-.83-1.22-2.05-1.22-3.67s.39-2.89,1.18-3.78c.79-.89,1.97-1.34,3.55-1.34.65,0,1.19.07,1.61.2.25.08.5.17.75.27.31.13.49.47.39.79l-.29,1c-.43-.2-.84-.35-1.22-.47-.38-.11-.79-.17-1.21-.17-.95,0-1.65.31-2.11.94-.45.63-.68,1.48-.68,2.55,0,.46.05.89.16,1.29.1.4.27.75.49,1.05.22.3.51.53.86.7.35.17.76.26,1.24.26.16,0,.37-.02.62-.05.25-.04.46-.1.64-.2v-2.29h-1.83v-1.54Z"/>
          <path class="cls-5" d="m211.58,44.3c-.18.37-.42.67-.71.89-.29.23-.63.39-1.01.5-.38.11-.77.16-1.18.16-.37,0-.73,0-1.09-.02-.35-.01-.64-.03-.86-.05v-1.63c.36.04.69.06.98.06.29,0,.61,0,.97,0s.64-.1.89-.29c.26-.19.39-.55.39-1.06v-.79c-.21.22-.48.37-.82.47-.34.1-.64.15-.91.15-.76,0-1.37-.2-1.83-.59-.46-.39-.69-1.05-.69-1.96v-4.32h1.23c.37,0,.67.29.67.66v3.22c0,.52.07.89.22,1.11s.44.33.88.33c.32,0,.59-.1.82-.3.23-.2.37-.37.42-.53v-4.48h1.22c.37,0,.67.29.67.66v6.44c0,.53-.09.98-.27,1.35Z"/>
          <path class="cls-5" d="m217.41,41.03c.39-.08.76-.21,1.11-.39l.45,1.34c-.32.22-.71.39-1.17.53-.46.14-.92.2-1.37.2-.58,0-1.09-.05-1.52-.16-.44-.11-.8-.3-1.08-.57-.29-.27-.51-.63-.65-1.09-.14-.46-.21-1.03-.21-1.73,0-1.3.28-2.22.84-2.75.56-.53,1.37-.8,2.41-.8s1.73.22,2.21.66c.48.44.73,1.02.76,1.75,0,.38-.04.69-.16.93-.11.24-.28.44-.49.58-.22.14-.47.24-.76.29-.29.05-.61.07-.96.07h-1.92c0,.45.1.77.31.96.21.19.62.28,1.23.28.26,0,.59-.04.98-.12Zm-2.14-3.51c-.22.23-.33.53-.34.9h1.88c.18,0,.31-.05.38-.15.07-.1.1-.23.1-.39,0-.21-.1-.38-.28-.51-.18-.13-.44-.2-.78-.2-.41,0-.73.12-.95.35Z"/>
          <path class="cls-5" d="m225.52,36.47c.59.57.88,1.46.88,2.68s-.28,2.05-.84,2.66c-.56.61-1.36.91-2.4.91s-1.86-.3-2.42-.91c-.56-.61-.84-1.49-.84-2.66s.3-2.11.89-2.68c.59-.57,1.38-.85,2.37-.85s1.77.28,2.36.85Zm-3.4,4.17c.19.34.54.51,1.04.51s.84-.17,1.04-.51c.2-.34.3-.83.3-1.48s-.1-1.17-.29-1.48c-.19-.31-.54-.47-1.03-.47s-.86.16-1.06.47c-.19.31-.29.81-.29,1.48s.1,1.14.29,1.48Z"/>
          <path class="cls-5" d="m231.65,42.54v-4.51c0-.29-.05-.5-.15-.64-.1-.14-.26-.21-.49-.21-.28,0-.57.08-.88.24-.31.16-.56.34-.74.54v4.59h-1.89v-6.69h1.74l.1.47c.23-.19.5-.35.8-.49.3-.14.67-.21,1.11-.21.76,0,1.33.17,1.71.51.38.34.57.86.57,1.56v4.85h-1.89Z"/>
          <path class="cls-5" d="m238.65,43.94c.26-.19.39-.55.39-1.06v-.37c-.28.07-.55.12-.78.16-.24.03-.54.05-.91.05-.96,0-1.65-.29-2.07-.87-.42-.58-.63-1.45-.63-2.59,0-.49.03-.95.1-1.38s.2-.81.39-1.14c.19-.33.45-.6.78-.79.33-.19.77-.3,1.3-.32.53,0,.94.07,1.24.22.3.16.51.31.62.47l.12-.46h1.06c.37,0,.67.29.67.66v6.44c0,.53-.09.98-.27,1.35-.18.37-.42.67-.71.89-.29.23-.63.39-1.01.5-.38.11-.77.16-1.18.16-.37,0-.73,0-1.09-.02-.35-.01-.64-.03-.86-.05v-1.63c.36.04.69.06.98.06.29,0,.61,0,.97,0s.64-.1.89-.29Zm-.08-2.85c.23-.04.39-.07.47-.09v-2.99c-.1-.18-.27-.36-.49-.54-.22-.18-.5-.27-.84-.27-.32,0-.59.16-.82.49-.22.33-.34.81-.34,1.43s.09,1.13.26,1.49c.17.36.51.54,1,.54.27,0,.52-.02.75-.05Z"/>
          <path class="cls-5" d="m242.16,32.62h1.23c.37,0,.67.29.67.66v2.51c.28-.05.53-.1.76-.13.23-.03.53-.05.91-.05,1.01,0,1.72.3,2.13.91.41.61.62,1.48.62,2.62,0,.49-.05.94-.14,1.37-.1.42-.25.8-.45,1.12-.21.32-.48.57-.8.77-.33.19-.72.3-1.18.3-.54.02-.97-.05-1.3-.2-.33-.15-.55-.31-.65-.47l-.09.5h-1.69v-9.92Zm2.37,4.63c-.24.05-.4.08-.47.09v3.05c.1.19.27.36.49.51.22.15.51.23.86.23.31,0,.58-.17.81-.51.23-.34.34-.83.34-1.46,0-.24-.02-.48-.06-.72-.04-.23-.11-.45-.2-.64-.1-.18-.24-.33-.4-.45-.16-.12-.36-.18-.6-.18-.28,0-.53.02-.77.07Z"/>
          <path class="cls-5" d="m254.82,35.84c.37,0,.67.29.67.66v4.25c0,.14.02.25.06.33.04.07.12.11.24.11.05,0,.12,0,.2-.02s.18-.04.28-.07l.21,1.18c-.18.14-.38.24-.6.33-.22.08-.44.12-.67.12-.35,0-.64-.06-.85-.18-.21-.12-.37-.29-.47-.49-.29.23-.6.4-.93.54-.34.13-.7.2-1.09.2-.77,0-1.34-.17-1.72-.51s-.56-.86-.56-1.56v-4.85h1.23c.37,0,.67.29.67.66v3.86c0,.3.05.51.14.65.09.14.26.2.49.2.27,0,.53-.06.8-.19.26-.13.49-.28.69-.47v-4.7h1.23Z"/>
          <path class="cls-5" d="m258.92,40.55v1.99h-1.87v-9.9h1.2c.37,0,.67.29.67.66v4.94l2.31-2.38h2.27l-2.63,2.71c.34.14.6.33.8.6.19.26.39.56.58.91l1.35,2.48h-1.85l-.98-1.79c-.07-.12-.14-.23-.2-.34-.06-.11-.14-.21-.21-.3-.07-.09-.15-.17-.24-.24-.09-.07-.2-.14-.32-.19l-.86.87Z"/>
          <path class="cls-5" d="m269.67,42.54h-1.93v-9.63h1.26c.37,0,.67.29.67.66v8.98Z"/>
          <path class="cls-5" d="m275.44,42.54v-4.51c0-.29-.05-.5-.15-.64-.1-.14-.26-.21-.49-.21-.28,0-.57.08-.88.24-.31.16-.56.34-.74.54v4.59h-1.89v-6.69h1.74l.1.47c.23-.19.5-.35.8-.49.3-.14.67-.21,1.11-.21.76,0,1.33.17,1.71.51.38.34.57.86.57,1.56v4.85h-1.89Z"/>
          <path class="cls-5" d="m284.74,42.54h-1.68l-.09-.5c-.11.16-.33.32-.67.47-.33.15-.76.22-1.29.2-.47,0-.86-.11-1.19-.3-.33-.19-.6-.45-.8-.77-.21-.33-.36-.7-.45-1.12-.09-.42-.14-.88-.14-1.37,0-1.14.2-2.01.61-2.62.41-.61,1.12-.91,2.14-.91.37,0,.67.02.9.05.23.03.49.07.77.13v-3.17h1.23c.37,0,.67.29.67.66v9.26Zm-3.75-5.17c-.16.12-.29.27-.38.45-.1.19-.17.4-.21.64-.03.23-.05.47-.05.72,0,.63.11,1.12.34,1.46.22.34.5.51.82.51.34,0,.62-.08.85-.23.23-.15.4-.33.5-.51v-3.05c-.08-.02-.24-.05-.48-.09-.24-.05-.5-.07-.76-.07-.25,0-.46.06-.62.18Z"/>
          <path class="cls-5" d="m291.22,35.84c.37,0,.67.29.67.66v4.25c0,.14.02.25.06.33.04.07.12.11.24.11.05,0,.12,0,.2-.02s.18-.04.28-.07l.21,1.18c-.18.14-.38.24-.6.33-.22.08-.44.12-.67.12-.35,0-.64-.06-.85-.18-.21-.12-.37-.29-.47-.49-.29.23-.6.4-.93.54-.34.13-.7.2-1.09.2-.77,0-1.34-.17-1.72-.51s-.56-.86-.56-1.56v-4.85h1.23c.37,0,.67.29.67.66v3.86c0,.3.05.51.14.65.09.14.26.2.49.2.27,0,.53-.06.8-.19.26-.13.49-.28.69-.47v-4.7h1.23Z"/>
          <path class="cls-5" d="m296.96,41.02c.16-.06.25-.2.25-.42,0-.13-.05-.23-.16-.31-.1-.08-.23-.15-.39-.22-.16-.05-.3-.1-.44-.15-.14-.05-.28-.09-.41-.12-.14-.05-.28-.09-.43-.13-.15-.04-.3-.09-.45-.14-.49-.14-.85-.36-1.07-.66-.22-.31-.33-.73-.33-1.26,0-.41.08-.74.23-1s.36-.46.62-.6c.27-.15.58-.26.93-.31.35-.05.73-.08,1.14-.08.17,0,.37.02.58.05.22.03.43.07.65.13.22.05.42.12.62.18.2.07.37.14.52.21l-.3,1.5c-.36-.14-.75-.26-1.16-.35-.41-.09-.8-.14-1.16-.14-.31,0-.52.03-.64.1-.11.07-.17.18-.17.35s.06.28.19.35.32.15.58.23c.36.13.7.25,1.02.36.32.11.67.25,1.06.4.34.14.58.35.73.64.15.29.22.6.22.92,0,.41-.08.75-.25,1.02-.16.28-.38.5-.66.67-.27.16-.58.28-.93.35s-.71.11-1.08.11c-.13,0-.25,0-.37,0-.12,0-.23-.02-.33-.03-.45-.05-.86-.13-1.24-.24-.38-.12-.72-.27-1.02-.46l.35-1.49c.19.1.4.19.62.26.22.08.45.15.67.21.22.05.44.1.65.13.21.03.38.05.53.05.38,0,.65-.03.82-.09Z"/>
          <path class="cls-5" d="m302.54,37.29v3.41c0,.17.03.29.1.35.07.06.16.09.29.09.11,0,.24-.02.38-.07.14-.05.29-.11.45-.2l.44,1.15c-.17.18-.43.34-.77.47-.34.14-.69.2-1.04.2-.64,0-1.08-.16-1.34-.48-.25-.32-.38-.77-.38-1.33v-3.6h-1.02v-1.54h1.02v-2.21l1.06-.22c.41-.08.8.23.8.64v1.78h1.45v1.54h-1.45Z"/>
          <path class="cls-5" d="m305.3,42.54v-6.69h1.72l.1.5c.21-.23.45-.41.72-.53.27-.12.55-.18.82-.18.16,0,.33.02.54.07.2.05.4.13.58.26v1.63c-.28-.12-.52-.21-.74-.26-.22-.06-.42-.09-.62-.09-.24,0-.47.05-.67.14-.21.08-.39.21-.56.39v4.77h-1.89Z"/>
          <path class="cls-5" d="m316.23,44.3c-.18.37-.42.67-.71.89-.29.23-.63.39-1.01.5-.38.11-.77.16-1.18.16-.37,0-.73,0-1.09-.02-.35-.01-.64-.03-.86-.05v-1.63c.36.04.69.06.98.06.29,0,.61,0,.97,0s.64-.1.89-.29c.26-.19.39-.55.39-1.06v-.79c-.21.22-.48.37-.82.47-.34.1-.64.15-.91.15-.76,0-1.37-.2-1.83-.59-.46-.39-.69-1.05-.69-1.96v-4.32h1.23c.37,0,.67.29.67.66v3.22c0,.52.07.89.22,1.11s.44.33.88.33c.32,0,.59-.1.82-.3.23-.2.37-.37.42-.53v-4.48h1.22c.37,0,.67.29.67.66v6.44c0,.53-.09.98-.27,1.35Z"/>
          <path class="cls-5" d="m325.91,33.16c.57.17,1.05.44,1.43.81.39.37.68.86.88,1.46.19.6.29,1.33.29,2.2,0,.92-.09,1.69-.27,2.32-.18.62-.46,1.13-.84,1.52-.37.39-.85.67-1.43.83-.58.17-1.26.25-2.05.25h-.99c-.67,0-1.15-.14-1.45-.41-.3-.27-.45-.76-.45-1.46v-5.89c0-.7.15-1.18.45-1.46.3-.28.78-.41,1.45-.41h1c.75,0,1.41.08,1.98.25Zm.01,7.08c.39-.51.58-1.37.58-2.6,0-.62-.05-1.14-.14-1.54-.1-.41-.24-.73-.44-.98-.21-.24-.47-.42-.8-.51-.32-.1-.72-.15-1.19-.15h-.36c-.25,0-.42.05-.5.16-.08.1-.12.26-.12.47v5.3c0,.22.04.37.12.47.08.1.25.15.5.15h.36c.93,0,1.59-.25,1.98-.76Z"/>
          <path class="cls-5" d="m329.21,42.54l2.98-4.82-2.98-4.81h2.2l1.88,3.03,1.88-3.03h2.2l-2.98,4.81,2.98,4.82h-2.19l-1.89-3.05-1.89,3.05h-2.19Z"/>
          <path class="cls-5" d="m348.7,42.06c-.37.23-.78.4-1.24.51s-.98.17-1.57.17c-1.53,0-2.68-.44-3.45-1.31-.77-.87-1.16-2.08-1.16-3.62,0-1.63.38-2.88,1.15-3.77.77-.89,1.92-1.33,3.46-1.33.36,0,.68.02.94.05.26.04.5.09.72.15.22.05.41.12.6.21.18.09.38.18.58.28l-.45,1.57c-.39-.2-.77-.35-1.15-.47-.38-.11-.78-.17-1.2-.17-.89,0-1.56.32-2,.95-.45.63-.67,1.48-.67,2.53s.25,1.87.75,2.45c.5.57,1.13.86,1.89.86.36,0,.76-.05,1.19-.16.43-.1.83-.26,1.19-.47l.43,1.57Z"/>
          <path class="cls-5" d="m355.05,36.47c.59.57.88,1.46.88,2.68s-.28,2.05-.84,2.66c-.56.61-1.36.91-2.4.91s-1.86-.3-2.42-.91c-.56-.61-.84-1.49-.84-2.66s.3-2.11.89-2.68c.59-.57,1.38-.85,2.37-.85s1.77.28,2.36.85Zm-3.4,4.17c.19.34.54.51,1.04.51s.84-.17,1.04-.51c.2-.34.3-.83.3-1.48s-.1-1.17-.29-1.48c-.19-.31-.54-.47-1.03-.47s-.86.16-1.06.47c-.19.31-.29.81-.29,1.48s.1,1.14.29,1.48Z"/>
          <path class="cls-5" d="m362.38,36.47c.59.57.88,1.46.88,2.68s-.28,2.05-.84,2.66c-.56.61-1.36.91-2.4.91s-1.86-.3-2.42-.91c-.56-.61-.84-1.49-.84-2.66s.3-2.11.89-2.68c.59-.57,1.38-.85,2.37-.85s1.77.28,2.36.85Zm-3.4,4.17c.19.34.54.51,1.04.51s.84-.17,1.04-.51c.2-.34.3-.83.3-1.48s-.1-1.17-.29-1.48c-.19-.31-.54-.47-1.03-.47s-.86.16-1.06.47c-.19.31-.29.81-.29,1.48s.1,1.14.29,1.48Z"/>
          <path class="cls-5" d="m364.37,35.84h1.72l.12.46c.1-.15.31-.31.61-.47.3-.16.72-.23,1.26-.22.53.02.96.12,1.29.32.33.19.59.46.78.79.19.33.32.7.4,1.14.07.43.11.89.11,1.38,0,1.15-.21,2.01-.63,2.59-.42.58-1.11.87-2.07.87-.38,0-.69-.02-.93-.05-.24-.03-.49-.08-.77-.16v2.75h-1.89v-9.42Zm4.11,4.76c.17-.36.26-.86.26-1.49s-.11-1.1-.34-1.43c-.23-.33-.5-.49-.81-.49-.35,0-.63.09-.84.27-.22.18-.38.36-.48.54v2.99c.08.03.23.06.46.09.23.04.48.05.76.05.49,0,.83-.18,1-.54Z"/>
          <path class="cls-5" d="m376.08,41.03c.39-.08.76-.21,1.11-.39l.45,1.34c-.32.22-.71.39-1.17.53-.46.14-.92.2-1.37.2-.58,0-1.09-.05-1.52-.16-.44-.11-.8-.3-1.08-.57-.29-.27-.51-.63-.65-1.09-.14-.46-.21-1.03-.21-1.73,0-1.3.28-2.22.84-2.75.56-.53,1.37-.8,2.41-.8s1.73.22,2.21.66c.48.44.73,1.02.76,1.75,0,.38-.04.69-.16.93-.11.24-.28.44-.49.58-.22.14-.47.24-.76.29-.29.05-.61.07-.96.07h-1.92c0,.45.1.77.31.96.21.19.62.28,1.23.28.26,0,.59-.04.98-.12Zm-2.14-3.51c-.22.23-.33.53-.34.9h1.88c.18,0,.31-.05.38-.15.07-.1.1-.23.1-.39,0-.21-.1-.38-.28-.51-.18-.13-.44-.2-.78-.2-.41,0-.73.12-.95.35Z"/>
          <path class="cls-5" d="m378.96,42.54v-6.69h1.72l.1.5c.21-.23.45-.41.72-.53.27-.12.55-.18.82-.18.16,0,.33.02.54.07.2.05.4.13.58.26v1.63c-.28-.12-.52-.21-.74-.26-.22-.06-.42-.09-.62-.09-.24,0-.47.05-.67.14-.21.08-.39.21-.56.39v4.77h-1.89Z"/>
          <path class="cls-5" d="m389.76,40.68c0,.15.01.28.05.37.03.09.12.14.28.14.08,0,.16,0,.23-.03.08-.02.16-.05.26-.08l.19,1.19c-.16.13-.35.23-.6.32-.24.09-.48.13-.71.13-.27,0-.51-.05-.73-.14-.22-.09-.39-.23-.52-.42-.28.17-.59.31-.95.41-.35.1-.76.15-1.22.15-.8,0-1.37-.21-1.7-.62-.33-.41-.5-.91-.5-1.51,0-.8.16-1.36.52-1.67.35-.31.9-.51,1.63-.59.17-.02.34-.03.49-.04.16,0,.31-.02.45-.03.16,0,.31-.01.45-.01s.3,0,.47-.01v-.27c0-.24-.08-.43-.23-.56-.15-.13-.41-.2-.77-.2-.21,0-.4.01-.58.03-.18.02-.35.05-.52.09-.17.03-.35.06-.52.11-.18.05-.37.09-.56.14l-.26-1.5c.28-.07.52-.14.73-.19.21-.05.4-.09.57-.12.18-.04.36-.06.54-.08.18-.02.38-.03.6-.03.54,0,1,.04,1.37.12.37.08.67.21.89.39.22.17.39.4.49.68.1.28.15.62.15,1.03v2.83Zm-1.89-1.02c-.31,0-.6.02-.86.04-.26.02-.53.04-.78.07-.24.04-.39.14-.45.3-.06.16-.09.33-.08.49,0,.17.04.32.12.45.08.13.27.19.58.19.23,0,.47-.03.71-.09.24-.06.49-.22.77-.46v-.98Z"/>
          <path class="cls-5" d="m393.86,37.29v3.41c0,.17.03.29.1.35.07.06.16.09.29.09.11,0,.24-.02.38-.07.14-.05.29-.11.45-.2l.44,1.15c-.17.18-.43.34-.77.47-.34.14-.69.2-1.04.2-.64,0-1.08-.16-1.34-.48-.25-.32-.38-.77-.38-1.33v-3.6h-1.02v-1.54h1.02v-2.21l1.06-.22c.41-.08.8.23.8.64v1.78h1.45v1.54h-1.45Z"/>
          <path class="cls-5" d="m399.66,41.09c.14-.05.29-.11.44-.2l.44,1.15c-.17.18-.43.34-.76.47-.34.14-.68.2-1.04.2-.64,0-1.08-.16-1.34-.48-.25-.32-.38-.77-.38-1.33v-3.55h-.67v-1.5h1.9c.37,0,.67.29.67.66v4.21c0,.17.03.29.09.35.06.06.15.09.27.09.11,0,.24-.02.38-.07Zm-2.76-6.39v-1.94h1.35c.37,0,.67.29.67.66v1.28h-2.02Z"/>
          <path class="cls-5" d="m406.61,36.47c.59.57.88,1.46.88,2.68s-.28,2.05-.84,2.66c-.56.61-1.36.91-2.4.91s-1.86-.3-2.42-.91c-.56-.61-.84-1.49-.84-2.66s.3-2.11.89-2.68c.59-.57,1.38-.85,2.37-.85s1.77.28,2.36.85Zm-3.4,4.17c.19.34.54.51,1.04.51s.84-.17,1.04-.51c.2-.34.3-.83.3-1.48s-.1-1.17-.29-1.48c-.19-.31-.54-.47-1.03-.47s-.86.16-1.06.47c-.19.31-.29.81-.29,1.48s.1,1.14.29,1.48Z"/>
          <path class="cls-5" d="m412.74,42.54v-4.51c0-.29-.05-.5-.15-.64-.1-.14-.26-.21-.49-.21-.28,0-.57.08-.88.24-.31.16-.56.34-.74.54v4.59h-1.89v-6.69h1.74l.1.47c.23-.19.5-.35.8-.49.3-.14.67-.21,1.11-.21.76,0,1.33.17,1.71.51.38.34.57.86.57,1.56v4.85h-1.89Z"/>
          <path class="cls-5" d="m426.47,42.06c-.37.23-.78.4-1.24.51s-.98.17-1.57.17c-1.53,0-2.68-.44-3.45-1.31-.77-.87-1.16-2.08-1.16-3.62,0-1.63.38-2.88,1.15-3.77.77-.89,1.92-1.33,3.46-1.33.36,0,.68.02.94.05.26.04.5.09.72.15.22.05.41.12.6.21.18.09.38.18.58.28l-.45,1.57c-.39-.2-.77-.35-1.15-.47-.38-.11-.78-.17-1.2-.17-.89,0-1.56.32-2,.95-.45.63-.67,1.48-.67,2.53s.25,1.87.75,2.45c.5.57,1.13.86,1.89.86.36,0,.76-.05,1.19-.16.43-.1.83-.26,1.19-.47l.43,1.57Z"/>
          <path class="cls-5" d="m431.66,41.03c.39-.08.76-.21,1.11-.39l.45,1.34c-.32.22-.71.39-1.17.53-.46.14-.92.2-1.37.2-.58,0-1.09-.05-1.52-.16-.44-.11-.8-.3-1.08-.57-.29-.27-.51-.63-.65-1.09-.14-.46-.21-1.03-.21-1.73,0-1.3.28-2.22.84-2.75.56-.53,1.37-.8,2.41-.8s1.73.22,2.21.66c.48.44.73,1.02.76,1.75,0,.38-.04.69-.16.93-.11.24-.28.44-.49.58-.22.14-.47.24-.76.29-.29.05-.61.07-.96.07h-1.92c0,.45.1.77.31.96.21.19.62.28,1.23.28.26,0,.59-.04.98-.12Zm-2.14-3.51c-.22.23-.33.53-.34.9h1.88c.18,0,.31-.05.38-.15.07-.1.1-.23.1-.39,0-.21-.1-.38-.28-.51-.18-.13-.44-.2-.78-.2-.41,0-.73.12-.95.35Z"/>
          <path class="cls-5" d="m438.69,42.54v-4.51c0-.29-.05-.5-.15-.64-.1-.14-.26-.21-.49-.21-.28,0-.57.08-.88.24-.31.16-.56.34-.74.54v4.59h-1.89v-6.69h1.74l.1.47c.23-.19.5-.35.8-.49.3-.14.67-.21,1.11-.21.76,0,1.33.17,1.71.51.38.34.57.86.57,1.56v4.85h-1.89Z"/>
          <path class="cls-5" d="m444.45,37.29v3.41c0,.17.03.29.1.35.07.06.16.09.29.09.11,0,.24-.02.38-.07.14-.05.29-.11.45-.2l.44,1.15c-.17.18-.43.34-.77.47-.34.14-.69.2-1.04.2-.64,0-1.08-.16-1.34-.48-.25-.32-.38-.77-.38-1.33v-3.6h-1.02v-1.54h1.02v-2.21l1.06-.22c.41-.08.8.23.8.64v1.78h1.45v1.54h-1.45Z"/>
          <path class="cls-5" d="m451.33,41.03c.39-.08.76-.21,1.11-.39l.45,1.34c-.32.22-.71.39-1.17.53-.46.14-.92.2-1.37.2-.58,0-1.09-.05-1.52-.16-.44-.11-.8-.3-1.08-.57-.29-.27-.51-.63-.65-1.09-.14-.46-.21-1.03-.21-1.73,0-1.3.28-2.22.84-2.75.56-.53,1.37-.8,2.41-.8s1.73.22,2.21.66c.48.44.73,1.02.76,1.75,0,.38-.04.69-.16.93-.11.24-.28.44-.49.58-.22.14-.47.24-.76.29-.29.05-.61.07-.96.07h-1.92c0,.45.1.77.31.96.21.19.62.28,1.23.28.26,0,.59-.04.98-.12Zm-2.14-3.51c-.22.23-.33.53-.34.9h1.88c.18,0,.31-.05.38-.15.07-.1.1-.23.1-.39,0-.21-.1-.38-.28-.51-.18-.13-.44-.2-.78-.2-.41,0-.73.12-.95.35Z"/>
          <path class="cls-5" d="m454.22,42.54v-6.69h1.72l.1.5c.21-.23.45-.41.72-.53.27-.12.55-.18.82-.18.16,0,.33.02.54.07.2.05.4.13.58.26v1.63c-.28-.12-.52-.21-.74-.26-.22-.06-.42-.09-.62-.09-.24,0-.47.05-.67.14-.21.08-.39.21-.56.39v4.77h-1.89Z"/>
        </g>
      </g>
      <g>
        <path class="cls-3" d="m148.7,21.44c-.58-11.08-10.47-20.13-21.57-20.13h-46.64c-.43,0-.77.35-.77.77v18.31c0,.43.35.77.77.77h45.76c.65,0,1.18.53,1.18,1.18h0c0,.65-.53,1.18-1.18,1.18h-45.76c-.43,0-.77.35-.77.77v18.82c0,.43.35.77.77.77h46.95c12.14,0,21.9-10.16,21.25-22.44Z"/>
        <path class="cls-3" d="m184.9,33.3c-3.48-6.71-3.48-14.69,0-21.39l4.67-8.98c.21-.39-.08-.87-.53-.87h-19.87c-.43,0-.77.35-.77.77v5.39c0,.58-.39,1.11-.96,1.21-.75.13-1.39-.43-1.39-1.16V2.83c0-.43-.35-.77-.77-.77h-20.87c-.45,0-.73.47-.53.87l4.67,8.98c3.48,6.71,3.48,14.69,0,21.39l-4.67,8.98c-.21.39.08.87.53.87h20.87c.43,0,.77-.35.77-.77v-5.39c0-.57.39-1.11.95-1.21.75-.14,1.4.43,1.4,1.16v5.45c0,.43.35.77.77.77h19.87c.44,0,.73-.47.53-.87l-4.67-8.98Z"/>
        <g>
          <path class="cls-4" d="m76.19,1.47h-19.18c-.65,0-1.18.53-1.18,1.18v40.47c0,.43.35.77.77.77h19.99c.43,0,.77-.35.77-.77V2.65c0-.65-.53-1.18-1.18-1.18Z"/>
          <path class="cls-1" d="m38.95,1.33h-4.81v-.02h-12.81C9.55,1.31,0,10.86,0,22.64h0c0,11.73,9.51,21.24,21.24,21.24h12.9s2.54,0,2.54,0h15.24c.82,0,1.49-.67,1.49-1.49v-18.09c0-.43-.35-.79-.79-.79h-24.03c-.15,0-.27.12-.27.27v1.3c0,.47-.38.85-.85.85h-3.79c-1.32,0-2.39-1.07-2.39-2.39h0c0-1.32,1.07-2.39,2.39-2.39h28.94c.43,0,.79-.35.79-.79v-4.58h0c0-7.99-6.48-14.47-14.47-14.47Z"/>
        </g>
      </g>
    </g>
  </g>
</svg>