<?xml version="1.0" encoding="utf-8"?>
<!-- Generator: Adobe Illustrator 24.1.1, SVG Export Plug-In . SVG Version: 6.00 Build 0)  -->
<svg version="1.1" id="Layer_1" xmlns="http://www.w3.org/2000/svg" xmlns:xlink="http://www.w3.org/1999/xlink" x="0px" y="0px"
	 viewBox="0 0 30 30" style="enable-background:new 0 0 30 30;" xml:space="preserve">
<style type="text/css">
	.st0{fill:#FFFFFF;}
	.st1{stroke:#000000;stroke-width:0.5;stroke-miterlimit:10;}
</style>
<path class="st0" d="M24.2,30H5.8C2.6,30,0,27.4,0,24.2V5.8C0,2.6,2.6,0,5.8,0h18.4C27.4,0,30,2.6,30,5.8v18.4
	C30,27.4,27.4,30,24.2,30z"/>
<g>
	<path class="st1" d="M14.3,8.4c0.1-0.1,0.1-0.1,0.2-0.3s0.1-0.2,0.2-0.3c0-0.1,0.1-0.2,0.1-0.2c0.1-0.1,0.1-0.1,0.1-0.1
		c0,0,0.1,0,0.1,0c0.3,0.3,0.4,0.7,0.2,1.1c0.7,0,1.4,0,2,0c0.6,0,1.2,0.1,1.8,0.3c0.7,0.2,1.2,0.5,1.7,0.8c0.6,0.4,1,1,1.4,1.6
		c0.4,0.7,0.5,1.4,0.5,2.1c-0.1,0.6-0.2,1.2-0.6,1.8c-0.3,0.6-0.7,1.2-1.2,1.6c-0.8,0.9-1.9,1.7-3.1,2.4c-1.2,0.7-2.4,1.3-3.6,1.6
		c-1.6,0.4-2.9,0.5-3.8,0.1c-0.2-0.1-0.2-0.2-0.1-0.4c0.1-0.2,0.2-0.2,0.4-0.1c0.6,0.4,1.8,0.4,3.3,0.1c1.2-0.3,2.4-0.8,3.6-1.5
		s2.2-1.5,2.9-2.3c0.4-0.5,0.8-1,1.1-1.6s0.5-1.2,0.5-1.7c0.1-0.7-0.1-1.4-0.4-2c-0.3-0.6-0.7-1.2-1.2-1.6c-0.7-0.5-1.5-0.9-2.4-1.1
		c-0.9-0.2-1.9-0.2-3.1-0.2c0,0,0,0.1-0.1,0.2C15.1,9,15,9.1,15,9.1c0,0.1-0.1,0.1-0.1,0.2c-0.5,0.9-0.9,1.8-1.4,2.8
		c-1.6,3.2-2.8,6.2-3.8,8.8c-0.2,0.7-0.1,1.1,0.3,1.1c0.1,0.1,0.2,0.1,0.2,0.3c0,0.1,0,0.2-0.1,0.3c-0.1,0.1-0.2,0.1-0.3,0.1
		c-0.4-0.2-0.7-0.4-0.7-0.8c-0.1-0.3,0-0.7,0.2-1.1c0.4-0.9,1.1-2.4,1.9-4.3c0.9-1.9,1.5-3.4,2-4.4c0-0.1,0.1-0.2,0.3-0.6
		c0.2-0.3,0.3-0.6,0.4-0.9c0.1-0.3,0.3-0.6,0.4-0.9s0.2-0.5,0.3-0.7c-1.3,1.7-2.2,3.3-2.7,4.7c0,0.1-0.1,0.2-0.1,0.4
		c0,0.1-0.1,0.2-0.2,0.3c-0.1,0-0.2,0-0.3-0.1c-0.1-0.1-0.1-0.2-0.1-0.3c0.5-1.1,1.4-2.7,3-4.9c-0.2,0-0.4,0-0.6,0
		c-0.5,0.1-1,0.1-1.4,0.2s-0.6,0.1-0.7,0.1s-0.1,0-0.3,0c-0.2,0-0.3,0-0.3,0.1c-0.1,0-0.3,0.1-0.7,0.1C9.8,9.4,9.3,9.5,8.7,9.6
		c-0.5,0.1-1,0.2-1.5,0.4c-0.4,0.2-0.7,0.5-0.9,0.8C6.3,11,6.2,11,6.1,11.1c-0.1,0-0.2,0-0.3-0.1s-0.1-0.2,0-0.3
		c0.3-0.4,0.7-0.7,1.2-1C7.5,9.4,8,9.2,8.6,9.1C8.9,9.1,9.4,9.1,10,9c0.6,0,1,0,1.1-0.1c0.3,0,0.6,0,0.9-0.1c0.4,0,0.7-0.1,1.1-0.1
		c0.4,0,0.7-0.1,1-0.1C14.2,8.6,14.3,8.5,14.3,8.4z"/>
</g>
</svg>
