<?xml version="1.0" encoding="utf-8"?>
<!-- Generator: Adobe Illustrator 24.1.1, SVG Export Plug-In . SVG Version: 6.00 Build 0)  -->
<svg version="1.1" id="Layer_1" xmlns="http://www.w3.org/2000/svg" xmlns:xlink="http://www.w3.org/1999/xlink" x="0px" y="0px"
	 viewBox="0 0 30 30" style="enable-background:new 0 0 30 30;" xml:space="preserve">
<style type="text/css">
	.st0{fill:#FFFFFF;}
	.st1{stroke:#000000;stroke-width:0.1;stroke-miterlimit:10;}
	.st2{fill:#FACA3B;stroke:#000000;stroke-width:0.1;stroke-miterlimit:10;}
</style>
<path class="st0" d="M24.2,30H5.8C2.6,30,0,27.4,0,24.2V5.8C0,2.6,2.6,0,5.8,0h18.4C27.4,0,30,2.6,30,5.8v18.4
	C30,27.4,27.4,30,24.2,30z"/>
<path class="st1" d="M16,25.5l5.4-10.2l2.3,2.6L20,24.3l6.9-2.7l2.3,2.6l-15.3,5.3L11.7,27L16,25.5z"/>
<path class="st1" d="M2.9,4.4L6.8,4l0.5,6.2l4.4-6.6l4.2-0.4l-4.6,7l6.8,9.1l-4.2,0.4l-4.6-6.4l-1.5,2.2l0.4,4.7l-3.8,0.3L2.9,4.4z"
	/>
<path class="st1" d="M19.9,10c0,0.3,0,0.6,0.1,0.9c0.1,0.3,0.2,0.5,0.5,0.7c0.2,0.2,0.4,0.3,0.7,0.5c0.3,0.1,0.6,0.2,0.9,0.2
	c0.7,0.1,1.2,0.1,1.6-0.1c0.4-0.1,0.6-0.3,0.6-0.6l0-0.4l3.7,0.4L28,12.2c-0.1,0.5-0.3,1-0.6,1.4c-0.3,0.4-0.8,0.7-1.3,1
	c-0.6,0.3-1.2,0.4-1.9,0.5c-0.7,0.1-1.5,0.1-2.4,0c-0.9-0.1-1.7-0.3-2.4-0.6c-0.7-0.3-1.3-0.7-1.8-1.2c-0.5-0.5-0.9-1.1-1.1-1.7
	c-0.2-0.6-0.3-1.3-0.2-2.1l0.2-2.3c0.1-0.8,0.3-1.5,0.7-2.1C17.5,4.5,18,4,18.6,3.6c0.6-0.4,1.3-0.7,2-0.8c0.8-0.2,1.6-0.2,2.4-0.1
	c0.9,0.1,1.7,0.3,2.4,0.6c0.7,0.3,1.3,0.7,1.8,1.2c0.5,0.5,0.9,1.1,1.1,1.8c0.2,0.7,0.3,1.4,0.2,2.2l-0.3,2.4L19.9,10L19.9,10z
	 M23.1,3.6c-0.1,0.5-0.3,1-0.6,1.3c-0.3,0.3-0.7,0.6-1.1,0.8C21.1,5.8,20.7,6,20.2,6c-0.5,0.1-0.9,0.1-1.4,0
	c0.5,0.1,0.9,0.2,1.4,0.4c0.5,0.2,0.9,0.4,1.2,0.7c0.4,0.3,0.6,0.6,0.9,1c0.2,0.4,0.3,0.9,0.2,1.4c0.1-0.5,0.2-1,0.5-1.3
	c0.3-0.4,0.6-0.6,1-0.9c0.4-0.2,0.8-0.4,1.3-0.4c0.5-0.1,0.9-0.1,1.4-0.1c-0.4-0.1-0.9-0.2-1.3-0.3c-0.4-0.2-0.8-0.4-1.2-0.6
	c-0.3-0.3-0.6-0.6-0.8-1C23.2,4.6,23.1,4.1,23.1,3.6z"/>
<path class="st2" d="M15.4,25.1l5.4-10.2l2.3,2.6l-3.7,6.3l6.9-2.7l2.3,2.6L13.3,29l-2.2-2.4L15.4,25.1z"/>
<path class="st2" d="M2.3,4l3.8-0.3l0.5,6.2l4.4-6.6l4.2-0.4l-4.6,7l6.8,9.1l-4.2,0.4l-4.6-6.4l-1.5,2.2l0.4,4.7l-3.8,0.3L2.3,4z"/>
<path class="st2" d="M19.3,9.6c0,0.3,0,0.6,0.1,0.9c0.1,0.3,0.2,0.5,0.5,0.7c0.2,0.2,0.4,0.3,0.7,0.5c0.3,0.1,0.6,0.2,0.9,0.2
	c0.7,0.1,1.2,0.1,1.6-0.1c0.4-0.1,0.6-0.3,0.6-0.6l0-0.4l3.7,0.4l-0.1,0.5c-0.1,0.5-0.3,1-0.6,1.4c-0.3,0.4-0.8,0.7-1.3,1
	s-1.2,0.4-1.9,0.5c-0.7,0.1-1.5,0.1-2.4,0c-0.9-0.1-1.7-0.3-2.4-0.6c-0.7-0.3-1.3-0.7-1.8-1.2c-0.5-0.5-0.9-1.1-1.1-1.7
	c-0.2-0.6-0.3-1.3-0.2-2.1l0.2-2.3c0.1-0.8,0.3-1.5,0.7-2.1c0.4-0.6,0.9-1.1,1.4-1.5c0.6-0.4,1.3-0.7,2-0.8c0.8-0.2,1.6-0.2,2.4-0.1
	c0.9,0.1,1.7,0.3,2.4,0.6s1.3,0.7,1.8,1.2c0.5,0.5,0.9,1.1,1.1,1.8C28,6.6,28,7.3,28,8.1l-0.3,2.4L19.3,9.6L19.3,9.6z M22.5,3.2
	c-0.1,0.5-0.3,1-0.6,1.3c-0.3,0.3-0.7,0.6-1.1,0.8c-0.4,0.2-0.8,0.3-1.3,0.4c-0.5,0.1-0.9,0.1-1.4,0c0.5,0.1,0.9,0.2,1.4,0.4
	c0.5,0.2,0.9,0.4,1.2,0.7c0.4,0.3,0.6,0.6,0.9,1c0.2,0.4,0.3,0.9,0.2,1.4c0.1-0.5,0.2-1,0.5-1.3c0.3-0.4,0.6-0.6,1-0.9
	c0.4-0.2,0.8-0.4,1.3-0.4c0.5-0.1,0.9-0.1,1.4-0.1c-0.4-0.1-0.9-0.2-1.3-0.3c-0.4-0.2-0.8-0.4-1.2-0.6c-0.3-0.3-0.6-0.6-0.8-1
	C22.6,4.2,22.5,3.7,22.5,3.2z"/>
</svg>
