<?xml version="1.0" encoding="utf-8"?>
<!-- Generator: Adobe Illustrator 24.1.1, SVG Export Plug-In . SVG Version: 6.00 Build 0)  -->
<svg version="1.1" id="Layer_1" xmlns="http://www.w3.org/2000/svg" xmlns:xlink="http://www.w3.org/1999/xlink" x="0px" y="0px"
	 viewBox="0 0 1217.09 478.95" style="enable-background:new 0 0 1217.09 478.95;" xml:space="preserve">
<style type="text/css">
	.st0{fill:#FACA3B;}
</style>
<g>
	<g>
		<path d="M69.29,401.96c3.58-30.35,7.1-59.22,10.53-86.75c3.42-27.53,6.63-54.63,9.57-81.47C58.59,249.33,28.73,266.45,0,285.1
			c0-27.74,0-55.49,0-83.23c31.34-13.31,63.51-25.48,96.38-36.52c1.18-12.22,2.24-24.56,3.17-37.05c0.93-12.49,1.92-25.33,3-38.49
			C67.99,95.25,33.78,101.28,0,107.89C0,80.15,0,52.4,0,24.66c56.34-0.64,112.75-1.19,169.21-1.65c-2.64,28.52-5.47,55.94-8.49,82.4
			c-3.02,26.47-6.29,52.73-9.78,78.94c-3.49,26.21-7.4,52.98-11.69,80.55c-4.29,27.58-9.02,56.73-14.13,87.78
			C105.9,368.05,87.26,384.48,69.29,401.96z M190.19,22.84c19.99-0.16,39.98-0.3,59.98-0.43c-9.15,87.96-18.3,175.91-27.44,263.87
			c-19.91,11.4-39.4,23.75-58.42,37.05C172.94,223.17,181.57,123.01,190.19,22.84z"/>
		<path d="M269.24,121.47c33.41-7.07,67.24-13.06,101.36-17.98c-1.36,12.06-2.72,24.12-4.08,36.19
			c-34.53,7.04-68.63,15.61-102.12,25.71C266.02,150.74,267.63,136.11,269.24,121.47z"/>
		<path d="M404.2,74.33c0.85-7.95,3.38-15.47,7.54-22.4c4.16-6.92,9.96-12.83,17.38-17.65c7.42-4.82,16.56-8.52,27.42-11.14
			c10.86-2.62,23.35-3.85,37.55-3.85c14.2,0,26.51,1.22,37.01,3.57c10.5,2.35,19.15,5.55,25.97,9.6
			c6.82,4.05,11.89,8.93,15.22,14.65c3.32,5.72,4.94,11.93,4.79,18.64c-0.54,24.91-1.08,49.82-1.62,74.73
			c-0.15,6.84-2.13,13.16-6.01,19c-3.88,5.85-9.71,11.01-17.5,15.63c-7.79,4.62-17.67,8.65-29.58,12.31
			c-11.91,3.67-25.79,6.69-41.52,9.31c-15.73,2.62-29.29,4.15-40.67,4.11c-11.38-0.03-20.54-1.33-27.54-4.18
			c-6.99-2.84-11.93-7.13-14.86-12.92c-2.93-5.78-3.94-12.79-3.07-20.9C397.87,133.35,401.04,103.84,404.2,74.33z M493.61,25.85
			c-1.12,15.03-4.44,27.76-10.08,38.45c-5.64,10.69-12.61,19.67-20.89,27c-8.28,7.33-17.46,13.17-27.47,17.46
			c-10.02,4.29-19.76,7.38-29.17,9.07c9.35-1.09,18.72-0.65,28.18,1.17c9.46,1.83,17.8,5.61,25.08,11.2
			c7.28,5.6,13.05,13.27,17.31,22.97c4.25,9.71,5.89,21.98,4.77,37.01c1.12-15.03,4.65-28.1,10.46-38.95
			c5.81-10.85,12.85-19.79,21.14-26.77c8.28-6.98,17.34-12.11,27.23-15.43c9.89-3.32,19.57-5.2,29.11-5.73
			c-9.53,0.01-19.12-1.14-28.7-3.51c-9.58-2.37-18.07-6.4-25.42-12.25c-7.35-5.85-13.07-13.79-17.17-23.89
			C493.9,53.55,492.48,40.88,493.61,25.85z M599.08,21.22c20.03,0,40.06,0,60.08,0.02c1.96,55.02,3.92,110.04,5.88,165.06
			c-22.32-1.61-44.7-2.26-67.08-1.96C598.34,129.97,598.71,75.59,599.08,21.22z"/>
		<path d="M689.2,21.28c83.11,0.12,166.2,0.44,249.21,0.95c1.67,15.17,3.33,30.35,5,45.52c-19.75-1.99-39.58-3.8-59.46-5.44
			c23.84,35.96,48.08,76.02,72.21,121.45c-23.21-7.89-46.76-14.96-70.56-21.2c-23.04-38.79-45.78-73.49-67.88-105.25
			c-15.45,29.44-31.62,56.25-48.73,81.55c-24.46-3.58-49.07-6.34-73.76-8.26c19.71-24.52,38.32-49.6,55.98-76.52
			c-20.08-0.84-40.19-1.51-60.31-2C690.34,41.82,689.77,31.55,689.2,21.28z M696.78,158.62c90.64,8.71,179.97,30.89,263.94,66.54
			c1.67,15.17,3.33,30.35,5,45.52c-84.18-43.53-174.91-70.62-267.24-81.25C697.91,179.16,697.35,168.89,696.78,158.62z"/>
		<path d="M968.42,22.42c17,0.11,33.99,0.24,50.99,0.37c0.73,8.27,1.47,16.54,2.2,24.81c5.98,0.37,11.95,0.75,17.91,1.14
			c-0.71-8.6-1.42-17.2-2.13-25.81c16.99,0.14,33.97,0.28,50.95,0.43c3.78,60.98,7.56,121.95,11.33,182.93
			c-37.8-16.4-76.79-30.76-116.67-43.06C978.14,116.29,973.28,69.35,968.42,22.42z M1169.29,423.71c-0.98-32.6-1.97-65.2-2.95-97.8
			c-54.85-41.7-114.47-76.21-177.2-103.54c-1.68-16.17-3.35-32.33-5.03-48.5c82.73,27.41,161.34,64.31,232.98,110.7
			c0,64.8,0,129.59,0,194.39C1201.84,459.58,1185.88,441.16,1169.29,423.71z M1031.39,57.78c0.39,9.23-0.35,17.22-2.22,23.81
			c-1.87,6.6-4.57,11.93-8.1,15.96c-3.54,4.04-7.81,6.76-12.82,8.22c-5.02,1.47-10.4,1.7-16.15,0.82
			c5.79,1.31,11.43,3.68,16.91,7.23c5.48,3.55,10.41,8.13,14.78,13.8c4.37,5.67,8.08,12.34,11.13,19.98
			c3.05,7.64,5.16,16.23,6.35,25.64c-0.6-9.2,0.02-16.9,1.87-23.26c1.85-6.35,4.52-11.53,8.03-15.54c3.5-4,7.74-6.81,12.71-8.35
			c4.96-1.53,10.36-1.8,16.18-0.67c-5.85-1.66-11.47-4.51-16.86-8.42c-5.39-3.91-10.26-8.77-14.6-14.52
			c-4.34-5.75-8.05-12.32-11.11-19.74C1034.41,75.33,1032.38,67.06,1031.39,57.78z M1100.03,23.46c17.38,0.16,34.75,0.33,52.12,0.5
			c0.71,21.65,1.41,43.3,2.12,64.95c4.18,0.65,8.35,1.3,12.51,1.96c-0.59-22.26-1.17-44.52-1.76-66.78
			c17.36,0.18,34.72,0.37,52.07,0.57c0,81.26,0,162.53,0,243.79c-15.16-9.13-30.61-17.88-46.33-26.23
			c-0.61-23.22-1.22-46.44-1.84-69.67c-4.01-1.42-8.04-2.82-12.07-4.21c0.74,22.58,1.47,45.17,2.21,67.75
			c-15.84-8.16-31.94-15.92-48.27-23.3C1107.21,149.69,1103.62,86.58,1100.03,23.46z"/>
	</g>
</g>
<g>
	<g>
		<path class="st0" d="M81.86,374.09c3.5-29.67,6.94-57.89,10.29-84.81c3.35-26.92,6.48-53.4,9.35-79.64
			c-30.11,15.24-59.29,31.97-87.38,50.2c0-27.12,0-54.24,0-81.37c30.64-13.01,62.09-24.91,94.22-35.71
			c1.15-11.94,2.19-24.01,3.09-36.22c0.91-12.21,1.88-24.76,2.93-37.63C80.59,74.26,47.15,80.16,14.13,86.62
			c0-27.12,0-54.24,0-81.37c55.08-0.62,110.22-1.16,165.42-1.61c-2.58,27.88-5.35,54.68-8.3,80.56
			c-2.96,25.88-6.15,51.55-9.56,77.17c-3.42,25.62-7.23,51.79-11.43,78.74c-4.19,26.96-8.81,55.45-13.81,85.81
			C117.65,340.95,99.43,357,81.86,374.09z M200.06,3.47c19.54-0.15,39.09-0.29,58.64-0.42c-8.94,85.98-17.89,171.97-26.83,257.95
			c-19.46,11.14-38.52,23.22-57.11,36.22C183.19,199.31,191.62,101.39,200.06,3.47z"/>
		<path class="st0" d="M277.33,99.89c32.66-6.91,65.73-12.77,99.09-17.58c-1.33,11.79-2.66,23.58-3.99,35.38
			c-33.75,6.88-67.09,15.26-99.83,25.13C274.18,128.51,275.76,114.2,277.33,99.89z"/>
		<path class="st0" d="M409.26,53.81c0.83-7.77,3.3-15.13,7.37-21.9c4.07-6.77,9.74-12.54,16.99-17.25
			c7.26-4.71,16.19-8.33,26.8-10.89C471.05,1.2,483.26,0,497.14,0c13.88,0,25.91,1.19,36.18,3.49c10.26,2.3,18.72,5.43,25.38,9.39
			c6.66,3.96,11.63,8.73,14.88,14.32c3.24,5.59,4.83,11.66,4.69,18.22c-0.53,24.35-1.06,48.7-1.59,73.05
			c-0.14,6.69-2.09,12.86-5.88,18.58c-3.8,5.72-9.49,10.77-17.11,15.28c-7.62,4.52-17.27,8.45-28.91,12.04
			c-11.65,3.59-25.22,6.54-40.59,9.1c-15.38,2.56-28.63,4.06-39.75,4.02c-11.13-0.03-20.08-1.3-26.92-4.08
			c-6.84-2.78-11.67-6.97-14.53-12.63c-2.87-5.65-3.85-12.51-3-20.43C403.08,111.5,406.17,82.66,409.26,53.81z M496.67,6.41
			c-1.09,14.69-4.34,27.14-9.86,37.59c-5.52,10.45-12.33,19.23-20.42,26.4c-8.09,7.17-17.06,12.87-26.86,17.07
			c-9.79,4.2-19.32,7.21-28.52,8.87c9.14-1.06,18.3-0.63,27.55,1.14c9.24,1.78,17.4,5.48,24.52,10.95
			c7.11,5.48,12.76,12.98,16.92,22.46c4.16,9.49,5.76,21.49,4.67,36.18c1.1-14.69,4.55-27.47,10.22-38.08
			c5.68-10.61,12.56-19.34,20.67-26.17c8.1-6.82,16.96-11.84,26.62-15.09c9.66-3.24,19.13-5.09,28.46-5.61
			c-9.31,0.01-18.69-1.11-28.05-3.43c-9.37-2.31-17.67-6.25-24.85-11.98c-7.19-5.72-12.78-13.48-16.78-23.36
			C496.95,33.49,495.57,21.11,496.67,6.41z M599.78,1.88c19.58,0,39.16,0,58.74,0.02c1.92,53.79,3.84,107.57,5.75,161.36
			c-21.82-1.57-43.7-2.21-65.57-1.92C599.06,108.19,599.42,55.04,599.78,1.88z"/>
		<path class="st0" d="M687.88,1.94c81.25,0.12,162.47,0.43,243.63,0.93c1.63,14.83,3.26,29.67,4.89,44.5
			c-19.31-1.95-38.69-3.72-58.13-5.32c23.31,35.16,47,74.31,70.59,118.72c-22.69-7.71-45.71-14.62-68.98-20.72
			c-22.52-37.92-44.75-71.85-66.36-102.89c-15.1,28.78-30.91,54.99-47.63,79.73c-23.91-3.5-47.97-6.19-72.11-8.08
			c19.26-23.97,37.46-48.48,54.73-74.8c-19.63-0.82-39.29-1.48-58.96-1.95C688.99,22.02,688.43,11.98,687.88,1.94z M695.29,136.21
			c88.61,8.52,175.93,30.2,258.02,65.05c1.63,14.83,3.26,29.67,4.89,44.5c-82.3-42.55-170.99-69.03-261.25-79.43
			C696.39,156.29,695.84,146.25,695.29,136.21z"/>
		<path class="st0" d="M960.83,3.06c16.62,0.11,33.23,0.23,49.84,0.36c0.72,8.08,1.43,16.17,2.15,24.25
			c5.84,0.36,11.68,0.73,17.51,1.11c-0.69-8.41-1.39-16.82-2.08-25.23c16.61,0.13,33.21,0.27,49.81,0.42
			c3.69,59.61,7.39,119.22,11.08,178.83c-36.95-16.04-75.07-30.07-114.05-42.09C970.34,94.83,965.59,48.94,960.83,3.06z
			 M1157.2,395.35c-0.96-31.87-1.92-63.74-2.88-95.61c-53.63-40.76-111.9-74.5-173.23-101.22c-1.64-15.8-3.28-31.61-4.91-47.41
			c80.88,26.79,157.73,62.87,227.76,108.22c0,63.34,0,126.69,0,190.03C1189.02,430.42,1173.42,412.42,1157.2,395.35z M1022.39,37.62
			c0.38,9.03-0.34,16.83-2.17,23.28c-1.83,6.46-4.47,11.66-7.92,15.61c-3.46,3.95-7.63,6.61-12.54,8.03
			c-4.91,1.43-10.17,1.66-15.79,0.8c5.66,1.28,11.17,3.6,16.53,7.06c5.36,3.47,10.17,7.95,14.45,13.49
			c4.27,5.54,7.89,12.06,10.88,19.53c2.99,7.47,5.05,15.87,6.21,25.06c-0.59-8.99,0.02-16.52,1.83-22.74
			c1.81-6.21,4.42-11.27,7.85-15.19c3.43-3.91,7.57-6.66,12.42-8.16c4.85-1.5,10.13-1.76,15.81-0.65
			c-5.72-1.62-11.21-4.4-16.48-8.23c-5.27-3.83-10.03-8.57-14.27-14.19c-4.24-5.62-7.87-12.04-10.86-19.29
			C1025.35,54.78,1023.36,46.7,1022.39,37.62z M1089.49,4.08c16.99,0.16,33.97,0.32,50.95,0.49c0.69,21.16,1.38,42.33,2.07,63.49
			c4.08,0.63,8.16,1.27,12.23,1.92c-0.57-21.76-1.15-43.52-1.72-65.29c16.97,0.18,33.94,0.36,50.91,0.55c0,79.44,0,158.88,0,238.33
			c-14.82-8.93-29.93-17.48-45.29-25.64c-0.6-22.7-1.2-45.4-1.79-68.11c-3.92-1.39-7.86-2.76-11.8-4.11
			c0.72,22.08,1.44,44.16,2.16,66.24c-15.49-7.97-31.23-15.57-47.19-22.77C1096.51,127.48,1093,65.78,1089.49,4.08z"/>
	</g>
</g>
</svg>
