<?xml version="1.0" encoding="utf-8"?>
<!-- Generator: Adobe Illustrator 24.1.1, SVG Export Plug-In . SVG Version: 6.00 Build 0)  -->
<svg version="1.1" id="Layer_1" xmlns="http://www.w3.org/2000/svg" xmlns:xlink="http://www.w3.org/1999/xlink" x="0px" y="0px"
	 viewBox="0 0 30 30" style="enable-background:new 0 0 30 30;" xml:space="preserve">
<style type="text/css">
	.st0{fill:#FFFFFF;}
	.st1{fill:#D41317;}
</style>
<path class="st0" d="M23.1,30H6.9C3.1,30,0,26.9,0,23.1V6.9C0,3.1,3.1,0,6.9,0h16.3C26.9,0,30,3.1,30,6.9v16.3
	C30,26.9,26.9,30,23.1,30z"/>
<g>
	<path class="st1" d="M8.1,16.8c-0.2-0.5-0.2-1.1-0.2-1.7l0,0l0,0l0,0l0,0c0-0.7,0.1-1.3,0.3-2c0.4-1.3,1.2-2.5,2.3-3.4
		c-0.3-0.3-0.9-0.6-1.8,0C8.5,9.8,8.4,9.8,8.3,9.8c-0.1,0-1.1-0.4-1.9,0.4C6,10.6,5.9,10.8,5.8,11c-0.2,0.4-0.3,0.7-0.9,0.9
		c0.3,0.5,0.3,0.8,0.2,1.3c-0.1,0.3-0.1,0.5,0,0.9c0.2,1.2,1.3,1.4,1.3,1.4c0.2,0.1,0.3,0.2,0.3,0.3C7,16.7,7.7,16.8,8.1,16.8"/>
	<path class="st1" d="M20.4,17.9c0.4-0.8,0.7-1.8,0.7-2.8c0-3.4-2.8-6.2-6.2-6.2c-2.4,0-4.5,1.3-5.5,3.3c-0.4,0.8-0.7,1.8-0.7,2.8
		c0,3.4,2.8,6.2,6.2,6.2C17.3,21.3,19.4,19.9,20.4,17.9 M15.9,10.7l0.2-0.5l0.3,0.5H17L16.7,11l0.2,0.5l-0.6-0.2l-0.4,0.3v-0.6
		l-0.4-0.3L15.9,10.7z M13.6,16.1h2.6c0.1,0,0.2,0.1,0.2,0.2v0.3c0,0.1-0.1,0.2-0.2,0.2h-2.6c-0.2,0-0.2-0.1-0.2-0.2v-0.3
		C13.4,16.2,13.4,16.1,13.6,16.1 M13.5,15.5v-0.2c0-0.1,0.1-0.2,0.2-0.2H16c0.1,0,0.2,0.1,0.2,0.2v0.2c0,0.1-0.1,0.2-0.2,0.2h-2.3
		C13.6,15.7,13.5,15.6,13.5,15.5 M16.4,14.7h-2.9c-0.1,0-0.2-0.1-0.2-0.2v-0.2c0-0.1,0.1-0.2,0.2-0.2h2.9c0.2,0,0.2,0.1,0.2,0.2v0.3
		C16.5,14.6,16.4,14.7,16.4,14.7 M13.4,17.1h3.1c0.1,0,0.2,0.1,0.2,0.2v0.2c0,0.2-0.1,0.2-0.2,0.2h-3.1c-0.1,0-0.2-0.1-0.2-0.2v-0.2
		C13.2,17.2,13.3,17.1,13.4,17.1 M16.4,13.2c0.2,0,0.2,0.1,0.2,0.3v0.2c0,0.1,0,0.2-0.2,0.2h-2.9c-0.1,0-0.2-0.1-0.2-0.2v-0.2
		c0-0.2,0.1-0.3,0.2-0.3H16.4z M13.4,10.6l0.3-0.5l0.2,0.5l0.6,0.2l-0.5,0.3l0.1,0.6l-0.5-0.3L13,11.5l0.2-0.5l-0.3-0.4
		C12.9,10.6,13.4,10.6,13.4,10.6z M12.8,18.2c0-0.2,0.1-0.2,0.2-0.2h3.9c0.1,0,0.2,0,0.2,0.2v0.2c0,0.1-0.1,0.2-0.2,0.2h-3.9
		c-0.1,0-0.2-0.1-0.2-0.2C12.8,18.3,12.8,18.2,12.8,18.2z M12.4,19.1c0-0.1,0.1-0.2,0.2-0.2H17c0.2,0,0.2,0.1,0.2,0.2v0.3
		c0,0.1-0.1,0.2-0.2,0.2h-4.3c-0.1,0-0.2-0.1-0.2-0.2L12.4,19.1L12.4,19.1z M10.9,15.2v0.6l-0.5-0.3l-0.5,0.2l0.2-0.5l-0.3-0.5h0.6
		l0.3-0.4l0.2,0.5l0.5,0.2L10.9,15.2z M11.7,12.7v0.6l-0.4-0.3l-0.5,0.2l0.2-0.5l-0.3-0.5h0.6l0.3-0.5l0.2,0.6l0.6,0.2L11.7,12.7z
		 M17.5,20.2c0,0.1-0.1,0.2-0.2,0.2h-4.8c-0.2,0-0.2-0.1-0.2-0.2v-0.2c0-0.1,0.1-0.2,0.2-0.2h4.8c0.1,0,0.2,0.1,0.2,0.2V20.2z
		 M17.6,12.4l0.5-0.2l0.2-0.6l0.3,0.5h0.6l-0.3,0.5l0.2,0.5l-0.5-0.3L18,13.2v-0.6L17.6,12.4z M19,15.7v-0.6l-0.5-0.3l0.6-0.2
		l0.2-0.5l0.3,0.4h0.6l-0.3,0.5l0.3,0.5l-0.7-0.2L19,15.7z"/>
	<path class="st1" d="M8.4,17.7C8,18,7.5,18.4,7.9,19.4c0.1,0.1,0,0.3-0.1,0.4c-0.1,0.1-0.8,0.9-0.3,1.9c0.2,0.4,0.4,0.6,0.6,0.8
		c0.3,0.3,0.5,0.6,0.6,1.2c0.6-0.1,0.9,0.1,1.3,0.3c0.3,0.2,0.5,0.3,0.9,0.3c1.2,0.2,1.8-0.8,1.8-0.8c0.1-0.2,0.3-0.3,0.4-0.3
		c0.9,0,1.3-0.6,1.3-1C11.7,22,9.4,20.2,8.4,17.7"/>
	<path class="st1" d="M22,19.3c0.3-0.9-0.3-1.4-0.6-1.7c-0.9,2.4-3.3,4.3-6,4.4c0.1,0.4,0.4,1,1.3,1c0.2,0,0.3,0.1,0.3,0.3
		c0.1,0,0.7,1,1.8,0.8c0.5-0.1,0.7-0.3,0.9-0.3c0.3-0.3,0.7-0.3,1.3-0.3c0.2-0.6,0.3-0.8,0.7-1.2c0.2-0.2,0.3-0.3,0.6-0.8
		c0.5-1-0.3-1.9-0.3-1.9C22,19.7,21.9,19.5,22,19.3"/>
	<path class="st1" d="M14.9,8.2c1.4,0,2.7,0.4,3.8,1.1c0.2-0.3,0.3-1-0.5-1.7C18,7.5,18,7.3,18,7.2C18,7.1,18,6,17,5.5
		c-0.4-0.3-0.7-0.3-0.9-0.3c-0.4-0.1-0.8-0.2-1.3-0.6c-0.4,0.5-0.8,0.6-1.2,0.6c-0.3,0.1-0.5,0.1-0.9,0.3c-1.1,0.5-0.9,1.7-0.9,1.7
		c0,0.2-0.1,0.3-0.2,0.4c-0.8,0.6-0.7,1.3-0.5,1.7C12.2,8.6,13.5,8.2,14.9,8.2"/>
	<path class="st1" d="M23.6,0.1H6.1c-3.4,0-6.2,2.8-6.2,6.2v17.5c0,3.4,2.8,6.2,6.2,6.2h17.6c3.4,0,6.2-2.8,6.2-6.2V6.3
		C29.9,2.9,27,0.1,23.6,0.1 M26,11.7L26,11.7L26,11.7L26,11.7L26,11.7c0,0.1-0.1,0.2-0.1,0.2c-0.2,0.3-0.3,0.5-0.3,0.7
		c0,0.2,0,0.3,0,0.5c0.1,0.3,0.2,0.7,0.1,1.3c-0.3,1.4-1.3,1.9-1.8,2.1c-0.3,0.7-0.8,1.1-1.3,1.3c0.3,0.4,0.5,1,0.3,1.8
		c0.3,0.4,0.8,1.5,0.3,2.8c-0.3,0.5-0.6,0.8-0.8,1c-0.1,0.1-0.1,0.1-0.2,0.2c-0.2,0.2-0.3,0.4-0.3,1c0,0.2-0.1,0.3-0.2,0.3
		c-0.1,0-0.1,0.1-0.2,0.1l0,0l0,0l0,0l0,0l0,0c-0.1,0-0.1,0-0.2,0c-0.7-0.2-0.8-0.2-1.2,0l0,0l0,0c-0.3,0.2-0.6,0.3-1.2,0.4
		c-1.4,0.3-2.3-0.7-2.6-1.1c-0.8-0.1-1.3-0.4-1.6-0.8c-0.3,0.4-0.8,0.8-1.6,0.9c-0.3,0.4-1.2,1.3-2.6,1c-0.6-0.1-0.9-0.3-1.2-0.4
		c-0.3-0.2-0.5-0.3-1.2-0.1c-0.2,0-0.3,0-0.3-0.1C8,24.6,8,24.5,8,24.4l0,0l0,0l0,0l0,0c0-0.1,0-0.1,0-0.2c0-0.7-0.2-0.8-0.4-1.1
		c-0.3-0.2-0.5-0.4-0.8-1c-0.7-1.3-0.1-2.3,0.3-2.8c-0.2-0.8,0.1-1.3,0.3-1.8c-0.5-0.2-1-0.5-1.3-1.3c-0.5-0.2-1.6-0.7-1.8-2.1
		c-0.1-0.6-0.1-0.9,0-1.3c0-0.1,0-0.1,0-0.2c0-0.3,0-0.5-0.3-0.9c-0.1-0.1-0.1-0.3-0.1-0.3l0,0l0,0c0,0,0,0,0-0.1S4,11.5,4,11.4l0,0
		l0,0l0,0l0,0c0.1,0,0.1-0.1,0.2-0.1c0.2-0.1,0.3-0.2,0.4-0.3l0,0l0,0c0.3-0.2,0.3-0.3,0.4-0.5c0.2-0.3,0.3-0.6,0.8-1
		c1-1,2.2-0.8,2.7-0.7c0.7-0.4,1.3-0.4,1.8-0.3c0-0.6,0.2-1.2,0.8-1.7c0.1-0.5,0.3-1.8,1.4-2.3c0.5-0.3,0.8-0.3,1.2-0.3
		c0.2,0,0.3-0.1,0.5-0.2c0.2-0.1,0.3-0.3,0.4-0.5c0.1-0.1,0.3-0.2,0.3-0.2c0.1,0,0.1,0,0.2,0l0,0l0,0l0,0l0,0c0.1,0,0.1,0.1,0.1,0.1
		l0.1,0.1c0.1,0.1,0.1,0.1,0.1,0.2c0.1,0.1,0.3,0.3,0.3,0.3c0.2,0.2,0.3,0.2,0.5,0.2c0.3,0.1,0.8,0.2,1.3,0.4
		c1.3,0.6,1.4,1.8,1.4,2.3c0.6,0.5,0.8,1.1,0.8,1.6c0.5-0.2,1.2-0.2,1.8,0.3C21.9,8.7,23,8.5,24,9.5c0.4,0.4,0.6,0.8,0.8,1
		c0.1,0.1,0.1,0.2,0.2,0.3c0.1,0.2,0.3,0.3,0.8,0.4c0.2,0.1,0.3,0.2,0.3,0.3C26,11.6,26,11.7,26,11.7"/>
	<path class="st1" d="M24,10.9c-0.2-0.3-0.3-0.5-0.6-0.8c-0.8-0.8-1.9-0.4-1.9-0.3c-0.2,0.1-0.3,0.1-0.4-0.1
		c-0.8-0.6-1.5-0.2-1.8,0.1c1.6,1.3,2.5,3.3,2.5,5.4c0,0.6-0.1,1.2-0.2,1.7c0.4,0,1.1-0.1,1.4-1c0.1-0.2,0.2-0.3,0.3-0.3
		c0.1,0,1.2-0.3,1.3-1.4c0.1-0.5,0.1-0.8-0.1-0.9c-0.1-0.4-0.1-0.8,0.2-1.3C24.4,11.6,24.2,11.2,24,10.9"/>
</g>
</svg>
