<?xml version="1.0" encoding="utf-8"?>
<!-- Generator: Adobe Illustrator 24.1.1, SVG Export Plug-In . SVG Version: 6.00 Build 0)  -->
<svg version="1.1" id="Layer_1" xmlns="http://www.w3.org/2000/svg" xmlns:xlink="http://www.w3.org/1999/xlink" x="0px" y="0px"
	 viewBox="0 0 111.6 35.9" style="enable-background:new 0 0 111.6 35.9;" xml:space="preserve">
<style type="text/css">
	.st0{fill:#5F5E5C;}
	.st1{fill:#D41317;}
</style>
<g>
	<polygon class="st0" points="1.5,34.9 0.9,33.8 0.5,34.3 0.5,34.9 0.1,34.9 0.1,32.5 0.5,32.5 0.5,33.7 1.4,32.5 1.8,32.5 
		1.1,33.4 1.9,34.9 	"/>
	<polygon class="st0" points="3,33.9 3,34.9 2.7,34.9 2.7,33.9 2,32.5 2.4,32.5 2.8,33.6 3.3,32.5 3.7,32.5 	"/>
	<path class="st0" d="M4.9,35c-0.5,0-0.8-0.4-0.8-0.9v-1.6h0.4v1.6c0,0.3,0.2,0.5,0.5,0.5c0.3,0,0.5-0.2,0.5-0.5v-1.6h0.3v1.6
		C5.7,34.6,5.3,35,4.9,35"/>
	<polygon class="st0" points="7.7,34.9 6.7,33.2 6.7,34.9 6.3,34.9 6.3,32.5 6.6,32.5 7.7,34.2 7.7,32.5 8,32.5 8,34.9 	"/>
	<path class="st0" d="M10,34.7C9.9,34.9,9.7,35,9.4,35c-0.2,0-0.5-0.1-0.6-0.3c-0.2-0.2-0.2-0.5-0.2-1c0-0.4,0-0.7,0.2-1
		c0.1-0.1,0.4-0.2,0.6-0.2c0.5,0,0.8,0.3,0.9,0.7H9.9c0-0.2-0.2-0.4-0.5-0.4c-0.1,0-0.2,0-0.3,0.1C9,33.1,9,33.2,9,33.7
		c0,0.5,0,0.6,0.1,0.8c0.1,0.1,0.2,0.1,0.3,0.1c0.2,0,0.3,0,0.4-0.1c0.1-0.1,0.1-0.2,0.1-0.4v-0.1H9.4v-0.3h0.9V34
		C10.3,34.3,10.2,34.5,10,34.7"/>
	<polygon class="st0" points="18.5,34.9 17.9,33.8 17.5,34.3 17.5,34.9 17.1,34.9 17.1,32.5 17.5,32.5 17.5,33.7 18.5,32.5 
		18.9,32.5 18.1,33.4 18.9,34.9 	"/>
	<polygon class="st0" points="21.6,34.9 20.5,33.2 20.5,34.9 20.2,34.9 20.2,32.5 20.5,32.5 21.5,34.2 21.5,32.5 21.9,32.5 
		21.9,34.9 	"/>
	<path class="st0" d="M23.2,33l-0.4,1.1h0.7L23.2,33z M23.8,34.9l-0.2-0.5h-0.9l-0.1,0.5h-0.4l0.8-2.4h0.3l0.9,2.4H23.8z"/>
	<polygon class="st0" points="25.4,32.8 25.4,34.9 25,34.9 25,32.8 24.4,32.8 24.4,32.5 26,32.5 26,32.8 	"/>
	<polygon class="st0" points="31,34.9 29.9,33.2 29.9,34.9 29.6,34.9 29.6,32.5 29.9,32.5 31,34.2 31,32.5 31.3,32.5 31.3,34.9 	"/>
	<path class="st0" d="M32.7,33l-0.4,1.1H33L32.7,33z M33.2,34.9l-0.1-0.5h-0.9L32,34.9h-0.4l0.8-2.4h0.3l0.8,2.4H33.2z"/>
	<path class="st0" d="M37.5,35c-0.5,0-0.8-0.4-0.8-0.9v-1.6H37v1.6c0,0.3,0.2,0.5,0.5,0.5c0.3,0,0.5-0.2,0.5-0.5v-1.6h0.4v1.6
		C38.3,34.6,38,35,37.5,35"/>
	<polygon class="st0" points="40.4,34.9 39.3,33.2 39.3,34.9 39,34.9 39,32.5 39.3,32.5 40.3,34.2 40.3,32.5 40.7,32.5 40.7,34.9 	
		"/>
	<polygon class="st0" points="43.1,34.9 42.8,34.9 42.1,32.5 42.4,32.5 42.9,34.3 43.5,32.5 43.8,32.5 	"/>
	<polygon class="st0" points="44.2,34.9 44.2,32.5 45.7,32.5 45.7,32.8 44.5,32.8 44.5,33.5 45.5,33.5 45.5,33.9 44.5,33.9 
		44.5,34.6 45.7,34.6 45.7,34.9 	"/>
	<path class="st0" d="M47.1,32.8h-0.5v0.8h0.5c0.2,0,0.4-0.1,0.4-0.4C47.4,33,47.3,32.8,47.1,32.8 M47.5,34.9l-0.5-1h-0.4v1h-0.3
		v-2.4h0.9c0.5,0,0.7,0.3,0.7,0.7c0,0.4-0.2,0.6-0.5,0.6l0.5,1.1H47.5z"/>
	<polygon class="st0" points="52,32.8 52,34.9 51.7,34.9 51.7,32.8 51.1,32.8 51.1,32.5 52.7,32.5 52.7,32.8 	"/>
	<polygon class="st0" points="53.9,33.9 53.9,34.9 53.5,34.9 53.5,33.9 52.9,32.5 53.3,32.5 53.7,33.6 54.2,32.5 54.6,32.5 	"/>
	<polygon class="st0" points="57,34.9 57,33.9 56.1,33.9 56.1,34.9 55.8,34.9 55.8,32.5 56.1,32.5 56.1,33.5 57,33.5 57,32.5 
		57.4,32.5 57.4,34.9 	"/>
	<path class="st0" d="M59.3,34.7c-0.2,0.2-0.4,0.3-0.6,0.3c-0.2,0-0.4-0.1-0.6-0.3c-0.2-0.2-0.2-0.5-0.2-1c0-0.5,0-0.7,0.2-1
		c0.2-0.2,0.4-0.3,0.6-0.3c0.2,0,0.4,0.1,0.6,0.3c0.2,0.2,0.2,0.5,0.2,1C59.5,34.2,59.5,34.5,59.3,34.7 M59,33
		c-0.1-0.1-0.2-0.1-0.3-0.1c-0.1,0-0.3,0.1-0.3,0.1c-0.1,0.1-0.1,0.3-0.1,0.8c0,0.5,0,0.6,0.1,0.8c0.1,0.1,0.2,0.2,0.3,0.2
		c0.1,0,0.3-0.1,0.3-0.2c0.1-0.1,0.1-0.3,0.1-0.8C59.1,33.2,59.1,33.1,59,33"/>
	<path class="st0" d="M28.8,34.7c-0.2,0.2-0.4,0.3-0.6,0.3c-0.2,0-0.4-0.1-0.6-0.3c-0.2-0.2-0.2-0.5-0.2-1c0-0.5,0-0.7,0.2-1
		c0.2-0.2,0.4-0.3,0.6-0.3c0.2,0,0.4,0.1,0.6,0.3c0.2,0.2,0.2,0.5,0.2,1C29,34.2,29,34.5,28.8,34.7 M28.5,33
		c-0.1-0.1-0.2-0.1-0.3-0.1c-0.1,0-0.3,0.1-0.3,0.1c-0.1,0.1-0.1,0.3-0.1,0.8c0,0.5,0,0.6,0.1,0.8c0.1,0.1,0.2,0.2,0.3,0.2
		c0.1,0,0.3-0.1,0.3-0.2c0.1-0.1,0.1-0.3,0.1-0.8C28.6,33.2,28.6,33.1,28.5,33"/>
	<path class="st0" d="M14.2,34.7c-0.2,0.2-0.4,0.3-0.6,0.3c-0.2,0-0.4-0.1-0.6-0.3c-0.2-0.2-0.2-0.5-0.2-1c0-0.5,0-0.7,0.2-1
		c0.2-0.2,0.4-0.3,0.6-0.3c0.2,0,0.4,0.1,0.6,0.3c0.2,0.2,0.2,0.5,0.2,1C14.5,34.2,14.5,34.5,14.2,34.7 M14,33
		c-0.1-0.1-0.2-0.1-0.3-0.1c-0.1,0-0.3,0.1-0.3,0.1c-0.1,0.1-0.1,0.3-0.1,0.8c0,0.5,0,0.6,0.1,0.8c0.1,0.1,0.2,0.2,0.3,0.2
		c0.1,0,0.3-0.1,0.3-0.2c0.1-0.1,0.1-0.3,0.1-0.8C14.1,33.2,14.1,33.1,14,33"/>
	<path class="st0" d="M16.4,34.7C16.2,34.9,16,35,15.8,35c-0.2,0-0.4-0.1-0.6-0.3c-0.2-0.2-0.2-0.5-0.2-1c0-0.5,0-0.7,0.2-1
		c0.2-0.2,0.4-0.3,0.6-0.3c0.2,0,0.4,0.1,0.6,0.3c0.2,0.2,0.2,0.5,0.2,1C16.6,34.2,16.6,34.5,16.4,34.7 M16.1,33
		c-0.1-0.1-0.2-0.1-0.3-0.1c-0.1,0-0.3,0.1-0.3,0.1c-0.1,0.1-0.1,0.3-0.1,0.8c0,0.5,0,0.6,0.1,0.8c0.1,0.1,0.2,0.2,0.3,0.2
		c0.1,0,0.3-0.1,0.3-0.2c0.1-0.1,0.1-0.3,0.1-0.8C16.2,33.2,16.2,33.1,16.1,33"/>
	<path class="st0" d="M60.6,35c-0.3,0-0.6-0.1-0.8-0.3l0.2-0.2c0.2,0.2,0.3,0.2,0.6,0.2c0.3,0,0.5-0.1,0.5-0.4c0-0.1,0-0.2-0.1-0.3
		c-0.1-0.1-0.1-0.1-0.2-0.1l-0.3,0c-0.2,0-0.3-0.1-0.4-0.2c-0.1-0.1-0.2-0.3-0.2-0.5c0-0.4,0.3-0.7,0.8-0.7c0.3,0,0.5,0.1,0.7,0.3
		L61.1,33c-0.1-0.1-0.3-0.2-0.5-0.2c-0.3,0-0.4,0.2-0.4,0.4c0,0.1,0,0.2,0.1,0.2c0.1,0.1,0.1,0.1,0.3,0.1l0.3,0
		c0.2,0,0.3,0.1,0.4,0.2c0.1,0.1,0.2,0.3,0.2,0.5C61.4,34.7,61.1,35,60.6,35"/>
	<path class="st0" d="M48.9,35c-0.3,0-0.6-0.1-0.8-0.3l0.2-0.2c0.2,0.2,0.3,0.2,0.6,0.2c0.3,0,0.5-0.1,0.5-0.4c0-0.1,0-0.2-0.1-0.3
		c-0.1-0.1-0.1-0.1-0.3-0.1l-0.3,0c-0.2,0-0.3-0.1-0.4-0.2c-0.1-0.1-0.2-0.3-0.2-0.5c0-0.4,0.3-0.7,0.8-0.7c0.3,0,0.5,0.1,0.7,0.3
		L49.5,33c-0.1-0.1-0.3-0.2-0.5-0.2c-0.3,0-0.4,0.2-0.4,0.4c0,0.1,0,0.2,0.1,0.2c0.1,0.1,0.1,0.1,0.3,0.1l0.3,0
		c0.2,0,0.3,0.1,0.4,0.2c0.1,0.1,0.2,0.3,0.2,0.5C49.8,34.7,49.4,35,48.9,35"/>
	<path class="st0" d="M62.7,34h-0.5v1h-0.3v-2.4h0.9c0.4,0,0.7,0.3,0.7,0.7C63.4,33.7,63.1,34,62.7,34 M62.7,32.8h-0.5v0.8h0.5
		c0.2,0,0.4-0.1,0.4-0.4C63.1,33,62.9,32.8,62.7,32.8"/>
	<path class="st0" d="M11.7,34h-0.5v1h-0.3v-2.4h0.9c0.4,0,0.7,0.3,0.7,0.7C12.4,33.7,12.1,34,11.7,34 M11.7,32.8h-0.5v0.8h0.5
		c0.2,0,0.4-0.1,0.4-0.4C12.1,33,11.9,32.8,11.7,32.8"/>
	<polygon class="st0" points="65.5,32.8 65.5,34.9 65.2,34.9 65.2,32.8 64.6,32.8 64.6,32.5 66.1,32.5 66.1,32.8 	"/>
	<path class="st0" d="M67.8,34.9l-0.2-0.5h-0.9l-0.2,0.5h-0.4l0.8-2.4h0.3l0.8,2.4H67.8z M67.2,33l-0.4,1.1h0.7L67.2,33z"/>
	<polygon class="st0" points="68.5,34.9 68.5,32.5 68.8,32.5 68.8,34.6 69.9,34.6 69.9,34.9 	"/>
	<polygon class="st0" points="34,34.9 34,32.5 34.4,32.5 34.4,34.6 35.4,34.6 35.4,34.9 	"/>
	<rect x="63.8" y="32.5" class="st0" width="0.3" height="2.4"/>
	<rect x="50.3" y="32.5" class="st0" width="0.3" height="2.4"/>
	<rect x="41.3" y="32.5" class="st0" width="0.3" height="2.4"/>
	<rect x="26.4" y="32.5" class="st0" width="0.3" height="2.4"/>
	<path class="st0" d="M18.7,27.6V31h-1.4v-2.8h-6.7V27h3.3v-1H10v-1.1h9.2V26h-4v1h2.8C18.1,27,18.7,27,18.7,27.6"/>
	<path class="st0" d="M17.3,22.9h-5.3v-0.7h5.3V22.9z M11.1,24.1h7.6v-3.8h-1.4V21h-5.3v-0.8h-1.4v3.2C10.6,23.5,10.5,24,11.1,24.1"
		/>
	<path class="st0" d="M21.4,28.2h3.2v-1.2h-2.8v-5.5h2.6v-1.2h-4v7C20.4,27.3,20.4,28.2,21.4,28.2"/>
	<polygon class="st0" points="27.9,23.1 26.6,23.1 26.6,20.2 25.2,20.2 25.2,28.5 26.6,28.5 26.6,24.3 27.9,24.3 27.9,28.5 
		29.3,28.5 29.3,20.2 27.9,20.2 	"/>
	<polygon class="st0" points="47,27.2 47,23.6 45.6,23.6 45.6,27.2 44,27.2 44,23.6 42.6,23.6 42.6,27.2 40.7,27.2 40.7,28.4 
		50.4,28.4 50.4,27.2 	"/>
	<path class="st0" d="M49.7,21.2v4.3h-1.4v-3.9h-7v-1.2h7.6C48.8,20.4,49.7,20.3,49.7,21.2"/>
	<path class="st0" d="M33.6,23.1c0.7,0,1.3,0.5,1.3,1.1c0,0.6-0.5,1.1-1.3,1.1c-0.7,0-1.3-0.5-1.3-1.1
		C32.3,23.6,32.9,23.1,33.6,23.1 M32.8,22.1c-1.1,0.3-1.9,1.2-1.9,2.2c0,1.3,1.2,2.3,2.6,2.3c1.4,0,2.6-1,2.6-2.3c0-1-0.9-2-2-2.2
		v-0.3h2.2v-1.2h-2.2v-0.7h-1.4v0.7h-2v1.2h2.1L32.8,22.1L32.8,22.1z M39.2,22.7v-2.5h-1.4v6.2h1.4v-2.5h1.3v-1.2H39.2z M38.6,27.1
		h-7.3v1.2h6.6V31h1.4v-3.3C39.2,27.1,38.6,27.1,38.6,27.1"/>
	<path class="st0" d="M5.3,30.1c-1.1,0-2.1-0.6-2.1-1.5c0-0.8,1-1.5,2.1-1.5c1,0,2.2,0.6,2.2,1.5C7.5,29.6,6.3,30.1,5.3,30.1
		 M8.9,28.7L8.9,28.7c0-1.4-1.6-2.6-3.5-2.6c-2,0-3.5,1.1-3.5,2.6c0,1.4,1.6,2.6,3.5,2.6C7.3,31.2,8.9,30.1,8.9,28.7"/>
	<path class="st0" d="M7.4,20.2v1.1H5.2v1.2h2.2v1H5.1v1.2h2.2V26h1.5v-5.8H7.4z M4.5,20.3H0.2v1.1h3.2c0,0.2,0,0.5-0.2,0.9
		C2.4,24.5,0,25,0,25v1.1c5.1-0.7,4.8-5.3,4.8-5.3C4.8,20.4,4.5,20.3,4.5,20.3"/>
	<path class="st0" d="M55.2,24.5h-2.7v-1.2h2.7V24.5z M51.8,25.7h4.9v-5.3h-1.4v1.9h-2.7v-1.9h-1.4v4.7
		C51.2,25.1,51.2,25.7,51.8,25.7"/>
	<path class="st0" d="M56.4,30c-1.2,0-2.1-0.6-2.1-1.4c0-0.8,0.9-1.4,2.1-1.4c1,0,2.1,0.5,2.1,1.4C58.5,29.6,57.4,30,56.4,30
		 M59.9,28.6L59.9,28.6c0-1.4-1.6-2.6-3.5-2.6c-2,0-3.5,1.2-3.5,2.6c0,1.4,1.6,2.5,3.5,2.5C58.4,31.2,59.9,30.1,59.9,28.6"/>
	<polygon class="st0" points="58.6,20.2 58.6,21.3 56.4,21.3 56.4,22.6 58.6,22.6 58.6,23.7 56.4,23.7 56.4,24.9 58.6,24.9 
		58.6,26.3 60.1,26.3 60.1,20.2 	"/>
	<path class="st0" d="M64.6,20c-1.6,0-2.8,1.1-2.8,2.4c0,1.3,1.3,2.3,2.8,2.3c1.6,0,2.9-1,2.9-2.3C67.5,21.1,66.2,20,64.6,20
		 M64.6,23.5c-0.7,0-1.4-0.5-1.4-1.1c0-0.6,0.7-1.2,1.4-1.2c0.8,0,1.4,0.5,1.4,1.2C66,23,65.3,23.5,64.6,23.5"/>
	<polygon class="st0" points="63.9,28.1 63.9,26.3 61.1,26.3 61.1,25.2 68.1,25.2 68.1,26.3 65.3,26.3 65.3,28.1 	"/>
	<polygon class="st0" points="68.5,28 68.5,28.8 69.9,28.8 69.9,20.2 68.5,20.2 68.5,26.9 65.8,26.9 65.8,28 	"/>
	<path class="st0" d="M62.6,31h7.3v-1.2h-6.6v-2.4h-1.4v3.1C61.9,31,62.6,31,62.6,31"/>
	<path class="st1" d="M85.5,20c-0.2-0.6-0.2-1.3-0.2-2v0v0v0v0c0-0.8,0.1-1.6,0.3-2.4c0.5-1.6,1.4-3,2.7-4.1c-0.4-0.3-1.1-0.7-2.1,0
		c-0.2,0.1-0.3,0.1-0.5,0.1c-0.1,0-1.3-0.5-2.3,0.5c-0.4,0.4-0.5,0.7-0.7,0.9c-0.2,0.5-0.4,0.8-1.1,1.1c0.3,0.6,0.3,1,0.2,1.6
		c-0.1,0.3-0.1,0.6,0,1.1c0.2,1.4,1.6,1.7,1.6,1.7c0.2,0.1,0.3,0.2,0.4,0.4C84.2,19.9,85,20,85.5,20"/>
	<path class="st1" d="M100.2,21.3c0.5-1,0.8-2.2,0.8-3.4c0-4.1-3.3-7.4-7.4-7.4c-2.9,0-5.4,1.6-6.6,4c-0.5,1-0.8,2.2-0.8,3.4
		c0,4.1,3.3,7.4,7.4,7.4C96.5,25.4,99,23.7,100.2,21.3 M94.9,12.6l0.2-0.6l0.4,0.6h0.7L95.8,13l0.2,0.6l-0.7-0.2l-0.5,0.4v-0.7
		l-0.5-0.4L94.9,12.6z M92.1,19.1h3.1c0.1,0,0.2,0.1,0.2,0.2v0.3c0,0.1-0.1,0.2-0.2,0.2h-3.1c-0.2,0-0.2-0.1-0.2-0.2v-0.3
		C91.8,19.2,91.9,19.1,92.1,19.1 M92,18.4v-0.2c0-0.1,0.1-0.2,0.2-0.2H95c0.1,0,0.2,0.1,0.2,0.2v0.2c0,0.1-0.1,0.2-0.2,0.2h-2.8
		C92.1,18.6,92,18.5,92,18.4 M95.4,17.4h-3.5c-0.1,0-0.2-0.1-0.2-0.2V17c0-0.1,0.1-0.2,0.2-0.2h3.5c0.2,0,0.2,0.1,0.2,0.2v0.3
		C95.6,17.3,95.5,17.4,95.4,17.4 M91.8,20.3h3.7c0.1,0,0.2,0.1,0.2,0.2v0.2c0,0.2-0.1,0.2-0.2,0.2h-3.7c-0.1,0-0.2-0.1-0.2-0.2v-0.2
		C91.6,20.4,91.7,20.3,91.8,20.3 M95.4,15.6c0.2,0,0.2,0.1,0.2,0.3v0.2c0,0.1,0,0.2-0.2,0.2h-3.5c-0.1,0-0.2-0.1-0.2-0.2v-0.2
		c0-0.2,0.1-0.3,0.2-0.3H95.4z M91.8,12.5l0.4-0.6l0.2,0.6l0.7,0.2l-0.6,0.4l0.1,0.7L92,13.4l-0.6,0.2l0.2-0.6l-0.4-0.5H91.8z
		 M91.1,21.6c0-0.2,0.1-0.2,0.2-0.2H96c0.1,0,0.2,0,0.2,0.2v0.2c0,0.1-0.1,0.2-0.2,0.2h-4.7c-0.1,0-0.2-0.1-0.2-0.2V21.6z
		 M90.7,22.7c0-0.1,0.1-0.2,0.2-0.2h5.3c0.2,0,0.2,0.1,0.2,0.2V23c0,0.1-0.1,0.2-0.2,0.2H91c-0.1,0-0.2-0.1-0.2-0.2V22.7z M88.8,18
		v0.7l-0.6-0.4l-0.6,0.2l0.2-0.6l-0.4-0.6h0.7l0.4-0.5l0.2,0.6l0.6,0.2L88.8,18z M89.8,15v0.7l-0.5-0.4l-0.6,0.2l0.2-0.6l-0.4-0.6
		h0.7l0.4-0.6l0.2,0.7l0.7,0.2L89.8,15z M96.7,24.1c0,0.1-0.1,0.2-0.2,0.2h-5.8c-0.2,0-0.2-0.1-0.2-0.2v-0.2c0-0.1,0.1-0.2,0.2-0.2
		h5.8c0.1,0,0.2,0.1,0.2,0.2V24.1z M96.9,14.7l0.6-0.2l0.2-0.7l0.4,0.6h0.7l-0.4,0.6l0.2,0.6L98,15.3l-0.6,0.4V15L96.9,14.7z
		 M98.5,18.7V18l-0.6-0.4l0.7-0.2l0.2-0.6l0.4,0.5h0.7l-0.4,0.6l0.3,0.6L99,18.3L98.5,18.7z"/>
	<path class="st1" d="M85.8,21.1c-0.4,0.3-1,0.8-0.6,2c0.1,0.1,0,0.3-0.1,0.5c-0.1,0.1-0.9,1.1-0.3,2.3c0.2,0.5,0.5,0.7,0.7,0.9
		c0.4,0.4,0.6,0.7,0.7,1.4c0.7-0.1,1.1,0.1,1.6,0.3c0.3,0.2,0.6,0.3,1.1,0.4c1.4,0.2,2.1-0.9,2.1-1c0.1-0.2,0.3-0.3,0.5-0.3
		c1.1,0,1.5-0.7,1.6-1.2C89.8,26.2,87,24,85.8,21.1"/>
	<path class="st1" d="M102.1,23c0.4-1.1-0.3-1.7-0.7-2c-1.1,2.9-3.9,5.1-7.2,5.3c0.1,0.5,0.5,1.2,1.6,1.2c0.2,0,0.4,0.1,0.4,0.3
		c0.1,0,0.8,1.2,2.1,1c0.6-0.1,0.8-0.3,1.1-0.4c0.4-0.3,0.8-0.4,1.5-0.3c0.2-0.7,0.4-1,0.8-1.4c0.2-0.2,0.4-0.4,0.7-0.9
		c0.6-1.2-0.3-2.3-0.3-2.3C102.1,23.4,102,23.2,102.1,23"/>
	<path class="st1" d="M93.6,9.6c1.7,0,3.2,0.5,4.5,1.3c0.2-0.4,0.3-1.2-0.6-2c-0.1-0.1-0.2-0.3-0.2-0.5c0-0.1,0.1-1.4-1.1-2
		c-0.5-0.3-0.8-0.3-1.1-0.4c-0.5-0.1-0.9-0.2-1.5-0.7C93.1,5.9,92.7,6,92.2,6c-0.3,0.1-0.6,0.1-1.1,0.4c-1.3,0.6-1.1,2-1.1,2
		c0,0.2-0.1,0.4-0.2,0.5c-0.9,0.7-0.8,1.5-0.6,2C90.4,10.1,92,9.6,93.6,9.6"/>
	<path class="st1" d="M104.1,0c0,0-21,0-21,0c-4.1,0-7.4,3.3-7.4,7.4v21c0,4.1,3.3,7.4,7.4,7.4h21.1c4.1,0,7.4-3.3,7.4-7.4v-21
		C111.6,3.3,108.2,0,104.1,0 M106.9,13.9L106.9,13.9C106.9,13.9,106.9,13.9,106.9,13.9C106.9,13.9,106.9,13.9,106.9,13.9
		C106.9,13.9,106.9,13.9,106.9,13.9c0,0.1-0.1,0.2-0.1,0.2c-0.2,0.4-0.3,0.6-0.4,0.8c0,0.2,0,0.4,0,0.6c0.1,0.4,0.2,0.8,0.1,1.5
		c-0.3,1.7-1.6,2.3-2.1,2.5c-0.4,0.8-1,1.3-1.6,1.5c0.4,0.5,0.6,1.2,0.4,2.1c0.4,0.5,1,1.8,0.3,3.3c-0.3,0.6-0.7,0.9-0.9,1.2
		c-0.1,0.1-0.1,0.1-0.2,0.2c-0.2,0.2-0.3,0.5-0.3,1.2c0,0.2-0.1,0.3-0.2,0.4c-0.1,0-0.1,0.1-0.2,0.1v0h0c0,0,0,0,0,0c0,0,0,0,0,0
		c0,0,0,0,0,0c-0.1,0-0.1,0-0.2,0c-0.8-0.2-1-0.2-1.4,0c0,0,0,0,0,0c0,0,0,0,0,0c-0.3,0.2-0.7,0.4-1.4,0.5c-1.7,0.3-2.7-0.8-3.1-1.3
		c-0.9-0.1-1.5-0.5-1.9-1c-0.4,0.5-1,1-1.9,1.1c-0.4,0.5-1.4,1.5-3.1,1.2c-0.7-0.1-1.1-0.3-1.4-0.5c-0.4-0.2-0.6-0.3-1.4-0.1
		c-0.2,0-0.3,0-0.4-0.1c-0.1,0-0.1-0.1-0.1-0.2v0c0,0,0,0,0,0c0,0,0,0,0,0c0,0,0,0,0,0c0-0.1,0-0.1,0-0.2c0-0.8-0.2-1-0.5-1.3
		c-0.3-0.2-0.6-0.5-0.9-1.2c-0.8-1.5-0.1-2.8,0.3-3.3c-0.2-0.9,0.1-1.6,0.4-2.1c-0.6-0.2-1.2-0.6-1.6-1.5c-0.6-0.2-1.9-0.8-2.1-2.5
		c-0.1-0.7-0.1-1.1,0-1.5c0-0.1,0-0.1,0-0.2c0-0.3,0-0.6-0.4-1.1c-0.1-0.1-0.1-0.3-0.1-0.4v0h0c0,0,0,0,0-0.1c0-0.1,0.1-0.1,0.1-0.2
		l0,0c0,0,0,0,0,0c0,0,0,0,0,0c0,0,0,0,0,0c0.1,0,0.1-0.1,0.2-0.1c0.2-0.1,0.4-0.2,0.5-0.3c0,0,0,0,0,0c0,0,0,0,0,0
		c0.3-0.2,0.3-0.4,0.5-0.6c0.2-0.3,0.4-0.7,0.9-1.2c1.2-1.2,2.6-1,3.2-0.8c0.8-0.5,1.6-0.5,2.2-0.3c0-0.7,0.2-1.4,0.9-2
		c0.1-0.6,0.3-2.1,1.7-2.8C91.3,5.1,91.7,5,92.1,5c0.2,0,0.4-0.1,0.6-0.2c0.2-0.1,0.3-0.3,0.5-0.6C93.3,4.1,93.5,4,93.6,4
		c0.1,0,0.1,0,0.2,0h0c0,0,0,0,0,0c0,0,0,0,0,0c0,0,0,0,0,0c0.1,0,0.1,0.1,0.1,0.1L94,4.2c0.1,0.1,0.1,0.1,0.1,0.2
		c0.1,0.1,0.3,0.3,0.4,0.3c0.2,0.2,0.4,0.2,0.6,0.2C95.5,5,96,5.1,96.6,5.4c1.5,0.7,1.7,2.2,1.7,2.8c0.7,0.6,0.9,1.3,0.9,1.9
		c0.6-0.2,1.4-0.2,2.2,0.3c0.6-0.2,2-0.4,3.2,0.8c0.5,0.5,0.7,0.9,0.9,1.2c0.1,0.1,0.1,0.2,0.2,0.3c0.1,0.2,0.4,0.3,0.9,0.5
		c0.2,0.1,0.3,0.2,0.3,0.3C106.9,13.7,106.9,13.8,106.9,13.9"/>
	<path class="st1" d="M104.6,12.9c-0.2-0.3-0.3-0.6-0.7-1c-1-1-2.3-0.5-2.3-0.4c-0.2,0.1-0.3,0.1-0.5-0.1c-1-0.7-1.8-0.2-2.1,0.1
		c1.9,1.5,3,3.9,3,6.5c0,0.7-0.1,1.4-0.2,2c0.5,0,1.3-0.1,1.7-1.2c0.1-0.2,0.2-0.3,0.4-0.3c0.1,0,1.4-0.4,1.6-1.7
		c0.1-0.6,0.1-0.9-0.1-1.1c-0.1-0.5-0.1-0.9,0.2-1.6C105,13.7,104.8,13.3,104.6,12.9"/>
	<path class="st1" d="M65.7,0.9v6.2h-4.9c-0.4,0-1.2-0.2-1.3-1.2v-5h-5.2c0,0,1,0.4,1,1.8v14.2h4.1v-6.8l6.2,0v6.9l4.2,0v-16H65.7z"
		/>
	<path class="st1" d="M29.6,16.9h4.2v-11c0-5.2-4-4.9-4.4-4.9H18.3c0,0,1,0.4,1,1.8v14.2h4.2V3.5h4.8c0.5,0,1.4,0.4,1.4,1.7V16.9z"
		/>
	<path class="st1" d="M51.7,16.9v-16h-4.2v13.4h-4.9c-0.4,0-1.3-0.4-1.3-1.7V0.9h-5.2c0,0,1.1,0.2,1.1,1.8V12c0,5.2,4.4,4.9,4.4,4.9
		H51.7z"/>
	<polygon class="st1" points="5.6,7.5 12.6,16.9 17.5,16.9 10,7.4 17.1,0.9 12.9,0.9 	"/>
	<path class="st1" d="M5.4,0.9H0.2c0,0,1.1,0.2,1.1,1.8v14.2h4.2V1.1V0.9z"/>
</g>
</svg>
