<?xml version="1.0" encoding="utf-8"?>
<!-- Generator: Adobe Illustrator 24.1.1, SVG Export Plug-In . SVG Version: 6.00 Build 0)  -->
<svg version="1.1" id="Layer_1" xmlns="http://www.w3.org/2000/svg" xmlns:xlink="http://www.w3.org/1999/xlink" x="0px" y="0px"
	 viewBox="0 0 196.9 62" style="enable-background:new 0 0 196.9 62;" xml:space="preserve">
<style type="text/css">
	.st0{enable-background:new    ;}
	.st1{clip-path:url(#SVGID_2_);enable-background:new    ;}
	.st2{clip-path:url(#SVGID_4_);enable-background:new    ;}
	.st3{fill:#8F8F8F;}
	.st4{clip-path:url(#SVGID_6_);enable-background:new    ;}
	.st5{clip-path:url(#SVGID_8_);enable-background:new    ;}
	.st6{clip-path:url(#SVGID_10_);enable-background:new    ;}
	.st7{fill:#9E9E9E;}
	.st8{fill:#999999;}
	.st9{fill:#949494;}
	.st10{fill:#8A8A8A;}
	.st11{fill:#858585;}
	.st12{clip-path:url(#SVGID_12_);enable-background:new    ;}
	.st13{fill:#A3A3A3;}
	.st14{fill:#A8A8A8;}
	.st15{fill:#ADADAD;}
	.st16{fill:#FFFFFF;}
	.st17{clip-path:url(#SVGID_14_);enable-background:new    ;}
	.st18{stroke:#000000;stroke-miterlimit:10;}
	.st19{stroke:#FFFFFF;stroke-miterlimit:10;}
</style>
<g>
	<g>
		<g class="st0">
			<g class="st0">
				<g>
					<defs>
						<path id="SVGID_1_" d="M90,2.3l4.6-0.1C46.4,3.1,8.2,15.6,8.2,30.8c0,15.9,41.6,28.9,92.7,28.9l-4.5,0.1
							c-51.2,0-92.7-13-92.7-28.9C3.7,15.7,41.8,3.2,90,2.3z"/>
					</defs>
					<clipPath id="SVGID_2_">
						<use xlink:href="#SVGID_1_"  style="overflow:visible;"/>
					</clipPath>
					<g class="st1">
						<path d="M90,2.3l4.6-0.1C53,3,18.8,12.4,10.3,24.8l-4.6,0.1C14.3,12.5,48.4,3,90,2.3"/>
						<path d="M5.7,24.9l4.5-0.1c-0.4,0.6-0.8,1.2-1.1,1.9l-4.4,0C5,26.1,5.3,25.5,5.7,24.9"/>
						<path d="M4.7,26.7l4.5-0.1C9,27,8.8,27.5,8.7,27.9L4.2,28C4.3,27.6,4.5,27.2,4.7,26.7"/>
						<path d="M4.1,28.1L8.6,28c-0.1,0.4-0.2,0.8-0.3,1.2l-4.5,0.1C3.9,28.8,4,28.5,4.1,28.1"/>
						<path d="M3.8,29.2l4.5-0.1c-0.1,0.4-0.1,0.7-0.1,1.1l-4.5,0.1C3.7,29.9,3.8,29.5,3.8,29.2"/>
						<path d="M3.7,30.3l4.5-0.1c0,0.2,0,0.4,0,0.7c0,0.2,0,0.4,0,0.5l-4.5,0.1c0-0.2,0-0.4,0-0.5C3.7,30.7,3.7,30.5,3.7,30.3"/>
						<path d="M3.7,31.5l4.5-0.1c0,0.4,0.1,0.9,0.2,1.3l-4.5,0.1C3.8,32.3,3.7,31.9,3.7,31.5"/>
						<path d="M3.8,32.8l4.5-0.1C8.4,33.3,8.7,34,9,34.7l-4.5,0.1C4.2,34.1,4,33.4,3.8,32.8"/>
						<path d="M4.5,34.8L9,34.7c0.8,1.8,2.1,3.5,3.8,5.1l-4.5,0.1C6.5,38.3,5.3,36.6,4.5,34.8"/>
						<path d="M8.3,40l4.5-0.1c1.5,1.4,3.2,2.6,5.3,3.9l-4.5,0.1C11.5,42.6,9.8,41.4,8.3,40"/>
						<path d="M13.6,43.9l4.5-0.1c2.2,1.4,4.8,2.7,7.7,3.9l-4.5,0.1C18.5,46.6,15.8,45.3,13.6,43.9"/>
						<path d="M21.3,47.8l4.5-0.1c3.8,1.7,8.1,3.1,12.8,4.5l-4.5,0.1C29.4,50.9,25.1,49.5,21.3,47.8"/>
						<path d="M34.2,52.3l4.5-0.1c6.4,1.9,13.7,3.3,21.5,4.6l-4.5,0.1C47.9,55.6,40.7,54.2,34.2,52.3"/>
						<path d="M55.7,56.9l4.5-0.1c10.1,1.6,21.2,2.5,32.9,2.8l-4.5,0.1C76.9,59.4,65.9,58.5,55.7,56.9"/>
						<path d="M88.6,59.7l4.5-0.1c2.5,0.1,5.2,0.1,7.8,0.1l-4.5,0.1C93.8,59.8,91.3,59.8,88.6,59.7"/>
					</g>
				</g>
			</g>
			<g class="st0">
				<g>
					<defs>
						<path id="SVGID_3_" d="M94.6,2.2c2.1,0,4.3-0.1,6.4-0.1l-4.5,0.1c-2.1,0-4.3,0-6.4,0.1C91.4,2.2,93.2,2.2,94.6,2.2z"/>
					</defs>
					<clipPath id="SVGID_4_">
						<use xlink:href="#SVGID_3_"  style="overflow:visible;"/>
					</clipPath>
					<g class="st2">
						<path class="st3" d="M90,2.3l4.6-0.1c2.1,0,4.3-0.1,6.4-0.1l-4.5,0.1C94.3,2.2,92.2,2.2,90,2.3"/>
					</g>
				</g>
			</g>
			<g class="st0">
				<g>
					<defs>
						<path id="SVGID_5_" d="M90.1,1.3l4.5-0.1c2.1,0,4.2-0.1,6.4-0.1l-4.5,0.1C94.3,1.2,92.3,1.2,90.1,1.3z"/>
					</defs>
					<clipPath id="SVGID_6_">
						<use xlink:href="#SVGID_5_"  style="overflow:visible;"/>
					</clipPath>
					<g class="st4">
						<path d="M90.1,1.3l4.5-0.1c2.1,0,4.2-0.1,6.4-0.1l-4.5,0.1C94.3,1.2,92.3,1.2,90.1,1.3"/>
					</g>
				</g>
			</g>
			<g class="st0">
				<g>
					<defs>
						<path id="SVGID_7_" d="M107.4,59.6l-4.5,0.1c-2.1,0-4.3,0.1-6.4,0.1l4.5-0.1C103.1,59.7,105.2,59.7,107.4,59.6z"/>
					</defs>
					<clipPath id="SVGID_8_">
						<use xlink:href="#SVGID_7_"  style="overflow:visible;"/>
					</clipPath>
					<g class="st5">
						<path d="M96.5,59.8l4.5-0.1c2.1,0,4.3,0,6.4-0.1l-4.5,0.1C100.8,59.8,98.6,59.8,96.5,59.8"/>
					</g>
				</g>
			</g>
			<g class="st0">
				<g>
					<defs>
						<path id="SVGID_9_" d="M193.8,31c0,15.2-38.2,27.7-86.4,28.7l-4.5,0.1c48.2-1,86.3-13.5,86.4-28.7l0,0
							C190.8,31,192.2,31,193.8,31L193.8,31z"/>
					</defs>
					<clipPath id="SVGID_10_">
						<use xlink:href="#SVGID_9_"  style="overflow:visible;"/>
					</clipPath>
					<g class="st6">
						<path class="st7" d="M189.2,30.5l4.5-0.1c0,0.2,0,0.4,0,0.5c0,0.2,0,0.4,0,0.7l-4.5,0.1c0-0.2,0-0.4,0-0.7
							C189.2,30.9,189.2,30.7,189.2,30.5"/>
						<path class="st8" d="M189.2,31.7l4.5-0.1c0,0.4-0.1,0.7-0.1,1.1l-4.5,0.1C189.1,32.5,189.2,32.1,189.2,31.7"/>
						<path class="st9" d="M189.1,32.8l4.5-0.1c-0.1,0.4-0.2,0.8-0.3,1.2l-4.5,0.1C188.9,33.5,189,33.1,189.1,32.8"/>
						<path class="st3" d="M188.8,33.9l4.5-0.1c-0.1,0.4-0.3,0.9-0.5,1.3l-4.5,0.1C188.4,34.8,188.6,34.4,188.8,33.9"/>
						<path class="st10" d="M188.2,35.3l4.5-0.1c-0.3,0.6-0.7,1.3-1.1,1.9l-4.5,0.1C187.6,36.5,187.9,35.9,188.2,35.3"/>
						<path class="st11" d="M187.1,37.1l4.5-0.1c-8.5,12.4-42.7,21.8-84.3,22.7l-4.5,0.1C144.5,58.9,178.6,49.5,187.1,37.1"/>
					</g>
				</g>
			</g>
			<g class="st0">
				<g>
					<defs>
						<path id="SVGID_11_" d="M101,2.1c51.1,0,92.7,13,92.7,28.9c-1.5,0-3,0.1-4.5,0.1c0-15.9-41.6-28.8-92.7-28.9
							C97.8,2.2,99.7,2.1,101,2.1z"/>
					</defs>
					<clipPath id="SVGID_12_">
						<use xlink:href="#SVGID_11_"  style="overflow:visible;"/>
					</clipPath>
					<g class="st12">
						<path class="st3" d="M96.5,2.2l4.5-0.1c2.6,0,5.2,0,7.8,0.1l-4.5,0.1C101.6,2.2,99.1,2.2,96.5,2.2"/>
						<path class="st9" d="M104.3,2.3l4.5-0.1c11.7,0.3,22.9,1.3,32.9,2.8l-4.5,0.1C127,3.5,116,2.6,104.3,2.3"/>
						<path class="st8" d="M137.2,5.1l4.5-0.1c7.9,1.2,15.1,2.7,21.5,4.6l-4.5,0.1C152.3,7.8,145,6.4,137.2,5.1"/>
						<path class="st7" d="M158.7,9.7l4.5-0.1c4.8,1.4,9.1,2.8,12.8,4.5l-4.5,0.1C167.8,12.5,163.5,11.1,158.7,9.7"/>
						<path class="st13" d="M171.6,14.2l4.5-0.1c2.9,1.3,5.5,2.5,7.7,3.9l-4.5,0.1C177.1,16.7,174.4,15.4,171.6,14.2"/>
						<path class="st14" d="M179.3,18.1l4.5-0.1c2.1,1.3,3.8,2.5,5.3,3.9l-4.5,0.1C183.1,20.6,181.4,19.4,179.3,18.1"/>
						<path class="st15" d="M184.6,22l4.5-0.1c1.8,1.7,3,3.3,3.8,5.1l-4.5,0.1C187.6,25.4,186.4,23.7,184.6,22"/>
						<path class="st14" d="M188.4,27.2l4.5-0.1c0.3,0.7,0.5,1.4,0.7,2.1l-4.5,0.1C188.9,28.6,188.7,27.9,188.4,27.2"/>
						<path class="st13" d="M189,29.2l4.5-0.1c0.1,0.4,0.1,0.9,0.2,1.3l-4.5,0.1C189.2,30.1,189.1,29.7,189,29.2"/>
						<path class="st7" d="M189.2,30.5l4.5-0.1c0,0.2,0,0.4,0,0.5c0,0.2,0,0.4,0,0.7l-4.5,0.1c0-0.2,0-0.4,0-0.7
							C189.2,30.9,189.2,30.7,189.2,30.5"/>
					</g>
				</g>
			</g>
			<g>
				<path class="st16" d="M96.5,2.2c51.1,0,92.7,13,92.7,28.9s-41.6,28.8-92.7,28.7c-51.2,0-92.7-13-92.7-28.9S45.3,2.1,96.5,2.2z"
					/>
			</g>
			<g class="st0">
				<g>
					<defs>
						<path id="SVGID_13_" d="M107.3,60.6l-4.5,0.1c48.8-1,87.4-13.9,87.4-29.7c0-16.4-42-29.8-93.7-29.9l4.5-0.1
							c51.7,0,93.7,13.5,93.7,29.9C194.7,46.7,156.1,59.6,107.3,60.6z"/>
					</defs>
					<clipPath id="SVGID_14_">
						<use xlink:href="#SVGID_13_"  style="overflow:visible;"/>
					</clipPath>
					<g class="st17">
						<path d="M96.5,1.2l4.5-0.1c2.5,0,5.2,0,7.7,0.1l-4.5,0.1C101.6,1.2,99.1,1.2,96.5,1.2"/>
						<path d="M104.2,1.3l4.5-0.1c11.6,0.3,22.7,1.3,32.6,2.8l-4.5,0.1C126.7,2.6,115.8,1.6,104.2,1.3"/>
						<path d="M136.8,4.1l4.5-0.1c7.9,1.2,15.2,2.7,21.7,4.6l-4.5,0.1C152.1,6.9,144.7,5.3,136.8,4.1"/>
						<path d="M158.6,8.7l4.5-0.1c4.9,1.4,9.3,2.9,13.1,4.6l-4.5,0.1C167.8,11.6,163.4,10.1,158.6,8.7"/>
						<path d="M171.7,13.3l4.5-0.1c3,1.3,5.7,2.6,8,4.1l-4.5,0.1C177.4,15.9,174.7,14.6,171.7,13.3"/>
						<path d="M179.7,17.4l4.5-0.1c2.1,1.4,4,2.7,5.5,4.1l-4.5,0.1C183.7,20.1,181.9,18.7,179.7,17.4"/>
						<path d="M185.3,21.5l4.5-0.1c1.9,1.8,3.2,3.5,4,5.5l-4.5,0.1C188.5,25.1,187.1,23.3,185.3,21.5"/>
						<path d="M189.3,27l4.5-0.1c0.3,0.7,0.6,1.5,0.7,2.1l-4.5,0.1C189.8,28.5,189.6,27.7,189.3,27"/>
						<path d="M190,29.1l4.5-0.1c0.1,0.5,0.2,0.9,0.2,1.4l-4.5,0.1C190.2,30,190.1,29.6,190,29.1"/>
						<path d="M190.2,30.5l4.5-0.1c0,0.2,0,0.4,0,0.6s0,0.5,0,0.7l-4.5,0.1c0-0.2,0-0.5,0-0.7S190.2,30.7,190.2,30.5"/>
						<path d="M190.2,31.8l4.5-0.1c0,0.4-0.1,0.8-0.2,1.2L190,33C190.1,32.6,190.1,32.2,190.2,31.8"/>
						<path d="M190,32.9l4.5-0.1c-0.1,0.4-0.2,0.8-0.3,1.3l-4.5,0.1C189.8,33.7,189.9,33.3,190,32.9"/>
						<path d="M189.7,34.1l4.5-0.1c-0.2,0.5-0.3,0.9-0.5,1.4l-4.5,0.1C189.4,35,189.5,34.6,189.7,34.1"/>
						<path d="M189.1,35.5l4.5-0.1c-0.3,0.7-0.7,1.3-1.1,2l-4.5,0.1C188.5,36.8,188.8,36.2,189.1,35.5"/>
						<path d="M188,37.4l4.5-0.1c-8.7,12.7-43.2,22.5-85.2,23.4l-4.5,0.1C144.8,59.9,179.3,50.2,188,37.4"/>
					</g>
				</g>
			</g>
			<g>
				<path class="st18" d="M96.5,1.2c51.7,0,93.7,13.5,93.7,29.9s-42,29.8-93.7,29.7c-51.7,0-93.7-13.5-93.7-29.9S44.8,1.2,96.5,1.2z
					 M96.5,59.8c51.1,0,92.7-12.9,92.7-28.7c0-15.9-41.6-28.8-92.7-28.9C45.3,2.1,3.7,15.1,3.7,30.9C3.7,46.8,45.2,59.8,96.5,59.8"
					/>
			</g>
		</g>
	</g>
	<g>
		<path class="st19" d="M72.2,15.6L58,50.1L43.9,15.6h11.2l3,10.2l3.2-10.2H72.2z"/>
		<path class="st19" d="M91.7,28.3v7.2h-6.4c-0.9,0-1.5,0.1-1.9,0.4c-0.4,0.3-0.5,0.7-0.5,1.3c0,0.7,0.2,1.2,0.6,1.4
			c0.4,0.2,1.1,0.3,2.2,0.3h6.5v9.3h-7.6c-3.6,0-6.4-0.9-8.2-2.5c-1.9-1.8-2.8-4.2-2.8-7.4V25.4c0-3.1,0.9-5.6,2.6-7.2
			c1.8-1.7,4.3-2.5,7.5-2.5h8.4V25h-6.2c-1.7,0-2.5,0.6-2.5,1.7c0,0.7,0.2,1.1,0.6,1.4c0.4,0.3,1.1,0.4,2.1,0.4h5.4V28.3z"/>
		<path class="st19" d="M115.2,28.3v7.2h-6.4c-0.9,0-1.5,0.1-1.9,0.4c-0.4,0.3-0.5,0.7-0.5,1.3c0,0.7,0.2,1.2,0.6,1.4
			c0.4,0.2,1.1,0.3,2.2,0.3h6.5v9.3h-7.6c-3.6,0-6.4-0.9-8.2-2.5c-1.9-1.7-2.8-4.2-2.8-7.4V25.4c0-3.1,0.9-5.6,2.6-7.2
			c1.8-1.7,4.3-2.5,7.5-2.5h8.4V25h-6.2c-1.7,0-2.5,0.6-2.5,1.7c0,0.7,0.2,1.1,0.6,1.4c0.4,0.3,1.1,0.4,2.1,0.4h5.4V28.3z"/>
		<path class="st19" d="M120.8,48.2V27c0-3.7,1.1-6.6,3.3-8.9s5.2-3.3,8.9-3.3s6.4,1.1,8.4,3.2c2,2.1,2.9,5.3,2.9,9.3v20.8h-9.7
			V27.4c0-2-0.7-3-2.1-3c-1.4,0-2.1,1-2.1,3v20.8C130.5,48.2,120.8,48.2,120.8,48.2z"/>
	</g>
</g>
</svg>
