<?xml version="1.0" encoding="UTF-8"?>
<svg id="_레이어_2" data-name="레이어 2" xmlns="http://www.w3.org/2000/svg" viewBox="0 0 1650.84 660.37">
  <defs>
    <style>
      .cls-1 {
        fill: #18254a;
      }
    </style>
  </defs>
  <g id="_레이어_1_사본" data-name="레이어 1 사본">
    <g>
      <path class="cls-1" d="m361.66,391.37c0,6.39-1.83,8.22-8.22,8.22h-20.23c-6.39,0-8.22-1.83-8.22-8.22v-93.12h-31.95c-6.39,0-8.22-1.83-8.22-8.07v-14.76c0-6.39,1.83-8.22,8.22-8.22h100.58c6.23,0,8.06,1.83,8.06,8.22v14.76c0,6.24-1.83,8.07-8.06,8.07h-31.95v93.12Z"/>
      <path class="cls-1" d="m445.66,391.37c0,6.39-1.83,8.22-8.22,8.22h-18.71c-6.39,0-8.22-1.83-8.22-8.22v-115.94c0-6.39,1.83-8.22,8.22-8.22h18.71c6.39,0,8.22,1.83,8.22,8.22v115.94Zm16.13-41.69c-6.39,0-8.22-1.83-8.22-8.06v-17.8c0-6.39,1.83-8.22,8.22-8.22h36.22v-40.17c0-6.39,1.82-8.22,8.21-8.22h18.72c6.39,0,8.22,1.83,8.22,8.22v115.94c0,6.39-1.83,8.22-8.22,8.22h-18.72c-6.39,0-8.21-1.83-8.21-8.22v-41.69h-36.22Z"/>
      <path class="cls-1" d="m552.94,399.59c-6.39,0-8.22-1.83-8.22-8.22v-115.94c0-6.39,1.83-8.22,8.22-8.22h94.03c6.39,0,8.22,1.83,8.22,8.22v14.76c0,6.24-1.83,8.07-8.22,8.07h-67.1v70.29h67.1c6.39,0,8.22,1.83,8.22,8.07v14.76c0,6.39-1.83,8.22-8.22,8.22h-94.03Zm42.91-51.43c-6.39,0-8.07-1.83-8.07-8.22v-14.61c0-6.39,1.68-8.22,8.07-8.22h46.56c6.39,0,8.21,1.83,8.21,8.22v14.61c0,6.39-1.82,8.22-8.21,8.22h-46.56Z"/>
      <path class="cls-1" d="m764.75,399.59c-30.28,0-54.62-15.68-54.62-58.89v-14.61c0-43.36,24.35-58.89,54.62-58.89h53.87c6.24,0,8.06,1.83,8.06,8.22v14.76c0,6.24-1.82,8.07-8.06,8.07h-48.69c-17.2,0-24.65,8.06-24.65,26.32v17.65c0,18.26,7.45,26.32,24.65,26.32h48.69c6.24,0,8.06,1.83,8.06,8.07v14.76c0,6.39-1.82,8.22-8.06,8.22h-53.87Z"/>
      <path class="cls-1" d="m835.82,323.81c0-43.36,24.35-58.89,54.62-58.89h13.39c30.28,0,54.62,15.52,54.62,58.89v42.45c0,25.26-8.22,33.33-32.26,33.33h-58.12c-23.89,0-32.26-8.07-32.26-33.33v-42.45Zm35.15,33.17c0,8.07,2.43,11.56,11.56,11.56h29.21c9.13,0,11.56-3.5,11.56-11.56v-36.21c0-15.98-6.7-24.8-21.61-24.8h-9.13c-14.91,0-21.6,8.82-21.6,24.8v36.21Z"/>
      <path class="cls-1" d="m991.95,276.64c1.37-5.93,4.11-9.43,13.24-9.43h19.17c7.3,0,9.29,3.65,7.76,10.65l-24.95,112.29c-1.37,5.94-4.11,9.44-13.24,9.44h-19.63c-6.85,0-8.67-3.96-7.15-10.65l24.8-112.29Zm49.91,0c1.37-5.93,4.11-9.43,13.24-9.43h19.17c7.3,0,9.28,3.65,7.76,10.65l-24.5,112.29c-1.37,5.94-4.11,9.44-13.24,9.44h-19.02c-6.85,0-10.19-2.59-8.67-9.28l25.26-113.66Zm83.08,113.66c1.52,6.69-1.83,9.28-8.67,9.28h-19.02c-9.13,0-11.87-3.5-13.24-9.44l-6.54-29.52c-1.98-8.98-1.98-12.78.15-22.82l10.5-48.23c.91-4.11,2.89-6.7,7.3-6.7s6.24,2.59,7.15,6.7l22.37,100.73Z"/>
      <path class="cls-1" d="m1209.7,337.66c7.3,0,11.41-5.17,11.41-12.94v-13.54c0-7.76-4.11-12.93-11.41-12.93h-41.08v93.12c0,6.39-1.83,8.22-8.22,8.22h-18.71c-6.39,0-8.22-1.83-8.22-8.22v-115.94c0-6.39,1.83-8.22,8.22-8.22h71.97c28.15,0,42.45,20.39,42.45,44.43v12.63c0,24.04-14.31,44.43-42.45,44.43h-28.91c-6.39,0-8.22-1.82-8.22-8.06v-14.76c0-6.39,1.83-8.21,8.22-8.21h24.95Z"/>
      <path class="cls-1" d="m1286.85,276.64c1.98-5.63,4.11-9.43,13.24-9.43h20.08c5.48,0,7.61,3.81,5.63,9.28l-39.71,113.66c-1.98,5.63-4.11,9.44-13.24,9.44h-20.54c-5.48,0-7.61-3.81-5.63-9.28l40.17-113.66Zm89.47,113.66c1.83,5.48-.61,9.28-6.08,9.28h-20.54c-9.13,0-11.41-3.81-13.24-9.44l-5.63-18.26h-19.02c-5.78,0-8.07-4.41-5.93-10.35l22.82-65.43c1.67-4.87,4.11-7.6,8.67-7.6s7.15,2.74,8.67,7.6l30.28,94.19Z"/>
      <path class="cls-1" d="m1420.15,391.37c0,6.39-1.83,8.22-8.22,8.22h-18.71c-6.39,0-8.22-1.83-8.22-8.22v-115.94c0-6.39,1.83-8.22,8.22-8.22h18.71c9.28,0,12.78,1.06,20.24,12.02l73.04,108.33c4.26,6.24,2.58,12.02-4.26,12.02h-20.69c-9.29,0-12.94-1.07-20.24-12.02l-39.87-59.34v63.15Zm52.34-115.94c0-6.39,1.82-8.22,8.21-8.22h18.72c6.39,0,8.22,1.83,8.22,8.22v74.56c0,5.48-1.68,8.37-5.18,9.13-3.35.76-6.7-1.07-9.43-5.18l-15.98-23.59c-3.35-5.02-4.56-9.43-4.56-16.89v-38.04Z"/>
      <path class="cls-1" d="m1517.24,277.25c-3.04-5.02-1.52-10.04,4.41-10.04h21.3c7.76,0,10.8,2.28,13.84,7.76l40.78,71.21c2.28,3.81,2.89,7.45,2.89,14.3v30.89c0,6.39-1.83,8.22-8.22,8.22h-18.71c-6.39,0-8.22-1.83-8.22-8.22v-29.82c0-2.74-.46-4.87-1.98-7.3l-46.1-77Zm97.99,56.76c-3.04,5.18-4.41,6.08-7.45,6.08s-4.56-1.22-7.61-6.08l-7.6-12.78c-3.5-5.93-3.65-9.74-.15-15.83l17.34-30.43c3.04-5.48,6.09-7.76,13.85-7.76h21.3c5.94,0,7.46,5.02,4.41,10.04l-34.08,56.76Z"/>
    </g>
    <g>
      <path class="cls-1" d="m330.18,477.48c-81.22,0-147.29-66.08-147.29-147.29s66.08-147.29,147.29-147.29c39.68,0,75.67,15.84,102.18,41.45l56.99-55.4c-40.97-40.44-97.2-65.47-159.18-65.47-125.01,0-226.72,101.7-226.72,226.72s101.7,226.72,226.72,226.72c61.46,0,117.25-24.62,158.13-64.47l-55.24-57.04c-26.57,25.99-62.87,42.08-102.89,42.08Z"/>
      <path class="cls-1" d="m330.18,580.95c-138.27,0-250.76-112.49-250.76-250.76s112.49-250.77,250.76-250.77c68.73,0,131.08,27.81,176.42,72.76l56.95-55.36C503.76,37.03,421.22,0,330.18,0,148.12,0,0,148.12,0,330.19s148.12,330.18,330.18,330.18c89.4,0,170.55-35.77,230.07-93.67l-55.22-57.01c-45.21,44.05-106.9,71.26-174.85,71.26Z"/>
    </g>
    <g>
      <path class="cls-1" d="m767.61,534.17c-.33.26-.67.45-1.03.6-2.89.87-6.5,1.61-10.8,2.23-4.31.61-8.76,1.11-13.36,1.47s-9.08.6-13.46.7c-4.38.11-8.06.05-11.02-.17-2.67-.14-4.65-.74-5.91-1.79-1.26-1.05-1.9-2.88-1.9-5.48v-51.45c0-2.54.52-4.31,1.57-5.32,1.05-1.01,2.95-1.52,5.7-1.52h38.31c1.01,0,1.52.48,1.52,1.42v7.59c0,.95-.51,1.42-1.52,1.42h-31.15c-1.3,0-1.95.61-1.95,1.84v39.62c0,1.16.2,1.9.6,2.23.39.33,1.28.56,2.66.7,2.24.14,4.92.18,8.03.11,3.11-.07,6.42-.25,9.93-.54,3.51-.29,7.07-.65,10.69-1.09,3.61-.43,7.06-.94,10.31-1.51,1.08-.36,1.73.04,1.95,1.19l1.08,6.19c.14.8.05,1.32-.27,1.57Zm10.15-67.46c0-.95.47-1.42,1.41-1.42h9.66c.94,0,1.41.47,1.41,1.42v100.19c0,.94-.47,1.41-1.41,1.41h-9.66c-.94,0-1.41-.47-1.41-1.41v-57.53h-25.73c-.29,0-.64-.14-1.03-.44-.4-.29-.6-.72-.6-1.3v-7.06c0-.5.2-.9.6-1.19.39-.29.74-.44,1.03-.44h25.73v-32.23Z"/>
      <path class="cls-1" d="m812.82,491.18c.36-.33.65-.48.87-.48,4.78-.08,9.84-.18,15.2-.33,5.35-.14,10.28-.4,14.77-.76.58-1.01,1.07-2.07,1.46-3.2.4-1.12.78-2.23,1.14-3.32.36-1.23.54-2.04.54-2.44s-.68-.6-2.06-.6h-30.07c-.51,0-.89-.18-1.14-.55-.25-.36-.38-.76-.38-1.19v-6.95c0-1.01.55-1.52,1.63-1.52h36.69c3.18,0,5.43.51,6.73,1.52,1.3,1.01,1.95,2.68,1.95,4.99,0,.3-.04.71-.11,1.25-.07.55-.16,1.11-.27,1.69-.11.58-.22,1.1-.33,1.57-.11.48-.2.82-.27,1.04-2.54,9.84-7.51,18.61-14.92,26.32-7.42,7.71-16.85,13.92-28.28,18.62-1.67.72-2.82.43-3.48-.87l-2.82-5.54c-.36-.58-.48-1.17-.33-1.79.14-.61.58-1.1,1.3-1.46,5.57-2.32,10.47-4.94,14.7-7.87,4.23-2.93,7.91-6.02,11.02-9.28-3.91.29-7.78.51-11.62.65-3.83.14-7.49.21-10.96.21-.29,0-.61-.14-.98-.43s-.54-.69-.54-1.2v-6.94c0-.43.17-.82.54-1.14Zm75.93,73.77c-1.19,1.15-3.17,1.73-5.91,1.73h-48.41c-3.26,0-5.44-.58-6.56-1.73-1.12-1.16-1.68-3.15-1.68-5.97v-21.71c0-2.75.59-4.74,1.79-5.97,1.2-1.23,3.17-1.85,5.91-1.85h48.41c3.26,0,5.44.6,6.57,1.79,1.12,1.2,1.68,3.24,1.68,6.13v21.72c0,2.75-.6,4.7-1.79,5.86Zm-10.58-24c0-.65-.1-1.06-.27-1.24-.18-.18-.56-.27-1.14-.27h-36.8c-.58,0-.95.07-1.14.21-.18.15-.27.51-.27,1.09v14.55c0,.65.09,1.04.27,1.19.18.15.56.22,1.14.22h36.8c.58,0,.96-.07,1.14-.22.17-.14.27-.54.27-1.19v-14.33Zm-20.52-39.94v-7.71c0-.36.18-.67.55-.92.36-.25.72-.38,1.08-.38h18.89v-25.29c0-.95.47-1.42,1.41-1.42h9.66c.94,0,1.41.47,1.41,1.42v55.9c0,.94-.47,1.41-1.41,1.41h-9.66c-.94,0-1.41-.47-1.41-1.41v-20.19h-18.89c-.36,0-.73-.14-1.08-.43-.36-.29-.55-.61-.55-.98Z"/>
      <path class="cls-1" d="m908.66,528.25c1.81.08,3.57.11,5.26.11h5.05v-44.5h-8.68c-.36,0-.76-.18-1.2-.55-.43-.36-.65-.76-.65-1.2v-6.73c0-.43.22-.83.65-1.19.44-.36.83-.55,1.2-.55h54.93c.44,0,.82.17,1.14.49.33.33.48.74.48,1.24v6.84c0,.43-.16.81-.48,1.14-.33.33-.7.49-1.14.49h-8.79v42.99c4.41-.36,8.61-.8,12.59-1.3.36-.08.76-.02,1.2.16.43.18.68.45.76.82l.98,6.84c.14.58.05,1.01-.27,1.3-.33.29-.67.47-1.03.55-4.34.65-9,1.21-13.95,1.68-4.96.47-10.09.83-15.42,1.08-5.32.26-10.73.42-16.23.49-5.5.07-10.96.04-16.39-.11-.43,0-.8-.16-1.08-.48-.3-.33-.44-.7-.44-1.14v-6.94c0-1.01.51-1.52,1.52-1.52Zm29.14-.22c2.21-.07,4.4-.17,6.57-.33v-43.85h-13.24v44.39c2.24-.07,4.47-.14,6.67-.22Zm43.05-61.32c0-.95.47-1.42,1.41-1.42h9.66c.94,0,1.41.47,1.41,1.42v100.19c0,.94-.47,1.41-1.41,1.41h-9.66c-.94,0-1.41-.47-1.41-1.41v-56.45h-14.77c-.29,0-.64-.14-1.03-.43-.4-.29-.6-.69-.6-1.2v-7.16c0-.51.2-.91.6-1.2.39-.29.74-.43,1.03-.43h14.77v-33.32Z"/>
      <path class="cls-1" d="m1074.81,533.03c-.4.43-.92.73-1.57.87-3.11.86-6.66,1.59-10.64,2.17-3.98.58-8.11,1.03-12.38,1.36-4.27.33-8.59.55-12.97.66-4.38.11-8.56.05-12.54-.17-2.82-.14-4.85-.94-6.07-2.39-1.23-1.45-1.85-3.41-1.85-5.87v-56.55c0-.36.16-.7.48-1.03s.67-.48,1.04-.48h9.34c.43,0,.81.16,1.14.48.33.33.49.67.49,1.03v52.44c0,.72.14,1.17.43,1.36.29.18.83.31,1.63.38,5.78.36,12.08.27,18.88-.27,6.81-.54,13.93-1.57,21.39-3.09.72-.14,1.24-.02,1.57.38.33.39.55.85.7,1.36l1.3,5.97c.14.5.02.98-.38,1.41Zm19.81,33.87c0,.94-.47,1.41-1.42,1.41h-9.65c-.95,0-1.42-.47-1.42-1.41v-100.19c0-.95.47-1.42,1.42-1.42h9.65c.95,0,1.42.47,1.42,1.42v100.19Z"/>
      <path class="cls-1" d="m1141.51,545.62c-.58.65-1.17,1.08-1.79,1.3-.62.22-1.29.04-2.01-.55l-5.1-4.23c-.58-.51-.82-1.03-.71-1.57.11-.54.42-1.14.92-1.79,1.3-1.59,2.51-3.2,3.64-4.83,1.12-1.63,2.19-3.35,3.2-5.16-1.59-1.67-3.11-3.57-4.56-5.7s-2.79-4.36-4.01-6.68c-1.59,3.7-3.48,7.21-5.65,10.53-2.17,3.33-4.63,6.63-7.38,9.88-.58.65-1.2,1.08-1.85,1.3-.65.21-1.3.04-1.95-.55l-5.1-4.34c-.58-.44-.81-.92-.7-1.47.11-.55.42-1.17.92-1.9,3.4-4.19,6.2-8.28,8.41-12.27,2.2-3.98,3.96-8.21,5.26-12.7,1.3-4.49,2.23-9.37,2.77-14.65.54-5.29.81-11.29.81-18.02,0-.44.17-.82.49-1.14s.7-.48,1.14-.48l8.47.33c.36,0,.69.16.98.48.29.33.44.7.44,1.14,0,5.43-.18,10.43-.55,15.03-.36,4.6-.94,8.92-1.73,12.97.94,3.04,2.23,6.08,3.85,9.12,1.63,3.04,3.38,5.78,5.26,8.25,5.21-13.24,7.81-28.48,7.81-45.7,0-.44.17-.82.49-1.14.33-.33.67-.48,1.03-.48l8.57.33c.36,0,.69.16.98.48.29.33.44.7.44,1.14,0,5.07-.23,9.96-.7,14.7-.48,4.74-1.14,9.32-2.01,13.74.44,2.46,1.3,5.04,2.6,7.76,1.3,2.71,2.77,5.35,4.4,7.92,1.63,2.57,3.32,4.94,5.1,7.11,1.77,2.17,3.35,3.91,4.72,5.21,1.23,1.09,1.3,2.25.22,3.48l-4.01,4.45c-.44.43-.95.7-1.52.82-.58.11-1.23-.09-1.95-.6-1.08-.87-2.28-2.01-3.58-3.42-1.3-1.41-2.6-2.98-3.91-4.72-1.3-1.73-2.54-3.54-3.7-5.42-1.16-1.89-2.14-3.73-2.93-5.54-3.98,10.99-9.15,20.19-15.52,27.57Zm54.49,22.69h-9.01c-.94,0-1.41-.47-1.41-1.41v-100.19c0-.95.47-1.42,1.41-1.42h9.01c.94,0,1.41.47,1.41,1.42v100.19c0,.94-.47,1.41-1.41,1.41Z"/>
      <path class="cls-1" d="m1274.53,487.71c-.33.33-.7.48-1.14.48h-56.67c-.36,0-.74-.18-1.14-.55-.4-.36-.6-.76-.6-1.19v-5.65c0-.36.21-.76.65-1.19.43-.44.83-.65,1.2-.65l56.55.11c.43,0,.81.16,1.14.48.33.33.49.75.49,1.25v5.75c0,.43-.17.82-.49,1.14Zm-28.92,3.74c3.26,0,6.31.4,9.17,1.2,2.85.8,5.32,1.94,7.38,3.41,2.06,1.48,3.69,3.26,4.88,5.32,1.2,2.06,1.79,4.4,1.79,7s-.59,4.85-1.79,6.94c-1.2,2.1-2.84,3.91-4.94,5.43-2.1,1.52-4.56,2.7-7.38,3.53-2.82.83-5.9,1.25-9.23,1.25s-6.28-.42-9.06-1.25c-2.79-.83-5.21-2.01-7.27-3.53-2.07-1.52-3.7-3.33-4.88-5.43-1.2-2.1-1.79-4.41-1.79-6.94s.6-4.94,1.79-7c1.19-2.06,2.82-3.84,4.88-5.32,2.06-1.48,4.51-2.62,7.32-3.41,2.82-.8,5.86-1.2,9.12-1.2Zm15.03-16.77c-.33.4-.78.6-1.36.6h-27.57c-.3,0-.62-.14-.98-.43-.36-.29-.55-.73-.55-1.3v-5.75c0-.51.2-.9.6-1.2.39-.29.74-.43,1.03-.43h27.46c.51,0,.94.18,1.3.55s.55.76.55,1.19v5.54c0,.44-.17.86-.49,1.25Zm36.47,90.21c-1.2,1.19-3.35,1.79-6.46,1.79h-48.41c-3.19,0-5.35-.55-6.51-1.63-1.16-1.08-1.73-3.07-1.73-5.97v-27.03c0-.36.14-.67.43-.92.29-.25.61-.38.98-.38h9.56c.36,0,.7.13,1.03.38.33.26.48.56.48.92v8.25h39.84v-8.68c0-.36.16-.69.48-.98.33-.29.67-.43,1.03-.43h9.56c.36,0,.7.14,1.03.43.33.3.49.62.49.98v27.79c0,2.45-.6,4.29-1.79,5.48Zm-51.5-64.32c-3.41,0-6.17.75-8.31,2.23-2.14,1.48-3.2,3.35-3.2,5.6s1.07,4.14,3.2,5.69c2.14,1.56,4.9,2.33,8.31,2.33s6.25-.77,8.35-2.33c2.1-1.55,3.15-3.45,3.15-5.69s-1.04-4.11-3.15-5.6c-2.1-1.48-4.88-2.23-8.35-2.23Zm40.71,49.83h-39.84v4.23c0,1.23.65,1.84,1.95,1.84h35.94c1.3,0,1.95-.61,1.95-1.84v-4.23Zm12.1-25.08c-.33.29-.67.43-1.03.43h-9.56c-1.01,0-1.51-.47-1.51-1.41v-5.21h-12.92c-.36,0-.69-.14-.98-.43s-.44-.62-.44-.98v-7.06c0-.36.14-.67.44-.92.29-.26.61-.38.98-.38h12.92v-7.06h-12.81c-.36,0-.7-.17-1.03-.49-.33-.33-.49-.67-.49-1.03v-6.94c0-.36.17-.67.49-.92.33-.26.67-.38,1.03-.38h12.81v-25.84c0-.95.5-1.42,1.51-1.42h9.56c.36,0,.7.14,1.03.44.33.29.49.61.49.98v57.42c0,.51-.17.91-.49,1.2Z"/>
      <path class="cls-1" d="m1395.89,502.79c-.26.26-.56.38-.92.38h-26.59v11.18h40.92c.36,0,.73.18,1.09.55.36.36.54.72.54,1.08v7.16c0,.36-.18.73-.54,1.09-.36.36-.73.54-1.09.54h-94.44c-.43,0-.8-.16-1.08-.48-.3-.33-.44-.7-.44-1.14v-7.16c0-.43.14-.81.44-1.14.29-.33.65-.49,1.08-.49h41.03v-11.18h-19c-2.89,0-4.92-.65-6.08-1.95-1.16-1.3-1.73-3.22-1.73-5.75v-21.28c0-2.75.61-4.62,1.85-5.6,1.23-.98,3.22-1.46,5.97-1.46h57.1c1.01,0,1.52.47,1.52,1.41v7.38c0,1.01-.51,1.52-1.52,1.52h-50.26c-1.37,0-2.06.61-2.06,1.85v11.72c0,.58.14,1.05.43,1.41.3.36.83.55,1.63.55h50.81c.58,0,1.01.08,1.3.22.29.14.43.51.43,1.08v7.27c0,.58-.13,1-.38,1.25Zm.38,46.95c0,5.93-2.95,10.52-8.84,13.78-5.9,3.26-14.35,4.88-25.35,4.88s-19.44-1.63-25.34-4.88c-5.9-3.26-8.85-7.85-8.85-13.78s2.95-10.44,8.85-13.74c5.9-3.29,14.34-4.94,25.34-4.94s19.45,1.64,25.35,4.94c5.9,3.29,8.84,7.87,8.84,13.74Zm-34.19-9.12c-7.24,0-12.68.89-16.33,2.67-3.66,1.77-5.48,3.96-5.48,6.56s1.82,4.69,5.48,6.46c3.65,1.77,9.09,2.66,16.33,2.66s12.68-.89,16.34-2.66c3.65-1.77,5.48-3.93,5.48-6.46s-1.83-4.79-5.48-6.56c-3.66-1.77-9.1-2.67-16.34-2.67Z"/>
      <path class="cls-1" d="m1512.53,550.18c-.36.36-.73.55-1.08.55h-94.55c-.43,0-.8-.17-1.08-.49-.3-.33-.44-.7-.44-1.14v-7.28c0-1.01.51-1.52,1.52-1.52h40.93v-20.29c0-1.01.51-1.52,1.51-1.52h9.45c.43,0,.81.14,1.14.43.33.3.49.65.49,1.09v20.29h41.03c.36,0,.72.17,1.08.49s.55.67.55,1.03v7.28c0,.36-.18.72-.55,1.08Zm-82.28-28.11c-.51.14-1.07.14-1.68,0s-.99-.39-1.14-.76l-2.6-6.63c-.15-.58-.06-1.16.27-1.73.33-.58.71-.94,1.14-1.09,11.15-3.4,20.81-7.34,28.99-11.83,8.18-4.49,14.76-9.34,19.76-14.55.8-.8,1.2-1.38,1.2-1.74s-.55-.54-1.63-.54h-41.47c-.94,0-1.41-.47-1.41-1.42v-7.59c0-.87.47-1.3,1.41-1.3h52.32c2.97,0,5.14.45,6.51,1.36,1.38.91,2.07,2.19,2.07,3.85,0,2.6-1.74,5.94-5.21,9.99-3.41,3.91-7.28,7.63-11.62,11.18,1.8.87,3.88,1.85,6.24,2.93,2.35,1.09,4.74,2.14,7.16,3.15,2.42,1.01,4.76,1.94,7,2.77,2.24.83,4.19,1.5,5.86,2.01,1.16.36,1.48,1.12.98,2.28l-2.93,7.06c-.14.43-.51.73-1.09.87-.58.14-1.16.14-1.73,0-2.17-.73-4.54-1.6-7.11-2.6-2.57-1.01-5.23-2.14-7.98-3.37-2.75-1.23-5.52-2.53-8.3-3.91-2.79-1.37-5.48-2.79-8.09-4.23-5.5,3.4-11.38,6.44-17.64,9.12-6.26,2.68-12.68,4.92-19.27,6.73Z"/>
      <path class="cls-1" d="m1580.09,487.39c-.33.33-.7.48-1.14.48h-57.21c-.44,0-.83-.18-1.2-.55-.36-.36-.55-.76-.55-1.19v-5.65c0-.43.2-.83.6-1.19.4-.36.82-.55,1.25-.55h57.1c.43,0,.81.16,1.14.48.33.33.49.75.49,1.25v5.75c0,.43-.17.82-.49,1.14Zm-28.82,3.74c3.26,0,6.31.4,9.18,1.2,2.85.8,5.35,1.94,7.49,3.41,2.14,1.48,3.8,3.26,4.99,5.32,1.2,2.06,1.79,4.4,1.79,7s-.62,4.85-1.85,6.94c-1.23,2.1-2.89,3.91-4.99,5.43-2.1,1.52-4.58,2.7-7.44,3.53-2.86.83-5.96,1.25-9.28,1.25s-6.3-.42-9.12-1.25c-2.82-.83-5.29-2.01-7.38-3.53-2.1-1.52-3.75-3.33-4.94-5.43-1.2-2.1-1.79-4.41-1.79-6.94s.6-4.94,1.79-7c1.19-2.06,2.85-3.84,4.99-5.32,2.14-1.48,4.61-2.62,7.44-3.41,2.82-.8,5.86-1.2,9.12-1.2Zm14.82-16.77c-.33.4-.78.6-1.36.6h-28.11c-.29,0-.64-.16-1.03-.48-.4-.33-.6-.74-.6-1.25v-5.75c0-.51.2-.9.6-1.2.39-.29.74-.43,1.03-.43h28.11c.51,0,.94.18,1.3.55.36.36.55.76.55,1.19v5.54c0,.44-.17.86-.49,1.25Zm32.46,90.54c-1.2,1.19-3.35,1.79-6.46,1.79h-47.33c-3.26,0-5.47-.55-6.62-1.63-1.16-1.08-1.74-3.07-1.74-5.97v-27.46c0-.36.14-.67.44-.92.29-.26.61-.39.98-.39h9.55c.36,0,.7.13,1.03.39.33.25.49.56.49.92v8.25h38.96v-8.68c0-.36.14-.7.44-1.03.29-.33.61-.49.98-.49h9.66c.36,0,.68.17.98.49.29.33.43.67.43,1.03v28.23c0,2.45-.6,4.29-1.79,5.48Zm-47.28-64.65c-3.4,0-6.2.75-8.41,2.23-2.2,1.48-3.31,3.35-3.31,5.6s1.11,4.14,3.31,5.69c2.21,1.56,5.01,2.33,8.41,2.33s6.3-.77,8.47-2.33c2.17-1.55,3.26-3.45,3.26-5.69s-1.09-4.11-3.26-5.6c-2.17-1.48-4.99-2.23-8.47-2.23Zm36.58,49.29h-38.96v5.64c0,1.23.69,1.85,2.06,1.85h34.85c1.38,0,2.06-.61,2.06-1.85v-5.64Zm28.28-48.2c-.33.29-.7.43-1.14.43h-14.65v21.5c0,.36-.14.7-.43,1.03-.3.33-.62.48-.98.48h-9.66c-.36,0-.69-.16-.98-.48-.3-.33-.44-.7-.44-1.14v-56.44c0-.95.47-1.42,1.42-1.42h9.66c.94,0,1.41.47,1.41,1.42v24.74h14.65c.44,0,.82.13,1.14.38.33.26.48.57.48.92v7.6c0,.36-.16.69-.48.98Z"/>
    </g>
  </g>
</svg>