<?xml version="1.0" standalone="no"?>
<!DOCTYPE svg PUBLIC "-//W3C//DTD SVG 20010904//EN"
 "http://www.w3.org/TR/2001/REC-SVG-20010904/DTD/svg10.dtd">
<svg version="1.0" xmlns="http://www.w3.org/2000/svg"
 width="700.000000pt" height="700.000000pt" viewBox="0 0 700.000000 700.000000"
 preserveAspectRatio="xMidYMid meet">
<metadata>
Created by potrace 1.14, written by Peter Selinger 2001-2017
</metadata>
<g transform="translate(0.000000,700.000000) scale(0.100000,-0.100000)"
fill="#000000" stroke="none">
<path d="M3428 6906 c-1 -2 -77 -6 -166 -10 -90 -3 -167 -8 -170 -10 -4 -2
-40 -7 -80 -10 -40 -4 -78 -9 -85 -11 -7 -2 -28 -6 -47 -9 -62 -9 -183 -36
-295 -66 -109 -29 -341 -106 -360 -119 -5 -4 -32 -16 -60 -26 -98 -36 -292
-139 -474 -250 -78 -49 -280 -196 -341 -250 -19 -16 -57 -50 -85 -75 -220
-194 -459 -481 -622 -745 -53 -86 -155 -268 -158 -285 -1 -3 -20 -44 -43 -92
-145 -307 -269 -764 -297 -1094 -3 -33 -8 -93 -11 -134 -7 -91 -7 -413 0 -478
3 -26 8 -80 11 -120 4 -41 8 -83 11 -95 2 -12 6 -39 9 -62 120 -851 582 -1665
1249 -2198 92 -73 237 -178 278 -202 9 -5 55 -33 100 -60 171 -105 394 -209
596 -279 94 -33 264 -82 316 -92 11 -2 32 -6 46 -9 86 -19 128 -27 150 -29 14
-2 43 -6 65 -10 179 -30 536 -40 750 -22 75 6 300 41 395 61 14 3 34 7 45 9
90 18 339 84 425 113 969 323 1749 1106 2083 2093 85 250 150 547 171 775 4
33 9 85 12 115 8 69 8 400 0 505 -33 457 -136 830 -356 1300 -239 510 -674
1008 -1165 1333 -114 76 -376 216 -520 279 -92 40 -175 72 -175 67 0 -3 -10 0
-21 7 -20 10 -226 74 -274 84 -121 26 -269 55 -305 59 -159 20 -214 24 -415
31 -88 4 -165 8 -172 10 -6 2 -13 2 -15 1z"/>
</g>
</svg>
