<?xml version="1.0" encoding="UTF-8"?>
<svg id="_레이어_2" data-name="레이어 2" xmlns="http://www.w3.org/2000/svg" viewBox="0 0 697.1 83.01">
  <defs>
    <style>
      .cls-1 {
        fill: #004ea2;
      }

      .cls-2 {
        fill: #fff;
      }

      .cls-3 {
        fill: #c3d82d;
      }
    </style>
  </defs>
  <g id="_레이어_1-2" data-name="레이어 1">
    <g>
      <g>
        <path class="cls-1" d="m77.79,3.61c-5.32-.97-10.9-1.52-16.69-1.52C27.35,2.09,0,19.73,0,41.5c0,15.6,14.08,29.04,34.46,35.43L77.79,3.61Z"/>
        <path class="cls-3" d="m89.13,6.51l-42.62,73.23c4.69.74,9.54,1.18,14.59,1.18,33.74,0,61.1-17.65,61.1-39.42,0-15.23-13.44-28.43-33.07-34.99Z"/>
      </g>
      <g>
        <path class="cls-2" d="m175.91,2.79v11.95h14.82V2.79h10.12v39.76h-35.05V2.79h10.11Zm0,31.57h14.82v-11.51h-14.82v11.51Zm5.58,16.04h44.3v29.12h-10.2v-20.93h-34.1v-8.2ZM216.11,0h10.12v46.65h-10.12v-11.33h-12.12v-8.11h12.12v-7.59h-12.2v-8.11h12.2V0Z"/>
        <path class="cls-2" d="m280.64,44.73c-2.33-1.22-4.28-2.42-5.85-3.62-1.57-1.19-3.19-2.63-4.88-4.32-1.45-1.51-2.73-2.97-3.84-4.36-1.11-1.4-1.8-2.47-2.1-3.23-.29.75-1.07,1.95-2.35,3.58-1.28,1.63-2.74,3.29-4.36,4.97-1.8,1.98-3.75,3.74-5.84,5.28-2.11,1.54-4.02,2.81-5.76,3.79l-6.28-6.8c3.02-1.98,5.8-4.11,8.33-6.41,2.53-2.29,4.55-4.69,6.06-7.19,1.4-2.32,2.53-5.04,3.4-8.15.87-3.11,1.3-6.38,1.3-9.81V1.74h10.81v7.32c0,3.2.4,6.29,1.18,9.29.78,3,1.79,5.54,3.01,7.63,1.33,2.27,3.12,4.4,5.36,6.41,2.24,2.01,4.73,3.79,7.46,5.36l-5.67,6.98Zm-12.21,8.81v16.74h34.88v8.46h-45.08v-25.2h10.2Zm44.73-31.74v8.54h-11.08v27.38h-10.11V0h10.11v21.8h11.08Z"/>
        <path class="cls-2" d="m349.35,38.58c-3.43,3.11-7.47,4.67-12.12,4.67-5.35,0-9.88-2.02-13.61-6.06-3.72-4.04-5.58-8.91-5.58-14.61s1.86-10.56,5.58-14.61c3.72-4.04,8.25-6.06,13.61-6.06,4.65,0,8.69,1.56,12.12,4.66,3.43,3.11,5.58,7.02,6.46,11.73h4.18V1.13h9.59v52.41h-9.59v-26.51h-4.18c-.87,4.59-3.02,8.44-6.46,11.55Zm-5.45-24.24c-1.89-2.24-4.11-3.36-6.67-3.36s-4.78,1.12-6.67,3.36c-1.89,2.24-2.84,4.98-2.84,8.24s.95,5.95,2.84,8.24c1.89,2.29,4.11,3.45,6.67,3.45s4.78-1.15,6.67-3.45c1.88-2.3,2.83-5.04,2.83-8.24s-.95-6-2.83-8.24Zm6.07,39.02v16.91h35.74v8.46h-45.95v-25.38h10.21ZM374.99.17h9.94v55.37h-9.94V.17Z"/>
        <path class="cls-2" d="m403.15,12.99V4.36h39.42v8.63h-14.74c.12,3.2.48,6.28,1.09,9.24.61,2.97,1.56,5.58,2.83,7.85,1.34,2.5,3.3,4.97,5.88,7.41,2.59,2.44,5.56,4.74,8.94,6.89l-5.76,6.63c-1.57-.88-3.24-1.96-5.01-3.27-1.78-1.31-3.5-2.75-5.19-4.31-1.57-1.51-3.04-3.05-4.41-4.62-1.36-1.57-2.48-3.08-3.35-4.53-.82,1.51-1.87,3.05-3.14,4.62-1.28,1.57-2.68,3.08-4.19,4.54-1.74,1.69-3.56,3.27-5.45,4.75-1.89,1.48-3.73,2.78-5.54,3.88l-6.1-6.54c3.89-2.38,7.19-5.07,9.9-8.07,2.7-2.99,4.69-5.83,5.97-8.5.99-2.15,1.76-4.62,2.31-7.41.55-2.79.86-5.64.91-8.55h-14.39ZM451.55.09h10.2v67.84h-10.2V.09Z"/>
        <path class="cls-2" d="m526.71,46.3c-3.43.76-7.9,1.41-13.43,1.96-5.52.55-10.15.83-13.86.83h-15.52V3.49h10.29v37.23h6.97c4.19,0,8.53-.25,13.04-.74,4.5-.49,8.67-1.06,12.51-1.7v8.02ZM530.03.09h10.2v67.84h-10.2V.09Z"/>
        <path class="cls-2" d="m608.51,19.62V.09h10.2v67.84h-10.2V28.25h-9.94c-.87,4.83-3.2,8.88-6.98,12.17-3.78,3.28-8.26,4.93-13.42,4.93-5.82,0-10.72-2.05-14.74-6.15-4.02-4.1-6.02-9.05-6.02-14.87s2-10.77,6.02-14.87c4.02-4.1,8.92-6.15,14.74-6.15,4.99,0,9.35,1.56,13.07,4.66,3.72,3.11,6.1,6.99,7.15,11.64h10.11Zm-22.84-3.97c-2.04-2.35-4.54-3.53-7.49-3.53s-5.47,1.18-7.51,3.53c-2.03,2.36-3.05,5.25-3.05,8.68s1.02,6.25,3.05,8.63c2.04,2.38,4.54,3.58,7.51,3.58s5.46-1.19,7.49-3.58c2.04-2.38,3.05-5.26,3.05-8.63s-1.01-6.32-3.05-8.68Z"/>
        <path class="cls-2" d="m683.67,41.15c-3.55.64-8.78,1.24-15.69,1.79-6.92.56-12.93.83-18.05.83h-12.39v-24.42h23.37v-8.37h-23.37V2.88h33.75v24.24h-23.37v8.37h7.24c3.66,0,8.29-.22,13.91-.65,5.6-.43,10.47-.95,14.6-1.53v7.85Zm6.06,36.54c-3.74,3.55-8.36,5.32-13.82,5.32s-10-1.77-13.78-5.32c-3.78-3.55-5.66-7.82-5.66-12.82s1.88-9.36,5.66-12.9c3.78-3.54,8.37-5.32,13.78-5.32s10.08,1.78,13.82,5.32c3.75,3.55,5.62,7.85,5.62,12.9s-1.87,9.27-5.62,12.82Zm-7.37-5.97c1.92-1.89,2.87-4.17,2.87-6.85s-.91-5.04-2.74-6.93c-1.83-1.89-4.02-2.84-6.58-2.84s-4.78.95-6.67,2.84c-1.89,1.89-2.84,4.2-2.84,6.93s.9,4.96,2.7,6.85c1.8,1.89,3.98,2.84,6.54,2.84s4.8-.95,6.72-2.84Zm4.62-71.72h10.12v47.35h-10.12V0Z"/>
      </g>
    </g>
  </g>
</svg>