<svg xmlns="http://www.w3.org/2000/svg" xmlns:xlink="http://www.w3.org/1999/xlink" width="72" height="71" viewBox="0 0 72 71">
  <defs>
    <clipPath id="clip-path">
      <rect id="사각형_210" data-name="사각형 210" width="72" height="71" transform="translate(-3 -3)" fill="#fff" stroke="#929292" stroke-width="2"/>
    </clipPath>
  </defs>
  <g id="그룹_116" data-name="그룹 116" transform="translate(3 3)" clip-path="url(#clip-path)">
    <path id="패스_189" data-name="패스 189" d="M9.593,9.592a32.75,32.75,0,1,0,46.315,0,32.75,32.75,0,0,0-46.315,0" transform="translate(0 0)" fill="#fff" stroke="#929292" stroke-width="2"/>
    <path id="패스_190" data-name="패스 190" d="M66.955,114.366a5.208,5.208,0,0,1,.563-5.434,5.946,5.946,0,0,1,6.541-2.034l2.416.78a4.608,4.608,0,0,1-.549,8.91l-3.3.632A5.208,5.208,0,0,1,66.955,114.366Z" transform="translate(-39.241 -62.966)" fill="#fff" stroke="#929292" stroke-width="2"/>
    <path id="패스_191" data-name="패스 191" d="M68.447,50.6a3.174,3.174,0,0,1,2.1,2.584A3.622,3.622,0,0,1,68.6,56.876l-1.377.7a2.808,2.808,0,0,1-3.6-4.076l1.149-1.694A3.173,3.173,0,0,1,68.447,50.6" transform="translate(-37.292 -29.779)" fill="#fff" stroke="#929292" stroke-width="2"/>
    <path id="패스_192" data-name="패스 192" d="M8.514,26.2l1.354,1.354a10.682,10.682,0,0,1,0,15.107,3.214,3.214,0,0,0,.227,4.467,3.7,3.7,0,0,0,3.42.635,5.13,5.13,0,0,1,4.951,1.124,4.751,4.751,0,0,1,0,6.72L15.66,58.413a4.486,4.486,0,0,0,0,6.345l1.374,1.375a4.549,4.549,0,0,1,.133,6.347,4.653,4.653,0,0,1-5.234,1.027q-1.207-1-2.34-2.125A32.751,32.751,0,0,1,8.514,26.2" transform="translate(-0.001 -15.475)" fill="#fff" stroke="#929292" stroke-width="2"/>
    <path id="패스_193" data-name="패스 193" d="M89.439,9.594a32.666,32.666,0,0,1,9.537,25.029c-1.538,1.744-3.13,3.349-4.489,4.707a12.508,12.508,0,0,1-21.07-11.488L74.508,22.8a8.043,8.043,0,0,0-9.047-9.655,8.116,8.116,0,0,1-6.936-2.289,5.984,5.984,0,0,1,0-8.462c.508-.508,1.059-1.129,1.643-1.817A32.715,32.715,0,0,1,89.439,9.594" transform="translate(-33.532 -0.001)" fill="#fff" stroke="#929292" stroke-width="2"/>
    <path id="패스_194" data-name="패스 194" d="M7.988,120.976A7.988,7.988,0,1,1,0,128.964a7.988,7.988,0,0,1,7.988-7.988" transform="translate(0 -71.451)" fill="#fff" stroke="#929292" stroke-width="2"/>
    <path id="패스_195" data-name="패스 195" d="M15.671,133.984a2.663,2.663,0,1,1-2.663,2.663,2.663,2.663,0,0,1,2.663-2.663" transform="translate(-7.683 -79.134)" fill="#fff" stroke="#929292" stroke-width="2"/>
    <path id="패스_196" data-name="패스 196" d="M128.964,0a7.988,7.988,0,1,1-7.988,7.988A7.988,7.988,0,0,1,128.964,0" transform="translate(-71.451)" fill="#fff" stroke="#929292" stroke-width="2"/>
    <path id="패스_197" data-name="패스 197" d="M136.647,13.008a2.663,2.663,0,1,1-2.663,2.663,2.663,2.663,0,0,1,2.663-2.663" transform="translate(-79.134 -7.683)" fill="#fff" stroke="#929292" stroke-width="2"/>
  </g>
</svg>
