<svg xmlns="http://www.w3.org/2000/svg" xmlns:xlink="http://www.w3.org/1999/xlink" width="83.662" height="72" viewBox="0 0 83.662 72">
  <defs>
    <clipPath id="clip-path">
      <rect id="사각형_212" data-name="사각형 212" width="83.662" height="72" transform="translate(-2 -2)" fill="#fff" stroke="#929292" stroke-width="2"/>
    </clipPath>
  </defs>
  <g id="그룹_122" data-name="그룹 122" transform="translate(2 2)">
    <g id="그룹_121" data-name="그룹 121" clip-path="url(#clip-path)">
      <path id="패스_212" data-name="패스 212" d="M79.3,74.894A20.839,20.839,0,0,0,62.222,66h-6.6a20.837,20.837,0,0,0-14.456,5.83l-.352.339a29.509,29.509,0,0,1-20.472,8.257H1.6a1.6,1.6,0,0,0-1.6,1.6V95.168L39.831,98.4l35.074-3.192,1.953,1.5,2.8-10.677V76.043a2,2,0,0,0-.362-1.149" transform="translate(0 -33.137)" fill="#fff" stroke="#929292" stroke-width="2"/>
      <path id="패스_213" data-name="패스 213" d="M75.335,124.587H0v4.969H79.663v-4.969Z" transform="translate(0 -62.556)" fill="#fff" stroke="#929292" stroke-width="2"/>
      <path id="패스_214" data-name="패스 214" d="M117.726,85.133a4.327,4.327,0,0,0-8.1-2.12.794.794,0,0,1-1.041.324,4.328,4.328,0,0,0-6.246,3.88c0,.084,0,.167.007.25a4.328,4.328,0,0,0-5.413,5.819.8.8,0,0,1-.389,1.05,4.328,4.328,0,0,0,1.787,8.269h20.636Z" transform="translate(-47.2 -40.573)" fill="#fff" stroke="#929292" stroke-width="2"/>
      <path id="패스_215" data-name="패스 215" d="M133.205,94.057c0-.035-.006-.378-.034-.836.055-.026.141-.2.189-.2,0-.054,0-.109,0-.165a4.291,4.291,0,0,0-.623-2.232c-.006-.01-.011-.025-.017-.035a4.328,4.328,0,0,0-7.987,1.784,4.327,4.327,0,0,0-6.515,5.67,4.328,4.328,0,0,0,1.358,8.437H133.6Z" transform="translate(-57.868 -44.452)" fill="#fff" stroke="#929292" stroke-width="2"/>
      <path id="패스_216" data-name="패스 216" d="M141.285,97.545a4.229,4.229,0,0,0-.48.027h0a4.328,4.328,0,0,0-3.791,4.994,4.328,4.328,0,1,0-1.338,8.444h9.938v-9.136a4.328,4.328,0,0,0-4.328-4.328" transform="translate(-65.95 -48.978)" fill="#fff" stroke="#929292" stroke-width="2"/>
      <path id="패스_217" data-name="패스 217" d="M51.509,109.778h1.6a6.412,6.412,0,0,1,6.412,6.411l.391.508-.391.454h-1.6a6.412,6.412,0,0,1-6.411-6.411Z" transform="translate(-25.863 -55.12)" fill="#fff" stroke="#929292" stroke-width="2"/>
      <path id="패스_218" data-name="패스 218" d="M75.62,109.778h-1.6a6.411,6.411,0,0,0-6.411,6.411v.962h1.6a6.412,6.412,0,0,0,6.411-6.411Z" transform="translate(-33.945 -55.12)" fill="#fff" stroke="#929292" stroke-width="2"/>
      <path id="패스_219" data-name="패스 219" d="M9.658,109.778h1.6a6.411,6.411,0,0,1,6.411,6.411l.316.481-.316.481h-1.6a6.412,6.412,0,0,1-6.411-6.411Z" transform="translate(-4.849 -55.12)" fill="#fff" stroke="#929292" stroke-width="2"/>
      <path id="패스_220" data-name="패스 220" d="M33.769,109.778h-1.6a6.411,6.411,0,0,0-6.411,6.411v.962h1.6a6.412,6.412,0,0,0,6.411-6.411Z" transform="translate(-12.932 -55.12)" fill="#fff" stroke="#929292" stroke-width="2"/>
      <path id="패스_221" data-name="패스 221" d="M121.962,2.864A9.788,9.788,0,0,0,112.649.3h0a9.773,9.773,0,0,0,.022,18.953l-.022.006c.107.027.217.048.325.072l.168.037c.273.054.55.1.831.127.063.007.126.012.189.017.294.027.59.045.891.045a9.777,9.777,0,0,0,6.913-16.691" transform="translate(-52.857)" fill="#fff" stroke="#929292" stroke-width="2"/>
      <path id="패스_222" data-name="패스 222" d="M120.107,20.6a8.52,8.52,0,0,0-2.406.345h0a8.5,8.5,0,0,0-3.988,2.557.8.8,0,0,1-1.022.156,6.332,6.332,0,0,0-9.352,3.768.813.813,0,0,1-.91.572,4.346,4.346,0,0,0-4.962,4.3H127.8a.8.8,0,0,0,.8-.8V29.1a8.5,8.5,0,0,0-8.5-8.5" transform="translate(-48.939 -10.345)" fill="#fff" stroke="#929292" stroke-width="2"/>
    </g>
  </g>
</svg>
