<svg xmlns="http://www.w3.org/2000/svg" xmlns:xlink="http://www.w3.org/1999/xlink" width="97.182" height="59.108" viewBox="0 0 97.182 59.108">
  <defs>
    <clipPath id="clip-path">
      <rect id="사각형_208" data-name="사각형 208" width="97.182" height="59.108" fill="#fff" stroke="#929292" stroke-width="2"/>
    </clipPath>
  </defs>
  <g id="그룹_135" data-name="그룹 135" transform="translate(2 2)">
    <g id="그룹_112" data-name="그룹 112" transform="translate(-2 -2)" clip-path="url(#clip-path)">
      <path id="패스_171" data-name="패스 171" d="M108.951,15.309c0,8.045-9.986,13.828-18.031,13.828H87.954a11.026,11.026,0,1,0,0-22.053q-.392,0-.778.029c-.077.006-.154.008-.231.008A3.2,3.2,0,0,1,85.727.953,14.388,14.388,0,0,1,88.241.246,14.616,14.616,0,0,1,90.92,0c.041,0,.085,0,.126,0,3.972.032,9.866.481,12.475,3.09,2.637,2.637,5.431,8.195,5.431,12.217" transform="translate(-32.952 1.88)" fill="#fff" stroke="#929292" stroke-width="2"/>
      <path id="패스_172" data-name="패스 172" d="M67.106,0H56.215a14.568,14.568,0,0,1-.126,29.135H53.123a1.763,1.763,0,0,1-.812-.2l-2.192-1.122a7.522,7.522,0,0,0-6.816,0L40.777,29.1a7.511,7.511,0,0,1-6.816,0l-2.526-1.283a7.522,7.522,0,0,0-6.816,0L22.093,29.1a7.511,7.511,0,0,1-6.816,0L12.75,27.821a7.522,7.522,0,0,0-6.816,0l-3.88,1.974A3.761,3.761,0,0,0,0,33.145V49.711l88.6,2.064.064-1.534,1.466.88,3.29-1.41V26.319A26.316,26.316,0,0,0,67.106,0" transform="translate(1.88 1.879)" fill="#fff" stroke="#929292" stroke-width="2"/>
      <path id="패스_173" data-name="패스 173" d="M35.527,30.251a5.642,5.642,0,0,0-5.639-5.639H1.88A1.879,1.879,0,0,0,0,26.492v3.76l16.45,4.581,13.561-4.5,4.082,2.773Z" transform="translate(1.88 -8.362)" fill="#fff" stroke="#929292" stroke-width="2"/>
      <path id="패스_174" data-name="패스 174" d="M40.254,45.152H43.36l.659-3.389-1.707-3.37a7.518,7.518,0,0,0-6.707-4.122H0v29.7H50Z" transform="translate(1.88 -12.38)" fill="#fff" stroke="#929292" stroke-width="2"/>
      <path id="패스_175" data-name="패스 175" d="M55.264,68.954,44.019,46.747a7.549,7.549,0,0,0-.716.318l-2.526,1.284-1.233.495-.088.026h0a7.511,7.511,0,0,1-5.495-.522l-2.526-1.284a7.522,7.522,0,0,0-6.816,0l-2.526,1.284a7.511,7.511,0,0,1-6.816,0L12.75,47.064a7.522,7.522,0,0,0-6.816,0l-3.88,1.974A3.761,3.761,0,0,0,0,52.388V68.954l53.517,2.82-.335-.756Z" transform="translate(1.88 -17.365)" fill="#fff" stroke="#929292" stroke-width="2"/>
      <path id="패스_176" data-name="패스 176" d="M123.187,66.785h10.276a.94.94,0,0,1,.9.657L137.536,77.5l-7.5,3.157L119.114,77.5l3.176-10.057a.94.94,0,0,1,.9-.657" transform="translate(-47.685 -25.91)" fill="#fff" stroke="#929292" stroke-width="2"/>
      <path id="패스_177" data-name="패스 177" d="M112.014,75.477h9.548a.94.94,0,0,1,.892.643l1.665,5-6.147,3.156-8.514-3.156,1.665-5A.939.939,0,0,1,112.014,75.477Z" transform="translate(-43.667 -29.527)" fill="#fff" stroke="#929292" stroke-width="2"/>
      <path id="패스_178" data-name="패스 178" d="M88.159,85.135H0v5.639H93.422V85.135Z" transform="translate(1.88 -33.546)" fill="#fff" stroke="#929292" stroke-width="2"/>
    </g>
  </g>
</svg>
