<svg xmlns="http://www.w3.org/2000/svg" xmlns:xlink="http://www.w3.org/1999/xlink" width="72" height="72" viewBox="0 0 72 72">
  <defs>
    <clipPath id="clip-path">
      <rect id="사각형_216" data-name="사각형 216" width="72" height="72" transform="translate(-2 -3)" fill="#fff" stroke="#929292" stroke-width="2"/>
    </clipPath>
  </defs>
  <g id="그룹_124" data-name="그룹 124" transform="translate(2 3)">
    <g id="그룹_123" data-name="그룹 123" clip-path="url(#clip-path)">
      <path id="패스_223" data-name="패스 223" d="M9.241,25.747h56.6A1.155,1.155,0,0,1,67,26.9V82.35a1.155,1.155,0,0,1-1.155,1.155H4.621A4.62,4.62,0,0,1,0,78.885c0-.358.047-3.1.127-3.465a4.647,4.647,0,0,1,3.408-3.465Z" transform="translate(0 -16.506)" fill="#fff" stroke="#929292" stroke-width="2" fill-rule="evenodd"/>
      <path id="패스_224" data-name="패스 224" d="M9.241,4.622V57.771a1.143,1.143,0,0,1-1.825.924,4.649,4.649,0,0,0-3.881-.809A4.576,4.576,0,0,0,.127,61.294,5.072,5.072,0,0,0,0,62.38V4.622a4.621,4.621,0,1,1,9.241,0" transform="translate(0 -0.001)" fill="#fff" stroke="#929292" stroke-width="2" fill-rule="evenodd"/>
      <path id="패스_225" data-name="패스 225" d="M59.58,141.641l2.31,5.765-2.31,5.776h-.15a1.2,1.2,0,0,1-.451-.092L53.8,150.871l-2.31-3.465,2.31-3.454,5.395-2.31Z" transform="translate(-33.011 -90.802)" fill="#fff" stroke="#929292" stroke-width="2" fill-rule="evenodd"/>
      <rect id="사각형_213" data-name="사각형 213" width="10.396" height="11.54" transform="translate(47.362 50.827)" fill="#fff" stroke="#929292" stroke-width="2"/>
      <path id="패스_226" data-name="패스 226" d="M82.765,35.4h-43.9A3.465,3.465,0,0,0,35.4,38.868V64.281a3.466,3.466,0,0,0,3.465,3.465h31.19v-2.31H51.575V52.73H70.058V50.42H66.592V37.713H82.765a1.155,1.155,0,0,1,1.155,1.155V50.42H78.144v2.31H83.92V64.281a1.155,1.155,0,0,1-1.155,1.155H78.144v2.31h4.621a3.466,3.466,0,0,0,3.465-3.465V38.868A3.465,3.465,0,0,0,82.765,35.4m-33.5,30.034h-10.4a1.155,1.155,0,0,1-1.155-1.155V52.73H49.265ZM64.282,50.42H37.713V38.868a1.154,1.154,0,0,1,1.155-1.155H64.282Z" transform="translate(-22.696 -22.695)" fill="#fff" stroke="#929292" stroke-width="2"/>
      <path id="패스_227" data-name="패스 227" d="M161.413,143.919v6.92a2.3,2.3,0,0,1-2.31,2.31h-4.621v-11.54H159.1a2.31,2.31,0,0,1,2.31,2.31" transform="translate(-99.034 -90.782)" fill="#fff" stroke="#929292" stroke-width="2" fill-rule="evenodd"/>
      <rect id="사각형_214" data-name="사각형 214" width="23.103" height="11.54" transform="translate(26.569 50.834)" fill="#fff" stroke="#929292" stroke-width="2"/>
      <rect id="사각형_215" data-name="사각형 215" width="23.103" height="2.31" transform="translate(26.569 55.448)" fill="#fff" stroke="#929292" stroke-width="2"/>
      <path id="패스_228" data-name="패스 228" d="M46.669,148.078V155l-5.6-2.4a1.155,1.155,0,0,1,0-2.125Z" transform="translate(-25.876 -94.929)" fill="#fff" stroke="#929292" stroke-width="2" fill-rule="evenodd"/>
    </g>
  </g>
</svg>
