<?xml version="1.0" encoding="utf-8"?>
<!-- Generator: Adobe Illustrator 27.5.0, SVG Export Plug-In . SVG Version: 6.00 Build 0)  -->
<svg version="1.1" id="레이어_1" xmlns="http://www.w3.org/2000/svg" xmlns:xlink="http://www.w3.org/1999/xlink" x="0px"
	 y="0px" viewBox="0 0 586.1 1009.8" style="enable-background:new 0 0 586.1 1009.8;" xml:space="preserve">
<style type="text/css">
	.st0{fill:#A8CCF1;}
	.st1{fill:#004394;}
	.st2{fill:#5B97D5;}
	.st3{enable-background:new    ;}
	.st4{fill:#FFFFFF;}
	.st5{clip-path:url(#SVGID_00000157268631227753076910000006814777095000834746_);}
	.st6{clip-path:url(#SVGID_00000143595682745416416680000008489938239433478537_);}
	.st7{clip-path:url(#SVGID_00000062181571263721651310000011421184406036940477_);}
	.st8{clip-path:url(#SVGID_00000134242373376812850370000000473080898449650595_);}
	.st9{clip-path:url(#SVGID_00000141438889390691475840000005207485011244006288_);}
	.st10{fill:#0066B3;}
	.st11{clip-path:url(#SVGID_00000029016738884002554420000005973025867635657654_);}
	.st12{clip-path:url(#SVGID_00000149383087969990140140000007400759063508162951_);}
	.st13{clip-path:url(#SVGID_00000021821570671734582810000010119137337819020163_);}
	.st14{clip-path:url(#SVGID_00000093897760571948001550000003312887839497846428_);}
	.st15{clip-path:url(#SVGID_00000101098446822215166400000006073577317946200984_);}
	.st16{clip-path:url(#SVGID_00000024712565515923828400000011679610690536080314_);}
	.st17{clip-path:url(#SVGID_00000012433816123132626930000010455143638542645890_);}
	.st18{clip-path:url(#SVGID_00000148620794806726841040000005570522000521371065_);}
	.st19{opacity:0.47;}
	.st20{clip-path:url(#SVGID_00000018223068319543263990000002801569443899609740_);}
	.st21{clip-path:url(#SVGID_00000068675555674419085840000011204516912886042244_);}
	.st22{clip-path:url(#SVGID_00000149372752945532674220000010876016447816932759_);}
	.st23{clip-path:url(#SVGID_00000116913653547752138010000002362164769817401253_);}
	.st24{clip-path:url(#SVGID_00000018205154892205329400000015880336872408850620_);}
	.st25{fill:#00266E;}
	.st26{clip-path:url(#SVGID_00000032643496797003790440000008513433897607301766_);}
	.st27{clip-path:url(#SVGID_00000066515668255333282670000008192349667633391271_);}
	.st28{clip-path:url(#SVGID_00000175313623762161967410000009632416567964974771_);}
	.st29{clip-path:url(#SVGID_00000014622559382289752090000005497642437282987659_);}
	.st30{clip-path:url(#SVGID_00000093863191309022457990000010987165784078987953_);}
	.st31{clip-path:url(#SVGID_00000094584648407255058720000018048408906898597774_);}
	.st32{clip-path:url(#SVGID_00000159434097741007557060000011914988192899024536_);}
	.st33{clip-path:url(#SVGID_00000150096928917115461000000011133155355911561131_);}
	.st34{clip-path:url(#SVGID_00000020377942805071202780000005386721550698695857_);}
	.st35{clip-path:url(#SVGID_00000030485688218888850240000005548257342219293095_);}
	.st36{clip-path:url(#SVGID_00000008871956146744763210000016350630269237530265_);}
	.st37{clip-path:url(#SVGID_00000148633279680560093090000011536734081073912196_);}
	.st38{clip-path:url(#SVGID_00000137830290431258897530000007707484005208910501_);}
	.st39{clip-path:url(#SVGID_00000003783153179494204160000000589172835194797195_);}
	.st40{clip-path:url(#SVGID_00000173127190698952166230000000320980519807202740_);}
	.st41{clip-path:url(#SVGID_00000036973817786305909090000010760036166053403025_);}
	.st42{clip-path:url(#SVGID_00000124153263960943160080000017818853908669935765_);}
</style>
<g id="그룹_8256" transform="translate(13459.038 -12682.114)">
	<g id="패스_3339" transform="translate(-13459.038 12682.114)">
		<path class="st0" d="M564.4,1009.3H21.7c-2.9,0-5.7-0.5-8.3-1.4c-2.5-0.9-4.8-2.3-6.7-3.9c-1.9-1.7-3.5-3.6-4.5-5.8
			c-1.1-2.2-1.7-4.6-1.7-7.1V18.8c0-2.5,0.6-4.9,1.7-7.1c1.1-2.2,2.6-4.1,4.5-5.8c1.9-1.7,4.2-3,6.7-3.9c2.6-1,5.4-1.4,8.3-1.4
			h542.6c2.9,0,5.7,0.5,8.3,1.4c2.5,0.9,4.8,2.3,6.7,3.9c1.9,1.7,3.5,3.6,4.5,5.8c1.1,2.2,1.7,4.6,1.7,7.1V991
			c0,2.5-0.6,4.9-1.7,7.1c-1.1,2.2-2.6,4.1-4.5,5.8c-1.9,1.7-4.2,3-6.7,3.9C570,1008.8,567.2,1009.3,564.4,1009.3z"/>
		<path class="st1" d="M21.7,1c-2.8,0-5.5,0.5-8.1,1.4C11.1,3.3,8.9,4.6,7,6.3c-3.9,3.4-6,7.8-6,12.5V991c0,4.7,2.1,9.2,6,12.5
			c1.9,1.6,4.1,2.9,6.6,3.8c2.6,0.9,5.3,1.4,8.1,1.4h542.6c2.8,0,5.5-0.5,8.1-1.4c2.5-0.9,4.7-2.2,6.6-3.8c3.9-3.4,6-7.8,6-12.5
			V18.8c0-4.7-2.1-9.2-6-12.5c-1.9-1.6-4.1-2.9-6.6-3.8c-2.6-0.9-5.3-1.4-8.1-1.4H21.7 M21.7,0h542.6c12,0,21.7,8.4,21.7,18.8V991
			c0,10.4-9.7,18.8-21.7,18.8H21.7c-12,0-21.7-8.4-21.7-18.8V18.8C0,8.4,9.7,0,21.7,0z"/>
	</g>
	<circle id="타원_91" class="st2" cx="-13297.9" cy="12771" r="59.8"/>
	<g class="st3">
		<path class="st4" d="M-13312.3,12762.5v-16.3h5.6c4.9,0,7.8,3.1,7.8,8.1c0,5.1-2.9,8.2-7.9,8.2H-13312.3z M-13306.9,12760
			c3.4,0,5.1-1.9,5.1-5.6c0-3.7-1.7-5.6-5-5.6h-2.5v11.2H-13306.9z"/>
		<path class="st4" d="M-13290.8,12752.2h0.1l3.6-6h3.3l-5,8.1l5.1,8.1h-3.4l-3.6-5.9h-0.1l-3.6,5.9h-3.4l5.1-8.1l-5.1-8.1h3.4
			L-13290.8,12752.2z"/>
	</g>
	<g class="st3">
		<path class="st4" d="M-13309.1,12782.9h-18.5v-2h18.5V12782.9z M-13310.8,12774.7h-2.8v3.1h2.7v1.9h-14.9v-1.9h2.7v-3.1h-2.8v-1.9
			h15.1V12774.7z M-13311.4,12789.1h-11.5v1.4h12.1v1.9h-14.6v-5h11.5v-1.3h-11.6v-1.8h14V12789.1z M-13316.1,12777.7v-3.1h-4.6v3.1
			H-13316.1z"/>
		<path class="st4" d="M-13299.2,12779.7h-5.3v2.4c2.4,0,4.2-0.2,6.2-0.6l0.2,2c-2.4,0.5-4.5,0.6-7.5,0.6h-1.4v-6.1h5.3v-2.2h-5.3
			v-2h7.7V12779.7z M-13289.4,12790.4l-1,1.9c-3.2-0.5-5.7-1.9-6.9-3.9c-1.3,2-3.8,3.4-6.9,3.9l-1-1.9c4.1-0.5,6.7-2.7,6.7-5v-0.4
			h2.5v0.4C-13296.1,12787.7-13293.5,12789.9-13289.4,12790.4z M-13290.4,12785.9h-2.4v-6.6h-2.1v4.9h-2.3v-11.6h2.3v4.7h2.1v-5.1
			h2.4V12785.9z"/>
		<path class="st4" d="M-13269.3,12784.1h-18.5v-2h8v-1.9h-6.2v-2h2.7v-3.5h-2.8v-2h15.1v2h-2.8v3.5h2.7v2h-6.2v1.9h8V12784.1z
			 M-13271.6,12792.2h-14.1v-6.5h14.1V12792.2z M-13283.2,12790.2h9.2v-2.5h-9.2V12790.2z M-13276.3,12778.3v-3.5h-4.6v3.5H-13276.3
			z"/>
	</g>
	<circle id="타원_98" class="st2" cx="-13299.9" cy="12897.6" r="59.8"/>
	<g class="st3">
		<path class="st4" d="M-13315,12891.7v-16.3h5.6c4.9,0,7.8,3.1,7.8,8.1c0,5.1-2.9,8.2-7.9,8.2H-13315z M-13309.6,12889.2
			c3.4,0,5.1-1.9,5.1-5.6c0-3.7-1.7-5.6-5-5.6h-2.5v11.2H-13309.6z"/>
		<path class="st4" d="M-13293.5,12881.4h0.1l3.6-6h3.3l-5,8.1l5.1,8.1h-3.4l-3.6-5.9h-0.1l-3.6,5.9h-3.4l5.1-8.1l-5.1-8.1h3.4
			L-13293.5,12881.4z"/>
	</g>
	<g class="st3">
		<path class="st4" d="M-13301.9,12911.6h-8v1.5h5.7v5h-11.5v1.5h12.1v1.9h-14.6v-5.2h11.5v-1.3h-11.6v-1.9h5.8v-1.5h-8v-2h18.5
			V12911.6z M-13304.2,12908.4h-13.8v-6.3h13.8V12908.4z M-13315.6,12906.4h8.8v-2.4h-8.8V12906.4z"/>
		<path class="st4" d="M-13282,12915.4h-4.5v6.4h-2.5v-6.4h-4.6v6.4h-2.5v-6.4h-4.5v-2h18.6V12915.4z M-13284.1,12907.8h-11.7v1.9
			h12.1v2h-14.6v-5.8h11.6v-1.8h-11.7v-2h14.2V12907.8z"/>
	</g>
	<circle id="타원_92" class="st2" cx="-13165.1" cy="12771" r="59.8"/>
	<g class="st3">
		<path class="st4" d="M-13179.5,12765.1v-16.3h5.6c4.9,0,7.8,3.1,7.8,8.1c0,5.1-2.9,8.2-7.9,8.2H-13179.5z M-13174.1,12762.6
			c3.4,0,5.1-1.9,5.1-5.6c0-3.7-1.7-5.6-5-5.6h-2.5v11.2H-13174.1z"/>
		<path class="st4" d="M-13158,12754.9h0.1l3.6-6h3.3l-5,8.1l5.1,8.1h-3.4l-3.6-5.9h-0.1l-3.6,5.9h-3.4l5.1-8.1l-5.1-8.1h3.4
			L-13158,12754.9z"/>
	</g>
	<g class="st3">
		<path class="st4" d="M-13182.5,12788.8l-1.4,2c-2.3-1.1-4-3.3-4.9-5.8c-0.9,2.8-2.7,5.2-5,6.3l-1.5-2c3.2-1.5,5.2-5.3,5.2-8.7
			v-1.7h-4.4v-2.1h11.2v2.1h-4.2v1.7C-13187.5,12783.8-13185.7,12787.3-13182.5,12788.8z M-13178.9,12782.8h3.1v2.1h-3.1v10.3h-2.5
			v-20.3h2.5V12782.8z"/>
		<path class="st4" d="M-13156.4,12786.6h-18.5v-2h8v-1.9h-5.8v-6.9h14v2h-11.5v2.9h11.6v2h-5.9v1.9h8V12786.6z M-13158.7,12791.4
			c0,2.4-2.7,3.7-7,3.7c-4.4,0-7.1-1.3-7.1-3.7c0-2.4,2.7-3.7,7.1-3.7C-13161.3,12787.7-13158.7,12789.1-13158.7,12791.4z
			 M-13170.2,12791.4c0,1.2,1.6,1.8,4.5,1.8c2.9,0,4.5-0.6,4.5-1.8c0-1.2-1.6-1.8-4.5-1.8
			C-13168.7,12789.6-13170.3,12790.3-13170.2,12791.4z"/>
		<path class="st4" d="M-13143.1,12789.1l-1.4,1.9c-2.2-1-3.8-3-4.6-5.4c-0.9,2.6-2.6,4.7-4.9,5.8l-1.4-1.9c3.2-1.4,5-4.9,5-8.1
			v-1.1h-4.3v-2h4.3v-3h2.5v3h4.3v2h-4.3v1.1C-13147.9,12784.3-13146.2,12787.6-13143.1,12789.1z M-13139.2,12782.9h3.1v2.1h-3.1
			v10.2h-2.5v-20.3h2.5V12782.9z"/>
	</g>
	<circle id="타원_95" class="st2" cx="-13164.5" cy="12897.6" r="59.8"/>
	<g class="st3">
		<path class="st4" d="M-13179.5,12891.7v-16.3h5.6c4.9,0,7.8,3.1,7.8,8.1c0,5.1-2.9,8.2-7.9,8.2H-13179.5z M-13174.1,12889.2
			c3.4,0,5.1-1.9,5.1-5.6c0-3.7-1.7-5.6-5-5.6h-2.5v11.2H-13174.1z"/>
		<path class="st4" d="M-13158.1,12881.4h0.1l3.6-6h3.3l-5,8.1l5.1,8.1h-3.4l-3.6-5.9h-0.1l-3.6,5.9h-3.4l5.1-8.1l-5.1-8.1h3.4
			L-13158.1,12881.4z"/>
	</g>
	<g class="st3">
		<path class="st4" d="M-13172.9,12910.9l-1.2,2c-2.3-0.7-3.9-2.2-4.8-4c-0.9,2.1-2.6,3.8-5.1,4.6l-1.3-2c3.3-1.1,5-3.7,5-6.4v-0.2
			h-4.3v-2h11v2h-4.2v0.2C-13177.6,12907.6-13176,12909.9-13172.9,12910.9z M-13168.7,12917.8c0,2.4-2.6,3.9-6.8,3.9
			c-4.2,0-6.9-1.4-6.9-3.9c0-2.4,2.6-3.8,6.9-3.8C-13171.3,12914-13168.7,12915.4-13168.7,12917.8z M-13179.9,12917.8
			c0,1.3,1.6,1.9,4.4,1.9s4.3-0.7,4.3-1.9c0-1.2-1.5-1.9-4.3-1.9S-13179.9,12916.6-13179.9,12917.8z M-13168.9,12906.3h2.8v2h-2.8
			v5.2h-2.5v-12.1h2.5V12906.3z"/>
		<path class="st4" d="M-13161.5,12908.2h4.9v-5.1h2.5v13.9h-9.9v-13.9h2.5V12908.2z M-13156.5,12914.9v-4.8h-4.9v4.8H-13156.5z
			 M-13148.1,12921.7h-2.5v-20.3h2.5V12921.7z"/>
	</g>
	<circle id="타원_93" class="st2" cx="-13031" cy="12771" r="59.8"/>
	<g class="st3">
		<path class="st4" d="M-13046.1,12765.1v-16.3h5.6c4.9,0,7.8,3.1,7.8,8.1c0,5.1-2.9,8.2-7.9,8.2H-13046.1z M-13040.7,12762.6
			c3.4,0,5.1-1.9,5.1-5.6c0-3.7-1.7-5.6-5-5.6h-2.5v11.2H-13040.7z"/>
		<path class="st4" d="M-13024.6,12754.9h0.1l3.6-6h3.3l-5,8.1l5.1,8.1h-3.4l-3.6-5.9h-0.1l-3.6,5.9h-3.4l5.1-8.1l-5.1-8.1h3.4
			L-13024.6,12754.9z"/>
	</g>
	<g class="st3">
		<path class="st4" d="M-13032.9,12792.8h-18.6v-2.1h8v-3.3h-5.8v-6.6h11.7v-2.5h-11.7v-2h14.2v6.5h-11.7v2.6h12.1v2h-6.4v3.3h8.1
			V12792.8z"/>
		<path class="st4" d="M-13026.7,12777.3h8.8v-1.9h2.5v7.6h-5.6v1.9h8v2h-18.5v-2h8v-1.9h-5.6v-7.6h2.5V12777.3z M-13014.4,12793.1
			l-0.9,1.9c-3.3-0.4-5.8-1.8-7.1-3.7c-1.3,1.9-3.8,3.2-7.1,3.7l-0.9-1.9c4.2-0.5,6.6-2.5,6.7-4.7v-0.4h2.5v0.4
			C-13021.1,12790.6-13018.6,12792.6-13014.4,12793.1z M-13018,12781v-1.8h-8.8v1.8H-13018z"/>
	</g>
	<circle id="타원_96" class="st2" cx="-13030.4" cy="12897.6" r="59.8"/>
	<g class="st3">
		<path class="st4" d="M-13045.4,12891.7v-16.3h5.6c4.9,0,7.8,3.1,7.8,8.1c0,5.1-2.9,8.2-7.9,8.2H-13045.4z M-13040,12889.2
			c3.4,0,5.1-1.9,5.1-5.6c0-3.7-1.7-5.6-5-5.6h-2.5v11.2H-13040z"/>
		<path class="st4" d="M-13024,12881.4h0.1l3.6-6h3.3l-5,8.1l5.1,8.1h-3.4l-3.6-5.9h-0.1l-3.6,5.9h-3.4l5.1-8.1l-5.1-8.1h3.4
			L-13024,12881.4z"/>
	</g>
	<g class="st3">
		<path class="st4" d="M-13032.3,12912.6h-18.4v-2h7.1v-3.7h2.5v3.7h8.8V12912.6z M-13034.5,12917.9c0,2.4-2.8,3.8-7.2,3.8
			c-4.4,0-7.2-1.4-7.2-3.8c0-2.4,2.8-3.8,7.2-3.8C-13037.3,12914.1-13034.5,12915.5-13034.5,12917.9z M-13034.6,12904.1
			c0,1.6,0,3.3-0.6,5.4l-2.5-0.2c0.5-2,0.5-3.4,0.5-4.9h-11.6v-2h14.1V12904.1z M-13046.3,12917.9c0,1.2,1.8,1.8,4.7,1.8
			c2.9,0,4.7-0.7,4.7-1.8c0-1.2-1.8-1.9-4.7-1.9C-13044.6,12916-13046.4,12916.7-13046.3,12917.9z"/>
		<path class="st4" d="M-13018.9,12910.9l-1.2,2c-2.3-0.7-3.9-2.2-4.8-4c-0.9,2.1-2.6,3.8-5.1,4.6l-1.3-2c3.3-1.1,5-3.7,5-6.4v-0.2
			h-4.3v-2h11v2h-4.2v0.2C-13023.6,12907.6-13022,12909.9-13018.9,12910.9z M-13014.7,12917.8c0,2.4-2.6,3.9-6.8,3.9
			c-4.2,0-6.9-1.4-6.9-3.9c0-2.4,2.6-3.8,6.9-3.8C-13017.3,12914-13014.7,12915.4-13014.7,12917.8z M-13025.9,12917.8
			c0,1.3,1.6,1.9,4.4,1.9s4.3-0.7,4.3-1.9c0-1.2-1.5-1.9-4.3-1.9S-13025.9,12916.6-13025.9,12917.8z M-13014.9,12906.3h2.8v2h-2.8
			v5.2h-2.5v-12.1h2.5V12906.3z"/>
	</g>
	<circle id="타원_94" class="st2" cx="-13297.9" cy="13024.2" r="59.8"/>
	<g class="st3">
		<path class="st4" d="M-13312.9,13018.3v-16.3h5.6c4.9,0,7.8,3.1,7.8,8.1c0,5.1-2.9,8.2-7.9,8.2H-13312.9z M-13307.5,13015.8
			c3.4,0,5.1-1.9,5.1-5.6c0-3.7-1.7-5.6-5-5.6h-2.5v11.2H-13307.5z"/>
		<path class="st4" d="M-13291.5,13008h0.1l3.6-6h3.3l-5,8.1l5.1,8.1h-3.4l-3.6-5.9h-0.1l-3.6,5.9h-3.4l5.1-8.1l-5.1-8.1h3.4
			L-13291.5,13008z"/>
	</g>
	<g class="st3">
		<path class="st4" d="M-13328.4,13031.6h-9.9v-1.9h3.7v-1.8h2.5v1.8h3.7V13031.6z M-13329.1,13035.6c0,2-1.8,3.3-4.2,3.3
			c-2.5,0-4.2-1.3-4.2-3.3c0-2,1.8-3.4,4.2-3.4S-13329.1,13033.6-13329.1,13035.6z M-13335.4,13035.6c0,1,0.8,1.6,2.1,1.6
			s2.1-0.6,2.1-1.6c0-1-0.8-1.6-2.1-1.6C-13334.6,13034-13335.4,13034.6-13335.4,13035.6z M-13320.8,13044.9h-11.2v1.4h11.9v1.9
			h-14.4v-5h11.3v-1.3h-11.3v-1.8h13.7V13044.9z M-13324.6,13039.1h-2.3v-4.1h-1.9v-2h1.9v-4.7h2.3V13039.1z M-13320.8,13039.3h-2.4
			v-11.3h2.4V13039.3z"/>
		<path class="st4" d="M-13299.7,13045.7h-18.6v-2.1h18.6V13045.7z M-13300.5,13037.8l-1.1,2.1c-3.4-0.7-6.2-2.8-7.5-5.5
			c-1.3,2.7-4.1,4.8-7.5,5.5l-1.1-2.1c4.2-0.8,7.3-3.9,7.3-7v-1.5h2.7v1.5C-13307.8,13033.9-13304.7,13037.1-13300.5,13037.8z"/>
		<path class="st4" d="M-13290.1,13035.8h2.5v-7.3h2.4v18.8h-2.4v-9.5h-3.2c-1.1,2.4-3,4.6-6.2,6.4l-1.4-1.7
			c2.8-1.6,4.4-3.4,5.4-5.5l-5.1,0.5l-0.3-2.2l6.1-0.3c0.2-0.8,0.3-1.7,0.4-2.7h-5.5v-2h8
			C-13289.4,13032.2-13289.6,13034.1-13290.1,13035.8z M-13280.9,13048.3h-2.4v-20.3h2.4V13048.3z"/>
		<path class="st4" d="M-13267.8,13035.5h3.9v-7.5h2.5v20.3h-2.5v-10.8h-3.8c-0.3,3.9-2.3,6.3-5.2,6.3c-3.1,0-5.2-2.8-5.2-7.2
			c0-4.4,2.2-7.2,5.2-7.2C-13270.2,13029.5-13268.2,13031.8-13267.8,13035.5z M-13275.8,13036.6c0,3.1,1.1,4.9,2.8,4.9
			s2.8-1.8,2.8-4.9c0-3.1-1.1-4.9-2.8-4.9S-13275.8,13033.5-13275.8,13036.6z"/>
	</g>
	<circle id="타원_97" class="st2" cx="-13165" cy="13024.2" r="59.8"/>
	<g class="st3">
		<path class="st4" d="M-13180,13018.3v-16.3h5.6c4.9,0,7.8,3.1,7.8,8.1c0,5.1-2.9,8.2-7.9,8.2H-13180z M-13174.7,13015.8
			c3.4,0,5.1-1.9,5.1-5.6c0-3.7-1.7-5.6-5-5.6h-2.5v11.2H-13174.7z"/>
		<path class="st4" d="M-13158.6,13008h0.1l3.6-6h3.3l-5,8.1l5.1,8.1h-3.4l-3.6-5.9h-0.1l-3.6,5.9h-3.4l5.1-8.1l-5.1-8.1h3.4
			L-13158.6,13008z"/>
	</g>
	<g class="st3">
		<path class="st4" d="M-13169,13035.3h-5.9v2.2h8v2h-18.5v-2h8v-2.2h-5.6v-6.9h2.5v4.9h11.5V13035.3z M-13169.2,13044.5
			c0,2.4-2.7,3.8-7,3.8c-4.4,0-7.1-1.4-7.1-3.8s2.7-3.7,7.1-3.8C-13171.8,13040.8-13169.2,13042.1-13169.2,13044.5z
			 M-13180.8,13044.5c0,1.2,1.6,1.8,4.5,1.8c2.9,0,4.5-0.7,4.5-1.8c0-1.2-1.6-1.8-4.5-1.8
			C-13179.2,13042.7-13180.8,13043.3-13180.8,13044.5z"/>
		<path class="st4" d="M-13153.5,13037.5l-1.2,2c-2.3-0.7-3.9-2.2-4.8-4c-0.9,2.1-2.6,3.8-5.1,4.6l-1.3-2c3.3-1.1,5-3.7,5-6.4v-0.2
			h-4.3v-2h11v2h-4.2v0.2C-13158.3,13034.2-13156.7,13036.5-13153.5,13037.5z M-13149.4,13044.4c0,2.4-2.6,3.9-6.8,3.9
			c-4.2,0-6.9-1.4-6.9-3.9c0-2.4,2.6-3.8,6.9-3.8C-13152,13040.6-13149.4,13042-13149.4,13044.4z M-13160.5,13044.4
			c0,1.3,1.6,1.9,4.4,1.9s4.3-0.7,4.3-1.9c0-1.2-1.5-1.9-4.3-1.9S-13160.5,13043.2-13160.5,13044.4z M-13149.6,13032.9h2.8v2h-2.8
			v5.2h-2.5v-12.1h2.5V13032.9z"/>
	</g>
	<g id="그룹_8236" transform="translate(-14678.5 11811.112)">
		<g class="st3">
			<path class="st1" d="M1462.5,1317.2l-3.4,0.1c-0.2,0-0.3-0.1-0.3-0.3v-2c0-0.2,0.1-0.3,0.3-0.3l3.4,0.1h3.6
				c0.4-0.7,0.7-1.6,1.1-2.7c0.1-0.3,0.2-0.7,0.2-1.2c0.4,0.1,0.8,0.2,1.3,0.3c0.6,0.2,1,0.3,1.1,0.3c0.2,0.1,0.3,0.2,0.3,0.4
				c0,0.2-0.1,0.3-0.2,0.4c-0.2,0.1-0.3,0.3-0.4,0.6c-0.3,0.8-0.6,1.4-0.9,1.8l3-0.1c0.1,0,0.2,0,0.3,0.1s0,0.1,0,0.2v2
				c0,0.1,0,0.2-0.1,0.3c0,0-0.1,0-0.2,0l-3.4-0.1h-1.3c0,0.1-0.1,0.7-0.1,1.5v0.5h1l3.4-0.1c0.1,0,0.2,0,0.3,0.1s0,0.1,0,0.2v2
				c0,0.2,0,0.2-0.1,0.3c0,0-0.1,0-0.2,0l-3.4-0.1h-0.2c1.1,1.2,2.3,2.2,3.6,2.9c-0.3,0.5-0.7,1.1-1,1.8c-0.1,0.3-0.2,0.5-0.3,0.5
				c-0.1,0-0.3-0.1-0.6-0.4c-0.9-0.8-1.8-1.8-2.5-2.9c0,1.6,0,3.2,0.1,4.9c0,1.3,0.1,2,0.1,2.2c0,0.1,0,0.2-0.1,0.3c0,0-0.1,0-0.3,0
				h-2.2c-0.1,0-0.2,0-0.3-0.1c0,0,0-0.1,0-0.2c0-0.2,0-1,0.1-2.5c0-1.4,0-2.7,0.1-4c-0.9,1.5-2.1,3-3.6,4.5
				c-0.3,0.3-0.5,0.4-0.6,0.4c-0.2,0-0.3-0.2-0.5-0.6c-0.3-0.7-0.7-1.4-1.1-1.9c2-1.3,3.6-3,4.9-5h-0.7l-3.4,0.1
				c-0.1,0-0.2,0-0.3-0.1s0-0.1,0-0.3v-2c0-0.1,0-0.2,0.1-0.3c0,0,0.1,0,0.2,0l3.4,0.1h1.5v-0.5c0-0.7,0-1.3,0-1.5H1462.5z
				 M1467.9,1310.5h-4.9l-3.3,0.1c-0.1,0-0.2,0-0.3-0.1s0-0.1,0-0.2v-1.9c0-0.1,0-0.2,0.1-0.3c0,0,0.1,0,0.2,0l3.3,0.1h1.1v-0.8
				c0-0.8-0.1-1.4-0.2-1.9c1.2,0,2.2,0.1,2.9,0.2c0.3,0,0.5,0.1,0.5,0.2c0,0.1-0.1,0.3-0.2,0.5c-0.1,0.2-0.1,0.5-0.1,1v0.7h0.9
				l3.3-0.1c0.2,0,0.3,0,0.3,0.1s0,0.1,0,0.2v1.9c0,0.1,0,0.2-0.1,0.3c0,0-0.1,0-0.3,0L1467.9,1310.5z M1461.2,1311.8
				c-0.1-0.1-0.1-0.2-0.1-0.3c0-0.1,0.1-0.2,0.3-0.2l1.4-0.4c0.1,0,0.2,0,0.2,0c0.1,0,0.2,0.1,0.3,0.2c0.4,0.7,0.7,1.5,1,2.5
				c0,0.1,0,0.1,0,0.2c0,0.1-0.1,0.2-0.3,0.3l-1.6,0.4c-0.1,0-0.2,0.1-0.3,0.1c-0.1,0-0.2-0.1-0.3-0.3
				C1461.7,1313.1,1461.5,1312.2,1461.2,1311.8z M1469.4,1329.5c1.4-1.7,2.4-3.6,2.9-5.7c0.4-1.5,0.6-4.2,0.6-8.1v-3
				c0-1.9-0.1-3.5-0.2-4.8c0.9,0.2,1.8,0.4,2.6,0.7c1.7-0.4,3.3-1.1,4.9-1.9c0.5-0.3,1-0.6,1.5-1c0.6,0.5,1.2,1.2,1.8,2
				c0.1,0.2,0.2,0.4,0.2,0.5c0,0.2-0.1,0.3-0.4,0.3c-0.3,0-0.7,0.1-1.1,0.3c-2.1,1-4.3,1.8-6.5,2.3v3.4h4.8l3.8-0.1
				c0.1,0,0.2,0,0.3,0.1s0,0.1,0,0.2v2.1c0,0.1,0,0.2-0.1,0.3c0,0-0.1,0-0.2,0c0,0-0.2,0-0.4,0c-0.7,0-1.5,0-2.5,0v9.9l0.1,3.9
				c0,0.2,0,0.3-0.1,0.3c0,0-0.1,0-0.2,0h-2.3c-0.1,0-0.2,0-0.3-0.1s0-0.1,0-0.3l0.1-3.9v-9.9h-3c0,3.6-0.3,6.3-0.7,8.1
				c-0.5,1.9-1.3,3.7-2.4,5.3c-0.3,0.4-0.5,0.5-0.6,0.5c-0.1,0-0.3-0.1-0.6-0.4C1470.7,1330.1,1470.1,1329.7,1469.4,1329.5z"/>
		</g>
		<g class="st3">
			<path class="st1" d="M1487.9,1327.1l-2-2.7c5.9-3,9.1-6.9,9.7-12.5h-8.3v-2.8h11.8C1499.2,1316.5,1496.3,1323,1487.9,1327.1z
				 M1505.9,1316.1h3.5v2.9h-3.5v12.4h-3.5v-24.8h3.5V1316.1z"/>
			<path class="st1" d="M1526.4,1323.7l-1.9,2.7c-2.8-1.2-4.9-3.5-6-6.4c-1.1,3-3.1,5.6-6,6.8l-1.9-2.7c4.1-1.8,6.1-6,6.1-9.8v-1
				h-5.3v-2.8h5.3v-3.5h3.5v3.5h5.2v2.8h-5.2v1C1520.2,1317.9,1522.2,1322,1526.4,1323.7z M1531.2,1331.4h-3.5v-24.9h3.5V1331.4z"/>
			<path class="st1" d="M1548.8,1311.9h-5c0,2.6,1.8,5.1,5.8,6.1l-1.6,2.7c-2.8-0.7-4.8-2.3-5.9-4.3c-1.1,2.3-3.1,4.1-6,4.9
				l-1.7-2.7c4-1.1,5.9-3.9,5.9-6.8h-5v-2.7h5v-2.7h3.5v2.7h5V1311.9z M1554.6,1326.7c0,3-3.2,4.6-8.4,4.6c-5.3,0-8.5-1.7-8.5-4.6
				c0-3,3.2-4.7,8.5-4.7C1551.4,1322,1554.6,1323.7,1554.6,1326.7z M1541.2,1326.7c0,1.3,1.7,2,5,2c3.2,0,4.9-0.7,4.9-2
				c0-1.4-1.7-2.1-4.9-2.1C1542.9,1324.7,1541.2,1325.3,1541.2,1326.7z M1554.4,1312.4h3.4v2.8h-3.4v6.3h-3.5v-15h3.5V1312.4z"/>
			<path class="st1" d="M1581.5,1319.7h-9.6v1.6h6.9v6.1h-13.9v1.4h14.5v2.6h-17.9v-6.3h13.8v-1.2h-13.9v-2.5h7v-1.6h-9.5v-2.5h22.6
				V1319.7z M1571.9,1308.5h7.5v2.6h-7c0.7,1.4,3.2,2.6,8.3,2.8l-1,2.6c-4.6-0.2-7.8-1.4-9.4-3.3c-1.6,1.9-4.8,3.1-9.4,3.3l-1-2.6
				c5-0.2,7.5-1.4,8.2-2.8h-7v-2.6h7.4v-2h3.4V1308.5z"/>
		</g>
		<g id="그룹_8103" transform="translate(0 58.891)">
			<g class="st3">
				<path d="M1270.7,1515.7l-2.5,0c-0.1,0-0.2-0.1-0.2-0.2v-1.4c0-0.1,0.1-0.2,0.2-0.2l2.5,0h2.6c0.3-0.5,0.5-1.1,0.8-1.9
					c0.1-0.2,0.1-0.5,0.1-0.9c0.3,0.1,0.6,0.1,1,0.2c0.5,0.1,0.7,0.2,0.8,0.2c0.2,0.1,0.2,0.1,0.2,0.3c0,0.1-0.1,0.2-0.2,0.3
					c-0.1,0.1-0.2,0.2-0.3,0.5c-0.2,0.6-0.5,1-0.6,1.3l2.2,0c0.1,0,0.2,0,0.2,0s0,0.1,0,0.2v1.4c0,0.1,0,0.2,0,0.2s-0.1,0-0.2,0
					l-2.5,0h-0.9c0,0.1,0,0.5,0,1.1v0.4h0.7l2.4,0c0.1,0,0.2,0,0.2,0s0,0.1,0,0.2v1.4c0,0.1,0,0.2,0,0.2s-0.1,0-0.2,0l-2.4,0h-0.1
					c0.8,0.9,1.6,1.6,2.6,2.1c-0.2,0.3-0.5,0.8-0.7,1.3c-0.1,0.2-0.2,0.3-0.2,0.3c-0.1,0-0.2-0.1-0.4-0.3c-0.7-0.6-1.3-1.3-1.8-2.1
					c0,1.1,0,2.3,0.1,3.5c0,0.9,0,1.4,0,1.6c0,0.1,0,0.2,0,0.2c0,0-0.1,0-0.2,0h-1.6c-0.1,0-0.2,0-0.2,0c0,0,0-0.1,0-0.2
					c0-0.1,0-0.7,0-1.8c0-1,0-1.9,0-2.8c-0.6,1-1.5,2.1-2.6,3.2c-0.2,0.2-0.3,0.3-0.4,0.3c-0.1,0-0.2-0.1-0.3-0.4
					c-0.2-0.5-0.5-1-0.8-1.3c1.4-0.9,2.6-2.1,3.5-3.6h-0.5l-2.4,0c-0.1,0-0.2,0-0.2,0s0-0.1,0-0.2v-1.4c0-0.1,0-0.2,0-0.2
					s0.1,0,0.2,0l2.4,0h1v-0.4c0-0.5,0-0.9,0-1.1H1270.7z M1274.5,1510.9h-3.5l-2.4,0c-0.1,0-0.2,0-0.2,0s0-0.1,0-0.2v-1.4
					c0-0.1,0-0.2,0-0.2s0.1,0,0.2,0l2.4,0h0.8v-0.5c0-0.5,0-1-0.1-1.3c0.9,0,1.6,0.1,2.1,0.1c0.2,0,0.3,0.1,0.3,0.2
					c0,0.1,0,0.2-0.1,0.3c-0.1,0.1-0.1,0.4-0.1,0.7v0.5h0.7l2.3,0c0.1,0,0.2,0,0.2,0s0,0.1,0,0.2v1.4c0,0.1,0,0.2,0,0.2
					s-0.1,0-0.2,0L1274.5,1510.9z M1269.7,1511.8c0-0.1-0.1-0.1-0.1-0.2c0-0.1,0.1-0.1,0.2-0.2l1-0.3c0.1,0,0.1,0,0.2,0
					c0.1,0,0.1,0.1,0.2,0.2c0.3,0.5,0.5,1.1,0.7,1.8c0,0.1,0,0.1,0,0.1c0,0.1-0.1,0.1-0.2,0.2l-1.1,0.3c-0.1,0-0.2,0-0.2,0
					c-0.1,0-0.2-0.1-0.2-0.2C1270.1,1512.7,1269.9,1512.1,1269.7,1511.8z M1275.6,1524.5c1-1.2,1.7-2.6,2.1-4.1
					c0.3-1.1,0.4-3,0.4-5.8v-2.2c0-1.3,0-2.5-0.1-3.4c0.7,0.1,1.3,0.3,1.8,0.5c1.2-0.3,2.4-0.8,3.5-1.4c0.4-0.2,0.7-0.4,1.1-0.7
					c0.4,0.4,0.9,0.8,1.3,1.4c0.1,0.1,0.1,0.3,0.1,0.4c0,0.1-0.1,0.2-0.3,0.2c-0.2,0-0.5,0.1-0.8,0.2c-1.5,0.7-3.1,1.3-4.7,1.6v2.4
					h3.4l2.7,0c0.1,0,0.2,0,0.2,0s0,0.1,0,0.2v1.5c0,0.1,0,0.2,0,0.2s-0.1,0-0.2,0c0,0-0.1,0-0.3,0c-0.5,0-1.1,0-1.8,0v7l0,2.8
					c0,0.1,0,0.2,0,0.2c0,0-0.1,0-0.2,0h-1.7c-0.1,0-0.2,0-0.2,0s0-0.1,0-0.2l0-2.8v-7h-2.1c0,2.5-0.2,4.5-0.5,5.8
					c-0.4,1.4-0.9,2.6-1.7,3.8c-0.2,0.3-0.3,0.4-0.4,0.4c-0.1,0-0.2-0.1-0.4-0.3C1276.5,1524.9,1276,1524.6,1275.6,1524.5z"/>
			</g>
			<g class="st3">
				<path d="M1298.6,1520.1l-1.3,1.7c-2-1-3.4-2.9-4.2-5.2c-0.8,2.4-2.2,4.5-4.2,5.5l-1.4-1.8c2.9-1.3,4.5-4.7,4.5-8v-2.8h2.2v2.8
					C1294.2,1515.6,1295.7,1518.9,1298.6,1520.1z M1302.5,1525.8h-2.1v-10.2h-3.7v-1.8h3.7v-5.7h2.1V1525.8z"/>
				<path d="M1308,1514h4.3v-4.4h2.1v12.1h-8.6v-12.1h2.2V1514z M1312.3,1519.9v-4.2h-4.3v4.2H1312.3z M1319.6,1525.8h-2.2v-17.7
					h2.2V1525.8z"/>
				<path d="M1338.4,1523.5h-16.1v-1.8h16.1V1523.5z M1337.7,1516.7l-1,1.8c-3-0.6-5.4-2.4-6.5-4.8c-1.2,2.4-3.6,4.2-6.5,4.8l-1-1.8
					c3.7-0.7,6.3-3.4,6.3-6.1v-1.3h2.3v1.3C1331.3,1513.3,1334,1516,1337.7,1516.7z"/>
			</g>
			<g class="st3">
				<path d="M1280,1439.7l-2.5,0c-0.1,0-0.2-0.1-0.2-0.2v-1.4c0-0.1,0.1-0.2,0.2-0.2l2.5,0h2.6c0.3-0.5,0.5-1.1,0.8-1.9
					c0.1-0.2,0.1-0.5,0.1-0.9c0.3,0.1,0.6,0.1,1,0.2c0.5,0.1,0.7,0.2,0.8,0.2c0.2,0.1,0.2,0.1,0.2,0.3c0,0.1-0.1,0.2-0.2,0.3
					c-0.1,0.1-0.2,0.2-0.3,0.5c-0.2,0.6-0.5,1-0.6,1.3l2.2,0c0.1,0,0.2,0,0.2,0s0,0.1,0,0.2v1.4c0,0.1,0,0.2,0,0.2s-0.1,0-0.2,0
					l-2.5,0h-0.9c0,0.1,0,0.5,0,1.1v0.4h0.7l2.4,0c0.1,0,0.2,0,0.2,0s0,0.1,0,0.2v1.4c0,0.1,0,0.2,0,0.2s-0.1,0-0.2,0l-2.4,0h-0.1
					c0.8,0.9,1.6,1.6,2.6,2.1c-0.2,0.3-0.5,0.8-0.7,1.3c-0.1,0.2-0.2,0.3-0.2,0.3c-0.1,0-0.2-0.1-0.4-0.3c-0.7-0.6-1.3-1.3-1.8-2.1
					c0,1.1,0,2.3,0.1,3.5c0,0.9,0,1.4,0,1.6c0,0.1,0,0.2,0,0.2c0,0-0.1,0-0.2,0h-1.6c-0.1,0-0.2,0-0.2,0c0,0,0-0.1,0-0.2
					c0-0.1,0-0.7,0-1.8c0-1,0-1.9,0-2.8c-0.6,1-1.5,2.1-2.6,3.2c-0.2,0.2-0.3,0.3-0.4,0.3c-0.1,0-0.2-0.1-0.3-0.4
					c-0.2-0.5-0.5-1-0.8-1.3c1.4-0.9,2.6-2.1,3.5-3.6h-0.5l-2.4,0c-0.1,0-0.2,0-0.2,0s0-0.1,0-0.2v-1.4c0-0.1,0-0.2,0-0.2
					s0.1,0,0.2,0l2.4,0h1v-0.4c0-0.5,0-0.9,0-1.1H1280z M1283.9,1434.9h-3.5l-2.4,0c-0.1,0-0.2,0-0.2,0s0-0.1,0-0.2v-1.4
					c0-0.1,0-0.2,0-0.2s0.1,0,0.2,0l2.4,0h0.8v-0.5c0-0.5,0-1-0.1-1.3c0.9,0,1.6,0.1,2.1,0.1c0.2,0,0.3,0.1,0.3,0.2
					c0,0.1,0,0.2-0.1,0.3c-0.1,0.1-0.1,0.4-0.1,0.7v0.5h0.7l2.3,0c0.1,0,0.2,0,0.2,0s0,0.1,0,0.2v1.4c0,0.1,0,0.2,0,0.2
					s-0.1,0-0.2,0L1283.9,1434.9z M1279.1,1435.8c0-0.1-0.1-0.1-0.1-0.2c0-0.1,0.1-0.1,0.2-0.2l1-0.3c0.1,0,0.1,0,0.2,0
					c0.1,0,0.1,0.1,0.2,0.2c0.3,0.5,0.5,1.1,0.7,1.8c0,0.1,0,0.1,0,0.1c0,0.1-0.1,0.1-0.2,0.2l-1.1,0.3c-0.1,0-0.2,0-0.2,0
					c-0.1,0-0.2-0.1-0.2-0.2C1279.4,1436.7,1279.3,1436.1,1279.1,1435.8z M1285,1448.5c1-1.2,1.7-2.6,2.1-4.1c0.3-1.1,0.4-3,0.4-5.8
					v-2.2c0-1.3,0-2.5-0.1-3.4c0.7,0.1,1.3,0.3,1.8,0.5c1.2-0.3,2.4-0.8,3.5-1.4c0.4-0.2,0.7-0.4,1.1-0.7c0.4,0.4,0.9,0.8,1.3,1.4
					c0.1,0.1,0.1,0.3,0.1,0.4c0,0.1-0.1,0.2-0.3,0.2c-0.2,0-0.5,0.1-0.8,0.2c-1.5,0.7-3.1,1.3-4.7,1.6v2.4h3.4l2.7,0
					c0.1,0,0.2,0,0.2,0s0,0.1,0,0.2v1.5c0,0.1,0,0.2,0,0.2s-0.1,0-0.2,0c0,0-0.1,0-0.3,0c-0.5,0-1.1,0-1.8,0v7l0,2.8
					c0,0.1,0,0.2,0,0.2c0,0-0.1,0-0.2,0h-1.7c-0.1,0-0.2,0-0.2,0s0-0.1,0-0.2l0-2.8v-7h-2.1c0,2.5-0.2,4.5-0.5,5.8
					c-0.4,1.4-0.9,2.6-1.7,3.8c-0.2,0.3-0.3,0.4-0.4,0.4c-0.1,0-0.2-0.1-0.4-0.3C1285.8,1448.9,1285.4,1448.6,1285,1448.5z"/>
			</g>
			<g class="st3">
				<path d="M1300.1,1438h4.3v-4.4h2.1v12.1h-8.6v-12.1h2.2V1438z M1304.4,1443.9v-4.2h-4.3v4.2H1304.4z M1311.7,1449.8h-2.2v-17.7
					h2.2V1449.8z"/>
				<path d="M1330.4,1447.6h-16.1v-1.8h16.1V1447.6z M1329.8,1441.2l-0.9,1.7c-3-0.5-5.4-2.1-6.6-4.3c-1.1,2.2-3.6,3.9-6.5,4.4
					l-0.9-1.8c3.6-0.5,6.2-3,6.2-5.6v-0.3h-5.5v-1.7h13.4v1.7h-5.6v0.3C1323.5,1438.3,1326.1,1440.7,1329.8,1441.2z"/>
				<path d="M1334.8,1443.5c2.5,0,5.1-0.3,7.8-0.8l0.3,1.8c-3.1,0.6-6,0.8-8.7,0.8h-1.5v-11.5h2.1V1443.5z M1346.3,1449.8h-2.1
					v-17.7h2.1V1449.8z"/>
				<path d="M1365,1447.5h-16.1v-1.8h16.1V1447.5z M1364.4,1440.7l-1,1.8c-3-0.6-5.4-2.4-6.5-4.8c-1.2,2.4-3.6,4.2-6.5,4.8l-1-1.8
					c3.7-0.7,6.3-3.4,6.3-6.1v-1.3h2.3v1.3C1358,1437.3,1360.7,1440,1364.4,1440.7z"/>
			</g>
			<g class="st3">
				<path d="M1320.4,1472.6h-16.1v-1.8h7v-3.8h-5.2v-8.5h12.5v8.5h-5.2v3.8h7V1472.6z M1308.2,1465.3h8.2v-5.1h-8.2V1465.3z"/>
				<path d="M1329.2,1459.8h-4.7v4.3c2.1,0,3.6-0.1,5.3-0.4l0.1,1.7c-2,0.3-3.7,0.4-6.4,0.4h-1.2v-7.8h6.8V1459.8z M1336.8,1471.6
					h-9.8v1.3h10.4v1.7h-12.6v-4.6h9.9v-1.2h-9.9v-1.7h12V1471.6z M1333.3,1466.3h-2.1v-3.8h-3v-1.7h3v-3.4h2.1V1466.3z
					 M1336.8,1466.4h-2.1v-9.3h2.1V1466.4z"/>
			</g>
			<g class="st3">
				<path d="M1704.3,1515.7l-2.5,0c-0.1,0-0.2-0.1-0.2-0.2v-1.4c0-0.1,0.1-0.2,0.2-0.2l2.5,0h2.6c0.3-0.5,0.5-1.1,0.8-1.9
					c0.1-0.2,0.1-0.5,0.1-0.9c0.3,0.1,0.6,0.1,1,0.2c0.5,0.1,0.7,0.2,0.8,0.2c0.2,0.1,0.2,0.1,0.2,0.3c0,0.1-0.1,0.2-0.2,0.3
					c-0.1,0.1-0.2,0.2-0.3,0.5c-0.2,0.6-0.5,1-0.6,1.3l2.2,0c0.1,0,0.2,0,0.2,0s0,0.1,0,0.2v1.4c0,0.1,0,0.2,0,0.2c0,0-0.1,0-0.2,0
					l-2.5,0h-0.9c0,0.1,0,0.5,0,1.1v0.4h0.7l2.4,0c0.1,0,0.2,0,0.2,0s0,0.1,0,0.2v1.4c0,0.1,0,0.2,0,0.2c0,0-0.1,0-0.2,0l-2.4,0
					h-0.1c0.8,0.9,1.6,1.6,2.6,2.1c-0.2,0.3-0.5,0.8-0.7,1.3c-0.1,0.2-0.2,0.3-0.2,0.3c-0.1,0-0.2-0.1-0.4-0.3
					c-0.7-0.6-1.3-1.3-1.8-2.1c0,1.1,0,2.3,0.1,3.5c0,0.9,0,1.4,0,1.6c0,0.1,0,0.2,0,0.2c0,0-0.1,0-0.2,0h-1.6c-0.1,0-0.2,0-0.2,0
					c0,0,0-0.1,0-0.2c0-0.1,0-0.7,0-1.8c0-1,0-1.9,0-2.8c-0.6,1-1.5,2.1-2.6,3.2c-0.2,0.2-0.3,0.3-0.4,0.3c-0.1,0-0.2-0.1-0.3-0.4
					c-0.2-0.5-0.5-1-0.8-1.3c1.4-0.9,2.6-2.1,3.5-3.6h-0.5l-2.4,0c-0.1,0-0.2,0-0.2,0s0-0.1,0-0.2v-1.4c0-0.1,0-0.2,0-0.2
					c0,0,0.1,0,0.2,0l2.4,0h1v-0.4c0-0.5,0-0.9,0-1.1H1704.3z M1708.2,1510.9h-3.5l-2.4,0c-0.1,0-0.2,0-0.2,0s0-0.1,0-0.2v-1.4
					c0-0.1,0-0.2,0-0.2c0,0,0.1,0,0.2,0l2.4,0h0.8v-0.5c0-0.5,0-1-0.1-1.3c0.9,0,1.6,0.1,2.1,0.1c0.2,0,0.3,0.1,0.3,0.2
					c0,0.1,0,0.2-0.1,0.3c-0.1,0.1-0.1,0.4-0.1,0.7v0.5h0.7l2.3,0c0.1,0,0.2,0,0.2,0s0,0.1,0,0.2v1.4c0,0.1,0,0.2,0,0.2
					c0,0-0.1,0-0.2,0L1708.2,1510.9z M1703.4,1511.8c0-0.1-0.1-0.1-0.1-0.2c0-0.1,0.1-0.1,0.2-0.2l1-0.3c0.1,0,0.1,0,0.2,0
					c0.1,0,0.1,0.1,0.2,0.2c0.3,0.5,0.5,1.1,0.7,1.8c0,0.1,0,0.1,0,0.1c0,0.1-0.1,0.1-0.2,0.2l-1.1,0.3c-0.1,0-0.2,0-0.2,0
					c-0.1,0-0.2-0.1-0.2-0.2C1703.7,1512.7,1703.5,1512.1,1703.4,1511.8z M1709.2,1524.5c1-1.2,1.7-2.6,2.1-4.1
					c0.3-1.1,0.4-3,0.4-5.8v-2.2c0-1.3,0-2.5-0.1-3.4c0.7,0.1,1.3,0.3,1.8,0.5c1.2-0.3,2.4-0.8,3.5-1.4c0.4-0.2,0.7-0.4,1.1-0.7
					c0.4,0.4,0.9,0.8,1.3,1.4c0.1,0.1,0.1,0.3,0.1,0.4c0,0.1-0.1,0.2-0.3,0.2c-0.2,0-0.5,0.1-0.8,0.2c-1.5,0.7-3,1.3-4.7,1.6v2.4
					h3.4l2.7,0c0.1,0,0.2,0,0.2,0s0,0.1,0,0.2v1.5c0,0.1,0,0.2,0,0.2c0,0-0.1,0-0.2,0c0,0-0.1,0-0.3,0c-0.5,0-1.1,0-1.8,0v7l0,2.8
					c0,0.1,0,0.2,0,0.2c0,0-0.1,0-0.2,0h-1.7c-0.1,0-0.2,0-0.2,0s0-0.1,0-0.2l0-2.8v-7h-2.1c0,2.5-0.2,4.5-0.5,5.8
					c-0.4,1.4-0.9,2.6-1.7,3.8c-0.2,0.3-0.3,0.4-0.4,0.4c-0.1,0-0.2-0.1-0.4-0.3C1710.1,1524.9,1709.7,1524.6,1709.2,1524.5z"/>
			</g>
			<g class="st3">
				<path d="M1730.2,1516.1l-1.2,1.7c-1.6-0.6-2.7-1.7-3.3-3.1c-0.6,1.6-1.8,2.9-3.5,3.6l-1.2-1.7c2.4-1.1,3.6-3.3,3.6-5.2v-2.2h2.1
					v2.2C1726.8,1513.3,1727.9,1515.2,1730.2,1516.1z M1736.5,1522.5c0,2-2.4,3.3-6.1,3.3c-3.7,0-6.1-1.2-6.1-3.3s2.3-3.2,6.1-3.2
					C1734.1,1519.3,1736.5,1520.5,1736.5,1522.5z M1726.6,1522.5c0,1.1,1.4,1.6,3.9,1.6c2.4,0,3.9-0.5,3.9-1.6c0-1-1.4-1.6-3.9-1.6
					C1728,1520.9,1726.6,1521.5,1726.6,1522.5z M1736.4,1519h-2.1v-4.6h-1.8v4h-2v-9.9h2v4.1h1.8v-4.5h2.1V1519z"/>
				<path d="M1749.1,1516.7l-1.1,1.7c-2-0.7-3.3-2-4.1-3.7c-0.8,1.9-2.2,3.3-4.3,4.1l-1.2-1.7c2.9-0.9,4.4-3.3,4.4-5.8v-2h2.2v2
					C1744.9,1513.6,1746.4,1515.8,1749.1,1516.7z M1753.2,1525.4h-12v-5.6h2.2v3.8h9.8V1525.4z M1752.5,1513.3h2.5v1.8h-2.5v5.9
					h-2.2v-13h2.2V1513.3z"/>
			</g>
			<g class="st3">
				<path d="M1674,1439.7l-2.5,0c-0.1,0-0.2-0.1-0.2-0.2v-1.4c0-0.1,0.1-0.2,0.2-0.2l2.5,0h2.6c0.3-0.5,0.5-1.1,0.8-1.9
					c0.1-0.2,0.1-0.5,0.1-0.9c0.3,0.1,0.6,0.1,1,0.2c0.5,0.1,0.7,0.2,0.8,0.2c0.2,0.1,0.2,0.1,0.2,0.3c0,0.1-0.1,0.2-0.2,0.3
					c-0.1,0.1-0.2,0.2-0.3,0.5c-0.2,0.6-0.5,1-0.6,1.3l2.2,0c0.1,0,0.2,0,0.2,0s0,0.1,0,0.2v1.4c0,0.1,0,0.2,0,0.2c0,0-0.1,0-0.2,0
					l-2.5,0h-0.9c0,0.1,0,0.5,0,1.1v0.4h0.7l2.4,0c0.1,0,0.2,0,0.2,0s0,0.1,0,0.2v1.4c0,0.1,0,0.2,0,0.2c0,0-0.1,0-0.2,0l-2.4,0
					h-0.1c0.8,0.9,1.6,1.6,2.6,2.1c-0.2,0.3-0.5,0.8-0.7,1.3c-0.1,0.2-0.2,0.3-0.2,0.3c-0.1,0-0.2-0.1-0.4-0.3
					c-0.7-0.6-1.3-1.3-1.8-2.1c0,1.1,0,2.3,0.1,3.5c0,0.9,0,1.4,0,1.6c0,0.1,0,0.2,0,0.2c0,0-0.1,0-0.2,0h-1.6c-0.1,0-0.2,0-0.2,0
					c0,0,0-0.1,0-0.2c0-0.1,0-0.7,0-1.8c0-1,0-1.9,0-2.8c-0.6,1-1.5,2.1-2.6,3.2c-0.2,0.2-0.3,0.3-0.4,0.3c-0.1,0-0.2-0.1-0.3-0.4
					c-0.2-0.5-0.5-1-0.8-1.3c1.4-0.9,2.6-2.1,3.5-3.6h-0.5l-2.4,0c-0.1,0-0.2,0-0.2,0s0-0.1,0-0.2v-1.4c0-0.1,0-0.2,0-0.2
					c0,0,0.1,0,0.2,0l2.4,0h1v-0.4c0-0.5,0-0.9,0-1.1H1674z M1677.9,1434.9h-3.5l-2.4,0c-0.1,0-0.2,0-0.2,0s0-0.1,0-0.2v-1.4
					c0-0.1,0-0.2,0-0.2c0,0,0.1,0,0.2,0l2.4,0h0.8v-0.5c0-0.5,0-1-0.1-1.3c0.9,0,1.6,0.1,2.1,0.1c0.2,0,0.3,0.1,0.3,0.2
					c0,0.1,0,0.2-0.1,0.3c-0.1,0.1-0.1,0.4-0.1,0.7v0.5h0.7l2.3,0c0.1,0,0.2,0,0.2,0s0,0.1,0,0.2v1.4c0,0.1,0,0.2,0,0.2
					c0,0-0.1,0-0.2,0L1677.9,1434.9z M1673.1,1435.8c0-0.1-0.1-0.1-0.1-0.2c0-0.1,0.1-0.1,0.2-0.2l1-0.3c0.1,0,0.1,0,0.2,0
					c0.1,0,0.1,0.1,0.2,0.2c0.3,0.5,0.5,1.1,0.7,1.8c0,0.1,0,0.1,0,0.1c0,0.1-0.1,0.1-0.2,0.2l-1.1,0.3c-0.1,0-0.2,0-0.2,0
					c-0.1,0-0.2-0.1-0.2-0.2C1673.4,1436.7,1673.3,1436.1,1673.1,1435.8z M1679,1448.5c1-1.2,1.7-2.6,2.1-4.1c0.3-1.1,0.4-3,0.4-5.8
					v-2.2c0-1.3,0-2.5-0.1-3.4c0.7,0.1,1.3,0.3,1.8,0.5c1.2-0.3,2.4-0.8,3.5-1.4c0.4-0.2,0.7-0.4,1.1-0.7c0.4,0.4,0.9,0.8,1.3,1.4
					c0.1,0.1,0.1,0.3,0.1,0.4c0,0.1-0.1,0.2-0.3,0.2c-0.2,0-0.5,0.1-0.8,0.2c-1.5,0.7-3,1.3-4.7,1.6v2.4h3.4l2.7,0
					c0.1,0,0.2,0,0.2,0s0,0.1,0,0.2v1.5c0,0.1,0,0.2,0,0.2c0,0-0.1,0-0.2,0c0,0-0.1,0-0.3,0c-0.5,0-1.1,0-1.8,0v7l0,2.8
					c0,0.1,0,0.2,0,0.2c0,0-0.1,0-0.2,0h-1.7c-0.1,0-0.2,0-0.2,0s0-0.1,0-0.2l0-2.8v-7h-2.1c0,2.5-0.2,4.5-0.5,5.8
					c-0.4,1.4-0.9,2.6-1.7,3.8c-0.2,0.3-0.3,0.4-0.4,0.4c-0.1,0-0.2-0.1-0.4-0.3C1679.8,1448.9,1679.4,1448.6,1679,1448.5z"/>
			</g>
			<g class="st3">
				<path d="M1701.6,1440.7l-1.1,1.7c-2-0.7-3.3-2-4.1-3.7c-0.8,1.9-2.2,3.3-4.3,4.1l-1.2-1.7c2.9-0.9,4.4-3.3,4.4-5.8v-2h2.2v2
					C1697.3,1437.6,1698.8,1439.8,1701.6,1440.7z M1705.6,1449.4h-12v-5.6h2.2v3.8h9.8V1449.4z M1704.9,1437.3h2.5v1.8h-2.5v5.9
					h-2.2v-13h2.2V1437.3z"/>
				<path d="M1717.7,1436.1h3.2v-4h2.2v9.5h-2.2v-3.7h-3.2c-0.4,2-2.3,3.3-4.6,3.3c-2.7,0-4.7-1.7-4.7-4.2c0-2.4,2-4.2,4.7-4.1
					C1715.5,1432.9,1717.3,1434.2,1717.7,1436.1z M1710.6,1437c0,1.4,1.1,2.3,2.6,2.3c1.5,0,2.5-0.9,2.6-2.3c0-1.4-1.1-2.3-2.6-2.3
					C1711.7,1434.7,1710.6,1435.6,1710.6,1437z M1713.6,1444.3h7.3v-1.9h2.2v7.1h-11.6v-7.1h2.1V1444.3z M1720.9,1447.8v-1.8h-7.3
					v1.8H1720.9z"/>
				<path d="M1741.7,1447.8h-16.1v-1.8h4.2v-3.6h-2.8v-1.8h2.5v-5.2h-2.5v-1.7h13.4v1.7h-2.6v5.2h2.5v1.8h-2.8v3.6h4.3V1447.8z
					 M1735.6,1440.6v-5.2h-4v5.2H1735.6z M1735.3,1446v-3.6h-3.4v3.6H1735.3z"/>
				<path d="M1759,1442.8h-6.8v3.2h-2.1v-3.2h-7.2v-1.8h16.1V1442.8z M1757.5,1434.7h-5.1c0.2,1.7,2.4,3.2,5.8,3.7l-0.8,1.7
					c-3.2-0.4-5.5-1.8-6.4-3.7c-0.9,1.9-3.3,3.3-6.4,3.7l-0.8-1.7c3.4-0.4,5.5-2,5.7-3.7h-5.1v-1.7h13.2V1434.7z M1757.2,1449.4
					h-12.4v-5.1h2.2v3.3h10.2V1449.4z"/>
			</g>
			<g id="그룹_8091" transform="translate(1299.688 1308)">
				<g>
					<defs>
						<rect id="SVGID_1_" x="0" y="0" width="440.6" height="485.7"/>
					</defs>
					<clipPath id="SVGID_00000036249172425651680920000009828460612404496280_">
						<use xlink:href="#SVGID_1_"  style="overflow:visible;"/>
					</clipPath>
					<g id="그룹_8090" style="clip-path:url(#SVGID_00000036249172425651680920000009828460612404496280_);">
						<g id="그룹_8031" transform="translate(0 364.496)">
							<g>
								<defs>
									<path id="SVGID_00000183939218510771222600000012931443972562450347_" d="M420.9,5c-5,2.9-8.8,6.5-12.5,10
										c-6.6,6.3-11.8,11.2-22.8,11.2s-16.2-4.9-22.8-11.2c-3.7-3.5-7.5-7.1-12.5-10c-12.3-6.7-27.2-6.7-39.5,0
										c-5,2.9-8.8,6.5-12.5,10c-6.6,6.3-11.8,11.2-22.8,11.2s-16.2-4.9-22.8-11.2c-3.7-3.5-7.5-7.1-12.5-10
										c-12.3-6.7-27.2-6.7-39.5,0c-5,2.9-8.8,6.5-12.5,10c-6.6,6.3-11.8,11.2-22.8,11.2S149,21.3,142.5,15
										c-3.7-3.5-7.5-7.1-12.5-10c-6-3.4-12.9-5.1-19.8-5c-6.9-0.1-13.7,1.6-19.8,5c-5,2.9-8.8,6.5-12.5,10
										c-6.6,6.3-11.8,11.2-22.8,11.2S38.9,21.3,32.3,15c-3.7-3.5-7.5-7.1-12.5-10C13.7,1.6,6.9-0.1,0,0v13.8
										c11,0,16.2,4.9,22.8,11.2c3.7,3.5,7.5,7.1,12.5,10c6,3.4,12.9,5.1,19.8,5c6.9,0.1,13.7-1.6,19.8-5c5-2.9,8.8-6.5,12.5-10
										c6.6-6.3,11.8-11.2,22.8-11.2s16.2,4.9,22.8,11.2c3.7,3.5,7.5,7.1,12.5,10c12.3,6.7,27.2,6.7,39.5,0c5-2.9,8.8-6.5,12.5-10
										c6.6-6.3,11.8-11.2,22.8-11.2s16.2,4.9,22.8,11.2c3.7,3.5,7.5,7.1,12.5,10c12.3,6.7,27.2,6.7,39.5,0c5-2.9,8.8-6.5,12.5-10
										c6.6-6.3,11.8-11.2,22.8-11.2s16.2,4.9,22.8,11.2c3.7,3.5,7.5,7.1,12.5,10c12.3,6.7,27.2,6.7,39.5,0c5-2.9,8.8-6.5,12.5-10
										c6.6-6.3,11.8-11.2,22.8-11.2V0C433.7-0.1,426.9,1.6,420.9,5"/>
								</defs>
								<clipPath id="SVGID_00000022525516586084922190000016530918288594053251_">
									<use xlink:href="#SVGID_00000183939218510771222600000012931443972562450347_"  style="overflow:visible;"/>
								</clipPath>
								<g id="그룹_8030" style="clip-path:url(#SVGID_00000022525516586084922190000016530918288594053251_);">
									<rect id="사각형_5904" x="0" y="0" class="st1" width="440.6" height="40"/>
								</g>
							</g>
						</g>
						<g id="그룹_8033" transform="translate(204.546 33.361)">
							<g>
								<defs>
									<rect id="SVGID_00000095335710001202615030000005422995215810696121_" x="0" y="0" width="31.5" height="304.5"/>
								</defs>
								<clipPath id="SVGID_00000014606832332708160450000009073771071494513579_">
									<use xlink:href="#SVGID_00000095335710001202615030000005422995215810696121_"  style="overflow:visible;"/>
								</clipPath>
								<g id="그룹_8032" style="clip-path:url(#SVGID_00000014606832332708160450000009073771071494513579_);">
									<rect id="사각형_5905" x="0" y="0" class="st1" width="31.5" height="304.5"/>
								</g>
							</g>
						</g>
						<g id="그룹_8035" transform="translate(165.04 0)">
							<g>
								<defs>
									<polygon id="SVGID_00000128465074591768337050000009632090113397156516_" points="55.3,0 0,62.7 23.6,83.5 55.3,47.7 
										86.9,83.5 110.5,62.7 									"/>
								</defs>
								<clipPath id="SVGID_00000067957725174359484970000002196303720916523178_">
									<use xlink:href="#SVGID_00000128465074591768337050000009632090113397156516_"  style="overflow:visible;"/>
								</clipPath>
								<g id="그룹_8034" style="clip-path:url(#SVGID_00000067957725174359484970000002196303720916523178_);">
									<rect id="사각형_5907" x="0" y="0" class="st1" width="110.5" height="83.5"/>
								</g>
							</g>
						</g>
						<g id="그룹_8037" transform="translate(236.076 117.048)">
							<g>
								<defs>
									<path id="SVGID_00000182497389307453816190000010836893267266623110_" d="M69.7,0C31.2,0,0,31.2,0,69.7c0,0,0,0.1,0,0.1
										v142.7h31.5V69.7c0-21.1,17.1-38.2,38.2-38.2h10.6V0H69.7z"/>
								</defs>
								<clipPath id="SVGID_00000096740075113975472500000003233292755592178829_">
									<use xlink:href="#SVGID_00000182497389307453816190000010836893267266623110_"  style="overflow:visible;"/>
								</clipPath>
								<g id="그룹_8036" style="clip-path:url(#SVGID_00000096740075113975472500000003233292755592178829_);">
									<rect id="사각형_5908" x="0" y="0" class="st10" width="80.4" height="212.4"/>
								</g>
							</g>
						</g>
						<g id="그룹_8039" transform="translate(284.549 100.933)">
							<g>
								<defs>
									<path id="SVGID_00000172418742520812127890000012903181518539134127_" d="M0,31.9c0,17.6,14.3,31.9,31.9,31.9
										c17.6,0,31.9-14.3,31.9-31.9S49.5,0,31.9,0l0,0C14.3,0,0,14.3,0,31.9"/>
								</defs>
								<clipPath id="SVGID_00000173867114035639498290000001936619202994868670_">
									<use xlink:href="#SVGID_00000172418742520812127890000012903181518539134127_"  style="overflow:visible;"/>
								</clipPath>
								<g id="그룹_8038" style="clip-path:url(#SVGID_00000173867114035639498290000001936619202994868670_);">
									<rect id="사각형_5909" x="0" y="0" class="st10" width="63.8" height="63.8"/>
								</g>
							</g>
						</g>
						<g id="그룹_8041" transform="translate(124.194 117.123)">
							<g>
								<defs>
									<path id="SVGID_00000088817815354249891940000011076830354451740801_" d="M0,0v31.5h10.6c21.1,0,38.2,17.1,38.2,38.2v142.7
										h31.5V69.7C80.4,31.2,49.2,0,10.7,0c0,0-0.1,0-0.1,0H0z"/>
								</defs>
								<clipPath id="SVGID_00000080175544997833517330000010642925109404212142_">
									<use xlink:href="#SVGID_00000088817815354249891940000011076830354451740801_"  style="overflow:visible;"/>
								</clipPath>
								<g id="그룹_8040" style="clip-path:url(#SVGID_00000080175544997833517330000010642925109404212142_);">
									<rect id="사각형_5910" x="0" y="0" class="st10" width="80.4" height="212.4"/>
								</g>
							</g>
						</g>
						<g id="그룹_8043" transform="translate(92.313 101.008)">
							<g>
								<defs>
									<path id="SVGID_00000158715604286885751720000006018307419573908868_" d="M0,31.9c0,17.6,14.3,31.9,31.9,31.9
										s31.9-14.3,31.9-31.9C63.8,14.3,49.5,0,31.9,0S0,14.3,0,31.9L0,31.9"/>
								</defs>
								<clipPath id="SVGID_00000127003172645617784810000011738660063700203705_">
									<use xlink:href="#SVGID_00000158715604286885751720000006018307419573908868_"  style="overflow:visible;"/>
								</clipPath>
								<g id="그룹_8042" style="clip-path:url(#SVGID_00000127003172645617784810000011738660063700203705_);">
									<rect id="사각형_5911" x="0" y="0" class="st10" width="63.8" height="63.8"/>
								</g>
							</g>
						</g>
						<g id="그룹_8045" transform="translate(267.593 192.446)">
							<g>
								<defs>
									<path id="SVGID_00000080167872752344059910000009492346679700868489_" d="M48.2,6.2C19,18.6,0,47.2,0,79v52.3h31.5V79
										c0-26.2,21.3-47.4,47.5-47.5V0C68.4,0,58,2.1,48.2,6.2"/>
								</defs>
								<clipPath id="SVGID_00000012436391621376171670000010046116110412461737_">
									<use xlink:href="#SVGID_00000080167872752344059910000009492346679700868489_"  style="overflow:visible;"/>
								</clipPath>
								<g id="그룹_8044" style="clip-path:url(#SVGID_00000012436391621376171670000010046116110412461737_);">
									<rect id="사각형_5912" x="0" y="0" class="st1" width="79" height="131.3"/>
								</g>
							</g>
						</g>
						<g id="그룹_8047" transform="translate(315.042 177.016)">
							<g>
								<defs>
									<path id="SVGID_00000158751442048004829840000010221717384584161922_" d="M0,31.2c0,17.2,14,31.2,31.2,31.2
										c17.2,0,31.2-14,31.2-31.2C62.4,14,48.4,0,31.2,0l0,0C14,0,0,14,0,31.2"/>
								</defs>
								<clipPath id="SVGID_00000023978177083939086850000008563297764791464349_">
									<use xlink:href="#SVGID_00000158751442048004829840000010221717384584161922_"  style="overflow:visible;"/>
								</clipPath>
								<g id="그룹_8046" style="clip-path:url(#SVGID_00000023978177083939086850000008563297764791464349_);">
									<rect id="사각형_5913" x="0" y="0" class="st1" width="62.4" height="62.4"/>
								</g>
							</g>
						</g>
						<g id="그룹_8049" transform="translate(94.046 192.446)">
							<g>
								<defs>
									<path id="SVGID_00000178189056755804903190000011050479853117604240_" d="M0,31.5c26.2,0,47.4,21.3,47.5,47.5v52.3H79V79
										C79,35.4,43.7,0,0.1,0C0.1,0,0,0,0,0L0,31.5z"/>
								</defs>
								<clipPath id="SVGID_00000075879712023898827240000014055338253781104565_">
									<use xlink:href="#SVGID_00000178189056755804903190000011050479853117604240_"  style="overflow:visible;"/>
								</clipPath>
								<g id="그룹_8048" style="clip-path:url(#SVGID_00000075879712023898827240000014055338253781104565_);">
									<rect id="사각형_5914" x="0" y="0" class="st1" width="79" height="131.3"/>
								</g>
							</g>
						</g>
						<g id="그룹_8051" transform="translate(63.189 177.016)">
							<g>
								<defs>
									<path id="SVGID_00000093898311911113281350000013025629483702082434_" d="M0,31.2c0,17.2,14,31.2,31.2,31.2
										s31.2-14,31.2-31.2C62.4,14,48.4,0,31.2,0C14,0,0,14,0,31.2L0,31.2"/>
								</defs>
								<clipPath id="SVGID_00000089532229077631348560000000763660285355360694_">
									<use xlink:href="#SVGID_00000093898311911113281350000013025629483702082434_"  style="overflow:visible;"/>
								</clipPath>
								<g id="그룹_8050" style="clip-path:url(#SVGID_00000089532229077631348560000000763660285355360694_);">
									<rect id="사각형_5915" x="0" y="0" class="st1" width="62.4" height="62.4"/>
								</g>
							</g>
						</g>
						<g id="그룹_8058" transform="translate(0 0)">
							<g>
								<defs>
									<rect id="SVGID_00000158007662542590532400000017386997240978232206_" x="0" y="0" width="440.6" height="485.7"/>
								</defs>
								<clipPath id="SVGID_00000060743906021973877290000007355078883705363104_">
									<use xlink:href="#SVGID_00000158007662542590532400000017386997240978232206_"  style="overflow:visible;"/>
								</clipPath>
								<g id="그룹_8057" style="clip-path:url(#SVGID_00000060743906021973877290000007355078883705363104_);">
									<g id="그룹_8056" transform="translate(119.124 274.117)" class="st19">
										<g id="그룹_8055">
											<g>
												<defs>
													<rect id="SVGID_00000095337459494124182080000012064536153201109654_" x="0" y="0" width="202.4" height="202.4"/>
												</defs>
												<clipPath id="SVGID_00000145026614144091164460000006934371027907112867_">
													<use xlink:href="#SVGID_00000095337459494124182080000012064536153201109654_"  style="overflow:visible;"/>
												</clipPath>
												<g id="그룹_8054" style="clip-path:url(#SVGID_00000145026614144091164460000006934371027907112867_);">
													<g id="그룹_8053">
														<g>
															<defs>
																<path id="SVGID_00000152956260668029035830000002218987088099846309_" d="M202.4,101.2
																	c0,55.9-45.3,101.2-101.2,101.2S0,157.1,0,101.2C0,45.3,45.3,0,101.2,0S202.4,45.3,202.4,101.2L202.4,101.2"/>
															</defs>
															<clipPath id="SVGID_00000063610589978788919020000013917567032052084635_">
																<use xlink:href="#SVGID_00000152956260668029035830000002218987088099846309_"  style="overflow:visible;"/>
															</clipPath>
															<g id="그룹_8052" style="clip-path:url(#SVGID_00000063610589978788919020000013917567032052084635_);">
																<rect id="사각형_5916" x="0" y="0" class="st1" width="202.4" height="202.4"/>
															</g>
														</g>
													</g>
												</g>
											</g>
										</g>
									</g>
								</g>
							</g>
						</g>
						<g id="그룹_8060" transform="translate(119.124 283.315)">
							<g>
								<defs>
									<path id="SVGID_00000004517211789666922530000005453302072580357051_" d="M0,101.2c0,55.9,45.3,101.2,101.2,101.2
										s101.2-45.3,101.2-101.2C202.4,45.3,157.1,0,101.2,0S0,45.3,0,101.2L0,101.2"/>
								</defs>
								<clipPath id="SVGID_00000171000207743242577010000007718114837084752573_">
									<use xlink:href="#SVGID_00000004517211789666922530000005453302072580357051_"  style="overflow:visible;"/>
								</clipPath>
								<g id="그룹_8059" style="clip-path:url(#SVGID_00000171000207743242577010000007718114837084752573_);">
									<rect id="사각형_5919" x="0" y="0" class="st1" width="202.4" height="202.4"/>
								</g>
							</g>
						</g>
						<g id="그룹_8065" transform="translate(0 0)">
							<g>
								<defs>
									<rect id="SVGID_00000109719670058333500770000013037566120841276846_" x="0" y="0" width="440.6" height="485.7"/>
								</defs>
								<clipPath id="SVGID_00000061442130451195172160000017591814322982105521_">
									<use xlink:href="#SVGID_00000109719670058333500770000013037566120841276846_"  style="overflow:visible;"/>
								</clipPath>
								<g id="그룹_8064" style="clip-path:url(#SVGID_00000061442130451195172160000017591814322982105521_);">
									<g id="그룹_8063" transform="translate(138.793 302.984)">
										<g id="그룹_8062">
											<g>
												<defs>
													<rect id="SVGID_00000084527440306895652120000001536935613937101960_" x="0" y="0" width="163" height="163"/>
												</defs>
												<clipPath id="SVGID_00000017484433787380686530000012695624937553194388_">
													<use xlink:href="#SVGID_00000084527440306895652120000001536935613937101960_"  style="overflow:visible;"/>
												</clipPath>
												<g id="그룹_8061" style="clip-path:url(#SVGID_00000017484433787380686530000012695624937553194388_);">
													<path id="패스_3291" class="st25" d="M163,81.5c0,45-36.5,81.5-81.5,81.5S0,126.5,0,81.5C0,36.5,36.5,0,81.5,0
														C126.5,0,163,36.5,163,81.5L163,81.5"/>
												</g>
											</g>
										</g>
									</g>
									<path id="패스_3292" class="st4" d="M288.8,384.5c0,37.8-30.6,68.5-68.5,68.5s-68.5-30.6-68.5-68.5s30.6-68.5,68.5-68.5
										S288.8,346.7,288.8,384.5L288.8,384.5"/>
								</g>
							</g>
						</g>
						<g id="그룹_8067" transform="translate(348.31 131.857)">
							<g>
								<defs>
									<rect id="SVGID_00000083802139160206891250000000492509809866671799_" x="0" y="0" width="5.3" height="1.9"/>
								</defs>
								<clipPath id="SVGID_00000163071243757023467090000006627698522352400054_">
									<use xlink:href="#SVGID_00000083802139160206891250000000492509809866671799_"  style="overflow:visible;"/>
								</clipPath>
								<g id="그룹_8066" style="clip-path:url(#SVGID_00000163071243757023467090000006627698522352400054_);">
									<rect id="사각형_5928" x="0" y="0" class="st10" width="5.3" height="1.9"/>
								</g>
							</g>
						</g>
						<g id="그룹_8069" transform="translate(355.503 131.857)">
							<g>
								<defs>
									<rect id="SVGID_00000054981043968832958970000012062874951197835684_" x="0" y="0" width="5.3" height="1.9"/>
								</defs>
								<clipPath id="SVGID_00000016037347429364724830000002209828244547496101_">
									<use xlink:href="#SVGID_00000054981043968832958970000012062874951197835684_"  style="overflow:visible;"/>
								</clipPath>
								<g id="그룹_8068" style="clip-path:url(#SVGID_00000016037347429364724830000002209828244547496101_);">
									<rect id="사각형_5930" x="0" y="0" class="st10" width="5.3" height="1.9"/>
								</g>
							</g>
						</g>
						<g id="그룹_8071" transform="translate(362.695 131.857)">
							<g>
								<defs>
									<rect id="SVGID_00000043439477141064006940000007575301306944650928_" x="0" y="0" width="5.3" height="1.9"/>
								</defs>
								<clipPath id="SVGID_00000118392423619681149590000014667520918170322849_">
									<use xlink:href="#SVGID_00000043439477141064006940000007575301306944650928_"  style="overflow:visible;"/>
								</clipPath>
								<g id="그룹_8070" style="clip-path:url(#SVGID_00000118392423619681149590000014667520918170322849_);">
									<rect id="사각형_5932" x="0" y="0" class="st10" width="5.3" height="1.9"/>
								</g>
							</g>
						</g>
						<g id="그룹_8073" transform="translate(375.734 207.255)">
							<g>
								<defs>
									<rect id="SVGID_00000085972440866869639080000009702160826765173172_" x="0" y="0" width="5.3" height="1.9"/>
								</defs>
								<clipPath id="SVGID_00000152966671663912449750000002874884935145226626_">
									<use xlink:href="#SVGID_00000085972440866869639080000009702160826765173172_"  style="overflow:visible;"/>
								</clipPath>
								<g id="그룹_8072" style="clip-path:url(#SVGID_00000152966671663912449750000002874884935145226626_);">
									<rect id="사각형_5934" x="0" y="0" class="st1" width="5.3" height="1.9"/>
								</g>
							</g>
						</g>
						<g id="그룹_8075" transform="translate(382.926 207.255)">
							<g>
								<defs>
									<rect id="SVGID_00000051341463400601487630000013649833813111103906_" x="0" y="0" width="5.3" height="1.9"/>
								</defs>
								<clipPath id="SVGID_00000118361723586028336030000009908853157972987795_">
									<use xlink:href="#SVGID_00000051341463400601487630000013649833813111103906_"  style="overflow:visible;"/>
								</clipPath>
								<g id="그룹_8074" style="clip-path:url(#SVGID_00000118361723586028336030000009908853157972987795_);">
									<rect id="사각형_5936" x="0" y="0" class="st1" width="5.3" height="1.9"/>
								</g>
							</g>
						</g>
						<g id="그룹_8077" transform="translate(390.118 207.255)">
							<g>
								<defs>
									<rect id="SVGID_00000121990713185001916050000001635458011931280810_" x="0" y="0" width="5.3" height="1.9"/>
								</defs>
								<clipPath id="SVGID_00000183937470217744562680000016120662550199329454_">
									<use xlink:href="#SVGID_00000121990713185001916050000001635458011931280810_"  style="overflow:visible;"/>
								</clipPath>
								<g id="그룹_8076" style="clip-path:url(#SVGID_00000183937470217744562680000016120662550199329454_);">
									<rect id="사각형_5938" x="0" y="0" class="st1" width="5.3" height="1.9"/>
								</g>
							</g>
						</g>
						<g id="그룹_8079" transform="translate(87.029 131.857)">
							<g>
								<defs>
									<rect id="SVGID_00000039124368136538407330000010551049538575078032_" x="0" y="0" width="5.3" height="1.9"/>
								</defs>
								<clipPath id="SVGID_00000074414046351180531590000007087084131157958046_">
									<use xlink:href="#SVGID_00000039124368136538407330000010551049538575078032_"  style="overflow:visible;"/>
								</clipPath>
								<g id="그룹_8078" style="clip-path:url(#SVGID_00000074414046351180531590000007087084131157958046_);">
									<rect id="사각형_5940" x="0" y="0" class="st10" width="5.3" height="1.9"/>
								</g>
							</g>
						</g>
						<g id="그룹_8081" transform="translate(79.837 131.857)">
							<g>
								<defs>
									<rect id="SVGID_00000151515124010109708330000013738513347351673513_" x="0" y="0" width="5.3" height="1.9"/>
								</defs>
								<clipPath id="SVGID_00000055699021375056193840000004162784453104320138_">
									<use xlink:href="#SVGID_00000151515124010109708330000013738513347351673513_"  style="overflow:visible;"/>
								</clipPath>
								<g id="그룹_8080" style="clip-path:url(#SVGID_00000055699021375056193840000004162784453104320138_);">
									<rect id="사각형_5942" x="0" y="0" class="st10" width="5.3" height="1.9"/>
								</g>
							</g>
						</g>
						<g id="그룹_8083" transform="translate(72.644 131.857)">
							<g>
								<defs>
									<rect id="SVGID_00000000904321504361687340000007939021249390444698_" x="0" y="0" width="5.3" height="1.9"/>
								</defs>
								<clipPath id="SVGID_00000173856132741912720750000000424811185777577147_">
									<use xlink:href="#SVGID_00000000904321504361687340000007939021249390444698_"  style="overflow:visible;"/>
								</clipPath>
								<g id="그룹_8082" style="clip-path:url(#SVGID_00000173856132741912720750000000424811185777577147_);">
									<rect id="사각형_5944" x="0" y="0" class="st10" width="5.3" height="1.9"/>
								</g>
							</g>
						</g>
						<g id="그룹_8085" transform="translate(59.605 207.255)">
							<g>
								<defs>
									<rect id="SVGID_00000129193728267878392950000014026659267438920848_" x="0" y="0" width="5.3" height="1.9"/>
								</defs>
								<clipPath id="SVGID_00000158029163693995396240000013479991169960819380_">
									<use xlink:href="#SVGID_00000129193728267878392950000014026659267438920848_"  style="overflow:visible;"/>
								</clipPath>
								<g id="그룹_8084" style="clip-path:url(#SVGID_00000158029163693995396240000013479991169960819380_);">
									<rect id="사각형_5946" x="0" y="0" class="st1" width="5.3" height="1.9"/>
								</g>
							</g>
						</g>
						<g id="그룹_8087" transform="translate(52.413 207.255)">
							<g>
								<defs>
									<rect id="SVGID_00000060711882429562738600000015890134912972980151_" x="0" y="0" width="5.3" height="1.9"/>
								</defs>
								<clipPath id="SVGID_00000096746123452364597070000017527493243585570176_">
									<use xlink:href="#SVGID_00000060711882429562738600000015890134912972980151_"  style="overflow:visible;"/>
								</clipPath>
								<g id="그룹_8086" style="clip-path:url(#SVGID_00000096746123452364597070000017527493243585570176_);">
									<rect id="사각형_5948" x="0" y="0" class="st1" width="5.3" height="1.9"/>
								</g>
							</g>
						</g>
						<g id="그룹_8089" transform="translate(45.221 207.255)">
							<g>
								<defs>
									<rect id="SVGID_00000172404925291654224510000001690789802231648901_" x="0" y="0" width="5.3" height="1.9"/>
								</defs>
								<clipPath id="SVGID_00000108306463685123830510000016762749208943743125_">
									<use xlink:href="#SVGID_00000172404925291654224510000001690789802231648901_"  style="overflow:visible;"/>
								</clipPath>
								<g id="그룹_8088" style="clip-path:url(#SVGID_00000108306463685123830510000016762749208943743125_);">
									<rect id="사각형_5950" x="0" y="0" class="st1" width="5.3" height="1.9"/>
								</g>
							</g>
						</g>
					</g>
				</g>
			</g>
			<g id="그룹_8095" transform="translate(1601.357 1427.579)">
				<g>
					<defs>
						<rect id="SVGID_00000049206277706145895400000001615651222460067510_" x="0" y="0" width="30.3" height="23.9"/>
					</defs>
					<clipPath id="SVGID_00000073683855086818518620000017713877277125940619_">
						<use xlink:href="#SVGID_00000049206277706145895400000001615651222460067510_"  style="overflow:visible;"/>
					</clipPath>
					<g id="그룹_8094" style="clip-path:url(#SVGID_00000073683855086818518620000017713877277125940619_);">
						<path id="패스_3294" class="st4" d="M28.9,16.9H1.4c-0.8,0-1.4,0.6-1.4,1.4v2.8c1.2,0,5,0.2,7.2,1.1c2.5,1.1,5.2,1.7,8,1.7
							c2.7-0.1,5.4-0.7,8-1.7c2.1-0.9,6-1.1,7.2-1.1v-2.8C30.3,17.5,29.7,16.9,28.9,16.9"/>
						<path id="패스_3295" class="st4" d="M28.5,16.2c0.1-2-0.2-4.1-0.8-6c-0.8-2.5-2.4-4.6-4.5-6v5c0,0.1-0.1,0.3-0.2,0.3
							c-0.1,0-0.3-0.1-0.3-0.2c0,0,0,0,0-0.1V3.8c-1.1-0.6-2.3-1.1-3.6-1.3v8.4c0,0.2-0.2,0.4-0.4,0.4c-0.2,0-0.4-0.2-0.4-0.4V1.4
							c0-0.8-0.6-1.4-1.4-1.4c0,0,0,0,0,0h-3.5C12.6,0,12,0.6,12,1.4v9.5c0,0.2-0.1,0.4-0.4,0.4c-0.2,0-0.4-0.1-0.4-0.4c0,0,0,0,0,0
							V2.5C10,2.8,8.8,3.2,7.6,3.8v5.3c0,0.1-0.1,0.2-0.3,0.2c-0.1,0-0.2-0.1-0.2-0.2v-5c-2.2,1.4-3.8,3.6-4.5,6
							c-0.6,1.9-0.9,4-0.8,6L28.5,16.2z"/>
					</g>
				</g>
			</g>
			<g id="그룹_8097" transform="translate(1633.436 1502.043)">
				<g>
					<defs>
						<rect id="SVGID_00000121267158889930329750000000880454054428086176_" x="0" y="0" width="27" height="27"/>
					</defs>
					<clipPath id="SVGID_00000173847980216050106600000018208619181978923191_">
						<use xlink:href="#SVGID_00000121267158889930329750000000880454054428086176_"  style="overflow:visible;"/>
					</clipPath>
					<g id="그룹_8096" style="clip-path:url(#SVGID_00000173847980216050106600000018208619181978923191_);">
						<path id="패스_3296" class="st4" d="M26.7,8.6l-8.2-8.2c3.4-1.1,7.1,0.7,8.2,4.1C27.1,5.8,27.1,7.2,26.7,8.6 M16.2,1.6
							l9.2,9.2c0.4-0.4,0.7-0.8,0.9-1.3l-8.7-8.7C17.1,0.9,16.6,1.2,16.2,1.6"/>
						<path id="패스_3297" class="st4" d="M8.6,15c0,0,5.4,1.4,5.4,1.4l-1.3,1.3c0,0-5.4-1.4-5.4-1.4L8.6,15z M3.2,20.4
							c0,0,5.4,1.4,5.4,1.4l1.3-1.3c0,0-5.4-1.4-5.4-1.4L3.2,20.4z M0,27l4.2-0.7L6,24.6l-5.3-1.4L0,27z M15.3,8.3
							c0,0,5.4,1.4,5.4,1.4l1.2-1.2l-3.4-3.4L15.3,8.3z M11.3,12.3c0,0,5.4,1.4,5.4,1.4l1.3-1.3c0,0-5.4-1.4-5.4-1.4L11.3,12.3z"/>
						<path id="패스_3298" class="st4" d="M12.6,19.1c0,0-0.2,0.8-0.2,0.8c-0.1,0.2-0.3,0.3-0.5,0.3l-7.1-1.9
							c-0.2-0.1-0.3-0.3-0.3-0.5L4.8,17c0.1-0.2,0.3-0.3,0.5-0.3l7.1,1.9C12.5,18.7,12.6,18.9,12.6,19.1 M8.3,22.6l-7.1-1.9
							C1,20.7,0.8,20.8,0.7,21l-0.2,0.8c-0.1,0.2,0.1,0.4,0.3,0.5l7.1,1.9c0.2,0.1,0.4-0.1,0.5-0.3l0.2-0.8
							C8.6,22.9,8.5,22.7,8.3,22.6 M16.4,14.6l-7.1-1.9c-0.2-0.1-0.4,0.1-0.5,0.3l-0.2,0.8c-0.1,0.2,0.1,0.4,0.3,0.5l7.1,1.9
							c0.2,0.1,0.4-0.1,0.5-0.3l0.2-0.8C16.7,14.8,16.6,14.6,16.4,14.6 M20.4,10.5l-7.1-1.9c-0.2-0.1-0.4,0.1-0.5,0.3l-0.2,0.8
							c0,0.2,0.1,0.4,0.2,0.4c0,0,7.1,1.9,7.1,1.9c0.2,0.1,0.4-0.1,0.5-0.3l0.2-0.8C20.7,10.8,20.6,10.6,20.4,10.5"/>
					</g>
				</g>
			</g>
			<g id="그룹_8099" transform="translate(1377.472 1504.204)">
				<g>
					<defs>
						<rect id="SVGID_00000156546873062979768060000017173238111346139044_" x="0.5" y="-0.2" width="30" height="27"/>
					</defs>
					<clipPath id="SVGID_00000138533778499694362810000008964971979940986259_">
						<use xlink:href="#SVGID_00000156546873062979768060000017173238111346139044_"  style="overflow:visible;"/>
					</clipPath>
					
						<g id="그룹_8098" transform="translate(0.387 0)" style="clip-path:url(#SVGID_00000138533778499694362810000008964971979940986259_);">
						<path id="패스_3299" class="st4" d="M29.3,0H1C0.3,0-0.3,0.6-0.3,1.2c0,0,0,0,0,0v19.1c0,0.7,0.6,1.2,1.2,1.2h19.9l3.5,5.1
							v-5.1h4.9c0.7,0,1.2-0.6,1.2-1.2V1.2C30.6,0.6,30,0,29.3,0C29.3,0,29.3,0,29.3,0"/>
						<path id="패스_3300" class="st1" d="M8.2,9.5c0-0.3,0.2-0.6,0.6-0.7c0,0,0,0,0.1,0H10c0.3,0,0.6,0.3,0.6,0.6l0,0v5.9
							c0,0.3-0.3,0.6-0.6,0.6l0,0H9.3c-0.3,0-0.6-0.2-0.6-0.6L8.2,9.5z"/>
						<path id="패스_3301" class="st1" d="M11.3,9.2c0-0.3,0.2-0.5,0.4-0.6c0.5-0.2,3.7-0.7,4.1-1.4c0.4-0.9,0.6-1.8,0.6-2.7
							c0,0,0-0.1,0-0.1c0.1-0.6,1.2,0.1,1.7,0.8c0.2,0.4,0.3,0.9,0.2,1.3c0,0.4-0.1,0.9-0.3,1.3l-0.3,0.9h3.3c0.3,0,0.6,0.3,0.6,0.6
							c0,0.1,0,0.1,0,0.2L20,15.4c-0.1,0.3-0.3,0.4-0.6,0.4h-7.6c-0.3,0-0.6-0.3-0.6-0.6c0,0,0,0,0,0V9.2z"/>
					</g>
				</g>
			</g>
			<g id="그룹_8101" transform="translate(1407 1428.043)">
				<g>
					<defs>
						<rect id="SVGID_00000149372204413130018370000015028131792898022810_" x="0" y="0" width="32" height="23"/>
					</defs>
					<clipPath id="SVGID_00000162318296380369234250000008165926563448865935_">
						<use xlink:href="#SVGID_00000149372204413130018370000015028131792898022810_"  style="overflow:visible;"/>
					</clipPath>
					<g id="그룹_8100" style="clip-path:url(#SVGID_00000162318296380369234250000008165926563448865935_);">
						<path id="패스_3302" class="st4" d="M8,11.1h4v-0.3c0-1.2,1.3-2.2,3-2.2h2c1.7,0,3,1,3,2.2v0.3h4c1.2,0.1,2.3-0.5,2.9-1.5
							l4-9C30.3,0.2,29.7,0,29,0H3C2.4,0,1.8,0.1,1.2,0.4l3.9,9.1C5.7,10.5,6.8,11.1,8,11.1"/>
						<path id="사각형_5957" class="st4" d="M15,10.1h2c0.6,0,1,0.4,1,1v2.3c0,0.6-0.4,1-1,1h-2c-0.6,0-1-0.4-1-1v-2.3
							C14,10.5,14.5,10.1,15,10.1z"/>
						<path id="패스_3303" class="st4" d="M28.8,9.9c-0.6,1.5-2.6,2.6-4.8,2.6h-4v1.2c0,1.2-1.3,2.2-3,2.2h-2c-1.7,0-3-1-3-2.2
							v-1.2H8c-2.2,0-4.2-1.1-4.8-2.6L0,2.4v18.4C0,22,1.3,23,3,23h26c1.7,0,3-1,3-2.2v-18L28.8,9.9z"/>
					</g>
				</g>
			</g>
		</g>
		<g id="그룹_8143" transform="translate(1489.183 1702.725)">
			<g>
				<defs>
					<rect id="SVGID_00000070083073763304540080000018232572666669099413_" x="0" y="0" width="61.6" height="89.8"/>
				</defs>
				<clipPath id="SVGID_00000078767443989746904850000014102890551700459406_">
					<use xlink:href="#SVGID_00000070083073763304540080000018232572666669099413_"  style="overflow:visible;"/>
				</clipPath>
				<g id="그룹_8142" style="clip-path:url(#SVGID_00000078767443989746904850000014102890551700459406_);">
					<path id="패스_3309" class="st4" d="M51.9,43.9c0-11.5-9.3-20.8-20.8-20.8s-20.8,9.3-20.8,20.8c0,5.2,1.9,10.2,5.4,14
						c1.6,1.7,2.4,3.9,2.4,6.3v5.7c0,1.2,1,2.2,2.2,2.2h21.4c1.2,0,2.2-1,2.2-2.2v-5.7c0-2.3,0.9-4.5,2.4-6.2
						C50,54.1,51.9,49.1,51.9,43.9"/>
					<path id="패스_3310" class="st1" d="M41.8,73.7H20.4c-2.1,0-3.8-1.7-3.8-3.8v-5.7c0-1.9-0.7-3.8-2.1-5.3
						c-8.3-9.1-7.6-23.3,1.5-31.6s23.3-7.6,31.6,1.5c7.8,8.5,7.8,21.6,0,30.1c-1.3,1.4-2,3.3-2,5.2v5.7C45.6,72,43.9,73.7,41.8,73.7
						 M31.1,24.6h-0.3c-10.7,0.2-19.2,8.9-19.1,19.6c0.1,4.7,1.9,9.2,5,12.7c1.8,2,2.8,4.6,2.8,7.3v5.7c0,0.4,0.3,0.7,0.7,0.7h21.4
						c0.4,0,0.7-0.3,0.7-0.7v-5.7c0-2.7,1-5.3,2.8-7.3c7.2-7.9,6.6-20.1-1.3-27.3C40.6,26.4,35.9,24.6,31.1,24.6"/>
					<path id="패스_3311" class="st4" d="M38.9,69.9H23.3c-0.6,0-1.1,0.5-1.1,1.1v16.2c0,0.6,0.5,1.1,1.1,1.1h15.6
						c0.6,0,1.1-0.5,1.1-1.1V71C40,70.4,39.5,69.9,38.9,69.9"/>
					<path id="패스_3312" class="st1" d="M38.9,89.8H23.3c-1.4,0-2.6-1.2-2.6-2.6l0,0V71c0-1.4,1.2-2.6,2.6-2.6c0,0,0,0,0,0h15.6
						c1.4,0,2.6,1.2,2.6,2.6l0,0v16.2C41.5,88.6,40.3,89.8,38.9,89.8C38.9,89.8,38.9,89.8,38.9,89.8 M23.7,86.7h14.7V71.4H23.7V86.7
						z M38.9,71.4L38.9,71.4z"/>
					<path id="패스_3313" class="st4" d="M41.4,69.7H20.8c-0.6,0-1.1,0.5-1.1,1.1v11.9c0,0.6,0.5,1.1,1.1,1.1h20.5
						c0.6,0,1.1-0.5,1.1-1.1V70.7C42.4,70.1,42,69.7,41.4,69.7"/>
					<path id="패스_3314" class="st1" d="M41.4,85.2H20.8c-1.4,0-2.6-1.2-2.6-2.6V70.7c0-1.4,1.2-2.6,2.6-2.6h20.5
						c1.4,0,2.6,1.2,2.6,2.6v11.9C43.9,84,42.8,85.2,41.4,85.2 M21.3,82.2h19.7v-11H21.3L21.3,82.2z M41.4,71.2L41.4,71.2z"/>
					<path id="패스_3315" class="st4" d="M43.3,62H18.9c-1.7,0-3,1.4-3,3v4.7c0,1.7,1.4,3,3,3h24.5c1.7,0,3-1.4,3-3v-4.7
						C46.4,63.4,45,62,43.3,62"/>
					<path id="패스_3316" class="st1" d="M43.3,74.3H18.9c-2.5,0-4.5-2-4.5-4.5v-4.7c0-2.5,2-4.5,4.5-4.5h24.5
						c2.5,0,4.5,2,4.5,4.5v4.7C47.9,72.3,45.8,74.3,43.3,74.3 M18.9,63.6c-0.8,0-1.5,0.7-1.5,1.5v4.7c0,0.8,0.7,1.5,1.5,1.5h24.5
						c0.8,0,1.5-0.7,1.5-1.5v-4.7c0-0.8-0.7-1.5-1.5-1.5H18.9z"/>
					<path id="패스_3317" class="st1" d="M31.1,17.1c-1.5,0-2.7-1.2-2.7-2.7c0,0,0,0,0,0V2.7c0-1.5,1.2-2.7,2.7-2.7
						s2.7,1.2,2.7,2.7v11.6C33.8,15.8,32.6,17.1,31.1,17.1L31.1,17.1"/>
					<path id="패스_3318" class="st1" d="M50.1,23.7c-1.5,0-2.7-1.2-2.7-2.7c0-0.7,0.3-1.4,0.8-2l8.8-8.6c1.1-1,2.8-1,3.8,0.1
						c1,1.1,1,2.8-0.1,3.8l0,0L52,23C51.5,23.5,50.8,23.7,50.1,23.7"/>
					<path id="패스_3319" class="st1" d="M11.5,23.7c-0.7,0-1.4-0.3-1.9-0.8l-8.8-8.6c-1.1-1-1.1-2.8-0.1-3.8
						c1-1.1,2.8-1.1,3.8-0.1l8.8,8.6c1.1,1,1.1,2.8,0.1,3.8C13,23.4,12.3,23.7,11.5,23.7"/>
					<path id="패스_3320" class="st1" d="M28.3,51c0.1-1.5,1.4-2.7,2.9-2.7c1.5,0.1,2.7,1.4,2.7,2.9c-0.1,1.5-1.3,2.7-2.8,2.7
						c-1.5,0-2.8-1.2-2.8-2.8C28.3,51.1,28.3,51,28.3,51 M28.9,37.4l-0.2-4.2h4.8l-0.2,4.2l-0.7,9h-3.1L28.9,37.4z"/>
				</g>
			</g>
		</g>
		<g id="그룹_8144" transform="translate(0 12)">
			
				<rect id="사각형_5963" x="1506.6" y="1276.8" transform="matrix(0.7071 -0.7071 0.7071 0.7071 -462.2812 1441.0322)" class="st1" width="3.6" height="3.6"/>
			
				<rect id="사각형_5964" x="1518.2" y="1276.8" transform="matrix(0.7071 -0.7071 0.7071 0.7071 -458.8658 1449.2778)" class="st1" width="3.6" height="3.6"/>
			
				<rect id="사각형_5965" x="1529.9" y="1276.8" transform="matrix(0.7071 -0.7071 0.7071 0.7071 -455.4507 1457.5226)" class="st1" width="3.6" height="3.6"/>
		</g>
		<g id="그룹_8145" transform="translate(0 12)">
			
				<rect id="사각형_5966" x="1506.6" y="1334.5" transform="matrix(0.7071 -0.7071 0.7071 0.7071 -503.0863 1457.9342)" class="st1" width="3.6" height="3.6"/>
			
				<rect id="사각형_5967" x="1518.2" y="1334.5" transform="matrix(0.7071 -0.7071 0.7071 0.7071 -499.6708 1466.1798)" class="st1" width="3.6" height="3.6"/>
			
				<rect id="사각형_5968" x="1529.9" y="1334.5" transform="matrix(0.7071 -0.7071 0.7071 0.7071 -496.2557 1474.4246)" class="st1" width="3.6" height="3.6"/>
		</g>
	</g>
	<circle id="타원_97-2" class="st2" cx="-13031" cy="13024.3" r="59.8"/>
	<g class="st3">
		<path class="st4" d="M-13039,13030.5c0-0.9,0.8-1.7,1.7-1.7c0.9,0,1.7,0.8,1.7,1.7c0,0.9-0.8,1.7-1.7,1.7
			C-13038.2,13032.2-13039,13031.4-13039,13030.5z"/>
		<path class="st4" d="M-13033,13030.5c0-0.9,0.8-1.7,1.7-1.7c0.9,0,1.7,0.8,1.7,1.7c0,0.9-0.8,1.7-1.7,1.7
			C-13032.2,13032.2-13033,13031.4-13033,13030.5z"/>
		<path class="st4" d="M-13027,13030.5c0-0.9,0.8-1.7,1.7-1.7c0.9,0,1.7,0.8,1.7,1.7c0,0.9-0.8,1.7-1.7,1.7
			C-13026.2,13032.2-13027,13031.4-13027,13030.5z"/>
	</g>
</g>
</svg>
