<?xml version="1.0" encoding="utf-8"?>
<!-- Generator: Adobe Illustrator 27.5.0, SVG Export Plug-In . SVG Version: 6.00 Build 0)  -->
<svg version="1.1" id="레이어_1" xmlns="http://www.w3.org/2000/svg" xmlns:xlink="http://www.w3.org/1999/xlink" x="0px"
	 y="0px" viewBox="0 0 540 889" style="enable-background:new 0 0 540 889;" xml:space="preserve">
<style type="text/css">
	.st0{fill:#FFFFFF;}
	.st1{fill:none;stroke:#00BFDD;}
	.st2{fill:none;stroke:#EFEFEF;stroke-width:25;}
	.st3{fill:none;}
	.st4{fill:none;stroke:#000000;}
	.st5{fill:#00BFDD;}
	.st6{fill:#F0FBFD;}
	.st7{fill:none;stroke:#DBDBDB;}
	.st8{fill:none;stroke:#DBDBDB;stroke-dasharray:4;}
	.st9{enable-background:new    ;}
	.st10{clip-path:url(#SVGID_00000145753352507746550370000002796350666337434244_);}
	.st11{fill:#909090;}
	.st12{clip-path:url(#SVGID_00000173879062660023301060000014700467597022558109_);}
	.st13{clip-path:url(#SVGID_00000065787203487750383270000017489570812232259208_);}
	.st14{clip-path:url(#SVGID_00000075162989387438973170000016062571649632456862_);}
	.st15{clip-path:url(#SVGID_00000121984676989040404410000017465211249433679290_);}
	.st16{clip-path:url(#SVGID_00000118397122798386074880000002826178193772989063_);}
	.st17{clip-path:url(#SVGID_00000130624732231246174850000017042140779850532756_);}
	.st18{clip-path:url(#SVGID_00000095340141174069542660000006418271835173230769_);}
	.st19{fill:#3B4B66;}
	.st20{clip-path:url(#SVGID_00000147208054085957713660000005361487401198217886_);}
	.st21{fill:#00BFDD;stroke:#00BFDD;}
	.st22{clip-path:url(#SVGID_00000049208549848095077820000009858719188099207345_);}
	.st23{clip-path:url(#SVGID_00000016769843567182661220000007047347029882182581_);}
	.st24{clip-path:url(#SVGID_00000071558309413637742340000007906773263616678539_);}
	.st25{fill:#00BFDD;stroke:#00BFDD;stroke-linejoin:round;}
	.st26{fill:#D3D3D3;}
	.st27{clip-path:url(#SVGID_00000165215884814043612670000001374331148937911696_);}
	.st28{clip-path:url(#SVGID_00000085946540196847114420000008059909967934905747_);}
	.st29{fill:#D1D1D1;}
	.st30{fill:#FFFFFF;stroke:#DDDDDD;}
	.st31{fill:none;stroke:#EFEFEF;stroke-width:2;stroke-dasharray:3;}
</style>
<g>
	<g id="사각형_5869" transform="translate(130 1237)">
		<path class="st0" d="M-110-1237h500c11,0,20,9,20,20v849c0,11-9,20-20,20h-500c-11,0-20-9-20-20v-849C-130-1228-121-1237-110-1237
			z"/>
		<path class="st1" d="M-110-1236.5h500c10.8,0,19.5,8.7,19.5,19.5v849c0,10.8-8.7,19.5-19.5,19.5h-500c-10.8,0-19.5-8.7-19.5-19.5
			v-849C-129.5-1227.8-120.8-1236.5-110-1236.5z"/>
	</g>
	<g id="타원_99" transform="translate(200 1482)">
		<circle class="st0" cx="70" cy="-1037" r="200"/>
		<circle class="st2" cx="70" cy="-1037" r="187.5"/>
	</g>
	<g id="타원_107" transform="translate(212 1494)">
		<circle class="st3" cx="58" cy="-1049" r="188"/>
		<circle class="st4" cx="58" cy="-1049" r="187.5"/>
	</g>
	<circle id="타원_100" class="st0" cx="84" cy="483" r="55"/>
	<circle id="타원_101" class="st0" cx="183" cy="629" r="55"/>
	<circle id="타원_102" class="st0" cx="357" cy="629" r="55"/>
	<circle id="타원_103" class="st0" cx="455" cy="484" r="55"/>
	<circle id="타원_104" class="st0" cx="420.5" cy="328.5" r="56.5"/>
	<circle id="타원_105" class="st0" cx="273" cy="261" r="55"/>
	<circle id="타원_106" class="st0" cx="119.5" cy="319.5" r="56.5"/>
	<path id="사각형_3363" class="st5" d="M21,62h148c4.4,0,8,3.6,8,8v34c0,4.4-3.6,8-8,8H21c-4.4,0-8-3.6-8-8V70
		C13,65.6,16.6,62,21,62z"/>
	<path id="사각형_5877" class="st6" d="M21,723h498c4.4,0,8,3.6,8,8v34c0,4.4-3.6,8-8,8H21c-4.4,0-8-3.6-8-8v-34
		C13,726.6,16.6,723,21,723z"/>
	<g id="사각형_3362" transform="translate(143 1354)">
		<path class="st0" d="M-122-1237H26c4.4,0,8,3.6,8,8v34c0,4.4-3.6,8-8,8h-148c-4.4,0-8-3.6-8-8v-34
			C-130-1233.4-126.4-1237-122-1237z"/>
		<path class="st7" d="M-122-1236.5H26c4.1,0,7.5,3.4,7.5,7.5v34c0,4.1-3.4,7.5-7.5,7.5h-148c-4.1,0-7.5-3.4-7.5-7.5v-34
			C-129.5-1233.1-126.1-1236.5-122-1236.5z"/>
	</g>
	<g id="사각형_5880" transform="translate(143 2015)">
		<path class="st0" d="M-122-1237H26c4.4,0,8,3.6,8,8v34c0,4.4-3.6,8-8,8h-148c-4.4,0-8-3.6-8-8v-34
			C-130-1233.4-126.4-1237-122-1237z"/>
		<path class="st8" d="M-122-1236.5H26c4.1,0,7.5,3.4,7.5,7.5v34c0,4.1-3.4,7.5-7.5,7.5h-148c-4.1,0-7.5-3.4-7.5-7.5v-34
			C-129.5-1233.1-126.1-1236.5-122-1236.5z"/>
	</g>
	<g class="st9">
		<path d="M70.8,142.8l-0.7,1.1c-1.8-0.6-3.1-2-3.8-3.6c-0.7,1.8-2.1,3.2-4,3.9l-0.7-1.1c2.3-0.8,4-2.9,4-5.1v-0.8H62v-1.1h8.4v1.1
			h-3.5v0.8C66.9,140.1,68.5,142,70.8,142.8z M74.9,150.1H64.4v-4.9h1.4v3.7h9.1V150.1z M74.5,146.3h-1.4v-6h-3.2v-1.1h3.2v-4.3h1.4
			V146.3z"/>
		<path d="M86.4,145.9l-0.8,1.1c-1.8-0.9-3.2-2.7-3.9-4.8c-0.7,2.3-2.3,4.3-4,5.2l-0.8-1.1c2.2-1.1,4.2-4.1,4.2-6.7v-2h-3.6v-1.1
			h8.5v1.1h-3.5v2C82.3,142.1,84.2,144.9,86.4,145.9z M89.2,141.1h2.6v1.2h-2.6v8.1h-1.4v-15.6h1.4V141.1z"/>
		<path d="M93.6,150.9h-1.4l4.1-15.2h1.4L93.6,150.9z"/>
		<path d="M112.9,145.2h-6.5v5.2h-1.4v-5.2h-6.4v-1.1h14.3V145.2z M101.8,137.6h7.9v-2.2h1.4v6.7h-10.6v-6.7h1.4V137.6z
			 M109.7,141.1v-2.3h-7.9v2.3H109.7z"/>
		<path d="M128.4,143.5H122v1.8h4.7v4.9h-10.8v-4.9h4.7v-1.8h-6.4v-1.1h14.2V143.5z M127.1,136.4h-2.4v3.3h2.4v1.1h-11.4v-1.1h2.4
			v-3.3h-2.4v-1.1h11.5V136.4z M117.3,149.1h8v-2.7h-8V149.1z M123.3,139.7v-3.3h-4v3.3H123.3z"/>
	</g>
	<g class="st9">
		<path d="M48,806.9l-0.8,1.1c-1.8-0.8-3.4-2.6-4.1-4.8c-0.7,2.3-2.3,4.3-4.1,5.2l-0.8-1.1c2.2-1.1,4.2-4,4.2-6.7v-2h-3.7v-1.1h8.8
			v1.1h-3.7v2C43.8,803.3,45.7,805.9,48,806.9z M51.1,811.4h-1.4v-15.6h1.4V811.4z"/>
		<path d="M66.7,805h-1.4v-2.2h-4c-0.7,0.9-1.9,1.4-3.2,1.4c-2.3,0-4.1-1.5-4.1-3.7c0-2.2,1.7-3.7,4.1-3.7c1.3,0,2.5,0.5,3.2,1.4h4
			v-2.3h1.4V805z M55.3,800.4c0,1.5,1.1,2.6,2.7,2.6c1.5,0,2.7-1.1,2.7-2.6c0-1.5-1.2-2.5-2.7-2.5C56.4,797.9,55.3,798.9,55.3,800.4
			z M66.7,811.4h-1.4V807h-9.1v-1.1h10.5V811.4z M65.3,801.6v-2.4h-3.4c0.1,0.4,0.2,0.8,0.2,1.2s-0.1,0.8-0.2,1.2H65.3z"/>
		<path d="M83.5,805.2H69.3v-1.1h14.3V805.2z M81.7,811.4h-1.4v-3.6h-9.4v-1.1h10.8V811.4z M81.8,802.6H71.2v-6.3h10.6v1.1h-9.2v1.5
			h8.8v1.1h-8.8v1.6h9.3V802.6z"/>
		<path d="M94,803.7l-0.7,1.1c-1.8-0.6-3.2-2-3.8-3.6c-0.7,1.9-2.1,3.3-3.9,4l-0.8-1.1c2.4-0.8,3.9-3,4-5.4v-1.9h1.4v2
			C90.1,800.9,91.7,802.9,94,803.7z M97.8,811.1H87.3v-4.9h1.4v3.7h9.1V811.1z M97.1,800.6h2.4v1.2h-2.4v5.6h-1.4v-11.5h1.4V800.6z"
			/>
		<path d="M101.4,811.9H100l4.1-15.2h1.4L101.4,811.9z"/>
		<path d="M115.8,806.9L115,808c-1.8-0.9-3.2-2.7-3.9-4.8c-0.7,2.3-2.3,4.3-4,5.2l-0.8-1.1c2.2-1.1,4.2-4.1,4.2-6.7v-2h-3.6v-1.1
			h8.5v1.1h-3.5v2C111.7,803.1,113.5,805.9,115.8,806.9z M118.5,802.1h2.6v1.2h-2.6v8.1h-1.4v-15.6h1.4V802.1z"/>
		<path d="M129.4,798.1h4.1v-2.3h1.4v9.3h-1.4v-2.2h-4.1c-0.7,0.8-1.9,1.3-3.2,1.3c-2.3,0-4.1-1.5-4.1-3.7c0-2.2,1.7-3.7,4.1-3.7
			C127.6,796.7,128.7,797.2,129.4,798.1z M123.5,800.5c0,1.5,1.1,2.5,2.7,2.5c1.5,0,2.7-1.1,2.7-2.5c0-1.5-1.2-2.5-2.7-2.5
			C124.7,797.9,123.5,799,123.5,800.5z M135,808.4c0,1.9-2,3-5.2,3c-3.3,0-5.2-1.1-5.2-3c0-1.9,2-3,5.2-3
			C133,805.4,135,806.5,135,808.4z M125.9,808.4c0,1.2,1.5,1.9,3.9,1.9c2.4,0,3.9-0.7,3.9-1.9s-1.5-1.9-3.9-1.9
			C127.4,806.5,125.9,807.2,125.9,808.4z M130.3,800.5c0,0.4-0.1,0.9-0.2,1.2h3.4v-2.5h-3.4C130.2,799.6,130.3,800,130.3,800.5z"/>
		<path d="M150.2,801.3h-4.8v2.1h6.5v1.2h-14.3v-1.2h6.5v-2.1h-4.5v-5.2h1.4v4.1h9.3V801.3z M150,808.6c0,1.8-2,2.8-5.4,2.8
			c-3.4,0-5.4-1-5.4-2.8s2-2.8,5.4-2.8C148,805.7,150,806.7,150,808.6z M140.7,808.6c0,1.1,1.5,1.7,4,1.7c2.5,0,4-0.7,4-1.7
			c0-1.1-1.5-1.8-4-1.8C142.1,806.8,140.6,807.4,140.7,808.6z"/>
	</g>
	<g class="st9">
		<path class="st0" d="M59.4,82.1c0,1.5,0,3.1-0.4,5.4h2.2V89h-6.3v6.6h-2V89h-6.2v-1.6H57c0.4-2.2,0.5-3.8,0.5-5.2h-9.1v-1.6h11
			V82.1z"/>
		<path class="st0" d="M70.7,91.7h-7.6V81.2h7.6V91.7z M65.1,90.1h3.7v-7.4h-3.7V90.1z M75.5,95.6h-2V79.7h2V95.6z"/>
		<path class="st0" d="M96.6,89.5H82.1V88h14.5V89.5z M94.8,95.6h-2v-3.3h-9.1v-1.6h11.1V95.6z M95,86.8h-11v-6.8h10.9v1.5h-9v1.1
			h8.6v1.5h-8.6v1.2H95V86.8z"/>
		<path class="st0" d="M101.5,91.1v-1.5c-1.7-0.3-2.9-1.4-2.8-2.9c0-1.8,1.6-3,3.8-3c2.2,0,3.8,1.2,3.9,3c0,1.5-1.2,2.6-2.9,2.9V91
			c1.3-0.1,2.7-0.2,3.9-0.4l0.1,1.4c-3.4,0.6-7.1,0.7-9.8,0.7l-0.3-1.6C98.7,91.2,100.1,91.2,101.5,91.1z M107.2,83h-9.5v-1.5h3.8
			v-1.8h2v1.8h3.7V83z M100.5,86.8c0,0.9,0.8,1.5,2,1.4c1.2,0,2-0.5,2-1.4c0-0.9-0.8-1.5-2-1.5C101.3,85.3,100.5,85.8,100.5,86.8z
			 M110.2,86.2h2.2v1.6h-2.2v7.7h-2V79.7h2V86.2z"/>
		<path class="st0" d="M122.7,87.4l-1,1.5c-1.8-0.6-3-1.8-3.7-3.3c-0.7,1.7-2,3-3.9,3.7l-1.1-1.5c2.6-0.8,3.9-3,3.9-5.2v-1.8h2v1.8
			C118.9,84.6,120.2,86.6,122.7,87.4z M126.4,95.2h-10.8v-5h2v3.5h8.8V95.2z M125.8,84.4h2.2V86h-2.2v5.3h-2V79.7h2V84.4z"/>
		<path class="st0" d="M137.3,83.3h2.9v-3.6h2v8.5h-2v-3.3h-2.8c-0.4,1.8-2,3-4.1,3c-2.4,0-4.2-1.6-4.2-3.8c0-2.2,1.8-3.7,4.2-3.7
			C135.2,80.4,136.9,81.5,137.3,83.3z M130.9,84.1c0,1.3,1,2.1,2.3,2.1c1.3,0,2.3-0.8,2.3-2.1c0-1.3-1-2.1-2.3-2.1
			C131.8,82,130.9,82.8,130.9,84.1z M133.5,90.6h6.6v-1.7h2v6.4h-10.5v-6.4h1.9V90.6z M140.1,93.8v-1.7h-6.6v1.7H140.1z"/>
	</g>
	<g class="st9">
		<path class="st5" d="M173.1,751.6l-1.1,1.5c-1.9-0.8-3.3-2.5-4-4.5c-0.7,2.2-2.1,4-4,4.9l-1.1-1.5c2.5-1.2,4.1-4.1,4.1-6.8v-1.3
			h-3.5v-1.6h9v1.6H169v1.3C169,747.8,170.5,750.5,173.1,751.6z M176.2,756.6h-2v-15.9h2V756.6z"/>
		<path class="st5" d="M191.9,750.1h-2V748h-3.7c-0.8,0.8-1.9,1.4-3.2,1.4c-2.4,0-4.2-1.6-4.2-3.9c0-2.2,1.8-3.9,4.2-3.8
			c1.3,0,2.5,0.5,3.2,1.3h3.7v-2.2h2V750.1z M180.6,745.4c0,1.4,1,2.2,2.3,2.2c1.3,0,2.3-0.9,2.3-2.2c0-1.3-1-2.2-2.3-2.2
			C181.6,743.2,180.6,744.1,180.6,745.4z M191.9,756.6h-2v-4.2H181v-1.5h10.8V756.6z M189.9,746.4v-1.9H187c0.1,0.3,0.1,0.6,0.1,0.9
			c0,0.3,0,0.7-0.1,1H189.9z"/>
		<path class="st5" d="M195.2,753.8l-1-1.6c4.2-2,6.1-4.7,6.4-8.3H195v-1.5h7.6C202.6,747.1,200.8,751.1,195.2,753.8z M207.4,756.6
			h-2v-15.9h2V756.6z"/>
		<path class="st5" d="M212.2,744.2h3.7v-2.4h1.9v8h-7.6v-8h1.9V744.2z M222.8,756.2H212v-5h2v3.5h8.9V756.2z M215.9,748.3v-2.5
			h-3.7v2.5H215.9z M222.2,745.3h2.2v1.6h-2.2v5.5h-2v-11.7h2V745.3z"/>
		<path class="st5" d="M239.2,748.3l-1,1.5c-1.8-0.6-3.1-1.9-3.8-3.5c-0.7,1.7-2,3.1-3.9,3.8l-1-1.5c2.6-0.9,3.9-3.1,3.9-5.4v-1.5h2
			v1.5C235.4,745.3,236.7,747.4,239.2,748.3z M243.2,756.2h-11v-5.1h2v3.5h9V756.2z M242.7,752.3h-2v-11.6h2V752.3z"/>
		<path class="st5" d="M254.6,751.4l-1.2,1.6c-1.7-0.9-3-2.5-3.6-4.6c-0.7,2.2-2,4-3.8,4.9l-1.2-1.6c2.5-1.2,4-4.3,4-7.2V742h2v2.5
			C250.7,747.3,252.1,750.2,254.6,751.4z M257.5,746.9h2.4v1.7h-2.4v8h-2v-15.9h2V746.9z"/>
		<path class="st5" d="M269.1,744.3h2.9v-3.6h2v8.5h-2v-3.3h-2.8c-0.4,1.8-2,3-4.1,3c-2.4,0-4.2-1.6-4.2-3.8c0-2.2,1.8-3.7,4.2-3.7
			C267.1,741.4,268.7,742.5,269.1,744.3z M262.7,745.1c0,1.3,1,2.1,2.3,2.1c1.3,0,2.3-0.8,2.3-2.1c0-1.3-1-2.1-2.3-2.1
			C263.7,743,262.7,743.8,262.7,745.1z M265.4,751.6h6.6v-1.7h2v6.4h-10.5v-6.4h1.9V751.6z M272,754.8v-1.7h-6.6v1.7H272z"/>
		<path class="st5" d="M285,747.4c0,3.5-1.8,5.6-4.1,5.6c-2.4,0-4.1-2.2-4.1-5.6c0-3.4,1.7-5.6,4.1-5.6
			C283.2,741.8,285,744,285,747.4z M278.6,747.4c0,2.4,0.9,3.9,2.3,3.9c1.3,0,2.2-1.4,2.2-3.9c0-2.4-0.9-3.8-2.2-3.8
			C279.5,743.6,278.6,745,278.6,747.4z M289.4,756.6h-2v-15.9h2V756.6z"/>
		<path class="st5" d="M297,753.7l-1.1-1.5c3.9-1.9,6-4.6,6.4-8.2h-5.5v-1.6h7.5C304.2,747,302.3,751.1,297,753.7z M308.4,746.9h2.4
			v1.6h-2.4v8h-2v-15.9h2V746.9z"/>
		<path class="st5" d="M326.1,749.5h-14.5v-1.6h14.5V749.5z M324.3,753.6c0,1.9-2.1,2.9-5.5,2.9c-3.5,0-5.5-1.1-5.5-2.9
			s2.1-2.9,5.5-2.9C322.2,750.7,324.3,751.7,324.3,753.6z M324.4,746.4h-11V741h2v3.8h9V746.4z M315.2,753.6c0,0.9,1.2,1.4,3.6,1.4
			c2.3,0,3.5-0.5,3.6-1.4c0-0.9-1.3-1.4-3.6-1.4C316.5,752.2,315.2,752.6,315.2,753.6z"/>
		<path class="st5" d="M336.6,744h-9.4v-1.6h3.7v-1.8h2v1.8h3.7V744z M335.7,747.7c0,1.8-1.6,3-3.9,3c-2.3,0-3.9-1.2-3.9-3
			c0-1.8,1.6-3,3.9-3C334.1,744.7,335.7,745.9,335.7,747.7z M340.3,756.2h-10.8v-4.6h2v3h8.9V756.2z M329.8,747.7
			c0,0.9,0.8,1.5,2,1.5c1.2,0,2-0.5,2-1.5c0-1-0.8-1.5-2-1.5S329.8,746.7,329.8,747.7z M339.6,745.7h2.2v1.6h-2.2v5.3h-2v-11.9h2
			V745.7z"/>
		<path class="st5" d="M356.4,748.4l-1,1.5c-1.8-0.6-3-1.8-3.7-3.3c-0.7,1.7-2,3-3.9,3.7l-1.1-1.5c2.6-0.8,3.9-3,3.9-5.2v-1.8h2v1.8
			C352.6,745.6,353.9,747.6,356.4,748.4z M360.1,756.2h-10.8v-5h2v3.5h8.8V756.2z M359.5,745.4h2.2v1.7h-2.2v5.3h-2v-11.7h2V745.4z"
			/>
		<path class="st5" d="M371,744.3h2.9v-3.6h2v8.5h-2v-3.3H371c-0.4,1.8-2,3-4.1,3c-2.4,0-4.2-1.6-4.2-3.8c0-2.2,1.8-3.7,4.2-3.7
			C369,741.4,370.6,742.5,371,744.3z M364.6,745.1c0,1.3,1,2.1,2.3,2.1c1.3,0,2.3-0.8,2.3-2.1c0-1.3-1-2.1-2.3-2.1
			C365.5,743,364.6,743.8,364.6,745.1z M367.3,751.6h6.6v-1.7h2v6.4h-10.5v-6.4h1.9V751.6z M373.9,754.8v-1.7h-6.6v1.7H373.9z"/>
	</g>
	<path id="사각형_5875" class="st5" d="M196,62h148c4.4,0,8,3.6,8,8v34c0,4.4-3.6,8-8,8H196c-4.4,0-8-3.6-8-8V70
		C188,65.6,191.6,62,196,62z"/>
	<g id="사각형_5876" transform="translate(318 1354)">
		<path class="st0" d="M-122-1237H26c4.4,0,8,3.6,8,8v34c0,4.4-3.6,8-8,8h-148c-4.4,0-8-3.6-8-8v-34
			C-130-1233.4-126.4-1237-122-1237z"/>
		<path class="st7" d="M-122-1236.5H26c4.1,0,7.5,3.4,7.5,7.5v34c0,4.1-3.4,7.5-7.5,7.5h-148c-4.1,0-7.5-3.4-7.5-7.5v-34
			C-129.5-1233.1-126.1-1236.5-122-1236.5z"/>
	</g>
	<g id="사각형_5881" transform="translate(318 2015)">
		<path class="st0" d="M-122-1237H26c4.4,0,8,3.6,8,8v34c0,4.4-3.6,8-8,8h-148c-4.4,0-8-3.6-8-8v-34
			C-130-1233.4-126.4-1237-122-1237z"/>
		<path class="st8" d="M-122-1236.5H26c4.1,0,7.5,3.4,7.5,7.5v34c0,4.1-3.4,7.5-7.5,7.5h-148c-4.1,0-7.5-3.4-7.5-7.5v-34
			C-129.5-1233.1-126.1-1236.5-122-1236.5z"/>
	</g>
	<g class="st9">
		<path d="M230.3,142.4l-0.6,1.1c-1.8-0.5-3.3-1.7-4-3.2c-0.7,1.7-2.1,2.9-4,3.5l-0.7-1.1c2.3-0.7,4-2.5,4-4.6v-0.4h-3.5v-1.1h3.5
			v-1.9h1.4v1.9h3.5v1.1h-3.5v0.4C226.3,140.1,228,141.7,230.3,142.4z M233.9,150.2h-10.2v-5.3h10.2V150.2z M225.1,149.1h7.5V146
			h-7.5V149.1z M233.9,144.1h-1.4v-3.7h-3.2v-1.1h3.2v-4.4h1.4V144.1z"/>
		<path d="M244.2,137.3h-5.6v4.9c3.1,0,4.9-0.1,7-0.5l0.2,1.1c-2.2,0.4-4.1,0.5-7.3,0.5h-1.2v-7.2h7V137.3z M249.5,150.1H239V145
			h1.4v4h9.1V150.1z M248.7,139.5h2.4v1.2h-2.4v5.5h-1.4v-11.3h1.4V139.5z"/>
		<path d="M266.4,148.4h-14.3v-1.1h6.4v-3.8h1.4v3.8h6.6V148.4z M265.7,142.4l-0.6,1.1c-2.4-0.5-4.9-2.1-5.9-4.4
			c-1,2.2-3.5,3.9-5.9,4.4l-0.6-1.1c2.7-0.5,5.8-2.8,5.8-5.4v-1.2h1.4v1.2C259.9,139.7,263,142,265.7,142.4z"/>
		<path d="M275.7,145.6l-0.8,1.1c-1.6-0.9-2.7-2.4-3.2-4.3c-0.5,2.2-1.6,3.9-3.3,4.9l-0.9-1.1c2.2-1.2,3.4-3.9,3.4-7.1v-1.2h-3.1
			v-1.2h7.3v1.2h-2.9v1.2C272.2,141.9,273.4,144.4,275.7,145.6z M281.1,150.4h-1.3v-8.1h-2.1v7.3h-1.3v-14.5h1.3v6h2.1v-6.3h1.3
			V150.4z"/>
		<path d="M284.2,150.9h-1.4l4.1-15.2h1.4L284.2,150.9z"/>
		<path d="M298.6,141.6l-0.6,1.1c-1.9-0.5-3.4-1.5-4.1-2.9c-0.7,1.5-2.2,2.7-4.1,3.2l-0.6-1.1c2.3-0.6,4-2.2,4-4.1v-0.4h-3.5v-1.1
			h3.5v-1.7h1.4v1.7h3.5v1.1h-3.5v0.4C294.5,139.6,296.3,141.1,298.6,141.6z M302.1,147.5h-8.7v1.7h9.3v1.1H292v-3.8h8.7v-1.5H292
			v-1.1h10.1V147.5z M302.1,143h-1.4v-3.2h-3.2v-1.1h3.2v-3.9h1.4V143z"/>
		<path d="M305.3,144.2l-0.6-1.1c3.8-1.1,6.2-3.3,6.5-6h-5.8V136h7.3C312.7,139.9,309.9,142.9,305.3,144.2z M317.1,147.4
			c0,1.9-2,3-5.1,3c-3.1,0-5.1-1.1-5.1-3c0-1.9,2-3,5.1-3C315.2,144.4,317.1,145.5,317.1,147.4z M308.3,147.4c0,1.2,1.5,1.9,3.7,1.9
			c2.3,0,3.8-0.7,3.8-1.9s-1.5-1.9-3.8-1.9C309.7,145.4,308.3,146.2,308.3,147.4z M317,138.9h2.4v1.1H317v4.2h-1.4v-9.4h1.4V138.9z"
			/>
	</g>
	<g class="st9">
		<path d="M228.7,798.4h-7.8v-1.1h3.2v-1.6h1.4v1.6h3.2V798.4z M228,801.7c0,1.6-1.3,2.6-3.3,2.6c-1.9,0-3.3-1-3.3-2.6
			c0-1.6,1.3-2.6,3.3-2.6C226.7,799.1,228,800.1,228,801.7z M222.8,801.7c0,0.9,0.8,1.6,2,1.6s2-0.6,2-1.6c0-0.9-0.8-1.6-2-1.6
			C223.6,800.1,222.8,800.7,222.8,801.7z M234.2,808.7h-9v1.5h9.6v1.1h-10.9v-3.6h9v-1.4h-9v-1h10.4V808.7z M231.4,804.4h-1.3v-3.4
			h-1.8v-1.1h1.8v-3.8h1.3V804.4z M234.2,804.6h-1.3v-8.8h1.3V804.6z"/>
		<path d="M250.8,809.3h-14.3v-1.1h14.3V809.3z M250.1,803.7l-0.6,1.2c-2.4-0.5-4.8-2.2-5.9-4.5c-1,2.3-3.5,4-5.9,4.5l-0.6-1.2
			c2.7-0.5,5.7-2.9,5.7-5.6v-1.2h1.4v1.2C244.3,800.8,247.4,803.2,250.1,803.7z"/>
		<path d="M258.3,802h2.5v-5.8h1.3v14.4h-1.3v-7.5h-3c-0.9,1.9-2.4,3.7-4.9,5l-0.8-1c2.4-1.3,3.8-3,4.6-4.8l-4.5,0.5l-0.2-1.2
			l5.1-0.3c0.2-0.8,0.4-1.6,0.4-2.5h-4.7v-1.1h6.1C259,799.1,258.8,800.6,258.3,802z M265.4,811.4h-1.3v-15.6h1.3V811.4z"/>
		<path d="M275.7,801.8h3.5v-6h1.4v15.7h-1.4v-8.5h-3.5c-0.2,3.1-1.7,5-3.9,5c-2.3,0-3.9-2.1-3.9-5.4s1.6-5.4,3.9-5.4
			C274,797,275.5,798.8,275.7,801.8z M269.2,802.5c0,2.5,1.1,4.2,2.6,4.2c1.5,0,2.6-1.7,2.6-4.2s-1.1-4.2-2.6-4.2
			C270.3,798.3,269.2,799.9,269.2,802.5z"/>
		<path d="M284.2,811.9h-1.4l4.1-15.2h1.4L284.2,811.9z"/>
		<path d="M298.4,802.9l-0.7,1.1c-1.8-0.6-3.1-1.9-3.8-3.5c-0.7,1.8-2.1,3.2-3.9,3.8l-0.7-1.1c2.4-0.8,4-2.8,4-5.1v-1.7h1.4v1.7
			C294.5,800.3,296.1,802.2,298.4,802.9z M302.2,811.2h-10.2v-5.6h10.2V811.2z M293.3,810.1h7.5v-3.4h-7.5V810.1z M302.2,804.8h-1.4
			V800h-3.5v-1.1h3.5v-3.1h1.4V804.8z"/>
		<path d="M319,805.9h-3.8v5.6h-1.4v-5.6h-4v5.6h-1.4v-5.6h-3.7v-1.1H319V805.9z M317.4,799.8c0,2.1-2.2,3.4-5.5,3.4
			c-3.3,0-5.5-1.3-5.5-3.4c0-2.1,2.2-3.4,5.5-3.4S317.4,797.7,317.4,799.8z M307.8,799.8c0,1.4,1.6,2.3,4.1,2.3
			c2.4,0,4.1-0.9,4.1-2.3s-1.7-2.3-4.1-2.3C309.4,797.6,307.8,798.5,307.8,799.8z"/>
	</g>
	<g class="st9">
		<path class="st0" d="M236.2,93.7h-14.5v-1.6h6.2V89h-5v-1.5h2.2v-4.7h-2.3v-1.6H235v1.6h-2.3v4.7h2.3V89h-5v3.1h6.3V93.7z
			 M230.7,87.4v-4.7h-3.6v4.7H230.7z"/>
		<path class="st0" d="M246.7,82.8h-9.4v-1.5h3.7v-1.7h2v1.7h3.7V82.8z M245.9,86.3c0,1.7-1.6,2.8-3.9,2.8c-2.3,0-3.9-1.1-3.9-2.8
			s1.6-2.8,3.9-2.8C244.3,83.5,245.9,84.6,245.9,86.3z M250,92.8c0,1.7-2.1,2.8-5.3,2.8c-3.3,0-5.3-1.1-5.3-2.8c0-1.8,2-2.8,5.3-2.8
			C247.9,90,250,91,250,92.8z M240,86.3c0,0.9,0.8,1.4,2,1.4s2-0.5,2-1.4c0-0.9-0.8-1.4-2-1.4S240,85.4,240,86.3z M241.3,92.8
			c0,0.8,1.2,1.3,3.4,1.3c2.1,0,3.4-0.5,3.4-1.3c0-0.9-1.2-1.3-3.4-1.3C242.5,91.5,241.3,91.9,241.3,92.8z M249.8,83.9h2.2v1.6h-2.2
			v4.3h-2V79.7h2V83.9z"/>
		<path class="st0" d="M271.6,89.5h-14.5V88h14.5V89.5z M269.8,95.6h-2v-3.3h-9.1v-1.6h11.1V95.6z M270,86.8h-11v-6.8h10.9v1.5h-9
			v1.1h8.6v1.5h-8.6v1.2h9.1V86.8z"/>
		<path class="st0" d="M276.5,91.1v-1.5c-1.7-0.3-2.9-1.4-2.8-2.9c0-1.8,1.6-3,3.8-3c2.2,0,3.8,1.2,3.9,3c0,1.5-1.2,2.6-2.9,2.9V91
			c1.3-0.1,2.7-0.2,3.9-0.4l0.1,1.4c-3.4,0.6-7.1,0.7-9.8,0.7l-0.3-1.6C273.7,91.2,275.1,91.2,276.5,91.1z M282.2,83h-9.5v-1.5h3.8
			v-1.8h2v1.8h3.7V83z M275.5,86.8c0,0.9,0.8,1.5,2,1.4c1.2,0,2-0.5,2-1.4c0-0.9-0.8-1.5-2-1.5C276.3,85.3,275.5,85.8,275.5,86.8z
			 M285.2,86.2h2.2v1.6h-2.2v7.7h-2V79.7h2V86.2z"/>
		<path class="st0" d="M297.7,87.4l-1,1.5c-1.8-0.6-3-1.8-3.7-3.3c-0.7,1.7-2,3-3.9,3.7l-1.1-1.5c2.6-0.8,3.9-3,3.9-5.2v-1.8h2v1.8
			C293.9,84.6,295.2,86.6,297.7,87.4z M301.4,95.2h-10.8v-5h2v3.5h8.8V95.2z M300.8,84.4h2.2V86h-2.2v5.3h-2V79.7h2V84.4z"/>
		<path class="st0" d="M312.3,83.3h2.9v-3.6h2v8.5h-2v-3.3h-2.8c-0.4,1.8-2,3-4.1,3c-2.4,0-4.2-1.6-4.2-3.8c0-2.2,1.8-3.7,4.2-3.7
			C310.2,80.4,311.9,81.5,312.3,83.3z M305.9,84.1c0,1.3,1,2.1,2.3,2.1c1.3,0,2.3-0.8,2.3-2.1c0-1.3-1-2.1-2.3-2.1
			C306.8,82,305.9,82.8,305.9,84.1z M308.5,90.6h6.6v-1.7h2v6.4h-10.5v-6.4h1.9V90.6z M315.1,93.8v-1.7h-6.6v1.7H315.1z"/>
	</g>
	<path id="사각형_5873" class="st5" d="M371,62h148c4.4,0,8,3.6,8,8v34c0,4.4-3.6,8-8,8H371c-4.4,0-8-3.6-8-8V70
		C363,65.6,366.6,62,371,62z"/>
	<g id="사각형_5874" transform="translate(493 1354)">
		<path class="st0" d="M-122-1237H26c4.4,0,8,3.6,8,8v34c0,4.4-3.6,8-8,8h-148c-4.4,0-8-3.6-8-8v-34
			C-130-1233.4-126.4-1237-122-1237z"/>
		<path class="st7" d="M-122-1236.5H26c4.1,0,7.5,3.4,7.5,7.5v34c0,4.1-3.4,7.5-7.5,7.5h-148c-4.1,0-7.5-3.4-7.5-7.5v-34
			C-129.5-1233.1-126.1-1236.5-122-1236.5z"/>
	</g>
	<g id="사각형_5882" transform="translate(493 2015)">
		<path class="st0" d="M-122-1237H26c4.4,0,8,3.6,8,8v34c0,4.4-3.6,8-8,8h-148c-4.4,0-8-3.6-8-8v-34
			C-130-1233.4-126.4-1237-122-1237z"/>
		<path class="st8" d="M-122-1236.5H26c4.1,0,7.5,3.4,7.5,7.5v34c0,4.1-3.4,7.5-7.5,7.5h-148c-4.1,0-7.5-3.4-7.5-7.5v-34
			C-129.5-1233.1-126.1-1236.5-122-1236.5z"/>
	</g>
	<g class="st9">
		<path d="M402.5,148.4h-14.3v-1.2h6.4v-3.8h-4.7v-7.3h10.8v7.3H396v3.8h6.5V148.4z M391.2,142.3h8.2v-5.1h-8.2V142.3z"/>
		<path d="M405.9,137.7h4.6v-2.3h1.4v6.8h-7.3v-6.8h1.4V137.7z M410.5,141.2v-2.4h-4.6v2.4H410.5z M416.6,147.5h-8.8v1.7h9.3v1.1
			h-10.7v-3.8h8.8v-1.6h-8.8v-1.1h10.2V147.5z M416.6,143h-1.4v-8.2h1.4V143z"/>
		<path d="M427.4,141.8h-5.8v3.7c2.6,0,4.9-0.1,7.7-0.6l0.1,1.2c-2.9,0.5-5.3,0.6-7.9,0.6h-1.3v-6h5.9v-3.3h-5.9v-1.1h7.3V141.8z
			 M432.2,150.5h-1.4v-15.7h1.4V150.5z"/>
		<path d="M443.5,137.4h-6.2v3.2h5.7v1.1h-5.7v3.8c2.9,0,4.9-0.1,7.3-0.5l0.1,1.1c-2.5,0.4-4.6,0.5-7.6,0.5h-1.2v-10.4h7.6V137.4z
			 M447.8,150.4h-1.4v-15.6h1.4V150.4z"/>
		<path d="M451.4,150.9H450l4.1-15.2h1.4L451.4,150.9z"/>
		<path d="M465.8,145.9L465,147c-1.8-0.9-3.2-2.7-3.9-4.8c-0.7,2.3-2.3,4.3-4,5.2l-0.8-1.1c2.2-1.1,4.2-4.1,4.2-6.7v-2h-3.6v-1.1
			h8.5v1.1h-3.5v2C461.7,142.1,463.5,144.9,465.8,145.9z M468.5,141.1h2.6v1.2h-2.6v8.1h-1.4v-15.6h1.4V141.1z"/>
		<path d="M486.2,143.6H472v-1.1h6.5v-1.8h-4.6v-5.2h10.7v1.1h-9.3v2.9h9.4v1.1h-4.8v1.8h6.5V143.6z M484.5,147.6
			c0,1.8-2,2.8-5.4,2.8c-3.4,0-5.4-1-5.4-2.8c0-1.8,2-2.8,5.4-2.8C482.5,144.8,484.5,145.8,484.5,147.6z M475.1,147.6
			c0,1.1,1.5,1.7,4,1.7c2.5,0,4-0.6,4-1.7c0-1.1-1.5-1.7-4-1.7C476.6,145.9,475.1,146.5,475.1,147.6z"/>
		<path d="M496.6,146l-0.8,1.1c-1.7-0.8-3.1-2.5-3.7-4.6c-0.7,2.2-2.1,4-3.9,4.9l-0.8-1.1c2.3-1.1,4-3.7,4-6.4v-1.2h-3.6v-1.1h3.6
			v-2.4h1.4v2.4h3.5v1.1h-3.6v1.2C492.7,142.4,494.4,145,496.6,146z M499.6,141.2h2.6v1.2h-2.6v8h-1.4v-15.6h1.4V141.2z"/>
	</g>
	<g class="st9">
		<path d="M393.9,808.5l-0.8-1.1c4.2-2,6.4-5,6.7-8.7h-6v-1.1h7.4C401.2,802,399.1,806,393.9,808.5z M405.9,811.4h-1.4v-15.6h1.4
			V811.4z"/>
		<path d="M418.7,810.6h-1.3v-5.4h-2.9v-1.1h2.9v-2.8h-2.6c-0.8,2.6-2.5,5-5.4,6.8l-0.8-1c3.4-2,5.1-4.8,5.4-8.1h-4.7v-1.1h6
			c0,0.8-0.1,1.6-0.2,2.4h2.4v-3.9h1.3V810.6z M421.9,811.4h-1.3v-15.6h1.3V811.4z"/>
		<path d="M425.1,811.9h-1.4l4.1-15.2h1.4L425.1,811.9z"/>
		<path d="M444.4,809.5h-14.3v-1.2h6.4v-3h-4.6v-4.8h9.4v-2.5h-9.4V797h10.7v4.7h-9.3v2.5h9.7v1.1h-5.1v3h6.5V809.5z"/>
		<path d="M448.9,798h7.7v-1.8h1.4v5.7h-4.6v1.8h6.4v1.1h-14.2v-1.1h6.5v-1.8h-4.6v-5.7h1.4V798z M458.8,810.3l-0.5,1.1
			c-2.4-0.4-4.6-1.5-5.5-3.2c-0.9,1.7-3.1,2.8-5.5,3.2l-0.5-1.1c2.8-0.4,5.3-1.9,5.3-4v-0.4h1.4v0.4
			C453.4,808.4,455.9,809.9,458.8,810.3z M456.6,800.9v-1.8h-7.7v1.8H456.6z"/>
		<path d="M462.2,811.9h-1.4l4.1-15.2h1.4L462.2,811.9z"/>
		<path d="M481.5,806.2H475v5.3h-1.4v-5.3h-6.4V805h14.3V806.2z M469.8,798.6h2.5v-2.2h1.4v6.8h-5.2v-6.8h1.3V798.6z M472.3,802.1
			v-2.3h-2.5v2.3H472.3z M476.3,798.6h2.5v-2.2h1.4v6.8H475v-6.8h1.4V798.6z M478.9,802.1v-2.3h-2.5v2.3H478.9z"/>
		<path d="M490.9,802.8h-5.8v3.7c2.6,0,4.9-0.1,7.7-0.6l0.1,1.2c-2.9,0.5-5.3,0.6-7.9,0.6h-1.3v-6h5.9v-3.3h-5.9v-1.1h7.3V802.8z
			 M495.7,811.5h-1.4v-15.7h1.4V811.5z"/>
	</g>
	<g class="st9">
		<path class="st0" d="M410,89h-2v-1.8h-3.8v-1.6h3.8v-1.7h-3.6c-1,2.5-3.3,4.3-6.8,5.3l-0.8-1.5c3.7-1,5.7-2.9,6-5.3h-5.2v-1.6h7.3
			c0,0.6,0,1.1-0.1,1.6h3.2v-2.7h2V89z M410.1,92.3c0,2-2.1,3.2-5.4,3.2c-3.3,0-5.4-1.2-5.4-3.2s2.1-3.2,5.4-3.2
			C408,89.1,410.1,90.4,410.1,92.3z M401.3,92.3c0,1,1.3,1.6,3.4,1.6c2.1,0,3.4-0.6,3.4-1.6c0-1.1-1.3-1.6-3.4-1.6
			C402.6,90.7,401.3,91.3,401.3,92.3z"/>
		<path class="st0" d="M421.8,87.4l-1,1.5c-1.8-0.6-3-1.8-3.7-3.3c-0.7,1.7-2,3-3.9,3.7l-1.1-1.5c2.6-0.8,3.9-3,3.9-5.2v-1.8h2v1.8
			C418,84.6,419.3,86.6,421.8,87.4z M425.4,95.2h-10.8v-5h2v3.5h8.8V95.2z M424.8,84.4h2.2V86h-2.2v5.3h-2V79.7h2V84.4z"/>
		<path class="st0" d="M446.6,89.5h-14.5V88h14.5V89.5z M444.8,95.6h-2v-3.3h-9.1v-1.6h11.1V95.6z M445,86.8h-11v-6.8h10.9v1.5h-9
			v1.1h8.6v1.5h-8.6v1.2h9.1V86.8z"/>
		<path class="st0" d="M451.5,91.1v-1.5c-1.7-0.3-2.9-1.4-2.8-2.9c0-1.8,1.6-3,3.8-3c2.2,0,3.8,1.2,3.9,3c0,1.5-1.2,2.6-2.9,2.9V91
			c1.3-0.1,2.7-0.2,3.9-0.4l0.1,1.4c-3.4,0.6-7.1,0.7-9.8,0.7l-0.3-1.6C448.7,91.2,450.1,91.2,451.5,91.1z M457.2,83h-9.5v-1.5h3.8
			v-1.8h2v1.8h3.7V83z M450.5,86.8c0,0.9,0.8,1.5,2,1.4c1.2,0,2-0.5,2-1.4c0-0.9-0.8-1.5-2-1.5C451.3,85.3,450.5,85.8,450.5,86.8z
			 M460.2,86.2h2.2v1.6h-2.2v7.7h-2V79.7h2V86.2z"/>
		<path class="st0" d="M472.7,87.4l-1,1.5c-1.8-0.6-3-1.8-3.7-3.3c-0.7,1.7-2,3-3.9,3.7l-1.1-1.5c2.6-0.8,3.9-3,3.9-5.2v-1.8h2v1.8
			C468.9,84.6,470.2,86.6,472.7,87.4z M476.4,95.2h-10.8v-5h2v3.5h8.8V95.2z M475.8,84.4h2.2V86h-2.2v5.3h-2V79.7h2V84.4z"/>
		<path class="st0" d="M487.3,83.3h2.9v-3.6h2v8.5h-2v-3.3h-2.8c-0.4,1.8-2,3-4.1,3c-2.4,0-4.2-1.6-4.2-3.8c0-2.2,1.8-3.7,4.2-3.7
			C485.2,80.4,486.9,81.5,487.3,83.3z M480.9,84.1c0,1.3,1,2.1,2.3,2.1c1.3,0,2.3-0.8,2.3-2.1c0-1.3-1-2.1-2.3-2.1
			C481.8,82,480.9,82.8,480.9,84.1z M483.5,90.6h6.6v-1.7h2v6.4h-10.5v-6.4h1.9V90.6z M490.1,93.8v-1.7h-6.6v1.7H490.1z"/>
	</g>
	<g id="그룹_8007" transform="translate(5)">
		<g>
			<defs>
				<rect id="SVGID_1_" x="61" y="262.9" width="110.7" height="110.8"/>
			</defs>
			<clipPath id="SVGID_00000122721239826520353710000013228406622289624980_">
				<use xlink:href="#SVGID_1_"  style="overflow:visible;"/>
			</clipPath>
			<g id="그룹_8006" style="clip-path:url(#SVGID_00000122721239826520353710000013228406622289624980_);">
				<path id="패스_3194" class="st11" d="M116.3,373.6c-0.4,0-0.7,0-1.1,0l0-1.3c2.6,0,5.2-0.1,7.8-0.4l0.2,1.3
					C121,373.5,118.7,373.6,116.3,373.6 M107.3,372.9c-2.6-0.4-5.2-1.1-7.8-1.9l0.4-1.3c2.5,0.8,5,1.4,7.6,1.8L107.3,372.9z
					 M131.1,371.6l-0.4-1.3c2.5-0.7,5-1.6,7.4-2.6l0.5,1.2C136.2,370,133.7,370.9,131.1,371.6 M92.1,368c-2.4-1.2-4.7-2.5-6.9-4
					l0.7-1.1c2.2,1.5,4.4,2.8,6.8,3.9L92.1,368z M145.7,365.2l-0.7-1.1c2.2-1.4,4.3-2.9,6.3-4.6l0.9,1
					C150.1,362.2,148,363.8,145.7,365.2 M78.9,359.1c-2-1.8-3.8-3.7-5.5-5.8l1-0.8c1.6,2,3.4,3.9,5.4,5.7L78.9,359.1z M157.9,354.9
					l-1-0.9c1.7-2,3.3-4,4.7-6.2l1.1,0.7C161.2,350.7,159.6,352.9,157.9,354.9 M68.8,346.7c-1.4-2.3-2.6-4.7-3.6-7.1l1.2-0.5
					c1,2.4,2.2,4.7,3.5,7L68.8,346.7z M166.6,341.5l-1.2-0.6c1.1-2.4,2-4.8,2.8-7.3l1.3,0.4C168.7,336.6,167.7,339.1,166.6,341.5
					 M62.7,332c-0.7-2.6-1.1-5.2-1.4-7.9l1.3-0.1c0.3,2.6,0.7,5.2,1.4,7.7L62.7,332z M171.1,326.2l-1.3-0.2c0.4-2.6,0.6-5.2,0.6-7.8
					h1.3C171.7,320.9,171.5,323.6,171.1,326.2 M62.3,316.2l-1.3,0c0.1-2.7,0.4-5.3,0.9-7.9l1.3,0.2C62.7,311,62.4,313.6,62.3,316.2
					 M170.3,314.6c-0.2-2.6-0.5-5.2-1.1-7.7l1.3-0.3c0.6,2.6,0.9,5.3,1.1,7.9L170.3,314.6z M65.1,300.8l-1.2-0.4
					c0.9-2.5,1.9-5,3.1-7.4l1.2,0.6C67,296,66,298.4,65.1,300.8 M167,299.3c-0.9-2.4-2-4.8-3.3-7.1l1.2-0.6c1.3,2.3,2.4,4.8,3.3,7.3
					L167,299.3z M72.2,287l-1.1-0.8c1.5-2.2,3.2-4.2,5.1-6.2l1,0.9C75.4,282.8,73.7,284.9,72.2,287 M159.5,285.7
					c-1.6-2.1-3.3-4-5.1-5.9l0.9-0.9c1.9,1.9,3.7,3.9,5.3,6L159.5,285.7z M83,275.7l-0.8-1c2.1-1.6,4.3-3.1,6.6-4.5l0.7,1.1
					C87.2,272.6,85,274.1,83,275.7 M148.4,274.7c-2.1-1.5-4.3-2.9-6.6-4.2l0.6-1.2c2.4,1.3,4.6,2.7,6.8,4.3L148.4,274.7z
					 M96.5,267.9l-0.5-1.2c2.5-1,5-1.8,7.6-2.4l0.3,1.3C101.4,266.2,98.9,267,96.5,267.9 M134.7,267.4c-2.5-0.9-5-1.6-7.5-2.1
					l0.3-1.3c2.6,0.5,5.2,1.3,7.7,2.2L134.7,267.4z M111.6,264.4l-0.1-1.3c2.7-0.2,5.3-0.3,8-0.1l-0.1,1.3
					C116.8,264.1,114.2,264.2,111.6,264.4"/>
				<path id="패스_3195" class="st5" d="M161.1,318.2c0,24.7-20.1,44.8-44.8,44.8S71.5,343,71.5,318.2s20.1-44.8,44.8-44.8
					c0,0,0,0,0,0C141.1,273.4,161.1,293.5,161.1,318.2"/>
				<path id="패스_3196" class="st0" d="M149.9,318.2c0,18.5-15,33.5-33.5,33.5s-33.5-15-33.5-33.5c0-18.5,15-33.5,33.5-33.5h0
					C134.8,284.7,149.9,299.7,149.9,318.2"/>
			</g>
		</g>
	</g>
	<path id="사각형_5885" d="M80,344.6h82c10.5,0,19,8.5,19,19l0,0c0,10.5-8.5,19-19,19H80c-10.5,0-19-8.5-19-19l0,0
		C61,353.1,69.5,344.6,80,344.6z"/>
	<g class="st9">
		<path class="st0" d="M91.7,359.6h-5.1v6.6c2.6,0,4.2-0.1,6.1-0.4l0.2,1.4c-2,0.4-3.8,0.5-6.8,0.5h-1.2v-9.5h6.8V359.6z M95.8,371
			H94v-14.1h1.8V371z"/>
		<path class="st0" d="M106.5,366.6l-1,1.4c-1.6-0.8-2.8-2.3-3.4-4c-0.6,1.9-1.9,3.6-3.5,4.4l-1-1.4c2.2-1.1,3.6-3.7,3.6-6.1v-1.2
			h-3.1v-1.4h7.8v1.4h-3v1.2C102.9,363.1,104.2,365.6,106.5,366.6z M108.9,362.4h2.2v1.5h-2.2v7.2h-1.7v-14.1h1.7V362.4z"/>
		<path class="st0" d="M119.5,361.3c0,2.1-1.7,3.5-3.8,3.5c-2.2,0-3.8-1.5-3.8-3.5c0-2,1.7-3.5,3.8-3.5
			C117.9,357.8,119.5,359.3,119.5,361.3z M113.6,361.3c0,1.2,0.9,2,2.1,2c1.2,0,2.1-0.8,2.1-2c0-1.2-0.9-2-2.1-2
			C114.5,359.3,113.6,360.1,113.6,361.3z M123.8,370.7h-9.7v-4.7h1.8v3.2h8V370.7z M123.5,367.1h-1.8v-10.2h1.8V367.1z"/>
		<path class="st0" d="M127,371.3h-1.8l3.7-13.5h1.7L127,371.3z"/>
		<path class="st0" d="M139.7,362.5l-0.9,1.3c-1.5-0.5-2.6-1.5-3.2-2.8c-0.6,1.4-1.8,2.6-3.5,3.1l-0.9-1.4c2.3-0.7,3.5-2.4,3.5-4.3
			v-1.1h1.8v1.1C136.4,360.2,137.5,361.9,139.7,362.5z M143.1,368.4h-7.6v1.1h8v1.4h-9.7v-3.8h7.6v-1h-7.6v-1.4h9.3V368.4z
			 M143.1,364.1h-1.7v-3.6h-2.8v-1.4h2.8v-2.3h1.7V364.1z"/>
		<path class="st0" d="M154.3,370.3h-1.7v-4.7h-2.2v-1.4h2.2v-2.1h-2c-0.7,2.3-2.1,4.4-4.8,5.9l-1-1.2c2.9-1.7,4.3-3.9,4.5-6.8h-3.8
			v-1.4h5.5c0,0.7,0,1.4-0.1,2.1h1.6v-3.5h1.7V370.3z M157.3,371h-1.7v-14.1h1.7V371z"/>
	</g>
	<g id="그룹_8010" transform="translate(40 33.721)">
		<path id="패스_3197" class="st0" d="M71.4,267.9l-6.2,6.2l25.2,25.2l7.4,1.2l-1.2-7.4L71.4,267.9z"/>
		<g id="그룹_8009">
			<g>
				<defs>
					<rect id="SVGID_00000103230226561117463660000016944309504324491686_" x="61" y="262.9" width="40.5" height="39.4"/>
				</defs>
				<clipPath id="SVGID_00000005949238380044242220000010309378733803476142_">
					<use xlink:href="#SVGID_00000103230226561117463660000016944309504324491686_"  style="overflow:visible;"/>
				</clipPath>
				<g id="그룹_8008" style="clip-path:url(#SVGID_00000005949238380044242220000010309378733803476142_);">
					<path id="패스_3198" class="st5" d="M97.7,301.4c0,0-0.1,0-0.1,0l-7.4-1.2c-0.2,0-0.4-0.1-0.5-0.3l-25.2-25.2
						c-0.4-0.4-0.4-1,0-1.4c0,0,0,0,0,0l6.2-6.2c0.4-0.4,1-0.4,1.4,0c0,0,0,0,0,0l25.2,25.2c0.1,0.1,0.2,0.3,0.3,0.5l1.2,7.4
						c0.1,0.5-0.3,1-0.8,1.1C97.8,301.4,97.7,301.4,97.7,301.4 M90.7,298.4l5.8,0.9l-0.9-5.8l-24.3-24.3l-4.9,4.9L90.7,298.4z"/>
					<path id="패스_3199" class="st0" d="M96.5,293.1l1.1,7.3l-7.3-1.1L96.5,293.1z"/>
					<path id="패스_3200" class="st5" d="M97.7,301.4c0,0-0.1,0-0.1,0l-7.3-1.1c-0.5-0.1-0.9-0.6-0.8-1.1c0-0.2,0.1-0.4,0.3-0.5
						l6.2-6.2c0.4-0.4,1-0.4,1.4,0c0.1,0.1,0.2,0.3,0.3,0.5l1.1,7.3c0.1,0.5-0.3,1-0.8,1.1C97.8,301.4,97.7,301.4,97.7,301.4
						 M92.4,298.6l4.1,0.6l-0.6-4.1L92.4,298.6z"/>
					<path id="패스_3201" class="st5" d="M97.1,297l0.5,3.5l-3.5-0.5L97.1,297z"/>
					<path id="패스_3202" class="st0" d="M65.7,265.4l-3.1,3.1c-0.9,0.9-0.9,2.3,0,3.1l2.5,2.5l6.2-6.2l-2.5-2.5
						C68,264.5,66.6,264.5,65.7,265.4C65.7,265.4,65.7,265.4,65.7,265.4"/>
					<path id="패스_3203" class="st5" d="M65.1,275.1c-0.3,0-0.5-0.1-0.7-0.3l-2.5-2.5c-1.2-1.2-1.2-3.2,0-4.5l3.1-3.1
						c1.2-1.2,3.2-1.2,4.5,0c0,0,0,0,0,0l2.5,2.5c0.4,0.4,0.4,1,0,1.4c0,0,0,0,0,0l-6.2,6.2C65.6,275,65.4,275.1,65.1,275.1
						 M66.4,266l-3.1,3.1c-0.5,0.5-0.5,1.3,0,1.8l1.8,1.8l4.9-4.9l-1.8-1.8C67.7,265.6,66.9,265.6,66.4,266z"/>
					<path id="패스_3204" class="st5" d="M93,296.7c-0.3,0-0.5-0.1-0.7-0.3l-24.8-24.8c-0.4-0.4-0.3-1,0-1.4
						c0.4-0.3,0.9-0.3,1.3,0l24.8,24.8c0.4,0.4,0.4,1,0,1.4C93.5,296.6,93.3,296.7,93,296.7"/>
					
						<rect id="사각형_5886" x="91.2" y="264.9" transform="matrix(0.7071 -0.7071 0.7071 0.7071 -162.7802 145.7254)" class="st0" width="6.7" height="8.9"/>
					<path id="패스_3205" class="st5" d="M95.3,275.9c-0.3,0-0.5-0.1-0.7-0.3l-6.3-6.3c-0.4-0.4-0.4-1,0-1.4c0,0,0,0,0,0l4.8-4.8
						c0.4-0.4,1-0.4,1.4,0c0,0,0,0,0,0l6.3,6.3c0.4,0.4,0.4,1,0,1.4c0,0,0,0,0,0l-4.8,4.8C95.8,275.7,95.5,275.9,95.3,275.9
						 M90.3,268.6l4.9,4.9l3.4-3.4l-4.9-4.9L90.3,268.6z"/>
					<path id="패스_3206" class="st0" d="M89,268.6l-23.3,23.3l-1.1,1.1l-0.8,7.1l7.1-0.8l1.1-1.1l23.3-23.3L89,268.6z"/>
					<path id="패스_3207" class="st5" d="M63.7,301.1c-0.5,0-1-0.4-1-1c0,0,0-0.1,0-0.1l0.8-7.1c0-0.2,0.1-0.4,0.3-0.6l24.4-24.4
						c0.4-0.4,1-0.4,1.4,0c0,0,0,0,0,0l6.3,6.3c0.4,0.4,0.4,1,0,1.4c0,0,0,0,0,0L71.5,300c-0.2,0.2-0.4,0.3-0.6,0.3l-7.1,0.8
						C63.8,301.1,63.8,301.1,63.7,301.1 M65.5,293.5l-0.7,5.6l5.6-0.7l23.5-23.5l-4.9-4.9L65.5,293.5z"/>
					<path id="패스_3208" class="st5" d="M93.7,283.4c-0.5,0-1-0.4-1-1c0-0.3,0.1-0.5,0.3-0.7l6.2-6.2l-2.2-2.2
						c-0.4-0.4-0.4-1,0-1.4s1-0.4,1.4,0l0,0l2.9,2.9c0.4,0.4,0.4,1,0,1.4c0,0,0,0,0,0l-6.9,6.9C94.2,283.3,93.9,283.4,93.7,283.4"/>
					<line id="선_219" class="st3" x1="63.9" y1="299.9" x2="62.6" y2="301.3"/>
					<path id="패스_3209" class="st5" d="M62.6,302.3c-0.5,0-1-0.4-1-1c0-0.3,0.1-0.5,0.3-0.7l1.4-1.4c0.4-0.4,1-0.4,1.4,0
						s0.4,1,0,1.4l0,0l-1.4,1.4C63.1,302.2,62.8,302.3,62.6,302.3"/>
					<path id="패스_3210" class="st5" d="M71,299.9c-0.3,0-0.5-0.1-0.7-0.3l-6.3-6.3c-0.4-0.4-0.4-1,0-1.4c0.4-0.4,1-0.4,1.4,0
						c0,0,0,0,0,0l6.3,6.3c0.4,0.4,0.4,1,0,1.4C71.5,299.8,71.3,299.9,71,299.9"/>
				</g>
			</g>
		</g>
	</g>
	<g id="그룹_8012" transform="translate(166.65 -25.658)">
		<g id="그룹_8007-2" transform="translate(181 1468.248)">
			<g>
				<defs>
					<rect id="SVGID_00000183940316600165455250000012803935700406618298_" x="-130" y="-1237" width="110.7" height="110.8"/>
				</defs>
				<clipPath id="SVGID_00000088831673340785760160000003924337709257150361_">
					<use xlink:href="#SVGID_00000183940316600165455250000012803935700406618298_"  style="overflow:visible;"/>
				</clipPath>
				<g id="그룹_8006-2" style="clip-path:url(#SVGID_00000088831673340785760160000003924337709257150361_);">
					<path id="패스_3194-2" class="st11" d="M-74.7-1126.2c-0.4,0-0.7,0-1.1,0l0-1.3c2.6,0,5.2-0.1,7.8-0.4l0.2,1.3
						C-70-1126.4-72.3-1126.2-74.7-1126.2 M-83.7-1127c-2.6-0.4-5.2-1.1-7.8-1.9l0.4-1.3c2.5,0.8,5,1.4,7.6,1.8L-83.7-1127z
						 M-59.9-1128.2l-0.4-1.3c2.5-0.7,5-1.6,7.4-2.6l0.5,1.2C-54.8-1129.8-57.3-1129-59.9-1128.2 M-98.9-1131.8
						c-2.4-1.2-4.7-2.5-6.9-4l0.7-1.1c2.2,1.5,4.4,2.8,6.8,3.9L-98.9-1131.8z M-45.3-1134.7l-0.7-1.1c2.2-1.4,4.3-2.9,6.3-4.6l0.9,1
						C-40.9-1137.7-43-1136.1-45.3-1134.7 M-112.1-1140.8c-2-1.8-3.8-3.7-5.5-5.8l1-0.8c1.6,2,3.4,3.9,5.4,5.7L-112.1-1140.8z
						 M-33.1-1145l-1-0.9c1.7-2,3.3-4,4.7-6.2l1.1,0.7C-29.8-1149.1-31.4-1147-33.1-1145 M-122.2-1153.2c-1.4-2.3-2.6-4.7-3.6-7.1
						l1.2-0.5c1,2.4,2.2,4.7,3.5,7L-122.2-1153.2z M-24.4-1158.3l-1.2-0.6c1.1-2.4,2-4.8,2.8-7.3l1.3,0.4
						C-22.3-1163.3-23.3-1160.8-24.4-1158.3 M-128.3-1167.9c-0.7-2.6-1.1-5.2-1.4-7.9l1.3-0.1c0.3,2.6,0.7,5.2,1.4,7.7
						L-128.3-1167.9z M-19.9-1173.6l-1.3-0.2c0.4-2.6,0.6-5.2,0.6-7.8h1.3C-19.3-1179-19.5-1176.3-19.9-1173.6 M-128.7-1183.7
						l-1.3,0c0.1-2.7,0.4-5.3,0.9-7.9l1.3,0.2C-128.3-1188.9-128.6-1186.3-128.7-1183.7 M-20.7-1185.3c-0.2-2.6-0.5-5.2-1.1-7.7
						l1.3-0.3c0.6,2.6,0.9,5.3,1.1,7.9L-20.7-1185.3z M-125.9-1199l-1.2-0.4c0.9-2.5,1.9-5,3.1-7.4l1.2,0.6
						C-124-1203.9-125-1201.5-125.9-1199 M-24-1200.5c-0.9-2.4-2-4.8-3.3-7.1l1.2-0.6c1.3,2.3,2.4,4.8,3.3,7.3L-24-1200.5z
						 M-118.8-1212.9l-1.1-0.8c1.5-2.2,3.2-4.2,5.1-6.2l1,0.9C-115.6-1217-117.3-1215-118.8-1212.9 M-31.5-1214.2
						c-1.6-2.1-3.3-4-5.1-5.9l0.9-0.9c1.9,1.9,3.7,3.9,5.3,6L-31.5-1214.2z M-108-1224.2l-0.8-1c2.1-1.6,4.3-3.1,6.6-4.5l0.7,1.1
						C-103.8-1227.2-106-1225.8-108-1224.2 M-42.6-1225.1c-2.1-1.5-4.3-2.9-6.6-4.2l0.6-1.2c2.4,1.3,4.6,2.7,6.8,4.3L-42.6-1225.1z
						 M-94.5-1231.9l-0.5-1.2c2.5-1,5-1.8,7.6-2.4l0.3,1.3C-89.6-1233.7-92.1-1232.9-94.5-1231.9 M-56.3-1232.5
						c-2.5-0.9-5-1.6-7.5-2.1l0.3-1.3c2.6,0.5,5.2,1.3,7.7,2.2L-56.3-1232.5z M-79.4-1235.5l-0.1-1.3c2.7-0.2,5.3-0.3,8-0.1
						l-0.1,1.3C-74.2-1235.7-76.8-1235.7-79.4-1235.5"/>
					<path id="패스_3195-2" class="st5" d="M-29.9-1181.6c0,24.7-20.1,44.8-44.8,44.8s-44.8-20.1-44.8-44.8s20.1-44.8,44.8-44.8
						c0,0,0,0,0,0C-49.9-1226.4-29.9-1206.4-29.9-1181.6"/>
					<path id="패스_3196-2" class="st0" d="M-41.1-1181.6c0,18.5-15,33.5-33.5,33.5c-18.5,0-33.5-15-33.5-33.5
						c0-18.5,15-33.5,33.5-33.5h0C-56.2-1215.1-41.1-1200.1-41.1-1181.6"/>
				</g>
			</g>
		</g>
		<path id="사각형_5885-2" d="M65,313h82c10.5,0,19,8.5,19,19l0,0c0,10.5-8.5,19-19,19H65c-10.5,0-19-8.5-19-19l0,0
			C46,321.5,54.5,313,65,313z"/>
		<g class="st9">
			<path class="st0" d="M62.4,335.9h-6.7v-9.2h6.7V335.9z M57.4,334.5h3.2V328h-3.2V334.5z M66.3,330.7h2.2v1.5h-2.2v7.2h-1.7v-14.1
				h1.7V330.7z"/>
			<path class="st0" d="M74.8,330.7h1.7v-5.1h1.6v13.1h-1.6v-6.6h-2.2c-0.8,1.7-2.1,3.2-4.3,4.4l-1-1.2c1.9-1.1,3.1-2.4,3.8-3.8
				l-3.5,0.4l-0.2-1.5l4.2-0.2c0.1-0.6,0.2-1.2,0.3-1.8h-3.8v-1.4h5.5C75.3,328.2,75.2,329.5,74.8,330.7z M81.2,339.4h-1.7v-14.1
				h1.7V339.4z"/>
			<path class="st0" d="M90.5,327.7h-5.1v1.3h4.7v1.4h-4.7v1.4c2.6,0,4.2,0,6.1-0.3l0.2,1.4c-2,0.3-3.8,0.4-6.8,0.4h-1.2v-6.8h6.8
				V327.7z M94.7,336.7c0,1.7-1.9,2.6-4.8,2.6c-3,0-4.8-1-4.8-2.6c0-1.7,1.8-2.6,4.8-2.6C92.8,334.1,94.7,335.1,94.7,336.7z
				 M86.8,336.7c0,0.8,1.1,1.3,3.1,1.3c2,0,3.1-0.5,3.1-1.3c0-0.8-1.1-1.3-3.1-1.3C87.9,335.4,86.7,335.9,86.8,336.7z M94.6,333.9
				h-1.8v-8.6h1.8V333.9z"/>
			<path class="st0" d="M98.1,339.7h-1.8l3.7-13.5h1.7L98.1,339.7z"/>
			<path class="st0" d="M115.3,337.6h-12.9v-1.4h4.8v-4.9h1.7v4.9h6.4V337.6z M114,327.9c0,1.8,0,3.7-0.6,6.7l-1.8-0.2
				c0.5-2.8,0.5-4.8,0.6-6.5h-8.4v-1.4H114V327.9z"/>
			<path class="st0" d="M117,333.7l-0.8-1.3c2.8-1,4.2-2.6,4.5-4.7h-3.8v-1.4h5.6C122.4,329.8,120.6,332.2,117,333.7z M128.3,339.4
				h-1.7v-3.8h-8v-1.4h9.7V339.4z M128.3,333.6h-1.7V330h-1.5v3.5h-1.6v-8h1.6v3.1h1.5v-3.3h1.7V333.6z"/>
			<path class="st0" d="M135.8,328.3h-3.5v6.3c1.5,0,2.8-0.1,4.2-0.4l0.1,1.4c-1.7,0.3-3.2,0.4-5.2,0.4h-1v-9.2h5.3V328.3z
				 M142.2,339.4h-1.7v-7.2H139v6.5h-1.6v-13.1h1.6v5.3h1.6v-5.5h1.7V339.4z"/>
			<path class="st0" d="M156.8,333.3h-12.9V332h12.9V333.3z M155.4,328.3c0,1.7-2,2.7-5.1,2.7s-5.1-1-5.1-2.7c0-1.7,2-2.7,5.1-2.7
				S155.4,326.6,155.4,328.3z M155.2,336.8c0,1.6-1.8,2.6-4.9,2.6c-3.1,0-4.9-0.9-4.9-2.6c0-1.7,1.8-2.6,4.9-2.6
				C153.4,334.3,155.2,335.2,155.2,336.8z M147,328.3c0,0.9,1.2,1.4,3.3,1.4s3.3-0.5,3.3-1.4s-1.2-1.4-3.3-1.4S147,327.4,147,328.3z
				 M147.2,336.8c0,0.8,1.1,1.2,3.2,1.2c2,0,3.1-0.4,3.2-1.2c0-0.8-1.1-1.2-3.2-1.2C148.3,335.6,147.2,336,147.2,336.8z"/>
		</g>
		<g id="그룹_8013" transform="translate(212.234 1499.953)">
			<g>
				<defs>
					<rect id="SVGID_00000034071750357108014980000006250320840966998922_" x="-130" y="-1237" width="48.2" height="41.8"/>
				</defs>
				<clipPath id="SVGID_00000048469935540227174570000017794584919382361219_">
					<use xlink:href="#SVGID_00000034071750357108014980000006250320840966998922_"  style="overflow:visible;"/>
				</clipPath>
				<g id="그룹_8013-2" style="clip-path:url(#SVGID_00000048469935540227174570000017794584919382361219_);">
					<path id="패스_3211" class="st0" d="M-90.9-1209.6h1.9c3.4,0,6.2-2.8,6.2-6.2l0,0v-0.4c0-3.4-2.8-6.2-6.2-6.2l0,0h-1.9
						V-1209.6z"/>
					<path id="패스_3212" class="st5" d="M-89-1208.6h-1.9c-0.6,0-1-0.5-1-1v-12.9c0-0.6,0.5-1,1-1h1.9c4,0,7.3,3.3,7.3,7.3v0.4
						C-81.8-1211.8-85-1208.6-89-1208.6 M-89.9-1210.6h0.9c2.9,0,5.2-2.3,5.2-5.2v-0.4c0-2.9-2.3-5.2-5.2-5.2h-0.9V-1210.6z"/>
					<path id="패스_3213" class="st5" d="M-106-1197.7c-0.2,0-0.3,0-0.3,0c-0.6,0-1-0.5-1-1.1c0-0.5,0.5-1,1-1c0,0,1.5,0,3.2-0.1
						c6.8-0.6,11.1-6.8,11.1-12.2v-9.9c0-7.1-6.2-12.9-13.9-12.9s-13.9,5.8-13.9,12.9v11.2c0,0.6-0.4,1-1,1c-0.6,0-1-0.4-1-1
						c0,0,0,0,0-0.1v-11.2c0-8.3,7.2-15,15.9-15s15.9,6.7,15.9,15v9.9c0,6.3-4.9,13.5-12.9,14.2
						C-104.3-1197.7-105.5-1197.7-106-1197.7"/>
					<path id="패스_3214" class="st0" d="M-103.4-1198.7c0,1.4-1.1,2.5-2.5,2.5s-2.5-1.1-2.5-2.5s1.1-2.5,2.5-2.5
						S-103.4-1200.1-103.4-1198.7"/>
					<path id="패스_3215" class="st5" d="M-105.9-1195.2c-1.9,0-3.5-1.6-3.5-3.5c0-1.9,1.6-3.5,3.5-3.5s3.5,1.6,3.5,3.5l0,0
						C-102.4-1196.8-103.9-1195.2-105.9-1195.2 M-105.9-1200.2c-0.8,0-1.5,0.7-1.5,1.5s0.7,1.5,1.5,1.5c0.8,0,1.5-0.7,1.5-1.5
						C-104.4-1199.5-105.1-1200.2-105.9-1200.2"/>
					<path id="패스_3216" class="st0" d="M-120.8-1209.6h-1.9c-3.4,0-6.2-2.8-6.2-6.2c0,0,0,0,0,0v-0.4c0-3.4,2.8-6.2,6.2-6.2h1.9
						L-120.8-1209.6z"/>
					<path id="패스_3217" class="st5" d="M-120.8-1208.6h-1.9c-4,0-7.3-3.3-7.3-7.3v-0.4c0-4,3.3-7.3,7.3-7.3h1.9c0.6,0,1,0.5,1,1
						v12.9C-119.8-1209-120.3-1208.6-120.8-1208.6 M-122.7-1221.4c-2.9,0-5.2,2.3-5.2,5.2v0.4c0,2.9,2.3,5.2,5.2,5.2h0.9v-10.8
						L-122.7-1221.4z"/>
					<path id="패스_3218" class="st5" d="M-126.8-1215h-2.2c-0.6,0-1-0.4-1-1c0-0.6,0.4-1,1-1c0,0,0,0,0.1,0h2.2c0.6,0,1,0.4,1,1
						C-125.7-1215.4-126.2-1215-126.8-1215C-126.7-1215-126.8-1215-126.8-1215"/>
					<path id="패스_3219" class="st5" d="M-83-1215h-2.2c-0.6,0-1-0.5-1-1c0-0.5,0.4-1,1-1h2.2c0.6,0,1,0.4,1,1
						C-81.9-1215.4-82.4-1215-83-1215C-83-1215-83-1215-83-1215"/>
					<path id="패스_3220" class="st5" d="M-112.7-1215.6c-0.7,0-1.2-0.5-1.2-1.2c0,0,0,0,0,0v-0.8c0-0.7,0.5-1.2,1.2-1.2
						c0.7,0,1.2,0.5,1.2,1.2v0.8C-111.6-1216.2-112.1-1215.6-112.7-1215.6C-112.7-1215.6-112.7-1215.6-112.7-1215.6"/>
					<path id="패스_3221" class="st5" d="M-99-1215.6c-0.7,0-1.2-0.5-1.2-1.2v-0.8c0-0.7,0.5-1.2,1.2-1.2c0.7,0,1.2,0.5,1.2,1.2
						v0.8C-97.8-1216.2-98.4-1215.6-99-1215.6"/>
					<path id="패스_3222" class="st5" d="M-106.2-1205.6c-1.8,0-3.5-0.7-4.7-1.9c-0.4-0.4-0.4-1,0-1.4c0.4-0.4,1-0.4,1.4,0l0,0
						c1.8,1.8,4.7,1.8,6.5,0c0.4-0.4,1-0.4,1.4-0.1c0.4,0.4,0.4,1,0.1,1.4c0,0,0,0.1-0.1,0.1
						C-102.8-1206.3-104.4-1205.6-106.2-1205.6"/>
					<path id="패스_3223" class="st5" d="M-116.7-1221.9c-0.6,0-1-0.5-1-1c0-0.5,0.4-1,1-1c10.2-0.3,14.3-5.7,14.3-5.8
						c0.3-0.5,1-0.5,1.4-0.2c0.2,0.1,0.3,0.3,0.4,0.6c0.6,2.2,4,4.6,5.2,5.3c0.5,0.3,0.6,0.9,0.3,1.4c-0.3,0.5-0.9,0.6-1.3,0.4
						c-0.2-0.1-3.8-2.2-5.5-5C-103.8-1225.5-108.4-1222.2-116.7-1221.9L-116.7-1221.9"/>
				</g>
			</g>
		</g>
	</g>
	<g id="그룹_8014" transform="translate(489 1509.317)">
		<g id="그룹_8007-3" transform="translate(5)">
			<g>
				<defs>
					<rect id="SVGID_00000000219870500017748120000006956634876227679624_" x="-130" y="-1237" width="110.7" height="110.8"/>
				</defs>
				<clipPath id="SVGID_00000117641754652314338780000017225268156884877234_">
					<use xlink:href="#SVGID_00000000219870500017748120000006956634876227679624_"  style="overflow:visible;"/>
				</clipPath>
				<g id="그룹_8006-3" style="clip-path:url(#SVGID_00000117641754652314338780000017225268156884877234_);">
					<path id="패스_3194-3" class="st11" d="M-74.7-1126.2c-0.4,0-0.7,0-1.1,0l0-1.3c2.6,0,5.2-0.1,7.8-0.4l0.2,1.3
						C-70-1126.4-72.3-1126.2-74.7-1126.2 M-83.7-1127c-2.6-0.4-5.2-1.1-7.8-1.9l0.4-1.3c2.5,0.8,5,1.4,7.6,1.8L-83.7-1127z
						 M-59.9-1128.2l-0.4-1.3c2.5-0.7,5-1.6,7.4-2.6l0.5,1.2C-54.8-1129.8-57.3-1129-59.9-1128.2 M-98.9-1131.8
						c-2.4-1.2-4.7-2.5-6.9-4l0.7-1.1c2.2,1.5,4.4,2.8,6.8,3.9L-98.9-1131.8z M-45.3-1134.7l-0.7-1.1c2.2-1.4,4.3-2.9,6.3-4.6l0.9,1
						C-40.9-1137.7-43-1136.1-45.3-1134.7 M-112.1-1140.8c-2-1.8-3.8-3.7-5.5-5.8l1-0.8c1.6,2,3.4,3.9,5.4,5.7L-112.1-1140.8z
						 M-33.1-1145l-1-0.9c1.7-2,3.3-4,4.7-6.2l1.1,0.7C-29.8-1149.1-31.4-1147-33.1-1145 M-122.2-1153.2c-1.4-2.3-2.6-4.7-3.6-7.1
						l1.2-0.5c1,2.4,2.2,4.7,3.5,7L-122.2-1153.2z M-24.4-1158.3l-1.2-0.6c1.1-2.4,2-4.8,2.8-7.3l1.3,0.4
						C-22.3-1163.3-23.3-1160.8-24.4-1158.3 M-128.3-1167.9c-0.7-2.6-1.1-5.2-1.4-7.9l1.3-0.1c0.3,2.6,0.7,5.2,1.4,7.7
						L-128.3-1167.9z M-19.9-1173.6l-1.3-0.2c0.4-2.6,0.6-5.2,0.6-7.8h1.3C-19.3-1179-19.5-1176.3-19.9-1173.6 M-128.7-1183.7
						l-1.3,0c0.1-2.7,0.4-5.3,0.9-7.9l1.3,0.2C-128.3-1188.9-128.6-1186.3-128.7-1183.7 M-20.7-1185.3c-0.2-2.6-0.5-5.2-1.1-7.7
						l1.3-0.3c0.6,2.6,0.9,5.3,1.1,7.9L-20.7-1185.3z M-125.9-1199l-1.2-0.4c0.9-2.5,1.9-5,3.1-7.4l1.2,0.6
						C-124-1203.9-125-1201.5-125.9-1199 M-24-1200.5c-0.9-2.4-2-4.8-3.3-7.1l1.2-0.6c1.3,2.3,2.4,4.8,3.3,7.3L-24-1200.5z
						 M-118.8-1212.9l-1.1-0.8c1.5-2.2,3.2-4.2,5.1-6.2l1,0.9C-115.6-1217-117.3-1215-118.8-1212.9 M-31.5-1214.2
						c-1.6-2.1-3.3-4-5.1-5.9l0.9-0.9c1.9,1.9,3.7,3.9,5.3,6L-31.5-1214.2z M-108-1224.2l-0.8-1c2.1-1.6,4.3-3.1,6.6-4.5l0.7,1.1
						C-103.8-1227.2-106-1225.8-108-1224.2 M-42.6-1225.1c-2.1-1.5-4.3-2.9-6.6-4.2l0.6-1.2c2.4,1.3,4.6,2.7,6.8,4.3L-42.6-1225.1z
						 M-94.5-1231.9l-0.5-1.2c2.5-1,5-1.8,7.6-2.4l0.3,1.3C-89.6-1233.7-92.1-1232.9-94.5-1231.9 M-56.3-1232.5
						c-2.5-0.9-5-1.6-7.5-2.1l0.3-1.3c2.6,0.5,5.2,1.3,7.7,2.2L-56.3-1232.5z M-79.4-1235.5l-0.1-1.3c2.7-0.2,5.3-0.3,8-0.1
						l-0.1,1.3C-74.2-1235.7-76.8-1235.7-79.4-1235.5"/>
					<path id="패스_3195-3" class="st5" d="M-29.9-1181.6c0,24.7-20.1,44.8-44.8,44.8s-44.8-20.1-44.8-44.8s20.1-44.8,44.8-44.8
						c0,0,0,0,0,0C-49.9-1226.4-29.9-1206.4-29.9-1181.6"/>
					<path id="패스_3196-3" class="st0" d="M-41.1-1181.6c0,18.5-15,33.5-33.5,33.5c-18.5,0-33.5-15-33.5-33.5
						c0-18.5,15-33.5,33.5-33.5h0C-56.2-1215.1-41.1-1200.1-41.1-1181.6"/>
				</g>
			</g>
		</g>
		<path id="사각형_5885-3" d="M-111-1155.2h82c10.5,0,19,8.5,19,19l0,0c0,10.5-8.5,19-19,19h-82c-10.5,0-19-8.5-19-19l0,0
			C-130-1146.7-121.5-1155.2-111-1155.2z"/>
		<g class="st9">
			<path class="st0" d="M-90-1140.5h-4.9v1.6h4.6v1.4h-4.6v1.6c2.5,0,4-0.1,5.7-0.4l0.2,1.4c-1.9,0.4-3.6,0.4-6.5,0.4h-1.1v-7.4h6.6
				V-1140.5z M-85.5-1129.1h-9.6v-4.3h1.7v2.9h7.9V-1129.1z M-86-1138.7h2v1.4h-2v4.8h-1.7v-10.5h1.7V-1138.7z"/>
			<path class="st0" d="M-70.5-1130.6h-12.9v-1.4h5.5v-3.3h1.7v3.3h5.7V-1130.6z M-71-1136.4l-0.8,1.4c-2.4-0.5-4.3-1.8-5.3-3.7
				c-0.9,1.8-2.9,3.2-5.2,3.7l-0.8-1.4c3-0.5,5.1-2.6,5.1-4.7v-1h1.8v1C-76.1-1139-73.9-1136.8-71-1136.4z"/>
			<path class="st0" d="M-56.7-1133.1h-5.6v4.2H-64v-4.2h-5.6v-1.4h12.9V-1133.1z M-57.9-1139.9h-4.4c0.2,1.4,2,2.9,4.8,3.2
				l-0.6,1.4c-2.3-0.3-4.1-1.3-5.1-2.7c-0.9,1.4-2.8,2.4-5.1,2.7l-0.6-1.4c2.8-0.3,4.7-1.8,4.8-3.2h-4.4v-1.4h4.4v-1.7h1.7v1.7h4.4
				V-1139.9z"/>
			<path class="st0" d="M-47.2-1136.4l-0.9,1.3c-1.6-0.5-2.7-1.6-3.3-2.9c-0.6,1.5-1.8,2.7-3.5,3.2l-0.9-1.4
				c2.2-0.7,3.5-2.6,3.5-4.5v-0.2h-2.9v-1.4h7.6v1.4h-2.9v0.2C-50.5-1138.8-49.4-1137.1-47.2-1136.4z M-43.9-1128.9h-1.7v-3.6h-7.9
				v-1.4h9.6V-1128.9z M-43.9-1134.6h-1.7v-3.5H-48v-1.4h2.4v-3.5h1.7V-1134.6z"/>
		</g>
		<g id="그룹_8019" transform="translate(42.481 34.534)">
			<g>
				<defs>
					<rect id="SVGID_00000029038131858491157480000010003177381133873323_" x="-130" y="-1237" width="39.3" height="39.3"/>
				</defs>
				<clipPath id="SVGID_00000020378170461616753790000004489470988588713118_">
					<use xlink:href="#SVGID_00000029038131858491157480000010003177381133873323_"  style="overflow:visible;"/>
				</clipPath>
				<g id="그룹_8018" style="clip-path:url(#SVGID_00000020378170461616753790000004489470988588713118_);">
					<path id="패스_3238" class="st0" d="M-114.9-1236c-7.8,0-14.2,6.3-14.2,14.2c0,7.8,6.3,14.2,14.2,14.2
						c7.8,0,14.2-6.3,14.2-14.2C-100.7-1229.7-107.1-1236-114.9-1236C-114.9-1236-114.9-1236-114.9-1236"/>
					<path id="패스_3239" class="st5" d="M-114.9-1206.8c-8.4,0-15.1-6.8-15.1-15.1c0-8.4,6.8-15.1,15.1-15.1s15.1,6.8,15.1,15.1
						l0,0C-99.8-1213.5-106.5-1206.8-114.9-1206.8 M-114.9-1235.1c-7.3,0-13.2,5.9-13.2,13.2s5.9,13.2,13.2,13.2
						c7.3,0,13.2-5.9,13.2-13.2l0,0C-101.7-1229.2-107.6-1235.1-114.9-1235.1"/>
					<path id="패스_3240" class="st5" d="M-101.1-1207.1c-0.3,0-0.5-0.1-0.7-0.3l-3.8-3.8c-0.4-0.4-0.4-1,0-1.4s1-0.4,1.4,0
						c0,0,0,0,0,0l3.8,3.8c0.4,0.4,0.4,1,0,1.4C-100.6-1207.2-100.8-1207.1-101.1-1207.1"/>
					<path id="패스_3241" class="st0" d="M-104.9-1221.9c0,5.5-4.5,10-10,10s-10-4.5-10-10c0-5.5,4.5-10,10-10
						C-109.3-1231.9-104.9-1227.4-104.9-1221.9C-104.9-1221.9-104.9-1221.9-104.9-1221.9"/>
					<path id="패스_3242" class="st5" d="M-114.9-1210.9c-6.1,0-11-4.9-11-11s4.9-11,11-11c6.1,0,11,4.9,11,11
						C-103.9-1215.8-108.8-1210.9-114.9-1210.9 M-114.9-1230.9c-5,0-9.1,4.1-9.1,9.1c0,5,4.1,9.1,9.1,9.1c5,0,9.1-4.1,9.1-9.1
						C-105.8-1226.9-109.9-1230.9-114.9-1230.9"/>
					
						<rect id="사각형_5898" x="-100.6" y="-1211" transform="matrix(0.7071 -0.7071 0.7071 0.7071 823.3167 -422.1281)" class="st0" width="5.5" height="12.1"/>
					<path id="패스_3243" class="st5" d="M-95.5-1197.7c-0.3,0-0.5-0.1-0.7-0.3l-8.6-8.6c-0.4-0.4-0.4-1,0-1.4l3.9-3.9
						c0.4-0.4,1-0.4,1.4,0l8.6,8.6c0.4,0.4,0.4,1,0,1.4c0,0,0,0,0,0l-3.9,3.9C-95-1197.8-95.3-1197.7-95.5-1197.7 M-102.8-1207.2
						l7.2,7.2l2.5-2.5l-7.2-7.2L-102.8-1207.2z"/>
				</g>
			</g>
		</g>
	</g>
	<g id="그룹_8020" transform="translate(350 196.555)">
		<g id="그룹_8007-4" transform="translate(181 1468.248)">
			<g>
				<defs>
					<rect id="SVGID_00000070797097251331193250000000990961005235483559_" x="-130" y="-1237" width="110.7" height="110.8"/>
				</defs>
				<clipPath id="SVGID_00000180344401056269521960000008727564347554328763_">
					<use xlink:href="#SVGID_00000070797097251331193250000000990961005235483559_"  style="overflow:visible;"/>
				</clipPath>
				<g id="그룹_8006-4" style="clip-path:url(#SVGID_00000180344401056269521960000008727564347554328763_);">
					<path id="패스_3194-4" class="st11" d="M-74.7-1126.2c-0.4,0-0.7,0-1.1,0l0-1.3c2.6,0,5.2-0.1,7.8-0.4l0.2,1.3
						C-70-1126.4-72.3-1126.2-74.7-1126.2 M-83.7-1127c-2.6-0.4-5.2-1.1-7.8-1.9l0.4-1.3c2.5,0.8,5,1.4,7.6,1.8L-83.7-1127z
						 M-59.9-1128.2l-0.4-1.3c2.5-0.7,5-1.6,7.4-2.6l0.5,1.2C-54.8-1129.8-57.3-1129-59.9-1128.2 M-98.9-1131.8
						c-2.4-1.2-4.7-2.5-6.9-4l0.7-1.1c2.2,1.5,4.4,2.8,6.8,3.9L-98.9-1131.8z M-45.3-1134.7l-0.7-1.1c2.2-1.4,4.3-2.9,6.3-4.6l0.9,1
						C-40.9-1137.7-43-1136.1-45.3-1134.7 M-112.1-1140.8c-2-1.8-3.8-3.7-5.5-5.8l1-0.8c1.6,2,3.4,3.9,5.4,5.7L-112.1-1140.8z
						 M-33.1-1145l-1-0.9c1.7-2,3.3-4,4.7-6.2l1.1,0.7C-29.8-1149.1-31.4-1147-33.1-1145 M-122.2-1153.2c-1.4-2.3-2.6-4.7-3.6-7.1
						l1.2-0.5c1,2.4,2.2,4.7,3.5,7L-122.2-1153.2z M-24.4-1158.3l-1.2-0.6c1.1-2.4,2-4.8,2.8-7.3l1.3,0.4
						C-22.3-1163.3-23.3-1160.8-24.4-1158.3 M-128.3-1167.9c-0.7-2.6-1.1-5.2-1.4-7.9l1.3-0.1c0.3,2.6,0.7,5.2,1.4,7.7
						L-128.3-1167.9z M-19.9-1173.6l-1.3-0.2c0.4-2.6,0.6-5.2,0.6-7.8h1.3C-19.3-1179-19.5-1176.3-19.9-1173.6 M-128.7-1183.7
						l-1.3,0c0.1-2.7,0.4-5.3,0.9-7.9l1.3,0.2C-128.3-1188.9-128.6-1186.3-128.7-1183.7 M-20.7-1185.3c-0.2-2.6-0.5-5.2-1.1-7.7
						l1.3-0.3c0.6,2.6,0.9,5.3,1.1,7.9L-20.7-1185.3z M-125.9-1199l-1.2-0.4c0.9-2.5,1.9-5,3.1-7.4l1.2,0.6
						C-124-1203.9-125-1201.5-125.9-1199 M-24-1200.5c-0.9-2.4-2-4.8-3.3-7.1l1.2-0.6c1.3,2.3,2.4,4.8,3.3,7.3L-24-1200.5z
						 M-118.8-1212.9l-1.1-0.8c1.5-2.2,3.2-4.2,5.1-6.2l1,0.9C-115.6-1217-117.3-1215-118.8-1212.9 M-31.5-1214.2
						c-1.6-2.1-3.3-4-5.1-5.9l0.9-0.9c1.9,1.9,3.7,3.9,5.3,6L-31.5-1214.2z M-108-1224.2l-0.8-1c2.1-1.6,4.3-3.1,6.6-4.5l0.7,1.1
						C-103.8-1227.2-106-1225.8-108-1224.2 M-42.6-1225.1c-2.1-1.5-4.3-2.9-6.6-4.2l0.6-1.2c2.4,1.3,4.6,2.7,6.8,4.3L-42.6-1225.1z
						 M-94.5-1231.9l-0.5-1.2c2.5-1,5-1.8,7.6-2.4l0.3,1.3C-89.6-1233.7-92.1-1232.9-94.5-1231.9 M-56.3-1232.5
						c-2.5-0.9-5-1.6-7.5-2.1l0.3-1.3c2.6,0.5,5.2,1.3,7.7,2.2L-56.3-1232.5z M-79.4-1235.5l-0.1-1.3c2.7-0.2,5.3-0.3,8-0.1
						l-0.1,1.3C-74.2-1235.7-76.8-1235.7-79.4-1235.5"/>
					<path id="패스_3195-4" class="st5" d="M-29.9-1181.6c0,24.7-20.1,44.8-44.8,44.8s-44.8-20.1-44.8-44.8s20.1-44.8,44.8-44.8
						c0,0,0,0,0,0C-49.9-1226.4-29.9-1206.4-29.9-1181.6"/>
					<path id="패스_3196-4" class="st0" d="M-41.1-1181.6c0,18.5-15,33.5-33.5,33.5c-18.5,0-33.5-15-33.5-33.5
						c0-18.5,15-33.5,33.5-33.5h0C-56.2-1215.1-41.1-1200.1-41.1-1181.6"/>
				</g>
			</g>
		</g>
		<path id="사각형_5885-4" d="M65,313h82c10.5,0,19,8.5,19,19l0,0c0,10.5-8.5,19-19,19H65c-10.5,0-19-8.5-19-19l0,0
			C46,321.5,54.5,313,65,313z"/>
		<g class="st9">
			<path class="st0" d="M82.5,328.3h-1v6.2c0.4,0,0.9-0.1,1.2-0.1l0.1,1.3c-2.2,0.4-5.1,0.4-6.9,0.4l-0.2-1.4l1.3,0v-6.3h-1v-1.4
				h6.5V328.3z M80,334.6v-6.3h-1.3v6.3L80,334.6z M85.4,338.7h-1.6v-5.2h-1.6v-1.4h1.6v-1.4h-1.6v-1.4h1.6v-3.6h1.6V338.7z
				 M88.2,339.4h-1.7v-14.1h1.7V339.4z"/>
			<path class="st0" d="M90.8,336.9l-0.9-1.4c3.7-1.8,5.4-4.1,5.7-7.4h-5v-1.4h6.8C97.4,331,95.7,334.5,90.8,336.9z M101.6,339.4
				h-1.8v-14.1h1.8V339.4z"/>
			<path class="st0" d="M105.1,339.7h-1.8l3.7-13.5h1.7L105.1,339.7z"/>
			<path class="st0" d="M113.1,335.4v-1.3c-1.6-0.2-2.6-1.2-2.6-2.6c0-1.6,1.4-2.7,3.5-2.7c2.1,0,3.5,1.1,3.5,2.7
				c0,1.3-1,2.3-2.6,2.5v1.2c1.2-0.1,2.5-0.2,3.7-0.3l0.1,1.3c-3.1,0.5-6.5,0.6-9,0.6l-0.2-1.4C110.5,335.5,111.8,335.5,113.1,335.4
				z M118.3,328.3h-8.6v-1.4h3.4v-1.6h1.7v1.6h3.4V328.3z M112.2,331.6c0,0.8,0.8,1.3,1.8,1.3c1.1,0,1.8-0.5,1.8-1.3
				c0-0.8-0.7-1.3-1.8-1.3C112.9,330.3,112.1,330.7,112.2,331.6z M121.1,339.4h-1.7v-14.1h1.7V339.4z"/>
			<path class="st0" d="M136,334.5h-5.6v4.9h-1.7v-4.9h-5.5V333H136V334.5z M135.5,330.4l-0.7,1.4c-2.4-0.4-4.3-1.5-5.2-3.1
				c-0.9,1.6-2.8,2.8-5.2,3.1l-0.7-1.4c3-0.4,5-2.2,5-4v-0.7h1.8v0.7C130.5,328.2,132.5,330,135.5,330.4z"/>
		</g>
		<g id="그룹_8026" transform="translate(211.473 1503.148)">
			<path id="패스_3244" class="st0" d="M-90.8-1222.6v17l-14.7,8.5l-14.7-8.5v-17l14.8-8.5L-90.8-1222.6z"/>
			<g id="그룹_8025">
				<g>
					<defs>
						<rect id="SVGID_00000139981588086464765210000018173316708991381167_" x="-130" y="-1237" width="49.1" height="41"/>
					</defs>
					<clipPath id="SVGID_00000013187686154300326280000013429940255315845047_">
						<use xlink:href="#SVGID_00000139981588086464765210000018173316708991381167_"  style="overflow:visible;"/>
					</clipPath>
					<g id="그룹_8024" style="clip-path:url(#SVGID_00000013187686154300326280000013429940255315845047_);">
						<path id="패스_3245" class="st5" d="M-105.6-1196.1c-0.2,0-0.4,0-0.5-0.1l-14.7-8.5c-0.3-0.2-0.5-0.5-0.5-0.9v-17
							c0-0.4,0.2-0.7,0.5-0.9l14.8-8.5c0.3-0.2,0.7-0.2,1,0l14.6,8.5c0.3,0.2,0.5,0.5,0.5,0.9v17c0,0.4-0.2,0.7-0.5,0.9l-14.7,8.5
							C-105.2-1196.1-105.4-1196.1-105.6-1196.1 M-119.3-1206.2l13.7,7.9l13.7-7.9v-15.9l-13.6-7.9l-13.8,7.9V-1206.2z"/>
						<path id="패스_3246" class="st0" d="M-120.3-1222.6l14.7,8.5l14.7-8.5"/>
						<path id="패스_3247" class="st19" d="M-105.6-1213.1c-0.2,0-0.4,0-0.5-0.1l-14.7-8.5c-0.5-0.3-0.7-0.9-0.4-1.4
							s0.9-0.7,1.4-0.4c0,0,0,0,0,0l14.2,8.2l14.2-8.2c0.5-0.3,1.1-0.1,1.4,0.3c0.3,0.5,0.1,1.1-0.3,1.4c0,0,0,0,0,0l-14.7,8.5
							C-105.2-1213.1-105.4-1213.1-105.6-1213.1"/>
						<line id="선_220" class="st3" x1="-105.5" y1="-1197.1" x2="-105.5" y2="-1214.1"/>
						<path id="패스_3248" class="st5" d="M-105.5-1196.1c-0.6,0-1-0.5-1-1c0,0,0,0,0,0v-17c0-0.6,0.5-1,1.1-1c0.5,0,1,0.5,1,1v17
							C-104.4-1196.5-104.9-1196.1-105.5-1196.1"/>
						<path id="패스_3249" class="st0" d="M-105.5-1231.1l-14.8,8.5l-8.7-4.8l14.8-8.5L-105.5-1231.1z"/>
						<path id="패스_3250" class="st5" d="M-120.3-1221.6c-0.2,0-0.3,0-0.5-0.1l-8.7-4.8c-0.5-0.3-0.7-0.9-0.4-1.4
							c0.1-0.2,0.2-0.3,0.4-0.4l14.8-8.5c0.3-0.2,0.7-0.2,1,0l8.7,4.8c0.5,0.3,0.7,0.9,0.4,1.4c-0.1,0.2-0.2,0.3-0.4,0.4l-14.8,8.5
							C-120-1221.6-120.1-1221.6-120.3-1221.6 M-126.9-1227.5l6.6,3.7l12.8-7.3l-6.6-3.7L-126.9-1227.5z"/>
						<path id="패스_3251" class="st0" d="M-105.5-1231.1l14.8,8.5l8.7-4.8l-14.8-8.5L-105.5-1231.1z"/>
						<path id="패스_3252" class="st5" d="M-90.6-1221.6c-0.2,0-0.4,0-0.5-0.1l-14.8-8.5c-0.5-0.3-0.7-0.9-0.4-1.4
							c0.1-0.2,0.2-0.3,0.4-0.4l8.7-4.8c0.3-0.2,0.7-0.2,1,0l14.8,8.5c0.5,0.3,0.7,0.9,0.4,1.4c-0.1,0.2-0.2,0.3-0.4,0.4l-8.7,4.8
							C-90.3-1221.7-90.4-1221.6-90.6-1221.6 M-103.4-1231.1l12.8,7.3l6.6-3.7l-12.8-7.3L-103.4-1231.1z"/>
						<path id="패스_3253" class="st0" d="M-128.6-1218.2l14.5,8.6l8.5-4.4l-14.5-8.5L-128.6-1218.2z"/>
						<path id="패스_3254" class="st5" d="M-114.1-1208.7c-0.2,0-0.4,0-0.5-0.1l-14.5-8.6c-0.5-0.3-0.6-0.9-0.4-1.4
							c0.1-0.2,0.2-0.3,0.4-0.4l8.5-4.4c0.3-0.2,0.7-0.2,1,0l14.5,8.5c0.5,0.3,0.7,0.9,0.4,1.4c-0.1,0.2-0.2,0.3-0.4,0.4l-8.6,4.4
							C-113.8-1208.7-114-1208.7-114.1-1208.7 M-126.5-1218.2l12.4,7.3l6.4-3.3l-12.4-7.3L-126.5-1218.2z"/>
						<path id="패스_3255" class="st0" d="M-82.6-1218.2l-14.5,8.6l-8.5-4.4l14.5-8.5L-82.6-1218.2z"/>
						<path id="패스_3256" class="st5" d="M-97-1208.7c-0.2,0-0.3,0-0.5-0.1l-8.5-4.4c-0.5-0.3-0.7-0.9-0.4-1.4
							c0.1-0.2,0.2-0.3,0.4-0.4l14.5-8.5c0.3-0.2,0.7-0.2,1,0l8.5,4.4c0.5,0.3,0.7,0.9,0.4,1.4c-0.1,0.2-0.2,0.3-0.4,0.4l-14.5,8.6
							C-96.7-1208.7-96.8-1208.7-97-1208.7 M-103.5-1214.2l6.4,3.3l12.4-7.3l-6.3-3.3L-103.5-1214.2z"/>
					</g>
				</g>
			</g>
		</g>
	</g>
	<g id="그룹_8007-5" transform="translate(5)">
		<g>
			<defs>
				<rect id="SVGID_00000002380882610680097340000001359843640459953315_" x="123.2" y="573.6" width="110.7" height="110.8"/>
			</defs>
			<clipPath id="SVGID_00000132069956118564490020000008056759992440948666_">
				<use xlink:href="#SVGID_00000002380882610680097340000001359843640459953315_"  style="overflow:visible;"/>
			</clipPath>
			<g id="그룹_8006-5" style="clip-path:url(#SVGID_00000132069956118564490020000008056759992440948666_);">
				<path id="패스_3194-5" class="st11" d="M178.5,684.3c-0.4,0-0.7,0-1.1,0l0-1.3c2.6,0,5.2-0.1,7.8-0.4l0.2,1.3
					C183.2,684.2,180.8,684.3,178.5,684.3 M169.5,683.6c-2.6-0.4-5.2-1.1-7.8-1.9l0.4-1.3c2.5,0.8,5,1.4,7.6,1.8L169.5,683.6z
					 M193.3,682.3l-0.4-1.3c2.5-0.7,5-1.6,7.4-2.6l0.5,1.2C198.4,680.7,195.9,681.6,193.3,682.3 M154.3,678.7
					c-2.4-1.2-4.7-2.5-6.9-4l0.7-1.1c2.2,1.5,4.4,2.8,6.8,3.9L154.3,678.7z M207.9,675.9l-0.7-1.1c2.2-1.4,4.3-2.9,6.3-4.6l0.9,1
					C212.3,672.9,210.2,674.5,207.9,675.9 M141.1,669.7c-2-1.8-3.8-3.7-5.5-5.8l1-0.8c1.6,2,3.4,3.9,5.4,5.7L141.1,669.7z
					 M220.1,665.6l-1-0.9c1.7-2,3.3-4,4.7-6.2l1.1,0.7C223.4,661.4,221.8,663.6,220.1,665.6 M131,657.4c-1.4-2.3-2.6-4.7-3.6-7.1
					l1.2-0.5c1,2.4,2.2,4.7,3.5,7L131,657.4z M228.8,652.2l-1.2-0.6c1.1-2.4,2-4.8,2.8-7.3l1.3,0.4
					C230.9,647.3,229.9,649.8,228.8,652.2 M124.9,642.7c-0.7-2.6-1.1-5.2-1.4-7.9l1.3-0.1c0.3,2.6,0.7,5.2,1.4,7.7L124.9,642.7z
					 M233.3,636.9l-1.3-0.2c0.4-2.6,0.6-5.2,0.6-7.8h1.3C233.9,631.6,233.7,634.3,233.3,636.9 M124.5,626.9l-1.3,0
					c0.1-2.7,0.4-5.3,0.9-7.9l1.3,0.2C124.9,621.7,124.6,624.3,124.5,626.9 M232.5,625.3c-0.2-2.6-0.5-5.2-1.1-7.7l1.3-0.3
					c0.6,2.6,0.9,5.3,1.1,7.9L232.5,625.3z M127.3,611.5l-1.2-0.4c0.9-2.5,1.9-5,3.1-7.4l1.2,0.6
					C129.2,606.7,128.2,609.1,127.3,611.5 M229.2,610c-0.9-2.4-2-4.8-3.3-7.1l1.2-0.6c1.3,2.3,2.4,4.8,3.3,7.3L229.2,610z
					 M134.4,597.7l-1.1-0.8c1.5-2.2,3.2-4.2,5.1-6.2l1,0.9C137.6,593.5,135.9,595.5,134.4,597.7 M221.7,596.4
					c-1.6-2.1-3.3-4-5.1-5.9l0.9-0.9c1.9,1.9,3.7,3.9,5.3,6L221.7,596.4z M145.2,586.4l-0.8-1c2.1-1.6,4.3-3.1,6.6-4.5l0.7,1.1
					C149.4,583.3,147.2,584.8,145.2,586.4 M210.6,585.4c-2.1-1.5-4.3-2.9-6.6-4.2l0.6-1.2c2.4,1.3,4.6,2.7,6.8,4.3L210.6,585.4z
					 M158.7,578.6l-0.5-1.2c2.5-1,5-1.8,7.6-2.4l0.3,1.3C163.6,576.9,161.1,577.7,158.7,578.6 M196.9,578.1c-2.5-0.9-5-1.6-7.5-2.1
					l0.3-1.3c2.6,0.5,5.2,1.3,7.7,2.2L196.9,578.1z M173.8,575.1l-0.1-1.3c2.7-0.2,5.3-0.3,8-0.1l-0.1,1.3
					C179,574.8,176.4,574.9,173.8,575.1"/>
				<path id="패스_3195-5" class="st5" d="M223.3,628.9c0,24.7-20.1,44.8-44.8,44.8s-44.8-20.1-44.8-44.8s20.1-44.8,44.8-44.8
					c0,0,0,0,0,0C203.3,584.1,223.3,604.2,223.3,628.9"/>
				<path id="패스_3196-5" class="st0" d="M212,628.9c0,18.5-15,33.5-33.5,33.5s-33.5-15-33.5-33.5c0-18.5,15-33.5,33.5-33.5h0
					C197,595.4,212,610.4,212,628.9"/>
			</g>
		</g>
	</g>
	<path id="사각형_5885-5" d="M142.2,655.3h82c10.5,0,19,8.5,19,19l0,0c0,10.5-8.5,19-19,19h-82c-10.5,0-19-8.5-19-19l0,0
		C123.2,663.8,131.7,655.3,142.2,655.3z"/>
	<g class="st9">
		<path class="st0" d="M146.5,674l-0.9,1.3c-1.3-0.5-2.1-1.4-2.6-2.5c-0.5,1.3-1.4,2.3-2.8,2.9l-0.9-1.3c1.9-0.9,2.8-2.6,2.9-4.2
			v-1.8h1.7v1.8C143.7,671.7,144.6,673.3,146.5,674z M151.5,679.1c0,1.6-1.9,2.6-4.8,2.6c-3,0-4.8-1-4.8-2.6s1.9-2.6,4.8-2.6
			C149.6,676.5,151.4,677.4,151.5,679.1z M143.5,679.1c0,0.8,1.2,1.3,3.1,1.3c1.9,0,3.1-0.4,3.1-1.3c0-0.8-1.2-1.3-3.1-1.3
			C144.7,677.8,143.5,678.2,143.5,679.1z M151.4,676.2h-1.7v-3.7h-1.4v3.2h-1.6v-8h1.6v3.3h1.4v-3.6h1.7V676.2z"/>
		<path class="st0" d="M161.6,674.4l-0.9,1.4c-1.6-0.5-2.7-1.6-3.3-3c-0.6,1.5-1.8,2.7-3.4,3.2l-1-1.4c2.3-0.8,3.5-2.7,3.5-4.7v-1.6
			h1.8v1.6C158.2,671.9,159.4,673.7,161.6,674.4z M164.8,681.4h-9.6v-4.5h1.8v3.1h7.8V681.4z M164.3,671.7h2v1.5h-2v4.7h-1.7v-10.4
			h1.7V671.7z"/>
		<path class="st0" d="M168.4,682h-1.8l3.7-13.5h1.7L168.4,682z"/>
		<path class="st0" d="M179.9,677.4l-1,1.3c-1.3-0.8-2.2-2.1-2.7-3.7c-0.5,1.7-1.4,3.2-2.7,4.1l-1.1-1.3c2-1.2,2.9-3.8,2.9-6.2v-0.9
			h-2.5v-1.4h6.4v1.4h-2.3v0.9C177.1,673.8,177.9,676.2,179.9,677.4z M182,681h-1.6v-7.1h-2v-1.4h2v-4.7h1.6V681z M184.9,681.7h-1.7
			v-14.1h1.7V681.7z"/>
		<path class="st0" d="M199.4,680h-12.9v-1.4h5.6v-3.2h1.7v3.2h5.6V680z M198.3,670.1h-4.5c0.1,2,2.1,3.9,5,4.3l-0.7,1.4
			c-2.4-0.4-4.3-1.7-5.2-3.5c-0.9,1.8-2.9,3.1-5.2,3.5l-0.7-1.4c2.8-0.5,4.9-2.4,5-4.4h-4.4v-1.4h10.7V670.1z"/>
		<path class="st0" d="M213.2,675.4h-12.8V674h5v-2.6h1.7v2.6h6.1V675.4z M211.7,679.1c0,1.6-2,2.6-5,2.6c-3,0-5-1-5-2.6
			c0-1.7,2-2.6,5-2.7C209.8,676.4,211.7,677.4,211.7,679.1z M211.6,669.4c0,1.1,0,2.3-0.4,3.8l-1.7-0.2c0.4-1.4,0.4-2.4,0.4-3.4h-8
			v-1.4h9.8V669.4z M203.5,679.1c0,0.8,1.2,1.3,3.2,1.3c2,0,3.3-0.5,3.3-1.3c0-0.9-1.2-1.3-3.3-1.3
			C204.7,677.7,203.4,678.2,203.5,679.1z"/>
		<path class="st0" d="M222.7,674.2l-0.9,1.4c-1.6-0.5-2.7-1.6-3.3-2.9c-0.6,1.5-1.8,2.7-3.5,3.3l-0.9-1.4c2.3-0.8,3.5-2.7,3.5-4.5
			v-0.1h-2.9v-1.4h7.6v1.4h-2.9v0.1C219.4,671.7,220.5,673.4,222.7,674.2z M226.1,679c0,1.7-1.8,2.7-4.8,2.7c-3,0-4.8-1-4.8-2.7
			c0-1.7,1.8-2.7,4.8-2.7C224.2,676.3,226.1,677.3,226.1,679z M218.2,679c0,0.9,1.1,1.3,3.1,1.3s3.1-0.5,3.1-1.3
			c0-0.9-1.1-1.4-3.1-1.4S218.2,678.1,218.2,679z M226,676h-1.7v-3.5h-2.4v-1.4h2.4v-3.5h1.7V676z"/>
	</g>
	<path id="패스_3270" class="st0" d="M172,616.4c1,0,1.7-0.8,1.7-1.7c0-1-0.8-1.7-1.7-1.7c-1,0-1.7,0.8-1.7,1.7
		C170.2,615.6,171,616.4,172,616.4"/>
	<path id="패스_3271" class="st0" d="M176.5,619.1l3.8,11.3H177l-2.3-6.6c-0.1-0.2-0.2-0.2-0.4-0.2s-0.2,0.2-0.2,0.4l0,0l2.3,6.4
		h-3.3l-3.3-10.1c2.2,0.8,4.6,0.3,6.3-1.2H176.5z M195.6,618.6v1.6h4v-1.6C198.3,619.3,196.8,619.3,195.6,618.6 M193.9,624.3h7.3
		v-3.2h-7.3V624.3z M187,640.5l-1.5-2.6H169l-1.5,2.6c-0.1,0.1-0.2,0.2-0.4,0.2h-1.2v2.8h22.7v-2.8h-1.2
		C187.3,640.7,187.1,640.6,187,640.5 M195.2,627.3l2.4,1l2.4-1v-2.1h-4.8L195.2,627.3z M183.8,612.6c-0.1,0-0.2,0-0.3-0.1l-1.5-1.5
		h-5.1c1.5,2.1,1.6,4.9,0.2,7l0.1,0.3h4.8l1.5-1.5c0.1-0.1,0.2-0.1,0.3-0.1h9.8c-0.6-1.3-0.6-2.7,0-4L183.8,612.6z"/>
	<path id="패스_3272" class="st0" d="M172,619.9c2.9,0,5.3-2.4,5.3-5.3c0-2.9-2.4-5.3-5.3-5.3c-2.9,0-5.3,2.4-5.3,5.3
		C166.7,617.5,169.1,619.9,172,619.9 M172,612.3c1.3,0,2.3,1,2.3,2.3s-1,2.3-2.3,2.3s-2.3-1-2.3-2.3l0,0
		C169.6,613.3,170.7,612.3,172,612.3 M193.9,614.6c0-2,1.6-3.6,3.6-3.6c2,0,3.6,1.6,3.6,3.6c0,2-1.6,3.6-3.6,3.6
		C195.6,618.2,194,616.6,193.9,614.6 M169.9,632.9v4h14.6v-4c0-0.9-0.7-1.6-1.6-1.6h-11.4C170.7,631.3,169.9,632,169.9,632.9
		 M180.6,632.9c0-0.2,0.1-0.3,0.3-0.3c0.2,0,0.3,0.1,0.3,0.3c0,0,0,0,0,0v2.4c0,0.2-0.1,0.3-0.3,0.3c-0.1,0-0.3-0.1-0.3-0.3V632.9z
		 M176.9,632.9c0-0.2,0.1-0.3,0.3-0.3c0.2,0,0.3,0.1,0.3,0.3v2.4c0,0.2-0.1,0.3-0.3,0.3c-0.2,0-0.3-0.1-0.3-0.3V632.9z M173.3,632.9
		c0-0.2,0.1-0.3,0.3-0.3c0.2,0,0.3,0.1,0.3,0.3v2.4c0,0.2-0.1,0.3-0.3,0.3c-0.2,0-0.3-0.1-0.3-0.3V632.9z"/>
	<path id="패스_3273" class="st21" d="M173.3,635.4v-2.4c0-0.2,0.1-0.3,0.3-0.3c0.2,0,0.3,0.1,0.3,0.3v2.4c0,0.2-0.1,0.3-0.3,0.3
		C173.4,635.7,173.3,635.5,173.3,635.4L173.3,635.4 M180.9,635.7c0.2,0,0.3-0.1,0.3-0.3c0,0,0,0,0,0v-2.4c0-0.2-0.1-0.3-0.3-0.3
		c-0.2,0-0.3,0.1-0.3,0.3c0,0,0,0,0,0v2.4C180.6,635.5,180.7,635.7,180.9,635.7C180.9,635.7,180.9,635.7,180.9,635.7 M172,616.9
		c-1.3,0-2.3-1-2.3-2.3s1-2.3,2.3-2.3c1.3,0,2.3,1,2.3,2.3C174.3,615.9,173.2,616.9,172,616.9 M172,616.4c1,0,1.7-0.8,1.7-1.7
		s-0.8-1.7-1.7-1.7c-1,0-1.7,0.8-1.7,1.7C170.2,615.6,171,616.4,172,616.4 M177.2,635.7c0.2,0,0.3-0.1,0.3-0.3l0,0v-2.4
		c0-0.2-0.1-0.3-0.3-0.3c-0.2,0-0.3,0.1-0.3,0.3v2.4C177,635.5,177.1,635.7,177.2,635.7C177.2,635.7,177.2,635.7,177.2,635.7
		 M202.1,620.7v4.1c0,0.2-0.2,0.4-0.4,0.4l0,0h-0.8v2.4c0,0.2-0.1,0.3-0.3,0.4l-2.6,1.1v1.7c0,0.2-0.2,0.4-0.4,0.4
		c-0.2,0-0.4-0.2-0.4-0.4v-1.7l-2.6-1.1c-0.2-0.1-0.3-0.2-0.3-0.4v-2.4h-0.8c-0.2,0-0.4-0.2-0.4-0.4l0,0v-4.1c0-0.2,0.2-0.4,0.4-0.4
		h1.2v-2.2c-0.2-0.2-0.4-0.4-0.6-0.6h-10.2l-1.5,1.5c-0.1,0.1-0.2,0.1-0.3,0.1h-4.7l3.8,11.3h1.7c1.4,0,2.5,1.1,2.5,2.5v4h0.4
		c0.2,0,0.3,0.1,0.4,0.2l1.5,2.6h1.4c0.2,0,0.4,0.2,0.4,0.4l0,0v3.7c0,0.2-0.2,0.4-0.4,0.4l0,0h-23.6c-0.2,0-0.4-0.2-0.4-0.4
		c0,0,0,0,0,0v-3.7c0-0.2,0.2-0.4,0.4-0.4c0,0,0,0,0,0h1.4l1.5-2.6c0.1-0.1,0.2-0.2,0.4-0.2h0.4v-4c0-1.4,1.1-2.5,2.5-2.5h0.6
		l-3.4-10.6c-2.9-1.8-3.8-5.5-2-8.4c1.8-2.9,5.5-3.8,8.4-2c0.3,0.2,0.7,0.4,0.9,0.7h6c0.1,0,0.2,0,0.3,0.1l1.5,1.5h10.2
		c1.6-1.9,4.4-2.2,6.3-0.6s2.2,4.4,0.6,6.3c-0.2,0.2-0.4,0.4-0.6,0.6v2.2h1.2C201.9,620.3,202.1,620.5,202.1,620.7
		C202.1,620.7,202.1,620.7,202.1,620.7 M172,619.9c2.9,0,5.3-2.4,5.3-5.3s-2.4-5.3-5.3-5.3s-5.3,2.4-5.3,5.3c0,0,0,0,0,0
		C166.7,617.5,169.1,619.9,172,619.9 M169,637.8l-1.5,2.6c-0.1,0.1-0.2,0.2-0.4,0.2h-1.2v2.8h22.7v-2.8h-1.2c-0.2,0-0.3-0.1-0.4-0.2
		l-1.5-2.6H169z M171.5,631.3c-0.9,0-1.6,0.7-1.6,1.6l0,0v4h14.6v-4c0-0.9-0.7-1.6-1.6-1.6l0,0L171.5,631.3z M176.5,619.1h-0.4
		c-1.7,1.6-4.1,2-6.3,1.2l3.3,10.1h3.3l-2.3-6.4c-0.1-0.2,0-0.3,0.2-0.4c0.2-0.1,0.3,0,0.4,0.2l2.3,6.6h3.3L176.5,619.1z
		 M193.1,614.6c0-0.7,0.2-1.4,0.5-2h-9.8c-0.1,0-0.2-0.1-0.3-0.1l-1.5-1.5h-5.1c1.5,2.1,1.6,4.9,0.2,7l0.1,0.3h4.8l1.5-1.5
		c0.1-0.1,0.2-0.1,0.3-0.1h9.8C193.2,616,193.1,615.3,193.1,614.6 M197.6,618.3c2,0,3.6-1.6,3.6-3.6c0-2-1.6-3.6-3.6-3.6
		c-2,0-3.6,1.6-3.6,3.6C194,616.6,195.6,618.2,197.6,618.3 M197.6,619.1c-0.7,0-1.4-0.2-2-0.5v1.6h4v-1.6
		C199,619,198.3,619.1,197.6,619.1 M200,625.2h-4.8v2.1l2.4,1l2.4-1L200,625.2z M201.2,621.2h-7.3v3.2h7.3L201.2,621.2z"/>
	<rect id="사각형_5902" x="165" y="608.5" class="st3" width="37.1" height="35.9"/>
	<g id="그룹_8007-6" transform="translate(5)">
		<g>
			<defs>
				<rect id="SVGID_00000163755366769495203950000012515898000851704238_" x="297.5" y="573.7" width="110.7" height="110.8"/>
			</defs>
			<clipPath id="SVGID_00000087374446549675573480000011176141265838580916_">
				<use xlink:href="#SVGID_00000163755366769495203950000012515898000851704238_"  style="overflow:visible;"/>
			</clipPath>
			<g id="그룹_8006-6" style="clip-path:url(#SVGID_00000087374446549675573480000011176141265838580916_);">
				<path id="패스_3194-6" class="st11" d="M352.8,684.4c-0.4,0-0.7,0-1.1,0l0-1.3c2.6,0,5.2-0.1,7.8-0.4l0.2,1.3
					C357.4,684.3,355.1,684.4,352.8,684.4 M343.8,683.7c-2.6-0.4-5.2-1.1-7.8-1.9l0.4-1.3c2.5,0.8,5,1.4,7.6,1.8L343.8,683.7z
					 M367.6,682.4l-0.4-1.3c2.5-0.7,5-1.6,7.4-2.6l0.5,1.2C372.6,680.8,370.1,681.7,367.6,682.4 M328.6,678.8
					c-2.4-1.2-4.7-2.5-6.9-4l0.7-1.1c2.2,1.5,4.4,2.8,6.8,3.9L328.6,678.8z M382.2,676l-0.7-1.1c2.2-1.4,4.3-2.9,6.3-4.6l0.9,1
					C386.6,673,384.4,674.6,382.2,676 M315.4,669.9c-2-1.8-3.8-3.7-5.5-5.8l1-0.8c1.6,2,3.4,3.9,5.4,5.7L315.4,669.9z M394.3,665.7
					l-1-0.9c1.7-2,3.3-4,4.7-6.2l1.1,0.7C397.7,661.5,396.1,663.7,394.3,665.7 M305.3,657.5c-1.4-2.3-2.6-4.7-3.6-7.1l1.2-0.5
					c1,2.4,2.2,4.7,3.5,7L305.3,657.5z M403.1,652.3l-1.2-0.6c1.1-2.4,2-4.8,2.8-7.3l1.3,0.4C405.1,647.4,404.2,649.9,403.1,652.3
					 M299.1,642.8c-0.7-2.6-1.1-5.2-1.4-7.9l1.3-0.1c0.3,2.6,0.7,5.2,1.4,7.7L299.1,642.8z M407.6,637l-1.3-0.2
					c0.4-2.6,0.6-5.2,0.6-7.8h1.3C408.2,631.7,408,634.4,407.6,637 M298.8,627l-1.3,0c0.1-2.7,0.4-5.3,0.9-7.9l1.3,0.2
					C299.2,621.8,298.9,624.4,298.8,627 M406.7,625.4c-0.2-2.6-0.5-5.2-1.1-7.7l1.3-0.3c0.6,2.6,0.9,5.3,1.1,7.9L406.7,625.4z
					 M301.6,611.6l-1.2-0.4c0.9-2.5,1.9-5,3.1-7.4l1.2,0.6C303.4,606.8,302.4,609.2,301.6,611.6 M403.5,610.1
					c-0.9-2.4-2-4.8-3.3-7.1l1.2-0.6c1.3,2.3,2.4,4.8,3.3,7.3L403.5,610.1z M308.7,597.8l-1.1-0.8c1.5-2.2,3.2-4.2,5.1-6.2l1,0.9
					C311.9,593.6,310.2,595.7,308.7,597.8 M396,596.5c-1.6-2.1-3.3-4-5.1-5.9l0.9-0.9c1.9,1.9,3.7,3.9,5.3,6L396,596.5z
					 M319.4,586.5l-0.8-1c2.1-1.6,4.3-3.1,6.6-4.5l0.7,1.1C323.6,583.4,321.5,584.9,319.4,586.5 M384.9,585.5
					c-2.1-1.5-4.3-2.9-6.6-4.2l0.6-1.2c2.4,1.3,4.6,2.7,6.8,4.3L384.9,585.5z M332.9,578.7l-0.5-1.2c2.5-1,5-1.8,7.6-2.4l0.3,1.3
					C337.8,577,335.4,577.8,332.9,578.7 M371.2,578.2c-2.5-0.9-5-1.6-7.5-2.1l0.3-1.3c2.6,0.5,5.2,1.3,7.7,2.2L371.2,578.2z
					 M348.1,575.2l-0.1-1.3c2.7-0.2,5.3-0.3,8-0.1l-0.1,1.3C353.3,574.9,350.7,575,348.1,575.2"/>
				<path id="패스_3195-6" class="st5" d="M397.6,629c0,24.7-20.1,44.8-44.8,44.8c-24.7,0-44.8-20.1-44.8-44.8
					s20.1-44.8,44.8-44.8c0,0,0,0,0,0C377.5,584.2,397.6,604.3,397.6,629"/>
				<path id="패스_3196-6" class="st0" d="M386.3,629c0,18.5-15,33.5-33.5,33.5c-18.5,0-33.5-15-33.5-33.5
					c0-18.5,15-33.5,33.5-33.5l0,0C371.3,595.5,386.3,610.5,386.3,629"/>
			</g>
		</g>
	</g>
	<path id="사각형_5885-6" d="M316.5,655.4h82c10.5,0,19,8.5,19,19l0,0c0,10.5-8.5,19-19,19h-82c-10.5,0-19-8.5-19-19l0,0
		C297.5,663.9,306,655.4,316.5,655.4z"/>
	<g class="st9">
		<path class="st0" d="M340.3,677h-3.1v4.8h-1.8V677h-3.1v4.8h-1.8V677h-3.1v-1.4h12.9V677z M338.9,671.3c0,1.9-2.1,3.1-5.1,3.1
			c-3,0-5.1-1.2-5.1-3.1c0-1.9,2-3.1,5.1-3.2C336.8,668.2,338.9,669.4,338.9,671.3z M330.5,671.3c0,1.1,1.3,1.7,3.3,1.7
			s3.3-0.6,3.3-1.7c0-1.1-1.3-1.8-3.3-1.8S330.5,670.2,330.5,671.3z"/>
		<path class="st0" d="M354.1,676.4h-12.9V675h5.6v-1h-3.9v-5.9h9.7v1.3h-8v1h7.6v1.3h-7.6v1h8.1v1.3h-4.2v1h5.6V676.4z
			 M352.5,679.5c0,1.5-1.8,2.3-4.9,2.3c-3.2,0-4.9-0.8-4.9-2.3c0-1.5,1.8-2.3,4.9-2.3C350.8,677.2,352.5,678,352.5,679.5z
			 M344.5,679.5c0,0.7,1.1,1,3.2,1c2.1,0,3.1-0.3,3.2-1c0-0.7-1.1-1-3.2-1C345.5,678.5,344.5,678.8,344.5,679.5z"/>
		<path class="st0" d="M356.5,682.1h-1.8l3.7-13.5h1.7L356.5,682.1z"/>
		<path class="st0" d="M373.7,674.8h-5.6v1.1h4v3.5h-8v1h8.4v1.3h-10.1v-3.6h8v-0.9h-8v-1.3h4v-1.1h-5.5v-1.4h12.9V674.8z
			 M372,672.5h-9.6v-4.4h9.6V672.5z M364.1,671.2h6.2v-1.7h-6.2V671.2z"/>
		<path class="st0" d="M387.5,677.4h-3.1v4.4h-1.8v-4.4h-3.2v4.4h-1.7v-4.4h-3.1V676h12.9V677.4z M386,672.1h-8.1v1.3h8.4v1.4h-10.2
			v-4h8.1v-1.2h-8.1v-1.4h9.9V672.1z"/>
	</g>
	<g id="그룹_8029" transform="translate(38.355 37.508)">
		<path id="패스_3257" class="st0" d="M327.6,601.5h-13v-26.9h25.8v26.9h-4.3"/>
		<g id="그룹_8028">
			<g>
				<defs>
					<rect id="SVGID_00000150823554606295503020000002433885777888720309_" x="297.5" y="573.7" width="44" height="33.2"/>
				</defs>
				<clipPath id="SVGID_00000181050814384004610010000016476234708285185713_">
					<use xlink:href="#SVGID_00000150823554606295503020000002433885777888720309_"  style="overflow:visible;"/>
				</clipPath>
				
					<g id="그룹_8027" transform="translate(0 0)" style="clip-path:url(#SVGID_00000181050814384004610010000016476234708285185713_);">
					<path id="패스_3258" class="st5" d="M340.5,602.5h-4.3c-0.6,0-1-0.4-1-1c0-0.6,0.4-1,1-1h3.3v-24.9h-23.8v24.9h12
						c0.6,0,1,0.4,1,1c0,0.6-0.4,1-1,1h-13c-0.6,0-1-0.4-1-1v-26.9c0-0.6,0.4-1,1-1h25.8c0.6,0,1,0.4,1,1v26.9
						C341.5,602.1,341,602.5,340.5,602.5"/>
					<path id="패스_3259" class="st0" d="M298.5,601.5v-12.7c0.2-1.6,0.8-3.2,1.8-4.5c2.2-3.3,6.3-5.2,7.6-5.2h6.7v22.4
						L298.5,601.5z"/>
					<path id="패스_3260" class="st5" d="M314.6,602.5h-16.2c-0.6,0-1-0.4-1-1v-12.7c0.2-1.8,0.9-3.6,2-5.1
						c2.3-3.4,6.6-5.6,8.5-5.6h6.7c0.6,0,1,0.4,1,1v22.4C315.6,602.1,315.2,602.6,314.6,602.5 M299.5,600.5h14.2v-20.4h-5.7
						c-0.9,0-4.7,1.6-6.8,4.7c-0.9,1.2-1.4,2.5-1.7,4V600.5z"/>
					<path id="패스_3261" class="st0" d="M301.9,589.8v-0.9c0.2-1,0.7-1.9,1.2-2.6c1.2-1.7,2.9-3,4.9-3.6h3.1v7.2H301.9z"/>
					<path id="패스_3262" class="st5" d="M311.1,590.8h-9.2c-0.6,0-1-0.4-1-1v-0.9c0,0,0-0.1,0-0.1c0.2-1.1,0.7-2.2,1.4-3.1
						c1.4-1.9,3.3-3.3,5.5-4.1c0.1,0,0.1,0,0.2,0h3.1c0.6,0,1,0.4,1,1v7.2C312.1,590.3,311.7,590.8,311.1,590.8 M303,588.8h7.2v-5.2
						h-2c-1.7,0.6-3.1,1.8-4.2,3.2C303.6,587.4,303.2,588.1,303,588.8"/>
					<path id="패스_3263" class="st0" d="M312.3,601.5c0,2.4-1.9,4.3-4.3,4.3s-4.3-1.9-4.3-4.3s1.9-4.3,4.3-4.3
						S312.3,599.2,312.3,601.5L312.3,601.5"/>
					<path id="패스_3264" class="st5" d="M308.1,606.8c-2.9,0-5.3-2.4-5.3-5.3c0-2.9,2.4-5.3,5.3-5.3s5.3,2.4,5.3,5.3
						C313.3,604.5,311,606.8,308.1,606.8 M308.1,598.3c-1.8,0-3.3,1.5-3.3,3.3c0,1.8,1.5,3.3,3.3,3.3c1.8,0,3.3-1.5,3.3-3.3
						C311.3,599.7,309.9,598.3,308.1,598.3"/>
					<path id="패스_3265" class="st5" d="M340.5,599h-19.6c-0.6,0-1-0.4-1-1c0-0.6,0.4-1,1-1h19.6c0.6,0,1,0.4,1,1
						C341.5,598.6,341,599,340.5,599"/>
					<path id="패스_3266" class="st5" d="M340.5,580.2h-6.9c-0.6,0-1-0.4-1-1c0-0.6,0.4-1,1-1h6.9c0.6,0,1,0.4,1,1
						C341.5,579.7,341,580.2,340.5,580.2"/>
					<path id="패스_3267" class="st5" d="M329.8,580.2h-1.4c-0.6,0-1-0.4-1-1c0-0.6,0.4-1,1-1h1.4c0.6,0,1,0.4,1,1
						C330.8,579.7,330.3,580.2,329.8,580.2"/>
					<path id="패스_3268" class="st0" d="M336.2,601.5c0,2.4-1.9,4.3-4.3,4.3s-4.3-1.9-4.3-4.3s1.9-4.3,4.3-4.3
						S336.2,599.2,336.2,601.5L336.2,601.5"/>
					<path id="패스_3269" class="st5" d="M331.9,606.8c-2.9,0-5.3-2.4-5.3-5.3c0-2.9,2.4-5.3,5.3-5.3s5.3,2.4,5.3,5.3
						C337.2,604.5,334.8,606.8,331.9,606.8 M331.9,598.3c-1.8,0-3.3,1.5-3.3,3.3c0,1.8,1.5,3.3,3.3,3.3c1.8,0,3.3-1.5,3.3-3.3
						C335.2,599.7,333.7,598.3,331.9,598.3"/>
				</g>
			</g>
		</g>
	</g>
	<g id="그룹_8007-7" transform="translate(181 1468.248)">
		<g>
			<defs>
				<rect id="SVGID_00000154390051716168249700000012537983719897227149_" x="-152" y="-1040.4" width="110.7" height="110.8"/>
			</defs>
			<clipPath id="SVGID_00000098198714182811005790000011191101372968817047_">
				<use xlink:href="#SVGID_00000154390051716168249700000012537983719897227149_"  style="overflow:visible;"/>
			</clipPath>
			<g id="그룹_8006-7" style="clip-path:url(#SVGID_00000098198714182811005790000011191101372968817047_);">
				<path id="패스_3194-7" class="st11" d="M-96.7-929.7c-0.4,0-0.7,0-1.1,0l0-1.3c2.6,0,5.2-0.1,7.8-0.4l0.2,1.3
					C-92-929.8-94.3-929.7-96.7-929.7 M-105.7-930.4c-2.6-0.4-5.2-1.1-7.8-1.9l0.4-1.3c2.5,0.8,5,1.4,7.6,1.8L-105.7-930.4z
					 M-81.9-931.7l-0.4-1.3c2.5-0.7,5-1.6,7.4-2.6l0.5,1.2C-76.8-933.3-79.3-932.4-81.9-931.7 M-120.9-935.3c-2.4-1.2-4.7-2.5-6.9-4
					l0.7-1.1c2.2,1.5,4.4,2.8,6.8,3.9L-120.9-935.3z M-67.3-938.1l-0.7-1.1c2.2-1.4,4.3-2.9,6.3-4.6l0.9,1
					C-62.9-941.1-65-939.5-67.3-938.1 M-134.1-944.3c-2-1.8-3.8-3.7-5.5-5.8l1-0.8c1.6,2,3.4,3.9,5.4,5.7L-134.1-944.3z
					 M-55.1-948.4l-1-0.9c1.7-2,3.3-4,4.7-6.2l1.1,0.7C-51.8-952.6-53.4-950.4-55.1-948.4 M-144.2-956.6c-1.4-2.3-2.6-4.7-3.6-7.1
					l1.2-0.5c1,2.4,2.2,4.7,3.5,7L-144.2-956.6z M-46.4-961.8l-1.2-0.6c1.1-2.4,2-4.8,2.8-7.3l1.3,0.4
					C-44.3-966.7-45.3-964.2-46.4-961.8 M-150.3-971.3c-0.7-2.6-1.1-5.2-1.4-7.9l1.3-0.1c0.3,2.6,0.7,5.2,1.4,7.7L-150.3-971.3z
					 M-41.9-977.1l-1.3-0.2c0.4-2.6,0.6-5.2,0.6-7.8h1.3C-41.3-982.4-41.5-979.7-41.9-977.1 M-150.7-987.1l-1.3,0
					c0.1-2.7,0.4-5.3,0.9-7.9l1.3,0.2C-150.3-992.3-150.6-989.7-150.7-987.1 M-42.7-988.7c-0.2-2.6-0.5-5.2-1.1-7.7l1.3-0.3
					c0.6,2.6,0.9,5.3,1.1,7.9L-42.7-988.7z M-147.9-1002.5l-1.2-0.4c0.9-2.5,1.9-5,3.1-7.4l1.2,0.6
					C-146-1007.3-147-1004.9-147.9-1002.5 M-46-1004c-0.9-2.4-2-4.8-3.3-7.1l1.2-0.6c1.3,2.3,2.4,4.8,3.3,7.3L-46-1004z
					 M-140.8-1016.3l-1.1-0.8c1.5-2.2,3.2-4.2,5.1-6.2l1,0.9C-137.6-1020.5-139.3-1018.5-140.8-1016.3 M-53.5-1017.6
					c-1.6-2.1-3.3-4-5.1-5.9l0.9-0.9c1.9,1.9,3.7,3.9,5.3,6L-53.5-1017.6z M-130-1027.6l-0.8-1c2.1-1.6,4.3-3.1,6.6-4.5l0.7,1.1
					C-125.8-1030.7-128-1029.2-130-1027.6 M-64.6-1028.6c-2.1-1.5-4.3-2.9-6.6-4.2l0.6-1.2c2.4,1.3,4.6,2.7,6.8,4.3L-64.6-1028.6z
					 M-116.5-1035.4l-0.5-1.2c2.5-1,5-1.8,7.6-2.4l0.3,1.3C-111.6-1037.1-114.1-1036.3-116.5-1035.4 M-78.3-1035.9
					c-2.5-0.9-5-1.6-7.5-2.1l0.3-1.3c2.6,0.5,5.2,1.3,7.7,2.2L-78.3-1035.9z M-101.4-1038.9l-0.1-1.3c2.7-0.2,5.3-0.3,8-0.1
					l-0.1,1.3C-96.2-1039.2-98.8-1039.1-101.4-1038.9"/>
				<path id="패스_3195-7" class="st5" d="M-51.9-985.1c0,24.7-20.1,44.8-44.8,44.8s-44.8-20.1-44.8-44.8s20.1-44.8,44.8-44.8
					c0,0,0,0,0,0C-71.9-1029.9-51.9-1009.8-51.9-985.1"/>
				<path id="패스_3196-7" class="st0" d="M-63.1-985.1c0,18.5-15,33.5-33.5,33.5s-33.5-15-33.5-33.5c0-18.5,15-33.5,33.5-33.5h0
					C-78.2-1018.6-63.1-1003.6-63.1-985.1"/>
			</g>
		</g>
	</g>
	<path id="사각형_5885-7" d="M43,509.6h82c10.5,0,19,8.5,19,19l0,0c0,10.5-8.5,19-19,19H43c-10.5,0-19-8.5-19-19l0,0
		C24,518.1,32.5,509.6,43,509.6z"/>
	<g class="st9">
		<path class="st0" d="M56,531.4l-1,1.4c-1.6-0.8-2.8-2.2-3.5-4.1c-0.6,2-1.9,3.6-3.6,4.4l-1.1-1.5c2.4-1,3.7-3.7,3.7-6.4V523h1.8
			v2.2C52.4,527.8,53.7,530.4,56,531.4z M58.8,536H57v-14.1h1.8V536z"/>
		<path class="st0" d="M68.1,531.6l-1,1.3c-1.3-0.8-2.2-2.1-2.7-3.7c-0.5,1.7-1.4,3.2-2.7,4.1l-1.1-1.3c2-1.2,2.9-3.8,2.9-6.2v-0.9
			h-2.5v-1.4h6.4v1.4h-2.3v0.9C65.2,528.1,66.1,530.5,68.1,531.6z M70.1,535.3h-1.6v-7.1h-2v-1.4h2v-4.7h1.6V535.3z M73,535.9h-1.7
			v-14.1H73V535.9z"/>
		<path class="st0" d="M87.6,529.9H82v1.4h4v4.5h-9.8v-4.5h4v-1.4h-5.6v-1.4h12.9V529.9z M86.4,523.6h-1.9v2.4h1.9v1.4H75.9v-1.4
			h1.9v-2.4h-1.9v-1.4h10.5V523.6z M77.9,534.4h6.4v-1.8h-6.4V534.4z M82.7,526.1v-2.4h-3.2v2.4H82.7z"/>
		<path class="st0" d="M90,536.3h-1.8l3.7-13.5h1.7L90,536.3z"/>
		<path class="st0" d="M103.2,531.4l-1,1.4c-1.6-0.8-2.8-2.2-3.5-4.1c-0.6,2-1.9,3.6-3.6,4.4l-1.1-1.5c2.4-1,3.7-3.7,3.7-6.4V523
			h1.8v2.2C99.6,527.8,100.9,530.4,103.2,531.4z M106,536h-1.8v-14.1h1.8V536z"/>
		<path class="st0" d="M116.4,524.5h-8.3v-1.4h3.3v-1.4h1.7v1.4h3.3V524.5z M115.6,527.6c0,1.5-1.4,2.5-3.4,2.5c-2,0-3.3-1-3.3-2.5
			c0-1.5,1.4-2.5,3.3-2.5C114.2,525.1,115.6,526.1,115.6,527.6z M119.9,535.8h-9.4V531h9.4V535.8z M110.6,527.6
			c0,0.8,0.7,1.2,1.7,1.2s1.7-0.5,1.7-1.2c0-0.8-0.7-1.2-1.7-1.2S110.6,526.9,110.6,527.6z M112.2,534.4h6v-2h-6V534.4z
			 M119.9,530.4h-1.7v-2.9h-2V526h2v-4.2h1.7V530.4z"/>
	</g>
	<path id="패스_3274" class="st0" d="M90.8,487.5l0.7-0.4c0.3-0.2,0.8-0.2,2.3,0.9c0.4-0.4,1.3-1.3,1.8-1.8
		c-0.5-0.5-0.8-1.2-1-1.9l-1.8-1.1c-2.6,3.7-7.8,4.7-11.5,2c-3.5-2.4-4.5-7.1-2.5-10.8l-1.6-1l-0.2,0.3c-0.2,0.3-0.6,0.6-2.4,0.3
		c-0.2,0.7-0.5,2-0.7,2.5c1.7,0.7,1.9,1.2,1.9,1.5v0.8c0,0.3-0.2,0.8-1.9,1.5c0.1,0.8,0.4,1.7,0.7,2.5c1.9-0.2,2.3,0.1,2.4,0.3
		l0.4,0.7c0.2,0.3,0.2,0.8-0.9,2.3c0.4,0.4,1.3,1.3,1.8,1.8c1.5-1.1,2-1.1,2.3-0.9l0.7,0.4c0.3,0.2,0.6,0.6,0.3,2.4
		c0.7,0.2,2,0.5,2.5,0.7c0.7-1.7,1.2-1.9,1.5-1.9h0.8c0.3,0,0.8,0.2,1.5,1.9c0.8-0.1,1.7-0.4,2.5-0.7
		C90.2,488.1,90.5,487.7,90.8,487.5"/>
	<path id="패스_3275" class="st0" d="M79.3,474.8c-2,3.7-0.7,8.4,3.1,10.4c3.4,1.9,7.7,0.9,9.9-2.3l-3.8-2.4
		c-1.1,1.4-3.2,1.6-4.6,0.4c-1.1-0.9-1.5-2.5-0.9-3.8L79.3,474.8z"/>
	<path id="패스_3276" class="st0" d="M75.2,471.2l-2.8-1.7c5-7.5,15.1-9.6,22.6-4.6c7.2,4.8,9.5,14.3,5.1,21.8l0,0.1l-2.8-1.7
		c0.6-1.3,1.1-2.6,1.5-3.9c0.8-4-0.3-8.1-3-11.2c-2.1-2.3-4.9-3.8-8-4.3c-3.5-0.5-7,0.5-9.8,2.6c0,0-1.9,1.9-2.3,2.3h0
		C75.7,470.5,75.5,470.9,75.2,471.2 M101.6,494.9H67.1c-0.4,0-0.8,0.4-0.8,0.8v2.5h36v-2.5C102.4,495.3,102,494.9,101.6,494.9"/>
	<path id="패스_3277" class="st0" d="M97.9,480.9c0.7-3.7-0.3-7.6-2.8-10.4c-1.9-2.2-4.6-3.6-7.4-4c-3.3-0.4-6.5,0.4-9.1,2.5
		c-0.2,0.1-1.8,1.8-2.1,2.1c-0.1,0.1-0.3,0.4-0.5,0.7l20.6,12.8C97.1,483.4,97.6,482.1,97.9,480.9"/>
	<path id="패스_3278" class="st25" d="M102,494.1v-5.9c0-0.2-0.1-0.3-0.2-0.4l-0.9-0.6l0.1-0.1c4.7-8.3,1.9-18.8-6.4-23.5
		c-7.9-4.5-17.9-2.2-23,5.4l-4.3-2.6c-0.2-0.1-0.5-0.1-0.6,0.1c-0.1,0.2-0.1,0.5,0.1,0.6c0,0,0,0,0,0l9.7,6.1l-0.2,0.3
		c0,0-0.3,0.3-2.1,0c-0.1,0-0.2,0-0.3,0.1c0,0-0.8,2.8-0.8,3.1c0,0.1,0.1,0.3,0.2,0.3c1.7,0.7,1.8,1,1.8,1v0.8c0,0-0.1,0.4-1.8,1
		c-0.1,0.1-0.2,0.2-0.2,0.3c0,0,0,0,0,0c0.1,1,0.4,2.1,0.8,3c0.1,0.1,0.2,0.2,0.3,0.2c1.8-0.2,2.1,0,2.1,0l0.4,0.7
		c0,0,0.1,0.4-1,1.8c-0.1,0.1-0.1,0.3,0,0.4c0.2,0.2,2.2,2.2,2.2,2.2c0.1,0.1,0.3,0.1,0.4,0c1.4-1.1,1.8-1,1.8-1l0.7,0.4
		c0,0,0.3,0.3,0,2.1c0,0.1,0.1,0.3,0.2,0.3c1,0.3,2.1,0.6,3.1,0.8c0.1,0,0.2-0.1,0.3-0.2c0.7-1.7,1-1.8,1-1.8h0.8c0,0,0.4,0.1,1,1.8
		c0.1,0.1,0.2,0.2,0.3,0.2c1-0.1,2.1-0.4,3.1-0.8c0.1-0.1,0.2-0.2,0.2-0.3c-0.1-0.6-0.2-1.3-0.2-2l0.9-0.5c0,0,0.4-0.1,1.8,1
		c0.1,0.1,0.3,0.1,0.4,0c0.8-0.7,1.5-1.4,2.2-2.2c0.1-0.1,0.1-0.3,0-0.4c-0.3-0.4-0.6-0.8-0.8-1.2l5.7,3.6v5.6h-34
		c-0.9,0-1.7,0.8-1.7,1.7v2.9c0,0.2,0.2,0.4,0.4,0.5h36.9c0.2,0,0.5-0.2,0.5-0.5l0,0v-2.9C103.3,494.9,102.8,494.3,102,494.1
		 M95.6,486.2c-0.5,0.6-1.4,1.4-1.8,1.8c-1.5-1.1-2-1.1-2.3-0.9l-0.7,0.4c-0.3,0.2-0.6,0.6-0.3,2.4c-0.8,0.3-1.6,0.5-2.5,0.7
		c-0.7-1.7-1.2-1.9-1.5-1.9h-0.8c-0.3,0-0.8,0.2-1.5,1.9c-0.5-0.1-1.8-0.4-2.5-0.7c0.2-1.8-0.1-2.3-0.3-2.4l-0.7-0.4
		c-0.3-0.2-0.8-0.2-2.3,0.9c-0.5-0.5-1.4-1.4-1.8-1.8c1.1-1.5,1.1-2,0.9-2.3l-0.4-0.7c-0.2-0.3-0.6-0.6-2.4-0.3
		c-0.3-0.8-0.5-1.6-0.7-2.5c1.7-0.7,1.9-1.2,1.9-1.5v-0.8c0-0.3-0.2-0.8-1.9-1.5c0.1-0.5,0.4-1.8,0.7-2.5c1.8,0.2,2.3-0.1,2.4-0.3
		l0.2-0.3l1.6,1c-2.2,4-0.7,9,3.3,11.2c3.7,2,8.3,1,10.8-2.5l1.8,1.1C94.7,485.1,95.1,485.7,95.6,486.2 M83.6,477.5l4.4,2.7
		c-1,1.1-2.6,1.2-3.7,0.2C83.4,479.7,83.2,478.5,83.6,477.5 M82.9,479.3c0.5,1.7,2.2,2.7,4,2.3c0.6-0.2,1.2-0.5,1.7-1.1l3.8,2.4
		c-2.4,3.5-7.2,4.3-10.7,1.9c-3.2-2.2-4.2-6.5-2.3-9.9l3.8,2.4C82.8,477.9,82.7,478.6,82.9,479.3 M96.6,484.5L76,471.7
		c0.2-0.3,0.4-0.6,0.5-0.7c0.3-0.3,1.9-2,2.1-2.1c2.6-2,5.9-2.9,9.1-2.5c2.9,0.4,5.5,1.8,7.4,4c2.5,2.8,3.5,6.7,2.8,10.4
		C97.6,482.1,97.1,483.3,96.6,484.5 M100.2,486.7L100.2,486.7l-2.8-1.7c0.6-1.3,1.1-2.6,1.5-3.9c0.8-4-0.3-8.1-3-11.2
		c-2.1-2.3-4.9-3.8-8-4.3c-3.5-0.5-7,0.5-9.8,2.6c0,0-1.9,1.9-2.3,2.3h0c0,0-0.3,0.4-0.5,0.7l-2.8-1.7c5-7.5,15.1-9.6,22.6-4.6
		C102.2,469.6,104.5,479.2,100.2,486.7 M102.4,498.2h-36v-2.5c0-0.4,0.4-0.8,0.8-0.8h34.4c0.4,0,0.8,0.4,0.8,0.8L102.4,498.2z"/>
	<rect id="사각형_5903" x="65.4" y="461.3" class="st3" width="37.8" height="37.8"/>
	<g id="그룹_8017" transform="translate(296 1593.88)">
		
			<rect id="사각형_5889" x="48.3" y="-1188.6" transform="matrix(0.6221 -0.7829 0.7829 0.6221 953.8868 -400.3456)" class="st26" width="27.8" height="0.6"/>
		<g id="그룹_8016" transform="translate(0 0.003)">
			<g>
				<defs>
					<rect id="SVGID_00000030474525216941364710000015393711403124331686_" x="-130" y="-1237" width="204.1" height="182.1"/>
				</defs>
				<clipPath id="SVGID_00000092424500726075353000000000985594094735004555_">
					<use xlink:href="#SVGID_00000030474525216941364710000015393711403124331686_"  style="overflow:visible;"/>
				</clipPath>
				<g id="그룹_8015" style="clip-path:url(#SVGID_00000092424500726075353000000000985594094735004555_);">
					<path id="패스_3224" class="st26" d="M74.1-1198.8c0,2-1.6,3.6-3.6,3.6s-3.6-1.6-3.6-3.6c0-2,1.6-3.6,3.6-3.6l0,0
						C72.4-1202.5,74.1-1200.8,74.1-1198.8"/>
					
						<rect id="사각형_5890" x="43.2" y="-1114.1" transform="matrix(0.9935 -0.1138 0.1138 0.9935 125.4622 -2.1961)" class="st26" width="0.6" height="27.8"/>
					<path id="패스_3225" class="st26" d="M42.6-1084.4c-1.4-1.4-1.4-3.7,0-5.1c1.4-1.4,3.7-1.4,5.1,0s1.4,3.7,0,5.1l0,0
						C46.3-1083,44-1083,42.6-1084.4"/>
					
						<rect id="사각형_5891" x="-1.5" y="-1103.9" transform="matrix(0.9841 -0.1778 0.1778 0.9841 192.3915 -17.455)" class="st26" width="0.6" height="43.9"/>
					<path id="패스_3226" class="st26" d="M0.2-1058.3c-1.4-1.4-1.4-3.7,0-5.1s3.7-1.4,5.1,0s1.4,3.7,0,5.1h0
						C3.9-1056.9,1.6-1056.9,0.2-1058.3"/>
					
						<rect id="사각형_5892" x="-48.6" y="-1100.6" transform="matrix(0.234 -0.9722 0.9722 0.234 1049.3188 -868.701)" class="st26" width="43.9" height="0.6"/>
					<path id="패스_3227" class="st26" d="M-34.9-1078.1c-0.7-1.9,0.2-4,2.1-4.7s4,0.2,4.7,2.1s-0.2,4-2.1,4.7c0,0,0,0,0,0
						C-32.1-1075.3-34.2-1076.2-34.9-1078.1"/>
					
						<rect id="사각형_5893" x="-96.2" y="-1088.1" transform="matrix(0.234 -0.9722 0.9722 0.234 1000.6553 -905.405)" class="st26" width="43.9" height="0.6"/>
					<path id="패스_3228" class="st26" d="M-82.5-1065.6c-0.7-1.9,0.2-4,2.1-4.7c1.9-0.7,4,0.2,4.7,2.1c0.7,1.9-0.2,4-2.1,4.7
						c0,0,0,0,0,0C-79.7-1062.8-81.8-1063.7-82.5-1065.6"/>
					
						<rect id="사각형_5894" x="-109" y="-1197.4" transform="matrix(0.5701 -0.8216 0.8216 0.5701 919.0543 -594.6625)" class="st26" width="0.6" height="43.9"/>
					<path id="패스_3229" class="st26" d="M-126.4-1191.2c2,0,3.6,1.6,3.6,3.6s-1.6,3.6-3.6,3.6s-3.6-1.6-3.6-3.6c0,0,0,0,0,0
						C-130-1189.6-128.4-1191.2-126.4-1191.2"/>
					
						<rect id="사각형_5895" x="-26.7" y="-1219.5" transform="matrix(0.9945 -0.1049 0.1049 0.9945 125.4725 -9.377)" class="st26" width="0.6" height="43.9"/>
					<path id="패스_3230" class="st26" d="M-26.1-1221.2c1.3,1.5,1.1,3.8-0.4,5.1c-1.5,1.3-3.8,1.1-5.1-0.4
						c-1.3-1.5-1.1-3.8,0.4-5.1c0,0,0,0,0,0C-29.7-1222.9-27.4-1222.8-26.1-1221.2"/>
					
						<rect id="사각형_5896" x="-27.7" y="-1212" transform="matrix(0.297 -0.9549 0.9549 0.297 1153.0125 -857.3646)" class="st26" width="43.9" height="0.6"/>
					<path id="패스_3231" class="st26" d="M3.9-1233.3c0.6,1.9-0.5,4-2.4,4.6c-1.9,0.6-4-0.5-4.6-2.4c-0.6-1.9,0.5-4,2.4-4.6
						c0,0,0,0,0,0C1.3-1236.3,3.3-1235.2,3.9-1233.3"/>
					<path id="패스_3232" class="st11" d="M-16.4-1194.6H-17v-3.9h0.6V-1194.6z M-16.4-1202.3H-17v-3.9h0.6V-1202.3z M-16.4-1210
						H-17v-3.9h0.6V-1210z M-16.4-1217.7H-17v-3.9h0.6V-1217.7z M-16.4-1225.4H-17v-3.9h0.6V-1225.4z M-16.4-1233.1H-17v-3.9h0.6
						V-1233.1z"/>
					<path id="패스_3233" class="st11" d="M25.4-1166.1l-0.5-0.4l0.2-0.3l0.5,0.4L25.4-1166.1z M27.9-1169.4l-0.5-0.4l2.3-3.1
						l0.5,0.4L27.9-1169.4z M32.6-1175.6L32-1176l2.3-3.1l0.5,0.4L32.6-1175.6z M37.2-1181.7l-0.5-0.4l2.3-3.1l0.5,0.4L37.2-1181.7z
						 M41.8-1187.9l-0.5-0.4l2.3-3.1l0.5,0.4L41.8-1187.9z M46.5-1194l-0.5-0.4l2.3-3.1l0.5,0.4L46.5-1194z M51.1-1200.2l-0.5-0.4
						l2.3-3.1l0.5,0.4L51.1-1200.2z M55.8-1206.3l-0.5-0.4l2.3-3.1l0.5,0.4L55.8-1206.3z M60.4-1212.5l-0.5-0.4l2.3-3.1l0.5,0.4
						L60.4-1212.5z"/>
					<path id="패스_3234" class="st11" d="M-85.1-1171l-1.9-2.2l0.5-0.4l1.9,2.2L-85.1-1171z M-89.5-1176.1l-2.5-2.9l0.5-0.4
						l2.5,2.9L-89.5-1176.1z M-94.5-1182l-2.5-2.9l0.5-0.4l2.5,2.9L-94.5-1182z M-99.6-1187.8l-2.5-2.9l0.5-0.4l2.5,2.9
						L-99.6-1187.8z M-104.6-1193.7l-2.5-2.9l0.5-0.4l2.5,2.9L-104.6-1193.7z M-109.6-1199.5l-2.5-2.9l0.5-0.4l2.5,2.9
						L-109.6-1199.5z M-114.6-1205.4l-2.5-2.9l0.5-0.4l2.5,2.9L-114.6-1205.4z"/>
					<path id="패스_3235" class="st11" d="M-96.7-1081l-0.6-0.3l1.9-3.3l0.6,0.3L-96.7-1081z M-92.9-1087.7l-0.6-0.3l1.9-3.3
						l0.6,0.3L-92.9-1087.7z M-89-1094.4l-0.6-0.3l1.9-3.3l0.6,0.3L-89-1094.4z M-85.2-1101l-0.6-0.3l1.9-3.3l0.6,0.3L-85.2-1101z
						 M-81.3-1107.7l-0.6-0.3l1.9-3.3l0.6,0.3L-81.3-1107.7z M-77.5-1114.4l-0.6-0.3l0.7-1.2l0.6,0.3L-77.5-1114.4z"/>
					<path id="패스_3236" class="st11" d="M-16.4-1054.9H-17v-3.9h0.6V-1054.9z M-16.4-1062.6H-17v-3.9h0.6V-1062.6z
						 M-16.4-1070.3H-17v-3.9h0.6V-1070.3z M-16.4-1078H-17v-3.9h0.6V-1078z M-16.4-1085.7H-17v-3.9h0.6V-1085.7z M-16.4-1093.4H-17
						v-3.9h0.6V-1093.4z"/>
					<path id="패스_3237" class="st11" d="M64.3-1086l-1.5-1.7l0.5-0.4l1.5,1.7L64.3-1086z M60.3-1090.6l-2.5-2.9l0.5-0.4l2.5,2.9
						L60.3-1090.6z M55.3-1096.4l-2.5-2.9l0.5-0.4l2.5,2.9L55.3-1096.4z M50.2-1102.3l-2.5-2.9l0.5-0.4l2.5,2.9L50.2-1102.3z
						 M45.2-1108.1l-2.5-2.9l0.5-0.4l2.5,2.9L45.2-1108.1z"/>
				</g>
			</g>
		</g>
	</g>
	<g id="그룹_8005" transform="translate(288 1628)">
		<g>
			<defs>
				<rect id="SVGID_00000130633479476183465220000012675796867687757204_" x="-130" y="-1237" width="223.3" height="109"/>
			</defs>
			<clipPath id="SVGID_00000030480870051881172150000007726698892414205839_">
				<use xlink:href="#SVGID_00000130633479476183465220000012675796867687757204_"  style="overflow:visible;"/>
			</clipPath>
			
				<g id="그룹_8004" transform="translate(0 0)" style="clip-path:url(#SVGID_00000030480870051881172150000007726698892414205839_);">
				<path id="패스_3192" class="st29" d="M51.9-1210.8c-4,0-8,0.6-11.8,1.7c-11.9-24.6-41.5-34.9-66.1-23
					c-3.5,1.7-6.7,3.8-9.7,6.2c-21.2-10.4-46.7-1.6-57.1,19.6c-1.4,2.8-2.4,5.8-3.2,8.8c-19.2,0.2-34.5,15.9-34.4,35
					c0.2,19.2,15.9,34.5,35,34.4l0,0H51.9c22.9-0.1,41.3-18.7,41.2-41.6C93-1192.3,74.6-1210.7,51.9-1210.8"/>
				<path id="패스_3193" class="st30" d="M51.8-1212.9c-4,0-7.9,0.5-11.8,1.6c-8-15.2-24.9-25.7-44.4-25.7
					c-11.2-0.1-22.2,3.5-31.2,10.3c-5.9-2.7-12.3-4-18.7-4c-20.1,0-37,12.9-41.4,30.2c-18.8,0.3-33.9,14.5-33.9,32
					c0,17.7,15.5,32,34.6,32H51.8c22.8,0,41.3-17.1,41.3-38.1S74.6-1212.9,51.8-1212.9"/>
			</g>
		</g>
	</g>
	<g class="st9">
		<path d="M229.5,447l-1.6,2.3c-2.3-0.8-3.9-2.3-4.9-4.3c-1,2.1-2.7,3.8-5.1,4.7l-1.7-2.4c3.6-1.1,5.2-4,5.2-6.9v-2.3h3v2.3
			C224.5,443.2,226,445.8,229.5,447z M234.4,457.8h-14.6v-6.9h3v4.5h11.6V457.8z M233.6,443h2.9v2.5h-2.9v6.9h-3v-15.6h3V443z"/>
		<path d="M248.8,441.5h3.6v-4.7h3v11.5h-3v-4.3h-3.5c-0.6,2.3-2.8,3.9-5.5,3.9c-3.3,0-5.7-2.1-5.7-5.1c0-2.9,2.4-5.1,5.7-5
			C246.1,437.7,248.2,439.3,248.8,441.5z M240.5,442.8c0,1.6,1.2,2.6,2.8,2.6c1.6,0,2.8-1,2.8-2.6s-1.2-2.6-2.8-2.6
			C241.7,440.2,240.5,441.2,240.5,442.8z M244.1,451.3h8.3v-2.1h3v8.7h-14.2v-8.7h3V451.3z M252.4,455.5v-1.9h-8.3v1.9H252.4z"/>
		<path d="M266.9,441.6h-5.2v9.3c2.3,0,4-0.1,6-0.5l0.2,2.4c-2.4,0.5-4.6,0.6-7.7,0.6h-1.5v-14.2h8.2V441.6z M272.1,457.2h-2.8V447
			h-3.8v-2.4h3.8v-7.4h2.8V457.2z M276.6,458.1h-2.9v-21.3h2.9V458.1z"/>
		<path d="M290.7,445.9c0,4.7-2.4,7.6-5.6,7.6c-3.3,0-5.7-2.9-5.6-7.6c0-4.6,2.4-7.6,5.6-7.6C288.4,438.3,290.7,441.3,290.7,445.9z
			 M282.4,445.9c0,3.2,1.1,4.9,2.8,4.9c1.6,0,2.7-1.7,2.7-4.9c0-3.2-1.1-4.9-2.7-4.9C283.5,441,282.4,442.7,282.4,445.9z
			 M296.7,458.2h-3v-21.4h3V458.2z"/>
		<path d="M310.5,441h-7v3.5h6.2v2.3h-6.2v4c3,0,5.3-0.1,8-0.5l0.3,2.4c-3.1,0.5-5.9,0.6-9.6,0.6h-1.7v-14.8h10V441z M317.6,458.2
			h-3v-11.4h-3.8v-2.4h3.8v-7.5h3V458.2z"/>
	</g>
	<path id="다각형_5" d="M83.9,428.8l-4.7-8.2l10,0.3L83.9,428.8z"/>
	<path id="다각형_6" d="M148.4,587.3l-9.4-1l6.2-7.9L148.4,587.3z"/>
	<path id="다각형_8" d="M302.7,629.4l-7.1,6.2l-1.6-9.9L302.7,629.4z"/>
	<path id="다각형_7" d="M427.1,547.4l0.2,9.4l-8.6-5.2L427.1,547.4z"/>
	<path id="다각형_9" d="M449.5,391.2l7.1,6.2l-9.6,2.9L449.5,391.2z"/>
	<path id="다각형_10" d="M327.9,266.7l9.2-2.1l-3.3,9.5L327.9,266.7z"/>
	<path id="다각형_11" d="M166.6,288.2l3.8-8.6l5.6,8.3L166.6,288.2z"/>
	<path id="패스_3333" class="st31" d="M174.3,283.7c13.7-8.1,28.4-14.5,43.7-18.8"/>
</g>
</svg>
