<?xml version="1.0" encoding="utf-8"?>
<!-- Generator: Adobe Illustrator 27.5.0, SVG Export Plug-In . SVG Version: 6.00 Build 0)  -->
<svg version="1.1" id="레이어_1" xmlns="http://www.w3.org/2000/svg" xmlns:xlink="http://www.w3.org/1999/xlink" x="0px"
	 y="0px" viewBox="0 0 978 727.2" style="enable-background:new 0 0 978 727.2;" xml:space="preserve">
<style type="text/css">
	.st0{fill:none;stroke:#BEBEBE;stroke-width:2;stroke-dasharray:3;}
	.st1{fill:#002660;}
	.st2{fill:#FFFFFF;}
	.st3{fill:none;stroke:#002660;}
	.st4{fill:none;stroke:#0066B3;}
	.st5{enable-background:new    ;}
	.st6{fill:url(#사각형_201_00000060006430064833616650000005840881151922604191_);}
	.st7{fill:#00BFDD;}
	.st8{fill:#0066B3;}
	.st9{fill:#004394;}
	.st10{fill:#DDDDDD;}
</style>
<line id="선_1" class="st0" x1="489.6" y1="212.5" x2="489.6" y2="662.7"/>
<line id="선_5" class="st0" x1="127.3" y1="504.7" x2="853.3" y2="504.7"/>
<line id="선_115" class="st0" x1="491.3" y1="446.6" x2="737.3" y2="446.6"/>
<line id="선_7" class="st0" x1="853" y1="505" x2="853" y2="713"/>
<line id="선_6" class="st0" x1="127" y1="505" x2="127" y2="712.5"/>
<path id="사각형_3" class="st1" d="M362.8,241h255c5.5,0,10,4.5,10,10v54l0,0h-275l0,0v-54C352.8,245.5,357.3,241,362.8,241z"/>
<g transform="matrix(1, 0, 0, 1, 577.77, 3147.75)">
	<g id="사각형_6010-2" transform="translate(352.83 303.5)">
		<path class="st2" d="M-577.8-3147.8h275l0,0v84c0,5.5-4.5,10-10,10h-255c-5.5,0-10-4.5-10-10V-3147.8L-577.8-3147.8z"/>
		<path class="st3" d="M-577.3-3147.3h274l0,0v83.5c0,5.2-4.3,9.5-9.5,9.5l0,0h-255c-5.2,0-9.5-4.3-9.5-9.5l0,0V-3147.3
			L-577.3-3147.3z"/>
	</g>
</g>
<g transform="matrix(1, 0, 0, 1, 577.77, 3147.75)">
	<g id="사각형_3065-2" transform="translate(9 621.25)">
		<path class="st2" d="M-567.8-3147.8h940c5.5,0,10,4.5,10,10v74c0,5.5-4.5,10-10,10h-940c-5.5,0-10-4.5-10-10v-74
			C-577.8-3143.3-573.3-3147.8-567.8-3147.8z"/>
		<path class="st4" d="M-567.8-3147.3h940c5.2,0,9.5,4.3,9.5,9.5v74c0,5.2-4.3,9.5-9.5,9.5h-940c-5.2,0-9.5-4.3-9.5-9.5v-74
			C-577.3-3143-573-3147.3-567.8-3147.3z"/>
	</g>
</g>
<path id="사각형_3058" class="st1" d="M703.8,404H959c5.5,0,10,4.5,10,10v64c0,5.5-4.5,10-10,10H703.8c-5.5,0-10-4.5-10-10v-64
	C693.8,408.5,698.3,404,703.8,404z"/>
<g class="st5">
	<path class="st2" d="M464.3,274.6h-6.8v3.2h-2.2v-3.2h-7.1v-1.7h16.1V274.6z M462.6,268.1c0,2.2-2.5,3.6-6.3,3.6s-6.3-1.4-6.3-3.6
		s2.5-3.6,6.3-3.6S462.6,265.9,462.6,268.1z M462.5,281.4h-12.4v-5.2h2.2v3.5h10.2V281.4z M452.2,268.1c0,1.2,1.6,1.9,4,1.9
		c2.4,0,4-0.7,4-1.9c0-1.2-1.6-1.9-4-1.9C453.8,266.2,452.2,266.9,452.2,268.1z"/>
	<path class="st2" d="M473.9,266.5h4.2v-2.4h2.2v10.4h-2.2v-2.2h-4.2c-0.8,0.9-2.1,1.4-3.5,1.4c-2.7,0-4.7-1.8-4.7-4.3
		c0-2.5,2-4.3,4.7-4.3C471.8,265.1,473.1,265.6,473.9,266.5z M467.8,269.4c0,1.4,1.1,2.4,2.6,2.4c1.5,0,2.5-1,2.6-2.4
		c0-1.5-1.1-2.4-2.6-2.4C468.9,266.9,467.8,267.9,467.8,269.4z M480.3,278.3c0,2.2-2.3,3.4-6,3.4c-3.7,0-6-1.3-6-3.4
		c0-2.2,2.3-3.4,6-3.4C478,274.8,480.3,276.1,480.3,278.3z M470.4,278.3c0,1.1,1.4,1.7,3.9,1.7c2.5,0,3.9-0.6,3.9-1.7
		c0-1.2-1.4-1.8-3.9-1.8C471.8,276.5,470.4,277.1,470.4,278.3z M475,269.4c0,0.4-0.1,0.8-0.1,1.1h3.2v-2.2h-3.2
		C475,268.6,475,269,475,269.4z"/>
	<path class="st2" d="M494.2,272.9l0.2,1.6c-1.5,0.3-3.1,0.5-4.6,0.6v6.2h-2.2v-6c-1.6,0.1-3.2,0.1-4.5,0.1l-0.3-1.8
		C486,273.5,490.4,273.4,494.2,272.9z M493.2,268.6c0,2.2-2,3.7-4.6,3.7c-2.7,0-4.6-1.5-4.6-3.7c0-2.2,1.9-3.7,4.6-3.7
		C491.2,264.8,493.2,266.4,493.2,268.6z M486.1,268.6c0,1.2,1,1.9,2.5,1.9c1.5,0,2.6-0.7,2.6-1.9c0-1.2-1.1-2-2.6-2
		C487.1,266.6,486,267.4,486.1,268.6z M497.5,281.7h-2.1v-17.6h2.1V281.7z"/>
	<path class="st2" d="M511.4,271.5l0.1,1.6c-1.5,0.2-3,0.4-4.5,0.5v3.4h-2.2v-3.3c-1.7,0.1-3.2,0.1-4.6,0.1L500,272
		C503.2,272,507.6,272,511.4,271.5z M510.1,267.9c0,1.9-1.8,3.1-4.4,3.1c-2.6,0-4.4-1.2-4.4-3.1c0-1.9,1.8-3.1,4.4-3.1
		C508.3,264.7,510.1,266,510.1,267.9z M515.3,281.4h-12.9v-5.2h2.2v3.5h10.8V281.4z M503.4,267.9c0,1,1,1.5,2.4,1.5
		c1.3,0,2.3-0.6,2.3-1.5c0-1-1-1.5-2.3-1.5C504.3,266.3,503.4,266.9,503.4,267.9z M514.9,277.5h-2.2v-1.5h-3.5v-1.5h3.5v-10.3h2.2
		V277.5z"/>
	<path class="st2" d="M522.1,276.8v-1.6c-2-0.3-3.3-1.5-3.3-3.2c0-2,1.8-3.3,4.3-3.3c2.6,0,4.4,1.3,4.4,3.3c0,1.7-1.3,2.9-3.3,3.2
		v1.6c1.6-0.1,3.1-0.2,4.6-0.4l0.2,1.6c-3.9,0.7-8.1,0.7-11.3,0.7l-0.3-1.8C518.8,276.8,520.4,276.8,522.1,276.8z M528.5,267.8
		h-10.7v-1.7h4.3v-2h2.2v2h4.3V267.8z M520.9,272c0,1,0.9,1.6,2.3,1.6c1.4,0,2.3-0.6,2.3-1.6c0-1-0.9-1.6-2.3-1.7
		C521.8,270.3,520.9,270.9,520.9,272z M532.1,281.7h-2.2v-17.7h2.2V281.7z"/>
</g>
<g class="st5">
	<path d="M431.6,340h-6.1v2.7h-1.9V340h-6.5v-1.6h14.5V340z M430,345.7h-11.2v-4.4h1.9v2.8h9.2V345.7z M420.9,332.5h6.9v-1.8h1.9
		v6.5H419v-6.5h1.9V332.5z M427.8,335.6v-1.7h-6.9v1.7H427.8z"/>
	<path d="M437.5,341.1c1.6-0.1,3.3-0.2,4.8-0.4l0.1,1.5c-3.3,0.5-6.9,0.6-9.7,0.6l-0.2-1.6c0.9,0,2,0,3.1-0.1v-4.7h1.9V341.1z
		 M441.5,333c0,1.4,0,3.4-0.4,6.2l-1.9-0.2c0.4-2.4,0.4-4.2,0.4-5.6h-6.2v-1.6h8.2V333z M445.1,336.6h2.3v1.7h-2.3v7.8h-2v-15.9h2
		V336.6z"/>
	<path d="M461.5,338.4h-2v-1.7h-3.2v1.2h-7.4v-7h2v2h3.6v-2h1.9v1.4h3.2v-2.1h2V338.4z M454.4,336.3v-2h-3.6v2H454.4z M461.5,343.1
		H453v1.2h9v1.5h-11v-4.2h8.5v-1.1H451V339h10.5V343.1z M459.6,335.2v-1.4h-3.2v1.4H459.6z"/>
	<path d="M474.5,333.6h-4v7.1c1.7,0,3.2-0.1,4.8-0.4l0.1,1.6c-1.9,0.4-3.6,0.4-5.8,0.5h-1.1v-10.3h5.9V333.6z M481.7,346.1h-1.9V338
		H478v7.3h-1.8v-14.8h1.8v5.9h1.8v-6.2h1.9V346.1z"/>
	<path d="M498.1,344.2h-14.5v-1.6h3.8v-3.3h-2.5v-1.6h2.2v-4.7h-2.3v-1.6h12.1v1.6h-2.3v4.7h2.3v1.6h-2.5v3.3h3.8V344.2z
		 M492.6,337.8v-4.7H489v4.7H492.6z M492.3,342.7v-3.3h-3v3.3H492.3z"/>
	<path d="M517.9,339.6h-6.1v2.9h-2v-2.9h-6.4V338h14.5V339.6z M516.3,333.8c0,2-2.3,3.2-5.7,3.2s-5.7-1.2-5.7-3.2s2.3-3.3,5.7-3.3
		S516.3,331.8,516.3,333.8z M516.3,345.7h-11.1V341h2v3.1h9.2V345.7z M507,333.8c0,1.1,1.4,1.7,3.6,1.7c2.2,0,3.6-0.6,3.6-1.7
		c0-1.1-1.4-1.7-3.6-1.7C508.5,332.1,507,332.7,507,333.8z"/>
	<path d="M526.5,332.3h3.8v-2.2h2v9.4h-2v-2h-3.8c-0.8,0.8-1.9,1.3-3.1,1.2c-2.4,0-4.2-1.6-4.2-3.8c0-2.2,1.8-3.8,4.2-3.8
		C524.7,331.1,525.8,331.5,526.5,332.3z M521,334.9c0,1.3,1,2.2,2.3,2.2c1.3,0,2.3-0.9,2.3-2.2c0-1.3-1-2.2-2.3-2.2
		C522,332.7,521,333.6,521,334.9z M532.3,343c0,2-2.1,3.1-5.4,3.1c-3.3,0-5.4-1.1-5.4-3.1c0-2,2.1-3.1,5.4-3.1
		C530.2,339.9,532.3,341,532.3,343z M523.4,343c0,1,1.3,1.6,3.5,1.6c2.2,0,3.5-0.6,3.5-1.6c0-1-1.3-1.6-3.5-1.6
		C524.7,341.4,523.4,341.9,523.4,343z M527.5,334.9c0,0.4-0.1,0.7-0.1,1h2.9v-2h-2.9C527.5,334.2,527.5,334.6,527.5,334.9z"/>
	<path d="M544.8,338.1l0.1,1.4c-1.4,0.3-2.8,0.4-4.2,0.5v5.5h-2v-5.4c-1.5,0.1-2.8,0.1-4,0.1l-0.2-1.6
		C537.4,338.6,541.4,338.6,544.8,338.1z M543.9,334.2c0,2-1.8,3.3-4.2,3.3c-2.4,0-4.1-1.4-4.1-3.3c0-2,1.7-3.4,4.1-3.3
		C542.1,330.9,543.9,332.2,543.9,334.2z M537.5,334.2c0,1.1,0.9,1.7,2.2,1.7c1.4,0,2.3-0.7,2.3-1.7c0-1.1-0.9-1.8-2.3-1.8
		C538.4,332.4,537.5,333.1,537.5,334.2z M547.8,346h-1.9v-15.9h1.9V346z"/>
	<path d="M560.3,336.9l0.1,1.4c-1.3,0.2-2.7,0.4-4,0.5v3.1h-2v-3c-1.5,0.1-2.9,0.1-4.1,0.1l-0.2-1.6
		C552.9,337.3,556.9,337.3,560.3,336.9z M559.2,333.6c0,1.7-1.6,2.8-4,2.8c-2.4,0-4-1.1-4-2.8c0-1.7,1.6-2.8,4-2.8
		C557.5,330.8,559.1,331.9,559.2,333.6z M563.8,345.7h-11.7v-4.7h2v3.1h9.7V345.7z M553.1,333.6c0,0.9,0.9,1.4,2.1,1.4
		c1.2,0,2.1-0.5,2.1-1.4c0-0.9-0.9-1.4-2.1-1.4C553.9,332.2,553.1,332.7,553.1,333.6z M563.4,342.2h-2v-1.4h-3.1v-1.4h3.1v-9.3h2
		V342.2z"/>
</g>
<g class="st5">
	<path d="M427.4,367h-14.5v-1.5h14.5V367z M425.5,373.1h-2v-3.3h-9.1v-1.6h11.1V373.1z M425.8,364.3h-11v-6.8h10.9v1.5h-9v1.1h8.6
		v1.5h-8.6v1.2h9.1V364.3z"/>
	<path d="M432.3,368.6v-1.5c-1.7-0.3-2.9-1.4-2.8-2.9c0-1.8,1.6-3,3.8-3c2.2,0,3.8,1.2,3.9,3c0,1.5-1.2,2.6-2.9,2.9v1.4
		c1.3-0.1,2.7-0.2,3.9-0.4l0.1,1.4c-3.4,0.6-7.1,0.7-9.8,0.7l-0.3-1.6C429.5,368.7,430.8,368.7,432.3,368.6z M438,360.5h-9.5V359
		h3.8v-1.8h2v1.8h3.7V360.5z M431.3,364.3c0,0.9,0.8,1.5,2,1.4c1.2,0,2-0.5,2-1.4c0-0.9-0.8-1.5-2-1.5
		C432.1,362.8,431.3,363.3,431.3,364.3z M441,363.7h2.2v1.6H441v7.7h-2v-15.9h2V363.7z"/>
	<path d="M453.5,364.9l-1,1.5c-1.8-0.6-3-1.8-3.7-3.3c-0.7,1.7-2,3-3.9,3.7l-1.1-1.5c2.6-0.8,3.9-3,3.9-5.2v-1.8h2v1.8
		C449.7,362.1,451,364.1,453.5,364.9z M457.2,372.7h-10.8v-5h2v3.5h8.8V372.7z M456.5,361.9h2.2v1.7h-2.2v5.3h-2v-11.7h2V361.9z"/>
	<path d="M468,360.8h2.9v-3.6h2v8.5h-2v-3.3h-2.8c-0.4,1.8-2,3-4.1,3c-2.4,0-4.2-1.6-4.2-3.8c0-2.2,1.8-3.7,4.2-3.7
		C466,357.9,467.6,359,468,360.8z M461.6,361.6c0,1.3,1,2.1,2.3,2.1c1.3,0,2.3-0.8,2.3-2.1c0-1.3-1-2.1-2.3-2.1
		C462.6,359.5,461.6,360.3,461.6,361.6z M464.3,368.1h6.6v-1.7h2v6.4h-10.5v-6.4h1.9V368.1z M470.9,371.3v-1.7h-6.6v1.7H470.9z"/>
	<path d="M480,371.5v-12.7h4.4c3.8,0,6.1,2.4,6.1,6.3c0,4-2.3,6.4-6.2,6.4H480z M484.2,369.5c2.7,0,4-1.5,4-4.4
		c0-2.9-1.4-4.4-3.9-4.4h-2v8.8H484.2z"/>
	<path d="M496.8,363.4h0.1l2.8-4.7h2.6l-3.9,6.4l4,6.4h-2.7l-2.8-4.6h-0.1l-2.8,4.6h-2.6l4-6.4l-4-6.4h2.6L496.8,363.4z"/>
	<path d="M522.1,367.7h-3.5v5.4h-2v-5.4h-3.5v5.4h-2v-5.4h-3.5v-1.6h14.5V367.7z M520.5,361.3c0,2.1-2.4,3.5-5.7,3.5
		c-3.4,0-5.7-1.4-5.7-3.5c0-2.2,2.3-3.5,5.7-3.6C518.2,357.8,520.5,359.1,520.5,361.3z M511.1,361.3c0,1.2,1.4,1.9,3.7,1.9
		s3.7-0.7,3.7-1.9c0-1.2-1.5-2-3.7-2S511.1,360,511.1,361.3z"/>
	<path d="M528,365.1c1.6-0.1,3.3-0.2,4.9-0.4l0.1,1.4c-3.3,0.6-7,0.7-9.8,0.7l-0.2-1.6c0.9,0,2,0,3.1,0V362h1.9V365.1z M532,359.3
		c0,1.1,0,2.7-0.4,4.7l-1.9-0.2c0.3-1.6,0.4-2.9,0.4-3.8h-6.2v-1.6h8.1V359.3z M536.4,372.7h-11V368h2v3.1h9V372.7z M535.8,362.1
		h2.1v1.6h-2.1v5.3h-2v-11.9h2V362.1z"/>
	<path d="M539.9,370.3l-1-1.6c4.2-2,6.1-4.7,6.4-8.3h-5.6v-1.5h7.6C547.3,363.6,545.4,367.6,539.9,370.3z M552,373.1h-2v-15.9h2
		V373.1z"/>
	<path d="M559.2,365.1c1.6-0.1,3.3-0.2,4.9-0.4l0.1,1.4c-3.3,0.6-7,0.7-9.8,0.7l-0.2-1.6c0.9,0,2,0,3.1,0V362h1.9V365.1z
		 M563.2,359.3c0,1.1,0,2.7-0.4,4.7l-1.9-0.2c0.3-1.6,0.4-2.9,0.4-3.8h-6.2v-1.6h8.1V359.3z M567.5,372.7h-11V368h2v3.1h9V372.7z
		 M567,362.1h2.1v1.6H567v5.3h-2v-11.9h2V362.1z"/>
</g>
<g class="st5">
	<path d="M113.1,667.9c1.6-0.1,3.3-0.2,4.9-0.4l0.1,1.4c-3.3,0.6-7,0.7-9.8,0.7l-0.2-1.6c0.9,0,2,0,3.1,0v-3.2h1.9V667.9z
		 M117.1,662.1c0,1.1,0,2.7-0.4,4.7l-1.9-0.2c0.3-1.6,0.4-2.9,0.4-3.8H109v-1.6h8.1V662.1z M121.4,675.5h-11v-4.7h2v3.1h9V675.5z
		 M120.9,664.9h2.1v1.6h-2.1v5.3h-2v-11.9h2V664.9z"/>
	<path d="M131.4,666h-5v2.1c2.4,0,3.9-0.1,5.7-0.4l0.2,1.6c-2.1,0.4-3.8,0.4-6.7,0.4h-1.2v-5.1h5v-1.9h-5V661h7V666z M137.5,675.5
		h-11v-4.7h2v3.1h9V675.5z M137.1,671.6h-2v-4.1h-2.8V666h2.8v-2h-2.8v-1.6h2.8v-2.5h2V671.6z"/>
	<path d="M140.5,673l-1-1.6c4.2-2,6.1-4.7,6.4-8.3h-5.6v-1.5h7.6C147.9,666.3,146.1,670.4,140.5,673z M152.6,675.8h-2v-15.9h2V675.8
		z"/>
	<path d="M163.4,663.5h2.9v-3.6h2v8.5h-2v-3.3h-2.8c-0.4,1.8-2,3-4.1,3c-2.4,0-4.2-1.6-4.2-3.8c0-2.2,1.8-3.7,4.2-3.7
		C161.4,660.6,163,661.8,163.4,663.5z M157,664.4c0,1.3,1,2.1,2.3,2.1c1.3,0,2.3-0.8,2.3-2.1c0-1.3-1-2.1-2.3-2.1
		C158,662.3,157,663.1,157,664.4z M159.7,670.9h6.6v-1.7h2v6.4h-10.5v-6.4h1.9V670.9z M166.3,674v-1.7h-6.6v1.7H166.3z"/>
</g>
<g class="st5">
	<path d="M309.6,673l-1-1.6c4.2-2,6.1-4.7,6.4-8.3h-5.6v-1.5h7.6C317,666.3,315.2,670.4,309.6,673z M321.7,675.8h-2v-15.9h2V675.8z"
		/>
	<path d="M332.5,663.5h2.9v-3.6h2v8.5h-2v-3.3h-2.8c-0.4,1.8-2,3-4.1,3c-2.4,0-4.2-1.6-4.2-3.8c0-2.2,1.8-3.7,4.2-3.7
		C330.5,660.6,332.1,661.8,332.5,663.5z M326.1,664.4c0,1.3,1,2.1,2.3,2.1c1.3,0,2.3-0.8,2.3-2.1c0-1.3-1-2.1-2.3-2.1
		C327.1,662.3,326.1,663.1,326.1,664.4z M328.8,670.9h6.6v-1.7h2v6.4h-10.5v-6.4h1.9V670.9z M335.4,674v-1.7h-6.6v1.7H335.4z"/>
	<path d="M348.5,662.9h-8.9v-1.5h3.6v-1.6h2v1.6h3.4V662.9z M347.8,666.4c0,1.7-1.6,2.9-3.7,2.9s-3.7-1.1-3.7-2.9
		c0-1.7,1.5-2.9,3.7-2.9S347.8,664.7,347.8,666.4z M342.3,666.4c0,0.9,0.7,1.4,1.8,1.4s1.9-0.6,1.9-1.4s-0.8-1.4-1.9-1.4
		S342.3,665.5,342.3,666.4z M344.3,671.3h6.7V670h1.9v5.6h-10.6V670h2V671.3z M351,674.1v-1.3h-6.7v1.3H351z M352.9,669.4h-2v-1.2
		h-2.4v-1.6h2.4V665h-2.3v-1.6h2.3v-3.5h2V669.4z"/>
	<path d="M365.5,670.4l0.2,1.4c-3.6,0.7-7.4,0.7-10.2,0.7l-0.2-1.6C358.1,670.9,362,670.9,365.5,670.4z M364.7,664.9
		c0,2.3-1.9,3.8-4.4,3.8c-2.5,0-4.4-1.6-4.4-3.8c0-2.2,1.9-3.8,4.4-3.8C362.8,661,364.6,662.6,364.7,664.9z M357.9,664.9
		c0,1.3,1,2.1,2.4,2.1c1.4,0,2.5-0.8,2.5-2.1c0-1.3-1.1-2.1-2.5-2.1C358.9,662.7,357.9,663.5,357.9,664.9z M368.4,675.8h-2v-15.9h2
		V675.8z"/>
	<path d="M378.8,670.9l-1.1,1.4c-1.5-0.8-2.5-2.2-3-3.8c-0.6,1.8-1.6,3.3-3.1,4.2l-1.1-1.5c2.2-1.3,3.3-4,3.3-6.5v-0.5H371v-1.6h2.7
		v-2.2h1.8v2.2h2.7v1.6h-2.7v0.5C375.5,667.2,376.6,669.7,378.8,670.9z M381.1,675h-1.8v-7.4h-2.1V666h2.1v-5.8h1.8V675z
		 M384.4,675.8h-1.9v-15.9h1.9V675.8z"/>
</g>
<g class="st5">
	<path d="M531.2,663.4h-4v7.1c1.7,0,3.2-0.1,4.8-0.4l0.1,1.6c-1.9,0.4-3.6,0.4-5.8,0.5h-1.1v-10.3h5.9V663.4z M538.5,675.8h-1.9
		v-8.1h-1.8v7.3H533v-14.8h1.8v5.9h1.8v-6.2h1.9V675.8z"/>
	<path d="M549.8,663h-9.4v-1.5h3.7v-1.6h2v1.6h3.7V663z M549,666.5c0,1.7-1.6,2.9-3.9,2.9s-3.9-1.2-3.9-2.9s1.6-2.9,3.9-2.9
		S549,664.8,549,666.5z M552.9,675.8h-2v-3.6h-8.6v-1.6h10.6V675.8z M543.1,666.5c0,0.9,0.8,1.4,2,1.4c1.2,0,2-0.5,2-1.4
		s-0.8-1.4-2-1.4S543.1,665.6,543.1,666.5z M552.9,664.1h2.2v1.6h-2.2v4.1h-2v-9.9h2V664.1z"/>
</g>
<g class="st5">
	<path d="M707.9,658.6h-2v-3.9h-3.8c-0.8,0.9-1.9,1.4-3.2,1.4c-2.4,0-4.2-1.7-4.2-4.1c0-2.4,1.8-4.1,4.2-4.1c1.3,0,2.4,0.5,3.1,1.4
		h3.8v-2.3h2V658.6z M696.6,652c0,1.4,1,2.3,2.3,2.3c1.3,0,2.3-0.9,2.3-2.3c0-1.4-1-2.3-2.3-2.3C697.6,649.6,696.6,650.5,696.6,652z
		 M708.3,662.5h-10.8v-5.1h2v3.5h8.9V662.5z M703.2,652c0,0.4-0.1,0.8-0.1,1.1h2.9v-2.2H703C703.1,651.2,703.2,651.6,703.2,652z"/>
	<path d="M722.8,649.3c0,1.5,0,3.1-0.4,5.4h2.2v1.6h-6.3v6.6h-2v-6.6h-6.2v-1.6h10.3c0.4-2.2,0.5-3.8,0.5-5.2h-9.1v-1.6h11V649.3z"
		/>
	<path d="M735.8,657.9l-1.1,1.5c-1.9-0.8-3.3-2.5-4-4.5c-0.7,2.2-2.1,4-4,4.9l-1.1-1.5c2.5-1.2,4.1-4.1,4.1-6.8v-1.3h-3.5v-1.6h9
		v1.6h-3.5v1.3C731.7,654,733.2,656.8,735.8,657.9z M738.9,662.8h-2v-15.9h2V662.8z"/>
	<path d="M751.4,653.6l0.1,1.4c-1.3,0.2-2.7,0.4-4,0.5v3.1h-2v-3c-1.5,0.1-2.9,0.1-4.1,0.1l-0.2-1.6
		C744.1,654.1,748,654,751.4,653.6z M750.3,650.3c0,1.7-1.6,2.8-4,2.8c-2.4,0-4-1.1-4-2.8c0-1.7,1.6-2.8,4-2.8
		C748.7,647.5,750.3,648.7,750.3,650.3z M754.9,662.5h-11.7v-4.7h2v3.1h9.7V662.5z M744.2,650.3c0,0.9,0.9,1.4,2.1,1.4
		c1.2,0,2.1-0.5,2.1-1.4c0-0.9-0.9-1.4-2.1-1.4C745.1,649,744.2,649.5,744.2,650.3z M754.6,659h-2v-1.4h-3.1v-1.4h3.1v-9.3h2V659z"
		/>
	<path d="M757.9,660l-1-1.6c4.2-2,6.1-4.7,6.4-8.3h-5.6v-1.5h7.6C765.3,653.3,763.5,657.4,757.9,660z M770.1,662.8h-2v-15.9h2V662.8
		z"/>
	<path d="M777.2,654.9c1.6-0.1,3.3-0.2,4.9-0.4l0.1,1.4c-3.3,0.6-7,0.7-9.8,0.7l-0.2-1.6c0.9,0,2,0,3.1,0v-3.2h1.9V654.9z
		 M781.2,649.1c0,1.1,0,2.7-0.4,4.7l-1.9-0.2c0.3-1.6,0.4-2.9,0.4-3.8h-6.2v-1.6h8.1V649.1z M785.5,662.5h-11v-4.7h2v3.1h9V662.5z
		 M785,651.9h2.1v1.6H785v5.3h-2v-11.9h2V651.9z"/>
	<path d="M789.5,663.2h-2l4.1-15.2h2L789.5,663.2z"/>
	<path d="M808.9,660.8h-14.5v-1.6h14.5V660.8z M808.3,654.6l-0.9,1.6c-2.7-0.6-4.8-2.2-5.9-4.3c-1.1,2.1-3.2,3.7-5.9,4.3l-0.9-1.6
		c3.3-0.6,5.7-3.1,5.7-5.5v-1.2h2.1v1.2C802.6,651.6,805,654,808.3,654.6z"/>
	<path d="M818,658.9h-7.5v-10.4h7.5V658.9z M812.4,657.3h3.7V650h-3.7V657.3z M822.4,653h2.4v1.7h-2.4v8.1h-2v-15.9h2V653z"/>
	<path d="M840,660.9h-14.5v-1.6H840V660.9z M838.4,656.8h-11.1v-8.6h11v1.6h-9v1.9h8.6v1.5h-8.6v2.1h9.2V656.8z"/>
	<path d="M850.5,654.6l-1,1.5c-1.8-0.6-3-1.8-3.7-3.3c-0.7,1.7-2,3-3.9,3.7l-1.1-1.5c2.6-0.8,3.9-3,3.9-5.2v-1.8h2v1.8
		C846.7,651.8,848,653.8,850.5,654.6z M854.2,662.5h-10.8v-5h2v3.5h8.8V662.5z M853.6,651.6h2.2v1.7h-2.2v5.3h-2v-11.7h2V651.6z"/>
	<path d="M864.4,649.8h-5.2v4.3c3,0,4.6-0.1,6.5-0.5l0.2,1.6c-2.1,0.4-3.9,0.5-7.4,0.5h-1.3v-7.5h7.1V649.8z M869.8,662.5h-10.8
		v-5.3h2v3.7h8.9V662.5z M869.1,651.4h2.2v1.6h-2.2v5.4h-2v-11.5h2V651.4z"/>
</g>
<g class="st5">
	<path d="M709.1,687.8h-14.5v-1.6h14.5V687.8z M708.5,681.6l-0.9,1.6c-2.7-0.6-4.8-2.2-5.9-4.3c-1.1,2.1-3.2,3.7-5.9,4.3l-0.9-1.6
		c3.3-0.6,5.7-3.1,5.7-5.5v-1.2h2.1v1.2C702.8,678.6,705.2,681,708.5,681.6z"/>
	<path d="M718.2,685.9h-7.5v-10.4h7.5V685.9z M712.6,684.3h3.7V677h-3.7V684.3z M722.6,680h2.4v1.7h-2.4v8.1h-2v-15.9h2V680z"/>
	<path d="M740.2,687.9h-14.5v-1.6h14.5V687.9z M738.6,683.8h-11.1v-8.6h11v1.6h-9v1.9h8.6v1.5h-8.6v2.1h9.2V683.8z"/>
	<path d="M755.7,682.7h-14.4v-1.6h5.6v-2.9h1.9v2.9h6.9V682.7z M754,686.8c0,1.8-2.2,3-5.6,3c-3.4,0-5.6-1.1-5.6-3
		c0-1.9,2.2-3,5.6-3C751.8,683.9,754,685,754,686.8z M753.9,676c0,1.2,0,2.6-0.4,4.2l-1.9-0.2c0.4-1.5,0.4-2.7,0.4-3.8h-9.1v-1.5h11
		V676z M744.7,686.8c0,0.9,1.4,1.4,3.7,1.4c2.3,0,3.7-0.5,3.7-1.4c0-1-1.4-1.5-3.7-1.5C746.1,685.3,744.7,685.9,744.7,686.8z"/>
	<path d="M766.2,681.3l-0.9,1.5c-1.8-0.6-3-1.7-3.7-3.1c-0.7,1.7-2,3-4,3.6l-1-1.5c2.6-0.8,3.9-2.9,3.9-5v-0.2h-3.4V675h8.6v1.6
		h-3.3v0.2C762.5,678.7,763.8,680.6,766.2,681.3z M769.5,686.8c0,1.9-2,3-5.3,3c-3.3,0-5.4-1.1-5.4-3c0-1.9,2.1-3,5.4-3
		C767.5,683.7,769.5,684.9,769.5,686.8z M760.7,686.8c0,1,1.2,1.5,3.4,1.5s3.4-0.5,3.4-1.5c0-1-1.2-1.5-3.4-1.5
		S760.7,685.8,760.7,686.8z M769.3,677.7h2.2v1.6h-2.2v4.1h-2v-9.5h2V677.7z"/>
	<path d="M774,690.2h-2l4.1-15.2h2L774,690.2z"/>
	<path d="M788.5,681.5l-1,1.5c-1.8-0.6-3.1-1.9-3.8-3.5c-0.7,1.7-2,3.1-3.9,3.8l-1-1.5c2.6-0.9,3.9-3.1,3.9-5.4v-1.5h2v1.5
		C784.7,678.6,786,680.7,788.5,681.5z M792.5,689.5h-11v-5.1h2v3.5h9V689.5z M792,685.5h-2v-11.6h2V685.5z"/>
	<path d="M808.8,683.1h-14.5v-1.6h3.4v-2c-1.2-0.5-1.9-1.3-1.9-2.3c0-1.9,2.2-3,5.7-3s5.7,1.1,5.7,3c0,1-0.7,1.8-1.9,2.3v2h3.4
		V683.1z M807.1,686.9c0,1.8-2.1,2.8-5.5,2.8c-3.5,0-5.5-1-5.5-2.8c0-1.8,2.1-2.8,5.5-2.8C805,684.1,807.1,685.1,807.1,686.9z
		 M797.9,677.2c0,1,1.3,1.5,3.7,1.5c2.3,0,3.7-0.5,3.7-1.5c0-1-1.4-1.5-3.7-1.5C799.2,675.7,797.9,676.2,797.9,677.2z M798,686.9
		c0,0.9,1.2,1.4,3.6,1.4c2.3,0,3.5-0.5,3.6-1.4c0-0.9-1.3-1.4-3.6-1.4C799.3,685.6,798,686,798,686.9z M803.5,681.6v-1.5
		c-0.6,0.1-1.2,0.1-1.9,0.1s-1.3,0-1.9-0.1v1.5H803.5z"/>
	<path d="M824.4,687.9h-14.5v-1.6h6.3v-3.1h-4.7V675h2v2.6h7.4V675h2v8.2h-4.7v3.1h6.3V687.9z M820.8,681.6v-2.5h-7.4v2.5H820.8z"/>
	<path d="M840,682.9h-14.5v-1.6H840V682.9z M838.7,676.3h-4.6c0.3,1.3,2.2,2.5,5.2,2.8l-0.7,1.5c-2.9-0.3-5-1.4-5.9-3.1
		c-0.9,1.6-3,2.8-5.9,3.1l-0.7-1.5c2.9-0.3,4.9-1.5,5.2-2.8h-4.6v-1.6h11.9V676.3z M838.2,686.9c0,1.9-2.1,2.9-5.5,2.9
		c-3.5,0-5.5-1.1-5.5-2.9c0-1.8,2.1-2.9,5.5-2.9C836.1,684,838.2,685,838.2,686.9z M829.2,686.9c0,0.9,1.2,1.4,3.6,1.4
		c2.3,0,3.5-0.5,3.6-1.4c0-0.9-1.3-1.4-3.6-1.4C830.4,685.5,829.1,686,829.2,686.9z"/>
	<path d="M842.2,687l-1-1.6c4.2-2,6.1-4.7,6.4-8.3h-5.6v-1.5h7.6C849.6,680.3,847.7,684.4,842.2,687z M854.3,689.8h-2v-15.9h2V689.8
		z"/>
	<path d="M869.3,675.9c0,1.2,0,2.6-0.4,4.5h2.2v1.6h-14.5v-1.6H867c0.4-1.7,0.4-3,0.4-4.2h-9v-1.6h11V675.9z M869.3,689.6h-11v-5.7
		h11V689.6z M860.2,688h7.1v-2.6h-7.1V688z"/>
</g>
<g class="st5">
	<path class="st2" d="M816,435l-0.9-1.7c4-1.2,6.4-3.4,6.8-6.1h-6.1v-1.8h8.4C824.3,430.1,821.2,433.5,816,435z M829.7,441.4h-12
		v-5.9h2.2v4.1h9.8V441.4z M829.1,429.2h2.5v1.8h-2.5v5.8h-2.2v-12.7h2.2V429.2z"/>
	<path class="st2" d="M843,436l-1.3,1.7c-1.9-1-3.3-2.8-4-5.1c-0.8,2.4-2.2,4.4-4.2,5.4l-1.3-1.7c2.8-1.3,4.5-4.7,4.5-8v-2.8h2.2
		v2.8C838.7,431.5,840.3,434.7,843,436z M846.2,431h2.7v1.9h-2.7v8.9h-2.2v-17.7h2.2V431z"/>
</g>
<g class="st5">
	<path class="st2" d="M729.2,449.3h2.3c-1.3,1.9-2.7,5.9-2.7,9.4s1.3,7.4,2.7,9.4h-2.3c-1.8-2.6-2.9-5.7-2.9-9.4
		C726.3,454.9,727.4,451.9,729.2,449.3z"/>
	<path class="st2" d="M747.5,458.4h-2.2v-2h-4.2v-1.8h4.2v-1.9h-4c-1.1,2.8-3.7,4.8-7.5,5.8l-0.9-1.7c4.1-1.1,6.3-3.2,6.7-5.8h-5.7
		v-1.8h8.1c0,0.6,0,1.2-0.2,1.8h3.6v-3h2.2V458.4z M747.6,462.1c0,2.2-2.4,3.5-6,3.5c-3.6,0-6-1.3-6-3.5s2.4-3.5,6-3.5
		C745.2,458.6,747.6,460,747.6,462.1z M737.8,462.1c0,1.2,1.4,1.8,3.8,1.8c2.3,0,3.8-0.6,3.8-1.8c0-1.2-1.5-1.8-3.8-1.8
		C739.2,460.3,737.8,461,737.8,462.1z"/>
	<path class="st2" d="M766.1,458.3h-7v1.7h5v5.7h-2.2v-4h-10.2V460h5.2v-1.7h-7v-1.7h16.1V458.3z M754.2,450.3h7.6v-1.8h2.1v6.8
		h-11.9v-6.8h2.1V450.3z M761.8,453.5v-1.6h-7.6v1.6H761.8z"/>
	<path class="st2" d="M777.8,456.6l-1.1,1.7c-2-0.7-3.3-2-4.1-3.7c-0.8,1.9-2.2,3.3-4.3,4.1L767,457c2.9-0.9,4.4-3.3,4.4-5.8v-2h2.2
		v2C773.6,453.5,775,455.7,777.8,456.6z M781.9,465.4h-12v-5.6h2.2v3.8h9.8V465.4z M781.2,453.3h2.5v1.8h-2.5v5.9H779v-13h2.2V453.3
		z"/>
	<path class="st2" d="M794,452.1h3.2v-4h2.2v9.5h-2.2v-3.7H794c-0.4,2-2.3,3.3-4.6,3.3c-2.7,0-4.7-1.7-4.7-4.2c0-2.4,2-4.2,4.7-4.1
		C791.7,448.8,793.5,450.2,794,452.1z M786.8,453c0,1.4,1.1,2.3,2.6,2.3c1.5,0,2.5-0.9,2.6-2.3c0-1.4-1.1-2.3-2.6-2.3
		C787.9,450.7,786.8,451.6,786.8,453z M789.8,460.3h7.3v-1.9h2.2v7.1h-11.6v-7.1h2.1V460.3z M797.2,463.8v-1.8h-7.3v1.8H797.2z"/>
	<path class="st2" d="M802.5,464v-14.1h4.9c4.2,0,6.8,2.7,6.8,7.1c0,4.4-2.6,7.1-6.9,7.1H802.5z M807.2,461.8c2.9,0,4.5-1.6,4.5-4.9
		c0-3.2-1.5-4.8-4.4-4.8h-2.2v9.7H807.2z"/>
	<path class="st2" d="M821.2,455.1h0.1l3.1-5.2h2.9l-4.4,7.1l4.4,7.1h-2.9l-3.2-5.2h-0.1L818,464h-2.9l4.5-7.1l-4.4-7.1h2.9
		L821.2,455.1z"/>
	<path class="st2" d="M838.3,451.4h-9.9v-1.7h3.9v-1.8h2.2v1.8h3.8V451.4z M837.6,455.3c0,1.9-1.7,3.2-4.1,3.2s-4.1-1.3-4.1-3.2
		c0-1.9,1.7-3.2,4.1-3.2S837.6,453.4,837.6,455.3z M831.4,455.3c0,1,0.8,1.6,2.1,1.6s2.1-0.6,2.1-1.6s-0.9-1.6-2.1-1.6
		S831.4,454.3,831.4,455.3z M833.6,460.7h7.4v-1.5h2.1v6.3h-11.8v-6.3h2.2V460.7z M841.1,463.8v-1.4h-7.4v1.4H841.1z M843.2,458.6
		h-2.2v-1.4h-2.6v-1.7h2.6v-1.7h-2.6V452h2.6v-3.9h2.2V458.6z"/>
	<path class="st2" d="M855.2,452.1h3.2v-4h2.2v9.5h-2.2v-3.7h-3.2c-0.4,2-2.3,3.3-4.6,3.3c-2.7,0-4.7-1.7-4.7-4.2
		c0-2.4,2-4.2,4.7-4.1C852.9,448.8,854.7,450.2,855.2,452.1z M848,453c0,1.4,1.1,2.3,2.6,2.3c1.5,0,2.5-0.9,2.6-2.3
		c0-1.4-1.1-2.3-2.6-2.3C849.1,450.7,848,451.6,848,453z M851,460.3h7.3v-1.9h2.2v7.1h-11.6v-7.1h2.1V460.3z M858.3,463.8v-1.8H851
		v1.8H858.3z"/>
	<path class="st2" d="M874.2,460.2l-1.2,1.7c-2.1-0.9-3.6-2.8-4.4-5c-0.8,2.4-2.4,4.5-4.4,5.4l-1.2-1.7c2.8-1.3,4.5-4.6,4.5-7.6
		v-1.5h-3.9v-1.8h10v1.8h-3.9v1.5C869.7,456,871.4,459,874.2,460.2z M877.7,465.7h-2.2v-17.7h2.2V465.7z"/>
	<path class="st2" d="M891.6,455.5l0.1,1.6c-1.5,0.2-3,0.4-4.5,0.5v3.4h-2.2v-3.3c-1.7,0.1-3.2,0.1-4.6,0.1l-0.3-1.7
		C883.5,456,887.9,456,891.6,455.5z M890.4,451.9c0,1.9-1.8,3.1-4.4,3.1c-2.6,0-4.4-1.2-4.4-3.1c0-1.9,1.8-3.1,4.4-3.1
		C888.6,448.7,890.4,450,890.4,451.9z M895.5,465.4h-12.9v-5.2h2.2v3.5h10.8V465.4z M883.6,451.9c0,1,1,1.5,2.4,1.5
		c1.3,0,2.3-0.6,2.3-1.5c0-1-1-1.5-2.3-1.5C884.6,450.3,883.6,450.9,883.6,451.9z M895.1,461.5h-2.2v-1.5h-3.5v-1.5h3.5v-10.3h2.2
		V461.5z"/>
	<path class="st2" d="M906.3,456.8l-1.2,1.7c-1.5-0.7-2.5-1.9-3.1-3.3c-0.6,1.6-1.7,3-3.3,3.8l-1.2-1.6c2.3-1.1,3.5-3.5,3.5-5.6
		v-2.4h2.1v2.4C903,453.7,904.1,455.8,906.3,456.8z M913.2,465.4h-12.3v-5.7h2.2v3.9h10.1V465.4z M909.1,460.8h-2.1v-6.7h-2.4v-1.8
		h2.4v-3.9h2.1V460.8z M912.7,461.3h-2.1v-13.2h2.1V461.3z"/>
	<path class="st2" d="M923.9,451.4h-6.1v3.2h5.4v1.7h-5.4v3.6c2.7,0,4.7-0.1,7-0.5l0.2,1.8c-2.6,0.4-4.8,0.5-8,0.5h-1.4v-12.1h8.3
		V451.4z M929.7,465.8h-2.1v-9.5h-3.3v-1.8h3.3v-6.4h2.1V465.8z"/>
	<path class="st2" d="M934.5,468h-2.3c1.3-2,2.7-5.9,2.7-9.4s-1.3-7.4-2.7-9.4h2.3c1.8,2.6,2.9,5.7,2.9,9.4
		C937.4,462.3,936.3,465.3,934.5,468z"/>
</g>
<linearGradient id="사각형_201_00000155112532209861848170000015361515930384068483_" gradientUnits="userSpaceOnUse" x1="190.154" y1="784.5632" x2="190.894" y2="783.8282" gradientTransform="matrix(212 0 0 -212 -39919.4023 166339.6875)">
	<stop  offset="0" style="stop-color:#00BFDD"/>
	<stop  offset="0.494" style="stop-color:#0066B3"/>
	<stop  offset="1" style="stop-color:#004394"/>
</linearGradient>
<path id="사각형_201" style="fill:url(#사각형_201_00000155112532209861848170000015361515930384068483_);" d="M487.6,0
	L487.6,0c58.5,0,106,47.5,106,106l0,0c0,58.5-47.5,106-106,106l0,0c-58.5,0-106-47.5-106-106l0,0C381.6,47.5,429.1,0,487.6,0z"/>
<g class="st5">
	<path class="st2" d="M435.7,87.8v-4c5.6-0.1,9.3-1.7,9.3-4.3v-0.4h-9.3v-3.9h14.1v3.2C449.8,85.1,443.8,87.8,435.7,87.8z
		 M458.6,93.8c0,4-4.8,5.3-10.9,5.3s-10.9-1.4-10.9-5.3c0-4,4.8-5.3,10.9-5.3S458.6,89.9,458.6,93.8z M453.5,93.8
		c0-1.1-2.6-1.6-5.8-1.6c-3.2,0-5.8,0.4-5.8,1.6c0,1.1,2.6,1.6,5.8,1.6C450.9,95.4,453.5,95,453.5,93.8z M453.7,86.5H450v-4h3.7
		v-1.6h-2.8v-4h2.8V75h4.7v13.2h-4.7V86.5z"/>
	<path class="st2" d="M476.5,90.2v1.4h8.3v7.6h-4.8v-3.9h-16.7v-3.7h8.5v-1.4h-9.7v-3.8h24.2v3.8H476.5z M484.8,85.2h-21.3V75h4.6
		v1.7h12V75h4.6V85.2z M480.2,81.7v-1.7h-12v1.7H480.2z"/>
	<path class="st2" d="M489,89.4v-4.4c3.8-0.4,6.3-4.7,6.4-9.9l4.8,0.3c0,1.8-0.3,3.7-0.9,5.3l6.8,5.1l-2.8,3.3l-5.9-4.6
		C495.3,87.3,492.4,89.3,489,89.4z M495.2,94.7h16.6v4.3h-21.4v-8.4h4.8V94.7z M514.2,79.5v4.6h-2.8v8.6h-4.7V75h4.7v4.5H514.2z"/>
	<path class="st2" d="M539.2,75v12.4h-4.7v-4h-3.6c-1,2.5-3.6,4-7.3,4c-4.6,0-7.7-2.4-7.7-6.2c0-3.7,3.1-6.2,7.7-6.2
		c3.6,0,6.2,1.5,7.2,3.9h3.7V75H539.2z M534.5,88.2h4.6v10.7h-21.1V88.2h4.6v1.6h11.8V88.2z M526.5,81.2c0-1.4-1.1-2.4-3-2.4
		c-1.8,0-3,0.9-3,2.4c0,1.4,1.1,2.4,3,2.4C525.3,83.5,526.5,82.6,526.5,81.2z M534.5,95.2v-1.7h-11.8v1.7H534.5z"/>
</g>
<g class="st5">
	<path class="st2" d="M400,107.7h8.8c7.6,0,12.2,4.7,12.2,11.4s-4.7,11.4-12.2,11.4H400V107.7z M409,126c4.4,0,7.1-2.5,7.1-6.9
		s-2.7-6.9-7.1-6.9h-3.8V126H409z"/>
	<path class="st2" d="M428.2,119l-7.3-11.3h6l4.6,7.4l4.7-7.4h5.8l-7.3,11.1l7.6,11.7h-6l-4.9-7.9l-5,7.9h-5.8L428.2,119z"/>
	<path class="st2" d="M451.6,118.6c-4.6,0-7.6-2.3-7.6-5.8c0-3.4,2.9-5.8,7.6-5.8c3.5,0,6,1.3,7.1,3.5h3.8V107h4.7v11.7h-4.7v-3.9
		h-3.6C457.8,117.2,455.2,118.6,451.6,118.6z M467.4,127.6v3.3h-21.3v-7.1h16.4v-1H446v-3.3h21.1v7.1h-16.4v1H467.4z M451.6,114.9
		c1.8,0,2.9-0.8,2.9-2.1s-1.1-2.1-2.9-2.1s-2.9,0.8-2.9,2.1S449.8,114.9,451.6,114.9z"/>
	<path class="st2" d="M481.3,125.5c2.3,0,4.7-0.4,6.2-1.1v4.2c-1.5,0.7-4,1.1-6.3,1.1h-9.5v-13.3h8.9v-4.7h-9v-4.3h13.7v13.2h-8.9
		v4.8H481.3z M496.1,120.3h-2.8v10.6h-4.7V107h4.7v8.7h2.8V120.3z"/>
	<path class="st2" d="M513.5,118.7c0,7.9-3,11.4-7.5,11.4s-7.5-3.5-7.5-11.4s3-11.4,7.5-11.4S513.5,110.8,513.5,118.7z M503.2,118.7
		c0,5.4,1.3,7.1,2.9,7.1c1.6,0,2.8-1.7,2.8-7.1c0-5.3-1.3-7.1-2.8-7.1C504.4,111.6,503.2,113.3,503.2,118.7z M520.9,130.9h-4.7V107
		h4.7V130.9z"/>
	<path class="st2" d="M532.3,121.4c-4.6,0-7.8-2.8-7.8-7.2c0-4.3,3.1-7.2,7.8-7.2c3.7,0,6.5,1.8,7.4,4.8h3.5V107h4.7v17.7h-4.7v-8.5
		h-3.4C538.9,119.4,536.1,121.4,532.3,121.4z M548.3,126.7v4.2h-21.4v-8.4h4.8v4.1H548.3z M532.3,117.4c1.8,0,3.1-1.1,3.1-3.2
		c0-2.1-1.3-3.2-3.1-3.2s-3.1,1.1-3.1,3.2C529.3,116.3,530.5,117.4,532.3,117.4z"/>
	<path class="st2" d="M551.7,125.6h24.2v4.4h-24.2V125.6z M552.1,122.3v-4.5c4.8,0,9.2-4.5,10.1-10.9l4.8,0.8
		c-0.2,1.7-0.7,3.2-1.3,4.7l10.2,6.1l-2.5,3.8l-9.8-6.3C560.8,119.9,556.7,122.2,552.1,122.3z"/>
</g>
<path id="사각형_3061" class="st7" d="M40.8,541.2h211c17.7,0,32,14.3,32,32l0,0c0,17.7-14.3,32-32,32h-211
	c-17.7,0-32-14.3-32-32l0,0C8.8,555.6,23.2,541.2,40.8,541.2z"/>
<path id="사각형_3062" class="st8" d="M384.3,541h211c17.7,0,32,14.3,32,32l0,0c0,17.7-14.3,32-32,32h-211c-17.7,0-32-14.3-32-32
	l0,0C352.3,555.3,366.7,541,384.3,541z"/>
<path id="사각형_3063" class="st9" d="M725.8,541H937c17.7,0,32,14.3,32,32l0,0c0,17.7-14.3,32-32,32H725.8
	c-17.7,0-32-14.3-32-32l0,0C693.8,555.3,708.2,541,725.8,541z"/>
<g class="st5">
	<path class="st2" d="M66.3,573.1l-1.1,1.7c-2-0.7-3.4-2-4.1-3.7c-0.8,1.9-2.3,3.3-4.3,4.1l-1.1-1.8c2.8-0.9,4.3-3.2,4.3-5.6v-0.5
		h-3.7v-1.8h9.5v1.8h-3.7v0.5C62.1,570,63.5,572.2,66.3,573.1z M70.9,581.6h-12v-5.5H61v3.8h9.9V581.6z M70.4,577.2h-2.2v-6.5h-3.1
		V569h3.1v-4.7h2.2V577.2z"/>
	<path class="st2" d="M83.7,576.5l-1.2,1.7c-2-0.9-3.5-2.8-4.3-5c-0.8,2.4-2.3,4.5-4.4,5.5l-1.3-1.7c2.8-1.3,4.5-4.6,4.5-7.6v-1.5
		h-3.8v-1.8h9.7v1.8h-3.7v1.5C79.2,572.1,80.9,575.2,83.7,576.5z M86.7,571.2h2.7v1.8h-2.7v9h-2.2v-17.7h2.2V571.2z"/>
	<path class="st2" d="M90.8,574.1c0-0.8,0.7-1.5,1.5-1.5c0.8,0,1.5,0.7,1.5,1.5c0,0.8-0.7,1.5-1.5,1.5
		C91.5,575.6,90.8,574.9,90.8,574.1z"/>
	<path class="st2" d="M98.9,580.2h-2.5v-14.1h2.5V580.2z"/>
	<path class="st2" d="M100.9,566.1h11.3v2.1h-4.4v12h-2.5v-12h-4.4V566.1z"/>
	<path class="st2" d="M134.3,574.1h-3.7v2.2c1.1,0.5,1.8,1.4,1.8,2.4c0,2.1-2.3,3.2-6.1,3.2c-3.8,0-6.2-1.2-6.2-3.2
		c0-1.1,0.7-1.9,1.9-2.5v-2.2h-3.8v-1.8h16.1V574.1z M132.6,568c0,2.1-2.5,3.3-6.4,3.3s-6.4-1.2-6.4-3.3c0-2.1,2.5-3.4,6.4-3.4
		S132.6,565.9,132.6,568z M122.1,568c0,1.1,1.5,1.7,4.1,1.7s4.1-0.6,4.1-1.7c0-1.1-1.5-1.7-4.1-1.7S122.1,566.9,122.1,568z
		 M122.3,578.8c0,1,1.4,1.5,3.9,1.5c2.5,0,3.9-0.5,3.9-1.5c0-1-1.4-1.5-3.9-1.5C123.7,577.2,122.3,577.8,122.3,578.8z M128.4,575.7
		v-1.6h-4.3v1.6c0.6-0.1,1.3-0.1,2.1-0.1C127,575.6,127.8,575.6,128.4,575.7z"/>
	<path class="st2" d="M146,567.7h-10.5V566h4.2v-1.8h2.2v1.8h4.1V567.7z M145.1,571.4c0,1.9-1.8,3.1-4.3,3.1c-2.6,0-4.3-1.2-4.3-3.1
		s1.8-3.1,4.3-3.1C143.3,568.3,145,569.5,145.1,571.4z M140.2,576.9h7.1v-1.5h2.2v6.4H138v-6.4h2.1V576.9z M138.5,571.4
		c0,1,0.9,1.5,2.2,1.5s2.2-0.5,2.2-1.5c0-0.9-0.9-1.5-2.2-1.5S138.5,570.5,138.5,571.4z M147.3,580.1v-1.5h-7.1v1.5H147.3z
		 M149.4,568.7h2.5v1.8h-2.5v4.2h-2.2v-10.3h2.2V568.7z"/>
	<path class="st2" d="M168.9,575.2h-6.8v3h-2.1v-3h-7.2v-1.7h16.1V575.2z M167.1,581.6h-12.4v-4.9h2.1v3.1h10.3V581.6z M157,566.9
		h7.6v-2h2.1v7.2h-11.9v-7.2h2.1V566.9z M164.6,570.4v-1.9H157v1.9H164.6z"/>
	<path class="st2" d="M175.5,576.4c1.8-0.1,3.6-0.2,5.3-0.4l0.1,1.6c-3.7,0.6-7.7,0.7-10.8,0.6l-0.2-1.7c1,0,2.2,0,3.4-0.1v-5.3h2.1
		V576.4z M179.9,567.4c0,1.6,0,3.8-0.5,6.8l-2.1-0.2c0.4-2.7,0.5-4.6,0.5-6.2h-6.9v-1.7h9.1V567.4z M183.9,571.5h2.6v1.8h-2.6v8.6
		h-2.2v-17.7h2.2V571.5z"/>
	<path class="st2" d="M198.8,573.1l0.2,1.6c-1.5,0.3-3.1,0.5-4.6,0.6v6.2h-2.2v-6c-1.6,0.1-3.2,0.1-4.5,0.1l-0.3-1.8
		C190.6,573.7,195,573.7,198.8,573.1z M197.7,568.8c0,2.2-2,3.7-4.6,3.7c-2.7,0-4.6-1.5-4.6-3.7c0-2.2,1.9-3.7,4.6-3.7
		C195.8,565.1,197.7,566.6,197.7,568.8z M190.6,568.8c0,1.2,1,1.9,2.5,1.9c1.5,0,2.6-0.7,2.6-1.9c0-1.2-1.1-2-2.6-2
		C191.7,566.9,190.6,567.6,190.6,568.8z M202.1,582H200v-17.6h2.1V582z"/>
	<path class="st2" d="M215.9,571.8l0.1,1.6c-1.5,0.2-3,0.4-4.5,0.5v3.4h-2.2v-3.3c-1.7,0.1-3.2,0.1-4.6,0.1l-0.3-1.7
		C207.8,572.3,212.2,572.2,215.9,571.8z M214.7,568.1c0,1.9-1.8,3.1-4.4,3.1c-2.6,0-4.4-1.2-4.4-3.1c0-1.9,1.8-3.1,4.4-3.1
		C212.9,565,214.7,566.3,214.7,568.1z M219.9,581.6h-12.9v-5.2h2.2v3.5h10.8V581.6z M208,568.1c0,1,1,1.5,2.4,1.5
		c1.3,0,2.3-0.6,2.3-1.5c0-1-1-1.5-2.3-1.5C208.9,566.6,208,567.2,208,568.1z M219.4,577.7h-2.2v-1.5h-3.5v-1.5h3.5v-10.3h2.2V577.7
		z"/>
	<path class="st2" d="M226.7,577v-1.6c-2-0.3-3.3-1.5-3.3-3.2c0-2,1.8-3.3,4.3-3.3c2.6,0,4.4,1.3,4.4,3.3c0,1.7-1.3,2.9-3.3,3.2v1.6
		c1.6-0.1,3.1-0.2,4.6-0.4l0.2,1.6c-3.9,0.7-8.1,0.7-11.3,0.7l-0.3-1.8C223.4,577.1,225,577.1,226.7,577z M233.1,568.1h-10.7v-1.7
		h4.3v-2h2.2v2h4.3V568.1z M225.5,572.2c0,1,0.9,1.6,2.3,1.6c1.4,0,2.3-0.6,2.3-1.6c0-1-0.9-1.6-2.3-1.7
		C226.4,570.6,225.4,571.2,225.5,572.2z M236.6,582h-2.2v-17.7h2.2V582z"/>
</g>
<g class="st5">
	<path class="st2" d="M421.4,572.4l-1,1.7c-2.1-0.6-3.5-1.7-4.3-3.3c-0.8,1.7-2.3,3-4.4,3.6l-1-1.7c2.8-0.8,4.3-2.8,4.3-4.8v-0.2
		h-3.7V566h3.7v-2h2.2v2h3.7v1.7h-3.7v0.2C417.1,569.8,418.6,571.6,421.4,572.4z M425.5,581.5h-11.7v-6.2h11.7V581.5z M416,579.8
		h7.4V577H416V579.8z M425.5,574.5h-2.2v-3.9h-3v-1.8h3v-4.7h2.2V574.5z"/>
	<path class="st2" d="M436.7,567.3h-5.8v4.8c3.3,0,5.2-0.1,7.3-0.5l0.2,1.8c-2.3,0.4-4.4,0.6-8.2,0.6h-1.4v-8.3h7.9V567.3z
		 M442.7,581.4h-12v-5.9h2.2v4.1h9.8V581.4z M442,569h2.5v1.8H442v6h-2.2v-12.8h2.2V569z"/>
	<path class="st2" d="M461.5,579.6h-16.1v-1.8h6.9v-4.1h2.1v4.1h7.1V579.6z M460.8,572.3l-0.9,1.8c-3-0.6-5.4-2.3-6.6-4.6
		c-1.2,2.3-3.6,4-6.6,4.6l-0.9-1.8c3.7-0.6,6.3-3.2,6.3-5.9v-1.3h2.3v1.3C454.5,569.1,457.1,571.8,460.8,572.3z"/>
	<path class="st2" d="M471.8,576l-1.3,1.7c-1.7-0.9-2.8-2.5-3.4-4.4c-0.6,2.2-1.7,4-3.5,5l-1.3-1.7c2.6-1.5,3.7-4.6,3.7-8v-0.8h-3.1
		V566h8.1v1.7h-2.9v0.8C468.1,571.7,469.2,574.6,471.8,576z M477.9,581.7h-2.1v-8.9H474v8.1H472v-16.5h2.1v6.6h1.8v-6.9h2.1V581.7z"
		/>
	<path class="st2" d="M500.8,575h-6.8v3h-2.1v-3h-7.2v-1.7h16.1V575z M499,581.4h-12.4v-4.9h2.1v3.1H499V581.4z M488.9,566.6h7.6v-2
		h2.1v7.2h-11.9v-7.2h2.1V566.6z M496.5,570.1v-1.9h-7.6v1.9H496.5z"/>
	<path class="st2" d="M507.3,576.2c1.8-0.1,3.6-0.2,5.3-0.4l0.1,1.6c-3.7,0.6-7.7,0.7-10.8,0.6l-0.2-1.7c1,0,2.2,0,3.4-0.1V571h2.1
		V576.2z M511.8,567.2c0,1.6,0,3.8-0.5,6.8l-2.1-0.2c0.4-2.7,0.5-4.6,0.5-6.2h-6.9v-1.7h9.1V567.2z M515.8,571.3h2.6v1.8h-2.6v8.6
		h-2.2v-17.7h2.2V571.3z"/>
	<path class="st2" d="M530.7,572.9l0.2,1.6c-1.5,0.3-3.1,0.5-4.6,0.6v6.2H524v-6c-1.6,0.1-3.2,0.1-4.5,0.1l-0.3-1.8
		C522.4,573.5,526.9,573.4,530.7,572.9z M529.6,568.6c0,2.2-2,3.7-4.6,3.7c-2.7,0-4.6-1.5-4.6-3.7c0-2.2,1.9-3.7,4.6-3.7
		C527.7,564.8,529.6,566.4,529.6,568.6z M522.5,568.6c0,1.2,1,1.9,2.5,1.9c1.5,0,2.6-0.7,2.6-1.9c0-1.2-1.1-2-2.6-2
		C523.5,566.6,522.5,567.4,522.5,568.6z M534,581.7h-2.1v-17.6h2.1V581.7z"/>
	<path class="st2" d="M547.8,571.5l0.1,1.6c-1.5,0.2-3,0.4-4.5,0.5v3.4h-2.2v-3.3c-1.7,0.1-3.2,0.1-4.6,0.1l-0.3-1.7
		C539.7,572,544.1,572,547.8,571.5z M546.6,567.9c0,1.9-1.8,3.1-4.4,3.1c-2.6,0-4.4-1.2-4.4-3.1c0-1.9,1.8-3.1,4.4-3.1
		C544.8,564.7,546.6,566,546.6,567.9z M551.7,581.4h-12.9v-5.2h2.2v3.5h10.8V581.4z M539.8,567.9c0,1,1,1.5,2.4,1.5
		c1.3,0,2.3-0.6,2.3-1.5c0-1-1-1.5-2.3-1.5C540.8,566.3,539.8,566.9,539.8,567.9z M551.3,577.5h-2.2v-1.5h-3.5v-1.5h3.5v-10.3h2.2
		V577.5z"/>
	<path class="st2" d="M558.5,576.8v-1.6c-2-0.3-3.3-1.5-3.3-3.2c0-2,1.8-3.3,4.3-3.3c2.6,0,4.4,1.3,4.4,3.3c0,1.7-1.3,2.9-3.3,3.2
		v1.6c1.6-0.1,3.1-0.2,4.6-0.4l0.2,1.6c-3.9,0.7-8.1,0.7-11.3,0.7l-0.3-1.8C555.3,576.8,556.9,576.8,558.5,576.8z M565,567.8h-10.7
		v-1.7h4.3v-2h2.2v2h4.3V567.8z M557.3,572c0,1,0.9,1.6,2.3,1.6c1.4,0,2.3-0.6,2.3-1.6c0-1-0.9-1.6-2.3-1.7
		C558.3,570.3,557.3,570.9,557.3,572z M568.5,581.7h-2.2v-17.7h2.2V581.7z"/>
</g>
<g class="st5">
	<path class="st2" d="M768.4,579.6h-16.1v-1.8h7V574H754v-8.5h12.5v8.5h-5.2v3.8h7V579.6z M756.2,572.3h8.2v-5.1h-8.2V572.3z"/>
	<path class="st2" d="M772.6,567h4.2v-2.2h2.2v7.8h-8.5v-7.8h2.1V567z M784.3,578.5h-9.6v1.4h10.1v1.7h-12.2V577h9.5v-1.3h-9.6V574
		h11.7V578.5z M776.8,570.9v-2.1h-4.2v2.1H776.8z M784.2,573.2h-2.1v-9.1h2.1V573.2z"/>
	<path class="st2" d="M796.1,572.2H790v3.6c2.8,0,5.2-0.2,7.9-0.6l0.2,1.8c-3,0.5-5.6,0.6-8.8,0.6h-1.5v-7.1h6.1v-3.1h-6.1v-1.8h8.3
		V572.2z M801.5,581.8h-2.1v-17.7h2.1V581.8z"/>
	<path class="st2" d="M814,567.4h-6.7v3.1h6v1.7h-6v3.6c2.9,0,5.1-0.1,7.6-0.5l0.2,1.8c-2.8,0.4-5.3,0.5-8.5,0.5h-1.5v-12h8.8V567.4
		z M818.9,581.7h-2.2v-17.7h2.2V581.7z"/>
	<path class="st2" d="M842.3,575h-6.8v3h-2.1v-3h-7.2v-1.7h16.1V575z M840.5,581.4h-12.4v-4.9h2.1v3.1h10.3V581.4z M830.4,566.6h7.6
		v-2h2.1v7.2h-11.9v-7.2h2.1V566.6z M838,570.1v-1.9h-7.6v1.9H838z"/>
	<path class="st2" d="M848.8,576.2c1.8-0.1,3.6-0.2,5.3-0.4l0.1,1.6c-3.7,0.6-7.7,0.7-10.8,0.6l-0.2-1.7c1,0,2.2,0,3.4-0.1V571h2.1
		V576.2z M853.3,567.2c0,1.6,0,3.8-0.5,6.8l-2.1-0.2c0.4-2.7,0.5-4.6,0.5-6.2h-6.9v-1.7h9.1V567.2z M857.3,571.3h2.6v1.8h-2.6v8.6
		h-2.2v-17.7h2.2V571.3z"/>
	<path class="st2" d="M872.2,572.9l0.2,1.6c-1.5,0.3-3.1,0.5-4.6,0.6v6.2h-2.2v-6c-1.6,0.1-3.2,0.1-4.5,0.1l-0.3-1.8
		C863.9,573.5,868.4,573.4,872.2,572.9z M871.1,568.6c0,2.2-2,3.7-4.6,3.7c-2.7,0-4.6-1.5-4.6-3.7c0-2.2,1.9-3.7,4.6-3.7
		C869.2,564.8,871.1,566.4,871.1,568.6z M864,568.6c0,1.2,1,1.9,2.5,1.9c1.5,0,2.6-0.7,2.6-1.9c0-1.2-1.1-2-2.6-2
		C865,566.6,864,567.4,864,568.6z M875.5,581.7h-2.1v-17.6h2.1V581.7z"/>
	<path class="st2" d="M889.3,571.5l0.1,1.6c-1.5,0.2-3,0.4-4.5,0.5v3.4h-2.2v-3.3c-1.7,0.1-3.2,0.1-4.6,0.1l-0.3-1.7
		C881.2,572,885.6,572,889.3,571.5z M888.1,567.9c0,1.9-1.8,3.1-4.4,3.1c-2.6,0-4.4-1.2-4.4-3.1c0-1.9,1.8-3.1,4.4-3.1
		C886.3,564.7,888.1,566,888.1,567.9z M893.2,581.4h-12.9v-5.2h2.2v3.5h10.8V581.4z M881.3,567.9c0,1,1,1.5,2.4,1.5
		c1.3,0,2.3-0.6,2.3-1.5c0-1-1-1.5-2.3-1.5C882.3,566.3,881.3,566.9,881.3,567.9z M892.8,577.5h-2.2v-1.5h-3.5v-1.5h3.5v-10.3h2.2
		V577.5z"/>
	<path class="st2" d="M900,576.8v-1.6c-2-0.3-3.3-1.5-3.3-3.2c0-2,1.8-3.3,4.3-3.3c2.6,0,4.4,1.3,4.4,3.3c0,1.7-1.3,2.9-3.3,3.2v1.6
		c1.6-0.1,3.1-0.2,4.6-0.4l0.2,1.6c-3.9,0.7-8.1,0.7-11.3,0.7l-0.3-1.8C896.8,576.8,898.4,576.8,900,576.8z M906.5,567.8h-10.7v-1.7
		h4.3v-2h2.2v2h4.3V567.8z M898.8,572c0,1,0.9,1.6,2.3,1.6c1.4,0,2.3-0.6,2.3-1.6c0-1-0.9-1.6-2.3-1.7
		C899.8,570.3,898.8,570.9,898.8,572z M910,581.7h-2.2v-17.7h2.2V581.7z"/>
</g>
<path id="Icon_awesome-plus" class="st10" d="M245,666.2h-4.6v-4.6c0-0.6-0.5-1-1-1c0,0,0,0,0,0h-1c-0.6,0-1,0.5-1,1v4.6h-4.6
	c-0.6,0-1,0.5-1,1v1c0,0.6,0.5,1,1,1h4.6v4.6c0,0.6,0.5,1,1,1h1c0.6,0,1-0.5,1-1l0,0v-4.6h4.6c0.6,0,1-0.4,1-1c0,0,0,0,0,0v-1
	C246,666.7,245.6,666.2,245,666.2C245,666.2,245,666.2,245,666.2z"/>
<path id="Icon_awesome-plus-2" class="st10" d="M461,666.2h-4.6v-4.6c0-0.6-0.5-1-1-1c0,0,0,0,0,0h-1c-0.6,0-1,0.5-1,1v4.6h-4.6
	c-0.6,0-1,0.5-1,1v1c0,0.6,0.5,1,1,1h4.6v4.6c0,0.6,0.5,1,1,1h1c0.6,0,1-0.5,1-1l0,0v-4.6h4.6c0.6,0,1-0.4,1-1c0,0,0,0,0,0v-1
	C462,666.7,461.6,666.2,461,666.2C461,666.2,461,666.2,461,666.2z"/>
<path id="Icon_awesome-plus-3" class="st10" d="M631,666.2h-4.6v-4.6c0-0.6-0.5-1-1-1c0,0,0,0,0,0h-1c-0.6,0-1,0.5-1,1v4.6h-4.6
	c-0.6,0-1,0.5-1,1v1c0,0.6,0.5,1,1,1h4.6v4.6c0,0.6,0.5,1,1,1h1c0.6,0,1-0.5,1-1l0,0v-4.6h4.6c0.6,0,1-0.4,1-1c0,0,0,0,0,0v-1
	C632,666.7,631.6,666.2,631,666.2C631,666.2,631,666.2,631,666.2z"/>
</svg>
