<?xml version="1.0" encoding="utf-8"?>
<!-- Generator: Adobe Illustrator 27.5.0, SVG Export Plug-In . SVG Version: 6.00 Build 0)  -->
<svg version="1.1" id="레이어_1" xmlns="http://www.w3.org/2000/svg" xmlns:xlink="http://www.w3.org/1999/xlink" x="0px"
	 y="0px" viewBox="0 0 1220 533" style="enable-background:new 0 0 1220 533;" xml:space="preserve">
<style type="text/css">
	.st0{fill:#FFFFFF;}
	.st1{fill:none;stroke:#DBDBDB;}
	.st2{fill:#00BFDD;}
	.st3{fill:#0066B3;}
	.st4{fill:#008094;}
	.st5{fill:#004071;}
	.st6{fill:#004394;}
	.st7{fill:#022D4D;}
	.st8{enable-background:new    ;}
</style>
<g>
	<g id="사각형_34" transform="translate(570 3259)">
		<path class="st0" d="M-562-3113h174c4.4,0,8,3.6,8,8v51c0,4.4-3.6,8-8,8h-174c-4.4,0-8-3.6-8-8v-51
			C-570-3109.4-566.4-3113-562-3113z"/>
		<path class="st1" d="M-562-3112.5h174c4.1,0,7.5,3.4,7.5,7.5v51c0,4.1-3.4,7.5-7.5,7.5h-174c-4.1,0-7.5-3.4-7.5-7.5v-51
			C-569.5-3109.1-566.1-3112.5-562-3112.5z"/>
	</g>
	<g id="사각형_3334" transform="translate(981 3259)">
		<path class="st0" d="M-562-3113h174c4.4,0,8,3.6,8,8v51c0,4.4-3.6,8-8,8h-174c-4.4,0-8-3.6-8-8v-51
			C-570-3109.4-566.4-3113-562-3113z"/>
		<path class="st1" d="M-562-3112.5h174c4.1,0,7.5,3.4,7.5,7.5v51c0,4.1-3.4,7.5-7.5,7.5h-174c-4.1,0-7.5-3.4-7.5-7.5v-51
			C-569.5-3109.1-566.1-3112.5-562-3112.5z"/>
	</g>
	<g id="사각형_3323" transform="translate(777 3259)">
		<path class="st0" d="M-562-3113h174c4.4,0,8,3.6,8,8v51c0,4.4-3.6,8-8,8h-174c-4.4,0-8-3.6-8-8v-51
			C-570-3109.4-566.4-3113-562-3113z"/>
		<path class="st1" d="M-562-3112.5h174c4.1,0,7.5,3.4,7.5,7.5v51c0,4.1-3.4,7.5-7.5,7.5h-174c-4.1,0-7.5-3.4-7.5-7.5v-51
			C-569.5-3109.1-566.1-3112.5-562-3112.5z"/>
	</g>
	<g id="사각형_3335" transform="translate(1188 3259)">
		<path class="st0" d="M-562-3113h174c4.4,0,8,3.6,8,8v51c0,4.4-3.6,8-8,8h-174c-4.4,0-8-3.6-8-8v-51
			C-570-3109.4-566.4-3113-562-3113z"/>
		<path class="st1" d="M-562-3112.5h174c4.1,0,7.5,3.4,7.5,7.5v51c0,4.1-3.4,7.5-7.5,7.5h-174c-4.1,0-7.5-3.4-7.5-7.5v-51
			C-569.5-3109.1-566.1-3112.5-562-3112.5z"/>
	</g>
	<g id="사각형_3343" transform="translate(1393 3259)">
		<path class="st0" d="M-562-3113h174c4.4,0,8,3.6,8,8v51c0,4.4-3.6,8-8,8h-174c-4.4,0-8-3.6-8-8v-51
			C-570-3109.4-566.4-3113-562-3113z"/>
		<path class="st1" d="M-562-3112.5h174c4.1,0,7.5,3.4,7.5,7.5v51c0,4.1-3.4,7.5-7.5,7.5h-174c-4.1,0-7.5-3.4-7.5-7.5v-51
			C-569.5-3109.1-566.1-3112.5-562-3112.5z"/>
	</g>
	<g id="사각형_3349" transform="translate(1600 3259)">
		<path class="st0" d="M-562-3113h174c4.4,0,8,3.6,8,8v51c0,4.4-3.6,8-8,8h-174c-4.4,0-8-3.6-8-8v-51
			C-570-3109.4-566.4-3113-562-3113z"/>
		<path class="st1" d="M-562-3112.5h174c4.1,0,7.5,3.4,7.5,7.5v51c0,4.1-3.4,7.5-7.5,7.5h-174c-4.1,0-7.5-3.4-7.5-7.5v-51
			C-569.5-3109.1-566.1-3112.5-562-3112.5z"/>
	</g>
	<g id="사각형_3317" transform="translate(570 3339)">
		<path class="st0" d="M-562-3113h174c4.4,0,8,3.6,8,8v51c0,4.4-3.6,8-8,8h-174c-4.4,0-8-3.6-8-8v-51
			C-570-3109.4-566.4-3113-562-3113z"/>
		<path class="st1" d="M-562-3112.5h174c4.1,0,7.5,3.4,7.5,7.5v51c0,4.1-3.4,7.5-7.5,7.5h-174c-4.1,0-7.5-3.4-7.5-7.5v-51
			C-569.5-3109.1-566.1-3112.5-562-3112.5z"/>
	</g>
	<g id="사각형_3332" transform="translate(981 3339)">
		<path class="st0" d="M-562-3113h174c4.4,0,8,3.6,8,8v51c0,4.4-3.6,8-8,8h-174c-4.4,0-8-3.6-8-8v-51
			C-570-3109.4-566.4-3113-562-3113z"/>
		<path class="st1" d="M-562-3112.5h174c4.1,0,7.5,3.4,7.5,7.5v51c0,4.1-3.4,7.5-7.5,7.5h-174c-4.1,0-7.5-3.4-7.5-7.5v-51
			C-569.5-3109.1-566.1-3112.5-562-3112.5z"/>
	</g>
	<g id="사각형_3321" transform="translate(777 3339)">
		<path class="st0" d="M-562-3113h174c4.4,0,8,3.6,8,8v51c0,4.4-3.6,8-8,8h-174c-4.4,0-8-3.6-8-8v-51
			C-570-3109.4-566.4-3113-562-3113z"/>
		<path class="st1" d="M-562-3112.5h174c4.1,0,7.5,3.4,7.5,7.5v51c0,4.1-3.4,7.5-7.5,7.5h-174c-4.1,0-7.5-3.4-7.5-7.5v-51
			C-569.5-3109.1-566.1-3112.5-562-3112.5z"/>
	</g>
	<g id="사각형_3333" transform="translate(1188 3339)">
		<path class="st0" d="M-562-3113h174c4.4,0,8,3.6,8,8v51c0,4.4-3.6,8-8,8h-174c-4.4,0-8-3.6-8-8v-51
			C-570-3109.4-566.4-3113-562-3113z"/>
		<path class="st1" d="M-562-3112.5h174c4.1,0,7.5,3.4,7.5,7.5v51c0,4.1-3.4,7.5-7.5,7.5h-174c-4.1,0-7.5-3.4-7.5-7.5v-51
			C-569.5-3109.1-566.1-3112.5-562-3112.5z"/>
	</g>
	<g id="사각형_3342" transform="translate(1393 3339)">
		<path class="st0" d="M-562-3113h174c4.4,0,8,3.6,8,8v51c0,4.4-3.6,8-8,8h-174c-4.4,0-8-3.6-8-8v-51
			C-570-3109.4-566.4-3113-562-3113z"/>
		<path class="st1" d="M-562-3112.5h174c4.1,0,7.5,3.4,7.5,7.5v51c0,4.1-3.4,7.5-7.5,7.5h-174c-4.1,0-7.5-3.4-7.5-7.5v-51
			C-569.5-3109.1-566.1-3112.5-562-3112.5z"/>
	</g>
	<g id="사각형_3347" transform="translate(1600 3339)">
		<path class="st0" d="M-562-3113h174c4.4,0,8,3.6,8,8v51c0,4.4-3.6,8-8,8h-174c-4.4,0-8-3.6-8-8v-51
			C-570-3109.4-566.4-3113-562-3113z"/>
		<path class="st1" d="M-562-3112.5h174c4.1,0,7.5,3.4,7.5,7.5v51c0,4.1-3.4,7.5-7.5,7.5h-174c-4.1,0-7.5-3.4-7.5-7.5v-51
			C-569.5-3109.1-566.1-3112.5-562-3112.5z"/>
	</g>
	<g id="사각형_3318" transform="translate(570 3419)">
		<path class="st0" d="M-562-3113h174c4.4,0,8,3.6,8,8v51c0,4.4-3.6,8-8,8h-174c-4.4,0-8-3.6-8-8v-51
			C-570-3109.4-566.4-3113-562-3113z"/>
		<path class="st1" d="M-562-3112.5h174c4.1,0,7.5,3.4,7.5,7.5v51c0,4.1-3.4,7.5-7.5,7.5h-174c-4.1,0-7.5-3.4-7.5-7.5v-51
			C-569.5-3109.1-566.1-3112.5-562-3112.5z"/>
	</g>
	<g id="사각형_3328" transform="translate(981 3419)">
		<path class="st0" d="M-562-3113h174c4.4,0,8,3.6,8,8v51c0,4.4-3.6,8-8,8h-174c-4.4,0-8-3.6-8-8v-51
			C-570-3109.4-566.4-3113-562-3113z"/>
		<path class="st1" d="M-562-3112.5h174c4.1,0,7.5,3.4,7.5,7.5v51c0,4.1-3.4,7.5-7.5,7.5h-174c-4.1,0-7.5-3.4-7.5-7.5v-51
			C-569.5-3109.1-566.1-3112.5-562-3112.5z"/>
	</g>
	<g id="사각형_3322" transform="translate(777 3419)">
		<path class="st0" d="M-562-3113h174c4.4,0,8,3.6,8,8v51c0,4.4-3.6,8-8,8h-174c-4.4,0-8-3.6-8-8v-51
			C-570-3109.4-566.4-3113-562-3113z"/>
		<path class="st1" d="M-562-3112.5h174c4.1,0,7.5,3.4,7.5,7.5v51c0,4.1-3.4,7.5-7.5,7.5h-174c-4.1,0-7.5-3.4-7.5-7.5v-51
			C-569.5-3109.1-566.1-3112.5-562-3112.5z"/>
	</g>
	<g id="사각형_3340" transform="translate(1393 3419)">
		<path class="st0" d="M-562-3113h174c4.4,0,8,3.6,8,8v51c0,4.4-3.6,8-8,8h-174c-4.4,0-8-3.6-8-8v-51
			C-570-3109.4-566.4-3113-562-3113z"/>
		<path class="st1" d="M-562-3112.5h174c4.1,0,7.5,3.4,7.5,7.5v51c0,4.1-3.4,7.5-7.5,7.5h-174c-4.1,0-7.5-3.4-7.5-7.5v-51
			C-569.5-3109.1-566.1-3112.5-562-3112.5z"/>
	</g>
	<g id="사각형_3348" transform="translate(1600 3419)">
		<path class="st0" d="M-562-3113h174c4.4,0,8,3.6,8,8v51c0,4.4-3.6,8-8,8h-174c-4.4,0-8-3.6-8-8v-51
			C-570-3109.4-566.4-3113-562-3113z"/>
		<path class="st1" d="M-562-3112.5h174c4.1,0,7.5,3.4,7.5,7.5v51c0,4.1-3.4,7.5-7.5,7.5h-174c-4.1,0-7.5-3.4-7.5-7.5v-51
			C-569.5-3109.1-566.1-3112.5-562-3112.5z"/>
	</g>
	<g id="사각형_3319" transform="translate(570 3499)">
		<path class="st0" d="M-562-3113h174c4.4,0,8,3.6,8,8v51c0,4.4-3.6,8-8,8h-174c-4.4,0-8-3.6-8-8v-51
			C-570-3109.4-566.4-3113-562-3113z"/>
		<path class="st1" d="M-562-3112.5h174c4.1,0,7.5,3.4,7.5,7.5v51c0,4.1-3.4,7.5-7.5,7.5h-174c-4.1,0-7.5-3.4-7.5-7.5v-51
			C-569.5-3109.1-566.1-3112.5-562-3112.5z"/>
	</g>
	<g id="사각형_3320" transform="translate(777 3499)">
		<path class="st0" d="M-562-3113h174c4.4,0,8,3.6,8,8v51c0,4.4-3.6,8-8,8h-174c-4.4,0-8-3.6-8-8v-51
			C-570-3109.4-566.4-3113-562-3113z"/>
		<path class="st1" d="M-562-3112.5h174c4.1,0,7.5,3.4,7.5,7.5v51c0,4.1-3.4,7.5-7.5,7.5h-174c-4.1,0-7.5-3.4-7.5-7.5v-51
			C-569.5-3109.1-566.1-3112.5-562-3112.5z"/>
	</g>
	<g id="사각형_3341" transform="translate(1393 3499)">
		<path class="st0" d="M-562-3113h174c4.4,0,8,3.6,8,8v51c0,4.4-3.6,8-8,8h-174c-4.4,0-8-3.6-8-8v-51
			C-570-3109.4-566.4-3113-562-3113z"/>
		<path class="st1" d="M-562-3112.5h174c4.1,0,7.5,3.4,7.5,7.5v51c0,4.1-3.4,7.5-7.5,7.5h-174c-4.1,0-7.5-3.4-7.5-7.5v-51
			C-569.5-3109.1-566.1-3112.5-562-3112.5z"/>
	</g>
	<g id="사각형_3345" transform="translate(1600 3499)">
		<path class="st0" d="M-562-3113h174c4.4,0,8,3.6,8,8v51c0,4.4-3.6,8-8,8h-174c-4.4,0-8-3.6-8-8v-51
			C-570-3109.4-566.4-3113-562-3113z"/>
		<path class="st1" d="M-562-3112.5h174c4.1,0,7.5,3.4,7.5,7.5v51c0,4.1-3.4,7.5-7.5,7.5h-174c-4.1,0-7.5-3.4-7.5-7.5v-51
			C-569.5-3109.1-566.1-3112.5-562-3112.5z"/>
	</g>
	<g id="사각형_3325" transform="translate(777 3579)">
		<path class="st0" d="M-562-3113h174c4.4,0,8,3.6,8,8v51c0,4.4-3.6,8-8,8h-174c-4.4,0-8-3.6-8-8v-51
			C-570-3109.4-566.4-3113-562-3113z"/>
		<path class="st1" d="M-562-3112.5h174c4.1,0,7.5,3.4,7.5,7.5v51c0,4.1-3.4,7.5-7.5,7.5h-174c-4.1,0-7.5-3.4-7.5-7.5v-51
			C-569.5-3109.1-566.1-3112.5-562-3112.5z"/>
	</g>
	<path id="사각형_35" class="st2" d="M8,74h174c4.4,0,8,3.6,8,8v46c0,4.4-3.6,8-8,8H8c-4.4,0-8-3.6-8-8V82C0,77.6,3.6,74,8,74z"
		/>
	<path id="사각형_3336" class="st3" d="M419,74h174c4.4,0,8,3.6,8,8v46c0,4.4-3.6,8-8,8H419c-4.4,0-8-3.6-8-8V82
		C411,77.6,414.6,74,419,74z"/>
	<path id="사각형_3326" d="M31,0h335c17.1,0,31,13.9,31,31l0,0c0,17.1-13.9,31-31,31H31C13.9,62,0,48.1,0,31l0,0
		C0,13.9,13.9,0,31,0z"/>
	<path id="사각형_3338" d="M442,0h747c17.1,0,31,13.9,31,31l0,0c0,17.1-13.9,31-31,31H442c-17.1,0-31-13.9-31-31l0,0
		C411,13.9,424.9,0,442,0z"/>
	<path id="사각형_3324" class="st4" d="M215,74h174c4.4,0,8,3.6,8,8v46c0,4.4-3.6,8-8,8H215c-4.4,0-8-3.6-8-8V82
		C207,77.6,210.6,74,215,74z"/>
	<path id="사각형_3337" class="st5" d="M626,74h174c4.4,0,8,3.6,8,8v46c0,4.4-3.6,8-8,8H626c-4.4,0-8-3.6-8-8V82
		C618,77.6,621.6,74,626,74z"/>
	<path id="사각형_3344" class="st6" d="M831,74h174c4.4,0,8,3.6,8,8v46c0,4.4-3.6,8-8,8H831c-4.4,0-8-3.6-8-8V82
		C823,77.6,826.6,74,831,74z"/>
	<path id="사각형_3350" class="st7" d="M1038,74h174c4.4,0,8,3.6,8,8v46c0,4.4-3.6,8-8,8h-174c-4.4,0-8-3.6-8-8V82
		C1030,77.6,1033.6,74,1038,74z"/>
	<g class="st8">
		<path class="st0" d="M46.1,112V97.9h4.9c4.2,0,6.8,2.7,6.8,7.1c0,4.4-2.6,7.1-6.9,7.1H46.1z M50.7,109.8c2.9,0,4.5-1.6,4.5-4.9
			c0-3.2-1.5-4.8-4.4-4.8h-2.2v9.7H50.7z"/>
		<path class="st0" d="M64.7,103.1h0.1l3.1-5.2h2.9l-4.4,7.1l4.4,7.1H68l-3.2-5.2h-0.1l-3.2,5.2h-2.9l4.5-7.1l-4.4-7.1h2.9
			L64.7,103.1z"/>
		<path class="st0" d="M91.5,106.5h-2.2v-2.3h-4.1c-0.8,0.9-2.1,1.5-3.6,1.5c-2.7,0-4.7-1.8-4.7-4.3c0-2.5,2-4.3,4.7-4.3
			c1.5,0,2.7,0.5,3.6,1.5h4.2v-2.4h2.2V106.5z M79,101.3c0,1.5,1.1,2.5,2.6,2.5c1.4,0,2.5-1,2.6-2.5c0-1.5-1.1-2.4-2.6-2.4
			C80.1,98.9,79,99.9,79,101.3z M91.5,113.7h-2.2v-4.7h-9.9v-1.7h12V113.7z M89.3,102.4v-2.1h-3.2c0.1,0.3,0.1,0.7,0.1,1
			c0,0.4,0,0.7-0.1,1.1H89.3z"/>
		<path class="st0" d="M102.7,102.3h-5.9v1.9c3,0,5-0.1,7.5-0.5l0.2,1.7c-2.6,0.5-4.9,0.6-8.4,0.6h-1.4v-5.3h5.9v-1.7h-5.9v-1.7h8.1
			V102.3z M108.1,110.4c0,2.1-2.3,3.3-5.9,3.3c-3.7,0-6-1.2-6-3.3c0-2.1,2.3-3.3,6-3.3C105.8,107.1,108.1,108.3,108.1,110.4z
			 M98.3,110.4c0,1.1,1.4,1.6,3.8,1.6c2.4,0,3.8-0.6,3.8-1.6s-1.3-1.6-3.8-1.6C99.7,108.8,98.3,109.4,98.3,110.4z M110.4,100.4h-2.5
			v1.9h2.5v1.8h-2.5v2.6h-2.2V96.1h2.2v2.5h2.5V100.4z"/>
		<path class="st0" d="M122.3,104.9l-1.1,1.7c-2-0.7-3.5-2-4.3-3.7c-0.8,1.8-2.3,3.3-4.4,4l-1.1-1.7c2.8-0.9,4.4-3.2,4.4-5.5v-0.5
			H112v-1.7h9.7v1.7H118v0.5C118,101.9,119.5,104,122.3,104.9z M126.5,113.4h-12.2v-5.6h2.2v3.9h10V113.4z M126,108.9h-2.2V96.1h2.2
			V108.9z"/>
		<path class="st0" d="M137.2,99.3h-5.8v4.8c3.3,0,5.2-0.1,7.3-0.5l0.2,1.8c-2.3,0.4-4.4,0.6-8.2,0.6h-1.4v-8.3h7.9V99.3z
			 M143.2,113.4h-12v-5.9h2.2v4.1h9.8V113.4z M142.5,101h2.5v1.8h-2.5v6h-2.2V96.1h2.2V101z"/>
	</g>
	<g class="st8">
		<path class="st0" d="M452.6,108.2l-1.2,1.7c-2.1-0.9-3.6-2.8-4.4-5c-0.8,2.4-2.4,4.5-4.4,5.4l-1.2-1.7c2.8-1.3,4.5-4.6,4.5-7.6
			v-1.5h-3.9v-1.8h10v1.8H448v1.5C448,104,449.7,107,452.6,108.2z M456,113.7h-2.2V96.1h2.2V113.7z"/>
		<path class="st0" d="M474.7,105.9h-16.1v-1.8h16.1V105.9z M472.8,110.4c0,2.1-2.3,3.2-6.1,3.2c-3.8,0-6.2-1.2-6.2-3.2
			s2.3-3.2,6.2-3.3C470.5,107.2,472.7,108.3,472.8,110.4z M472.9,102.4h-12.2v-6h2.2v4.3h10V102.4z M462.7,110.4
			c0,1,1.4,1.6,3.9,1.6c2.5,0,3.9-0.6,3.9-1.6c0-1.1-1.4-1.5-3.9-1.6C464.1,108.9,462.7,109.4,462.7,110.4z"/>
		<path class="st0" d="M480.2,108.8v-1.7c-1.9-0.3-3.2-1.5-3.2-3.2c0-2,1.7-3.3,4.3-3.3c2.5,0,4.3,1.3,4.3,3.3
			c0,1.7-1.3,2.9-3.2,3.2v1.6c1.5-0.1,3-0.2,4.4-0.4l0.1,1.6c-3.8,0.7-7.9,0.7-10.9,0.7l-0.3-1.8C477,108.8,478.6,108.8,480.2,108.8
			z M486.6,99.8H476v-1.7h4.2v-2h2.2v2h4.2V99.8z M479.1,104c0,1,0.9,1.6,2.2,1.6c1.3,0,2.2-0.6,2.2-1.6c0-1-0.9-1.6-2.2-1.7
			C480,102.3,479.1,102.9,479.1,104z M489.9,103.4h2.5v1.8h-2.5v8.6h-2.2V96.1h2.2V103.4z"/>
		<path class="st0" d="M503.4,108.2c1.8-0.1,3.6-0.2,5.3-0.4l0.1,1.6c-3.7,0.6-7.7,0.7-10.8,0.6l-0.2-1.7c1,0,2.2,0,3.4-0.1V103h2.1
			V108.2z M507.8,99.2c0,1.6,0,3.8-0.5,6.8l-2.1-0.2c0.4-2.7,0.5-4.6,0.5-6.2h-6.9v-1.7h9.1V99.2z M511.8,103.3h2.6v1.8h-2.6v8.6
			h-2.2V96.1h2.2V103.3z"/>
		<path class="st0" d="M524.3,108.3l-1.3,1.6c-1.6-1-2.7-2.7-3.3-4.7c-0.6,2.2-1.7,4-3.4,5.1l-1.3-1.6c2.6-1.5,3.7-4.7,3.7-7.8v-1.2
			h-3.1V98h8v1.8h-2.9v1.2C520.7,103.9,521.8,106.9,524.3,108.3z M526.8,112.9h-2.1V104h-2.5v-1.8h2.5v-5.8h2.1V112.9z M530.4,113.7
			h-2.1V96.1h2.1V113.7z"/>
		<path class="st0" d="M551.6,105.8h-5.2v4h7v1.8h-16.1v-1.8h7v-4h-5v-8.4h12.2v1.7h-10.1v5h10.2V105.8z"/>
		<path class="st0" d="M570.6,105.3h-7v1.3h5v4.1h-10v1.2h10.5v1.6h-12.7v-4.3h10v-1.1h-10.1v-1.6h5.1v-1.3h-6.9v-1.6h16V105.3z
			 M563.6,97.5h5.4v1.6h-5.2c0.4,1.2,2.5,2.2,6,2.4l-0.6,1.6c-3.2-0.2-5.5-1.1-6.7-2.5c-1.1,1.4-3.5,2.3-6.7,2.5l-0.6-1.6
			c3.5-0.2,5.5-1.1,6-2.4h-5.2v-1.6h5.4V96h2.1V97.5z"/>
	</g>
	<g class="st8">
		<path class="st0" d="M102.3,38V23.9h4.9c4.2,0,6.8,2.7,6.8,7.1c0,4.4-2.6,7.1-6.9,7.1H102.3z M107,35.8c2.9,0,4.5-1.6,4.5-4.9
			c0-3.2-1.5-4.8-4.4-4.8h-2.2v9.7H107z"/>
		<path class="st0" d="M120.9,29.1h0.1l3.1-5.2h2.9l-4.4,7.1l4.4,7.1h-2.9l-3.2-5.2h-0.1l-3.2,5.2h-2.9l4.5-7.1l-4.4-7.1h2.9
			L120.9,29.1z"/>
		<path class="st0" d="M147.7,32.5h-2.2v-2.3h-4.1c-0.8,0.9-2.1,1.5-3.6,1.5c-2.7,0-4.7-1.8-4.7-4.3c0-2.5,2-4.3,4.7-4.3
			c1.5,0,2.7,0.5,3.6,1.5h4.2v-2.4h2.2V32.5z M135.3,27.3c0,1.5,1.1,2.5,2.6,2.5c1.4,0,2.5-1,2.6-2.5c0-1.5-1.1-2.4-2.6-2.4
			C136.3,24.9,135.3,25.9,135.3,27.3z M147.7,39.7h-2.2v-4.7h-9.9v-1.7h12V39.7z M145.6,28.4v-2.1h-3.2c0.1,0.3,0.1,0.7,0.1,1
			c0,0.4,0,0.7-0.1,1.1H145.6z"/>
		<path class="st0" d="M159,28.3h-5.9v1.9c3,0,5-0.1,7.5-0.5l0.2,1.7c-2.6,0.5-4.9,0.6-8.4,0.6h-1.4v-5.3h5.9v-1.7h-5.9v-1.7h8.1
			V28.3z M164.3,36.4c0,2.1-2.3,3.3-5.9,3.3c-3.7,0-6-1.2-6-3.3c0-2.1,2.3-3.3,6-3.3C162,33.1,164.3,34.3,164.3,36.4z M154.6,36.4
			c0,1.1,1.4,1.6,3.8,1.6c2.4,0,3.8-0.6,3.8-1.6s-1.3-1.6-3.8-1.6C155.9,34.8,154.5,35.4,154.6,36.4z M166.6,26.4h-2.5v1.9h2.5v1.8
			h-2.5v2.6H162V22.1h2.2v2.5h2.5V26.4z"/>
		<path class="st0" d="M178.5,30.9l-1.1,1.7c-2-0.7-3.5-2-4.3-3.7c-0.8,1.8-2.3,3.3-4.4,4l-1.1-1.7c2.8-0.9,4.4-3.2,4.4-5.5v-0.5
			h-3.8v-1.7h9.7v1.7h-3.7v0.5C174.2,27.9,175.7,30,178.5,30.9z M182.7,39.4h-12.2v-5.6h2.2v3.9h10V39.4z M182.2,34.9H180V22.1h2.2
			V34.9z"/>
		<path class="st0" d="M193.5,25.3h-5.8v4.8c3.3,0,5.2-0.1,7.3-0.5l0.2,1.8c-2.3,0.4-4.4,0.6-8.2,0.6h-1.4v-8.3h7.9V25.3z
			 M199.4,39.4h-12v-5.9h2.2v4.1h9.8V39.4z M198.7,27h2.5v1.8h-2.5v6h-2.2V22.1h2.2V27z"/>
		<path class="st0" d="M217.9,30.9l-1.1,1.7c-2-0.7-3.5-2-4.3-3.7c-0.8,1.8-2.3,3.3-4.4,4l-1.1-1.7c2.8-0.9,4.4-3.2,4.4-5.5v-0.5
			h-3.8v-1.7h9.7v1.7h-3.7v0.5C213.5,27.9,215,30,217.9,30.9z M222,39.4h-12.2v-5.6h2.2v3.9h10V39.4z M221.5,34.9h-2.2V22.1h2.2
			V34.9z"/>
		<path class="st0" d="M232.8,25.3H227v4.8c3.3,0,5.2-0.1,7.3-0.5l0.2,1.8c-2.3,0.4-4.4,0.6-8.2,0.6h-1.4v-8.3h7.9V25.3z
			 M238.8,39.4h-12v-5.9h2.2v4.1h9.8V39.4z M238.1,27h2.5v1.8h-2.5v6h-2.2V22.1h2.2V27z"/>
		<path class="st0" d="M247.3,33.5l-0.8-1.7c2.7-0.9,4.4-2,5.4-3.4l-5.2,0.4l-0.3-1.7l6.3-0.3c0.2-0.5,0.3-1.1,0.4-1.7h-5.8v-1.8h8
			C255.4,28.3,253.2,31.6,247.3,33.5z M261.4,39.4h-11.9v-5.5h2.2v3.8h9.7V39.4z M260.9,35.1h-2.2v-5.8h-3.4v-1.8h3.4v-5.4h2.2V35.1
			z"/>
		<path class="st0" d="M274,29.2l-1.2,1.7c-1.9-0.6-3.3-1.9-4.1-3.5c-0.8,1.8-2.2,3.2-4.3,3.9l-1.1-1.7c2.8-0.9,4.3-3,4.3-5.4v-1.4
			h2.2v1.4C269.8,26.2,271.3,28.3,274,29.2z M278.2,36.5h-9.5v1.3h10v1.7h-12.2v-4.7h9.5v-1.2h-9.5v-1.7h11.6V36.5z M278.2,31.1
			h-2.2v-4.5h-3.5v-1.7h3.5v-2.8h2.2V31.1z"/>
		<path class="st0" d="M290.2,25.1h-6.3v1.7h5.8v1.7h-5.8v1.7c3.3,0,5.3,0,7.6-0.4l0.2,1.7c-2.5,0.4-4.7,0.5-8.6,0.5h-1.5v-8.6h8.5
			V25.1z M295.5,36.4c0,2.1-2.3,3.3-6,3.3c-3.8,0-6.1-1.2-6-3.3c0-2.1,2.3-3.3,6-3.3C293.2,33.1,295.5,34.3,295.5,36.4z M285.6,36.4
			c0,1.1,1.4,1.6,3.9,1.6c2.4,0,3.9-0.6,3.9-1.6c0-1-1.4-1.6-3.9-1.6C287,34.8,285.6,35.4,285.6,36.4z M295.4,32.9h-2.2V22.1h2.2
			V32.9z"/>
	</g>
	<g class="st8">
		<path class="st0" d="M750.4,38l5-14.1h3.1l5,14.1h-2.7l-1.2-3.5h-5.3l-1.2,3.5H750.4z M758.9,32.5l-1.9-5.7h-0.1l-1.9,5.7H758.9z"
			/>
		<path class="st0" d="M767.7,38h-2.5V23.9h2.5V38z"/>
		<path class="st0" d="M777.3,33.4c1.5,0,3.2-0.2,5-0.5l0.2,1.9c-2.4,0.4-4.4,0.5-6.3,0.5h-1.2V24.1h2.2V33.4z M789.5,39.7h-2.1
			v-8.9h-2v8h-2V22.4h2V29h2v-7h2.1V39.7z"/>
		<path class="st0" d="M800.8,34l-1.3,1.7c-1.7-0.9-2.8-2.5-3.4-4.4c-0.6,2.2-1.7,4-3.5,5l-1.3-1.7c2.6-1.5,3.7-4.6,3.7-8v-0.8h-3.1
			V24h8.1v1.7h-2.9v0.8C797.1,29.7,798.2,32.6,800.8,34z M807,39.7h-2.1v-8.9h-1.8v8.1H801V22.4h2.1V29h1.8v-6.9h2.1V39.7z"/>
		<path class="st0" d="M813.2,34.8v-1.7c-1.9-0.3-3.2-1.5-3.2-3.2c0-2,1.7-3.3,4.3-3.3c2.5,0,4.3,1.3,4.3,3.3c0,1.7-1.3,2.9-3.2,3.2
			v1.6c1.5-0.1,3-0.2,4.4-0.4l0.1,1.6c-3.8,0.7-7.9,0.7-10.9,0.7l-0.3-1.8C810.1,34.8,811.6,34.8,813.2,34.8z M819.6,25.8h-10.5
			v-1.7h4.2v-2h2.2v2h4.2V25.8z M812.1,30c0,1,0.9,1.6,2.2,1.6c1.3,0,2.2-0.6,2.2-1.6c0-1-0.9-1.6-2.2-1.7
			C813,28.3,812.1,28.9,812.1,30z M822.9,29.4h2.5v1.8h-2.5v8.6h-2.2V22.1h2.2V29.4z"/>
		<path class="st0" d="M832.2,33.5l-0.8-1.7c2.7-0.9,4.4-2,5.4-3.4l-5.2,0.4l-0.3-1.7l6.3-0.3c0.2-0.5,0.3-1.1,0.4-1.7h-5.8v-1.8h8
			C840.2,28.3,838,31.6,832.2,33.5z M846.2,39.4h-11.9v-5.5h2.2v3.8h9.7V39.4z M845.8,35.1h-2.2v-5.8h-3.4v-1.8h3.4v-5.4h2.2V35.1z"
			/>
		<path class="st0" d="M858.8,29.2l-1.2,1.7c-1.9-0.6-3.3-1.9-4.1-3.5c-0.8,1.8-2.2,3.2-4.3,3.9l-1.1-1.7c2.8-0.9,4.3-3,4.3-5.4
			v-1.4h2.2v1.4C854.7,26.2,856.1,28.3,858.8,29.2z M863,36.5h-9.5v1.3h10v1.7h-12.2v-4.7h9.5v-1.2h-9.5v-1.7H863V36.5z M863,31.1
			h-2.2v-4.5h-3.5v-1.7h3.5v-2.8h2.2V31.1z"/>
		<path class="st0" d="M875.1,25.1h-6.3v1.7h5.8v1.7h-5.8v1.7c3.3,0,5.3,0,7.6-0.4l0.2,1.7c-2.5,0.4-4.7,0.5-8.6,0.5h-1.5v-8.6h8.5
			V25.1z M880.3,36.4c0,2.1-2.3,3.3-6,3.3c-3.8,0-6.1-1.2-6-3.3c0-2.1,2.3-3.3,6-3.3C878,33.1,880.3,34.3,880.3,36.4z M870.4,36.4
			c0,1.1,1.4,1.6,3.9,1.6c2.4,0,3.9-0.6,3.9-1.6c0-1-1.4-1.6-3.9-1.6C871.8,34.8,870.4,35.4,870.4,36.4z M880.3,32.9h-2.2V22.1h2.2
			V32.9z"/>
	</g>
	<g class="st8">
		<path class="st0" d="M251.1,112V97.9h4.9c4.2,0,6.8,2.7,6.8,7.1c0,4.4-2.6,7.1-6.9,7.1H251.1z M255.7,109.8c2.9,0,4.5-1.6,4.5-4.9
			c0-3.2-1.5-4.8-4.4-4.8h-2.2v9.7H255.7z"/>
		<path class="st0" d="M269.7,103.1h0.1l3.1-5.2h2.9l-4.4,7.1l4.4,7.1H273l-3.2-5.2h-0.1l-3.2,5.2h-2.9l4.5-7.1l-4.4-7.1h2.9
			L269.7,103.1z"/>
		<path class="st0" d="M292.3,104.8l-1.1,1.7c-2-0.7-3.4-2-4.1-3.7c-0.8,1.9-2.3,3.3-4.3,4.1l-1.1-1.8c2.8-0.9,4.3-3.2,4.3-5.6v-0.5
			h-3.7v-1.8h9.5v1.8h-3.7v0.5C288.2,101.7,289.6,103.9,292.3,104.8z M296.9,113.4h-12v-5.5h2.2v3.8h9.9V113.4z M296.5,109h-2.2
			v-6.5h-3.1v-1.8h3.1v-4.7h2.2V109z"/>
		<path class="st0" d="M307.7,102.3h-5.9v2c3,0,5-0.1,7.5-0.5l0.2,1.7c-2.6,0.4-4.9,0.6-8.4,0.6h-1.4v-5.4h5.9v-1.8h-5.9v-1.8h8.1
			V102.3z M312.9,113.7h-2.2v-4.3h-9.6v-1.7h11.8V113.7z M315.4,100.4h-2.5v2h2.5v1.8h-2.5v2.6h-2.2V96.1h2.2v2.6h2.5V100.4z"/>
		<path class="st0" d="M332.4,107.6h-7v6.2h-2.1v-6.2h-6.9v-1.8h16.1V107.6z M331.7,102.5l-0.9,1.8c-3-0.4-5.4-1.9-6.5-3.9
			c-1.2,2-3.5,3.5-6.5,3.9l-0.9-1.8c3.7-0.5,6.2-2.7,6.2-5v-0.9h2.3v0.9C325.5,99.8,327.9,102,331.7,102.5z"/>
		<path class="st0" d="M344,98.9h-3.7c0,2.1,1.6,4.1,4.3,4.8l-1.1,1.7c-2-0.6-3.5-1.9-4.3-3.5c-0.8,1.8-2.3,3.1-4.4,3.8l-1.1-1.7
			c2.8-0.8,4.3-2.9,4.4-5.1h-3.8v-1.7h9.7V98.9z M338.7,108.2h7.4v-1.8h2.2v7.1h-11.7v-7.1h2.1V108.2z M346.1,111.8v-1.8h-7.4v1.8
			H346.1z M348.3,105.7h-2.2v-9.6h2.2V105.7z"/>
	</g>
	<g class="st8">
		<path class="st0" d="M664.6,112l5-14.1h3.1l5,14.1h-2.7l-1.2-3.5h-5.3l-1.2,3.5H664.6z M673.1,106.5l-1.9-5.7H671l-1.9,5.7H673.1z
			"/>
		<path class="st0" d="M681.9,112h-2.5V97.9h2.5V112z"/>
		<path class="st0" d="M704.7,111.6h-16.1v-1.8h7V106h-5.2v-8.5h12.5v8.5h-5.2v3.8h7V111.6z M692.4,104.3h8.2v-5.1h-8.2V104.3z"/>
		<path class="st0" d="M713.4,98.7h-4.7v4.3c2.1,0,3.6-0.1,5.3-0.4l0.1,1.7c-2,0.3-3.7,0.4-6.4,0.4h-1.2V97h6.8V98.7z M721,110.5
			h-9.8v1.3h10.4v1.7H709v-4.6h9.9v-1.2H709V106h12V110.5z M717.5,105.3h-2.1v-3.8h-3v-1.7h3v-3.4h2.1V105.3z M721,105.4h-2.1v-9.3
			h2.1V105.4z"/>
		<path class="st0" d="M738.3,99.5h-10.5v-1.7h4.2V96h2.2v1.8h4.1V99.5z M737.4,103.4c0,1.9-1.8,3.2-4.3,3.2s-4.3-1.3-4.3-3.2
			s1.8-3.2,4.3-3.2S737.4,101.5,737.4,103.4z M741.8,113.7h-2.2v-4H730V108h11.8V113.7z M730.9,103.4c0,1,0.9,1.6,2.2,1.5
			c1.3,0,2.2-0.5,2.2-1.5s-0.9-1.6-2.2-1.6S730.9,102.4,730.9,103.4z M741.8,100.8h2.5v1.8h-2.5v4.6h-2.2V96.1h2.2V100.8z"/>
		<path class="st0" d="M761.2,105.7h-16.1v-1.8h16.1V105.7z M760.4,101.3l-0.8,1.7c-3-0.4-5.3-1.7-6.4-3.5c-1.1,1.8-3.5,3.1-6.4,3.5
			l-0.8-1.7c3.7-0.4,6.1-2.4,6.1-4.3v-0.7h2.2v0.7C754.3,98.8,756.7,100.8,760.4,101.3z M749.2,108.3h7.8v-1.7h2.2v6.9h-12.1v-6.9
			h2.1V108.3z M757,111.8V110h-7.8v1.8H757z"/>
	</g>
	<g class="st8">
		<path class="st0" d="M847,112V97.9h4.9c4.2,0,6.8,2.7,6.8,7.1c0,4.4-2.6,7.1-6.9,7.1H847z M851.7,109.8c2.9,0,4.5-1.6,4.5-4.9
			c0-3.2-1.5-4.8-4.4-4.8h-2.2v9.7H851.7z"/>
		<path class="st0" d="M865.7,103.1h0.1l3.1-5.2h2.9l-4.4,7.1l4.4,7.1h-2.9l-3.2-5.2h-0.1l-3.2,5.2h-2.9l4.5-7.1l-4.4-7.1h2.9
			L865.7,103.1z"/>
		<path class="st0" d="M878.5,106.7l-0.9-1.8c4-1.1,6.4-3.3,6.8-5.9h-6v-1.8h8.3C886.7,101.9,883.7,105.2,878.5,106.7z M891.8,110.2
			c0,2.2-2.3,3.5-5.9,3.5c-3.6,0-5.9-1.3-5.9-3.5c0-2.2,2.3-3.5,5.9-3.5C889.5,106.6,891.8,108,891.8,110.2z M882.1,110.2
			c0,1.2,1.4,1.8,3.8,1.8s3.8-0.7,3.8-1.8c0-1.2-1.4-1.8-3.8-1.8S882.1,109,882.1,110.2z M891.6,100.4h2.5v1.8h-2.5v4.3h-2.2V96.1
			h2.2V100.4z"/>
		<path class="st0" d="M899.2,108.8v-1.7c-1.9-0.3-3.2-1.5-3.2-3.2c0-2,1.7-3.3,4.3-3.3c2.5,0,4.3,1.3,4.3,3.3
			c0,1.7-1.3,2.9-3.2,3.2v1.6c1.5-0.1,3-0.2,4.4-0.4l0.1,1.6c-3.8,0.7-7.9,0.7-10.9,0.7l-0.3-1.8
			C896.1,108.8,897.6,108.8,899.2,108.8z M905.6,99.8h-10.5v-1.7h4.2v-2h2.2v2h4.2V99.8z M898.1,104c0,1,0.9,1.6,2.2,1.6
			c1.3,0,2.2-0.6,2.2-1.6c0-1-0.9-1.6-2.2-1.7C899,102.3,898.1,102.9,898.1,104z M908.9,103.4h2.5v1.8h-2.5v8.6h-2.2V96.1h2.2V103.4
			z"/>
		<path class="st0" d="M927.6,104.8l-1.1,1.7c-2-0.7-3.4-2-4.1-3.7c-0.8,1.9-2.3,3.3-4.3,4.1l-1.1-1.8c2.8-0.9,4.3-3.2,4.3-5.6v-0.5
			h-3.7v-1.8h9.5v1.8h-3.7v0.5C923.5,101.7,924.9,103.9,927.6,104.8z M932.2,113.4h-12v-5.5h2.2v3.8h9.9V113.4z M931.8,109h-2.2
			v-6.5h-3.1v-1.8h3.1v-4.7h2.2V109z"/>
		<path class="st0" d="M943,102.3h-5.9v2c3,0,5-0.1,7.5-0.5l0.2,1.7c-2.6,0.4-4.9,0.6-8.4,0.6H935v-5.4h5.9v-1.8h-5.9v-1.8h8.1
			V102.3z M948.2,113.7H946v-4.3h-9.6v-1.7h11.8V113.7z M950.7,100.4h-2.5v2h2.5v1.8h-2.5v2.6H946V96.1h2.2v2.6h2.5V100.4z"/>
		<path class="st0" d="M972.4,107.6h-7v6.2h-2.1v-6.2h-6.9v-1.8h16.1V107.6z M971.8,102.5l-0.9,1.8c-3-0.4-5.4-1.9-6.5-3.9
			c-1.2,2-3.5,3.5-6.5,3.9l-0.9-1.8c3.7-0.5,6.2-2.7,6.2-5v-0.9h2.3v0.9C965.5,99.8,968,102,971.8,102.5z"/>
		<path class="st0" d="M982.6,102h-6v1.8c3,0,5.2-0.1,7.7-0.5l0.3,1.8c-2.8,0.4-5.2,0.5-8.6,0.5h-1.5v-5.2h6v-1.7h-6v-1.8h8.1V102z
			 M978.8,108.4h7.4v-1.7h2.2v6.9h-11.7v-6.9h2.2V108.4z M986.1,111.8v-1.7h-7.4v1.7H986.1z M988.3,105.9h-2.2v-9.8h2.2V105.9z"/>
	</g>
	<g class="st8">
		<path class="st0" d="M1054,112V97.9h4.9c4.2,0,6.8,2.7,6.8,7.1c0,4.4-2.6,7.1-6.9,7.1H1054z M1058.7,109.8c2.9,0,4.5-1.6,4.5-4.9
			c0-3.2-1.5-4.8-4.4-4.8h-2.2v9.7H1058.7z"/>
		<path class="st0" d="M1072.7,103.1h0.1l3.1-5.2h2.9l-4.4,7.1l4.4,7.1h-2.9l-3.2-5.2h-0.1l-3.2,5.2h-2.9l4.5-7.1l-4.4-7.1h2.9
			L1072.7,103.1z"/>
		<path class="st0" d="M1085.5,106.7l-0.9-1.8c4-1.1,6.4-3.3,6.8-5.9h-6v-1.8h8.3C1093.7,101.9,1090.7,105.2,1085.5,106.7z
			 M1098.8,110.2c0,2.2-2.3,3.5-5.9,3.5c-3.6,0-5.9-1.3-5.9-3.5c0-2.2,2.3-3.5,5.9-3.5C1096.5,106.6,1098.8,108,1098.8,110.2z
			 M1089.1,110.2c0,1.2,1.4,1.8,3.8,1.8s3.8-0.7,3.8-1.8c0-1.2-1.4-1.8-3.8-1.8S1089.1,109,1089.1,110.2z M1098.6,100.4h2.5v1.8
			h-2.5v4.3h-2.2V96.1h2.2V100.4z"/>
		<path class="st0" d="M1106.2,108.8v-1.7c-1.9-0.3-3.2-1.5-3.2-3.2c0-2,1.7-3.3,4.3-3.3c2.5,0,4.3,1.3,4.3,3.3
			c0,1.7-1.3,2.9-3.2,3.2v1.6c1.5-0.1,3-0.2,4.4-0.4l0.1,1.6c-3.8,0.7-7.9,0.7-10.9,0.7l-0.3-1.8
			C1103.1,108.8,1104.6,108.8,1106.2,108.8z M1112.6,99.8h-10.5v-1.7h4.2v-2h2.2v2h4.2V99.8z M1105.1,104c0,1,0.9,1.6,2.2,1.6
			c1.3,0,2.2-0.6,2.2-1.6c0-1-0.9-1.6-2.2-1.7C1106,102.3,1105.1,102.9,1105.1,104z M1115.9,103.4h2.5v1.8h-2.5v8.6h-2.2V96.1h2.2
			V103.4z"/>
		<path class="st0" d="M1134.6,104.8l-1.1,1.7c-2-0.7-3.4-2-4.1-3.7c-0.8,1.9-2.3,3.3-4.3,4.1l-1.1-1.8c2.8-0.9,4.3-3.2,4.3-5.6
			v-0.5h-3.7v-1.8h9.5v1.8h-3.7v0.5C1130.5,101.7,1131.9,103.9,1134.6,104.8z M1139.2,113.4h-12v-5.5h2.2v3.8h9.9V113.4z
			 M1138.8,109h-2.2v-6.5h-3.1v-1.8h3.1v-4.7h2.2V109z"/>
		<path class="st0" d="M1150,102.3h-5.9v2c3,0,5-0.1,7.5-0.5l0.2,1.7c-2.6,0.4-4.9,0.6-8.4,0.6h-1.4v-5.4h5.9v-1.8h-5.9v-1.8h8.1
			V102.3z M1155.2,113.7h-2.2v-4.3h-9.6v-1.7h11.8V113.7z M1157.7,100.4h-2.5v2h2.5v1.8h-2.5v2.6h-2.2V96.1h2.2v2.6h2.5V100.4z"/>
		<path class="st0" d="M1179.4,107.6h-7v6.2h-2.1v-6.2h-6.9v-1.8h16.1V107.6z M1178.8,102.5l-0.9,1.8c-3-0.4-5.4-1.9-6.5-3.9
			c-1.2,2-3.5,3.5-6.5,3.9l-0.9-1.8c3.7-0.5,6.2-2.7,6.2-5v-0.9h2.3v0.9C1172.5,99.8,1175,102,1178.8,102.5z"/>
		<path class="st0" d="M1189.6,102h-6v1.8c3,0,5.2-0.1,7.7-0.5l0.3,1.8c-2.8,0.4-5.2,0.5-8.6,0.5h-1.5v-5.2h6v-1.7h-6v-1.8h8.1V102z
			 M1185.8,108.4h7.4v-1.7h2.2v6.9h-11.7v-6.9h2.2V108.4z M1193.1,111.8v-1.7h-7.4v1.7H1193.1z M1195.3,105.9h-2.2v-9.8h2.2V105.9z"
			/>
	</g>
	<g class="st8">
		<path d="M61.4,167.6l-0.7,1.1c-1.8-0.6-3.2-1.8-3.9-3.3c-0.7,1.7-2.1,3-4,3.6l-0.7-1.1c2.3-0.7,4-2.6,4-4.7v-0.4h-3.5v-1.1h3.5v-2
			h1.4v2h3.5v1.1h-3.5v0.4C57.5,165.1,59.1,166.9,61.4,167.6z M64.4,175.5h-1.4v-4.2h-8.9v-1.1h10.2V175.5z M64.4,164h2.4v1.2h-2.4
			v4.2h-1.4v-9.5h1.4V164z"/>
		<path d="M82,169.8h-6.5v5.7h-1.4v-5.7h-6.4v-1.2H82V169.8z M81.3,165.8l-0.6,1.1c-2.4-0.4-4.8-1.7-5.8-3.7c-1,1.9-3.4,3.3-5.8,3.7
			l-0.6-1.1c2.8-0.4,5.7-2.3,5.7-4.5v-0.9h1.4v0.9C75.6,163.5,78.5,165.4,81.3,165.8z"/>
		<path d="M102.2,173.4H87.9v-1.1h6.4v-3.4h-4.7v-8h1.4v2.8h8.1v-2.8h1.4v8h-4.8v3.4h6.5V173.4z M99.1,167.8v-2.9h-8.1v2.9H99.1z"/>
		<path d="M117.6,173.2h-14.2v-1.1h5.6v-5.6h1.4v5.6h7.3V173.2z M115.9,162.9c0,1.9,0,4.1-0.6,7.2L114,170c0.6-3,0.6-5.2,0.6-7v-0.4
			h-9.6v-1.1h11V162.9z"/>
		<path d="M131.6,167.2h-7.3v-6.4h7.3V167.2z M137.3,174.3l-0.5,1.1c-2.4-0.3-4.5-1.4-5.4-2.9c-0.9,1.5-3.1,2.6-5.5,2.9l-0.5-1.1
			c2.7-0.3,5.3-1.8,5.3-3.4h-4.6v-1.1h4.6v-1.5h1.4v1.5h4.7v1.1h-4.6C132.1,172.5,134.6,174,137.3,174.3z M125.7,166.1h4.6v-4.1
			h-4.6V166.1z M136.4,168.8H135v-9h1.4V168.8z"/>
	</g>
	<g class="st8">
		<path d="M71.5,195.7l-0.8,1.1c-1.7-0.9-3.2-2.8-3.8-4.9c-0.7,2.3-2.2,4.3-3.9,5.2L62,196c2.3-1.1,4.1-4.1,4.1-7v-2.8h1.4v2.8
			C67.5,191.8,69.3,194.6,71.5,195.7z M74.4,191.1H77v1.2h-2.6v8.1H73v-15.6h1.4V191.1z"/>
		<path d="M87.1,192.8l-0.7,1.1c-1.8-0.6-3.1-2-3.8-3.6c-0.7,1.8-2.1,3.2-4,3.9l-0.7-1.1c2.3-0.8,4-2.9,4-5.1v-0.8h-3.5v-1.1h8.4
			v1.1h-3.5v0.8C83.2,190.1,84.8,192,87.1,192.8z M91.2,200.1H80.7v-4.9h1.4v3.7h9.1V200.1z M90.8,196.3h-1.4v-6h-3.2v-1.1h3.2v-4.3
			h1.4V196.3z"/>
		<path d="M112.1,198.2H97.9v-1.1h3.5v-5.2h1.4v5.2h2.5v-5.2h1.4v5.2h5.4V198.2z M110.4,188.1c0,2,0,4-0.6,6.9l-1.4-0.2
			c0.6-2.8,0.6-4.8,0.6-6.8v-0.6h-9.7v-1.1h11.1V188.1z"/>
		<path d="M127.7,193.5h-3.8v2h2v5h-1.4v-3.9H115v-1.1h2.2v-2h-3.8v-1.1h14.2V193.5z M126.1,188.2c0,1.9-2.1,3-5.5,3
			c-3.4,0-5.5-1.1-5.5-3c0-1.9,2.1-3,5.5-3C124,185.2,126.1,186.3,126.1,188.2z M116.5,188.2c0,1.2,1.6,1.9,4.1,1.9
			c2.5,0,4.1-0.7,4.1-1.9c0-1.2-1.6-1.9-4.1-1.9C118,186.3,116.4,187,116.5,188.2z M122.5,195.4v-2h-3.9v2H122.5z"/>
	</g>
	<g class="st8">
		<path d="M471.9,162.9h-4.5v7.5c2.2,0,3.6-0.1,5.4-0.4l0.1,1.2c-1.9,0.4-3.5,0.5-5.9,0.5h-1v-9.8h5.9V162.9z M478.8,175.4h-1.3
			v-8.2h-2.3v7.4H474v-14.5h1.3v5.9h2.3v-6.3h1.3V175.4z"/>
		<path d="M490.1,167.2l-0.8,1.1c-1.7-0.6-3.1-1.9-3.8-3.6c-0.7,1.8-2.1,3.3-3.9,4l-0.7-1.1c2.3-0.9,3.9-3,3.9-5.4v-1.6h1.4v1.7
			C486.3,164.5,487.9,166.4,490.1,167.2z M493.4,172.5c0,1.8-1.9,2.8-5.2,2.8s-5.2-1-5.2-2.8c0-1.8,2-2.8,5.2-2.8
			S493.4,170.7,493.4,172.5z M484.4,172.5c0,1.1,1.4,1.7,3.8,1.8c2.4,0,3.8-0.7,3.8-1.8c0-1.1-1.4-1.7-3.8-1.7
			C485.9,170.8,484.4,171.5,484.4,172.5z M493.3,163.9h2.4v1.2h-2.4v4.3h-1.4v-9.5h1.4V163.9z"/>
		<path d="M510.9,170.8l-0.8,1.1c-1.8-0.9-3.3-2.7-4.1-4.9c-0.7,2.4-2.3,4.3-4.1,5.3L501,171c2.3-1.1,4.3-4,4.3-7v-2.8h1.4v2.8
			C506.7,166.8,508.6,169.7,510.9,170.8z M514,175.5h-1.4v-15.7h1.4V175.5z"/>
		<path d="M531,173.3h-14.3v-1.1H531V173.3z M530.2,167.7l-0.6,1.2c-2.4-0.5-4.8-2.2-5.9-4.5c-1,2.3-3.5,4-5.9,4.5l-0.6-1.2
			c2.7-0.5,5.7-2.9,5.7-5.6v-1.2h1.4v1.2C524.5,164.8,527.5,167.2,530.2,167.7z"/>
		<path d="M538.9,162h-4.6v1.9h4v1.1h-4v2.1c2.3,0,3.7-0.1,5.3-0.4l0.1,1.1c-1.8,0.3-3.3,0.4-5.8,0.4h-1v-7.4h6V162z M545.5,175.2
			h-10.3v-5.3h10.3V175.2z M536.5,174.1h7.6v-3h-7.6V174.1z M542.5,169.1h-1.3v-4.2H539v-1.1h2.1v-3.7h1.3V169.1z M545.5,169.2h-1.3
			v-9.4h1.3V169.2z"/>
	</g>
	<g class="st8">
		<path d="M477.5,194.2h-6.4v3.1h-1.4v-3.1h-6.6v-1.1h14.3V194.2z M475.9,200.1H465v-4.3h1.4v3.1h9.5V200.1z M466.5,187.3h7.7v-2
			h1.4v6.2h-10.5v-6.2h1.4V187.3z M474.2,190.4v-2.1h-7.7v2.1H474.2z"/>
		<path d="M488,192.2l-0.8,1.1c-1.7-0.6-3.1-2-3.8-3.6c-0.7,1.8-2.1,3.3-3.9,4l-0.8-1.1c2.4-0.8,3.9-2.9,4-5.3v-1.7h1.4v1.7
			C484.1,189.5,485.7,191.5,488,192.2z M491.7,200.4h-1.4V196h-9.1v-1.1h10.5V200.4z M491.7,194h-1.4v-4.8h-3.5v-1.2h3.5v-3.3h1.4
			V194z"/>
		<path d="M507,192.2h-7.3v-6.4h7.3V192.2z M512.7,199.3l-0.5,1.1c-2.4-0.3-4.5-1.4-5.4-2.9c-0.9,1.5-3.1,2.6-5.5,2.9l-0.5-1.1
			c2.7-0.3,5.3-1.8,5.3-3.4h-4.6v-1.1h4.6v-1.5h1.4v1.5h4.7v1.1h-4.6C507.5,197.5,510,199,512.7,199.3z M501,191.1h4.6v-4.1H501
			V191.1z M511.7,193.8h-1.4v-9h1.4V193.8z"/>
		<path d="M519.7,193.8l-0.6-1.1c3.7-1.1,6.1-3.1,6.4-5.8h-5.6v-1.1h7.1C527,189.7,524.2,192.5,519.7,193.8z M531.9,200.2h-10.1
			v-5.8h10.1V200.2z M523.1,199.1h7.4v-3.6h-7.4V199.1z M531.9,193.7h-1.4V190H527v-1.2h3.5v-4h1.4V193.7z"/>
		<path d="M547.1,194.1h-4.9v3.3h6.5v1.1h-14.3v-1.1h6.4v-3.3h-4.6v-8H547v1.1h-9.2v2.2h8.9v1.1h-8.9v2.4h9.4V194.1z"/>
	</g>
	<g class="st8">
		<path d="M246.6,181h-1.4v-2.2h-4c-0.7,0.9-1.9,1.4-3.2,1.4c-2.3,0-4.1-1.5-4.1-3.7c0-2.2,1.7-3.7,4.1-3.7c1.3,0,2.5,0.5,3.2,1.4h4
			v-2.3h1.4V181z M235.2,176.4c0,1.5,1.1,2.6,2.7,2.6c1.5,0,2.7-1.1,2.7-2.6c0-1.5-1.2-2.5-2.7-2.5
			C236.3,173.9,235.2,174.9,235.2,176.4z M246.6,187.4h-1.4V183h-9.1v-1.1h10.5V187.4z M245.2,177.6v-2.4h-3.4
			c0.1,0.4,0.2,0.8,0.2,1.2s-0.1,0.8-0.2,1.2H245.2z"/>
		<path d="M256.9,177h-5.7v2.2c2.8,0,4.8-0.1,7.2-0.5l0.1,1.2c-2.5,0.4-4.6,0.5-7.5,0.5h-1.2v-4.4h5.7v-2h-5.7v-1.1h7.1V177z
			 M261.5,184.6c0,1.8-2,2.8-5.2,2.8c-3.2,0-5.2-1-5.2-2.8s2-2.8,5.2-2.8C259.6,181.7,261.5,182.8,261.5,184.6z M252.6,184.6
			c0,1.1,1.4,1.7,3.8,1.7c2.4,0,3.8-0.7,3.8-1.7c0-1.1-1.4-1.8-3.8-1.8C254,182.8,252.5,183.5,252.6,184.6z M263.8,175.4h-2.4v2.1
			h2.4v1.2h-2.4v2.5H260v-9.5h1.4v2.4h2.4V175.4z"/>
		<path d="M278.9,179.9l-0.7,1.1c-1.8-0.6-3.3-1.9-4-3.6c-0.7,1.8-2.2,3.2-4,3.9l-0.7-1.1c2.3-0.8,4-2.8,4-5.1v-0.9h-3.7v-1.1h8.6
			v1.1h-3.6v0.9C274.9,177.3,276.6,179.2,278.9,179.9z M282.7,187.1h-10.6v-4.9h1.4v3.7h9.2V187.1z M282.2,183.3h-1.4v-11.5h1.4
			V183.3z"/>
		<path d="M292.5,174.3h-5.6v4.9c3.1,0,4.9-0.1,7-0.5l0.2,1.1c-2.2,0.4-4.1,0.5-7.3,0.5h-1.2v-7.2h7V174.3z M297.8,187.1h-10.5V182
			h1.4v4h9.1V187.1z M297,176.5h2.4v1.2H297v5.5h-1.4v-11.3h1.4V176.5z"/>
		<path d="M317.8,179.8h-1.4v-1.6h-4.2v-1.1h4.2v-1.9h-3.9c-1,2.5-3.4,4.1-6.9,5l-0.5-1.1c3.8-0.9,6.1-2.8,6.3-5.3h-5.5v-1.1h7
			c0,0.5-0.1,1-0.1,1.5h3.6v-2.3h1.4V179.8z M317.8,184.3h-8.7v1.8h9.2v1.1h-10.6v-4h8.7v-1.6h-8.7v-1.1h10.1V184.3z"/>
		<path d="M325,182.7c1.7-0.1,3.5-0.2,5.1-0.4l0.1,1c-3.3,0.5-7,0.6-9.8,0.6l-0.2-1.1c1,0,2.2,0,3.4-0.1V178h1.4V182.7z
			 M329.1,174.3c0,1.2,0,3.3-0.5,6.2l-1.4-0.1c0.4-2.6,0.5-4.5,0.5-5.8h-6.6v-1.1h7.9V174.3z M332.5,178.3h2.5v1.2h-2.5v7.9h-1.4
			v-15.6h1.4V178.3z"/>
		<path d="M354.8,180.2h-14.2v-1.1h5.9v-3h1.4v3h7V180.2z M353.1,184.5c0,1.8-2.1,2.8-5.5,2.8c-3.3,0-5.5-1.1-5.5-2.8
			c0-1.8,2.1-2.9,5.5-2.9C350.9,181.7,353.1,182.7,353.1,184.5z M353,173.9c0,1.3,0,2.5-0.4,4.1l-1.4-0.2c0.4-1.6,0.4-2.8,0.4-4
			v-0.2h-9.4v-1.1H353V173.9z M343.5,184.5c0,1.1,1.6,1.8,4.1,1.8s4.1-0.7,4.1-1.8c0-1.1-1.6-1.8-4.1-1.8
			C345.1,182.7,343.5,183.4,343.5,184.5z"/>
		<path d="M370.4,181.9h-3.8v5.6h-1.4v-5.6h-4v5.6h-1.4v-5.6h-3.7v-1.1h14.3V181.9z M368.7,175.8c0,2.1-2.2,3.4-5.5,3.4
			c-3.3,0-5.5-1.3-5.5-3.4c0-2.1,2.2-3.4,5.5-3.4S368.7,173.7,368.7,175.8z M359.1,175.8c0,1.4,1.6,2.3,4.1,2.3
			c2.4,0,4.1-0.9,4.1-2.3s-1.7-2.3-4.1-2.3C360.7,173.6,359.1,174.5,359.1,175.8z"/>
	</g>
	<g class="st8">
		<path d="M671.2,174.9h-4.6v7.6c2.2,0,3.7-0.1,5.4-0.5l0.1,1.2c-1.8,0.4-3.3,0.4-5.9,0.5h-1v-9.9h5.9V174.9z M674.9,186.6h-1.3
			v-7.7h-3.4v-1.2h3.4v-5.6h1.3V186.6z M678.1,187.4h-1.3v-15.6h1.3V187.4z"/>
		<path d="M688.8,178.5c0,3.3-1.7,5.4-4,5.4c-2.3,0-4-2.1-4-5.4s1.7-5.4,4-5.4C687.2,173,688.8,175.1,688.8,178.5z M682.2,178.5
			c0,2.5,1.1,4.2,2.7,4.2s2.7-1.7,2.7-4.2s-1.1-4.2-2.7-4.2C683.3,174.3,682.2,175.9,682.2,178.5z M693.1,187.5h-1.4v-15.7h1.4
			V187.5z"/>
		<path d="M703.8,174.4h-5.9v3.3h5.2v1.1h-5.2v3.8c2.9,0,4.7-0.1,6.9-0.5l0.2,1.1c-2.3,0.4-4.2,0.5-7.2,0.5h-1.2v-10.4h7.3V174.4z
			 M708.8,187.5h-1.4v-8.6h-3.3v-1.1h3.3v-5.9h1.4V187.5z"/>
		<path d="M719.1,179.2l-0.7,1.1c-1.5-0.6-2.5-1.8-3-3.2c-0.6,1.5-1.7,2.8-3.2,3.5l-0.8-1.1c2-0.9,3.3-2.9,3.3-4.7v-2.1h1.3v2.1
			C716,176.6,717.2,178.4,719.1,179.2z M725.6,186.3l-0.6,1.1c-2.4-0.4-4.6-1.6-5.5-3.3c-0.9,1.7-3.2,2.9-5.5,3.3l-0.5-1.1
			c2.7-0.4,5.4-2.1,5.4-4.1v-0.5h1.4v0.5C720.2,184.2,722.8,185.9,725.6,186.3z M721.6,181h-1.3v-4.5h-2.5v-1.1h2.5v-3.3h1.3V181z
			 M724.6,182.5h-1.3v-10.7h1.3V182.5z"/>
		<path d="M743.8,174.2c0,1.5,0,3.1-0.4,5.3h2.3v1.1h-6.5v6.8h-1.4v-6.8h-6.4v-1.1H742c0.5-2.2,0.5-3.9,0.5-5.3V174h-9.2v-1.1h10.6
			V174.2z"/>
		<path d="M761.2,180.8h-6.5v1.8h4.7v4.8h-1.4v-3.7h-9.5v-1.1h4.9v-1.8H747v-1.1h14.2V180.8z M754.8,173.3h5v1.1h-4.9
			c0.1,1.8,2.6,3,5.5,3.3l-0.5,1.1c-2.6-0.3-4.9-1.2-5.8-2.8c-0.9,1.6-3.3,2.5-5.8,2.8l-0.5-1.1c2.9-0.3,5.4-1.5,5.5-3.3h-4.9v-1.1
			h5v-1.6h1.4V173.3z"/>
	</g>
	<g class="st8">
		<path d="M874.7,174l4.7-12.7h1.7l4.7,12.7H884l-1.3-3.6h-5.1l-1.3,3.6H874.7z M882.2,169l-2-5.7h-0.1l-2,5.7H882.2z"/>
		<path d="M889,174h-1.6v-12.7h1.6V174z"/>
		<path d="M909.8,173.4h-14.3v-1.2h6.4v-3.8h-4.7v-7.3h10.8v7.3h-4.7v3.8h6.5V173.4z M898.6,167.3h8.2v-5.1h-8.2V167.3z"/>
		<path d="M917.8,161.8h-4.6v4.4c2.1,0,3.6-0.1,5.4-0.4l0.1,1.1c-1.9,0.3-3.4,0.4-5.8,0.4h-1v-6.6h6V161.8z M924.4,172.5h-9v1.7h9.6
			v1.1h-11v-3.8h9v-1.5H914v-1.1h10.4V172.5z M921.4,168h-1.3v-3.6h-3.2v-1.1h3.2v-3.1h1.3V168z M924.4,168.1h-1.3v-8.3h1.3V168.1z"
			/>
		<path d="M939,167.1l-0.7,1.1c-1.5-0.6-2.6-1.7-3.1-3c-0.6,1.5-1.7,2.8-3.2,3.5l-0.8-1.1c2.1-0.9,3.3-2.9,3.3-4.7v-2.1h1.3v2.1
			C935.8,164.6,937,166.4,939,167.1z M944.5,172.6c0,1.8-2,2.8-5.3,2.8c-3.3,0-5.3-1-5.2-2.8c0-1.8,2-2.8,5.2-2.8
			C942.5,169.8,944.5,170.8,944.5,172.6z M935.4,172.6c0,1.1,1.5,1.7,3.9,1.7c2.4,0,3.9-0.6,3.9-1.7c0-1.1-1.5-1.7-3.9-1.7
			C936.9,170.9,935.4,171.5,935.4,172.6z M944.4,169.5h-1.3v-4.3H941v3.8h-1.3v-8.9h1.3v3.9h2.1v-4.2h1.3V169.5z"/>
		<path d="M956,167.2l-0.8,1.1c-1.7-0.7-3.1-1.9-3.7-3.6c-0.7,1.9-2.1,3.3-4,4l-0.8-1.1c2.4-0.8,4-2.9,4-5.3v-1.6h1.4v1.6
			C952.1,164.5,953.7,166.5,956,167.2z M959.7,172.5c0,1.9-2,2.9-5.2,2.9s-5.2-1.1-5.2-2.9c0-1.9,2-3,5.2-3S959.7,170.6,959.7,172.5
			z M950.6,172.5c0,1.1,1.5,1.8,3.9,1.8s3.9-0.7,3.9-1.8c0-1.2-1.5-1.9-3.9-1.9S950.6,171.3,950.6,172.5z M959.7,169.1h-1.4v-4.8
			h-3.5v-1.1h3.5v-3.4h1.4V169.1z"/>
	</g>
	<g class="st8">
		<path d="M901.2,192.2h-7.3v-6.4h7.3V192.2z M906.9,199.3l-0.5,1.1c-2.4-0.3-4.5-1.4-5.4-2.9c-0.9,1.5-3.1,2.6-5.5,2.9l-0.5-1.1
			c2.7-0.3,5.3-1.8,5.3-3.4h-4.6v-1.1h4.6v-1.5h1.4v1.5h4.7v1.1h-4.6C901.7,197.5,904.2,199,906.9,199.3z M895.2,191.1h4.6v-4.1
			h-4.6V191.1z M905.9,193.8h-1.4v-9h1.4V193.8z"/>
		<path d="M922.5,187.6h-9.3v-1.1h4v-1.8h1.4v1.8h4V187.6z M921.6,191.2c0,1.7-1.5,2.8-3.8,2.8s-3.8-1.1-3.8-2.8
			c0-1.7,1.5-2.8,3.8-2.8C920.1,188.4,921.6,189.5,921.6,191.2z M925.3,200.4H924v-3.9h-8.9v-1.1h10.2V200.4z M915.4,191.2
			c0,1,1,1.7,2.4,1.7c1.5,0,2.4-0.7,2.5-1.7c0-1.1-1-1.7-2.5-1.8C916.3,189.5,915.3,190.2,915.4,191.2z M925.3,189.1h2.4v1.2h-2.4
			v4.3H924v-9.8h1.4V189.1z"/>
		<path d="M942.9,193.1h-14.2v-1.1h14.2V193.1z M942.1,189.7l-0.5,1.1c-2.4-0.4-4.8-1.6-5.8-3.4c-1,1.8-3.4,3-5.8,3.4l-0.5-1.1
			c2.8-0.4,5.6-2,5.6-4V185h1.4v0.7C936.5,187.6,939.4,189.4,942.1,189.7z M931.9,196h7.8v-1.8h1.4v6h-10.6v-6h1.4V196z
			 M939.7,199.1v-2h-7.8v2H939.7z"/>
	</g>
	<g class="st8">
		<path d="M1091.7,174l4.7-12.7h1.7l4.7,12.7h-1.7l-1.3-3.6h-5.1l-1.3,3.6H1091.7z M1099.3,169l-2-5.7h-0.1l-2,5.7H1099.3z"/>
		<path d="M1106,174h-1.6v-12.7h1.6V174z"/>
		<path d="M1116.7,167.6v-1c-1.8-0.1-3-0.9-3-2.1c0-1.3,1.4-2,3.7-2c2.2,0,3.7,0.7,3.7,2c0,1.2-1.1,1.9-3,2.1v0.9
			c1.5-0.1,2.9-0.2,4.3-0.4l0.1,0.9c-3.4,0.5-7.1,0.6-9.9,0.6l-0.2-1C1113.7,167.6,1115.2,167.6,1116.7,167.6z M1121.9,162h-9.1v-1
			h3.8v-1.3h1.4v1.3h3.8V162z M1124.8,172.9h-8.8v1.4h9.4v1h-10.7v-3.3h8.8v-1.2h-8.8v-1h10.2V172.9z M1115.1,164.5
			c0,0.7,0.9,1.2,2.3,1.2s2.4-0.5,2.4-1.2c0-0.7-0.9-1.1-2.4-1.1C1116,163.5,1115.1,163.9,1115.1,164.5z M1124.8,163.8h2.3v1.2h-2.3
			v4h-1.4v-9.2h1.4V163.8z"/>
		<path d="M1137.4,167.2l-0.8,1.1c-1.7-0.7-3.1-1.9-3.7-3.6c-0.7,1.9-2.1,3.3-4,4l-0.8-1.1c2.4-0.8,4-2.9,4-5.3v-1.6h1.4v1.6
			C1133.5,164.5,1135.1,166.5,1137.4,167.2z M1141.1,172.5c0,1.9-2,2.9-5.2,2.9s-5.2-1.1-5.2-2.9c0-1.9,2-3,5.2-3
			S1141.1,170.6,1141.1,172.5z M1132,172.5c0,1.1,1.5,1.8,3.9,1.8s3.9-0.7,3.9-1.8c0-1.2-1.5-1.9-3.9-1.9S1132,171.3,1132,172.5z
			 M1141.1,169.1h-1.4v-4.8h-3.5v-1.1h3.5v-3.4h1.4V169.1z"/>
		<path d="M1147.8,171.2v-1.7c-1.8-0.2-3-1.3-3-2.8c0-1.8,1.5-2.9,3.7-2.9c2.2,0,3.7,1.1,3.7,2.9c0,1.5-1.2,2.6-3,2.8v1.7
			c1.5-0.1,2.9-0.2,4.3-0.4l0.1,1.1c-3.4,0.6-7.1,0.6-9.8,0.6l-0.2-1.2C1144.8,171.3,1146.2,171.3,1147.8,171.2z M1153.2,162.8h-9.4
			v-1.1h4v-1.9h1.4v1.9h4V162.8z M1146.1,166.7c0,1.1,1,1.8,2.4,1.8c1.4,0,2.4-0.7,2.4-1.8s-1-1.8-2.4-1.8
			C1147.1,164.8,1146.1,165.6,1146.1,166.7z M1155.8,166.5h2.5v1.2h-2.5v7.8h-1.4v-15.6h1.4V166.5z"/>
	</g>
	<g class="st8">
		<path d="M1101.5,192.8l-0.7,1.1c-1.8-0.6-3.1-2-3.8-3.6c-0.7,1.8-2.1,3.2-4,3.9l-0.7-1.1c2.3-0.8,4-2.9,4-5.1v-0.8h-3.5v-1.1h8.4
			v1.1h-3.5v0.8C1097.7,190.1,1099.3,192,1101.5,192.8z M1105.7,200.1h-10.5v-4.9h1.4v3.7h9.1V200.1z M1105.2,196.3h-1.4v-6h-3.2
			v-1.1h3.2v-4.3h1.4V196.3z"/>
		<path d="M1115.6,190.1h-5.7v2.3c2.8,0,4.8-0.1,7.2-0.5l0.1,1.1c-2.5,0.4-4.6,0.5-7.5,0.5h-1.2V189h5.7v-2.1h-5.7v-1.1h7.1V190.1z
			 M1120,200.4h-1.4v-4.2h-8.9v-1.1h10.2V200.4z M1122.4,188.5h-2.4v2.1h2.4v1.2h-2.4v2.6h-1.4v-9.5h1.4v2.5h2.4V188.5z"/>
		<path d="M1142.1,194.8h-6.5v5.7h-1.4v-5.7h-6.4v-1.2h14.2V194.8z M1141.4,190.8l-0.6,1.1c-2.4-0.4-4.8-1.7-5.8-3.7
			c-1,1.9-3.4,3.3-5.8,3.7l-0.6-1.1c2.8-0.4,5.7-2.3,5.7-4.5v-0.9h1.4v0.9C1135.7,188.5,1138.6,190.4,1141.4,190.8z"/>
		<path d="M1151.4,189.8h-5.8v2.1c2.8,0,4.9-0.1,7.4-0.5l0.2,1.1c-2.6,0.4-4.8,0.5-7.6,0.5h-1.3v-4.4h5.7v-2h-5.8v-1.1h7.1V189.8z
			 M1147.6,196h7.4v-1.9h1.4v6h-10.2v-6h1.4V196z M1155,199.1v-1.9h-7.4v1.9H1155z M1156.4,193.4h-1.4v-8.6h1.4V193.4z"/>
	</g>
	<g class="st8">
		<path d="M35.4,264.5l-0.8-1.1c4.2-2,6.4-5,6.7-8.7h-6v-1.1h7.4C42.7,258,40.6,262,35.4,264.5z M47.3,267.4h-1.4v-15.6h1.4V267.4z"
			/>
		<path d="M58.3,255.5h3.3v-3.7h1.4v8.4h-1.4v-3.5h-3.3c-0.3,1.8-1.9,3.1-4,3.1c-2.4,0-4.1-1.5-4.1-3.6c0-2.1,1.7-3.6,4.1-3.6
			C56.4,252.5,58,253.7,58.3,255.5z M51.5,256.1c0,1.4,1.1,2.5,2.7,2.5c1.6,0,2.7-1,2.7-2.5c0-1.4-1.1-2.4-2.7-2.4
			C52.7,253.7,51.5,254.7,51.5,256.1z M54.2,263h7.3v-2h1.4v6.2H52.8V261h1.4V263z M61.5,266.1v-2h-7.3v2H61.5z"/>
		<path d="M84.3,265.4H70v-1.1h6.4v-3.8h1.4v3.8h6.6V265.4z M83.6,259.4l-0.6,1.1c-2.4-0.5-4.9-2.1-5.9-4.4c-1,2.2-3.5,3.9-5.9,4.4
			l-0.6-1.1c2.7-0.5,5.8-2.8,5.8-5.4v-1.2h1.4v1.2C77.8,256.7,80.9,259,83.6,259.4z"/>
		<path d="M86.4,264.1l-0.8-1c3.6-2,5.1-4.9,5.4-8.1h-4.8v-1.1h6.1C92.3,257.8,90.9,261.6,86.4,264.1z M98.9,267.4h-1.4v-8.2h-2.2
			v7.4h-1.3v-14.4h1.3v5.9h2.2v-6.3h1.4V267.4z"/>
		<path d="M113.8,259.2h-7.3v-6.4h7.3V259.2z M119.5,266.3l-0.5,1.1c-2.4-0.3-4.5-1.4-5.4-2.9c-0.9,1.5-3.1,2.6-5.5,2.9l-0.5-1.1
			c2.7-0.3,5.3-1.8,5.3-3.4h-4.6v-1.1h4.6v-1.5h1.4v1.5h4.7v1.1h-4.6C114.3,264.5,116.8,266,119.5,266.3z M107.8,258.1h4.6v-4.1
			h-4.6V258.1z M118.6,260.8h-1.4v-9h1.4V260.8z"/>
		<path d="M138.7,263.5h-1.4v-3.8h-4.2v-1.1h4.2v-2.4h-4c-1.1,2.5-3.5,4.4-6.7,5.4l-0.6-1.1c3.7-1.2,6.2-3.5,6.5-6.3h-5.7V253h7.2
			c0,0.7-0.1,1.4-0.3,2h3.6v-3.2h1.4V263.5z M139.1,267.1h-10.4v-4.8h1.4v3.6h8.9V267.1z"/>
		<path d="M150.7,254.6h-9.3v-1.1h4v-1.8h1.4v1.8h4V254.6z M149.8,258.2c0,1.7-1.5,2.8-3.8,2.8s-3.8-1.1-3.8-2.8
			c0-1.7,1.5-2.8,3.8-2.8C148.2,255.4,149.7,256.5,149.8,258.2z M153.5,267.4h-1.4v-3.9h-8.9v-1.1h10.2V267.4z M143.6,258.2
			c0,1,1,1.7,2.4,1.7c1.5,0,2.4-0.7,2.5-1.7c0-1.1-1-1.7-2.5-1.8C144.5,256.5,143.5,257.2,143.6,258.2z M153.5,256.1h2.4v1.2h-2.4
			v4.3h-1.4v-9.8h1.4V256.1z"/>
	</g>
	<g class="st8">
		<path d="M444.9,254l4.7-12.7h1.7l4.7,12.7h-1.7l-1.3-3.6h-5.1l-1.3,3.6H444.9z M452.4,249l-2-5.7h-0.1l-2,5.7H452.4z"/>
		<path d="M459.2,254h-1.6v-12.7h1.6V254z"/>
		<path d="M474.6,242.6h-8.8v-1.1h3.8v-1.7h1.4v1.7h3.7V242.6z M473.8,246.3c0,1.7-1.5,2.9-3.6,2.9c-2.1,0-3.6-1.2-3.5-2.9
			c0-1.7,1.5-2.9,3.5-2.9C472.3,243.4,473.8,244.6,473.8,246.3z M467.9,246.3c0,1.1,0.9,1.8,2.2,1.8s2.3-0.7,2.3-1.8
			c0-1.1-0.9-1.8-2.3-1.8C468.9,244.5,467.9,245.2,467.9,246.3z M478.7,255.4h-1.4v-3.7h-9.1v-1.1h10.5V255.4z M478.7,249.7h-1.4v-2
			h-2.7v-1.2h2.7v-1.8h-2.7v-1.1h2.7v-3.9h1.4V249.7z"/>
		<path d="M490.7,247.6l-0.7,1.1c-1.8-0.7-3.2-2.1-3.9-3.9c-0.7,1.9-2.1,3.5-3.9,4.2l-0.8-1.1c2.4-0.9,4-3.2,4-5.7v-1.6h1.4v1.6
			C486.8,244.6,488.4,246.8,490.7,247.6z M494.7,255.1h-10.6v-4.9h1.4v3.7h9.2V255.1z M494.2,251.3h-1.4v-11.5h1.4V251.3z"/>
		<path d="M505.9,250.7c1.7-0.1,3.5-0.2,5.1-0.4l0.1,1c-3.3,0.5-7,0.6-9.8,0.6l-0.2-1.1c1,0,2.2,0,3.4-0.1V246h1.4V250.7z
			 M510,242.3c0,1.2,0,3.3-0.5,6.2l-1.4-0.1c0.4-2.6,0.5-4.5,0.5-5.8h-6.6v-1.1h7.9V242.3z M513.4,246.3h2.5v1.2h-2.5v7.9H512v-15.6
			h1.4V246.3z"/>
		<path d="M524.9,250.9l-0.8,1c-1.5-0.9-2.6-2.6-3.2-4.6c-0.6,2.2-1.7,4-3.3,5l-0.9-1c2.2-1.3,3.4-4.1,3.4-7v-1.5h-3v-1.1h7.2v1.1
			h-2.9v1.5C521.5,247,522.7,249.7,524.9,250.9z M527.1,254.6h-1.3v-8.1h-2.6v-1.1h2.6v-5.3h1.3V254.6z M530.3,255.4h-1.3v-15.6h1.3
			V255.4z"/>
		<path d="M549.6,248.3h-4.8v4h6.5v1.2H537v-1.2h6.4v-4h-4.6v-7.2h10.6v1.1h-9.2v4.9h9.4V248.3z"/>
		<path d="M566.8,247.8h-6.5v1.5h4.6v3.4h-9.3v1.5h9.8v1.1h-11.1v-3.6h9.3v-1.4h-9.3v-1h4.7v-1.5h-6.4v-1.1h14.2V247.8z
			 M560.3,241.2h5v1.1h-4.9c0.3,1.6,2.7,2.5,5.6,2.7l-0.4,1.1c-2.6-0.2-5-1-5.9-2.5c-1,1.5-3.3,2.3-5.9,2.5l-0.4-1.1
			c2.9-0.2,5.3-1.2,5.6-2.7H554v-1.1h5v-1.5h1.4V241.2z"/>
	</g>
	<g class="st8">
		<path d="M489.2,272.2h-7.3v-6.4h7.3V272.2z M494.9,279.3l-0.5,1.1c-2.4-0.3-4.5-1.4-5.4-2.9c-0.9,1.5-3.1,2.6-5.5,2.9l-0.5-1.1
			c2.7-0.3,5.3-1.8,5.3-3.4h-4.6v-1.1h4.6v-1.5h1.4v1.5h4.7v1.1h-4.6C489.7,277.5,492.2,279,494.9,279.3z M483.2,271.1h4.6v-4.1
			h-4.6V271.1z M493.9,273.8h-1.4v-9h1.4V273.8z"/>
		<path d="M510.4,272.4l-0.7,1.1c-1.8-0.6-3.1-1.9-3.8-3.6c-0.7,1.8-2.1,3.3-4,4l-0.7-1.1c2.3-0.8,4-3,4-5.2v-0.6h-3.5v-1.2h8.4v1.2
			h-3.5v0.6C506.5,269.7,508.1,271.6,510.4,272.4z M514.1,277.5c0,1.8-2,2.9-5.2,2.9c-3.3,0-5.2-1.1-5.2-2.9s2-2.9,5.2-2.9
			S514.1,275.7,514.1,277.5z M505,277.5c0,1.1,1.5,1.8,3.9,1.8s3.9-0.7,3.9-1.8c0-1.1-1.5-1.8-3.9-1.8S505,276.4,505,277.5z
			 M514.1,274.1h-1.4V270h-3.1v-1.1h3.1v-4.1h1.4V274.1z"/>
		<path d="M527.1,275.3l0.1,1c-3.6,0.7-7.4,0.7-10.2,0.7l-0.2-1.2C519.6,275.8,523.6,275.8,527.1,275.3z M526,269.6
			c0,2.2-1.7,3.7-4.2,3.7s-4.2-1.5-4.2-3.7c0-2.2,1.8-3.7,4.2-3.7S526,267.4,526,269.6z M518.9,269.6c0,1.5,1.2,2.5,2.9,2.5
			c1.7,0,2.8-1,2.8-2.5s-1.2-2.5-2.8-2.5C520.1,267.2,518.9,268.2,518.9,269.6z M529.5,280.5h-1.4v-15.7h1.4V280.5z"/>
	</g>
	<g class="st8">
		<path d="M256.9,249.9h-6.5v5.6h-1.4v-5.6h-6.4v-1.1h14.2V249.9z M256.1,246.3l-0.5,1.1c-2.4-0.4-4.8-1.7-5.8-3.6
			c-0.9,1.9-3.3,3.2-5.7,3.6l-0.5-1.1c2.7-0.4,5.5-2.2,5.5-4.3v-0.1h-5v-1.1h11.5v1.1h-5v0.1C250.5,244.1,253.3,245.9,256.1,246.3z"
			/>
		<path d="M272.5,253.4h-14.3v-1.2h3.6V248c-1.3-0.7-2.1-1.8-2.1-3.2c0-2.4,2.4-4,5.7-4c3.3,0,5.7,1.6,5.7,4c0,1.4-0.8,2.5-2.1,3.2
			v4.3h3.6V253.4z M261,244.8c0,1.7,1.8,2.9,4.4,2.9c2.5,0,4.4-1.2,4.4-2.9s-1.8-2.9-4.4-2.9C262.8,241.9,261,243.1,261,244.8z
			 M267.6,252.3v-3.7c-0.7,0.2-1.4,0.3-2.2,0.3c-0.8,0-1.5-0.1-2.2-0.3v3.7H267.6z"/>
		<path d="M292.6,253.4h-14.3v-1.2h14.3V253.4z M291.2,242.5h-2.5v5.5h2.4v1.1h-11.6V248h2.4v-5.5h-2.5v-1.1h11.7V242.5z M287.4,248
			v-5.5h-4v5.5H287.4z"/>
		<path d="M308.2,253.5h-14.3v-1.2h6.4v-3h-4.6v-4.8h9.4v-2.5h-9.4V241h10.7v4.7H297v2.5h9.7v1.1h-5.1v3h6.5V253.5z"/>
		<path d="M317.3,250.6l-0.8,1.1c-1.5-0.9-2.6-2.6-3.1-4.5c-0.6,2.1-1.7,3.9-3.3,4.8l-0.9-1c2.2-1.3,3.5-4,3.5-6.7v-3h1.3v3
			C314.1,246.7,315.3,249.4,317.3,250.6z M319.6,254.6h-1.3v-8.1h-2.7v-1.2h2.7v-5.3h1.3V254.6z M322.8,255.4h-1.3v-15.6h1.3V255.4z
			"/>
		<path d="M339.3,253.3H325v-1.1h14.3V253.3z M338.5,247.7l-0.6,1.2c-2.4-0.5-4.8-2.2-5.9-4.5c-1,2.3-3.5,4-5.9,4.5l-0.6-1.2
			c2.7-0.5,5.7-2.9,5.7-5.6v-1.2h1.4v1.2C332.8,244.8,335.8,247.2,338.5,247.7z"/>
		<path d="M353.2,247.2h-7.3v-6.4h7.3V247.2z M358.9,254.3l-0.5,1.1c-2.4-0.3-4.5-1.4-5.4-2.9c-0.9,1.5-3.1,2.6-5.5,2.9l-0.5-1.1
			c2.7-0.3,5.3-1.8,5.3-3.4h-4.6v-1.1h4.6v-1.5h1.4v1.5h4.7v1.1h-4.6C353.7,252.5,356.2,254,358.9,254.3z M347.2,246.1h4.6v-4.1
			h-4.6V246.1z M357.9,248.8h-1.4v-9h1.4V248.8z"/>
	</g>
	<g class="st8">
		<path d="M271.3,266.3h4.5c2.7,0,3.9,1.5,3.9,3.4c0,1.6-1,2.4-2.1,2.7v0.1c1.2,0.1,2.6,1.2,2.6,3.2c0,1.9-1.3,3.4-4.3,3.4h-4.6
			V266.3z M278.2,269.7c0-1.1-0.7-2-2.4-2h-2.9v4.2h2.8C277.1,271.8,278.2,271,278.2,269.7z M278.7,275.6c0-1.3-1-2.4-2.7-2.4h-3.1
			v4.4h3C277.9,277.6,278.7,276.7,278.7,275.6z"/>
		<path d="M284.4,266.3l4.3,10.5h0.2l4.3-10.5h1.9V279h-1.5v-9.6h-0.1l-4,9.6H288l-4-9.6H284v9.6h-1.5v-12.7H284.4z"/>
		<path d="M315.9,274.2h-6.4v3.1h-1.4v-3.1h-6.6v-1.1h14.3V274.2z M314.3,280.1h-10.9v-4.3h1.4v3.1h9.5V280.1z M304.8,267.3h7.7v-2
			h1.4v6.2h-10.5v-6.2h1.4V267.3z M312.6,270.4v-2.1h-7.7v2.1H312.6z"/>
		<path d="M326.3,272.2l-0.8,1.1c-1.7-0.6-3.1-2-3.8-3.6c-0.7,1.8-2.1,3.3-3.9,4l-0.8-1.1c2.4-0.8,3.9-2.9,4-5.3v-1.7h1.4v1.7
			C322.5,269.5,324.1,271.5,326.3,272.2z M330.1,280.4h-1.4V276h-9.1v-1.1h10.5V280.4z M330.1,274h-1.4v-4.8h-3.5v-1.2h3.5v-3.3h1.4
			V274z"/>
	</g>
	<g class="st8">
		<path d="M671.2,254.9h-4.6v7.6c2.2,0,3.7-0.1,5.4-0.5l0.1,1.2c-1.8,0.4-3.3,0.4-5.9,0.5h-1v-9.9h5.9V254.9z M674.9,266.6h-1.3
			v-7.7h-3.4v-1.2h3.4v-5.6h1.3V266.6z M678.1,267.4h-1.3v-15.6h1.3V267.4z"/>
		<path d="M688.8,258.5c0,3.3-1.7,5.4-4,5.4c-2.3,0-4-2.1-4-5.4c0-3.3,1.7-5.4,4-5.4C687.2,253,688.8,255.1,688.8,258.5z
			 M682.2,258.5c0,2.5,1.1,4.2,2.7,4.2s2.7-1.7,2.7-4.2c0-2.5-1.1-4.2-2.7-4.2C683.3,254.3,682.2,255.9,682.2,258.5z M693.1,267.5
			h-1.4v-15.7h1.4V267.5z"/>
		<path d="M703.8,254.4h-5.9v3.3h5.2v1.1h-5.2v3.8c2.9,0,4.7-0.1,6.9-0.5l0.2,1.1c-2.3,0.4-4.2,0.5-7.2,0.5h-1.2v-10.4h7.3V254.4z
			 M708.8,267.5h-1.4v-8.6h-3.3v-1.1h3.3v-5.9h1.4V267.5z"/>
		<path d="M725.2,259.8l-0.7,1.1c-1.8-0.6-3.1-2-3.8-3.6c-0.7,1.8-2.1,3.2-4,3.9l-0.7-1.1c2.3-0.8,4-2.9,4-5.1v-0.8h-3.5v-1.1h8.4
			v1.1h-3.5v0.8C721.3,257.1,722.9,259,725.2,259.8z M729.3,267.1h-10.5v-4.9h1.4v3.7h9.1V267.1z M728.8,263.3h-1.4v-6h-3.2v-1.1
			h3.2v-4.3h1.4V263.3z"/>
		<path d="M740.9,263l-0.8,1.1c-1.8-0.8-3.3-2.5-3.9-4.6c-0.7,2.2-2.1,4-3.9,4.9l-0.8-1.1c2.3-1.1,4-3.7,4-6.4v-1.2h-3.6v-1.1h3.6
			v-2.4h1.4v2.4h3.5v1.1h-3.6v1.2C736.8,259.5,738.6,262,740.9,263z M744.4,267.5H743v-8.2h-3.4v-1.1h3.4v-6.3h1.4V267.5z"/>
		<path d="M755.2,258.8h-5.8v3.7c2.6,0,4.9-0.1,7.7-0.6l0.1,1.2c-2.9,0.5-5.3,0.6-7.9,0.6h-1.3v-6h5.9v-3.3h-5.9v-1.1h7.3V258.8z
			 M759.9,267.5h-1.4v-15.7h1.4V267.5z"/>
	</g>
	<g class="st8">
		<path d="M880.7,254.1h-1.6v5c0.7,0,1.4-0.1,2.1-0.2l0.1,1.1c-3,0.5-6.6,0.5-9.1,0.5l-0.2-1.2l2,0v-5.2h-1.6V253h8.3V254.1z
			 M885,264.6c0,1.8-2,2.8-5.2,2.8s-5.2-1-5.2-2.8c0-1.8,2-2.8,5.2-2.8S885,262.8,885,264.6z M877.8,259.2v-5.1h-2.4v5.2
			C876.2,259.3,877,259.3,877.8,259.2z M875.9,264.6c0,1.1,1.5,1.7,3.9,1.7s3.9-0.6,3.9-1.7c0-1.1-1.5-1.7-3.9-1.7
			S875.8,263.5,875.9,264.6z M884.9,261.4h-1.4v-2.9h-2.6v-1.1h2.6v-1.7h-2.6v-1.1h2.6v-2.8h1.4V261.4z"/>
		<path d="M888.4,264.5l-0.8-1.1c4-2,6.2-5,6.6-8.7h-5.8v-1.2h7.2C895.6,257.9,893.5,261.9,888.4,264.5z M899.6,258.2h2.5v1.2h-2.5
			v8.1h-1.4v-15.6h1.4V258.2z"/>
		<path d="M912.9,262.9l-0.8,1.1c-1.8-0.8-3.4-2.6-4.1-4.8c-0.7,2.3-2.3,4.3-4.1,5.2l-0.8-1.1c2.2-1.1,4.2-4,4.2-6.7v-2h-3.7v-1.1
			h8.8v1.1h-3.7v2C908.7,259.2,910.6,261.9,912.9,262.9z M916,267.4h-1.4v-15.6h1.4V267.4z"/>
		<path d="M932.9,265.5h-14.3v-1.1h4v-3.7h-2.7v-1.1h2.4v-5.1h-2.5v-1.1h11.7v1.1h-2.5v5.1h2.4v1.1h-2.7v3.7h4.1V265.5z
			 M927.7,259.5v-5.1h-4v5.1H927.7z M927.5,264.4v-3.7H924v3.7H927.5z"/>
		<path d="M943.4,259.8l-0.8,1.1c-1.7-0.7-3.1-2-3.7-3.7c-0.7,1.9-2.1,3.4-3.9,4.1l-0.7-1.1c2.3-0.9,4-3,4-5.4v-1.9h1.4v2
			C939.5,256.9,941.1,259,943.4,259.8z M947.5,267.1H937v-4.9h1.4v3.7h9.1V267.1z M947.1,263.5h-1.4v-6.9h-3.5v-1.2h3.5v-3.7h1.4
			V263.5z"/>
		<path d="M959,259.4l-0.7,1.1c-1.8-0.6-3.1-1.9-3.8-3.6c-0.7,1.8-2.1,3.3-4,4l-0.7-1.1c2.3-0.8,4-3,4-5.2v-0.6h-3.5v-1.2h8.4v1.2
			h-3.5v0.6C955.2,256.7,956.7,258.6,959,259.4z M962.8,264.5c0,1.8-2,2.9-5.2,2.9c-3.3,0-5.2-1.1-5.2-2.9s2-2.9,5.2-2.9
			S962.8,262.7,962.8,264.5z M953.6,264.5c0,1.1,1.5,1.8,3.9,1.8s3.9-0.7,3.9-1.8c0-1.1-1.5-1.8-3.9-1.8S953.6,263.4,953.6,264.5z
			 M962.7,261.1h-1.4V257h-3.1v-1.1h3.1v-4.1h1.4V261.1z"/>
	</g>
	<g class="st8">
		<path d="M1066.1,266l4.7-12.7h1.7l4.7,12.7h-1.7l-1.3-3.6h-5.1l-1.3,3.6H1066.1z M1073.7,261l-2-5.7h-0.1l-2,5.7H1073.7z"/>
		<path d="M1080.4,266h-1.6v-12.7h1.6V266z"/>
		<path d="M1096.5,258.4l-0.7,1.1c-1.8-0.6-3.3-1.9-4-3.6c-0.7,1.8-2.2,3.3-4,3.9l-0.7-1.1c2.4-0.8,4-2.9,4-5.2v-1.2h1.4v1.2
			C1092.5,255.7,1094.2,257.6,1096.5,258.4z M1099.9,264.4h-8.8v1.7h9.3v1.1h-10.7v-3.9h8.8v-1.6h-8.8v-1.1h10.2V264.4z
			 M1099.9,259.9h-1.4v-8.1h1.4V259.9z"/>
		<path d="M1110.5,254.8h-8v-1.1h3.3v-1.8h1.4v1.8h3.3V254.8z M1109.8,258.3c0,1.6-1.4,2.7-3.4,2.7c-2,0-3.4-1.1-3.3-2.7
			c0-1.6,1.4-2.7,3.3-2.7C1108.5,255.6,1109.8,256.7,1109.8,258.3z M1104.4,258.3c0,1,0.9,1.6,2.1,1.6s2.1-0.7,2.1-1.6
			c0-1-0.9-1.7-2.1-1.7S1104.4,257.3,1104.4,258.3z M1115.9,264.7c0,1.7-2,2.7-5.3,2.7s-5.3-1-5.2-2.7c0-1.8,2-2.7,5.2-2.7
			S1115.9,262.9,1115.9,264.7z M1106.8,264.7c0,1,1.4,1.6,3.9,1.6s3.9-0.6,3.9-1.6c0-1.1-1.5-1.7-3.9-1.7
			C1108.2,263,1106.7,263.6,1106.8,264.7z M1115.8,261.7h-1.3v-4.5h-2.1v3.9h-1.3v-9h1.3v4h2.1v-4.3h1.3V261.7z"/>
		<path d="M1122.7,262.7c1.7-0.1,3.5-0.2,5.1-0.4l0.1,1c-3.3,0.5-7,0.6-9.8,0.6l-0.2-1.1c1,0,2.2,0,3.4-0.1V258h1.4V262.7z
			 M1126.7,254.3c0,1.2,0,3.3-0.5,6.2l-1.4-0.1c0.4-2.6,0.5-4.5,0.5-5.8h-6.6v-1.1h7.9V254.3z M1130.1,258.3h2.5v1.2h-2.5v7.9h-1.4
			v-15.6h1.4V258.3z"/>
		<path d="M1141.6,262.9l-0.8,1c-1.5-0.9-2.6-2.6-3.2-4.6c-0.6,2.2-1.7,4-3.3,5l-0.9-1c2.2-1.3,3.4-4.1,3.4-7v-1.5h-3v-1.1h7.2v1.1
			h-2.9v1.5C1138.2,259,1139.4,261.7,1141.6,262.9z M1143.8,266.6h-1.3v-8.1h-2.6v-1.1h2.6v-5.3h1.3V266.6z M1147,267.4h-1.3v-15.6
			h1.3V267.4z"/>
		<path d="M1166.3,260.3h-4.8v4h6.5v1.2h-14.3v-1.2h6.4v-4h-4.6v-7.2h10.6v1.1h-9.2v4.9h9.4V260.3z"/>
		<path d="M1183.5,259.8h-6.5v1.5h4.6v3.4h-9.3v1.5h9.8v1.1H1171v-3.6h9.3v-1.4h-9.3v-1h4.7v-1.5h-6.4v-1.1h14.2V259.8z
			 M1177.1,253.2h5v1.1h-4.9c0.3,1.6,2.7,2.5,5.6,2.7l-0.4,1.1c-2.6-0.2-5-1-5.9-2.5c-1,1.5-3.3,2.3-5.9,2.5l-0.4-1.1
			c2.9-0.2,5.3-1.2,5.6-2.7h-4.9v-1.1h5v-1.5h1.4V253.2z"/>
	</g>
	<g class="st8">
		<path d="M59.7,341.2h-1.4v-2.1h-4.1v-1.1h4.1v-2.1h-4c-1,2.5-3.4,4.3-6.8,5.3l-0.6-1.1c3.8-1.1,6.1-3.2,6.4-5.9h-5.6V333h7.1
			c0,0.6-0.1,1.2-0.2,1.8h3.6v-2.9h1.4V341.2z M59.7,344.3c0,1.9-2,3-5.2,3c-3.2,0-5.2-1.1-5.2-3c0-1.9,2-3,5.2-3
			C57.7,341.4,59.7,342.5,59.7,344.3z M50.7,344.3c0,1.2,1.5,1.9,3.9,1.9c2.3,0,3.8-0.7,3.8-1.9c0-1.2-1.5-1.9-3.8-1.9
			C52.2,342.4,50.7,343.2,50.7,344.3z"/>
		<path d="M69.7,334.1h4.1v-2.3h1.4v9.3h-1.4v-2.2h-4.1c-0.7,0.8-1.9,1.3-3.2,1.3c-2.3,0-4.1-1.5-4.1-3.7c0-2.2,1.7-3.7,4.1-3.7
			C67.9,332.7,69,333.2,69.7,334.1z M63.8,336.5c0,1.5,1.1,2.5,2.7,2.5c1.5,0,2.7-1.1,2.7-2.5c0-1.5-1.2-2.5-2.7-2.5
			C65,333.9,63.8,335,63.8,336.5z M75.3,344.4c0,1.9-2,3-5.2,3c-3.3,0-5.2-1.1-5.2-3c0-1.9,2-3,5.2-3
			C73.3,341.4,75.3,342.5,75.3,344.4z M66.1,344.4c0,1.2,1.5,1.9,3.9,1.9c2.4,0,3.9-0.7,3.9-1.9s-1.5-1.9-3.9-1.9
			C67.6,342.5,66.1,343.2,66.1,344.4z M70.6,336.5c0,0.4-0.1,0.9-0.2,1.2h3.4v-2.5h-3.4C70.5,335.6,70.6,336,70.6,336.5z"/>
		<path d="M87.4,339.9l-0.7,1.1c-1.8-0.6-3.3-1.9-4-3.6c-0.7,1.8-2.2,3.2-4,3.9l-0.7-1.1c2.3-0.8,4-2.8,4-5.1v-0.9h-3.7v-1.1H87v1.1
			h-3.6v0.9C83.4,337.3,85.1,339.2,87.4,339.9z M91.2,347.1H80.6v-4.9H82v3.7h9.2V347.1z M90.7,343.3h-1.4v-11.5h1.4V343.3z"/>
		<path d="M106.5,336.7c0,2.3-1.8,3.8-4.1,3.8s-4.1-1.6-4.1-3.8c0-2.2,1.8-3.8,4.1-3.8S106.5,334.5,106.5,336.7z M99.6,336.7
			c0,1.6,1.2,2.6,2.7,2.6c1.5,0,2.7-1.1,2.7-2.6c0-1.5-1.2-2.6-2.7-2.6C100.8,334.1,99.6,335.2,99.6,336.7z M111.3,347.1h-10.6v-5
			h1.4v3.8h9.2V347.1z M110.8,343.2h-1.4v-11.4h1.4V343.2z"/>
		<path d="M121.5,334.4h-5.9v3.3h5.2v1.1h-5.2v3.8c2.9,0,4.7-0.1,6.9-0.5l0.2,1.1c-2.3,0.4-4.2,0.5-7.2,0.5h-1.2v-10.4h7.3V334.4z
			 M126.4,347.5H125v-8.6h-3.3v-1.1h3.3v-5.9h1.4V347.5z"/>
		<path d="M143.3,342.1h-3.7v5.3h-1.4v-5.3H134v5.3h-1.4v-5.3H129v-1.2h14.3V342.1z M132.2,334.6h7.9v-2.1h1.4v6.6h-10.6v-6.6h1.4
			V334.6z M140.1,337.9v-2.3h-7.9v2.3H140.1z"/>
	</g>
	<g class="st8">
		<path d="M462.7,334l4.7-12.7h1.7l4.7,12.7H472l-1.3-3.6h-5.1l-1.3,3.6H462.7z M470.2,329l-2-5.7h-0.1l-2,5.7H470.2z"/>
		<path d="M477,334h-1.6v-12.7h1.6V334z"/>
		<path d="M497.8,333.4h-14.3v-1.2h6.4v-3.8h-4.7v-7.3h10.8v7.3h-4.7v3.8h6.5V333.4z M486.6,327.3h8.2v-5.1h-8.2V327.3z"/>
		<path d="M505.8,321.8h-4.6v4.4c2.1,0,3.6-0.1,5.4-0.4l0.1,1.1c-1.9,0.3-3.4,0.4-5.8,0.4h-1v-6.6h6V321.8z M512.4,332.5h-9v1.7h9.6
			v1.1h-11v-3.8h9v-1.5H502v-1.1h10.4V332.5z M509.4,328h-1.3v-3.6h-3.2v-1.1h3.2v-3.1h1.3V328z M512.4,328.1h-1.3v-8.3h1.3V328.1z"
			/>
		<path d="M528.4,327.4l-0.7,1.1c-1.8-0.6-3.1-1.9-3.8-3.6c-0.7,1.8-2.1,3.2-4,3.9l-0.7-1.1c2.3-0.8,4-2.9,4-5.1V322h-3.5v-1.1h8.4
			v1.1h-3.5v0.7C524.6,324.7,526.2,326.7,528.4,327.4z M532.1,335.4h-1.4v-4.3h-9.1V330h10.5V335.4z M532.1,329.2h-1.4v-4.1h-3.1
			v-1.2h3.1v-4.1h1.4V329.2z"/>
		<path d="M549,328.7h-14.2v-1.1h3.5v-2.2c-1.2-0.5-2-1.3-2-2.3c0-1.8,2.1-2.9,5.5-2.9c3.4,0,5.5,1.1,5.5,2.9c0,1-0.7,1.8-1.9,2.3
			v2.2h3.5V328.7z M547.2,332.6c0,1.8-2,2.8-5.4,2.8c-3.4,0-5.4-1-5.4-2.8c0-1.8,2-2.8,5.4-2.8C545.2,329.9,547.2,330.8,547.2,332.6
			z M537.7,323c0,1.1,1.6,1.8,4.1,1.8c2.5,0,4.1-0.7,4.1-1.8c0-1.1-1.6-1.8-4.1-1.8C539.3,321.2,537.7,321.9,537.7,323z
			 M537.8,332.6c0,1.1,1.5,1.7,4,1.7c2.5,0,4-0.6,4-1.7c0-1.1-1.5-1.7-4-1.7C539.3,330.9,537.8,331.6,537.8,332.6z M544,327.5v-1.8
			c-0.7,0.1-1.4,0.2-2.2,0.2s-1.6-0.1-2.2-0.2v1.8H544z"/>
	</g>
	<g class="st8">
		<path d="M475.3,348.2h4.6v-2.4h1.4v7.2h-7.3v-7.2h1.4V348.2z M479.8,351.9v-2.6h-4.6v2.6H479.8z M485.6,357.5
			c0,1.8-1.9,2.9-5.2,2.9c-3.2,0-5.2-1.1-5.2-2.9c0-1.8,2-2.9,5.2-2.9S485.6,355.7,485.6,357.5z M476.7,357.5c0,1.1,1.4,1.8,3.8,1.8
			c2.4,0,3.8-0.7,3.8-1.8s-1.4-1.8-3.8-1.8C478.1,355.7,476.7,356.4,476.7,357.5z M485.5,348.7h2.4v1.2h-2.4v4.3h-1.4v-9.4h1.4
			V348.7z"/>
		<path d="M497.3,349.8c0,2.3-1.8,3.8-4.1,3.8s-4.1-1.6-4.1-3.8c0-2.3,1.8-3.8,4.1-3.8S497.3,347.5,497.3,349.8z M490.5,349.8
			c0,1.5,1.2,2.6,2.7,2.6c1.6,0,2.8-1.1,2.8-2.6s-1.2-2.6-2.8-2.6C491.7,347.1,490.5,348.2,490.5,349.8z M501.8,360.1h-10.5v-5h1.4
			v3.8h9.1V360.1z M501,349.6h2.4v1.2H501v5.6h-1.4v-11.5h1.4V349.6z"/>
		<path d="M523.1,354.8h-6.5v5.7h-1.4v-5.7h-6.4v-1.2h14.2V354.8z M522.4,350.8l-0.6,1.1c-2.4-0.4-4.8-1.7-5.8-3.7
			c-1,1.9-3.4,3.3-5.8,3.7l-0.6-1.1c2.8-0.4,5.7-2.3,5.7-4.5v-0.9h1.4v0.9C516.7,348.5,519.6,350.4,522.4,350.8z"/>
		<path d="M532.4,349.8h-5.8v2.1c2.8,0,4.9-0.1,7.4-0.5l0.2,1.1c-2.6,0.4-4.8,0.5-7.6,0.5h-1.3v-4.4h5.7v-2h-5.8v-1.1h7.1V349.8z
			 M528.6,356h7.4v-1.9h1.4v6h-10.2v-6h1.4V356z M536,359.1v-1.9h-7.4v1.9H536z M537.4,353.4H536v-8.6h1.4V353.4z"/>
	</g>
	<g class="st8">
		<path d="M255.2,334v-12.7h4.1c3.7,0,5.9,2.4,5.9,6.3c0,4-2.2,6.4-6.1,6.4H255.2z M259.1,332.6c3.1,0,4.6-1.9,4.6-5
			c0-3.1-1.5-4.9-4.5-4.9h-2.4v9.9H259.1z"/>
		<path d="M271.4,326.5h0.1l3.3-5.3h1.9l-4,6.4l4,6.4h-1.9l-3.3-5.2h-0.1l-3.3,5.2h-1.9l4.1-6.4l-4.1-6.4h1.9L271.4,326.5z"/>
		<path d="M284.1,323.2h4.6v-2.4h1.4v7.2h-7.3v-7.2h1.4V323.2z M288.7,326.9v-2.6h-4.6v2.6H288.7z M294.4,332.5
			c0,1.8-1.9,2.9-5.2,2.9c-3.2,0-5.2-1.1-5.2-2.9c0-1.8,2-2.9,5.2-2.9S294.4,330.7,294.4,332.5z M285.5,332.5c0,1.1,1.4,1.8,3.8,1.8
			c2.4,0,3.8-0.7,3.8-1.8s-1.4-1.8-3.8-1.8C286.9,330.7,285.5,331.4,285.5,332.5z M294.3,323.7h2.4v1.2h-2.4v4.3h-1.4v-9.4h1.4
			V323.7z"/>
		<path d="M307,322.7h-9.3v-1.1h4v-1.9h1.4v1.9h4V322.7z M306.1,326.2c0,1.7-1.5,2.8-3.8,2.8c-2.3,0-3.8-1.1-3.8-2.8
			c0-1.7,1.5-2.8,3.8-2.8C304.6,323.5,306.1,324.6,306.1,326.2z M310,332.7c0,1.7-1.9,2.7-5.1,2.7s-5.1-1-5.1-2.7
			c0-1.7,1.9-2.7,5.1-2.7S310,331,310,332.7z M299.9,326.2c0,1,1,1.7,2.4,1.7c1.5,0,2.4-0.7,2.5-1.7c0-1-1-1.7-2.5-1.7
			C300.9,324.5,299.9,325.2,299.9,326.2z M301.2,332.7c0,1,1.4,1.6,3.7,1.6s3.7-0.6,3.7-1.6c0-1-1.4-1.6-3.7-1.6
			S301.2,331.7,301.2,332.7z M312.2,323.7h-2.3v2.2h2.3v1.2h-2.3v2.9h-1.4v-10.1h1.4v2.7h2.3V323.7z"/>
		<path d="M322.4,327.2l-0.8,1.1c-1.7-0.7-3.1-1.9-3.7-3.6c-0.7,1.9-2.1,3.3-4,4l-0.8-1.1c2.4-0.8,4-2.9,4-5.3v-1.6h1.4v1.6
			C318.6,324.5,320.1,326.5,322.4,327.2z M326.2,332.5c0,1.9-2,2.9-5.2,2.9s-5.2-1.1-5.2-2.9c0-1.9,2-3,5.2-3
			S326.2,330.6,326.2,332.5z M317.1,332.5c0,1.1,1.5,1.8,3.9,1.8s3.9-0.7,3.9-1.8c0-1.2-1.5-1.9-3.9-1.9S317.1,331.3,317.1,332.5z
			 M326.2,329.1h-1.4v-4.8h-3.5v-1.1h3.5v-3.4h1.4V329.1z"/>
		<path d="M341.4,327.2h-7.3v-6.4h7.3V327.2z M347.1,334.3l-0.5,1.1c-2.4-0.3-4.5-1.4-5.4-2.9c-0.9,1.5-3.1,2.6-5.5,2.9l-0.5-1.1
			c2.7-0.3,5.3-1.8,5.3-3.4h-4.6v-1.1h4.6v-1.5h1.4v1.5h4.7v1.1h-4.6C341.9,332.5,344.4,334,347.1,334.3z M335.5,326.1h4.6v-4.1
			h-4.6V326.1z M346.2,328.8h-1.4v-9h1.4V328.8z"/>
	</g>
	<g class="st8">
		<path d="M277.5,352.8l-0.7,1.1c-1.8-0.6-3.1-2-3.8-3.6c-0.7,1.8-2.1,3.2-4,3.9l-0.7-1.1c2.3-0.8,4-2.9,4-5.1v-0.8h-3.5v-1.1h8.4
			v1.1h-3.5v0.8C273.7,350.1,275.3,352,277.5,352.8z M281.7,360.1h-10.5v-4.9h1.4v3.7h9.1V360.1z M281.2,356.3h-1.4v-6h-3.2v-1.1
			h3.2v-4.3h1.4V356.3z"/>
		<path d="M291.6,350.1h-5.7v2.3c2.8,0,4.8-0.1,7.2-0.5l0.1,1.1c-2.5,0.4-4.6,0.5-7.5,0.5h-1.2V349h5.7v-2.1h-5.7v-1.1h7.1V350.1z
			 M296,360.4h-1.4v-4.2h-8.9v-1.1H296V360.4z M298.4,348.5H296v2.1h2.4v1.2H296v2.6h-1.4v-9.5h1.4v2.5h2.4V348.5z"/>
		<path d="M318.1,354.8h-6.5v5.7h-1.4v-5.7h-6.4v-1.2h14.2V354.8z M317.4,350.8l-0.6,1.1c-2.4-0.4-4.8-1.7-5.8-3.7
			c-1,1.9-3.4,3.3-5.8,3.7l-0.6-1.1c2.8-0.4,5.7-2.3,5.7-4.5v-0.9h1.4v0.9C311.7,348.5,314.6,350.4,317.4,350.8z"/>
		<path d="M327.4,349.8h-5.8v2.1c2.8,0,4.9-0.1,7.4-0.5l0.2,1.1c-2.6,0.4-4.8,0.5-7.6,0.5h-1.3v-4.4h5.7v-2h-5.8v-1.1h7.1V349.8z
			 M323.6,356h7.4v-1.9h1.4v6h-10.2v-6h1.4V356z M331,359.1v-1.9h-7.4v1.9H331z M332.4,353.4H331v-8.6h1.4V353.4z"/>
	</g>
	<g class="st8">
		<path d="M874.7,346l4.7-12.7h1.7l4.7,12.7H884l-1.3-3.6h-5.1l-1.3,3.6H874.7z M882.2,341l-2-5.7h-0.1l-2,5.7H882.2z"/>
		<path d="M889,346h-1.6v-12.7h1.6V346z"/>
		<path d="M909.8,345.4h-14.3v-1.2h6.4v-3.8h-4.7v-7.3h10.8v7.3h-4.7v3.8h6.5V345.4z M898.6,339.3h8.2v-5.1h-8.2V339.3z"/>
		<path d="M917.8,333.8h-4.6v4.4c2.1,0,3.6-0.1,5.4-0.4l0.1,1.1c-1.9,0.3-3.4,0.4-5.8,0.4h-1v-6.6h6V333.8z M924.4,344.5h-9v1.7h9.6
			v1.1h-11v-3.8h9v-1.5H914v-1.1h10.4V344.5z M921.4,340h-1.3v-3.6h-3.2v-1.1h3.2v-3.1h1.3V340z M924.4,340.1h-1.3v-8.3h1.3V340.1z"
			/>
		<path d="M939.9,334.1h-1.6v5c0.7,0,1.4-0.1,2.1-0.2l0.1,1.1c-3,0.5-6.6,0.5-9.1,0.5l-0.2-1.2l2,0v-5.2h-1.6V333h8.3V334.1z
			 M944.2,344.6c0,1.8-2,2.8-5.2,2.8s-5.2-1-5.2-2.8c0-1.8,2-2.8,5.2-2.8S944.2,342.8,944.2,344.6z M937,339.2v-5.1h-2.4v5.2
			C935.3,339.3,936.2,339.3,937,339.2z M935.1,344.6c0,1.1,1.5,1.7,3.9,1.7s3.9-0.6,3.9-1.7c0-1.1-1.5-1.7-3.9-1.7
			S935,343.5,935.1,344.6z M944.1,341.4h-1.4v-2.9h-2.6v-1.1h2.6v-1.7h-2.6v-1.1h2.6v-2.8h1.4V341.4z"/>
		<path d="M947.6,344.5l-0.8-1.1c4-2,6.2-5,6.6-8.7h-5.8v-1.2h7.2C954.8,337.9,952.7,341.9,947.6,344.5z M958.8,338.2h2.5v1.2h-2.5
			v8.1h-1.4v-15.6h1.4V338.2z"/>
	</g>
	<g class="st8">
		<path d="M1099.5,334l4.7-12.7h1.7l4.7,12.7h-1.7l-1.3-3.6h-5.1l-1.3,3.6H1099.5z M1107.1,329l-2-5.7h-0.1l-2,5.7H1107.1z"/>
		<path d="M1113.8,334h-1.6v-12.7h1.6V334z"/>
		<path d="M1129.9,326.4l-0.7,1.1c-1.8-0.6-3.3-1.9-4-3.6c-0.7,1.8-2.2,3.3-4,3.9l-0.7-1.1c2.4-0.8,4-2.9,4-5.2v-1.2h1.4v1.2
			C1125.9,323.7,1127.5,325.6,1129.9,326.4z M1133.2,332.4h-8.8v1.7h9.3v1.1h-10.7v-3.9h8.8v-1.6h-8.8v-1.1h10.2V332.4z
			 M1133.2,327.9h-1.4v-8.1h1.4V327.9z"/>
		<path d="M1143.8,322.8h-8v-1.1h3.3v-1.8h1.4v1.8h3.3V322.8z M1143.2,326.3c0,1.6-1.4,2.7-3.4,2.7c-2,0-3.4-1.1-3.3-2.7
			c0-1.6,1.4-2.7,3.3-2.7C1141.8,323.6,1143.2,324.7,1143.2,326.3z M1137.7,326.3c0,1,0.9,1.6,2.1,1.6s2.1-0.7,2.1-1.6
			c0-1-0.9-1.7-2.1-1.7S1137.7,325.3,1137.7,326.3z M1149.3,332.7c0,1.7-2,2.7-5.3,2.7s-5.3-1-5.2-2.7c0-1.8,2-2.7,5.2-2.7
			S1149.3,330.9,1149.3,332.7z M1140.1,332.7c0,1,1.4,1.6,3.9,1.6s3.9-0.6,3.9-1.6c0-1.1-1.5-1.7-3.9-1.7
			C1141.6,331,1140.1,331.6,1140.1,332.7z M1149.2,329.7h-1.3v-4.5h-2.1v3.9h-1.3v-9h1.3v4h2.1v-4.3h1.3V329.7z"/>
	</g>
	<g class="st8">
		<path d="M1098.8,358.5h-14.3v-1.2h6.4v-3h-4.6v-4.8h9.4v-2.5h-9.4V346h10.7v4.7h-9.3v2.5h9.7v1.1h-5.1v3h6.5V358.5z"/>
		<path d="M1114.3,358.3H1100v-1.2h14.3V358.3z M1112.7,353.5h-10.8v-7.2h10.6v1.1h-9.3v4.9h9.4V353.5z"/>
		<path d="M1122.4,352.5h-6v-6.6h6V352.5z M1117.6,351.4h3.5V347h-3.5V351.4z M1119.9,355.9h7.6V354h1.4v6.2h-10.3V354h1.4V355.9z
			 M1127.5,359.1V357h-7.6v2.1H1127.5z M1128.9,353.3h-1.3v-3.8h-2.1v3.6h-1.3v-8.1h1.3v3.3h2.1v-3.6h1.3V353.3z"/>
		<path d="M1149.9,354.8h-6.5v5.7h-1.4v-5.7h-6.4v-1.2h14.2V354.8z M1149.2,350.8l-0.6,1.1c-2.4-0.4-4.8-1.7-5.8-3.7
			c-1,1.9-3.4,3.3-5.8,3.7l-0.6-1.1c2.8-0.4,5.7-2.3,5.7-4.5v-0.9h1.4v0.9C1143.5,348.5,1146.4,350.4,1149.2,350.8z"/>
		<path d="M1159.2,349.8h-5.8v2.1c2.8,0,4.9-0.1,7.4-0.5l0.2,1.1c-2.6,0.4-4.8,0.5-7.6,0.5h-1.3v-4.4h5.7v-2h-5.8v-1.1h7.1V349.8z
			 M1155.4,356h7.4v-1.9h1.4v6H1154v-6h1.4V356z M1162.8,359.1v-1.9h-7.4v1.9H1162.8z M1164.1,353.4h-1.4v-8.6h1.4V353.4z"/>
	</g>
	<g class="st8">
		<path d="M40.5,426v-12.7h4.1c3.7,0,5.9,2.4,5.9,6.3c0,4-2.2,6.4-6.1,6.4H40.5z M44.3,424.6c3.1,0,4.6-1.9,4.6-5
			c0-3.1-1.5-4.9-4.5-4.9H42v9.9H44.3z"/>
		<path d="M56.6,418.5h0.1l3.3-5.3h1.9l-4,6.4l4,6.4H60l-3.3-5.2h-0.1l-3.3,5.2h-1.9l4.1-6.4l-4.1-6.4h1.9L56.6,418.5z"/>
		<path d="M63.8,427.9h-1.4l4.1-15.2h1.4L63.8,427.9z"/>
		<path d="M68.5,426l4.7-12.7h1.7l4.7,12.7h-1.7l-1.3-3.6h-5.1l-1.3,3.6H68.5z M76.1,421l-2-5.7h-0.1l-2,5.7H76.1z"/>
		<path d="M82.8,426h-1.6v-12.7h1.6V426z"/>
		<path d="M102.3,421h-1.4v-2.2h-4c-0.7,0.9-1.9,1.4-3.2,1.4c-2.3,0-4.1-1.5-4.1-3.7c0-2.2,1.7-3.7,4.1-3.7c1.3,0,2.5,0.5,3.2,1.4h4
			v-2.3h1.4V421z M90.9,416.4c0,1.5,1.1,2.6,2.7,2.6c1.5,0,2.7-1.1,2.7-2.6c0-1.5-1.2-2.5-2.7-2.5C92.1,413.9,90.9,414.9,90.9,416.4
			z M102.3,427.4h-1.4V423h-9.1v-1.1h10.5V427.4z M100.9,417.6v-2.4h-3.4c0.1,0.4,0.2,0.8,0.2,1.2s-0.1,0.8-0.2,1.2H100.9z"/>
		<path d="M112.7,417H107v2.2c2.8,0,4.8-0.1,7.2-0.5l0.1,1.2c-2.5,0.4-4.6,0.5-7.5,0.5h-1.2v-4.4h5.7v-2h-5.7v-1.1h7.1V417z
			 M117.3,424.6c0,1.8-2,2.8-5.2,2.8c-3.2,0-5.2-1-5.2-2.8s2-2.8,5.2-2.8C115.3,421.7,117.3,422.8,117.3,424.6z M108.3,424.6
			c0,1.1,1.4,1.7,3.8,1.7c2.4,0,3.8-0.7,3.8-1.7c0-1.1-1.4-1.8-3.8-1.8C109.7,422.8,108.3,423.5,108.3,424.6z M119.5,415.4h-2.4v2.1
			h2.4v1.2h-2.4v2.5h-1.4v-9.5h1.4v2.4h2.4V415.4z"/>
		<path d="M130.1,419.9l-0.7,1.1c-1.8-0.6-3.3-1.9-4-3.6c-0.7,1.8-2.2,3.2-4,3.9l-0.7-1.1c2.3-0.8,4-2.8,4-5.1v-0.9h-3.7v-1.1h8.6
			v1.1h-3.6v0.9C126.1,417.3,127.8,419.2,130.1,419.9z M133.9,427.1h-10.6v-4.9h1.4v3.7h9.2V427.1z M133.4,423.3H132v-11.5h1.4
			V423.3z"/>
		<path d="M143.7,414.3h-5.6v4.9c3.1,0,4.9-0.1,7-0.5l0.2,1.1c-2.2,0.4-4.1,0.5-7.3,0.5h-1.2v-7.2h7V414.3z M149,427.1h-10.5V422
			h1.4v4h9.1V427.1z M148.2,416.5h2.4v1.2h-2.4v5.5h-1.4v-11.3h1.4V416.5z"/>
	</g>
	<g class="st8">
		<path d="M269.9,402.5h-6v7.9c3,0,5-0.1,7.4-0.5l0.1,1.2c-2.4,0.4-4.5,0.5-7.6,0.5h-1.3v-10.3h7.4V402.5z M274.4,415.5H273v-15.7
			h1.4V415.5z"/>
		<path d="M286.9,410.9l-0.8,1.1c-1.8-0.8-3.4-2.6-4.1-4.8c-0.7,2.3-2.3,4.3-4.1,5.2l-0.8-1.1c2.2-1.1,4.2-4,4.2-6.7v-2h-3.7v-1.1
			h8.8v1.1h-3.7v2C282.6,407.3,284.6,409.9,286.9,410.9z M289.9,415.4h-1.4v-15.6h1.4V415.4z"/>
		<path d="M300.5,401.9h-5.7v1.7h5.3v1.1h-5.3v1.9c2.9,0,4.5-0.1,6.6-0.4l0.1,1.1c-2.1,0.4-3.8,0.4-6.9,0.4h-1.1v-6.9h7.1V401.9z
			 M305.5,412.6h-8.7v1.6h9.3v1.1h-10.7v-3.7h8.7v-1.5h-8.8V409h10.1V412.6z M305.5,408.3h-1.4v-3.7h-3v-1.1h3v-3.6h1.4V408.3z"/>
		<path d="M322,407.8l-0.7,1.1c-1.8-0.6-3.1-2-3.8-3.6c-0.7,1.8-2.1,3.2-4,3.9l-0.7-1.1c2.3-0.8,4-2.9,4-5.1v-0.8h-3.5v-1.1h8.4v1.1
			h-3.5v0.8C318.1,405.1,319.7,407,322,407.8z M326.1,415.1h-10.5v-4.9h1.4v3.7h9.1V415.1z M325.6,411.3h-1.4v-6H321v-1.1h3.2v-4.3
			h1.4V411.3z"/>
		<path d="M332.4,409v-1.2c-1.8-0.2-3-1-3-2.4c0-1.5,1.5-2.4,3.7-2.4c2.2,0,3.7,0.9,3.7,2.4c0,1.3-1.2,2.2-3,2.4v1.1
			c1.5-0.1,2.9-0.2,4.3-0.4l0.1,1c-3.4,0.6-7.1,0.7-9.9,0.7l-0.2-1.1C329.4,409.1,330.9,409.1,332.4,409z M337.6,402.4h-9.1v-1h3.8
			v-1.6h1.4v1.6h3.8V402.4z M341,415.1h-10.5v-3.9h1.4v2.7h9.1V415.1z M330.7,405.5c0,0.9,0.9,1.4,2.3,1.4s2.4-0.5,2.4-1.4
			c0-0.9-0.9-1.4-2.4-1.4S330.7,404.6,330.7,405.5z M340.4,405.3h2.3v1.2h-2.3v5.6H339v-12.2h1.4V405.3z"/>
	</g>
	<g class="st8">
		<path d="M273.8,435.7c1.7-0.1,3.5-0.2,5.1-0.4l0.1,1c-3.3,0.5-7,0.6-9.8,0.6l-0.2-1.1c1,0,2.2,0,3.4-0.1V431h1.4V435.7z
			 M277.9,427.3c0,1.2,0,3.3-0.5,6.2l-1.4-0.1c0.4-2.6,0.5-4.5,0.5-5.8H270v-1.1h7.9V427.3z M281.3,431.3h2.5v1.2h-2.5v7.9h-1.4
			v-15.6h1.4V431.3z"/>
		<path d="M292.8,435.9l-0.8,1c-1.5-0.9-2.6-2.6-3.2-4.6c-0.6,2.2-1.7,4-3.3,5l-0.9-1c2.2-1.3,3.4-4.1,3.4-7v-1.5h-3v-1.1h7.2v1.1
			h-2.9v1.5C289.4,432,290.6,434.7,292.8,435.9z M295,439.6h-1.3v-8.1h-2.6v-1.1h2.6v-5.3h1.3V439.6z M298.2,440.4h-1.3v-15.6h1.3
			V440.4z"/>
		<path d="M317.5,433.3h-4.8v4h6.5v1.2h-14.3v-1.2h6.4v-4h-4.6v-7.2h10.6v1.1h-9.2v4.9h9.4V433.3z"/>
		<path d="M334.7,432.8h-6.5v1.5h4.6v3.4h-9.3v1.5h9.8v1.1h-11.1v-3.6h9.3v-1.4h-9.3v-1h4.7v-1.5h-6.4v-1.1h14.2V432.8z
			 M328.2,426.2h5v1.1h-4.9c0.3,1.6,2.7,2.5,5.6,2.7l-0.4,1.1c-2.6-0.2-5-1-5.9-2.5c-1,1.5-3.3,2.3-5.9,2.5l-0.4-1.1
			c2.9-0.2,5.3-1.2,5.6-2.7h-4.9v-1.1h5v-1.5h1.4V426.2z"/>
	</g>
	<g class="st8">
		<path d="M861.7,422.9l-0.8,1.1c-1.8-0.8-3.4-2.6-4.1-4.8c-0.7,2.3-2.3,4.3-4.1,5.2l-0.8-1.1c2.2-1.1,4.2-4,4.2-6.7v-2h-3.7v-1.1
			h8.8v1.1h-3.7v2C857.5,419.3,859.4,421.9,861.7,422.9z M864.8,427.4h-1.4v-15.6h1.4V427.4z"/>
		<path d="M881.7,420.3h-14.3v-1.1h14.3V420.3z M879.9,424.5c0,1.8-2,2.8-5.4,2.8c-3.4,0-5.4-1-5.4-2.8s2-2.8,5.4-2.8
			C877.9,421.7,879.9,422.7,879.9,424.5z M880.1,417.3h-10.7v-5.2h1.4v4.1h9.3V417.3z M870.6,424.5c0,1.1,1.5,1.8,4,1.8
			c2.5,0,4-0.7,4-1.8c0-1.1-1.5-1.7-4-1.7C872.1,422.8,870.6,423.4,870.6,424.5z"/>
		<path d="M887.1,423.2v-1.7c-1.8-0.2-3-1.3-3-2.8c0-1.8,1.5-2.9,3.7-2.9c2.2,0,3.7,1.1,3.7,2.9c0,1.5-1.2,2.6-3,2.8v1.7
			c1.5-0.1,2.9-0.2,4.3-0.4l0.1,1.1c-3.4,0.6-7.1,0.6-9.8,0.6l-0.2-1.2C884.1,423.3,885.6,423.3,887.1,423.2z M892.5,414.8h-9.4
			v-1.1h4v-1.9h1.4v1.9h4V414.8z M885.4,418.7c0,1.1,1,1.8,2.4,1.8c1.4,0,2.4-0.7,2.4-1.8s-1-1.8-2.4-1.8
			C886.4,416.8,885.4,417.6,885.4,418.7z M895.1,418.5h2.5v1.2h-2.5v7.8h-1.4v-15.6h1.4V418.5z"/>
		<path d="M912.4,419.4l-0.7,1.1c-1.8-0.6-3.1-1.9-3.8-3.6c-0.7,1.8-2.1,3.2-4,3.9l-0.7-1.1c2.3-0.8,4-2.9,4-5.1V414h-3.5v-1.1h8.4
			v1.1h-3.5v0.7C908.5,416.7,910.1,418.7,912.4,419.4z M916,427.4h-1.4v-4.3h-9.1V422H916V427.4z M916,421.2h-1.4v-4.1h-3.1v-1.2
			h3.1v-4.1h1.4V421.2z"/>
		<path d="M927.9,418.6l-0.7,1.1c-1.8-0.6-3.1-1.8-3.8-3.3c-0.7,1.7-2.2,3.1-4,3.7l-0.7-1.1c2.3-0.8,4-2.7,4-4.8v-0.4h-3.5v-1.1h8.4
			v1.1H924v0.5C924,416.1,925.6,417.9,927.9,418.6z M931.6,424.4h-8.7v1.7h9.3v1.1h-10.7v-3.9h8.7v-1.6h-8.8v-1.1h10.1V424.4z
			 M931.6,419.9h-1.4v-3.4h-3.1v-1.1h3.1v-3.5h1.4V419.9z"/>
		<path d="M943.4,419.2l-0.8,1.1c-1.7-0.7-3.1-1.9-3.7-3.6c-0.7,1.9-2.1,3.3-4,4l-0.8-1.1c2.4-0.8,4-2.9,4-5.3v-1.6h1.4v1.6
			C939.6,416.5,941.1,418.5,943.4,419.2z M947.2,424.5c0,1.9-2,2.9-5.2,2.9s-5.2-1.1-5.2-2.9c0-1.9,2-3,5.2-3
			S947.2,422.6,947.2,424.5z M938.1,424.5c0,1.1,1.5,1.8,3.9,1.8s3.9-0.7,3.9-1.8c0-1.2-1.5-1.9-3.9-1.9S938.1,423.3,938.1,424.5z
			 M947.1,421.1h-1.4v-4.8h-3.5v-1.1h3.5v-3.4h1.4V421.1z"/>
		<path d="M955,420.8l-0.6-1.1c3.7-1.1,6.1-3.1,6.4-5.8h-5.6v-1.1h7.1C962.3,416.7,959.5,419.5,955,420.8z M967.2,427.2h-10.1v-5.8
			h10.1V427.2z M958.4,426.1h7.4v-3.6h-7.4V426.1z M967.2,420.7h-1.4V417h-3.5v-1.2h3.5v-4h1.4V420.7z"/>
		<path d="M982.5,421.1h-4.9v3.3h6.5v1.1h-14.3v-1.1h6.4v-3.3h-4.6v-8h10.6v1.1h-9.2v2.2h8.9v1.1h-8.9v2.4h9.4V421.1z"/>
	</g>
	<g class="st8">
		<path d="M1100,419.6h6.5v1.1h-14.2v-1.1h6.4v-2.2h1.4V419.6z M1105.2,413.7h-5c0.1,1.7,2.7,3.1,5.4,3.4l-0.5,1.1
			c-2.6-0.3-5-1.4-5.8-3.2c-0.9,1.7-3.2,2.9-5.8,3.2l-0.5-1.1c2.7-0.3,5.3-1.6,5.4-3.4h-4.9v-1.1h11.7V413.7z M1104.8,424.7
			c0,1.7-2,2.7-5.4,2.7c-3.4,0-5.4-0.9-5.4-2.7s2-2.7,5.4-2.7C1102.7,422,1104.7,423,1104.8,424.7z M1095.4,424.7c0,1,1.5,1.6,4,1.6
			c2.5,0,4-0.6,4-1.6s-1.5-1.6-4-1.6C1096.8,423.1,1095.4,423.7,1095.4,424.7z"/>
		<path d="M1122.1,425.5h-14.3v-1.2h4v-3h-2.2v-4.8h9.4v-2.4h-9.4V413h10.7v4.7h-9.3v2.5h9.7v1.1h-2.4v3h3.9V425.5z M1116.9,424.3
			v-3h-3.7v3H1116.9z"/>
		<path d="M1142.2,425.4h-14.3v-1.1h6.4v-3.4h-4.7v-8h1.4v2.8h8.1v-2.8h1.4v8h-4.8v3.4h6.5V425.4z M1139.1,419.8v-2.9h-8.1v2.9
			H1139.1z"/>
		<path d="M1157.7,425.2h-14.2v-1.1h5.6v-5.6h1.4v5.6h7.3V425.2z M1156,414.9c0,1.9,0,4.1-0.6,7.2l-1.4-0.2c0.6-3,0.6-5.2,0.6-7
			v-0.4h-9.6v-1.1h11V414.9z"/>
	</g>
	<g class="st8">
		<path d="M268.9,482.5h-6v7.9c3,0,5-0.1,7.4-0.5l0.1,1.2c-2.4,0.4-4.5,0.5-7.6,0.5h-1.3v-10.3h7.4V482.5z M273.4,495.5H272v-15.7
			h1.4V495.5z"/>
		<path d="M285.9,490.9l-0.8,1.1c-1.8-0.8-3.4-2.6-4.1-4.8c-0.7,2.3-2.3,4.3-4.1,5.2l-0.8-1.1c2.2-1.1,4.2-4,4.2-6.7v-2h-3.7v-1.1
			h8.8v1.1h-3.7v2C281.6,487.3,283.6,489.9,285.9,490.9z M288.9,495.4h-1.4v-15.6h1.4V495.4z"/>
		<path d="M299.5,481.9h-5.7v1.7h5.3v1.1h-5.3v1.9c2.9,0,4.5-0.1,6.6-0.4l0.1,1.1c-2.1,0.4-3.8,0.4-6.9,0.4h-1.1v-6.9h7.1V481.9z
			 M304.5,492.6h-8.7v1.6h9.3v1.1h-10.7v-3.7h8.7v-1.5h-8.8V489h10.1V492.6z M304.5,488.3h-1.4v-3.7h-3v-1.1h3v-3.6h1.4V488.3z"/>
		<path d="M321,487.8l-0.7,1.1c-1.8-0.6-3.1-2-3.8-3.6c-0.7,1.8-2.1,3.2-4,3.9l-0.7-1.1c2.3-0.8,4-2.9,4-5.1v-0.8h-3.5v-1.1h8.4v1.1
			h-3.5v0.8C317.1,485.1,318.7,487,321,487.8z M325.1,495.1h-10.5v-4.9h1.4v3.7h9.1V495.1z M324.6,491.3h-1.4v-6H320v-1.1h3.2v-4.3
			h1.4V491.3z"/>
		<path d="M331.4,489v-1.2c-1.8-0.2-3-1-3-2.4c0-1.5,1.5-2.4,3.7-2.4c2.2,0,3.7,0.9,3.7,2.4c0,1.3-1.2,2.2-3,2.4v1.1
			c1.5-0.1,2.9-0.2,4.3-0.4l0.1,1c-3.4,0.6-7.1,0.7-9.9,0.7l-0.2-1.1C328.4,489.1,329.9,489.1,331.4,489z M336.6,482.4h-9.1v-1h3.8
			v-1.6h1.4v1.6h3.8V482.4z M340,495.1h-10.5v-3.9h1.4v2.7h9.1V495.1z M329.7,485.5c0,0.9,0.9,1.4,2.3,1.4s2.4-0.5,2.4-1.4
			c0-0.9-0.9-1.4-2.4-1.4S329.7,484.6,329.7,485.5z M339.4,485.3h2.3v1.2h-2.3v5.6H338v-12.2h1.4V485.3z"/>
	</g>
	<g class="st8">
		<path d="M274.8,518.5h-14.3v-1.2h6.4v-3h-4.6v-4.8h9.4v-2.5h-9.4V506H273v4.7h-9.3v2.5h9.7v1.1h-5.1v3h6.5V518.5z"/>
		<path d="M290.3,518.3H276v-1.2h14.3V518.3z M288.7,513.5h-10.8v-7.2h10.6v1.1h-9.3v4.9h9.4V513.5z"/>
		<path d="M298.4,512.5h-6v-6.6h6V512.5z M293.6,511.4h3.5V507h-3.5V511.4z M295.9,515.9h7.6V514h1.4v6.2h-10.3V514h1.4V515.9z
			 M303.5,519.1V517h-7.6v2.1H303.5z M304.9,513.3h-1.3v-3.8h-2.1v3.6h-1.3v-8.1h1.3v3.3h2.1v-3.6h1.3V513.3z"/>
		<path d="M325.9,514.8h-6.5v5.7h-1.4v-5.7h-6.4v-1.2h14.2V514.8z M325.2,510.8l-0.6,1.1c-2.4-0.4-4.8-1.7-5.8-3.7
			c-1,1.9-3.4,3.3-5.8,3.7l-0.6-1.1c2.8-0.4,5.7-2.3,5.7-4.5v-0.9h1.4v0.9C319.5,508.5,322.4,510.4,325.2,510.8z"/>
		<path d="M335.2,509.8h-5.8v2.1c2.8,0,4.9-0.1,7.4-0.5l0.2,1.1c-2.6,0.4-4.8,0.5-7.6,0.5h-1.3v-4.4h5.7v-2H328v-1.1h7.1V509.8z
			 M331.4,516h7.4v-1.9h1.4v6H330v-6h1.4V516z M338.8,519.1v-1.9h-7.4v1.9H338.8z M340.1,513.4h-1.4v-8.6h1.4V513.4z"/>
	</g>
	<g transform="matrix(1, 0, 0, 1, 570, 3113)">
		<circle id="타원_13-2" class="st0" cx="-371" cy="-3008" r="14"/>
	</g>
	<g transform="matrix(1, 0, 0, 1, 570, 3113)">
		<circle id="타원_14-2" class="st0" cx="-166" cy="-3008" r="14"/>
	</g>
	<g transform="matrix(1, 0, 0, 1, 570, 3113)">
		<circle id="타원_15-2" class="st0" cx="40" cy="-3008" r="14"/>
	</g>
	<g transform="matrix(1, 0, 0, 1, 570, 3113)">
		<circle id="타원_16-2" class="st0" cx="246" cy="-3008" r="14"/>
	</g>
	<g transform="matrix(1, 0, 0, 1, 570, 3113)">
		<circle id="타원_17-2" class="st0" cx="451" cy="-3008" r="14"/>
	</g>
	<path id="Icon_awesome-arrow-right" d="M197.9,99.1l0.7-0.7c0.3-0.3,0.8-0.3,1.1,0c0,0,0,0,0,0l6.1,6.1c0.3,0.3,0.3,0.8,0,1.1
		c0,0,0,0,0,0l-6.1,6.1c-0.3,0.3-0.8,0.3-1.1,0c0,0,0,0,0,0l-0.7-0.7c-0.3-0.3-0.3-0.8,0-1.1c0,0,0,0,0,0l3.8-3.6h-9
		c-0.4,0-0.7-0.3-0.8-0.7v-1c0-0.4,0.3-0.8,0.7-0.8c0,0,0,0,0,0h9l-3.8-3.6C197.7,99.9,197.6,99.4,197.9,99.1
		C197.9,99.1,197.9,99.1,197.9,99.1z"/>
	<path id="Icon_awesome-arrow-right-2" d="M402.9,99.1l0.7-0.7c0.3-0.3,0.8-0.3,1.1,0c0,0,0,0,0,0l6.1,6.1c0.3,0.3,0.3,0.8,0,1.1
		c0,0,0,0,0,0l-6.1,6.1c-0.3,0.3-0.8,0.3-1.1,0c0,0,0,0,0,0l-0.7-0.7c-0.3-0.3-0.3-0.8,0-1.1c0,0,0,0,0,0l3.8-3.6h-9
		c-0.4,0-0.7-0.3-0.8-0.7v-1c0-0.4,0.3-0.8,0.7-0.8c0,0,0,0,0,0h9l-3.8-3.6C402.7,99.9,402.6,99.4,402.9,99.1
		C402.9,99.1,402.9,99.1,402.9,99.1z"/>
	<path id="Icon_awesome-arrow-right-3" d="M608.9,99.1l0.7-0.7c0.3-0.3,0.8-0.3,1.1,0c0,0,0,0,0,0l6.1,6.1c0.3,0.3,0.3,0.8,0,1.1
		c0,0,0,0,0,0l-6.1,6.1c-0.3,0.3-0.8,0.3-1.1,0c0,0,0,0,0,0l-0.7-0.7c-0.3-0.3-0.3-0.8,0-1.1c0,0,0,0,0,0l3.8-3.6h-9
		c-0.4,0-0.7-0.3-0.8-0.7v-1c0-0.4,0.3-0.8,0.7-0.8c0,0,0,0,0,0h9l-3.8-3.6C608.7,99.9,608.6,99.4,608.9,99.1
		C608.9,99.1,608.9,99.1,608.9,99.1z"/>
	<path id="Icon_awesome-arrow-right-4" d="M814.9,99.1l0.7-0.7c0.3-0.3,0.8-0.3,1.1,0c0,0,0,0,0,0l6.1,6.1c0.3,0.3,0.3,0.8,0,1.1
		c0,0,0,0,0,0l-6.1,6.1c-0.3,0.3-0.8,0.3-1.1,0c0,0,0,0,0,0l-0.7-0.7c-0.3-0.3-0.3-0.8,0-1.1c0,0,0,0,0,0l3.8-3.6h-9
		c-0.4,0-0.7-0.3-0.8-0.7v-1c0-0.4,0.3-0.8,0.7-0.8c0,0,0,0,0,0h9l-3.8-3.6C814.7,99.9,814.6,99.4,814.9,99.1
		C814.9,99.1,814.9,99.1,814.9,99.1z"/>
	<path id="Icon_awesome-arrow-right-5" d="M1019.9,99.1l0.7-0.7c0.3-0.3,0.8-0.3,1.1,0c0,0,0,0,0,0l6.1,6.1c0.3,0.3,0.3,0.8,0,1.1
		c0,0,0,0,0,0l-6.1,6.1c-0.3,0.3-0.8,0.3-1.1,0c0,0,0,0,0,0l-0.7-0.7c-0.3-0.3-0.3-0.8,0-1.1c0,0,0,0,0,0l3.8-3.6h-9
		c-0.4,0-0.7-0.3-0.8-0.7v-1c0-0.4,0.3-0.8,0.7-0.8c0,0,0,0,0,0h9l-3.8-3.6C1019.7,99.9,1019.6,99.4,1019.9,99.1
		C1019.9,99.1,1019.9,99.1,1019.9,99.1z"/>
</g>
</svg>
