<?xml version="1.0" encoding="utf-8"?>
<!-- Generator: Adobe Illustrator 27.5.0, SVG Export Plug-In . SVG Version: 6.00 Build 0)  -->
<svg version="1.1" id="레이어_1" xmlns="http://www.w3.org/2000/svg" xmlns:xlink="http://www.w3.org/1999/xlink" x="0px"
	 y="0px" viewBox="0 0 749.8 778.6" style="enable-background:new 0 0 749.8 778.6;" xml:space="preserve">
<style type="text/css">
	.st0{fill:#E2E5EE;}
	.st1{opacity:0.5;}
	.st2{clip-path:url(#SVGID_00000133512337198152186420000012743308705785989771_);}
	.st3{clip-path:url(#SVGID_00000103257022269202581490000003205131901085092514_);}
	.st4{fill:#FFFFFF;}
	.st5{clip-path:url(#SVGID_00000031173928086978619250000009242129154897435273_);}
	.st6{fill:url(#사각형_5984_00000003074736489185315680000006184011543041398412_);}
	.st7{clip-path:url(#SVGID_00000044861949712882967400000007663902692349081773_);}
	.st8{clip-path:url(#SVGID_00000039108468638049755460000016907791067256221064_);}
	.st9{fill:url(#사각형_5990_00000105386558323227386650000012386210341210160527_);}
	.st10{clip-path:url(#SVGID_00000029753563469234484730000016134144066304974741_);}
	.st11{clip-path:url(#SVGID_00000134949793281298763610000000501643837319525527_);}
	.st12{fill:url(#사각형_5996_00000003788819233957303460000003493119834319276676_);}
	.st13{clip-path:url(#SVGID_00000152239724894556911510000000345813922794712241_);}
	.st14{clip-path:url(#SVGID_00000125571458122576041220000018376039924762227340_);}
	.st15{fill:url(#사각형_6002_00000183930208127704371640000007375583284294520739_);}
	.st16{clip-path:url(#SVGID_00000126283024939195092330000003656306586853722559_);}
	.st17{clip-path:url(#SVGID_00000149372842576838485840000001025802545922099361_);}
	.st18{fill:url(#사각형_6008_00000147190875528653743510000008136121736342733703_);}
	.st19{clip-path:url(#SVGID_00000173859599585382409170000014338868238268473529_);}
	.st20{fill:url(#사각형_6008-2_00000046321393691326452310000013695900746898416299_);}
	.st21{clip-path:url(#SVGID_00000088107202603787360950000003724643019869537959_);}
	.st22{clip-path:url(#SVGID_00000084530013319030233340000003688952725148848053_);}
	.st23{enable-background:new    ;}
</style>
<path id="패스_3321" class="st0" d="M616.7,382.9l-110.5-189c-4-6.9-11.4-11.1-19.4-11.1h-221c-8,0-15.3,4.2-19.4,11.1l-110.5,189
	c-4,6.8-4,15.3,0,22.1l110.5,189c4,6.9,11.4,11.1,19.4,11.1h221c8,0,15.3-4.2,19.4-11.1l110.5-189
	C620.7,398.1,620.7,389.7,616.7,382.9"/>
<image style="overflow:visible;opacity:0.5;enable-background:new    ;" width="178" height="154" id="사각형_5976" xlink:href="1632F146.png"  transform="matrix(2.7525 0 0 2.7525 131.3423 182.8359)">
</image>
<g id="그룹_8155" transform="translate(828.207 2507.988)" class="st1">
	<g id="그룹_8154">
		<g>
			<defs>
				<rect id="SVGID_1_" x="-620.7" y="-2257" width="337.6" height="296"/>
			</defs>
			<clipPath id="SVGID_00000090981379827462032050000016574956730902218632_">
				<use xlink:href="#SVGID_1_"  style="overflow:visible;"/>
			</clipPath>
			<g id="그룹_8153" style="clip-path:url(#SVGID_00000090981379827462032050000016574956730902218632_);">
				<g id="그룹_8152">
					<g>
						<defs>
							<rect id="SVGID_00000139283584300553585150000005748429522080472731_" x="-620.7" y="-2257" width="337.6" height="296"/>
						</defs>
						<clipPath id="SVGID_00000147217014016991589270000014379180778919671195_">
							<use xlink:href="#SVGID_00000139283584300553585150000005748429522080472731_"  style="overflow:visible;"/>
						</clipPath>
						<g id="그룹_8151" style="clip-path:url(#SVGID_00000147217014016991589270000014379180778919671195_);">
							
								<image style="overflow:visible;enable-background:new    ;" width="511" height="448" id="사각형_5977" xlink:href="1632F14A.png"  transform="matrix(0.6606 0 0 0.6606 -620.676 -2257)">
							</image>
						</g>
					</g>
				</g>
			</g>
		</g>
	</g>
</g>
<path id="패스_3322" class="st4" d="M588.2,381.5L490.9,215c-3.6-6.1-10.1-9.8-17.1-9.7H279c-7,0-13.5,3.7-17.1,9.7l-97.4,166.5
	c-3.5,6-3.5,13.5,0,19.5l97.4,166.5c3.6,6.1,10.1,9.8,17.1,9.7h194.7c7,0,13.5-3.7,17.1-9.7L588.2,401
	C591.8,395,591.8,387.5,588.2,381.5"/>
<g id="그룹_8164" transform="translate(868 2257)">
	<g>
		<defs>
			<path id="SVGID_00000114038547245857539340000004050776512205553832_" d="M-559.1-2251l-59.9,102.2c-2.2,3.7-2.2,8.2-0.1,12
				l57.5,102.3c2.1,3.7,6,6,10.2,6l117.4,0.1c4.3,0,8.2-2.3,10.4-6l59.9-102.2c2.2-3.7,2.2-8.2,0.1-12l-57.5-102.3
				c-2.1-3.7-6-6-10.2-6l-117.4-0.1C-553-2257-557-2254.7-559.1-2251"/>
		</defs>
		<clipPath id="SVGID_00000103987362096992739550000012683548809059454347_">
			<use xlink:href="#SVGID_00000114038547245857539340000004050776512205553832_"  style="overflow:visible;"/>
		</clipPath>
		<g id="그룹_8163" style="clip-path:url(#SVGID_00000103987362096992739550000012683548809059454347_);">
			
				<linearGradient id="사각형_5984_00000083791923828564711240000002942692876509519518_" gradientUnits="userSpaceOnUse" x1="-791.0689" y1="-1447.6816" x2="-789.3259" y2="-1447.0597" gradientTransform="matrix(286.6256 -187.2127 -182.2856 -279.0822 -37715.2656 -554168.4375)">
				<stop  offset="0" style="stop-color:#00BFDD"/>
				<stop  offset="6.000000e-02" style="stop-color:#00BCDC"/>
				<stop  offset="0.5" style="stop-color:#0066B3"/>
				<stop  offset="1" style="stop-color:#004394"/>
			</linearGradient>
			<polygon id="사각형_5984" style="fill:url(#사각형_5984_00000083791923828564711240000002942692876509519518_);" points="
				-725.9,-2188.6 -439.3,-2375.9 -257,-2096.8 -543.6,-1909.6 			"/>
		</g>
	</g>
</g>
<g id="그룹_8167" transform="translate(867.836 2257.125)" class="st1">
	<g id="그룹_8166">
		<g>
			<defs>
				<rect id="SVGID_00000135675171112142185700000009919221275273824428_" x="-620.7" y="-2257" width="195.2" height="226.9"/>
			</defs>
			<clipPath id="SVGID_00000157996559238708079560000018154170283240936069_">
				<use xlink:href="#SVGID_00000135675171112142185700000009919221275273824428_"  style="overflow:visible;"/>
			</clipPath>
			<g id="그룹_8165" style="clip-path:url(#SVGID_00000157996559238708079560000018154170283240936069_);">
				<path id="패스_3324" class="st4" d="M-431.4-2256.9l-117.4-0.1c-4.3,0-8.2,2.3-10.4,6l-59.9,102.2c-2.2,3.7-2.2,8.2-0.1,12
					l57.5,102.3c1,1.8,2.5,3.3,4.3,4.4l131.9-225.1C-427.3-2256.3-429.3-2256.9-431.4-2256.9"/>
			</g>
		</g>
	</g>
</g>
<g id="그룹_8176" transform="translate(1111 2393)">
	<g>
		<defs>
			<path id="SVGID_00000027576505699816012480000013345263211340274101_" d="M-559.1-2251l-59.9,102.2c-2.2,3.7-2.2,8.2-0.1,12
				l57.5,102.3c2.1,3.7,6,6,10.2,6l117.4,0.1c4.3,0,8.2-2.3,10.4-6l59.9-102.2c2.2-3.7,2.2-8.2,0.1-12l-57.5-102.3
				c-2.1-3.7-6-6-10.2-6l-117.4-0.1C-553-2257-557-2254.7-559.1-2251"/>
		</defs>
		<clipPath id="SVGID_00000031923765076145062360000000995074394489944706_">
			<use xlink:href="#SVGID_00000027576505699816012480000013345263211340274101_"  style="overflow:visible;"/>
		</clipPath>
		<g id="그룹_8175" style="clip-path:url(#SVGID_00000031923765076145062360000000995074394489944706_);">
			
				<linearGradient id="사각형_5990_00000091722568095844777770000009902461055716657086_" gradientUnits="userSpaceOnUse" x1="-1034.3821" y1="-1583.8035" x2="-1031.7521" y2="-1582.8235" gradientTransform="matrix(286.6248 -187.2121 -182.2861 -279.083 7142.1841 -637617.0625)">
				<stop  offset="0" style="stop-color:#00BFDD"/>
				<stop  offset="0.408" style="stop-color:#0066B3"/>
				<stop  offset="1" style="stop-color:#004394"/>
			</linearGradient>
			<polygon id="사각형_5990" style="fill:url(#사각형_5990_00000091722568095844777770000009902461055716657086_);" points="
				-725.9,-2188.7 -439.3,-2375.9 -257,-2096.8 -543.6,-1909.6 			"/>
		</g>
	</g>
</g>
<g id="그룹_8179" transform="translate(1110.697 2393.229)" class="st1">
	<g id="그룹_8178">
		<g>
			<defs>
				<rect id="SVGID_00000094600556785306395000000005096821655084664254_" x="-620.7" y="-2257" width="195.2" height="226.9"/>
			</defs>
			<clipPath id="SVGID_00000146495649065240667560000009334002642921592478_">
				<use xlink:href="#SVGID_00000094600556785306395000000005096821655084664254_"  style="overflow:visible;"/>
			</clipPath>
			<g id="그룹_8177" style="clip-path:url(#SVGID_00000146495649065240667560000009334002642921592478_);">
				<path id="패스_3326" class="st4" d="M-431.4-2256.9l-117.4-0.1c-4.3,0-8.2,2.3-10.4,6l-59.9,102.2c-2.2,3.7-2.2,8.2-0.1,12
					l57.5,102.3c1,1.8,2.5,3.3,4.3,4.4l131.9-225.1C-427.3-2256.3-429.3-2256.9-431.4-2256.9"/>
			</g>
		</g>
	</g>
</g>
<g id="그룹_8188" transform="translate(626 2396)">
	<g>
		<defs>
			<path id="SVGID_00000158024317979536602970000002890696987941773226_" d="M-559.1-2251l-59.9,102.2c-2.2,3.7-2.2,8.2-0.1,12
				l57.5,102.3c2.1,3.7,6,6,10.2,6l117.4,0.1c4.3,0,8.2-2.3,10.4-6l59.9-102.2c2.2-3.7,2.2-8.2,0.1-12l-57.5-102.3
				c-2.1-3.7-6-6-10.2-6l-117.4-0.1C-553-2257-557-2254.7-559.1-2251"/>
		</defs>
		<clipPath id="SVGID_00000170957518214178933160000017272153283516604300_">
			<use xlink:href="#SVGID_00000158024317979536602970000002890696987941773226_"  style="overflow:visible;"/>
		</clipPath>
		<g id="그룹_8187" style="clip-path:url(#SVGID_00000170957518214178933160000017272153283516604300_);">
			
				<linearGradient id="사각형_5996_00000144310585715230644450000006670693587847475106_" gradientUnits="userSpaceOnUse" x1="-549.6246" y1="-1586.5634" x2="-548.3786" y2="-1586.5643" gradientTransform="matrix(286.6231 -187.211 -182.2845 -279.0805 -132416.0156 -547651.875)">
				<stop  offset="0" style="stop-color:#00BFDD"/>
				<stop  offset="0.5" style="stop-color:#0066B3"/>
				<stop  offset="0.757" style="stop-color:#004494"/>
				<stop  offset="1" style="stop-color:#004394"/>
			</linearGradient>
			<polygon id="사각형_5996" style="fill:url(#사각형_5996_00000144310585715230644450000006670693587847475106_);" points="
				-725.9,-2188.6 -439.3,-2375.9 -257,-2096.8 -543.6,-1909.6 			"/>
		</g>
	</g>
</g>
<g id="그룹_8191" transform="translate(625.917 2395.89)" class="st1">
	<g id="그룹_8190">
		<g>
			<defs>
				<rect id="SVGID_00000145041687585840001190000017073869401586388411_" x="-620.7" y="-2257" width="195.2" height="226.9"/>
			</defs>
			<clipPath id="SVGID_00000077314868292175721620000011734741225324984730_">
				<use xlink:href="#SVGID_00000145041687585840001190000017073869401586388411_"  style="overflow:visible;"/>
			</clipPath>
			<g id="그룹_8189" style="clip-path:url(#SVGID_00000077314868292175721620000011734741225324984730_);">
				<path id="패스_3328" class="st4" d="M-431.4-2256.9l-117.4-0.1c-4.3,0-8.2,2.3-10.4,6l-59.9,102.2c-2.2,3.7-2.2,8.2-0.1,12
					l57.5,102.3c1,1.8,2.5,3.3,4.3,4.4l131.9-225.1C-427.3-2256.3-429.3-2256.9-431.4-2256.9"/>
			</g>
		</g>
	</g>
</g>
<g id="그룹_8200" transform="translate(1112 2672)">
	<g>
		<defs>
			<path id="SVGID_00000091012651468219059940000008254728241050824343_" d="M-559.1-2251l-59.9,102.2c-2.2,3.7-2.2,8.2-0.1,12
				l57.5,102.3c2.1,3.7,6,6,10.2,6l117.4,0.1c4.3,0,8.2-2.3,10.4-6l59.9-102.2c2.2-3.7,2.2-8.2,0.1-12l-57.5-102.3
				c-2.1-3.7-6-6-10.2-6l-117.4-0.1C-553-2257-557-2254.7-559.1-2251"/>
		</defs>
		<clipPath id="SVGID_00000036231000698391384130000002426095705041577913_">
			<use xlink:href="#SVGID_00000091012651468219059940000008254728241050824343_"  style="overflow:visible;"/>
		</clipPath>
		<g id="그룹_8199" style="clip-path:url(#SVGID_00000036231000698391384130000002426095705041577913_);">
			
				<linearGradient id="사각형_6002_00000014635834906979777280000009267749269958240916_" gradientUnits="userSpaceOnUse" x1="-1035.1952" y1="-1862.662" x2="-1033.8882" y2="-1862.381" gradientTransform="matrix(286.6223 -187.2105 -182.285 -279.0814 -43429.5859 -715663.6875)">
				<stop  offset="0" style="stop-color:#00BFDD"/>
				<stop  offset="0.5" style="stop-color:#0066B3"/>
				<stop  offset="1" style="stop-color:#004394"/>
			</linearGradient>
			<polygon id="사각형_6002" style="fill:url(#사각형_6002_00000014635834906979777280000009267749269958240916_);" points="
				-725.9,-2188.7 -439.3,-2375.9 -257,-2096.8 -543.6,-1909.6 			"/>
		</g>
	</g>
</g>
<g id="그룹_8203" transform="translate(1112.011 2671.852)" class="st1">
	<g id="그룹_8202">
		<g>
			<defs>
				<rect id="SVGID_00000175299603576965895380000002775962594909198261_" x="-620.7" y="-2257" width="195.2" height="226.9"/>
			</defs>
			<clipPath id="SVGID_00000168106396385971471170000008487522073309775510_">
				<use xlink:href="#SVGID_00000175299603576965895380000002775962594909198261_"  style="overflow:visible;"/>
			</clipPath>
			<g id="그룹_8201" style="clip-path:url(#SVGID_00000168106396385971471170000008487522073309775510_);">
				<path id="패스_3330" class="st4" d="M-431.4-2256.9l-117.4-0.1c-4.3,0-8.2,2.3-10.4,6l-59.9,102.2c-2.2,3.7-2.2,8.2-0.1,12
					l57.5,102.3c1,1.8,2.5,3.3,4.3,4.4l131.9-225.1C-427.3-2256.3-429.3-2256.9-431.4-2256.9"/>
			</g>
		</g>
	</g>
</g>
<g id="그룹_8212" transform="translate(621 2672)">
	<g>
		<defs>
			<path id="SVGID_00000125603050669529494330000017739254077452378549_" d="M-559.1-2251l-59.9,102.2c-2.2,3.7-2.2,8.2-0.1,12
				l57.5,102.3c2.1,3.7,6,6,10.2,6l117.4,0.1c4.3,0,8.2-2.3,10.4-6l59.9-102.2c2.2-3.7,2.2-8.2,0.1-12l-57.5-102.3
				c-2.1-3.7-6-6-10.2-6l-117.4-0.1C-553-2257-557-2254.7-559.1-2251"/>
		</defs>
		<clipPath id="SVGID_00000139264218377293291220000012542762241158804138_">
			<use xlink:href="#SVGID_00000125603050669529494330000017739254077452378549_"  style="overflow:visible;"/>
		</clipPath>
		<g id="그룹_8211" style="clip-path:url(#SVGID_00000139264218377293291220000012542762241158804138_);">
			
				<linearGradient id="사각형_6008_00000112619644889894181150000007673295031826944896_" gradientUnits="userSpaceOnUse" x1="-544.3918" y1="-1862.6796" x2="-543.3408" y2="-1862.4935" gradientTransform="matrix(286.6231 -187.211 -182.285 -279.0814 -184160.6719 -623743.625)">
				<stop  offset="0" style="stop-color:#00BFDD"/>
				<stop  offset="0.5" style="stop-color:#0066B3"/>
				<stop  offset="1" style="stop-color:#004394"/>
			</linearGradient>
			<polygon id="사각형_6008" style="fill:url(#사각형_6008_00000112619644889894181150000007673295031826944896_);" points="
				-725.9,-2188.7 -439.3,-2375.9 -257,-2096.8 -543.6,-1909.6 			"/>
		</g>
	</g>
</g>
<g id="그룹_8231" transform="translate(868 2807)">
	<g>
		<defs>
			<path id="SVGID_00000163044941114117133400000001340581720254226095_" d="M-559.1-2251l-59.9,102.2c-2.2,3.7-2.2,8.2-0.1,12
				l57.5,102.3c2.1,3.7,6,6,10.2,6l117.4,0.1c4.3,0,8.2-2.3,10.4-6l59.9-102.2c2.2-3.7,2.2-8.2,0.1-12l-57.5-102.3
				c-2.1-3.7-6-6-10.2-6l-117.4-0.1C-553-2257-557-2254.7-559.1-2251"/>
		</defs>
		<clipPath id="SVGID_00000152223282863199532630000015552616343010917248_">
			<use xlink:href="#SVGID_00000163044941114117133400000001340581720254226095_"  style="overflow:visible;"/>
		</clipPath>
		<g id="그룹_8211-2" style="clip-path:url(#SVGID_00000152223282863199532630000015552616343010917248_);">
			
				<linearGradient id="사각형_6008-2_00000163039868573791234310000005076474791617520305_" gradientUnits="userSpaceOnUse" x1="-791.3918" y1="-1997.6796" x2="-790.3408" y2="-1997.4935" gradientTransform="matrix(286.6231 -187.211 -182.285 -279.0814 -137973.2344 -707660.75)">
				<stop  offset="0" style="stop-color:#00BFDD"/>
				<stop  offset="0.5" style="stop-color:#0066B3"/>
				<stop  offset="1" style="stop-color:#004394"/>
			</linearGradient>
			
				<polygon id="사각형_6008-2" style="fill:url(#사각형_6008-2_00000163039868573791234310000005076474791617520305_);" points="
				-725.9,-2188.7 -439.3,-2375.9 -257,-2096.8 -543.6,-1909.6 			"/>
		</g>
	</g>
</g>
<g id="그룹_8215" transform="translate(620.676 2671.852)" class="st1">
	<g id="그룹_8214">
		<g>
			<defs>
				<rect id="SVGID_00000072993150688733043890000005836710355894720657_" x="-620.7" y="-2257" width="195.2" height="226.9"/>
			</defs>
			<clipPath id="SVGID_00000035492353318360852490000003737524464298015108_">
				<use xlink:href="#SVGID_00000072993150688733043890000005836710355894720657_"  style="overflow:visible;"/>
			</clipPath>
			<g id="그룹_8213" style="clip-path:url(#SVGID_00000035492353318360852490000003737524464298015108_);">
				<path id="패스_3332" class="st4" d="M-431.4-2256.9l-117.4-0.1c-4.3,0-8.2,2.3-10.4,6l-59.9,102.2c-2.2,3.7-2.2,8.2-0.1,12
					l57.5,102.3c1,1.8,2.5,3.3,4.3,4.4l131.9-225.1C-427.3-2256.3-429.3-2256.9-431.4-2256.9"/>
			</g>
		</g>
	</g>
</g>
<g id="그룹_8230" transform="translate(867.678 2806.852)" class="st1">
	<g id="그룹_8214-2">
		<g>
			<defs>
				<rect id="SVGID_00000103949384096736090010000009175309763318395308_" x="-620.7" y="-2257" width="195.2" height="226.9"/>
			</defs>
			<clipPath id="SVGID_00000071553214736203686730000012037799056141698442_">
				<use xlink:href="#SVGID_00000103949384096736090010000009175309763318395308_"  style="overflow:visible;"/>
			</clipPath>
			<g id="그룹_8213-2" style="clip-path:url(#SVGID_00000071553214736203686730000012037799056141698442_);">
				<path id="패스_3332-2" class="st4" d="M-431.4-2256.9l-117.4-0.1c-4.3,0-8.2,2.3-10.4,6l-59.9,102.2c-2.2,3.7-2.2,8.2-0.1,12
					l57.5,102.3c1,1.8,2.5,3.3,4.3,4.4l131.9-225.1C-427.3-2256.3-429.3-2256.9-431.4-2256.9"/>
			</g>
		</g>
	</g>
</g>
<g class="st23">
	<path d="M275.4,331l-1.4,2.1c-2.4-0.8-4-2.4-4.9-4.4c-0.9,2.2-2.7,4-5.2,4.9l-1.5-2.1c3.5-1.1,5.2-4,5.2-7v-2.4h2.6v2.4
		C270.3,327.3,272,329.9,275.4,331z M280.3,341.5h-14.4v-6.7h2.7v4.6h11.7V341.5z M279.4,327h3v2.2h-3v7.1h-2.6v-15.6h2.6V327z"/>
	<path d="M294.8,325.6h3.8v-4.8h2.6v11.4h-2.6v-4.4h-3.8c-0.5,2.4-2.7,4-5.5,4c-3.3,0-5.6-2.1-5.6-5c0-2.9,2.3-5,5.6-5
		C292.1,321.7,294.2,323.2,294.8,325.6z M286.2,326.6c0,1.7,1.3,2.8,3.1,2.8c1.8,0,3-1.1,3.1-2.8c0-1.7-1.3-2.8-3.1-2.8
		C287.5,323.9,286.2,324.9,286.2,326.6z M289.8,335.3h8.8v-2.2h2.6v8.6h-14v-8.6h2.6V335.3z M298.6,339.6v-2.2h-8.8v2.2H298.6z"/>
	<path d="M318.1,340.9h-2.5v-7.1h-3.3v-2.1h3.3v-3.1h-2.9c-1,3.5-3.2,6.5-7.2,8.9l-1.5-1.9c4.4-2.6,6.4-5.9,6.8-10.2h-5.7v-2.1h8.2
		c0,1.1-0.1,2.1-0.2,3.1h2.5v-5.2h2.5V340.9z M322.5,341.9H320v-21.2h2.5V341.9z"/>
	<path d="M338.7,334.7l0.2,1.9c-4.8,0.9-9.8,0.9-13.6,0.9l-0.3-2.1C328.9,335.4,334.2,335.3,338.7,334.7z M337.6,327.3
		c0,3-2.5,5.1-5.8,5.1c-3.3,0-5.8-2.1-5.8-5.1c0-3,2.5-5.1,5.8-5.1C335.2,322.2,337.6,324.3,337.6,327.3z M328.6,327.3
		c0,1.8,1.4,2.9,3.2,2.9c1.9,0,3.3-1.1,3.3-2.9c0-1.8-1.4-2.9-3.3-2.9C330,324.5,328.6,325.6,328.6,327.3z M342.6,341.9H340v-21.2
		h2.6V341.9z"/>
	<path d="M351.1,339.8l6-17h3.8l6,17h-3.3l-1.4-4.2h-6.4l-1.4,4.2H351.1z M361.4,333.2l-2.3-6.8h-0.1l-2.3,6.8H361.4z"/>
	<path d="M371.9,339.8h-3v-17h3V339.8z"/>
	<path d="M385.1,331v-1.1c-2.4-0.2-3.8-1.2-3.8-2.8c0-1.7,2-2.7,5.1-2.7s5.1,1,5.1,2.7c0,1.5-1.4,2.5-3.8,2.8v1
		c1.8-0.1,3.6-0.2,5.3-0.4l0.2,1.6c-4.5,0.8-9.5,0.8-13.2,0.8l-0.3-1.8C381.3,331.1,383.2,331.1,385.1,331z M392.4,323.9h-12.2v-1.8
		h4.8v-1.6h2.6v1.6h4.8V323.9z M396.7,338.6h-11.5v1.4h12.3v1.8h-14.9V337h11.5v-1.2h-11.6v-1.8h14.2V338.6z M383.7,327.2
		c0,0.8,1,1.2,2.6,1.2s2.6-0.4,2.6-1.2c0-0.7-1-1.1-2.6-1.1C384.7,326.1,383.7,326.5,383.7,327.2z M396.7,325.9h2.9v2.2h-2.9v5.1
		h-2.6v-12.5h2.6V325.9z"/>
	<path d="M420,333h-19.3v-2.1h4.5v-2.7c-1.6-0.7-2.5-1.7-2.5-3.1c0-2.5,3-4,7.6-4s7.6,1.5,7.6,4c0,1.4-0.9,2.5-2.5,3.1v2.7h4.6V333z
		 M417.6,338.1c0,2.5-2.8,3.8-7.3,3.8c-4.6,0-7.4-1.3-7.4-3.8c0-2.4,2.8-3.8,7.4-3.8C414.9,334.3,417.6,335.6,417.6,338.1z
		 M405.4,325.1c0,1.3,1.8,2,4.9,2c3.1,0,4.9-0.7,4.9-2c0-1.3-1.8-2-4.9-2C407.2,323.1,405.4,323.8,405.4,325.1z M405.6,338.1
		c0,1.2,1.6,1.8,4.7,1.8c3,0,4.7-0.6,4.7-1.8c0-1.2-1.7-1.8-4.7-1.8C407.2,336.3,405.5,336.9,405.6,338.1z M412.8,330.9v-2
		c-0.8,0.1-1.6,0.2-2.5,0.2s-1.7-0.1-2.5-0.2v2H412.8z"/>
	<path d="M446.4,334.5H438v7.4h-2.6v-7.4h-8.3v-2.2h19.3V334.5z M445.6,328.4l-1,2.1c-3.6-0.5-6.5-2.3-7.8-4.7
		c-1.4,2.4-4.2,4.2-7.8,4.7l-1-2.1c4.5-0.6,7.5-3.3,7.5-6v-1.1h2.7v1.1C438.1,325.2,441.1,327.9,445.6,328.4z"/>
	<path d="M467.2,339.3h-19.4v-2.1h4.5v-5.4c-1.7-1-2.7-2.5-2.7-4.4c0-3.4,3.3-5.6,7.9-5.6c4.6,0,7.9,2.2,7.9,5.6
		c0,1.9-1,3.3-2.6,4.3v5.4h4.5V339.3z M452.2,327.5c0,2.2,2.1,3.5,5.3,3.5s5.3-1.4,5.3-3.5c0-2.2-2.2-3.5-5.3-3.5
		S452.2,325.3,452.2,327.5z M460.1,337.2v-4.4c-0.8,0.2-1.7,0.3-2.6,0.3c-0.9,0-1.8-0.1-2.6-0.3v4.4H460.1z"/>
	<path d="M470,338.1l-1.5-2c5.2-2.6,7.9-6.2,8.5-11h-7.3v-2.2h10C479.6,329.2,477,334.6,470,338.1z M485.2,329h3.1v2.2h-3.1v10.7
		h-2.6v-21.1h2.6V329z"/>
</g>
<g class="st23">
	<path d="M230.7,374.6h-10.2v-10.1h10.2V374.6z M237.7,383.4h-14.6v-6.9h2.6v4.8h12V383.4z M223.1,372.5h5.1v-5.9h-5.1V372.5z
		 M237.1,377.9h-2.6v-15.1h2.6V377.9z"/>
	<path d="M241.2,375.8l-1.1-2.1c4.8-1.4,7.7-4,8.2-7.3H241v-2.1h10.1C251.1,370,247.5,374,241.2,375.8z M257.7,383.5h-14.4v-7.1h2.6
		v4.9h11.8V383.5z M256.9,368.8h3v2.2h-3v7h-2.6v-15.3h2.6V368.8z"/>
	<path d="M274.8,382.9h-2.5v-10.1h-2c-0.2,4.1-2,6.7-4.6,6.7c-2.8,0-4.6-2.9-4.6-7.6s1.8-7.5,4.6-7.5c2.6,0,4.3,2.4,4.6,6.4h2v-7.6
		h2.5V382.9z M263.6,371.9c0,3.3,0.8,5.1,2.2,5.1c1.4,0,2.2-1.8,2.2-5.1s-0.8-5.1-2.2-5.1C264.4,366.8,263.5,368.6,263.6,371.9z
		 M279.2,383.9h-2.5v-21.2h2.5V383.9z"/>
	<path d="M295.4,382.9H293v-9.8h-3.8c-1.2,2.4-3.2,4.5-6.2,6.3l-1.5-1.9c4.4-2.6,6.4-5.9,6.8-10.2h-5.7v-2.1h8.3
		c0,2.1-0.2,4-0.8,5.8h2.9v-7.8h2.5V382.9z M299.9,383.9h-2.5v-21.2h2.5V383.9z"/>
	<path d="M321,377.3l-1.5,2.1c-2.4-1.1-4.2-3.4-5.1-6c-1,2.9-2.8,5.4-5.2,6.6l-1.5-2c3.4-1.6,5.4-5.6,5.4-9.1V367h-4.6v-2.2h11.6
		v2.2h-4.4v1.8C315.7,372,317.6,375.8,321,377.3z M324.7,371h3.3v2.2h-3.3v10.8h-2.6v-21.2h2.6V371z"/>
	<path d="M332.2,366.4h4.9v-2.7h2.6v9.2h-10.1v-9.2h2.6V366.4z M345.6,380h-11.2v1.7h11.9v2.1h-14.5v-5.6H343v-1.6h-11.2v-2h13.9
		V380z M337.1,370.8v-2.5h-4.9v2.5H337.1z M345.6,367h3v2.1h-3v4.5H343v-10.9h2.6V367z"/>
	<path d="M362.4,372.7l-1.3,2c-2.4-0.8-4-2.4-5-4.4c-0.9,2.2-2.7,4-5.2,4.8l-1.3-2.1c3.4-1.1,5.2-3.9,5.2-6.7v-0.3h-4.4V364h11.4
		v2.1h-4.4v0.3C357.4,368.9,359.1,371.6,362.4,372.7z M367.3,383.9h-2.6v-5.5h-11.8v-2.1h14.4V383.9z M367.3,375.4h-2.6v-5.2h-3.6
		V368h3.6v-5.2h2.6V375.4z"/>
	<path d="M379.3,366.4h4.9v-2.7h2.6v9.2h-10.1v-9.2h2.6V366.4z M392.7,380h-11.2v1.7h11.9v2.1h-14.5v-5.6h11.2v-1.6h-11.2v-2h13.9
		V380z M384.3,370.8v-2.5h-4.9v2.5H384.3z M392.7,367h3v2.1h-3v4.5h-2.6v-10.9h2.6V367z"/>
	<path d="M413.8,365c0,1.3,0,3.1-0.4,5.2h2.8v2h-8.4v2.2h6v5.5h-12.1v1.7h12.7v2H399v-5.6h12.1v-1.6H399v-2h6.1v-2.2h-8.3v-2h14
		c0.4-1.9,0.4-3.3,0.4-4.5h-12v-2.1h14.6V365z"/>
	<path d="M442.5,376.7h-4.7v7.2h-2.6v-7.2h-4.7v7.2h-2.7v-7.2h-4.6v-2.1h19.4V376.7z M440.5,368.2c0,2.8-3.1,4.6-7.6,4.6
		c-4.5,0-7.6-1.8-7.6-4.6c0-2.9,3.1-4.7,7.6-4.7C437.3,363.5,440.5,365.3,440.5,368.2z M427.9,368.2c0,1.6,1.9,2.6,4.9,2.6
		s4.9-1,4.9-2.6c0-1.7-1.9-2.6-4.9-2.6S427.9,366.6,427.9,368.2z"/>
	<path d="M461.2,374.4h-6.3v4.9h8.4v2.1h-19.4v-2.1h8.3v-4.9h-6v-10.1H461v2.1h-12.1v6h12.3V374.4z"/>
	<path d="M484,374.3h-19.4v-2H484V374.3z M481.7,380.4h-12.1v1.5h12.8v1.8h-15.4v-5h12.2v-1.3h-12.2v-1.8h14.8V380.4z M481.6,368
		h-11.9v1.4H482v1.8h-14.9v-4.9H479V365h-12v-1.8h14.6V368z"/>
	<path d="M504.9,373.3l0.2,1.9c-1.8,0.4-3.7,0.6-5.6,0.7v7.4h-2.6v-7.2c-2,0.1-3.8,0.1-5.4,0.1l-0.3-2.2
		C495,374,500.3,373.9,504.9,373.3z M503.6,368.1c0,2.6-2.3,4.5-5.6,4.4c-3.2,0-5.5-1.8-5.5-4.4c0-2.6,2.3-4.5,5.5-4.5
		C501.3,363.7,503.6,365.5,503.6,368.1z M495.1,368.1c0,1.4,1.2,2.3,3,2.3c1.8,0,3.1-0.9,3.1-2.3c0-1.5-1.3-2.4-3.1-2.3
		C496.3,365.8,495,366.7,495.1,368.1z M508.8,383.9h-2.6v-21.1h2.6V383.9z"/>
	<path d="M522.2,368.2h-10.4v-2.1h3.9v-2.8h2.6v2.8h3.9V368.2z M521.7,374.2c0,2.9-1.9,5-4.6,5c-2.7,0-4.6-2.1-4.6-5
		c0-2.9,1.9-4.9,4.6-4.9C519.7,369.3,521.7,371.4,521.7,374.2z M514.7,374.2c0,1.7,0.9,2.8,2.3,2.8c1.4,0,2.3-1.1,2.3-2.8
		c0-1.7-1-2.8-2.3-2.8C515.7,371.5,514.7,372.6,514.7,374.2z M530.1,383.9h-2.5v-10.4h-2.1v9.4h-2.4v-19.8h2.4v8.3h2.1v-8.7h2.5
		V383.9z"/>
</g>
<g class="st23">
	<path d="M294.9,418.5h-8.4v7.4h-2.6v-7.4h-8.3v-2.2h19.3V418.5z M294.1,412.4l-1,2.1c-3.6-0.5-6.5-2.3-7.8-4.7
		c-1.4,2.4-4.2,4.2-7.8,4.7l-1-2.1c4.5-0.6,7.5-3.3,7.5-6v-1.1h2.7v1.1C286.6,409.2,289.6,411.9,294.1,412.4z"/>
	<path d="M315.6,423.3h-19.4v-2.1h4.5v-5.4c-1.7-1-2.7-2.5-2.7-4.4c0-3.4,3.3-5.6,7.9-5.6c4.6,0,7.9,2.2,7.9,5.6
		c0,1.9-1,3.3-2.6,4.3v5.4h4.5V423.3z M300.6,411.5c0,2.2,2.1,3.5,5.3,3.5s5.3-1.4,5.3-3.5c0-2.2-2.2-3.5-5.3-3.5
		S300.6,409.3,300.6,411.5z M308.5,421.2v-4.4c-0.8,0.2-1.7,0.3-2.6,0.3c-0.9,0-1.8-0.1-2.6-0.3v4.4H308.5z"/>
	<path d="M319.2,426.4h-2.6l5.5-20.3h2.6L319.2,426.4z"/>
	<path d="M344.9,416.5h-19.2v-2.1h7.5v-3.8h2.6v3.8h9.2V416.5z M342.7,422c0,2.5-2.9,3.9-7.5,3.9c-4.6,0-7.5-1.5-7.5-3.9
		c0-2.5,2.9-4,7.5-4C339.8,418,342.7,419.5,342.7,422z M342.5,407.5c0,1.7,0,3.4-0.6,5.6l-2.6-0.2c0.5-2.1,0.6-3.6,0.6-5.1h-12.1
		v-2.1h14.7V407.5z M330.3,422c0,1.2,1.8,1.9,4.9,1.9c3.1,0,4.9-0.7,4.9-1.9c0-1.3-1.9-2-4.9-2C332.1,419.9,330.3,420.7,330.3,422z"
		/>
	<path d="M363.4,407.3c0,1.6,0,3.4-0.5,5.9h2.9v2.1h-19.4v-2.1h13.9c0.4-2.2,0.5-3.9,0.5-5.4h-12v-2.1h14.6V407.3z M351.3,419.2h9.4
		v-2.4h2.6v8.9h-14.5v-8.9h2.6V419.2z M360.7,423.6v-2.3h-9.4v2.3H360.7z"/>
	<path d="M368.6,422.2l-1.4-2.1c5.5-2.6,8.1-6.2,8.6-11h-7.5V407h10.1C378.5,413.3,376,418.7,368.6,422.2z M384.8,425.9h-2.6v-21.2
		h2.6V425.9z"/>
	<path d="M399.2,409.6h3.8v-4.8h2.6v11.4H403v-4.4h-3.8c-0.5,2.4-2.7,4-5.5,4c-3.3,0-5.6-2.1-5.6-5c0-2.9,2.3-5,5.6-5
		C396.5,405.7,398.6,407.2,399.2,409.6z M390.6,410.6c0,1.7,1.3,2.8,3.1,2.8c1.8,0,3-1.1,3.1-2.8c0-1.7-1.3-2.8-3.1-2.8
		C391.9,407.9,390.6,408.9,390.6,410.6z M394.2,419.3h8.8v-2.2h2.6v8.6h-14v-8.6h2.6V419.3z M403,423.6v-2.2h-8.8v2.2H403z"/>
	<path d="M433.6,416.6h-8.4v1.8c3.8,0.3,6,1.6,6,3.8c0,2.4-2.8,3.8-7.3,3.8c-4.6,0-7.4-1.4-7.4-3.8c0-2.2,2.2-3.5,6.1-3.8v-1.8h-8.3
		v-2.1h19.3V416.6z M431.9,407.8h-6.1c0.4,1.7,2.9,3.3,6.9,3.7l-0.9,2.1c-3.8-0.4-6.7-1.9-7.9-4.1c-1.1,2.1-4,3.7-7.8,4.1l-0.9-2.1
		c3.9-0.4,6.4-2,6.9-3.7h-6v-2.1h15.8V407.8z M419.2,422.1c0,1.2,1.6,1.8,4.7,1.8c3,0,4.7-0.6,4.7-1.8c0-1.2-1.7-1.8-4.7-1.8
		C420.8,420.3,419.2,420.9,419.2,422.1z"/>
	<path d="M448,413.9l-1.3,2c-2.4-0.8-4.2-2.3-5.2-4.4c-1,2.2-2.8,3.9-5.3,4.8l-1.3-2.1c3.4-1.1,5.2-3.8,5.2-6.6v-2.1h2.7v2.1
		C442.9,410.3,444.7,412.8,448,413.9z M452.7,425.7h-14.1v-7.9h14.1V425.7z M441.2,423.6h8.9v-3.7h-8.9V423.6z M452.7,416.7h-2.6
		v-12h2.6V416.7z"/>
	<path d="M469.6,418.7l0.2,1.9c-4.8,0.9-9.8,0.9-13.6,0.9l-0.3-2.1C459.7,419.4,465,419.3,469.6,418.7z M468.5,411.3
		c0,3-2.5,5.1-5.8,5.1c-3.3,0-5.8-2.1-5.8-5.1c0-3,2.5-5.1,5.8-5.1C466,406.2,468.5,408.3,468.5,411.3z M459.4,411.3
		c0,1.8,1.4,2.9,3.2,2.9c1.9,0,3.3-1.1,3.3-2.9c0-1.8-1.4-2.9-3.3-2.9C460.8,408.5,459.4,409.6,459.4,411.3z M473.4,425.9h-2.6
		v-21.2h2.6V425.9z"/>
</g>
<g class="st23">
	<path d="M251.4,457l-1.4,2.1c-2.4-0.8-4-2.4-4.9-4.4c-0.9,2.2-2.7,4-5.2,4.9l-1.5-2.1c3.5-1.1,5.2-4,5.2-7v-2.4h2.6v2.4
		C246.3,453.3,248,455.9,251.4,457z M256.3,467.5h-14.4v-6.7h2.7v4.6h11.7V467.5z M255.4,453h3v2.2h-3v7.1h-2.6v-15.6h2.6V453z"/>
	<path d="M270.8,451.6h3.8v-4.8h2.6v11.4h-2.6v-4.4h-3.8c-0.5,2.4-2.7,4-5.5,4c-3.3,0-5.6-2.1-5.6-5c0-2.9,2.3-5,5.6-5
		C268.1,447.7,270.2,449.2,270.8,451.6z M262.2,452.6c0,1.7,1.3,2.8,3.1,2.8c1.8,0,3-1.1,3.1-2.8c0-1.7-1.3-2.8-3.1-2.8
		C263.5,449.9,262.2,450.9,262.2,452.6z M265.8,461.3h8.8v-2.2h2.6v8.6h-14v-8.6h2.6V461.3z M274.6,465.6v-2.2h-8.8v2.2H274.6z"/>
	<path d="M285.7,465.8l6-17h3.8l6,17h-3.3l-1.4-4.2h-6.4l-1.4,4.2H285.7z M295.9,459.2l-2.3-6.8h-0.1l-2.3,6.8H295.9z"/>
	<path d="M306.4,465.8h-3v-17h3V465.8z"/>
	<path d="M332.2,457.4h-2.6v-4.1h-3.8c-0.5,2.3-2.7,3.8-5.4,3.8c-3.2,0-5.6-2-5.6-4.9c0-2.8,2.4-4.8,5.6-4.8c2.8,0,4.9,1.5,5.4,3.8
		h3.8v-4.4h2.6V457.4z M317.2,452.2c0,1.7,1.3,2.8,3.1,2.8c1.8,0,3-1.1,3.1-2.8c0-1.6-1.3-2.7-3.1-2.7
		C318.5,449.5,317.2,450.6,317.2,452.2z M332.2,463.9h-11.3v1.7h12v2.1h-14.6V462h11.3v-1.5h-11.4v-2h14V463.9z"/>
	<path d="M345.8,456.6h-7.1v4.2c3.4,0,6-0.2,8.9-0.7l0.2,2.1c-3.3,0.6-6.2,0.7-10,0.7h-1.7v-8.5h7.1v-3.8H336v-2.1h9.8V456.6z
		 M351.8,454.9h3.3v2.2h-3.3v10.9h-2.6v-21.2h2.6V454.9z"/>
	<path d="M367.7,455.8c0,4.6-2.3,7.5-5.5,7.5c-3.2,0-5.5-2.9-5.5-7.5c0-4.6,2.3-7.5,5.5-7.5C365.3,448.3,367.6,451.2,367.7,455.8z
		 M359.1,455.8c0,3.3,1.2,5.2,3,5.2c1.8,0,3-1.9,3-5.2c0-3.2-1.2-5.1-3-5.1C360.3,450.6,359.1,452.5,359.1,455.8z M373.5,467.9h-2.6
		v-21.2h2.6V467.9z"/>
	<path d="M394.4,462.3h-2.6v-7.7H388c-0.6,2.5-2.7,4.2-5.4,4.2c-3.2,0-5.6-2.2-5.6-5.3s2.4-5.3,5.6-5.3c2.8,0,5,1.8,5.5,4.4h3.8
		v-5.7h2.6V462.3z M379.4,453.4c0,1.9,1.3,3.1,3.1,3.1c1.7,0,3-1.2,3.1-3.1c0-1.9-1.3-3-3.1-3C380.8,450.3,379.4,451.5,379.4,453.4z
		 M394.9,467.5h-14.4v-6.8h2.6v4.7h11.8V467.5z"/>
	<path d="M416.8,465.2h-19.4v-2.2h19.4V465.2z M416,457l-1.2,2.2c-3.6-0.8-6.5-2.9-7.8-5.7c-1.4,2.8-4.3,5-7.9,5.7L398,457
		c4.4-0.8,7.6-4.1,7.6-7.3v-1.6h2.8v1.6C408.3,452.9,411.6,456.2,416,457z"/>
	<path d="M443.2,465.4h-19.4v-2.1h8.4v-4.9h2.6v4.9h8.4V465.4z M441.5,450.6h-6.7c0.1,3,3.2,5.8,7.6,6.5l-1,2.1
		c-3.6-0.7-6.5-2.5-7.9-5.2c-1.4,2.7-4.3,4.6-7.8,5.3l-1-2.1c4.2-0.7,7.3-3.6,7.4-6.6h-6.7v-2.1h16.1V450.6z"/>
	<path d="M457.8,456.7l-1.3,2c-2.4-0.8-4.1-2.4-5.1-4.4c-1,2.2-2.8,3.9-5.3,4.8l-1.3-2c3.4-1.1,5.2-3.9,5.2-6.7v-0.3h-4.6v-2.1h11.6
		v2.1h-4.5v0.3C452.6,453,454.4,455.6,457.8,456.7z M462.2,467.9h-2.6v-5.3h-11.8v-2.1h14.5V467.9z M462.2,459.5h-2.6v-12.8h2.6
		V459.5z"/>
	<path d="M466.1,458.4c0-1,0.8-1.8,1.8-1.8c1,0,1.8,0.8,1.8,1.8c0,1-0.8,1.8-1.8,1.8C466.9,460.2,466.1,459.4,466.1,458.4z"/>
	<path d="M491.2,459.3H483v3.9h-2.6v-3.9h-8.5v-2.1h19.4V459.3z M489.1,451.5c0,2.7-3,4.3-7.6,4.3s-7.6-1.6-7.6-4.3s3-4.3,7.6-4.3
		S489.1,448.9,489.1,451.5z M489.1,467.5h-14.9v-6.3h2.6v4.1h12.2V467.5z M476.7,451.5c0,1.4,1.9,2.2,4.8,2.2c2.9,0,4.8-0.8,4.8-2.2
		c0-1.5-1.9-2.3-4.8-2.3C478.6,449.3,476.7,450.1,476.7,451.5z"/>
	<path d="M502.7,449.6h5.1v-2.9h2.6v12.5h-2.6v-2.7h-5.1c-1,1.1-2.5,1.7-4.2,1.7c-3.2,0-5.6-2.1-5.6-5.1c0-3,2.4-5.1,5.6-5.1
		C500.2,447.9,501.7,448.6,502.7,449.6z M495.4,453.1c0,1.7,1.3,2.9,3.1,2.9c1.8,0,3-1.2,3.1-2.9c0-1.8-1.3-2.9-3.1-2.9
		C496.7,450.2,495.4,451.3,495.4,453.1z M510.4,463.8c0,2.6-2.8,4.1-7.2,4.1c-4.4,0-7.2-1.5-7.2-4.1c0-2.6,2.8-4.1,7.2-4.1
		C507.6,459.7,510.4,461.2,510.4,463.8z M498.5,463.8c0,1.3,1.7,2.1,4.6,2.1c3,0,4.7-0.8,4.7-2.1c0-1.4-1.7-2.1-4.7-2.1
		C500.2,461.6,498.5,462.4,498.5,463.8z M504,453.1c0,0.5-0.1,0.9-0.2,1.3h3.9v-2.7h-3.9C504,452.1,504,452.6,504,453.1z"/>
</g>
<g class="st23">
	<path class="st4" d="M330.2,97.5l-1.4,2.1c-2.5-1.1-4.3-3.3-5.3-6c-1,2.9-2.8,5.3-5.3,6.5l-1.5-2c3.4-1.5,5.4-5.5,5.4-9.1v-1.8
		h-4.7V85h12v2.2h-4.6v1.8C324.7,92.4,326.8,96,330.2,97.5z M334.3,104.1h-2.6V82.9h2.6V104.1z"/>
	<path class="st4" d="M355.2,95.4h-2.6v-2.8h-5c-1,1.1-2.5,1.8-4.3,1.8c-3.2,0-5.6-2.2-5.6-5.2c0-3,2.4-5.2,5.6-5.1
		c1.7,0,3.3,0.6,4.3,1.8h5v-2.9h2.6V95.4z M340.2,89.2c0,1.8,1.3,3,3.1,3c1.7,0,3-1.2,3.1-3c0-1.8-1.3-2.9-3.1-2.9
		C341.5,86.3,340.2,87.4,340.2,89.2z M355.2,104.1h-2.6v-5.6h-11.8v-2.1h14.4V104.1z M352.6,90.5V88h-3.8c0.1,0.4,0.1,0.8,0.1,1.2
		c0,0.4-0.1,0.9-0.2,1.3H352.6z"/>
	<path class="st4" d="M370.9,93.2l-1.4,2.1c-2.4-0.8-4-2.4-4.9-4.4c-0.9,2.2-2.7,4-5.2,4.9l-1.5-2.1c3.5-1.1,5.2-4,5.2-7v-2.4h2.6
		v2.4C365.8,89.4,367.5,92.1,370.9,93.2z M375.8,103.7h-14.4v-6.7h2.7v4.6h11.7V103.7z M374.9,89.2h3v2.2h-3v7.1h-2.6V82.9h2.6V89.2
		z"/>
	<path class="st4" d="M390.3,87.7h3.8v-4.8h2.6v11.4h-2.6v-4.4h-3.8c-0.5,2.4-2.7,4-5.5,4c-3.3,0-5.6-2.1-5.6-5c0-2.9,2.3-5,5.6-5
		C387.6,83.8,389.7,85.4,390.3,87.7z M381.7,88.8c0,1.7,1.3,2.8,3.1,2.8c1.8,0,3-1.1,3.1-2.8c0-1.7-1.3-2.8-3.1-2.8
		C383,86,381.7,87.1,381.7,88.8z M385.3,97.5h8.8v-2.2h2.6v8.6h-14v-8.6h2.6V97.5z M394.1,101.7v-2.2h-8.8v2.2H394.1z"/>
	<path class="st4" d="M406.3,102V85h5.9c5.1,0,8.1,3.2,8.1,8.5c0,5.3-3.1,8.5-8.2,8.5H406.3z M411.9,99.4c3.5,0,5.3-1.9,5.3-5.9
		c0-3.9-1.8-5.8-5.2-5.8h-2.6v11.7H411.9z"/>
	<path class="st4" d="M428.6,91.3h0.1l3.8-6.2h3.5l-5.2,8.5l5.3,8.5h-3.5l-3.8-6.2h-0.1l-3.8,6.2h-3.5l5.4-8.5l-5.3-8.5h3.5
		L428.6,91.3z"/>
</g>
<g class="st23">
	<path class="st4" d="M341.7,143.6h-19.4v-2.2h8.3V138h-6v-6.9h12.2v-2.6h-12.2v-2.1h14.8v6.8h-12.2v2.7h12.7v2.1h-6.6v3.4h8.4
		V143.6z"/>
	<path class="st4" d="M362.4,143.4h-19.4v-2.2h19.4V143.4z M360.3,136.9h-14.9v-10.2h14.7v2.1H348v6h12.3V136.9z"/>
	<path class="st4" d="M373,135.5h-8.3v-9.1h8.3V135.5z M367.1,133.4h3.5v-5h-3.5V133.4z M370.2,139.5h9.1v-2.1h2.6v8.5h-14.3v-8.5
		h2.6V139.5z M379.3,143.7v-2.2h-9.1v2.2H379.3z M381.9,136.4h-2.5v-4.8h-2.1v4.7h-2.4v-11h2.4v4.1h2.1v-4.5h2.5V136.4z"/>
	<path class="st4" d="M409.6,138.7h-8.4v7.4h-2.6v-7.4h-8.3v-2.2h19.3V138.7z M408.8,132.6l-1,2.1c-3.6-0.5-6.5-2.3-7.8-4.7
		c-1.4,2.4-4.2,4.2-7.8,4.7l-1-2.1c4.5-0.6,7.5-3.3,7.5-6v-1.1h2.7v1.1C401.3,129.3,404.3,132,408.8,132.6z"/>
	<path class="st4" d="M421.8,132h-7.2v2.1c3.6,0,6.2-0.1,9.2-0.6l0.3,2.1c-3.4,0.5-6.2,0.6-10.3,0.6h-1.8V130h7.1v-2h-7.2v-2.1h9.8
		V132z M417.2,139.7h8.8v-2.1h2.6v8.2h-14v-8.2h2.6V139.7z M426,143.7v-2h-8.8v2H426z M428.6,136.7H426v-11.7h2.6V136.7z"/>
</g>
<g class="st23">
	<path class="st4" d="M571.6,222.9h-11.8v-2.1h4.7v-2.1h2.6v2.1h4.5V222.9z M570.7,227.5c0,2.3-2.1,3.8-5,3.8s-4.9-1.5-4.9-3.8
		c0-2.3,2-3.8,4.9-3.8S570.7,225.2,570.7,227.5z M563.3,227.5c0,1.2,1,1.9,2.5,1.9s2.5-0.8,2.5-1.9s-1-1.9-2.5-1.9
		S563.3,226.3,563.3,227.5z M566,234.1h8.9v-1.8h2.6v7.5h-14.1v-7.5h2.6V234.1z M574.9,237.8v-1.7H566v1.7H574.9z M577.5,231.5h-2.6
		v-1.7h-3.1v-2.1h3.1v-2.1h-3.1v-2.1h3.1v-4.7h2.6V231.5z"/>
	<path class="st4" d="M591.8,223.7h3.8v-4.8h2.6v11.4h-2.6v-4.4h-3.8c-0.5,2.4-2.7,4-5.5,4c-3.3,0-5.6-2.1-5.6-5c0-2.9,2.3-5,5.6-5
		C589.1,219.8,591.2,221.4,591.8,223.7z M583.2,224.8c0,1.7,1.3,2.8,3.1,2.8c1.8,0,3-1.1,3.1-2.8c0-1.7-1.3-2.8-3.1-2.8
		C584.5,222,583.2,223.1,583.2,224.8z M586.8,233.5h8.8v-2.2h2.6v8.6h-14v-8.6h2.6V233.5z M595.6,237.7v-2.2h-8.8v2.2H595.6z"/>
	<path class="st4" d="M602.7,236.3l-1.4-2.1c5.5-2.6,8.1-6.2,8.6-11h-7.5v-2.1h10.1C612.6,227.5,610.1,232.8,602.7,236.3z
		 M618.9,240.1h-2.6v-21.2h2.6V240.1z"/>
	<path class="st4" d="M625.3,223.7h4.9v-3.2h2.6v10.6h-10.1v-10.6h2.6V223.7z M639.5,239.7h-14.4v-6.7h2.6v4.6h11.8V239.7z
		 M630.2,229v-3.3h-4.9v3.3H630.2z M638.7,225h3v2.2h-3v7.3h-2.6v-15.6h2.6V225z"/>
	<path class="st4" d="M649.3,238v-17h5.9c5.1,0,8.1,3.2,8.1,8.5c0,5.3-3.1,8.5-8.2,8.5H649.3z M654.9,235.4c3.5,0,5.3-1.9,5.3-5.9
		c0-3.9-1.8-5.8-5.2-5.8h-2.6v11.7H654.9z"/>
	<path class="st4" d="M671.6,227.3h0.1l3.8-6.2h3.5l-5.2,8.5l5.3,8.5h-3.5l-3.8-6.2h-0.1l-3.8,6.2h-3.5l5.4-8.5l-5.3-8.5h3.5
		L671.6,227.3z"/>
</g>
<g class="st23">
	<path class="st4" d="M567.7,271.4l-1.3,2.1c-2.4-0.8-4-2.4-5-4.4c-0.9,2.2-2.7,4-5.2,4.9l-1.3-2.1c3.4-1.1,5.2-3.9,5.2-6.7v-0.6
		h-4.4v-2.1h11.4v2.1h-4.4v0.6C562.7,267.7,564.4,270.3,567.7,271.4z M573.2,281.7h-14.4V275h2.6v4.5h11.8V281.7z M572.7,276.4h-2.6
		v-7.8h-3.8v-2.1h3.8v-5.6h2.6V276.4z"/>
	<path class="st4" d="M580.9,273.1v-1.3c-2.4-0.3-3.8-1.4-3.8-3.1c0-2.1,2-3.3,5.1-3.3c3.1,0,5.1,1.2,5.1,3.3c0,1.7-1.5,2.8-3.8,3.1
		v1.2c1.8-0.1,3.6-0.3,5.3-0.5l0.2,1.8c-4.5,0.8-9.5,0.9-13.2,0.9l-0.3-2C577.1,273.2,578.9,273.2,580.9,273.1z M588.2,264.6H576
		v-1.9h4.8v-1.9h2.6v1.9h4.8V264.6z M593.2,281.7h-14.7v-5.3h2.6v3.2h12.1V281.7z M579.5,268.6c0,0.9,1,1.5,2.6,1.5s2.6-0.5,2.6-1.5
		c0-1-1-1.5-2.6-1.5S579.5,267.6,579.5,268.6z M592.5,268h2.9v2.2h-2.9v7.3h-2.6v-16.5h2.6V268z"/>
	<path class="st4" d="M602.9,275.4c2.2-0.1,4.4-0.2,6.4-0.5l0.1,1.9c-4.4,0.7-9.2,0.8-13,0.8l-0.3-2.1c1.3,0,2.6,0,4.1-0.1v-6.3h2.6
		V275.4z M608.3,264.6c0,1.9,0,4.5-0.6,8.2l-2.6-0.2c0.5-3.2,0.6-5.6,0.6-7.4h-8.3v-2.1h10.9V264.6z M613.1,269.5h3.1v2.2h-3.1v10.4
		h-2.6v-21.2h2.6V269.5z"/>
	<path class="st4" d="M628,275.6l-1.5,1.9c-2-1.2-3.3-3.2-4-5.6c-0.8,2.6-2.1,4.8-4.1,6.1l-1.6-1.9c3.1-1.9,4.4-5.7,4.4-9.4v-1.4
		h-3.7v-2.1h9.6v2.1h-3.4v1.4C623.7,270.3,625,273.9,628,275.6z M631.1,281.1h-2.5v-10.7h-3v-2.1h3v-7h2.5V281.1z M635.4,282.1h-2.5
		v-21.2h2.5V282.1z"/>
	<path class="st4" d="M646.9,264.5h4.9v-2.7h2.6v9.2h-10.1v-9.2h2.6V264.5z M660.3,278.1h-11.2v1.7H661v2.1h-14.5v-5.6h11.2v-1.6
		h-11.2v-2h13.9V278.1z M651.9,269v-2.5h-4.9v2.5H651.9z M660.3,265.2h3v2.1h-3v4.5h-2.6v-10.9h2.6V265.2z"/>
	<path class="st4" d="M681.4,263.1c0,1.3,0,3.1-0.4,5.2h2.8v2h-8.4v2.2h6v5.5h-12.1v1.7h12.7v2h-15.3v-5.6h12.1v-1.6h-12.1v-2h6.1
		v-2.2h-8.3v-2h14c0.4-1.9,0.4-3.3,0.4-4.5h-12v-2.1h14.6V263.1z"/>
</g>
<g class="st23">
	<path class="st4" d="M78.1,215.2l-1.5,2c-2-1.1-3.3-2.9-4.1-5.2c-0.7,2.6-2.1,4.8-4.1,6l-1.6-2c3.1-1.8,4.4-5.5,4.4-9.6v-1h-3.8
		v-2.1h9.8v2.1h-3.5v1C73.7,210.1,75,213.6,78.1,215.2z M85.5,222.1H83v-10.7h-2.2v9.7h-2.5v-19.8h2.5v7.9H83v-8.3h2.5V222.1z"/>
	<path class="st4" d="M101.1,210.9l-1.3,2c-2.4-0.8-4.1-2.4-5.1-4.4c-1,2.2-2.8,3.9-5.3,4.8l-1.3-2c3.4-1.1,5.2-3.9,5.2-6.7v-0.3
		h-4.6v-2.1h11.6v2.1h-4.5v0.3C95.9,207.2,97.7,209.8,101.1,210.9z M105.5,222.1h-2.6v-5.3H91v-2.1h14.5V222.1z M105.5,213.7h-2.6
		v-12.8h2.6V213.7z"/>
	<path class="st4" d="M121.5,215.5l-1.5,2.1c-2.4-1.1-4.2-3.4-5.1-6c-1,2.9-2.8,5.4-5.2,6.6l-1.5-2c3.4-1.6,5.4-5.6,5.4-9.1v-1.8
		H109V203h11.6v2.2h-4.4v1.8C116.2,210.2,118.1,213.9,121.5,215.5z M125.2,209.1h3.3v2.2h-3.3v10.8h-2.6v-21.2h2.6V209.1z"/>
	<path class="st4" d="M154.3,219.3H135v-2.1h4.3v-6.8h2.6v6.8h2.7v-6.8h2.6v6.8h7.1V219.3z M152.4,205c0,2.6,0,5.5-0.8,9.6l-2.6-0.3
		c0.7-3.9,0.7-6.8,0.7-9.4v-0.1H137v-2.1h15.4V205z"/>
	<path class="st4" d="M175.1,213h-4.8v2.2h2.5v6.9h-2.6v-4.9h-12.2v-2h2.6V213h-4.8v-2.1h19.3V213z M173,205.5c0,2.6-3,4.1-7.6,4.1
		s-7.6-1.6-7.6-4.1c0-2.6,3-4.1,7.6-4.1S173,202.9,173,205.5z M160.5,205.5c0,1.4,1.8,2.1,4.9,2.1s4.9-0.8,4.9-2.1
		c0-1.3-1.9-2.1-4.9-2.1S160.5,204.1,160.5,205.5z M167.7,215.2V213h-4.5v2.2H167.7z"/>
	<path class="st4" d="M193.5,211h-10.2v-8.8h10.2V211z M200.3,216.2h-6c0.2,1.6,2.8,3.4,6.8,3.8l-0.9,2c-3.4-0.4-6-1.7-7.3-3.5
		c-1.3,1.8-3.9,3.1-7.4,3.5l-0.9-2c4.1-0.4,6.7-2.2,6.9-3.8h-6v-2h6.1v-1.9h2.6v1.9h6.1V216.2z M185.9,209h5.1v-4.7h-5.1V209z
		 M199.8,213h-2.6v-12.1h2.6V213z"/>
</g>
<g class="st23">
	<path class="st4" d="M57.1,258.8h-10V245h10V258.8z M49.7,256.7h4.9V247h-4.9V256.7z M63,251h3.3v2.2H63v10.9h-2.6v-21.2H63V251z"
		/>
	<path class="st4" d="M78.8,251.9c0,4.6-2.3,7.5-5.5,7.5c-3.2,0-5.5-2.9-5.5-7.5c0-4.6,2.3-7.5,5.5-7.5
		C76.5,244.4,78.8,247.4,78.8,251.9z M70.3,251.9c0,3.3,1.2,5.2,3,5.2c1.8,0,3-1.9,3-5.2c0-3.2-1.2-5.1-3-5.1
		C71.5,246.8,70.3,248.7,70.3,251.9z M84.7,264.1h-2.6v-21.2h2.6V264.1z"/>
	<path class="st4" d="M107.2,261.4H87.8v-2.1h19.3V261.4z M105,247.4c0,3.1,0,6-0.9,10.5l-2.6-0.2c0.4-1.9,0.7-3.5,0.8-5l-12.5,0.7
		l-0.4-2.1l13-0.5c0-1.1,0-2.2,0-3.3V247H90.1v-2.1H105V247.4z"/>
	<path class="st4" d="M127.9,261.6h-19.4v-2.2h8.3V256h-6v-6.9h12.2v-2.6h-12.2v-2.1h14.8v6.8h-12.2v2.7h12.7v2.1h-6.6v3.4h8.4
		V261.6z"/>
	<path class="st4" d="M146.6,247H139v9.8c3.9,0,6.4-0.1,9.2-0.6l0.3,2.2c-3,0.6-5.8,0.7-10.2,0.7h-1.8v-14.2h10.2V247z M152.7,264.1
		H150v-21.2h2.6V264.1z"/>
	<path class="st4" d="M175.1,261.2h-19.3V259h19.3V261.2z M172.6,247.4c0,2.8,0,5.8-0.8,10.2l-2.6-0.2c0.8-4.2,0.8-7.2,0.8-10v-0.3
		h-12.2V245h14.8V247.4z"/>
	<path class="st4" d="M187.6,252.7h-7.3v4.3c3.3,0,6.2-0.2,9.5-0.8l0.2,2.1c-3.6,0.6-6.8,0.8-10.6,0.8h-1.9v-8.5h7.3v-3.8h-7.3v-2.1
		h10V252.7z M194.2,264.1h-2.6v-21.2h2.6V264.1z"/>
	<path class="st4" d="M222.3,254.9h-19.3v-2.1h19.3V254.9z M219.9,260.2c0,2.5-2.8,3.9-7.3,3.9c-4.6,0-7.4-1.4-7.4-3.9
		c0-2.5,2.8-3.9,7.4-3.8C217.2,256.3,219.9,257.7,219.9,260.2z M220.1,251.1h-14.7v-7.5h14.6v2.1h-12v3.3h12.1V251.1z M207.8,260.2
		c0,1.2,1.6,1.9,4.7,1.9c3,0,4.7-0.6,4.7-1.9c0-1.2-1.7-1.9-4.7-1.9C209.5,258.3,207.8,259,207.8,260.2z"/>
</g>
<g class="st23">
	<path class="st4" d="M59.8,299.5l-1.4,2.1c-2.5-1.1-4.3-3.3-5.3-6c-1,2.9-2.8,5.3-5.3,6.5l-1.5-2c3.4-1.5,5.4-5.5,5.4-9.1v-1.8H47
		V287h12v2.2h-4.6v1.8C54.4,294.4,56.4,298,59.8,299.5z M64,306.1h-2.6v-21.2H64V306.1z"/>
	<path class="st4" d="M80.7,293.8l0.1,1.9c-1.7,0.3-3.6,0.5-5.3,0.6v4.1h-2.6v-3.9c-2,0.1-3.9,0.1-5.5,0.1l-0.3-2.1
		C70.9,294.4,76.2,294.4,80.7,293.8z M79.2,289.4c0,2.3-2.2,3.7-5.3,3.7c-3.1,0-5.3-1.5-5.3-3.7c0-2.2,2.2-3.8,5.3-3.8
		C77,285.7,79.2,287.2,79.2,289.4z M85.4,305.7H69.8v-6.3h2.6v4.1h12.9V305.7z M71.1,289.4c0,1.1,1.1,1.8,2.8,1.8
		c1.6,0,2.8-0.7,2.8-1.8c0-1.1-1.2-1.8-2.8-1.8C72.2,287.6,71.1,288.3,71.1,289.4z M84.9,301h-2.6v-1.9h-4.1v-1.8h4.1v-12.4h2.6V301
		z"/>
	<path class="st4" d="M112.9,303.5H93.5v-2.2h19.4V303.5z M111.2,289h-3.1v6.8h3v2.1H95.2v-2.1h3V289h-3v-2.1h16.1V289z
		 M105.5,295.7V289h-4.8v6.8H105.5z"/>
	<path class="st4" d="M133.6,303.6h-19.4v-2.2h8.3V298h-6v-6.9h12.2v-2.6h-12.2v-2.1h14.8v6.8h-12.2v2.7h12.7v2.1h-6.6v3.4h8.4
		V303.6z"/>
	<path class="st4" d="M154.3,303.2H135V301h19.3V303.2z M151.9,289.4c0,2.8,0,5.8-0.8,10.2l-2.6-0.2c0.8-4.2,0.8-7.2,0.8-10v-0.3
		h-12.2V287h14.8V289.4z"/>
	<path class="st4" d="M164.7,292.3h-5.5v2.3c2.5,0,4.3-0.1,6.5-0.6l0.2,2.1c-2.6,0.5-4.7,0.5-7.8,0.5h-1.5v-6.3h5.5v-2.1h-5.6v-2.1
		h8.1V292.3z M173.9,305.8h-14.3v-7.5h14.3V305.8z M162.2,303.7h9.1v-3.3h-9.1V303.7z M173.9,297.5h-2.5v-5.3h-2.2v5.1h-2.4v-11.9
		h2.4v4.7h2.2v-5.1h2.5V297.5z"/>
	<path class="st4" d="M193.1,299.6l-1.5,1.9c-2-1.2-3.3-3.2-4-5.6c-0.8,2.6-2.1,4.8-4.1,6.1l-1.6-1.9c3.1-1.9,4.4-5.7,4.4-9.4v-1.4
		h-3.7v-2.1h9.6v2.1h-3.4v1.4C188.7,294.3,190,297.9,193.1,299.6z M196.1,305.1h-2.5v-10.7h-3v-2.1h3v-7h2.5V305.1z M200.4,306.1
		H198v-21.2h2.5V306.1z"/>
	<path class="st4" d="M222.2,296.6H203v-2.1h7.5v-3.8h2.6v3.8h9.2V296.6z M220,302.1c0,2.5-2.9,3.9-7.5,3.9c-4.6,0-7.5-1.5-7.5-3.9
		c0-2.5,2.9-4,7.5-4C217.1,298.2,220,299.6,220,302.1z M219.9,287.7c0,1.7,0,3.4-0.6,5.6l-2.6-0.2c0.5-2.1,0.6-3.6,0.6-5.1h-12.1
		v-2.1h14.7V287.7z M207.6,302.1c0,1.2,1.8,1.9,4.9,1.9c3.1,0,4.9-0.7,4.9-1.9c0-1.3-1.9-2-4.9-2
		C209.4,300.1,207.6,300.8,207.6,302.1z"/>
</g>
<g class="st23">
	<path class="st4" d="M89,509.6H69.8v-2.1h7.5v-3.8h2.6v3.8H89V509.6z M86.8,515.1c0,2.5-2.9,3.9-7.5,3.9c-4.6,0-7.5-1.5-7.5-3.9
		c0-2.5,2.9-4,7.5-4C83.9,511.2,86.8,512.6,86.8,515.1z M86.6,500.7c0,1.7,0,3.4-0.6,5.6l-2.6-0.2C84,504,84,502.5,84,501H72v-2.1
		h14.7V500.7z M74.4,515.1c0,1.2,1.8,1.9,4.9,1.9c3.1,0,4.9-0.7,4.9-1.9c0-1.3-1.9-2-4.9-2C76.2,513.1,74.4,513.8,74.4,515.1z"/>
	<path class="st4" d="M107.5,500.5c0,1.6,0,3.4-0.5,5.9h2.9v2.1H90.5v-2.1h13.9c0.4-2.2,0.5-3.9,0.5-5.4h-12v-2.1h14.6V500.5z
		 M95.4,512.4h9.4V510h2.6v8.9H92.9V510h2.6V512.4z M104.8,516.7v-2.3h-9.4v2.3H104.8z"/>
	<path class="st4" d="M112.7,515.3l-1.4-2.1c5.5-2.6,8.1-6.2,8.6-11h-7.5v-2.1h10.1C122.6,506.5,120.1,511.8,112.7,515.3z
		 M128.9,519.1h-2.6v-21.2h2.6V519.1z"/>
	<path class="st4" d="M143.3,502.7h3.8v-4.8h2.6v11.4h-2.6v-4.4h-3.8c-0.5,2.4-2.7,4-5.5,4c-3.3,0-5.6-2.1-5.6-5c0-2.9,2.3-5,5.6-5
		C140.6,498.8,142.7,500.4,143.3,502.7z M134.7,503.8c0,1.7,1.3,2.8,3.1,2.8c1.8,0,3-1.1,3.1-2.8c0-1.7-1.3-2.8-3.1-2.8
		C136,501,134.7,502.1,134.7,503.8z M138.3,512.5h8.8v-2.2h2.6v8.6h-14v-8.6h2.6V512.5z M147.1,516.7v-2.2h-8.8v2.2H147.1z"/>
	<path class="st4" d="M159.3,517v-17h5.9c5.1,0,8.1,3.2,8.1,8.5c0,5.3-3.1,8.5-8.2,8.5H159.3z M164.9,514.4c3.5,0,5.3-1.9,5.3-5.9
		c0-3.9-1.8-5.8-5.2-5.8h-2.6v11.7H164.9z"/>
	<path class="st4" d="M181.6,506.3h0.1l3.8-6.2h3.5l-5.2,8.5l5.3,8.5h-3.5l-3.8-6.2h-0.1l-3.8,6.2h-3.5l5.4-8.5l-5.3-8.5h3.5
		L181.6,506.3z"/>
</g>
<g class="st23">
	<path class="st4" d="M71.1,554h-8.4v7.1h-2.6V554h-8.3v-2.2h19.4V554z M69,545.4c0,2.9-3.1,4.7-7.6,4.7c-4.5,0-7.6-1.8-7.6-4.7
		c0-2.9,3.1-4.7,7.6-4.8C65.8,540.7,69,542.5,69,545.4z M56.4,545.4c0,1.6,1.9,2.6,4.9,2.6s4.9-1,4.9-2.6c0-1.7-1.9-2.6-4.9-2.6
		S56.4,543.7,56.4,545.4z"/>
	<path class="st4" d="M91.8,553.7h-8.4v7.4h-2.6v-7.4h-8.3v-2.2h19.3V553.7z M91,547.6l-1,2.1c-3.6-0.5-6.5-2.3-7.8-4.7
		c-1.4,2.4-4.2,4.2-7.8,4.7l-1-2.1c4.5-0.6,7.5-3.3,7.5-6v-1.1h2.7v1.1C83.5,544.3,86.5,547,91,547.6z"/>
	<path class="st4" d="M109.8,548.8h8.4v2.1H98.9v-2.1h8.3v-2.5h2.6V548.8z M117.2,545.5l-0.9,2c-3.6-0.4-6.4-1.8-7.7-3.8
		c-1.4,2.1-4.2,3.4-7.7,3.8l-0.9-2c4.5-0.4,7.3-2.5,7.3-4.9v-0.6h2.6v0.6C109.9,543.1,112.6,545.1,117.2,545.5z M115.8,557.4h-12
		v1.5h12.6v2h-15.2v-5.4h12v-1.4h-12.1v-2h14.6V557.4z"/>
	<path class="st4" d="M139,554.7h-8.4v6.4H128v-6.4h-8.3v-2.1H139V554.7z M136.7,546.6h-12.2v2.1h12.6v2.1H122v-6.2h12.1v-1.9h-12.2
		v-2.1h14.8V546.6z"/>
	<path class="st4" d="M153,550.8l-1.5,2c-2.3-0.9-3.9-2.7-4.8-4.9c-0.9,2.3-2.6,4.2-5.1,5.2l-1.4-2.1c3.4-1.2,5.1-4.2,5.1-7.4v-2.5
		h2.6v2.5C148.1,546.6,149.8,549.6,153,550.8z M158.6,560.7h-14.4v-6.6h2.6v4.5h11.8V560.7z M158.1,555.6h-2.6v-6.6h-3.9V547h3.9
		v-2.1h-3.9v-2.1h3.9v-2.9h2.6V555.6z"/>
	<path class="st4" d="M183.5,547.2c0,1.8-2,2.8-5.7,3v1.3h8.4v2h-19.3v-2h8.3v-1.3c-3.7-0.2-5.7-1.2-5.7-3c0-2,2.6-3,7-3
		C181,544.2,183.5,545.2,183.5,547.2z M185.1,543.5h-17.3v-2h7.4v-1.8h2.6v1.8h7.3V543.5z M183.8,557.8c0,2.1-2.7,3.3-7.3,3.3
		c-4.7,0-7.4-1.1-7.4-3.3s2.6-3.3,7.4-3.3C181.1,554.5,183.8,555.7,183.8,557.8z M171.8,557.8c0,0.9,1.6,1.4,4.7,1.3
		c3.1,0,4.7-0.4,4.7-1.3c0-0.9-1.6-1.4-4.7-1.4C173.3,556.4,171.8,556.9,171.8,557.8z M172.2,547.2c0,0.8,1.4,1.2,4.2,1.2
		c2.8,0,4.3-0.4,4.3-1.2c0-0.9-1.4-1.3-4.3-1.3C173.7,545.9,172.2,546.3,172.2,547.2z"/>
	<path class="st4" d="M206.9,558.5h-19.4v-2.1h8.3v-4.1h-6.2v-11h2.6v3.5h9.8v-3.5h2.6v11h-6.2v4.1h8.4V558.5z M202.1,550.2v-3.3
		h-9.8v3.3H202.1z"/>
</g>
<g class="st23">
	<path class="st4" d="M572.8,511.7h-8.4v7.4h-2.6v-7.4h-8.3v-2.2h19.3V511.7z M572,505.6l-1,2.1c-3.6-0.5-6.5-2.3-7.8-4.7
		c-1.4,2.4-4.2,4.2-7.8,4.7l-1-2.1c4.5-0.6,7.5-3.3,7.5-6v-1.1h2.7v1.1C564.5,502.3,567.5,505,572,505.6z"/>
	<path class="st4" d="M593.6,516.5h-19.4v-2.1h4.5V509c-1.7-1-2.7-2.5-2.7-4.4c0-3.4,3.3-5.6,7.9-5.6c4.6,0,7.9,2.2,7.9,5.6
		c0,1.9-1,3.3-2.6,4.3v5.4h4.5V516.5z M578.6,504.6c0,2.2,2.1,3.5,5.3,3.5s5.3-1.4,5.3-3.5c0-2.2-2.2-3.5-5.3-3.5
		S578.5,502.4,578.6,504.6z M586.5,514.4v-4.4c-0.8,0.2-1.7,0.3-2.6,0.3c-0.9,0-1.8-0.1-2.6-0.3v4.4H586.5z"/>
	<path class="st4" d="M603.4,511.2h-7.6v-2.5h7.6V511.2z"/>
	<path class="st4" d="M624.9,509.6h-19.2v-2.1h7.5v-3.8h2.6v3.8h9.2V509.6z M622.7,515.1c0,2.5-2.9,3.9-7.5,3.9
		c-4.6,0-7.5-1.5-7.5-3.9c0-2.5,2.9-4,7.5-4C619.7,511.2,622.6,512.6,622.7,515.1z M622.5,500.7c0,1.7,0,3.4-0.6,5.6l-2.6-0.2
		c0.5-2.1,0.6-3.6,0.6-5.1h-12.1v-2.1h14.7V500.7z M610.3,515.1c0,1.2,1.8,1.9,4.9,1.9c3.1,0,4.9-0.7,4.9-1.9c0-1.3-1.9-2-4.9-2
		C612.1,513.1,610.2,513.8,610.3,515.1z"/>
	<path class="st4" d="M643.3,500.5c0,1.6,0,3.4-0.5,5.9h2.9v2.1h-19.4v-2.1h13.9c0.4-2.2,0.5-3.9,0.5-5.4h-12v-2.1h14.6V500.5z
		 M631.3,512.4h9.4V510h2.6v8.9h-14.5V510h2.6V512.4z M640.7,516.7v-2.3h-9.4v2.3H640.7z"/>
	<path class="st4" d="M648.6,515.3l-1.4-2.1c5.5-2.6,8.1-6.2,8.6-11h-7.5v-2.1h10.1C658.5,506.5,656,511.8,648.6,515.3z
		 M664.8,519.1h-2.6v-21.2h2.6V519.1z"/>
	<path class="st4" d="M679.2,502.7h3.8v-4.8h2.6v11.4H683v-4.4h-3.8c-0.5,2.4-2.7,4-5.5,4c-3.3,0-5.6-2.1-5.6-5c0-2.9,2.3-5,5.6-5
		C676.5,498.8,678.6,500.4,679.2,502.7z M670.6,503.8c0,1.7,1.3,2.8,3.1,2.8c1.8,0,3-1.1,3.1-2.8c0-1.7-1.3-2.8-3.1-2.8
		C671.9,501,670.6,502.1,670.6,503.8z M674.2,512.5h8.8v-2.2h2.6v8.6h-14v-8.6h2.6V512.5z M683,516.7v-2.2h-8.8v2.2H683z"/>
</g>
<g class="st23">
	<path class="st4" d="M585.7,555.6h-8.3v-13.4h8.3V555.6z M579.8,553.6h3.4v-9.3h-3.4V553.6z M595,561.1h-2.5v-10.9h-2.2v9.8h-2.5
		v-19.8h2.5v7.8h2.2v-8.2h2.5V561.1z"/>
	<path class="st4" d="M610,544.3h-4.5c0,2.4,1.9,4.7,5.2,5.6l-1.2,2c-2.5-0.6-4.3-2.1-5.2-4c-1,2.1-2.8,3.7-5.3,4.5l-1.3-2
		c3.4-1,5.2-3.5,5.2-6h-4.5v-2.1h4.5v-2.3h2.6v2.3h4.5V544.3z M615.1,557.1c0,2.5-2.8,4-7.2,4c-4.5,0-7.2-1.5-7.2-4s2.7-4,7.2-4
		C612.4,553.1,615.1,554.6,615.1,557.1z M603.3,557.1c0,1.3,1.6,1.9,4.6,1.9c3,0,4.6-0.7,4.7-1.9c0-1.2-1.7-1.9-4.7-1.9
		C604.9,555.2,603.3,555.9,603.3,557.1z M615.1,552.8h-2.6v-12.8h2.6V552.8z"/>
	<path class="st4" d="M637.3,554.5l-1.4,2.1c-2.5-1.1-4.3-3.3-5.3-6c-1,2.9-2.8,5.3-5.3,6.5l-1.5-2c3.4-1.5,5.4-5.5,5.4-9.1v-1.8
		h-4.7V542h12v2.2h-4.6v1.8C631.9,549.4,633.9,553,637.3,554.5z M641.5,561.1h-2.6v-21.2h2.6V561.1z"/>
	<path class="st4" d="M658.2,548.8l0.1,1.9c-1.7,0.3-3.6,0.5-5.3,0.6v4.1h-2.6v-3.9c-2,0.1-3.9,0.1-5.5,0.1l-0.3-2.1
		C648.4,549.4,653.7,549.4,658.2,548.8z M656.7,544.4c0,2.3-2.2,3.7-5.3,3.7c-3.1,0-5.3-1.5-5.3-3.7c0-2.2,2.2-3.8,5.3-3.8
		C654.5,540.7,656.7,542.2,656.7,544.4z M662.9,560.7h-15.5v-6.3h2.6v4.1h12.9V560.7z M648.6,544.4c0,1.1,1.1,1.8,2.8,1.8
		c1.6,0,2.8-0.7,2.8-1.8c0-1.1-1.2-1.8-2.8-1.8C649.8,542.6,648.6,543.3,648.6,544.4z M662.4,556h-2.6v-1.9h-4.1v-1.8h4.1v-12.4h2.6
		V556z"/>
</g>
<g class="st23">
	<path class="st4" d="M304.4,652v-17h5.9c5.1,0,8.1,3.2,8.1,8.5c0,5.3-3.1,8.5-8.2,8.5H304.4z M310,649.4c3.5,0,5.3-1.9,5.3-5.9
		c0-3.9-1.8-5.8-5.2-5.8h-2.6v11.7H310z"/>
	<path class="st4" d="M326.7,641.3h0.1l3.8-6.2h3.5l-5.2,8.5l5.3,8.5h-3.5l-3.8-6.2h-0.1l-3.8,6.2h-3.5l5.4-8.5l-5.3-8.5h3.5
		L326.7,641.3z"/>
	<path class="st4" d="M353.8,643.3l-1.4,2c-2.3-0.9-3.9-2.5-4.8-4.6c-0.9,2.3-2.6,4.2-5.1,5.1l-1.4-2.1c3.4-1.1,5.1-4.1,5.2-7.2
		v-2.4h2.6v2.4C348.9,639.5,350.5,642.2,353.8,643.3z M359.4,653.7h-14.4v-6.7h2.6v4.6h11.8V653.7z M358.9,648.6h-2.6v-8.9h-4.2
		v-2.1h4.2v-4.7h2.6V648.6z"/>
	<path class="st4" d="M379.1,644.6h-6.3v4.9h8.4v2.1h-19.4v-2.1h8.3v-4.9h-6v-10.1h14.7v2.1h-12.1v6h12.3V644.6z"/>
	<path class="st4" d="M395.4,647.2l-1.6,2.1c-2.3-1.2-3.9-3.4-4.9-6.1c-0.9,2.9-2.7,5.3-5.1,6.5l-1.6-2.1c3.4-1.6,5.3-5.7,5.4-9.6
		v-3.4h2.6v3.4C390.2,641.8,392.1,645.6,395.4,647.2z M399.2,641.2h3.3v2.2h-3.3v10.7h-2.6v-21.2h2.6V641.2z"/>
	<path class="st4" d="M411.3,642.9h-4.8v4.1c1.9,0,3.7-0.1,5.9-0.5l0.2,2.1c-2.6,0.4-4.8,0.5-7.2,0.5H404v-8.3h4.7v-3.7H404v-2.1
		h7.3V642.9z M417.3,653h-2.5v-7.4h-2.5v-2.1h2.5v-3.1h-2.5v-2.1h2.5v-5h2.5V653z M421.6,654.1h-2.5v-21.2h2.5V654.1z"/>
	<path class="st4" d="M441.1,643h-10.2v-8.8h10.2V643z M447.9,648.2h-6c0.2,1.6,2.8,3.4,6.8,3.8l-0.9,2c-3.4-0.4-6-1.7-7.3-3.5
		c-1.3,1.8-3.9,3.1-7.4,3.5l-0.9-2c4.1-0.4,6.7-2.2,6.9-3.8h-6v-2h6.1v-1.9h2.6v1.9h6.1V648.2z M433.5,641h5.1v-4.7h-5.1V641z
		 M447.4,645h-2.6v-12.1h2.6V645z"/>
</g>
<g class="st23">
	<path class="st4" d="M313.5,692.3l-1.4-2.1c5.5-2.6,8.1-6.2,8.6-11h-7.5v-2.1h10.1C323.3,683.5,320.9,688.8,313.5,692.3z
		 M329.6,696.1H327v-21.2h2.6V696.1z"/>
	<path class="st4" d="M352,685.5h-8.4v1.6h6v5.2h-12v1.5h12.6v2H335v-5.4h12v-1.4H335v-2h6v-1.6h-8.3v-2.1H352V685.5z M351,680.4
		l-0.9,2c-3.6-0.4-6.4-1.8-7.8-3.9c-1.4,2.1-4.2,3.5-7.8,3.9l-0.9-2c4.5-0.5,7.3-2.5,7.3-4.8V675h2.7v0.6
		C343.7,677.9,346.6,679.9,351,680.4z"/>
	<path class="st4" d="M372.8,687.1h-19.3V685h8.4v-2h-6v-7.2h14.6v2h-12v3.1h12.1v2.1h-6.2v2h8.4V687.1z M370.4,692.2
		c0,2.5-2.8,3.9-7.3,3.9c-4.6,0-7.4-1.4-7.4-3.9c0-2.5,2.8-3.9,7.4-3.9C367.6,688.4,370.4,689.7,370.4,692.2z M358.3,692.2
		c0,1.2,1.6,1.9,4.7,1.9c3,0,4.7-0.6,4.7-1.9c0-1.2-1.7-1.9-4.7-1.9C360,690.3,358.3,691,358.3,692.2z"/>
	<path class="st4" d="M386.8,679.1h-12.6v-2h5v-2.3h2.6v2.3h5V679.1z M385.7,683.7c0,2.3-2.1,3.8-5.2,3.8c-3.1,0-5.2-1.5-5.2-3.8
		s2.1-3.8,5.2-3.8C383.6,679.9,385.6,681.5,385.7,683.7z M391.1,692.3c0,2.3-2.7,3.7-7.1,3.7c-4.4,0-7.1-1.4-7.1-3.7
		c0-2.3,2.7-3.7,7.1-3.7C388.4,688.6,391.1,690,391.1,692.3z M377.8,683.7c0,1.1,1.1,1.8,2.7,1.8s2.7-0.7,2.7-1.8
		c0-1.2-1.1-1.9-2.7-1.9S377.8,682.6,377.8,683.7z M379.5,692.3c0,1.1,1.6,1.8,4.5,1.8c2.9,0,4.5-0.6,4.5-1.8c0-1.2-1.6-1.7-4.5-1.7
		C381.1,690.6,379.5,691.2,379.5,692.3z M393.8,680.3h-2.9v2.4h2.9v2.1h-2.9v3.5h-2.6v-13.5h2.6v3.3h2.9V680.3z"/>
	<path class="st4" d="M419.9,686.6h-19.2v-2.1h7.5v-3.8h2.6v3.8h9.2V686.6z M417.7,692.1c0,2.5-2.9,3.9-7.5,3.9
		c-4.6,0-7.5-1.5-7.5-3.9c0-2.5,2.9-4,7.5-4C414.8,688.2,417.7,689.6,417.7,692.1z M417.5,677.7c0,1.7,0,3.4-0.6,5.6l-2.6-0.2
		c0.5-2.1,0.6-3.6,0.6-5.1h-12.1v-2.1h14.7V677.7z M405.3,692.1c0,1.2,1.8,1.9,4.9,1.9c3.1,0,4.9-0.7,4.9-1.9c0-1.3-1.9-2-4.9-2
		C407.1,690.1,405.3,690.8,405.3,692.1z"/>
	<path class="st4" d="M440.7,688.9H436v7.2h-2.6v-7.2h-4.7v7.2H426v-7.2h-4.6v-2.1h19.4V688.9z M438.6,680.4c0,2.8-3.1,4.6-7.6,4.6
		c-4.5,0-7.6-1.8-7.6-4.6c0-2.9,3.1-4.7,7.6-4.7C435.5,675.7,438.6,677.5,438.6,680.4z M426,680.4c0,1.6,1.9,2.6,4.9,2.6
		s4.9-1,4.9-2.6c0-1.7-1.9-2.6-4.9-2.6S426,678.7,426,680.4z"/>
</g>
</svg>
