<?xml version="1.0" encoding="utf-8"?>
<!-- Generator: Adobe Illustrator 24.1.1, SVG Export Plug-In . SVG Version: 6.00 Build 0)  -->
<svg version="1.1" id="Layer_1" xmlns="http://www.w3.org/2000/svg" xmlns:xlink="http://www.w3.org/1999/xlink" x="0px" y="0px"
	 viewBox="0 0 200 200" style="enable-background:new 0 0 200 200;" xml:space="preserve">
<style type="text/css">
	.st0{enable-background:new    ;}
	.st1{clip-path:url(#SVGID_2_);enable-background:new    ;}
	.st2{clip-path:url(#SVGID_4_);enable-background:new    ;}
	.st3{fill:#8F8F8F;}
	.st4{clip-path:url(#SVGID_6_);enable-background:new    ;}
	.st5{clip-path:url(#SVGID_8_);enable-background:new    ;}
	.st6{clip-path:url(#SVGID_10_);enable-background:new    ;}
	.st7{fill:#9E9E9E;}
	.st8{fill:#999999;}
	.st9{fill:#949494;}
	.st10{fill:#8A8A8A;}
	.st11{fill:#858585;}
	.st12{clip-path:url(#SVGID_12_);enable-background:new    ;}
	.st13{fill:#A3A3A3;}
	.st14{fill:#A8A8A8;}
	.st15{fill:#ADADAD;}
	.st16{fill:#FFFFFF;}
	.st17{clip-path:url(#SVGID_14_);enable-background:new    ;}
	.st18{stroke:#000000;stroke-miterlimit:10;}
	.st19{stroke:#FFFFFF;stroke-miterlimit:10;}
</style>
<g>
	<g class="st0">
		<g class="st0">
			<g>
				<defs>
					<path id="SVGID_1_" d="M91.3,6.8l4.6-0.3C47.7,9.7,9.5,50.2,9.5,100c0,52,41.6,94.5,92.7,94.5l-4.5,0.3
						C46.5,194.8,5,152.3,5,100.3C5,50.5,43.1,10,91.3,6.8z"/>
				</defs>
				<clipPath id="SVGID_2_">
					<use xlink:href="#SVGID_1_"  style="overflow:visible;"/>
				</clipPath>
				<g class="st1">
					<path d="M91.3,6.8l4.6-0.3C54.3,9,20.1,40,11.6,80.5L7,80.8C15.6,40.3,49.7,9.4,91.3,6.8"/>
					<path d="M7,80.8l4.5-0.3c-0.4,1.9-0.8,3.8-1.1,6.1l-4.4,0C6.3,84.7,6.6,82.8,7,80.8"/>
					<path d="M6,86.6l4.5-0.3c-0.2,1.3-0.4,2.9-0.5,4.1l-4.5,0.3C5.6,89.5,5.8,88.2,6,86.6"/>
					<path d="M5.4,91.1l4.5-0.3c-0.1,1.3-0.2,2.6-0.3,3.8l-4.5,0.3C5.2,93.6,5.3,92.3,5.4,91.1"/>
					<path d="M5.1,94.9l4.5-0.3c-0.1,1.3-0.1,2.2-0.1,3.5L5,98.4C5,97.1,5.1,95.8,5.1,94.9"/>
					<path d="M5,98.4l4.5-0.3c0,0.6,0,1.3,0,2.2c0,0.6,0,1.3,0,1.6L5,102.2c0-0.6,0-1.3,0-1.6C5,99.7,5,99,5,98.4"/>
					<path d="M5,102.2l4.5-0.3c0,1.3,0.1,2.9,0.2,4.1l-4.5,0.3C5.1,104.8,5,103.5,5,102.2"/>
					<path d="M5.1,106.4l4.5-0.3c0.1,2.2,0.4,4.5,0.7,6.7l-4.5,0.3C5.5,110.8,5.3,108.6,5.1,106.4"/>
					<path d="M5.8,113.1l4.5-0.3c0.8,5.7,2.1,11.5,3.8,16.6l-4.5,0.3C7.9,124.6,6.6,118.8,5.8,113.1"/>
					<path d="M9.6,130l4.5-0.3c1.5,4.5,3.2,8.6,5.3,12.8l-4.5,0.3C12.9,138.6,11.1,134.5,9.6,130"/>
					<path d="M14.9,142.8l4.5-0.3c2.2,4.5,4.8,8.9,7.7,12.8l-4.5,0.3C19.8,151.7,17.2,147.2,14.9,142.8"/>
					<path d="M22.6,155.5l4.5-0.3c3.8,5.4,8.1,10.2,12.8,14.7l-4.5,0.3C30.7,165.7,26.4,160.9,22.6,155.5"/>
					<path d="M35.5,170.2l4.5-0.3c6.4,6.1,13.7,10.9,21.5,15l-4.5,0.3C49.2,181,42,176.3,35.5,170.2"/>
					<path d="M57,185.2l4.5-0.3c10.1,5.1,21.2,8.3,32.9,9.3l-4.5,0.3C78.2,193.5,67.2,190.3,57,185.2"/>
					<path d="M89.9,194.5l4.5-0.3c2.5,0.3,5.2,0.3,7.8,0.3l-4.5,0.3C95.1,194.8,92.5,194.8,89.9,194.5"/>
				</g>
			</g>
		</g>
		<g class="st0">
			<g>
				<defs>
					<path id="SVGID_3_" d="M95.9,6.5c2.1,0,4.3-0.3,6.4-0.3l-4.5,0.3c-2.1,0-4.3,0-6.4,0.3C92.6,6.5,94.5,6.5,95.9,6.5z"/>
				</defs>
				<clipPath id="SVGID_4_">
					<use xlink:href="#SVGID_3_"  style="overflow:visible;"/>
				</clipPath>
				<g class="st2">
					<path class="st3" d="M91.3,6.8l4.6-0.3c2.1,0,4.3-0.3,6.4-0.3l-4.5,0.3C95.6,6.5,93.4,6.5,91.3,6.8"/>
				</g>
			</g>
		</g>
		<g class="st0">
			<g>
				<defs>
					<path id="SVGID_5_" d="M91.4,3.6l4.5-0.3c2.1,0,4.2-0.3,6.3-0.3l-4.5,0.3C95.6,3.3,93.5,3.3,91.4,3.6z"/>
				</defs>
				<clipPath id="SVGID_6_">
					<use xlink:href="#SVGID_5_"  style="overflow:visible;"/>
				</clipPath>
				<g class="st4">
					<path d="M91.4,3.6l4.5-0.3c2.1,0,4.2-0.3,6.3-0.3l-4.5,0.3C95.6,3.3,93.5,3.3,91.4,3.6"/>
				</g>
			</g>
		</g>
		<g class="st0">
			<g>
				<defs>
					<path id="SVGID_7_" d="M108.7,194.1l-4.5,0.3c-2.1,0-4.3,0.3-6.4,0.3l4.5-0.3C104.4,194.5,106.5,194.5,108.7,194.1z"/>
				</defs>
				<clipPath id="SVGID_8_">
					<use xlink:href="#SVGID_7_"  style="overflow:visible;"/>
				</clipPath>
				<g class="st5">
					<path d="M97.7,194.8l4.5-0.3c2.1,0,4.3,0,6.4-0.3l-4.5,0.3C102,194.8,99.9,194.8,97.7,194.8"/>
				</g>
			</g>
		</g>
		<g class="st0">
			<g>
				<defs>
					<path id="SVGID_9_" d="M195,100.6c0,49.8-38.2,90.3-86.3,93.8l-4.5,0.3c48.1-3.2,86.2-44,86.3-93.8l0,0
						C192,100.6,193.4,100.6,195,100.6L195,100.6z"/>
				</defs>
				<clipPath id="SVGID_10_">
					<use xlink:href="#SVGID_9_"  style="overflow:visible;"/>
				</clipPath>
				<g class="st6">
					<path class="st7" d="M190.4,99l4.5-0.3c0,0.6,0,1.3,0,1.6c0,0.6,0,1.3,0,2.2l-4.5,0.3c0-0.6,0-1.3,0-2.2
						C190.4,100.3,190.4,99.7,190.4,99"/>
					<path class="st8" d="M190.4,102.9l4.5-0.3c0,1.3-0.1,2.2-0.1,3.5l-4.5,0.3C190.3,105.4,190.4,104.1,190.4,102.9"/>
					<path class="st9" d="M190.3,106.4l4.5-0.3c-0.1,1.3-0.2,2.6-0.3,3.8l-4.5,0.3C190.1,108.9,190.2,107.6,190.3,106.4"/>
					<path class="st3" d="M190,110.2l4.5-0.3c-0.1,1.3-0.3,2.9-0.5,4.1l-4.5,0.3C189.6,113.1,189.8,111.8,190,110.2"/>
					<path class="st10" d="M189.4,114.7l4.5-0.3c-0.3,1.9-0.7,4.1-1.1,6.1l-4.5,0.3C188.8,118.5,189.1,116.6,189.4,114.7"/>
					<path class="st11" d="M188.3,120.4l4.5-0.3c-8.5,40.5-42.7,71.2-84.3,74l-4.5,0.3C145.8,191.9,179.8,160.9,188.3,120.4"/>
				</g>
			</g>
		</g>
		<g class="st0">
			<g>
				<defs>
					<path id="SVGID_11_" d="M102.3,6.2c51.1,0,92.7,42.4,92.7,94.5c-1.5,0-3,0.3-4.5,0.3c0-52-41.6-94.1-92.7-94.5
						C99.1,6.5,100.9,6.2,102.3,6.2z"/>
				</defs>
				<clipPath id="SVGID_12_">
					<use xlink:href="#SVGID_11_"  style="overflow:visible;"/>
				</clipPath>
				<g class="st12">
					<path class="st3" d="M97.7,6.5l4.5-0.3c2.6,0,5.2,0,7.8,0.3l-4.5,0.3C102.9,6.5,100.4,6.5,97.7,6.5"/>
					<path class="st9" d="M105.5,6.8l4.5-0.3c11.7,1,22.9,4.1,32.9,9.3l-4.5,0.3C128.3,11,117.3,7.8,105.5,6.8"/>
					<path class="st8" d="M138.4,16.1l4.5-0.3c7.9,3.8,15.1,8.9,21.5,15l-4.5,0.3C153.5,25,146.3,20.2,138.4,16.1"/>
					<path class="st7" d="M159.9,31.1l4.5-0.3c4.8,4.5,9.1,9.3,12.8,14.7l-4.5,0.3C169,40.3,164.7,35.5,159.9,31.1"/>
					<path class="st13" d="M172.8,45.7l4.5-0.3c2.9,4.1,5.5,8.3,7.7,12.8l-4.5,0.3C178.3,54,175.6,49.6,172.8,45.7"/>
					<path class="st14" d="M180.5,58.5l4.5-0.3c2.1,4.1,3.8,8.3,5.3,12.8l-4.5,0.3C184.3,66.8,182.6,62.7,180.5,58.5"/>
					<path class="st15" d="M185.8,71.3l4.5-0.3c1.8,5.4,3,10.9,3.8,16.6l-4.5,0.3C188.8,82.4,187.6,76.7,185.8,71.3"/>
					<path class="st14" d="M189.6,88.2l4.5-0.3c0.3,2.2,0.5,4.5,0.7,6.7l-4.5,0.3C190.1,92.7,189.9,90.4,189.6,88.2"/>
					<path class="st13" d="M190.2,94.9l4.5-0.3c0.1,1.3,0.1,2.9,0.2,4.1l-4.5,0.3C190.4,97.8,190.3,96.5,190.2,94.9"/>
					<path class="st7" d="M190.4,99l4.5-0.3c0,0.6,0,1.3,0,1.6c0,0.6,0,1.3,0,2.2l-4.5,0.3c0-0.6,0-1.3,0-2.2
						C190.4,100.3,190.4,99.7,190.4,99"/>
				</g>
			</g>
		</g>
		<g>
			<path class="st16" d="M97.7,6.5c51.1,0,92.7,42.4,92.7,94.5s-41.6,94.1-92.7,93.8C46.5,194.8,5,152.3,5,100.3S46.6,6.2,97.7,6.5z
				"/>
		</g>
		<g class="st0">
			<g>
				<defs>
					<path id="SVGID_13_" d="M108.6,197.3l-4.5,0.3c48.7-3.2,87.3-45.3,87.3-97c0-53.6-42-97.3-93.6-97.7l4.5-0.3
						c51.7,0,93.6,44,93.6,97.7C195.9,152,157.3,194.1,108.6,197.3z"/>
				</defs>
				<clipPath id="SVGID_14_">
					<use xlink:href="#SVGID_13_"  style="overflow:visible;"/>
				</clipPath>
				<g class="st17">
					<path d="M97.7,3.3l4.5-0.3c2.5,0,5.2,0,7.7,0.3l-4.5,0.3C102.9,3.3,100.4,3.3,97.7,3.3"/>
					<path d="M105.4,3.6l4.5-0.3c11.6,1,22.7,4.1,32.6,9.3l-4.5,0.3C128,7.8,117.1,4.6,105.4,3.6"/>
					<path d="M138.1,12.9l4.5-0.3c7.9,3.8,15.2,8.9,21.7,15l-4.5,0.3C153.3,21.8,146,16.7,138.1,12.9"/>
					<path d="M159.8,27.9l4.5-0.3c4.9,4.5,9.3,9.6,13.1,15l-4.5,0.3C169,37.4,164.6,32.3,159.8,27.9"/>
					<path d="M172.9,42.9l4.5-0.3c3,4.1,5.7,8.6,8,13.4l-4.5,0.3C178.6,51.5,175.9,47,172.9,42.9"/>
					<path d="M180.9,56.3l4.5-0.3c2.1,4.5,4,8.9,5.5,13.4l-4.5,0.3C184.9,64.9,183.1,60.4,180.9,56.3"/>
					<path d="M186.5,69.7l4.5-0.3c1.9,5.7,3.2,11.5,4,17.9l-4.5,0.3C189.7,81.5,188.3,75.4,186.5,69.7"/>
					<path d="M190.5,87.5l4.5-0.3c0.3,2.2,0.6,4.8,0.7,7l-4.5,0.3C191,92.3,190.8,89.8,190.5,87.5"/>
					<path d="M191.2,94.6l4.5-0.3c0.1,1.6,0.2,2.9,0.2,4.5l-4.5,0.3C191.4,97.4,191.3,96.2,191.2,94.6"/>
					<path d="M191.4,99l4.5-0.3c0,0.6,0,1.3,0,1.9c0,0.6,0,1.6,0,2.2l-4.5,0.3c0-0.6,0-1.6,0-2.2S191.4,99.7,191.4,99"/>
					<path d="M191.4,103.2l4.5-0.3c0,1.3-0.1,2.6-0.2,3.8l-4.5,0.3C191.3,105.7,191.3,104.5,191.4,103.2"/>
					<path d="M191.2,106.7l4.5-0.3c-0.1,1.3-0.2,2.6-0.3,4.1l-4.5,0.3C191,109.6,191.1,108.3,191.2,106.7"/>
					<path d="M190.9,110.8l4.5-0.3c-0.2,1.6-0.3,2.9-0.5,4.5l-4.5,0.3C190.6,113.7,190.7,112.4,190.9,110.8"/>
					<path d="M190.3,115.3l4.5-0.3c-0.3,2.2-0.7,4.1-1.1,6.4l-4.5,0.3C189.7,119.5,190,117.5,190.3,115.3"/>
					<path d="M189.2,121.7l4.5-0.3c-8.7,41.5-43.2,73.4-85.2,76.3l-4.5,0.3C146.1,195.1,180.5,163.2,189.2,121.7"/>
				</g>
			</g>
		</g>
		<g>
			<path class="st18" d="M97.7,3.3c51.7,0,93.6,44,93.6,97.7s-42,97.3-93.6,97c-51.7,0-93.6-44-93.6-97.7S46.1,3.3,97.7,3.3z
				 M97.7,194.8c51.1,0,92.7-42.1,92.7-93.8c0-52-41.6-94.1-92.7-94.5C46.6,6.2,5,48.6,5,100.3C5,152.3,46.5,194.8,97.7,194.8"/>
		</g>
	</g>
</g>
<g>
	<path class="st19" d="M107.8,41.6L73.6,97L39.4,41.6h27.1l7.3,16.3l7.8-16.3H107.8z"/>
	<path class="st19" d="M152.9,63.1v12.3h-15.3c-2.1,0-3.5,0.2-4.5,0.7c-0.9,0.5-1.2,1.2-1.2,2.2c0,1.2,0.5,2,1.4,2.3
		c0.9,0.3,2.6,0.5,5.4,0.5h15.8V97h-18.4c-8.7,0-15.3-1.5-19.8-4.3c-4.5-3-6.8-7.2-6.8-12.7V58.3c0-5.3,2.1-9.5,6.4-12.3
		c4.2-2.8,10.4-4.3,18.2-4.3h20.3v16h-14.9c-4,0-6.1,1-6.1,2.8c0,1.2,0.5,1.8,1.4,2.3c0.9,0.5,2.6,0.7,5.2,0.7h13V63.1z"/>
	<path class="st19" d="M82.8,125.1v12.3H67.5c-2.1,0-3.5,0.2-4.5,0.7c-0.9,0.5-1.2,1.2-1.2,2.2c0,1.2,0.5,2,1.4,2.3
		c0.9,0.3,2.6,0.5,5.4,0.5h15.8V159H66c-8.7,0-15.3-1.5-19.8-4.3c-4.5-2.8-6.8-7.2-6.8-12.7v-21.7c0-5.3,2.1-9.5,6.4-12.3
		s10.4-4.3,18.2-4.3h20.3v16H69.3c-4,0-6.1,1-6.1,2.8c0,1.2,0.5,1.8,1.4,2.3c0.9,0.5,2.6,0.7,5.2,0.7h13V125.1z"/>
	<path class="st19" d="M97.7,159v-35.1c0-6.2,2.6-11,8-14.7c5.4-3.7,12.5-5.5,21.5-5.5s15.6,1.8,20.3,5.3c4.7,3.6,7.1,8.7,7.1,15.4
		v34.5h-23.3v-34.3c0-3.2-1.7-5-5.2-5c-3.3,0-5,1.6-5,5V159C121.1,159,97.7,159,97.7,159z"/>
</g>
</svg>
