<?xml version="1.0" encoding="utf-8"?>
<!-- Generator: Adobe Illustrator 24.1.1, SVG Export Plug-In . SVG Version: 6.00 Build 0)  -->
<svg version="1.1" id="Layer_1" xmlns="http://www.w3.org/2000/svg" xmlns:xlink="http://www.w3.org/1999/xlink" x="0px" y="0px"
	 viewBox="0 0 237.5 214.2" style="enable-background:new 0 0 237.5 214.2;" xml:space="preserve">
<style type="text/css">
	.st0{enable-background:new    ;}
	.st1{clip-path:url(#SVGID_1_);enable-background:new    ;}
	.st2{fill:#FFFFFF;stroke:#000000;stroke-miterlimit:10;}
	.st3{clip-path:url(#SVGID_2_);enable-background:new    ;}
	.st4{clip-path:url(#SVGID_3_);enable-background:new    ;}
	.st5{clip-path:url(#SVGID_4_);enable-background:new    ;}
	.st6{clip-path:url(#SVGID_5_);enable-background:new    ;}
	.st7{clip-path:url(#SVGID_6_);enable-background:new    ;}
	.st8{clip-path:url(#SVGID_7_);enable-background:new    ;}
	.st9{clip-path:url(#SVGID_8_);enable-background:new    ;}
	.st10{clip-path:url(#SVGID_9_);enable-background:new    ;}
	.st11{clip-path:url(#SVGID_10_);enable-background:new    ;}
	.st12{clip-path:url(#SVGID_11_);enable-background:new    ;}
	.st13{clip-path:url(#SVGID_12_);enable-background:new    ;}
	.st14{clip-path:url(#SVGID_13_);enable-background:new    ;}
	.st15{fill:#FFFFFF;stroke:#000000;stroke-width:0.75;stroke-miterlimit:10;}
	.st16{fill:#FFFFFF;}
</style>
<g>
	<g class="st0">
		<g class="st0">
			<defs>
				<path id="SVGID_27_" class="st0" d="M118.2,30l19.2-17.7c-8.6,8-14.8,20.3-16.4,37.7l-19.2,17.7C103.4,50.2,109.6,37.9,118.2,30
					z"/>
			</defs>
			<use xlink:href="#SVGID_27_"  style="overflow:visible;fill:#FFFFFF;"/>
			<clipPath id="SVGID_1_">
				<use xlink:href="#SVGID_27_"  style="overflow:visible;"/>
			</clipPath>
			<g class="st1">
				<path class="st2" d="M120.9,50l-19.2,17.7c1.6-17.5,7.8-29.8,16.4-37.7l19.2-17.7C128.7,20.2,122.5,32.6,120.9,50"/>
			</g>
			<use xlink:href="#SVGID_27_"  style="overflow:visible;fill:none;stroke:#000000;stroke-miterlimit:10;"/>
		</g>
		<g class="st0">
			<defs>
				<path id="SVGID_29_" class="st0" d="M118.2,30l19.2-17.7c-8.6,8-14.8,20.3-16.4,37.7l-19.2,17.7C103.4,50.2,109.6,37.9,118.2,30
					z"/>
			</defs>
			<use xlink:href="#SVGID_29_"  style="overflow:visible;fill:#FFFFFF;"/>
			<clipPath id="SVGID_2_">
				<use xlink:href="#SVGID_29_"  style="overflow:visible;"/>
			</clipPath>
			<g class="st3">
				<path class="st2" d="M120.9,50l-19.2,17.7c1.6-17.5,7.8-29.8,16.4-37.7l19.2-17.7C128.7,20.2,122.5,32.6,120.9,50"/>
			</g>
			<use xlink:href="#SVGID_29_"  style="overflow:visible;fill:none;stroke:#000000;stroke-miterlimit:10;"/>
		</g>
		<g class="st0">
			<defs>
				<path id="SVGID_31_" class="st0" d="M117.6,29.3l19.2-17.7c-8.6,7.9-14.8,20.2-16.6,37.4L101,66.7
					C102.7,49.4,109,37.2,117.6,29.3z"/>
			</defs>
			<use xlink:href="#SVGID_31_"  style="overflow:visible;fill:#FFFFFF;"/>
			<clipPath id="SVGID_3_">
				<use xlink:href="#SVGID_31_"  style="overflow:visible;"/>
			</clipPath>
			<g class="st4">
				<path class="st2" d="M120.2,49L101,66.7c1.7-17.2,8-29.5,16.6-37.4l19.2-17.7C128.1,19.5,121.9,31.8,120.2,49"/>
			</g>
			<use xlink:href="#SVGID_31_"  style="overflow:visible;fill:none;stroke:#000000;stroke-miterlimit:10;"/>
		</g>
		<g>
			<polygon class="st2" points="120.9,50.8 101.7,68.5 101.8,67.7 120.9,50 			"/>
		</g>
		<g>
			<polygon class="st2" points="120.9,50.8 101.7,68.5 101.8,67.7 120.9,50 			"/>
		</g>
		<g class="st0">
			<defs>
				<path id="SVGID_33_" class="st0" d="M171.7,194.2l-19.2,17.7c-0.6,0.6-1,0.9-1.2,1.1l19.2-17.7
					C170.7,195.1,171.1,194.8,171.7,194.2z"/>
			</defs>
			<use xlink:href="#SVGID_33_"  style="overflow:visible;fill:#FFFFFF;"/>
			<clipPath id="SVGID_4_">
				<use xlink:href="#SVGID_33_"  style="overflow:visible;"/>
			</clipPath>
			<g class="st5">
				<path class="st2" d="M171.7,194.2l-19.2,17.7c-0.6,0.6-1,0.9-1.2,1.1l19.2-17.7C170.7,195.1,171.1,194.8,171.7,194.2"/>
			</g>
			<use xlink:href="#SVGID_33_"  style="overflow:visible;fill:none;stroke:#000000;stroke-miterlimit:10;"/>
		</g>
		<g class="st0">
			<defs>
				<path id="SVGID_35_" class="st0" d="M152.6,211.9c-0.6,0.6-1,0.9-1.2,1.1l19.2-17.7c0.2-0.2,0.6-0.6,1.2-1.1
					C166,199.5,158.3,206.6,152.6,211.9z"/>
			</defs>
			<use xlink:href="#SVGID_35_"  style="overflow:visible;fill:#FFFFFF;"/>
			<clipPath id="SVGID_5_">
				<use xlink:href="#SVGID_35_"  style="overflow:visible;"/>
			</clipPath>
			<g class="st6">
				<path class="st2" d="M171.7,194.2l-19.2,17.7c-0.6,0.6-1,0.9-1.2,1.1l19.2-17.7C170.7,195.1,171.1,194.8,171.7,194.2"/>
			</g>
			<use xlink:href="#SVGID_35_"  style="overflow:visible;fill:none;stroke:#000000;stroke-miterlimit:10;"/>
		</g>
		<g class="st0">
			<defs>
				<path id="SVGID_37_" class="st0" d="M172.4,194.9l-19.2,17.7c-0.9,0.8-1.4,1.3-1.4,1.3l19.2-17.7
					C171,196.1,171.5,195.7,172.4,194.9z"/>
			</defs>
			<use xlink:href="#SVGID_37_"  style="overflow:visible;fill:#FFFFFF;"/>
			<clipPath id="SVGID_6_">
				<use xlink:href="#SVGID_37_"  style="overflow:visible;"/>
			</clipPath>
			<g class="st7">
				<path class="st2" d="M172.4,194.9l-19.2,17.7c-0.9,0.8-1.4,1.3-1.4,1.3l19.2-17.7C171,196.1,171.5,195.7,172.4,194.9"/>
			</g>
			<use xlink:href="#SVGID_37_"  style="overflow:visible;fill:none;stroke:#000000;stroke-miterlimit:10;"/>
		</g>
		<g class="st0">
			<defs>
				<path id="SVGID_39_" class="st0" d="M15.6,48.4l19.2-17.7C20.3,44,13.4,70.6,30.1,103.3c15.3,30,52.7,53.5,81.4,67.8
					c29.7,14.9,56.4,23.3,59,24.2L151.4,213c-2.6-0.8-29.3-9.3-59-24.2c-28.7-14.4-66.1-37.8-81.4-67.8
					C-5.7,88.3,1.2,61.7,15.6,48.4z"/>
			</defs>
			<use xlink:href="#SVGID_39_"  style="overflow:visible;fill:#FFFFFF;"/>
			<clipPath id="SVGID_7_">
				<use xlink:href="#SVGID_39_"  style="overflow:visible;"/>
			</clipPath>
			<g class="st8">
				<path class="st2" d="M170.5,195.3L151.4,213c-2.6-0.8-29.3-9.3-59-24.2c-28.7-14.4-66.1-37.8-81.4-67.8
					c-16.7-32.7-9.8-59.3,4.7-72.6l19.2-17.7C20.3,44,13.4,70.6,30.1,103.3c15.3,30,52.7,53.5,81.4,67.8
					C141.2,186,167.9,194.5,170.5,195.3"/>
			</g>
			<use xlink:href="#SVGID_39_"  style="overflow:visible;fill:none;stroke:#000000;stroke-miterlimit:10;"/>
		</g>
		<g class="st0">
			<defs>
				<path id="SVGID_41_" class="st0" d="M92.3,188.8c0.3-0.3,0.8-0.7,1.1-1c0.3-0.3,0.8-0.7,1.1-1.1c0.4-0.3,0.8-0.8,1.2-1.1
					c0.4-0.3,0.8-0.8,1.2-1.1c0.4-0.3,0.9-0.8,1.2-1.1c0.4-0.3,0.9-0.8,1.2-1.1c0.4-0.3,0.9-0.8,1.3-1.2c0.4-0.3,0.9-0.8,1.3-1.2
					c3.2-2.9,6.4-5.9,9.6-8.8c29.7,14.9,56.4,23.3,59,24.1L151.4,213C148.7,212.2,122,203.7,92.3,188.8z"/>
			</defs>
			<use xlink:href="#SVGID_41_"  style="overflow:visible;fill:#FFFFFF;"/>
			<clipPath id="SVGID_8_">
				<use xlink:href="#SVGID_41_"  style="overflow:visible;"/>
			</clipPath>
			<g class="st9">
				<path class="st2" d="M170.5,195.3L151.4,213c-2.6-0.8-29.3-9.3-59-24.2c-28.7-14.4-66.1-37.8-81.4-67.8
					c-16.7-32.7-9.8-59.3,4.7-72.6l19.2-17.7C20.3,44,13.4,70.6,30.1,103.3c15.3,30,52.7,53.5,81.4,67.8
					C141.2,186,167.9,194.5,170.5,195.3"/>
			</g>
			<use xlink:href="#SVGID_41_"  style="overflow:visible;fill:none;stroke:#000000;stroke-miterlimit:10;"/>
		</g>
		<g class="st0">
			<defs>
				<path id="SVGID_43_" class="st0" d="M111.5,171.2c-3.2,2.9-6.4,5.9-9.6,8.8c1.7-1.5,3.3-3.1,5-4.6c0.4-0.3,0.8-0.8,1.2-1.1
					c0.4-0.3,0.8-0.8,1.2-1.1c0.3-0.3,0.8-0.7,1.1-1C110.7,171.9,111.2,171.5,111.5,171.2C111.5,171.2,111.5,171.2,111.5,171.2z"/>
			</defs>
			<use xlink:href="#SVGID_43_"  style="overflow:visible;fill:#FFFFFF;"/>
			<clipPath id="SVGID_9_">
				<use xlink:href="#SVGID_43_"  style="overflow:visible;"/>
			</clipPath>
			<g class="st10">
				<path class="st2" d="M170.5,195.3L151.4,213c-2.6-0.8-29.3-9.3-59-24.2c-28.7-14.4-66.1-37.8-81.4-67.8
					c-16.7-32.7-9.8-59.3,4.7-72.6l19.2-17.7C20.3,44,13.4,70.6,30.1,103.3c15.3,30,52.7,53.5,81.4,67.8
					C141.2,186,167.9,194.5,170.5,195.3"/>
			</g>
			<use xlink:href="#SVGID_43_"  style="overflow:visible;fill:none;stroke:#000000;stroke-miterlimit:10;"/>
		</g>
		<g class="st0">
			<defs>
				<path id="SVGID_45_" class="st0" d="M92.3,188.8c-4.6-2.3-9.3-4.8-14.2-7.5c6.4-5.9,12.8-11.8,19.2-17.7
					c4.9,2.7,9.7,5.2,14.2,7.5C105.1,177,98.7,182.9,92.3,188.8z"/>
			</defs>
			<use xlink:href="#SVGID_45_"  style="overflow:visible;fill:#FFFFFF;"/>
			<clipPath id="SVGID_10_">
				<use xlink:href="#SVGID_45_"  style="overflow:visible;"/>
			</clipPath>
			<g class="st11">
				<path class="st2" d="M170.5,195.3L151.4,213c-2.6-0.8-29.3-9.3-59-24.2c-28.7-14.4-66.1-37.8-81.4-67.8
					c-16.7-32.7-9.8-59.3,4.7-72.6l19.2-17.7C20.3,44,13.4,70.6,30.1,103.3c15.3,30,52.7,53.5,81.4,67.8
					C141.2,186,167.9,194.5,170.5,195.3"/>
			</g>
			<use xlink:href="#SVGID_45_"  style="overflow:visible;fill:none;stroke:#000000;stroke-miterlimit:10;"/>
		</g>
		<g class="st0">
			<defs>
				<path id="SVGID_47_" class="st0" d="M10.9,121c-16.7-32.7-9.8-59.3,4.7-72.6l19.2-17.7c-14.5,13.4-21.4,39.9-4.7,72.6
					C23.7,109.2,17.3,115.1,10.9,121z"/>
			</defs>
			<use xlink:href="#SVGID_47_"  style="overflow:visible;fill:#FFFFFF;"/>
			<clipPath id="SVGID_11_">
				<use xlink:href="#SVGID_47_"  style="overflow:visible;"/>
			</clipPath>
			<g class="st12">
				<path class="st2" d="M170.5,195.3L151.4,213c-2.6-0.8-29.3-9.3-59-24.2c-28.7-14.4-66.1-37.8-81.4-67.8
					c-16.7-32.7-9.8-59.3,4.7-72.6l19.2-17.7C20.3,44,13.4,70.6,30.1,103.3c15.3,30,52.7,53.5,81.4,67.8
					C141.2,186,167.9,194.5,170.5,195.3"/>
			</g>
			<use xlink:href="#SVGID_47_"  style="overflow:visible;fill:none;stroke:#000000;stroke-miterlimit:10;"/>
		</g>
		<g class="st0">
			<defs>
				<path id="SVGID_49_" class="st0" d="M78.1,181.3c-25.2-14.1-52.9-34.1-66.2-58.5c6.4-5.9,12.8-11.8,19.2-17.7
					c13.3,24.5,41,44.4,66.2,58.5C90.9,169.5,84.5,175.4,78.1,181.3z"/>
			</defs>
			<use xlink:href="#SVGID_49_"  style="overflow:visible;fill:#FFFFFF;"/>
			<clipPath id="SVGID_12_">
				<use xlink:href="#SVGID_49_"  style="overflow:visible;"/>
			</clipPath>
			<g class="st13">
				<path class="st2" d="M170.5,195.3L151.4,213c-2.6-0.8-29.3-9.3-59-24.2c-28.7-14.4-66.1-37.8-81.4-67.8
					c-16.7-32.7-9.8-59.3,4.7-72.6l19.2-17.7C20.3,44,13.4,70.6,30.1,103.3c15.3,30,52.7,53.5,81.4,67.8
					C141.2,186,167.9,194.5,170.5,195.3"/>
			</g>
			<use xlink:href="#SVGID_49_"  style="overflow:visible;fill:none;stroke:#000000;stroke-miterlimit:10;"/>
		</g>
		<g>
			<path class="st2" d="M235.8,67.8c5.1,31.7-12.9,64.7-28.9,86.8c-16.6,22.9-34.5,39.1-36.3,40.7c-2.6-0.8-29.3-9.3-59-24.2
				c-28.7-14.4-66.1-37.8-81.4-67.8c-18.6-36.5-7.8-65.4,10-76.8c4.2-2.7,9.2-4.6,14.8-5.6c17.2-3,40.4,3.6,65.3,29.2l0.6,0.6
				l0.1-0.8c2.8-30.3,19.5-45.2,38.4-48.5c5.3-0.9,10.8-0.9,16.2-0.1C200.8,5.4,229.2,27.4,235.8,67.8z"/>
		</g>
		<g class="st0">
			<defs>
				<path id="SVGID_51_" class="st0" d="M15,47.7L34.2,30c-14.7,13.6-21.7,40.5-4.8,73.6c15.5,30.3,53.1,53.9,81.9,68.3
					c31.2,15.6,59.1,24.2,59.7,24.2l-19.2,17.7c-0.6,0-28.5-8.6-59.7-24.2c-28.8-14.4-66.4-38-81.9-68.3C-6.7,88.2,0.3,61.2,15,47.7
					z"/>
			</defs>
			<use xlink:href="#SVGID_51_"  style="overflow:visible;fill:#FFFFFF;"/>
			<clipPath id="SVGID_13_">
				<use xlink:href="#SVGID_51_"  style="overflow:visible;"/>
			</clipPath>
			<g class="st14">
				<path class="st15" d="M171,196.1l-19.2,17.7c-0.6,0-28.5-8.6-59.7-24.2c-28.8-14.4-66.4-38-81.9-68.3
					C-6.7,88.2,0.3,61.2,15,47.7L34.2,30c-14.7,13.6-21.7,40.5-4.8,73.6c15.5,30.3,53.1,53.9,81.9,68.3
					C142.4,187.5,170.3,196.1,171,196.1"/>
			</g>
			<use xlink:href="#SVGID_51_"  style="overflow:visible;fill:none;stroke:#000000;stroke-width:0.75;stroke-miterlimit:10;"/>
		</g>
		<g>
			<path class="st2" d="M213.8,21.1c12,12.3,19.8,28.4,22.8,46.7c5.2,32-13,65.2-29.1,87.4c-17.4,24-36.3,40.8-36.5,40.9
				c-0.6,0-28.5-8.6-59.7-24.2c-28.8-14.4-66.4-38-81.9-68.3c-18.9-37-7.9-66.3,10.2-77.8c4.3-2.7,9.3-4.7,15-5.7
				c17.3-3,40.6,3.5,65.5,28.9c3-30.1,19.8-45,38.9-48.3c5.4-0.9,11-0.9,16.5-0.1C189.4,2.8,203,10,213.8,21.1z"/>
		</g>
		<g>
			<path class="st16" d="M159.4,1.6c5.3-0.9,10.8-0.9,16.2-0.1c25.2,3.9,53.6,25.9,60.2,66.3c5.1,31.7-12.9,64.7-28.9,86.8
				c-16.6,22.9-34.5,39.1-36.3,40.7c-2.6-0.8-29.3-9.3-59-24.2c-28.7-14.4-66.1-37.8-81.4-67.8c-18.6-36.5-7.8-65.4,10-76.8
				c4.2-2.7,9.2-4.6,14.8-5.6c17.2-3,40.4,3.6,65.3,29.2l0.6,0.6l0.1-0.8C123.7,19.7,140.4,4.8,159.4,1.6z"/>
		</g>
	</g>
</g>
</svg>
